G04 EAGLE Gerber X2 export*
%TF.Part,Single*%
%TF.FileFunction,Other,Top Layer*%
%TF.FilePolarity,Positive*%
%TF.GenerationSoftware,Autodesk,EAGLE,9.4.0*%
%TF.CreationDate,2019-06-23T01:53:01Z*%
G75*
%MOMM*%
%FSLAX34Y34*%
%LPD*%
%INTop Layer*%
%AMOC8*
5,1,8,0,0,1.08239X$1,22.5*%
G01*
%ADD10C,0.050000*%
%ADD11C,1.524000*%
%ADD12C,1.800000*%
%ADD13C,1.300000*%
%ADD14C,0.000000*%
%ADD15C,1.219200*%
%ADD16P,1.484606X8X202.500000*%
%ADD17P,1.924489X8X162.500000*%
%ADD18C,0.406400*%
%ADD19C,0.654800*%
%ADD20C,0.304800*%

G36*
X465606Y5333D02*
X465606Y5333D01*
X465624Y5331D01*
X465806Y5352D01*
X465989Y5371D01*
X466006Y5376D01*
X466023Y5378D01*
X466198Y5435D01*
X466374Y5489D01*
X466389Y5497D01*
X466406Y5503D01*
X466566Y5593D01*
X466728Y5681D01*
X466741Y5692D01*
X466757Y5701D01*
X466896Y5821D01*
X467037Y5938D01*
X467048Y5952D01*
X467062Y5964D01*
X467174Y6109D01*
X467289Y6252D01*
X467297Y6268D01*
X467308Y6282D01*
X467390Y6447D01*
X467475Y6609D01*
X467480Y6626D01*
X467488Y6642D01*
X467535Y6821D01*
X467586Y6996D01*
X467588Y7014D01*
X467592Y7031D01*
X467619Y7362D01*
X467619Y670306D01*
X467617Y670324D01*
X467619Y670342D01*
X467598Y670524D01*
X467579Y670707D01*
X467574Y670724D01*
X467572Y670741D01*
X467515Y670916D01*
X467461Y671092D01*
X467453Y671107D01*
X467447Y671124D01*
X467357Y671284D01*
X467269Y671446D01*
X467258Y671459D01*
X467249Y671475D01*
X467129Y671614D01*
X467012Y671755D01*
X466998Y671766D01*
X466986Y671780D01*
X466842Y671892D01*
X466698Y672007D01*
X466682Y672015D01*
X466668Y672026D01*
X466503Y672108D01*
X466341Y672193D01*
X466324Y672198D01*
X466308Y672206D01*
X466129Y672253D01*
X465954Y672304D01*
X465936Y672306D01*
X465919Y672310D01*
X465588Y672337D01*
X456884Y672337D01*
X456591Y672630D01*
X456570Y672647D01*
X456553Y672668D01*
X456415Y672774D01*
X456280Y672885D01*
X456256Y672898D01*
X456235Y672914D01*
X456079Y672992D01*
X455924Y673074D01*
X455898Y673082D01*
X455874Y673094D01*
X455705Y673139D01*
X455538Y673189D01*
X455511Y673191D01*
X455485Y673198D01*
X455155Y673225D01*
X451506Y673225D01*
X447638Y674828D01*
X444678Y677788D01*
X444201Y678939D01*
X444190Y678959D01*
X444183Y678980D01*
X444095Y679137D01*
X444011Y679294D01*
X443996Y679311D01*
X443985Y679331D01*
X443868Y679467D01*
X443754Y679605D01*
X443737Y679619D01*
X443722Y679636D01*
X443581Y679745D01*
X443441Y679858D01*
X443422Y679869D01*
X443404Y679882D01*
X443244Y679962D01*
X443085Y680045D01*
X443064Y680052D01*
X443044Y680062D01*
X442870Y680108D01*
X442699Y680158D01*
X442676Y680160D01*
X442655Y680166D01*
X442324Y680193D01*
X421763Y680193D01*
X421737Y680191D01*
X421710Y680193D01*
X421536Y680171D01*
X421363Y680153D01*
X421337Y680146D01*
X421311Y680142D01*
X421145Y680087D01*
X420978Y680035D01*
X420954Y680022D01*
X420929Y680014D01*
X420777Y679927D01*
X420624Y679843D01*
X420603Y679826D01*
X420580Y679813D01*
X420327Y679598D01*
X416032Y675304D01*
X416021Y675290D01*
X416007Y675278D01*
X415893Y675134D01*
X415777Y674992D01*
X415769Y674976D01*
X415758Y674962D01*
X415674Y674798D01*
X415589Y674636D01*
X415583Y674619D01*
X415575Y674603D01*
X415526Y674426D01*
X415474Y674250D01*
X415472Y674233D01*
X415467Y674215D01*
X415454Y674032D01*
X415437Y673849D01*
X415439Y673832D01*
X415438Y673814D01*
X415461Y673633D01*
X415481Y673449D01*
X415486Y673432D01*
X415488Y673414D01*
X415547Y673241D01*
X415602Y673065D01*
X415611Y673050D01*
X415617Y673033D01*
X415709Y672873D01*
X415797Y672713D01*
X415809Y672699D01*
X415818Y672684D01*
X416032Y672431D01*
X416737Y671726D01*
X418881Y666551D01*
X418881Y660949D01*
X416737Y655774D01*
X412776Y651813D01*
X407601Y649669D01*
X401999Y649669D01*
X396824Y651813D01*
X392863Y655774D01*
X390719Y660949D01*
X390719Y666551D01*
X392675Y671273D01*
X392682Y671294D01*
X392692Y671314D01*
X392740Y671486D01*
X392792Y671658D01*
X392794Y671680D01*
X392800Y671702D01*
X392813Y671881D01*
X392830Y672059D01*
X392828Y672081D01*
X392829Y672103D01*
X392807Y672282D01*
X392788Y672459D01*
X392782Y672481D01*
X392779Y672503D01*
X392722Y672672D01*
X392668Y672844D01*
X392658Y672863D01*
X392651Y672885D01*
X392561Y673040D01*
X392475Y673197D01*
X392461Y673214D01*
X392450Y673233D01*
X392235Y673486D01*
X386123Y679598D01*
X386102Y679615D01*
X386085Y679636D01*
X385947Y679743D01*
X385812Y679853D01*
X385788Y679866D01*
X385767Y679882D01*
X385610Y679960D01*
X385456Y680042D01*
X385430Y680050D01*
X385406Y680062D01*
X385237Y680107D01*
X385070Y680157D01*
X385043Y680159D01*
X385017Y680166D01*
X384687Y680193D01*
X339876Y680193D01*
X339854Y680191D01*
X339831Y680193D01*
X339653Y680171D01*
X339475Y680153D01*
X339454Y680147D01*
X339432Y680144D01*
X339261Y680088D01*
X339090Y680035D01*
X339071Y680025D01*
X339050Y680018D01*
X338894Y679929D01*
X338736Y679843D01*
X338719Y679829D01*
X338700Y679818D01*
X338564Y679700D01*
X338427Y679586D01*
X338413Y679568D01*
X338396Y679554D01*
X338287Y679411D01*
X338175Y679272D01*
X338164Y679252D01*
X338151Y679235D01*
X337999Y678939D01*
X337522Y677788D01*
X334562Y674828D01*
X331246Y673454D01*
X330694Y673225D01*
X326506Y673225D01*
X322638Y674828D01*
X319678Y677788D01*
X318075Y681656D01*
X318075Y685844D01*
X319678Y689712D01*
X322638Y692672D01*
X326506Y694275D01*
X330694Y694275D01*
X334562Y692672D01*
X337522Y689712D01*
X337999Y688561D01*
X338010Y688541D01*
X338017Y688520D01*
X338105Y688363D01*
X338189Y688206D01*
X338204Y688189D01*
X338215Y688169D01*
X338332Y688033D01*
X338446Y687895D01*
X338463Y687881D01*
X338478Y687864D01*
X338619Y687755D01*
X338759Y687642D01*
X338778Y687631D01*
X338796Y687618D01*
X338956Y687538D01*
X339115Y687455D01*
X339136Y687448D01*
X339156Y687438D01*
X339330Y687392D01*
X339501Y687342D01*
X339524Y687340D01*
X339545Y687334D01*
X339876Y687307D01*
X392515Y687307D01*
X392542Y687309D01*
X392569Y687307D01*
X392743Y687329D01*
X392916Y687347D01*
X392941Y687354D01*
X392968Y687358D01*
X393134Y687413D01*
X393301Y687465D01*
X393324Y687478D01*
X393350Y687486D01*
X393501Y687573D01*
X393655Y687657D01*
X393675Y687674D01*
X393699Y687687D01*
X393952Y687902D01*
X394549Y688499D01*
X415051Y688499D01*
X415648Y687902D01*
X415669Y687885D01*
X415687Y687864D01*
X415825Y687757D01*
X415960Y687647D01*
X415984Y687634D01*
X416005Y687618D01*
X416162Y687540D01*
X416316Y687458D01*
X416341Y687450D01*
X416365Y687438D01*
X416535Y687393D01*
X416702Y687343D01*
X416728Y687341D01*
X416754Y687334D01*
X417085Y687307D01*
X442324Y687307D01*
X442346Y687309D01*
X442369Y687307D01*
X442547Y687329D01*
X442725Y687347D01*
X442746Y687353D01*
X442768Y687356D01*
X442939Y687412D01*
X443110Y687465D01*
X443129Y687475D01*
X443150Y687482D01*
X443306Y687571D01*
X443464Y687657D01*
X443481Y687671D01*
X443500Y687682D01*
X443636Y687800D01*
X443773Y687914D01*
X443787Y687932D01*
X443804Y687946D01*
X443913Y688089D01*
X444025Y688228D01*
X444036Y688248D01*
X444049Y688265D01*
X444201Y688561D01*
X444678Y689712D01*
X447638Y692672D01*
X451506Y694275D01*
X455694Y694275D01*
X458608Y693067D01*
X458638Y693058D01*
X458666Y693044D01*
X458831Y693000D01*
X458994Y692951D01*
X459025Y692948D01*
X459055Y692940D01*
X459386Y692913D01*
X465588Y692913D01*
X465606Y692915D01*
X465624Y692913D01*
X465806Y692934D01*
X465989Y692953D01*
X466006Y692958D01*
X466023Y692960D01*
X466198Y693017D01*
X466374Y693071D01*
X466389Y693079D01*
X466406Y693085D01*
X466566Y693175D01*
X466728Y693263D01*
X466741Y693274D01*
X466757Y693283D01*
X466896Y693403D01*
X467037Y693520D01*
X467048Y693534D01*
X467062Y693546D01*
X467174Y693691D01*
X467289Y693834D01*
X467297Y693850D01*
X467308Y693864D01*
X467390Y694029D01*
X467475Y694191D01*
X467480Y694208D01*
X467488Y694224D01*
X467535Y694403D01*
X467586Y694578D01*
X467588Y694596D01*
X467592Y694613D01*
X467619Y694944D01*
X467619Y721106D01*
X467617Y721124D01*
X467619Y721142D01*
X467598Y721324D01*
X467579Y721507D01*
X467574Y721524D01*
X467572Y721541D01*
X467515Y721716D01*
X467461Y721892D01*
X467453Y721907D01*
X467447Y721924D01*
X467357Y722084D01*
X467269Y722246D01*
X467258Y722259D01*
X467249Y722275D01*
X467129Y722414D01*
X467012Y722555D01*
X466998Y722566D01*
X466986Y722580D01*
X466841Y722692D01*
X466698Y722807D01*
X466682Y722815D01*
X466668Y722826D01*
X466503Y722908D01*
X466341Y722993D01*
X466324Y722998D01*
X466308Y723006D01*
X466129Y723053D01*
X465954Y723104D01*
X465936Y723106D01*
X465919Y723110D01*
X465588Y723137D01*
X456512Y723137D01*
X456505Y723139D01*
X456338Y723189D01*
X456311Y723191D01*
X456285Y723198D01*
X455955Y723225D01*
X451506Y723225D01*
X447638Y724828D01*
X444678Y727788D01*
X443075Y731656D01*
X443075Y735844D01*
X444678Y739712D01*
X447638Y742672D01*
X451506Y744275D01*
X455693Y744275D01*
X456677Y743867D01*
X456707Y743858D01*
X456735Y743844D01*
X456900Y743800D01*
X457062Y743751D01*
X457093Y743748D01*
X457124Y743740D01*
X457454Y743713D01*
X465588Y743713D01*
X465606Y743715D01*
X465624Y743713D01*
X465806Y743734D01*
X465989Y743753D01*
X466006Y743758D01*
X466023Y743760D01*
X466198Y743817D01*
X466374Y743871D01*
X466389Y743879D01*
X466406Y743885D01*
X466566Y743975D01*
X466728Y744063D01*
X466741Y744074D01*
X466757Y744083D01*
X466896Y744203D01*
X467037Y744320D01*
X467048Y744334D01*
X467062Y744346D01*
X467174Y744491D01*
X467289Y744634D01*
X467297Y744650D01*
X467308Y744664D01*
X467390Y744829D01*
X467475Y744991D01*
X467480Y745008D01*
X467488Y745024D01*
X467535Y745203D01*
X467586Y745378D01*
X467588Y745396D01*
X467592Y745413D01*
X467619Y745744D01*
X467619Y816356D01*
X467617Y816374D01*
X467619Y816392D01*
X467598Y816574D01*
X467579Y816757D01*
X467574Y816774D01*
X467572Y816791D01*
X467515Y816966D01*
X467461Y817142D01*
X467453Y817157D01*
X467447Y817174D01*
X467357Y817334D01*
X467269Y817496D01*
X467258Y817509D01*
X467249Y817525D01*
X467129Y817664D01*
X467012Y817805D01*
X466998Y817816D01*
X466986Y817830D01*
X466841Y817942D01*
X466698Y818057D01*
X466682Y818065D01*
X466668Y818076D01*
X466503Y818158D01*
X466341Y818243D01*
X466324Y818248D01*
X466308Y818256D01*
X466129Y818303D01*
X465954Y818354D01*
X465936Y818356D01*
X465919Y818360D01*
X465588Y818387D01*
X460363Y818387D01*
X460332Y818384D01*
X460301Y818386D01*
X460131Y818364D01*
X459962Y818347D01*
X459933Y818338D01*
X459902Y818334D01*
X459586Y818233D01*
X455754Y816645D01*
X451566Y816645D01*
X447698Y818248D01*
X444738Y821208D01*
X443135Y825076D01*
X443135Y829264D01*
X444738Y833132D01*
X447698Y836092D01*
X451566Y837695D01*
X454775Y837695D01*
X454801Y837697D01*
X454828Y837695D01*
X455002Y837717D01*
X455175Y837735D01*
X455201Y837742D01*
X455227Y837746D01*
X455393Y837802D01*
X455560Y837853D01*
X455584Y837866D01*
X455609Y837874D01*
X455760Y837961D01*
X455914Y838045D01*
X455935Y838062D01*
X455958Y838075D01*
X456211Y838290D01*
X456884Y838963D01*
X465588Y838963D01*
X465606Y838965D01*
X465624Y838963D01*
X465806Y838984D01*
X465989Y839003D01*
X466006Y839008D01*
X466023Y839010D01*
X466198Y839067D01*
X466374Y839121D01*
X466389Y839129D01*
X466406Y839135D01*
X466566Y839225D01*
X466728Y839313D01*
X466741Y839324D01*
X466757Y839333D01*
X466896Y839453D01*
X467037Y839570D01*
X467048Y839584D01*
X467062Y839596D01*
X467174Y839741D01*
X467289Y839884D01*
X467297Y839900D01*
X467308Y839914D01*
X467390Y840079D01*
X467475Y840241D01*
X467480Y840258D01*
X467488Y840274D01*
X467535Y840453D01*
X467586Y840628D01*
X467588Y840646D01*
X467592Y840663D01*
X467619Y840994D01*
X467619Y864616D01*
X467617Y864634D01*
X467619Y864652D01*
X467598Y864834D01*
X467579Y865017D01*
X467574Y865034D01*
X467572Y865051D01*
X467515Y865226D01*
X467461Y865402D01*
X467453Y865417D01*
X467447Y865434D01*
X467357Y865594D01*
X467269Y865756D01*
X467258Y865769D01*
X467249Y865785D01*
X467129Y865924D01*
X467012Y866065D01*
X466998Y866076D01*
X466986Y866090D01*
X466841Y866202D01*
X466698Y866317D01*
X466682Y866325D01*
X466668Y866336D01*
X466503Y866418D01*
X466341Y866503D01*
X466324Y866508D01*
X466308Y866516D01*
X466129Y866563D01*
X465954Y866614D01*
X465936Y866616D01*
X465919Y866620D01*
X465588Y866647D01*
X458916Y866647D01*
X458806Y866636D01*
X458695Y866635D01*
X458606Y866616D01*
X458516Y866607D01*
X458409Y866575D01*
X458301Y866552D01*
X458201Y866511D01*
X458131Y866489D01*
X458125Y866486D01*
X456659Y866010D01*
X456659Y866031D01*
X456657Y866057D01*
X456659Y866084D01*
X456637Y866258D01*
X456619Y866431D01*
X456612Y866457D01*
X456608Y866483D01*
X456553Y866649D01*
X456501Y866816D01*
X456488Y866840D01*
X456480Y866865D01*
X456437Y866939D01*
X456437Y867887D01*
X456508Y868020D01*
X456516Y868046D01*
X456528Y868070D01*
X456573Y868239D01*
X456623Y868406D01*
X456625Y868433D01*
X456632Y868459D01*
X456659Y868789D01*
X456659Y876202D01*
X456657Y876220D01*
X456659Y876237D01*
X456638Y876420D01*
X456619Y876602D01*
X456614Y876619D01*
X456612Y876637D01*
X456555Y876812D01*
X456501Y876987D01*
X456493Y877003D01*
X456487Y877020D01*
X456403Y877169D01*
X456430Y877223D01*
X456515Y877386D01*
X456520Y877403D01*
X456528Y877419D01*
X456575Y877597D01*
X456626Y877772D01*
X456628Y877790D01*
X456632Y877807D01*
X456659Y878138D01*
X456659Y887621D01*
X456657Y887647D01*
X456659Y887674D01*
X456637Y887848D01*
X456619Y888021D01*
X456612Y888047D01*
X456608Y888073D01*
X456553Y888239D01*
X456501Y888406D01*
X456488Y888430D01*
X456480Y888455D01*
X456437Y888529D01*
X456437Y889316D01*
X456884Y889763D01*
X465588Y889763D01*
X465606Y889765D01*
X465624Y889763D01*
X465806Y889784D01*
X465989Y889803D01*
X466006Y889808D01*
X466023Y889810D01*
X466198Y889867D01*
X466374Y889921D01*
X466389Y889929D01*
X466406Y889935D01*
X466566Y890025D01*
X466728Y890113D01*
X466741Y890124D01*
X466757Y890133D01*
X466896Y890253D01*
X467037Y890370D01*
X467048Y890384D01*
X467062Y890396D01*
X467174Y890541D01*
X467289Y890684D01*
X467297Y890700D01*
X467308Y890714D01*
X467390Y890879D01*
X467475Y891041D01*
X467480Y891058D01*
X467488Y891074D01*
X467535Y891253D01*
X467586Y891428D01*
X467588Y891446D01*
X467592Y891463D01*
X467619Y891794D01*
X467619Y992638D01*
X467617Y992656D01*
X467619Y992674D01*
X467598Y992856D01*
X467579Y993039D01*
X467574Y993056D01*
X467572Y993073D01*
X467515Y993248D01*
X467461Y993424D01*
X467453Y993439D01*
X467447Y993456D01*
X467357Y993616D01*
X467269Y993778D01*
X467258Y993791D01*
X467249Y993807D01*
X467129Y993946D01*
X467012Y994087D01*
X466998Y994098D01*
X466986Y994112D01*
X466841Y994224D01*
X466698Y994339D01*
X466682Y994347D01*
X466668Y994358D01*
X466503Y994440D01*
X466341Y994525D01*
X466324Y994530D01*
X466308Y994538D01*
X466129Y994585D01*
X465954Y994636D01*
X465936Y994638D01*
X465919Y994642D01*
X465588Y994669D01*
X10312Y994669D01*
X10294Y994667D01*
X10276Y994669D01*
X10094Y994648D01*
X9911Y994629D01*
X9894Y994624D01*
X9877Y994622D01*
X9702Y994565D01*
X9526Y994511D01*
X9511Y994503D01*
X9494Y994497D01*
X9334Y994407D01*
X9172Y994319D01*
X9159Y994308D01*
X9143Y994299D01*
X9004Y994179D01*
X8863Y994062D01*
X8852Y994048D01*
X8838Y994036D01*
X8726Y993891D01*
X8611Y993748D01*
X8603Y993732D01*
X8592Y993718D01*
X8510Y993553D01*
X8425Y993391D01*
X8420Y993374D01*
X8412Y993358D01*
X8365Y993179D01*
X8314Y993004D01*
X8312Y992986D01*
X8308Y992969D01*
X8281Y992638D01*
X8281Y7362D01*
X8283Y7344D01*
X8281Y7326D01*
X8302Y7144D01*
X8321Y6961D01*
X8326Y6944D01*
X8328Y6927D01*
X8385Y6752D01*
X8439Y6576D01*
X8447Y6561D01*
X8453Y6544D01*
X8543Y6384D01*
X8631Y6222D01*
X8642Y6209D01*
X8651Y6193D01*
X8771Y6054D01*
X8888Y5913D01*
X8902Y5902D01*
X8914Y5888D01*
X9059Y5776D01*
X9202Y5661D01*
X9218Y5653D01*
X9232Y5642D01*
X9397Y5560D01*
X9559Y5475D01*
X9576Y5470D01*
X9592Y5462D01*
X9771Y5415D01*
X9946Y5364D01*
X9964Y5362D01*
X9981Y5358D01*
X10312Y5331D01*
X465588Y5331D01*
X465606Y5333D01*
G37*
%LPC*%
G36*
X415754Y24708D02*
X415754Y24708D01*
X407103Y29016D01*
X400593Y36157D01*
X397102Y45168D01*
X397102Y54911D01*
X397117Y54961D01*
X397119Y54980D01*
X397124Y54998D01*
X397137Y55179D01*
X397153Y55362D01*
X397151Y55381D01*
X397153Y55400D01*
X397130Y55581D01*
X397110Y55762D01*
X397104Y55780D01*
X397102Y55799D01*
X397043Y55973D01*
X396988Y56146D01*
X396979Y56162D01*
X396973Y56180D01*
X396882Y56339D01*
X396794Y56498D01*
X396781Y56513D01*
X396772Y56529D01*
X396651Y56667D01*
X396533Y56805D01*
X396518Y56817D01*
X396506Y56831D01*
X396360Y56942D01*
X396217Y57055D01*
X396200Y57063D01*
X396185Y57075D01*
X396021Y57154D01*
X395858Y57237D01*
X395840Y57242D01*
X395823Y57250D01*
X395646Y57296D01*
X395470Y57345D01*
X395451Y57346D01*
X395433Y57351D01*
X395252Y57361D01*
X395069Y57374D01*
X395050Y57372D01*
X395031Y57373D01*
X394852Y57347D01*
X394669Y57324D01*
X394651Y57318D01*
X394633Y57315D01*
X394461Y57254D01*
X394288Y57196D01*
X394271Y57186D01*
X394253Y57180D01*
X394097Y57086D01*
X393939Y56995D01*
X393923Y56981D01*
X393908Y56972D01*
X393852Y56921D01*
X393686Y56780D01*
X388779Y51873D01*
X374939Y43177D01*
X359511Y37778D01*
X343269Y35948D01*
X327026Y37778D01*
X311598Y43177D01*
X297758Y51873D01*
X286200Y63431D01*
X277504Y77271D01*
X272106Y92699D01*
X270276Y108941D01*
X272106Y125184D01*
X277504Y140612D01*
X286200Y154452D01*
X297758Y166009D01*
X311598Y174706D01*
X313631Y175417D01*
X313695Y175446D01*
X313762Y175468D01*
X313877Y175531D01*
X313996Y175587D01*
X314053Y175629D01*
X314114Y175663D01*
X314214Y175748D01*
X314320Y175825D01*
X314368Y175878D01*
X314421Y175923D01*
X314503Y176026D01*
X314591Y176123D01*
X314627Y176184D01*
X314671Y176239D01*
X314730Y176356D01*
X314798Y176469D01*
X314821Y176535D01*
X314853Y176598D01*
X314889Y176725D01*
X314932Y176848D01*
X314942Y176918D01*
X314961Y176986D01*
X314971Y177117D01*
X314989Y177247D01*
X314985Y177317D01*
X314991Y177387D01*
X314974Y177518D01*
X314967Y177649D01*
X314949Y177717D01*
X314940Y177787D01*
X314898Y177911D01*
X314865Y178038D01*
X314834Y178102D01*
X314812Y178169D01*
X314746Y178283D01*
X314689Y178400D01*
X314646Y178456D01*
X314611Y178517D01*
X314497Y178652D01*
X314445Y178720D01*
X314422Y178741D01*
X314396Y178770D01*
X276031Y217136D01*
X276031Y322066D01*
X276028Y322093D01*
X276030Y322120D01*
X276008Y322294D01*
X275991Y322467D01*
X275983Y322492D01*
X275980Y322519D01*
X275924Y322685D01*
X275873Y322852D01*
X275860Y322875D01*
X275851Y322901D01*
X275764Y323052D01*
X275681Y323206D01*
X275664Y323226D01*
X275651Y323250D01*
X275436Y323503D01*
X202532Y396406D01*
X202511Y396423D01*
X202494Y396444D01*
X202356Y396551D01*
X202221Y396661D01*
X202197Y396674D01*
X202176Y396690D01*
X202019Y396768D01*
X201865Y396850D01*
X201839Y396858D01*
X201815Y396870D01*
X201646Y396915D01*
X201479Y396965D01*
X201452Y396967D01*
X201427Y396974D01*
X201096Y397001D01*
X125737Y397001D01*
X66582Y456156D01*
X66561Y456173D01*
X66544Y456194D01*
X66406Y456301D01*
X66271Y456411D01*
X66247Y456424D01*
X66226Y456440D01*
X66069Y456518D01*
X65915Y456600D01*
X65889Y456608D01*
X65865Y456620D01*
X65696Y456665D01*
X65529Y456715D01*
X65502Y456717D01*
X65477Y456724D01*
X65146Y456751D01*
X43343Y456751D01*
X43321Y456749D01*
X43299Y456751D01*
X43121Y456729D01*
X42942Y456711D01*
X42921Y456705D01*
X42899Y456702D01*
X42729Y456646D01*
X42557Y456593D01*
X42538Y456583D01*
X42517Y456576D01*
X42361Y456487D01*
X42203Y456401D01*
X42186Y456387D01*
X42167Y456376D01*
X42031Y456258D01*
X41894Y456144D01*
X41880Y456126D01*
X41863Y456112D01*
X41754Y455969D01*
X41642Y455830D01*
X41632Y455810D01*
X41618Y455792D01*
X41466Y455497D01*
X41461Y455483D01*
X39317Y453339D01*
X36516Y452179D01*
X33484Y452179D01*
X30683Y453339D01*
X28539Y455483D01*
X27379Y458284D01*
X27379Y461549D01*
X27377Y461576D01*
X27379Y461603D01*
X27357Y461777D01*
X27339Y461950D01*
X27332Y461975D01*
X27328Y462002D01*
X27273Y462168D01*
X27221Y462335D01*
X27208Y462358D01*
X27200Y462384D01*
X27113Y462535D01*
X27029Y462689D01*
X27012Y462709D01*
X26999Y462733D01*
X26784Y462986D01*
X15493Y474277D01*
X15493Y592173D01*
X34734Y611414D01*
X34745Y611428D01*
X34759Y611439D01*
X34873Y611583D01*
X34989Y611725D01*
X34997Y611741D01*
X35008Y611755D01*
X35092Y611919D01*
X35177Y612081D01*
X35182Y612098D01*
X35191Y612114D01*
X35240Y612291D01*
X35292Y612467D01*
X35294Y612485D01*
X35299Y612502D01*
X35312Y612685D01*
X35329Y612868D01*
X35327Y612886D01*
X35328Y612903D01*
X35305Y613085D01*
X35285Y613268D01*
X35280Y613285D01*
X35278Y613303D01*
X35219Y613477D01*
X35164Y613652D01*
X35155Y613668D01*
X35149Y613684D01*
X35058Y613843D01*
X34969Y614004D01*
X34957Y614018D01*
X34948Y614033D01*
X34734Y614286D01*
X18172Y630848D01*
X15493Y633527D01*
X15493Y725373D01*
X18809Y728689D01*
X18820Y728703D01*
X18834Y728714D01*
X18947Y728858D01*
X19064Y729000D01*
X19072Y729016D01*
X19083Y729030D01*
X19167Y729194D01*
X19252Y729356D01*
X19257Y729373D01*
X19266Y729389D01*
X19315Y729566D01*
X19367Y729742D01*
X19369Y729760D01*
X19374Y729777D01*
X19387Y729960D01*
X19404Y730143D01*
X19402Y730161D01*
X19403Y730178D01*
X19380Y730360D01*
X19360Y730543D01*
X19355Y730560D01*
X19353Y730578D01*
X19294Y730751D01*
X19239Y730927D01*
X19230Y730943D01*
X19224Y730959D01*
X19132Y731119D01*
X19044Y731279D01*
X19032Y731293D01*
X19023Y731308D01*
X18809Y731561D01*
X18172Y732198D01*
X15493Y734877D01*
X15493Y865123D01*
X23927Y873557D01*
X31674Y873557D01*
X31696Y873559D01*
X31719Y873557D01*
X31896Y873579D01*
X32075Y873597D01*
X32096Y873603D01*
X32118Y873606D01*
X32288Y873662D01*
X32460Y873715D01*
X32479Y873725D01*
X32500Y873732D01*
X32656Y873821D01*
X32814Y873907D01*
X32831Y873921D01*
X32850Y873932D01*
X32985Y874049D01*
X33123Y874164D01*
X33137Y874182D01*
X33154Y874196D01*
X33263Y874338D01*
X33375Y874478D01*
X33386Y874498D01*
X33399Y874516D01*
X33551Y874811D01*
X34028Y875962D01*
X36988Y878922D01*
X40856Y880525D01*
X45044Y880525D01*
X48912Y878922D01*
X51872Y875962D01*
X53475Y872094D01*
X53475Y867906D01*
X51718Y863665D01*
X51709Y863636D01*
X51694Y863607D01*
X51658Y863471D01*
X51614Y863339D01*
X51610Y863307D01*
X51601Y863280D01*
X51599Y863250D01*
X51590Y863218D01*
X51574Y863022D01*
X51563Y862939D01*
X51565Y862916D01*
X51563Y862887D01*
X51563Y853040D01*
X51570Y852971D01*
X51567Y852902D01*
X51589Y852771D01*
X51603Y852639D01*
X51623Y852573D01*
X51634Y852505D01*
X51682Y852381D01*
X51721Y852254D01*
X51754Y852194D01*
X51778Y852129D01*
X51871Y851976D01*
X51913Y851900D01*
X51931Y851878D01*
X51951Y851846D01*
X52821Y850649D01*
X53645Y849030D01*
X54110Y847599D01*
X43918Y847599D01*
X43900Y847597D01*
X43883Y847599D01*
X43700Y847578D01*
X43518Y847559D01*
X43501Y847554D01*
X43483Y847552D01*
X43308Y847495D01*
X43133Y847441D01*
X43117Y847433D01*
X43100Y847427D01*
X42951Y847343D01*
X42897Y847370D01*
X42734Y847455D01*
X42717Y847460D01*
X42701Y847468D01*
X42523Y847515D01*
X42348Y847566D01*
X42330Y847568D01*
X42313Y847572D01*
X41982Y847599D01*
X31777Y847599D01*
X31779Y847610D01*
X31817Y847740D01*
X31822Y847807D01*
X31836Y847872D01*
X31839Y848007D01*
X31850Y848142D01*
X31842Y848208D01*
X31843Y848274D01*
X31819Y848407D01*
X31803Y848541D01*
X31782Y848605D01*
X31770Y848670D01*
X31720Y848796D01*
X31678Y848924D01*
X31645Y848982D01*
X31621Y849044D01*
X31547Y849157D01*
X31480Y849275D01*
X31437Y849325D01*
X31400Y849381D01*
X31305Y849477D01*
X31217Y849580D01*
X31164Y849620D01*
X31118Y849668D01*
X31006Y849744D01*
X30899Y849826D01*
X30839Y849856D01*
X30784Y849893D01*
X30660Y849945D01*
X30538Y850006D01*
X30474Y850023D01*
X30413Y850048D01*
X30280Y850075D01*
X30149Y850110D01*
X30073Y850116D01*
X30018Y850127D01*
X29939Y850127D01*
X29819Y850137D01*
X24638Y850137D01*
X24620Y850135D01*
X24602Y850137D01*
X24420Y850116D01*
X24237Y850097D01*
X24220Y850092D01*
X24203Y850090D01*
X24028Y850033D01*
X23852Y849979D01*
X23837Y849971D01*
X23820Y849965D01*
X23660Y849875D01*
X23498Y849787D01*
X23485Y849776D01*
X23469Y849767D01*
X23330Y849647D01*
X23189Y849530D01*
X23178Y849516D01*
X23164Y849504D01*
X23052Y849359D01*
X22937Y849216D01*
X22929Y849200D01*
X22918Y849186D01*
X22836Y849021D01*
X22751Y848859D01*
X22746Y848842D01*
X22738Y848826D01*
X22691Y848647D01*
X22640Y848472D01*
X22638Y848454D01*
X22634Y848437D01*
X22607Y848106D01*
X22607Y738665D01*
X22609Y738638D01*
X22607Y738611D01*
X22629Y738437D01*
X22647Y738264D01*
X22654Y738239D01*
X22658Y738212D01*
X22713Y738046D01*
X22765Y737879D01*
X22778Y737856D01*
X22786Y737830D01*
X22873Y737679D01*
X22957Y737525D01*
X22974Y737505D01*
X22987Y737481D01*
X23202Y737228D01*
X26278Y734152D01*
X26299Y734135D01*
X26317Y734114D01*
X26454Y734007D01*
X26590Y733897D01*
X26613Y733884D01*
X26635Y733868D01*
X26792Y733790D01*
X26946Y733708D01*
X26971Y733700D01*
X26995Y733688D01*
X27165Y733643D01*
X27331Y733593D01*
X27358Y733591D01*
X27384Y733584D01*
X27715Y733557D01*
X31674Y733557D01*
X31696Y733559D01*
X31719Y733557D01*
X31897Y733579D01*
X32075Y733597D01*
X32096Y733603D01*
X32118Y733606D01*
X32289Y733662D01*
X32460Y733715D01*
X32479Y733725D01*
X32500Y733732D01*
X32656Y733821D01*
X32814Y733907D01*
X32831Y733921D01*
X32850Y733932D01*
X32986Y734050D01*
X33123Y734164D01*
X33137Y734182D01*
X33154Y734196D01*
X33263Y734339D01*
X33375Y734478D01*
X33386Y734498D01*
X33399Y734515D01*
X33551Y734811D01*
X34028Y735962D01*
X36988Y738922D01*
X40856Y740525D01*
X45044Y740525D01*
X48912Y738922D01*
X51872Y735962D01*
X53475Y732094D01*
X53475Y727906D01*
X51718Y723665D01*
X51717Y723662D01*
X51714Y723656D01*
X51706Y723631D01*
X51694Y723607D01*
X51649Y723437D01*
X51638Y723401D01*
X51601Y723280D01*
X51601Y723277D01*
X51599Y723270D01*
X51597Y723244D01*
X51590Y723218D01*
X51563Y722887D01*
X51563Y713040D01*
X51570Y712971D01*
X51567Y712902D01*
X51589Y712771D01*
X51603Y712639D01*
X51623Y712573D01*
X51634Y712505D01*
X51682Y712381D01*
X51721Y712254D01*
X51754Y712194D01*
X51778Y712129D01*
X51871Y711976D01*
X51913Y711900D01*
X51931Y711878D01*
X51951Y711846D01*
X52821Y710649D01*
X53645Y709030D01*
X54110Y707599D01*
X43918Y707599D01*
X43900Y707597D01*
X43883Y707599D01*
X43700Y707578D01*
X43518Y707559D01*
X43501Y707554D01*
X43483Y707552D01*
X43308Y707495D01*
X43133Y707441D01*
X43117Y707433D01*
X43100Y707427D01*
X42951Y707343D01*
X42897Y707370D01*
X42734Y707455D01*
X42717Y707460D01*
X42701Y707468D01*
X42523Y707515D01*
X42348Y707566D01*
X42330Y707568D01*
X42313Y707572D01*
X41982Y707599D01*
X31790Y707599D01*
X31848Y707778D01*
X31877Y707910D01*
X31914Y708040D01*
X31920Y708107D01*
X31934Y708172D01*
X31936Y708307D01*
X31947Y708442D01*
X31939Y708508D01*
X31941Y708574D01*
X31916Y708707D01*
X31900Y708841D01*
X31880Y708905D01*
X31868Y708970D01*
X31817Y709096D01*
X31775Y709224D01*
X31743Y709282D01*
X31718Y709344D01*
X31644Y709457D01*
X31578Y709575D01*
X31534Y709625D01*
X31498Y709681D01*
X31403Y709777D01*
X31314Y709880D01*
X31262Y709920D01*
X31215Y709968D01*
X31103Y710044D01*
X30996Y710126D01*
X30937Y710156D01*
X30882Y710193D01*
X30757Y710245D01*
X30636Y710306D01*
X30571Y710323D01*
X30510Y710349D01*
X30378Y710375D01*
X30247Y710410D01*
X30171Y710416D01*
X30115Y710427D01*
X30037Y710427D01*
X29916Y710437D01*
X24638Y710437D01*
X24620Y710435D01*
X24602Y710437D01*
X24420Y710416D01*
X24237Y710397D01*
X24220Y710392D01*
X24203Y710390D01*
X24028Y710333D01*
X23852Y710279D01*
X23837Y710271D01*
X23820Y710265D01*
X23660Y710175D01*
X23498Y710087D01*
X23485Y710076D01*
X23469Y710067D01*
X23330Y709947D01*
X23189Y709830D01*
X23178Y709816D01*
X23164Y709804D01*
X23052Y709659D01*
X22937Y709516D01*
X22929Y709500D01*
X22918Y709486D01*
X22836Y709321D01*
X22751Y709159D01*
X22746Y709142D01*
X22738Y709126D01*
X22691Y708947D01*
X22640Y708772D01*
X22638Y708754D01*
X22634Y708737D01*
X22607Y708406D01*
X22607Y637315D01*
X22609Y637288D01*
X22607Y637261D01*
X22629Y637087D01*
X22647Y636914D01*
X22654Y636889D01*
X22658Y636862D01*
X22713Y636696D01*
X22765Y636529D01*
X22778Y636506D01*
X22786Y636480D01*
X22873Y636329D01*
X22957Y636175D01*
X22974Y636155D01*
X22987Y636131D01*
X23202Y635878D01*
X42078Y617002D01*
X42099Y616985D01*
X42116Y616964D01*
X42254Y616857D01*
X42390Y616747D01*
X42413Y616734D01*
X42435Y616718D01*
X42591Y616640D01*
X42745Y616558D01*
X42771Y616550D01*
X42795Y616538D01*
X42964Y616493D01*
X43131Y616443D01*
X43158Y616441D01*
X43184Y616434D01*
X43515Y616407D01*
X48410Y616407D01*
X48437Y616409D01*
X48464Y616407D01*
X48638Y616429D01*
X48811Y616447D01*
X48837Y616454D01*
X48863Y616458D01*
X49029Y616513D01*
X49196Y616565D01*
X49220Y616578D01*
X49245Y616586D01*
X49396Y616673D01*
X49550Y616757D01*
X49570Y616774D01*
X49594Y616787D01*
X49847Y617002D01*
X54078Y621233D01*
X61022Y621233D01*
X65933Y616322D01*
X65933Y609378D01*
X61022Y604467D01*
X54078Y604467D01*
X49847Y608698D01*
X49826Y608715D01*
X49809Y608736D01*
X49671Y608843D01*
X49535Y608953D01*
X49512Y608966D01*
X49490Y608982D01*
X49333Y609060D01*
X49179Y609142D01*
X49154Y609150D01*
X49130Y609162D01*
X48960Y609207D01*
X48794Y609257D01*
X48767Y609259D01*
X48741Y609266D01*
X48410Y609293D01*
X43515Y609293D01*
X43488Y609291D01*
X43461Y609293D01*
X43287Y609271D01*
X43114Y609253D01*
X43089Y609246D01*
X43062Y609242D01*
X42896Y609187D01*
X42729Y609135D01*
X42706Y609122D01*
X42680Y609114D01*
X42529Y609027D01*
X42375Y608943D01*
X42355Y608926D01*
X42331Y608913D01*
X42078Y608698D01*
X23202Y589822D01*
X23185Y589801D01*
X23164Y589783D01*
X23057Y589646D01*
X22947Y589510D01*
X22934Y589487D01*
X22918Y589465D01*
X22840Y589308D01*
X22758Y589154D01*
X22750Y589129D01*
X22738Y589105D01*
X22693Y588935D01*
X22643Y588769D01*
X22641Y588742D01*
X22634Y588716D01*
X22607Y588385D01*
X22607Y478065D01*
X22609Y478038D01*
X22607Y478011D01*
X22629Y477837D01*
X22647Y477664D01*
X22654Y477639D01*
X22658Y477612D01*
X22713Y477446D01*
X22765Y477279D01*
X22778Y477256D01*
X22786Y477230D01*
X22873Y477079D01*
X22957Y476925D01*
X22974Y476905D01*
X22987Y476881D01*
X23202Y476628D01*
X31814Y468016D01*
X31835Y467999D01*
X31853Y467978D01*
X31990Y467871D01*
X32126Y467761D01*
X32149Y467748D01*
X32171Y467732D01*
X32328Y467654D01*
X32482Y467572D01*
X32507Y467564D01*
X32531Y467552D01*
X32701Y467507D01*
X32867Y467457D01*
X32894Y467455D01*
X32920Y467448D01*
X33251Y467421D01*
X36516Y467421D01*
X39317Y466261D01*
X41461Y464117D01*
X41466Y464103D01*
X41477Y464083D01*
X41484Y464062D01*
X41572Y463906D01*
X41657Y463748D01*
X41671Y463731D01*
X41682Y463711D01*
X41799Y463575D01*
X41913Y463437D01*
X41930Y463423D01*
X41945Y463406D01*
X42086Y463297D01*
X42226Y463184D01*
X42245Y463173D01*
X42263Y463160D01*
X42423Y463080D01*
X42582Y462997D01*
X42604Y462990D01*
X42624Y462980D01*
X42796Y462934D01*
X42968Y462884D01*
X42991Y462882D01*
X43012Y462876D01*
X43343Y462849D01*
X68513Y462849D01*
X127668Y403694D01*
X127689Y403677D01*
X127706Y403656D01*
X127844Y403549D01*
X127979Y403439D01*
X128003Y403426D01*
X128024Y403410D01*
X128181Y403332D01*
X128335Y403250D01*
X128361Y403242D01*
X128385Y403230D01*
X128554Y403185D01*
X128721Y403135D01*
X128748Y403133D01*
X128773Y403126D01*
X129104Y403099D01*
X204463Y403099D01*
X206844Y400718D01*
X281970Y325591D01*
X281977Y325586D01*
X281983Y325579D01*
X282132Y325459D01*
X282282Y325336D01*
X282290Y325332D01*
X282297Y325326D01*
X282468Y325238D01*
X282637Y325148D01*
X282646Y325145D01*
X282654Y325141D01*
X282839Y325088D01*
X283023Y325033D01*
X283032Y325032D01*
X283041Y325030D01*
X283232Y325014D01*
X283424Y324996D01*
X283433Y324997D01*
X283442Y324997D01*
X283631Y325019D01*
X283825Y325040D01*
X283833Y325043D01*
X283842Y325044D01*
X284024Y325103D01*
X284208Y325161D01*
X284216Y325166D01*
X284225Y325168D01*
X284393Y325263D01*
X284561Y325356D01*
X284567Y325362D01*
X284575Y325366D01*
X284721Y325492D01*
X284868Y325617D01*
X284873Y325624D01*
X284880Y325630D01*
X284997Y325781D01*
X285117Y325933D01*
X285121Y325941D01*
X285127Y325948D01*
X285212Y326120D01*
X285300Y326292D01*
X285302Y326300D01*
X285306Y326308D01*
X285356Y326495D01*
X285408Y326679D01*
X285408Y326688D01*
X285411Y326697D01*
X285438Y327028D01*
X285438Y452301D01*
X286249Y454260D01*
X287749Y455760D01*
X289358Y456426D01*
X289708Y456571D01*
X321056Y456571D01*
X321074Y456573D01*
X321092Y456572D01*
X321274Y456593D01*
X321457Y456611D01*
X321474Y456616D01*
X321491Y456619D01*
X321666Y456675D01*
X321842Y456729D01*
X321857Y456738D01*
X321874Y456743D01*
X322034Y456834D01*
X322196Y456921D01*
X322209Y456933D01*
X322225Y456941D01*
X322364Y457062D01*
X322505Y457179D01*
X322516Y457193D01*
X322530Y457204D01*
X322642Y457349D01*
X322757Y457493D01*
X322765Y457508D01*
X322776Y457523D01*
X322858Y457687D01*
X322943Y457850D01*
X322948Y457867D01*
X322956Y457883D01*
X323003Y458061D01*
X323054Y458237D01*
X323056Y458255D01*
X323060Y458272D01*
X323087Y458603D01*
X323087Y475093D01*
X323085Y475119D01*
X323087Y475146D01*
X323065Y475320D01*
X323047Y475493D01*
X323040Y475519D01*
X323036Y475545D01*
X322981Y475711D01*
X322929Y475878D01*
X322916Y475902D01*
X322908Y475927D01*
X322821Y476079D01*
X322737Y476232D01*
X322720Y476253D01*
X322707Y476276D01*
X322492Y476529D01*
X316660Y482361D01*
X316578Y482429D01*
X316502Y482503D01*
X316423Y482556D01*
X316349Y482616D01*
X316255Y482666D01*
X316166Y482725D01*
X316077Y482760D01*
X315993Y482805D01*
X315891Y482835D01*
X315792Y482875D01*
X315699Y482892D01*
X315607Y482920D01*
X315501Y482929D01*
X315396Y482949D01*
X315301Y482947D01*
X315206Y482956D01*
X315100Y482944D01*
X314994Y482943D01*
X314901Y482923D01*
X314806Y482913D01*
X314704Y482880D01*
X314600Y482858D01*
X314513Y482820D01*
X314422Y482791D01*
X314329Y482740D01*
X314231Y482697D01*
X314153Y482642D01*
X314070Y482596D01*
X313988Y482527D01*
X313901Y482466D01*
X313821Y482385D01*
X313763Y482336D01*
X313726Y482289D01*
X313668Y482230D01*
X307873Y475324D01*
X299278Y474572D01*
X292668Y480118D01*
X291916Y488713D01*
X297477Y495339D01*
X297515Y495344D01*
X297582Y495366D01*
X297652Y495379D01*
X297773Y495428D01*
X297898Y495469D01*
X297960Y495503D01*
X298025Y495530D01*
X298135Y495602D01*
X298248Y495667D01*
X298302Y495713D01*
X298361Y495752D01*
X298454Y495844D01*
X298553Y495930D01*
X298597Y495986D01*
X298647Y496036D01*
X298720Y496144D01*
X298800Y496248D01*
X298831Y496311D01*
X298871Y496370D01*
X298921Y496491D01*
X298979Y496608D01*
X298998Y496677D01*
X299025Y496742D01*
X299050Y496870D01*
X299084Y496997D01*
X299090Y497079D01*
X299102Y497138D01*
X299101Y497214D01*
X299111Y497328D01*
X299111Y499124D01*
X299108Y499151D01*
X299110Y499177D01*
X299088Y499351D01*
X299071Y499525D01*
X299063Y499550D01*
X299060Y499577D01*
X299004Y499742D01*
X298953Y499910D01*
X298940Y499933D01*
X298931Y499958D01*
X298844Y500110D01*
X298761Y500264D01*
X298744Y500284D01*
X298731Y500307D01*
X298516Y500560D01*
X277493Y521583D01*
X277418Y521645D01*
X277349Y521714D01*
X277262Y521772D01*
X277182Y521838D01*
X277096Y521884D01*
X277014Y521938D01*
X276918Y521978D01*
X276826Y522027D01*
X276733Y522055D01*
X276642Y522092D01*
X276540Y522112D01*
X276440Y522142D01*
X276343Y522150D01*
X276247Y522169D01*
X276143Y522169D01*
X276039Y522178D01*
X275942Y522167D01*
X275844Y522167D01*
X275742Y522146D01*
X275639Y522135D01*
X275546Y522105D01*
X275450Y522085D01*
X275354Y522045D01*
X275255Y522013D01*
X275169Y521966D01*
X275080Y521928D01*
X274994Y521869D01*
X274903Y521818D01*
X274828Y521755D01*
X274748Y521700D01*
X274675Y521625D01*
X274596Y521558D01*
X274535Y521481D01*
X274467Y521411D01*
X274411Y521324D01*
X274346Y521242D01*
X274302Y521155D01*
X274249Y521073D01*
X274211Y520976D01*
X274164Y520883D01*
X274137Y520789D01*
X274102Y520698D01*
X274084Y520595D01*
X274056Y520495D01*
X274049Y520398D01*
X274032Y520302D01*
X274032Y520174D01*
X274026Y520093D01*
X274033Y520041D01*
X274033Y519970D01*
X274504Y514586D01*
X268958Y507977D01*
X263529Y507502D01*
X263409Y507479D01*
X263288Y507466D01*
X263212Y507442D01*
X263133Y507427D01*
X263020Y507382D01*
X262904Y507345D01*
X262834Y507306D01*
X262760Y507276D01*
X262658Y507209D01*
X262551Y507150D01*
X262490Y507098D01*
X262424Y507054D01*
X262337Y506968D01*
X262244Y506889D01*
X262195Y506827D01*
X262138Y506770D01*
X262070Y506669D01*
X261995Y506574D01*
X261959Y506502D01*
X261914Y506436D01*
X261868Y506323D01*
X261812Y506215D01*
X261791Y506138D01*
X261761Y506064D01*
X261737Y505944D01*
X261704Y505827D01*
X261699Y505747D01*
X261683Y505669D01*
X261684Y505547D01*
X261675Y505425D01*
X261685Y505346D01*
X261686Y505266D01*
X261710Y505147D01*
X261726Y505026D01*
X261751Y504950D01*
X261767Y504872D01*
X261815Y504760D01*
X261854Y504644D01*
X261894Y504575D01*
X261925Y504501D01*
X261994Y504401D01*
X262055Y504295D01*
X262115Y504224D01*
X262153Y504169D01*
X262203Y504120D01*
X262269Y504042D01*
X263399Y502913D01*
X263399Y417329D01*
X263401Y417302D01*
X263399Y417276D01*
X263421Y417102D01*
X263439Y416928D01*
X263447Y416903D01*
X263450Y416876D01*
X263505Y416711D01*
X263557Y416544D01*
X263570Y416520D01*
X263578Y416495D01*
X263665Y416343D01*
X263749Y416189D01*
X263766Y416169D01*
X263779Y416146D01*
X263994Y415893D01*
X264418Y415468D01*
X265149Y413705D01*
X265149Y411795D01*
X264418Y410032D01*
X263068Y408682D01*
X261305Y407951D01*
X259395Y407951D01*
X257632Y408682D01*
X256282Y410032D01*
X255551Y411795D01*
X255551Y413705D01*
X256282Y415468D01*
X256706Y415893D01*
X256723Y415913D01*
X256744Y415931D01*
X256850Y416069D01*
X256961Y416204D01*
X256974Y416228D01*
X256990Y416249D01*
X257068Y416405D01*
X257150Y416560D01*
X257158Y416586D01*
X257170Y416610D01*
X257215Y416778D01*
X257265Y416946D01*
X257267Y416972D01*
X257274Y416998D01*
X257301Y417329D01*
X257301Y499546D01*
X257299Y499572D01*
X257301Y499599D01*
X257279Y499773D01*
X257261Y499946D01*
X257254Y499972D01*
X257250Y499999D01*
X257195Y500164D01*
X257143Y500331D01*
X257130Y500355D01*
X257122Y500380D01*
X257035Y500532D01*
X256951Y500685D01*
X256934Y500706D01*
X256921Y500729D01*
X256706Y500982D01*
X193801Y563887D01*
X193801Y572629D01*
X193799Y572655D01*
X193801Y572682D01*
X193779Y572856D01*
X193761Y573029D01*
X193754Y573055D01*
X193750Y573081D01*
X193695Y573247D01*
X193643Y573414D01*
X193630Y573438D01*
X193622Y573463D01*
X193535Y573615D01*
X193451Y573768D01*
X193434Y573789D01*
X193421Y573812D01*
X193206Y574065D01*
X188799Y578472D01*
X188778Y578489D01*
X188761Y578510D01*
X188623Y578617D01*
X188488Y578727D01*
X188464Y578740D01*
X188443Y578756D01*
X188286Y578834D01*
X188132Y578916D01*
X188106Y578924D01*
X188082Y578936D01*
X187913Y578981D01*
X187746Y579031D01*
X187719Y579033D01*
X187693Y579040D01*
X187363Y579067D01*
X181078Y579067D01*
X176167Y583978D01*
X176167Y590922D01*
X180252Y595007D01*
X180269Y595028D01*
X180290Y595045D01*
X180397Y595183D01*
X180507Y595319D01*
X180520Y595342D01*
X180536Y595364D01*
X180614Y595520D01*
X180696Y595674D01*
X180704Y595700D01*
X180716Y595724D01*
X180761Y595893D01*
X180811Y596060D01*
X180813Y596087D01*
X180820Y596113D01*
X180847Y596444D01*
X180847Y603856D01*
X180845Y603883D01*
X180847Y603910D01*
X180825Y604084D01*
X180807Y604257D01*
X180800Y604283D01*
X180796Y604309D01*
X180740Y604475D01*
X180689Y604642D01*
X180676Y604666D01*
X180668Y604691D01*
X180581Y604843D01*
X180497Y604996D01*
X180480Y605016D01*
X180467Y605040D01*
X180252Y605293D01*
X176167Y609378D01*
X176167Y616322D01*
X181078Y621233D01*
X188022Y621233D01*
X192933Y616322D01*
X192933Y609620D01*
X192935Y609594D01*
X192933Y609567D01*
X192955Y609393D01*
X192973Y609220D01*
X192980Y609194D01*
X192984Y609167D01*
X193039Y609002D01*
X193091Y608835D01*
X193104Y608811D01*
X193112Y608786D01*
X193199Y608634D01*
X193283Y608481D01*
X193300Y608460D01*
X193313Y608437D01*
X193528Y608184D01*
X197518Y604194D01*
X199933Y601779D01*
X199939Y601721D01*
X199946Y601695D01*
X199950Y601669D01*
X200005Y601503D01*
X200057Y601336D01*
X200070Y601312D01*
X200078Y601287D01*
X200165Y601135D01*
X200249Y600982D01*
X200266Y600961D01*
X200279Y600938D01*
X200494Y600685D01*
X202921Y598258D01*
X202942Y598241D01*
X202959Y598220D01*
X203097Y598113D01*
X203233Y598003D01*
X203256Y597990D01*
X203277Y597974D01*
X203434Y597896D01*
X203588Y597814D01*
X203614Y597806D01*
X203638Y597794D01*
X203807Y597749D01*
X203974Y597699D01*
X204001Y597697D01*
X204027Y597690D01*
X204357Y597663D01*
X222566Y597663D01*
X223013Y597216D01*
X223013Y596584D01*
X222566Y596137D01*
X218022Y596137D01*
X218013Y596136D01*
X218004Y596137D01*
X217812Y596116D01*
X217621Y596097D01*
X217612Y596095D01*
X217603Y596094D01*
X217421Y596036D01*
X217236Y595979D01*
X217228Y595975D01*
X217220Y595972D01*
X217051Y595879D01*
X216882Y595787D01*
X216875Y595782D01*
X216867Y595777D01*
X216719Y595652D01*
X216573Y595530D01*
X216567Y595523D01*
X216560Y595517D01*
X216440Y595365D01*
X216320Y595216D01*
X216316Y595208D01*
X216311Y595201D01*
X216223Y595028D01*
X216135Y594859D01*
X216132Y594850D01*
X216128Y594842D01*
X216076Y594656D01*
X216023Y594472D01*
X216023Y594463D01*
X216020Y594454D01*
X216006Y594262D01*
X215991Y594070D01*
X215992Y594062D01*
X215991Y594053D01*
X216015Y593860D01*
X216038Y593671D01*
X216040Y593662D01*
X216041Y593653D01*
X216103Y593470D01*
X216162Y593288D01*
X216167Y593280D01*
X216170Y593272D01*
X216265Y593106D01*
X216360Y592937D01*
X216366Y592930D01*
X216371Y592923D01*
X216585Y592670D01*
X218333Y590922D01*
X218333Y583978D01*
X214102Y579747D01*
X214085Y579726D01*
X214064Y579709D01*
X213957Y579571D01*
X213847Y579435D01*
X213834Y579412D01*
X213818Y579390D01*
X213740Y579233D01*
X213658Y579079D01*
X213650Y579054D01*
X213638Y579030D01*
X213593Y578860D01*
X213543Y578694D01*
X213541Y578667D01*
X213534Y578641D01*
X213507Y578310D01*
X213507Y567065D01*
X213509Y567038D01*
X213507Y567011D01*
X213529Y566837D01*
X213547Y566664D01*
X213554Y566639D01*
X213558Y566612D01*
X213613Y566446D01*
X213665Y566279D01*
X213678Y566256D01*
X213686Y566230D01*
X213773Y566079D01*
X213857Y565925D01*
X213874Y565905D01*
X213887Y565881D01*
X214102Y565628D01*
X253881Y525849D01*
X253963Y525781D01*
X254039Y525707D01*
X254119Y525654D01*
X254193Y525594D01*
X254287Y525544D01*
X254376Y525485D01*
X254464Y525450D01*
X254548Y525405D01*
X254650Y525375D01*
X254749Y525335D01*
X254843Y525318D01*
X254934Y525290D01*
X255040Y525281D01*
X255145Y525261D01*
X255240Y525263D01*
X255335Y525254D01*
X255441Y525266D01*
X255548Y525267D01*
X255641Y525287D01*
X255735Y525297D01*
X255837Y525330D01*
X255941Y525352D01*
X256028Y525390D01*
X256119Y525419D01*
X256213Y525471D01*
X256310Y525513D01*
X256388Y525568D01*
X256472Y525614D01*
X256553Y525683D01*
X256640Y525744D01*
X256720Y525825D01*
X256779Y525874D01*
X256816Y525921D01*
X256873Y525980D01*
X258548Y527975D01*
X265752Y528605D01*
X265872Y528628D01*
X265993Y528641D01*
X266069Y528665D01*
X266147Y528680D01*
X266260Y528726D01*
X266377Y528763D01*
X266446Y528801D01*
X266520Y528831D01*
X266622Y528899D01*
X266729Y528958D01*
X266790Y529009D01*
X266856Y529053D01*
X266943Y529139D01*
X267036Y529218D01*
X267085Y529281D01*
X267142Y529337D01*
X267210Y529438D01*
X267285Y529534D01*
X267322Y529605D01*
X267366Y529672D01*
X267413Y529784D01*
X267468Y529893D01*
X267489Y529970D01*
X267520Y530044D01*
X267543Y530163D01*
X267576Y530281D01*
X267582Y530361D01*
X267597Y530439D01*
X267596Y530561D01*
X267605Y530682D01*
X267595Y530762D01*
X267595Y530841D01*
X267570Y530961D01*
X267555Y531082D01*
X267529Y531158D01*
X267513Y531236D01*
X267465Y531348D01*
X267427Y531463D01*
X267387Y531533D01*
X267355Y531606D01*
X267286Y531707D01*
X267226Y531812D01*
X267165Y531883D01*
X267128Y531938D01*
X267077Y531987D01*
X267011Y532065D01*
X264675Y534401D01*
X264675Y550904D01*
X264672Y550930D01*
X264674Y550957D01*
X264652Y551131D01*
X264635Y551304D01*
X264627Y551330D01*
X264624Y551357D01*
X264568Y551522D01*
X264517Y551689D01*
X264504Y551713D01*
X264495Y551738D01*
X264408Y551890D01*
X264325Y552043D01*
X264308Y552064D01*
X264295Y552087D01*
X264080Y552340D01*
X256664Y559756D01*
X256643Y559773D01*
X256625Y559794D01*
X256488Y559901D01*
X256352Y560011D01*
X256329Y560024D01*
X256307Y560040D01*
X256150Y560118D01*
X255996Y560200D01*
X255971Y560208D01*
X255947Y560220D01*
X255777Y560265D01*
X255611Y560315D01*
X255584Y560317D01*
X255558Y560324D01*
X255375Y560339D01*
X253582Y561082D01*
X252232Y562432D01*
X251501Y564195D01*
X251501Y566105D01*
X252232Y567868D01*
X253582Y569218D01*
X255345Y569949D01*
X257255Y569949D01*
X259096Y569186D01*
X259156Y569137D01*
X259172Y569129D01*
X259186Y569117D01*
X259350Y569034D01*
X259511Y568948D01*
X259529Y568943D01*
X259545Y568935D01*
X259722Y568886D01*
X259897Y568833D01*
X259915Y568832D01*
X259933Y568827D01*
X260116Y568814D01*
X260298Y568797D01*
X260316Y568799D01*
X260334Y568798D01*
X260517Y568821D01*
X260699Y568840D01*
X260716Y568846D01*
X260734Y568848D01*
X260908Y568907D01*
X261082Y568962D01*
X261098Y568971D01*
X261115Y568976D01*
X261275Y569068D01*
X261435Y569157D01*
X261448Y569168D01*
X261464Y569177D01*
X261717Y569392D01*
X271169Y578844D01*
X271242Y578932D01*
X271321Y579014D01*
X271369Y579088D01*
X271424Y579155D01*
X271478Y579256D01*
X271540Y579352D01*
X271572Y579434D01*
X271613Y579511D01*
X271645Y579620D01*
X271687Y579727D01*
X271707Y579829D01*
X271728Y579897D01*
X271734Y579962D01*
X271751Y580053D01*
X272106Y583199D01*
X277504Y598627D01*
X286200Y612466D01*
X297758Y624024D01*
X311598Y632720D01*
X327026Y638119D01*
X343268Y639949D01*
X359511Y638119D01*
X374939Y632720D01*
X388779Y624024D01*
X400337Y612466D01*
X409033Y598627D01*
X414431Y583199D01*
X416261Y566956D01*
X414431Y550714D01*
X409033Y535286D01*
X400337Y521446D01*
X388779Y509888D01*
X374939Y501192D01*
X365886Y498024D01*
X365822Y497994D01*
X365755Y497973D01*
X365640Y497909D01*
X365521Y497854D01*
X365464Y497812D01*
X365403Y497778D01*
X365303Y497693D01*
X365197Y497615D01*
X365149Y497563D01*
X365096Y497518D01*
X365014Y497415D01*
X364926Y497318D01*
X364890Y497257D01*
X364846Y497202D01*
X364787Y497085D01*
X364719Y496972D01*
X364696Y496906D01*
X364664Y496843D01*
X364629Y496716D01*
X364585Y496593D01*
X364575Y496523D01*
X364556Y496455D01*
X364546Y496324D01*
X364528Y496194D01*
X364532Y496124D01*
X364526Y496053D01*
X364543Y495923D01*
X364550Y495792D01*
X364568Y495724D01*
X364577Y495654D01*
X364619Y495529D01*
X364652Y495402D01*
X364683Y495339D01*
X364705Y495272D01*
X364771Y495158D01*
X364828Y495041D01*
X364871Y494985D01*
X364906Y494923D01*
X365020Y494789D01*
X365072Y494720D01*
X365095Y494700D01*
X365121Y494670D01*
X388339Y471452D01*
X388360Y471435D01*
X388378Y471414D01*
X388516Y471307D01*
X388651Y471197D01*
X388675Y471184D01*
X388696Y471168D01*
X388853Y471090D01*
X389007Y471008D01*
X389032Y471000D01*
X389056Y470988D01*
X389226Y470943D01*
X389393Y470893D01*
X389419Y470891D01*
X389445Y470884D01*
X389776Y470857D01*
X421674Y470857D01*
X421696Y470859D01*
X421719Y470857D01*
X421896Y470879D01*
X422075Y470897D01*
X422096Y470903D01*
X422118Y470906D01*
X422288Y470962D01*
X422460Y471015D01*
X422479Y471025D01*
X422500Y471032D01*
X422656Y471121D01*
X422814Y471207D01*
X422831Y471221D01*
X422850Y471232D01*
X422985Y471349D01*
X423123Y471464D01*
X423137Y471482D01*
X423154Y471496D01*
X423263Y471638D01*
X423375Y471778D01*
X423386Y471798D01*
X423399Y471816D01*
X423551Y472111D01*
X424028Y473262D01*
X426988Y476222D01*
X428235Y476739D01*
X430856Y477825D01*
X435044Y477825D01*
X438912Y476222D01*
X441872Y473262D01*
X443475Y469394D01*
X443475Y465206D01*
X441872Y461338D01*
X438912Y458378D01*
X435044Y456775D01*
X430856Y456775D01*
X426988Y458378D01*
X424028Y461338D01*
X423551Y462489D01*
X423540Y462509D01*
X423533Y462530D01*
X423445Y462687D01*
X423361Y462844D01*
X423346Y462861D01*
X423335Y462881D01*
X423218Y463017D01*
X423104Y463155D01*
X423087Y463169D01*
X423072Y463186D01*
X422931Y463295D01*
X422792Y463408D01*
X422772Y463419D01*
X422754Y463432D01*
X422594Y463512D01*
X422435Y463595D01*
X422414Y463602D01*
X422394Y463612D01*
X422220Y463658D01*
X422049Y463708D01*
X422026Y463710D01*
X422005Y463716D01*
X421674Y463743D01*
X402844Y463743D01*
X402826Y463741D01*
X402808Y463743D01*
X402626Y463722D01*
X402443Y463703D01*
X402426Y463698D01*
X402409Y463696D01*
X402234Y463639D01*
X402058Y463585D01*
X402043Y463577D01*
X402026Y463571D01*
X401866Y463481D01*
X401704Y463393D01*
X401691Y463382D01*
X401675Y463373D01*
X401536Y463253D01*
X401395Y463136D01*
X401384Y463122D01*
X401370Y463110D01*
X401258Y462965D01*
X401143Y462822D01*
X401135Y462806D01*
X401124Y462792D01*
X401042Y462627D01*
X400957Y462465D01*
X400952Y462448D01*
X400944Y462432D01*
X400897Y462253D01*
X400846Y462078D01*
X400844Y462060D01*
X400840Y462043D01*
X400813Y461712D01*
X400813Y453397D01*
X400816Y453366D01*
X400814Y453334D01*
X400836Y453165D01*
X400853Y452996D01*
X400862Y452966D01*
X400866Y452935D01*
X400967Y452619D01*
X401099Y452301D01*
X401099Y222180D01*
X400886Y221665D01*
X400885Y221661D01*
X400883Y221657D01*
X400827Y221470D01*
X400770Y221280D01*
X400769Y221276D01*
X400768Y221271D01*
X400750Y221073D01*
X400731Y220879D01*
X400732Y220875D01*
X400731Y220870D01*
X400753Y220668D01*
X400773Y220479D01*
X400774Y220475D01*
X400775Y220470D01*
X400836Y220276D01*
X400893Y220094D01*
X400895Y220091D01*
X400896Y220086D01*
X400992Y219913D01*
X401086Y219741D01*
X401089Y219738D01*
X401091Y219734D01*
X401220Y219582D01*
X401345Y219433D01*
X401349Y219430D01*
X401352Y219427D01*
X401508Y219303D01*
X401660Y219182D01*
X401664Y219180D01*
X401668Y219177D01*
X401845Y219087D01*
X402018Y218998D01*
X402023Y218997D01*
X402027Y218995D01*
X402219Y218941D01*
X402406Y218889D01*
X402410Y218888D01*
X402414Y218887D01*
X402616Y218872D01*
X402807Y218857D01*
X402811Y218858D01*
X402816Y218858D01*
X403017Y218883D01*
X403207Y218906D01*
X403211Y218907D01*
X403215Y218908D01*
X403406Y218972D01*
X403589Y219033D01*
X403593Y219035D01*
X403597Y219036D01*
X403770Y219136D01*
X403939Y219232D01*
X403942Y219235D01*
X403946Y219237D01*
X404199Y219452D01*
X430496Y245749D01*
X431464Y245749D01*
X431486Y245751D01*
X431508Y245749D01*
X431686Y245771D01*
X431864Y245789D01*
X431886Y245795D01*
X431908Y245798D01*
X432078Y245854D01*
X432249Y245907D01*
X432269Y245917D01*
X432290Y245924D01*
X432446Y246013D01*
X432603Y246099D01*
X432620Y246113D01*
X432640Y246124D01*
X432775Y246242D01*
X432913Y246356D01*
X432926Y246374D01*
X432943Y246388D01*
X433053Y246530D01*
X433165Y246670D01*
X433175Y246690D01*
X433189Y246708D01*
X433340Y247003D01*
X434028Y248662D01*
X436988Y251622D01*
X440856Y253225D01*
X445044Y253225D01*
X448912Y251622D01*
X451872Y248662D01*
X453475Y244794D01*
X453475Y240606D01*
X451872Y236738D01*
X448912Y233778D01*
X445044Y232175D01*
X440856Y232175D01*
X436988Y233778D01*
X434023Y236743D01*
X433942Y236890D01*
X433853Y237056D01*
X433844Y237066D01*
X433838Y237078D01*
X433716Y237221D01*
X433596Y237366D01*
X433586Y237375D01*
X433577Y237385D01*
X433431Y237501D01*
X433284Y237620D01*
X433272Y237626D01*
X433261Y237634D01*
X433094Y237719D01*
X432927Y237807D01*
X432914Y237811D01*
X432902Y237817D01*
X432721Y237867D01*
X432541Y237920D01*
X432528Y237921D01*
X432515Y237925D01*
X432326Y237939D01*
X432140Y237955D01*
X432127Y237953D01*
X432113Y237954D01*
X431926Y237930D01*
X431740Y237910D01*
X431727Y237905D01*
X431714Y237904D01*
X431536Y237844D01*
X431356Y237786D01*
X431345Y237780D01*
X431332Y237776D01*
X431169Y237682D01*
X431005Y237590D01*
X430995Y237581D01*
X430983Y237575D01*
X430730Y237360D01*
X373754Y180384D01*
X372141Y178770D01*
X372096Y178716D01*
X372045Y178668D01*
X371969Y178560D01*
X371886Y178459D01*
X371853Y178397D01*
X371812Y178339D01*
X371758Y178219D01*
X371697Y178103D01*
X371677Y178036D01*
X371648Y177971D01*
X371620Y177843D01*
X371582Y177717D01*
X371576Y177647D01*
X371560Y177578D01*
X371558Y177447D01*
X371546Y177316D01*
X371553Y177246D01*
X371552Y177176D01*
X371575Y177047D01*
X371589Y176916D01*
X371610Y176849D01*
X371623Y176780D01*
X371671Y176658D01*
X371711Y176532D01*
X371745Y176470D01*
X371771Y176405D01*
X371842Y176295D01*
X371905Y176180D01*
X371951Y176126D01*
X371989Y176067D01*
X372081Y175973D01*
X372166Y175873D01*
X372221Y175829D01*
X372270Y175779D01*
X372379Y175705D01*
X372482Y175623D01*
X372545Y175591D01*
X372603Y175552D01*
X372763Y175480D01*
X372841Y175441D01*
X372871Y175433D01*
X372906Y175417D01*
X374939Y174706D01*
X388779Y166009D01*
X400337Y154452D01*
X409033Y140612D01*
X414431Y125184D01*
X416261Y108941D01*
X414431Y92699D01*
X409033Y77271D01*
X408009Y75642D01*
X407987Y75598D01*
X407959Y75558D01*
X407898Y75418D01*
X407830Y75281D01*
X407817Y75234D01*
X407797Y75189D01*
X407765Y75040D01*
X407725Y74892D01*
X407722Y74844D01*
X407711Y74796D01*
X407709Y74643D01*
X407699Y74491D01*
X407705Y74442D01*
X407705Y74394D01*
X407732Y74243D01*
X407753Y74092D01*
X407769Y74046D01*
X407777Y73998D01*
X407834Y73855D01*
X407884Y73711D01*
X407909Y73669D01*
X407927Y73624D01*
X408011Y73496D01*
X408088Y73364D01*
X408120Y73327D01*
X408147Y73287D01*
X408254Y73178D01*
X408356Y73064D01*
X408395Y73034D01*
X408429Y73000D01*
X408556Y72914D01*
X408679Y72822D01*
X408723Y72801D01*
X408763Y72774D01*
X408904Y72715D01*
X409042Y72649D01*
X409089Y72637D01*
X409134Y72619D01*
X409284Y72589D01*
X409433Y72551D01*
X409481Y72549D01*
X409529Y72539D01*
X409682Y72540D01*
X409835Y72532D01*
X409883Y72540D01*
X409932Y72540D01*
X410082Y72570D01*
X410233Y72593D01*
X410279Y72610D01*
X410326Y72619D01*
X410551Y72709D01*
X410611Y72731D01*
X410621Y72737D01*
X410634Y72743D01*
X415754Y75292D01*
X425376Y76183D01*
X434671Y73539D01*
X442383Y67715D01*
X447470Y59499D01*
X449246Y50000D01*
X448558Y46322D01*
X448558Y46321D01*
X447799Y42259D01*
X447798Y42259D01*
X447470Y40501D01*
X442383Y32285D01*
X434671Y26461D01*
X425376Y23817D01*
X415754Y24708D01*
G37*
%LPD*%
%LPC*%
G36*
X140512Y210712D02*
X140512Y210712D01*
X123436Y217036D01*
X107983Y226668D01*
X94785Y239214D01*
X84382Y254160D01*
X77201Y270893D01*
X73536Y288730D01*
X73536Y306939D01*
X77201Y324776D01*
X84382Y341509D01*
X94785Y356455D01*
X107983Y369001D01*
X123436Y378633D01*
X140512Y384957D01*
X158511Y387714D01*
X176697Y386792D01*
X194325Y382228D01*
X210674Y374208D01*
X225073Y363062D01*
X236934Y349246D01*
X245771Y333325D01*
X251222Y315951D01*
X253064Y297835D01*
X251222Y279718D01*
X245771Y262344D01*
X236934Y246423D01*
X225073Y232607D01*
X210674Y221461D01*
X194325Y213441D01*
X176697Y208877D01*
X158511Y207955D01*
X140512Y210712D01*
G37*
%LPD*%
%LPC*%
G36*
X140512Y21819D02*
X140512Y21819D01*
X123436Y28143D01*
X107983Y37775D01*
X94785Y50321D01*
X84382Y65266D01*
X77201Y82000D01*
X73536Y99836D01*
X73536Y118046D01*
X77201Y135882D01*
X84382Y152616D01*
X94785Y167562D01*
X107983Y180107D01*
X123436Y189739D01*
X140512Y196064D01*
X158511Y198821D01*
X176697Y197899D01*
X194325Y193334D01*
X210674Y185315D01*
X225073Y174169D01*
X236934Y160353D01*
X245771Y144431D01*
X251222Y127057D01*
X253064Y108941D01*
X251222Y90825D01*
X245771Y73451D01*
X236934Y57530D01*
X225073Y43713D01*
X210673Y32567D01*
X194325Y24548D01*
X176697Y19984D01*
X158511Y19061D01*
X140512Y21819D01*
G37*
%LPD*%
%LPC*%
G36*
X218500Y667096D02*
X218500Y667096D01*
X204041Y673333D01*
X191411Y682736D01*
X181290Y694798D01*
X174223Y708869D01*
X170592Y724191D01*
X170592Y739937D01*
X174223Y755259D01*
X181290Y769330D01*
X191411Y781392D01*
X204042Y790795D01*
X218500Y797032D01*
X234007Y799766D01*
X249726Y798851D01*
X264811Y794335D01*
X278448Y786462D01*
X289901Y775656D01*
X298553Y762500D01*
X303939Y747704D01*
X305767Y732064D01*
X303939Y716425D01*
X298553Y701628D01*
X289901Y688472D01*
X278448Y677667D01*
X264811Y669794D01*
X249726Y665278D01*
X234007Y664362D01*
X218500Y667096D01*
G37*
%LPD*%
%LPC*%
G36*
X218500Y833401D02*
X218500Y833401D01*
X204041Y839638D01*
X191411Y849041D01*
X181290Y861103D01*
X174223Y875174D01*
X170592Y890496D01*
X170592Y906242D01*
X174223Y921563D01*
X181290Y935635D01*
X191411Y947697D01*
X204042Y957100D01*
X218500Y963337D01*
X234007Y966071D01*
X249726Y965155D01*
X264811Y960639D01*
X278448Y952766D01*
X289901Y941961D01*
X298553Y928805D01*
X303939Y914008D01*
X305767Y898369D01*
X303939Y882729D01*
X298553Y867933D01*
X289901Y854777D01*
X278447Y843971D01*
X264811Y836098D01*
X249726Y831582D01*
X234007Y830667D01*
X218500Y833401D01*
G37*
%LPD*%
%LPC*%
G36*
X33484Y502979D02*
X33484Y502979D01*
X30683Y504139D01*
X28539Y506283D01*
X27379Y509084D01*
X27379Y512116D01*
X28539Y514917D01*
X30683Y517061D01*
X33484Y518221D01*
X36516Y518221D01*
X36530Y518215D01*
X36551Y518208D01*
X36571Y518198D01*
X36744Y518150D01*
X36915Y518098D01*
X36938Y518096D01*
X36959Y518090D01*
X37138Y518077D01*
X37316Y518060D01*
X37338Y518063D01*
X37361Y518061D01*
X37539Y518083D01*
X37717Y518102D01*
X37738Y518109D01*
X37760Y518111D01*
X37930Y518168D01*
X38101Y518222D01*
X38121Y518232D01*
X38142Y518240D01*
X38297Y518329D01*
X38454Y518415D01*
X38471Y518429D01*
X38491Y518440D01*
X38744Y518655D01*
X85906Y565818D01*
X88287Y568199D01*
X109346Y568199D01*
X109372Y568201D01*
X109399Y568199D01*
X109573Y568221D01*
X109746Y568239D01*
X109772Y568246D01*
X109799Y568250D01*
X109964Y568305D01*
X110131Y568357D01*
X110155Y568370D01*
X110180Y568378D01*
X110332Y568465D01*
X110485Y568549D01*
X110506Y568566D01*
X110529Y568579D01*
X110782Y568794D01*
X124772Y582784D01*
X124789Y582805D01*
X124810Y582822D01*
X124917Y582960D01*
X125027Y583095D01*
X125040Y583119D01*
X125056Y583140D01*
X125134Y583297D01*
X125216Y583451D01*
X125224Y583477D01*
X125236Y583501D01*
X125281Y583670D01*
X125331Y583837D01*
X125333Y583864D01*
X125340Y583889D01*
X125367Y584220D01*
X125367Y590922D01*
X125642Y591197D01*
X125659Y591218D01*
X125680Y591235D01*
X125786Y591373D01*
X125897Y591509D01*
X125910Y591532D01*
X125926Y591554D01*
X126004Y591710D01*
X126086Y591864D01*
X126094Y591890D01*
X126106Y591914D01*
X126151Y592083D01*
X126201Y592250D01*
X126203Y592277D01*
X126210Y592303D01*
X126237Y592634D01*
X126237Y607666D01*
X126235Y607693D01*
X126237Y607720D01*
X126215Y607894D01*
X126197Y608067D01*
X126190Y608093D01*
X126186Y608119D01*
X126131Y608285D01*
X126079Y608452D01*
X126066Y608476D01*
X126058Y608501D01*
X125971Y608652D01*
X125887Y608806D01*
X125870Y608826D01*
X125857Y608850D01*
X125642Y609103D01*
X125367Y609378D01*
X125367Y616322D01*
X130372Y621327D01*
X130383Y621341D01*
X130397Y621352D01*
X130510Y621496D01*
X130627Y621638D01*
X130635Y621654D01*
X130646Y621668D01*
X130730Y621832D01*
X130816Y621994D01*
X130821Y622011D01*
X130829Y622027D01*
X130878Y622204D01*
X130930Y622380D01*
X130932Y622398D01*
X130937Y622415D01*
X130950Y622598D01*
X130967Y622781D01*
X130965Y622799D01*
X130966Y622816D01*
X130943Y622998D01*
X130923Y623181D01*
X130918Y623198D01*
X130916Y623216D01*
X130857Y623390D01*
X130802Y623565D01*
X130793Y623581D01*
X130788Y623598D01*
X130696Y623757D01*
X130607Y623917D01*
X130596Y623931D01*
X130587Y623946D01*
X130372Y624199D01*
X126237Y628334D01*
X126237Y629412D01*
X126235Y629430D01*
X126237Y629448D01*
X126216Y629630D01*
X126197Y629813D01*
X126192Y629830D01*
X126190Y629847D01*
X126133Y630022D01*
X126079Y630198D01*
X126071Y630213D01*
X126065Y630230D01*
X125975Y630390D01*
X125887Y630552D01*
X125876Y630565D01*
X125867Y630581D01*
X125747Y630720D01*
X125630Y630861D01*
X125616Y630872D01*
X125604Y630886D01*
X125459Y630998D01*
X125316Y631113D01*
X125300Y631121D01*
X125286Y631132D01*
X125121Y631214D01*
X124959Y631299D01*
X124942Y631304D01*
X124926Y631312D01*
X124747Y631359D01*
X124572Y631410D01*
X124554Y631412D01*
X124537Y631416D01*
X124206Y631443D01*
X105671Y631443D01*
X105645Y631441D01*
X105618Y631443D01*
X105444Y631421D01*
X105270Y631403D01*
X105245Y631396D01*
X105218Y631392D01*
X105053Y631337D01*
X104886Y631285D01*
X104862Y631272D01*
X104837Y631264D01*
X104685Y631177D01*
X104532Y631093D01*
X104511Y631076D01*
X104488Y631063D01*
X104347Y630944D01*
X102555Y630201D01*
X100645Y630201D01*
X98882Y630932D01*
X97532Y632282D01*
X97241Y632983D01*
X97231Y633003D01*
X97224Y633024D01*
X97136Y633180D01*
X97051Y633338D01*
X97037Y633355D01*
X97026Y633375D01*
X96909Y633510D01*
X96795Y633649D01*
X96777Y633663D01*
X96763Y633680D01*
X96621Y633789D01*
X96482Y633902D01*
X96462Y633913D01*
X96445Y633926D01*
X96285Y634006D01*
X96125Y634089D01*
X96104Y634096D01*
X96084Y634106D01*
X95911Y634152D01*
X95739Y634202D01*
X95717Y634204D01*
X95695Y634210D01*
X95365Y634237D01*
X90057Y634237D01*
X90031Y634235D01*
X90004Y634237D01*
X89830Y634215D01*
X89657Y634197D01*
X89631Y634190D01*
X89605Y634186D01*
X89439Y634131D01*
X89272Y634079D01*
X89248Y634066D01*
X89223Y634058D01*
X89071Y633971D01*
X88918Y633887D01*
X88897Y633870D01*
X88874Y633857D01*
X88621Y633642D01*
X87102Y632123D01*
X87085Y632102D01*
X87064Y632085D01*
X86957Y631947D01*
X86847Y631811D01*
X86834Y631788D01*
X86818Y631767D01*
X86740Y631610D01*
X86658Y631456D01*
X86650Y631430D01*
X86638Y631406D01*
X86593Y631237D01*
X86543Y631070D01*
X86541Y631043D01*
X86534Y631017D01*
X86507Y630687D01*
X86507Y621990D01*
X86509Y621963D01*
X86507Y621936D01*
X86529Y621762D01*
X86547Y621589D01*
X86554Y621563D01*
X86558Y621537D01*
X86613Y621371D01*
X86665Y621204D01*
X86678Y621180D01*
X86686Y621155D01*
X86773Y621004D01*
X86857Y620850D01*
X86874Y620830D01*
X86887Y620806D01*
X87102Y620553D01*
X91333Y616322D01*
X91333Y609378D01*
X86422Y604467D01*
X79478Y604467D01*
X74567Y609378D01*
X74567Y616322D01*
X78798Y620553D01*
X78815Y620574D01*
X78836Y620591D01*
X78943Y620729D01*
X79053Y620865D01*
X79066Y620888D01*
X79082Y620910D01*
X79160Y621067D01*
X79242Y621221D01*
X79250Y621246D01*
X79262Y621270D01*
X79307Y621440D01*
X79357Y621606D01*
X79359Y621633D01*
X79366Y621659D01*
X79393Y621990D01*
X79393Y649573D01*
X103798Y673978D01*
X103815Y673999D01*
X103836Y674016D01*
X103943Y674154D01*
X104053Y674290D01*
X104066Y674313D01*
X104082Y674335D01*
X104160Y674492D01*
X104242Y674646D01*
X104250Y674671D01*
X104262Y674695D01*
X104307Y674865D01*
X104357Y675031D01*
X104359Y675058D01*
X104366Y675084D01*
X104393Y675415D01*
X104393Y746128D01*
X180972Y822707D01*
X277428Y822707D01*
X280107Y820029D01*
X280107Y820028D01*
X327017Y773118D01*
X327017Y746306D01*
X327019Y746288D01*
X327017Y746270D01*
X327039Y746088D01*
X327057Y745905D01*
X327062Y745888D01*
X327064Y745871D01*
X327121Y745696D01*
X327175Y745520D01*
X327183Y745505D01*
X327189Y745488D01*
X327279Y745328D01*
X327367Y745166D01*
X327378Y745153D01*
X327387Y745137D01*
X327507Y744998D01*
X327624Y744857D01*
X327638Y744846D01*
X327650Y744832D01*
X327795Y744720D01*
X327938Y744605D01*
X327954Y744597D01*
X327968Y744586D01*
X328133Y744504D01*
X328296Y744419D01*
X328313Y744414D01*
X328329Y744406D01*
X328507Y744359D01*
X328682Y744308D01*
X328700Y744306D01*
X328717Y744302D01*
X329048Y744275D01*
X330694Y744275D01*
X334562Y742672D01*
X337522Y739712D01*
X339125Y735844D01*
X339125Y731656D01*
X337522Y727788D01*
X334562Y724828D01*
X330694Y723225D01*
X326506Y723225D01*
X322638Y724828D01*
X319678Y727788D01*
X318075Y731656D01*
X318075Y735844D01*
X319749Y739884D01*
X319750Y739888D01*
X319751Y739891D01*
X319758Y739915D01*
X319772Y739942D01*
X319816Y740106D01*
X319865Y740269D01*
X319868Y740300D01*
X319876Y740330D01*
X319903Y740661D01*
X319903Y769330D01*
X319901Y769357D01*
X319903Y769384D01*
X319881Y769558D01*
X319864Y769731D01*
X319856Y769757D01*
X319852Y769783D01*
X319797Y769949D01*
X319745Y770116D01*
X319733Y770140D01*
X319724Y770165D01*
X319637Y770316D01*
X319554Y770470D01*
X319537Y770490D01*
X319523Y770514D01*
X319308Y770767D01*
X275077Y814998D01*
X275056Y815015D01*
X275039Y815036D01*
X274901Y815142D01*
X274765Y815253D01*
X274742Y815266D01*
X274721Y815282D01*
X274564Y815360D01*
X274410Y815442D01*
X274384Y815450D01*
X274360Y815462D01*
X274191Y815507D01*
X274024Y815557D01*
X273997Y815559D01*
X273971Y815566D01*
X273641Y815593D01*
X184760Y815593D01*
X184733Y815591D01*
X184706Y815593D01*
X184532Y815571D01*
X184359Y815553D01*
X184334Y815546D01*
X184307Y815542D01*
X184141Y815487D01*
X183974Y815435D01*
X183951Y815422D01*
X183925Y815414D01*
X183774Y815327D01*
X183620Y815243D01*
X183600Y815226D01*
X183576Y815213D01*
X183323Y814998D01*
X142902Y774577D01*
X142898Y774572D01*
X142892Y774567D01*
X142888Y774562D01*
X142884Y774558D01*
X142766Y774411D01*
X142647Y774266D01*
X142642Y774256D01*
X142640Y774253D01*
X142638Y774251D01*
X142633Y774244D01*
X142546Y774075D01*
X142459Y773910D01*
X142455Y773897D01*
X142449Y773885D01*
X142397Y773704D01*
X142344Y773524D01*
X142343Y773511D01*
X142339Y773498D01*
X142325Y773312D01*
X142307Y773123D01*
X142309Y773110D01*
X142308Y773097D01*
X142330Y772911D01*
X142351Y772723D01*
X142355Y772710D01*
X142357Y772697D01*
X142415Y772519D01*
X142472Y772339D01*
X142479Y772327D01*
X142483Y772315D01*
X142576Y772151D01*
X142667Y771987D01*
X142676Y771977D01*
X142683Y771965D01*
X142806Y771823D01*
X142928Y771680D01*
X142938Y771671D01*
X142947Y771661D01*
X143096Y771547D01*
X143244Y771430D01*
X143256Y771424D01*
X143266Y771416D01*
X143561Y771264D01*
X143580Y771257D01*
X144929Y769907D01*
X145660Y768143D01*
X145660Y766234D01*
X144917Y764440D01*
X144869Y764378D01*
X144758Y764242D01*
X144745Y764219D01*
X144729Y764198D01*
X144651Y764041D01*
X144569Y763887D01*
X144562Y763861D01*
X144550Y763837D01*
X144504Y763668D01*
X144454Y763501D01*
X144452Y763474D01*
X144445Y763448D01*
X144418Y763118D01*
X144418Y637706D01*
X144421Y637680D01*
X144419Y637653D01*
X144441Y637479D01*
X144458Y637305D01*
X144466Y637280D01*
X144469Y637253D01*
X144525Y637088D01*
X144576Y636921D01*
X144589Y636897D01*
X144597Y636872D01*
X144685Y636720D01*
X144768Y636567D01*
X144785Y636546D01*
X144798Y636523D01*
X145013Y636270D01*
X155195Y626088D01*
X155195Y623264D01*
X155197Y623246D01*
X155195Y623228D01*
X155216Y623046D01*
X155235Y622863D01*
X155240Y622846D01*
X155242Y622829D01*
X155299Y622654D01*
X155353Y622478D01*
X155361Y622463D01*
X155367Y622446D01*
X155457Y622286D01*
X155545Y622124D01*
X155556Y622111D01*
X155565Y622095D01*
X155685Y621956D01*
X155802Y621815D01*
X155816Y621804D01*
X155828Y621790D01*
X155973Y621678D01*
X156116Y621563D01*
X156132Y621555D01*
X156146Y621544D01*
X156311Y621462D01*
X156473Y621377D01*
X156490Y621372D01*
X156506Y621364D01*
X156685Y621317D01*
X156860Y621266D01*
X156878Y621264D01*
X156895Y621260D01*
X157226Y621233D01*
X162622Y621233D01*
X167533Y616322D01*
X167533Y609378D01*
X166458Y608303D01*
X166441Y608282D01*
X166420Y608265D01*
X166313Y608127D01*
X166203Y607991D01*
X166190Y607968D01*
X166174Y607946D01*
X166096Y607790D01*
X166014Y607636D01*
X166006Y607610D01*
X165994Y607586D01*
X165949Y607417D01*
X165899Y607250D01*
X165897Y607223D01*
X165890Y607197D01*
X165863Y606866D01*
X165863Y593434D01*
X165865Y593407D01*
X165863Y593380D01*
X165885Y593206D01*
X165903Y593033D01*
X165910Y593007D01*
X165914Y592981D01*
X165970Y592815D01*
X166021Y592648D01*
X166034Y592624D01*
X166042Y592599D01*
X166129Y592448D01*
X166213Y592294D01*
X166230Y592273D01*
X166243Y592250D01*
X166458Y591997D01*
X167533Y590922D01*
X167533Y583978D01*
X162622Y579067D01*
X155678Y579067D01*
X151903Y582842D01*
X151882Y582859D01*
X151865Y582880D01*
X151727Y582987D01*
X151591Y583097D01*
X151568Y583110D01*
X151546Y583126D01*
X151390Y583204D01*
X151236Y583286D01*
X151210Y583294D01*
X151186Y583306D01*
X151017Y583351D01*
X150850Y583401D01*
X150823Y583403D01*
X150797Y583410D01*
X150466Y583437D01*
X142434Y583437D01*
X142407Y583435D01*
X142380Y583437D01*
X142206Y583415D01*
X142033Y583397D01*
X142007Y583390D01*
X141981Y583386D01*
X141815Y583330D01*
X141648Y583279D01*
X141624Y583266D01*
X141599Y583258D01*
X141447Y583171D01*
X141294Y583087D01*
X141274Y583070D01*
X141250Y583057D01*
X140997Y582842D01*
X137222Y579067D01*
X130520Y579067D01*
X130494Y579065D01*
X130467Y579067D01*
X130293Y579045D01*
X130120Y579027D01*
X130094Y579020D01*
X130067Y579016D01*
X129902Y578961D01*
X129735Y578909D01*
X129711Y578896D01*
X129686Y578888D01*
X129534Y578801D01*
X129381Y578717D01*
X129360Y578700D01*
X129337Y578687D01*
X129084Y578472D01*
X112713Y562101D01*
X91654Y562101D01*
X91628Y562099D01*
X91601Y562101D01*
X91427Y562079D01*
X91254Y562061D01*
X91228Y562054D01*
X91201Y562050D01*
X91036Y561995D01*
X90869Y561943D01*
X90845Y561930D01*
X90820Y561922D01*
X90668Y561835D01*
X90515Y561751D01*
X90494Y561734D01*
X90471Y561721D01*
X90218Y561506D01*
X43055Y514344D01*
X43041Y514326D01*
X43024Y514312D01*
X42914Y514171D01*
X42800Y514032D01*
X42790Y514012D01*
X42776Y513995D01*
X42695Y513834D01*
X42611Y513676D01*
X42605Y513655D01*
X42595Y513635D01*
X42548Y513462D01*
X42497Y513291D01*
X42495Y513268D01*
X42489Y513247D01*
X42477Y513068D01*
X42460Y512890D01*
X42463Y512867D01*
X42461Y512845D01*
X42484Y512668D01*
X42504Y512489D01*
X42510Y512468D01*
X42513Y512446D01*
X42615Y512130D01*
X42621Y512116D01*
X42621Y509084D01*
X41461Y506283D01*
X39317Y504139D01*
X36516Y502979D01*
X33484Y502979D01*
G37*
%LPD*%
%LPC*%
G36*
X194496Y408866D02*
X194496Y408866D01*
X182805Y412299D01*
X172554Y418887D01*
X164574Y428096D01*
X159513Y439180D01*
X157779Y451241D01*
X159513Y463301D01*
X164574Y474385D01*
X172554Y483594D01*
X182804Y490182D01*
X194496Y493615D01*
X206681Y493615D01*
X218372Y490182D01*
X228623Y483594D01*
X236602Y474385D01*
X241664Y463301D01*
X243398Y451241D01*
X241664Y439180D01*
X236602Y428096D01*
X228623Y418887D01*
X218372Y412299D01*
X206681Y408866D01*
X194496Y408866D01*
G37*
%LPD*%
%LPC*%
G36*
X415754Y924708D02*
X415754Y924708D01*
X407103Y929016D01*
X400593Y936157D01*
X397102Y945168D01*
X397102Y954832D01*
X400593Y963843D01*
X407103Y970984D01*
X415754Y975292D01*
X425376Y976183D01*
X434671Y973539D01*
X442383Y967715D01*
X447470Y959499D01*
X449246Y950000D01*
X448908Y948197D01*
X448908Y948196D01*
X448149Y944134D01*
X447769Y942103D01*
X447769Y942102D01*
X447470Y940501D01*
X442383Y932285D01*
X434671Y926461D01*
X425376Y923817D01*
X415754Y924708D01*
G37*
%LPD*%
%LPC*%
G36*
X45754Y24708D02*
X45754Y24708D01*
X37103Y29016D01*
X30593Y36157D01*
X27102Y45168D01*
X27102Y54832D01*
X30593Y63843D01*
X37103Y70984D01*
X45754Y75292D01*
X55376Y76183D01*
X64671Y73539D01*
X72383Y67715D01*
X77470Y59499D01*
X79246Y50000D01*
X78558Y46322D01*
X78558Y46321D01*
X77799Y42259D01*
X77798Y42259D01*
X77470Y40501D01*
X72383Y32285D01*
X64671Y26461D01*
X55376Y23817D01*
X45754Y24708D01*
G37*
%LPD*%
%LPC*%
G36*
X45754Y924708D02*
X45754Y924708D01*
X37103Y929016D01*
X30593Y936157D01*
X27102Y945168D01*
X27102Y954832D01*
X30593Y963843D01*
X37103Y970984D01*
X45754Y975292D01*
X55376Y976183D01*
X64671Y973539D01*
X72383Y967715D01*
X77470Y959499D01*
X79246Y950000D01*
X78908Y948197D01*
X78908Y948196D01*
X78149Y944134D01*
X77470Y940501D01*
X72383Y932285D01*
X64671Y926461D01*
X55376Y923817D01*
X45754Y924708D01*
G37*
%LPD*%
%LPC*%
G36*
X182249Y523032D02*
X182249Y523032D01*
X182247Y523050D01*
X182249Y523067D01*
X182228Y523250D01*
X182209Y523432D01*
X182204Y523449D01*
X182202Y523467D01*
X182145Y523642D01*
X182091Y523817D01*
X182083Y523833D01*
X182077Y523850D01*
X181993Y523999D01*
X182020Y524052D01*
X182105Y524216D01*
X182110Y524233D01*
X182118Y524249D01*
X182165Y524427D01*
X182216Y524602D01*
X182218Y524620D01*
X182222Y524637D01*
X182249Y524968D01*
X182249Y535160D01*
X183680Y534695D01*
X184291Y534384D01*
X184394Y534344D01*
X184493Y534294D01*
X184581Y534271D01*
X184666Y534238D01*
X184775Y534219D01*
X184882Y534190D01*
X184990Y534181D01*
X185062Y534168D01*
X185125Y534170D01*
X185213Y534163D01*
X201279Y534163D01*
X201309Y534166D01*
X201341Y534164D01*
X201510Y534186D01*
X201679Y534203D01*
X201709Y534212D01*
X201740Y534216D01*
X202056Y534317D01*
X202557Y534525D01*
X206744Y534525D01*
X210612Y532922D01*
X213572Y529962D01*
X215175Y526094D01*
X215175Y521906D01*
X213572Y518038D01*
X210612Y515078D01*
X210464Y515016D01*
X206744Y513475D01*
X202528Y513475D01*
X202437Y513500D01*
X202274Y513549D01*
X202243Y513552D01*
X202213Y513560D01*
X201882Y513587D01*
X184722Y513587D01*
X184612Y513576D01*
X184501Y513575D01*
X184412Y513556D01*
X184322Y513547D01*
X184216Y513515D01*
X184107Y513492D01*
X184007Y513451D01*
X183937Y513429D01*
X183881Y513399D01*
X183800Y513366D01*
X183680Y513305D01*
X182249Y512840D01*
X182249Y523032D01*
G37*
%LPD*%
%LPC*%
G36*
X402059Y793089D02*
X402059Y793089D01*
X396884Y795233D01*
X392923Y799194D01*
X390779Y804369D01*
X390779Y809971D01*
X392923Y815146D01*
X396884Y819107D01*
X402059Y821251D01*
X407661Y821251D01*
X412836Y819107D01*
X416797Y815146D01*
X418941Y809971D01*
X418941Y804369D01*
X416797Y799194D01*
X412836Y795233D01*
X407661Y793089D01*
X402059Y793089D01*
G37*
%LPD*%
%LPC*%
G36*
X32249Y205982D02*
X32249Y205982D01*
X32247Y206000D01*
X32249Y206017D01*
X32228Y206200D01*
X32209Y206382D01*
X32204Y206399D01*
X32202Y206417D01*
X32145Y206592D01*
X32091Y206767D01*
X32083Y206783D01*
X32077Y206800D01*
X31993Y206949D01*
X32020Y207003D01*
X32105Y207166D01*
X32110Y207183D01*
X32118Y207199D01*
X32165Y207377D01*
X32216Y207552D01*
X32218Y207570D01*
X32222Y207587D01*
X32249Y207918D01*
X32249Y218110D01*
X33680Y217645D01*
X35298Y216821D01*
X35426Y216728D01*
X35478Y216698D01*
X35525Y216660D01*
X35651Y216596D01*
X35774Y216525D01*
X35830Y216505D01*
X35884Y216478D01*
X36020Y216440D01*
X36154Y216394D01*
X36214Y216386D01*
X36272Y216370D01*
X36413Y216360D01*
X36553Y216341D01*
X36613Y216345D01*
X36673Y216341D01*
X36814Y216358D01*
X36955Y216368D01*
X37013Y216384D01*
X37073Y216391D01*
X37207Y216436D01*
X37344Y216473D01*
X37398Y216500D01*
X37454Y216519D01*
X37577Y216590D01*
X37704Y216653D01*
X37716Y216663D01*
X50192Y216663D01*
X50223Y216666D01*
X50254Y216664D01*
X50424Y216686D01*
X50593Y216703D01*
X50622Y216712D01*
X50654Y216716D01*
X50969Y216817D01*
X52556Y217475D01*
X56744Y217475D01*
X60612Y215872D01*
X63572Y212912D01*
X65175Y209044D01*
X65175Y204856D01*
X63572Y200988D01*
X60612Y198028D01*
X56744Y196425D01*
X52556Y196425D01*
X48688Y198028D01*
X48683Y198032D01*
X48663Y198049D01*
X48645Y198070D01*
X48507Y198177D01*
X48372Y198287D01*
X48348Y198300D01*
X48327Y198316D01*
X48170Y198394D01*
X48016Y198476D01*
X47991Y198484D01*
X47967Y198496D01*
X47797Y198541D01*
X47630Y198591D01*
X47604Y198593D01*
X47578Y198600D01*
X47247Y198627D01*
X38089Y198627D01*
X38020Y198620D01*
X37952Y198623D01*
X37821Y198601D01*
X37688Y198587D01*
X37623Y198567D01*
X37555Y198556D01*
X37430Y198508D01*
X37303Y198469D01*
X37243Y198436D01*
X37179Y198412D01*
X37026Y198319D01*
X36949Y198277D01*
X36927Y198259D01*
X36895Y198239D01*
X35299Y197079D01*
X33680Y196255D01*
X32249Y195790D01*
X32249Y205982D01*
G37*
%LPD*%
%LPC*%
G36*
X31434Y107187D02*
X31434Y107187D01*
X30767Y107854D01*
X30746Y107871D01*
X30729Y107892D01*
X30591Y107999D01*
X30455Y108109D01*
X30432Y108122D01*
X30411Y108138D01*
X30254Y108216D01*
X30100Y108298D01*
X30074Y108306D01*
X30050Y108318D01*
X29881Y108363D01*
X29714Y108413D01*
X29687Y108415D01*
X29661Y108422D01*
X29331Y108449D01*
X28390Y108449D01*
X28855Y109880D01*
X29679Y111499D01*
X30599Y112765D01*
X30634Y112824D01*
X30676Y112879D01*
X30735Y112998D01*
X30803Y113112D01*
X30825Y113177D01*
X30856Y113239D01*
X30890Y113368D01*
X30933Y113493D01*
X30942Y113561D01*
X30960Y113628D01*
X30975Y113807D01*
X30986Y113892D01*
X30984Y113922D01*
X30987Y113959D01*
X30987Y123687D01*
X30985Y123714D01*
X30987Y123741D01*
X30965Y123914D01*
X30947Y124088D01*
X30939Y124114D01*
X30936Y124141D01*
X30880Y124306D01*
X30829Y124473D01*
X30816Y124497D01*
X30808Y124522D01*
X30721Y124673D01*
X30704Y124705D01*
X29025Y128756D01*
X29025Y132944D01*
X30628Y136812D01*
X33588Y139772D01*
X37456Y141375D01*
X41644Y141375D01*
X45512Y139772D01*
X48472Y136812D01*
X50075Y132944D01*
X50075Y128756D01*
X48472Y124888D01*
X48348Y124764D01*
X48331Y124743D01*
X48310Y124725D01*
X48204Y124588D01*
X48093Y124452D01*
X48080Y124428D01*
X48064Y124407D01*
X47986Y124251D01*
X47904Y124096D01*
X47896Y124071D01*
X47884Y124047D01*
X47839Y123877D01*
X47789Y123710D01*
X47787Y123684D01*
X47780Y123658D01*
X47753Y123327D01*
X47753Y114410D01*
X47755Y114383D01*
X47753Y114356D01*
X47775Y114182D01*
X47793Y114009D01*
X47800Y113984D01*
X47804Y113957D01*
X47859Y113791D01*
X47911Y113624D01*
X47924Y113601D01*
X47932Y113575D01*
X48019Y113424D01*
X48103Y113270D01*
X48120Y113250D01*
X48133Y113226D01*
X48348Y112973D01*
X48353Y112968D01*
X49421Y111499D01*
X50245Y109880D01*
X50710Y108449D01*
X40518Y108449D01*
X40500Y108447D01*
X40483Y108449D01*
X40300Y108428D01*
X40118Y108409D01*
X40101Y108404D01*
X40083Y108402D01*
X39908Y108345D01*
X39733Y108291D01*
X39717Y108283D01*
X39700Y108277D01*
X39551Y108193D01*
X39497Y108220D01*
X39334Y108305D01*
X39317Y108310D01*
X39301Y108318D01*
X39123Y108365D01*
X38948Y108416D01*
X38930Y108418D01*
X38913Y108422D01*
X38582Y108449D01*
X34169Y108449D01*
X34143Y108447D01*
X34116Y108449D01*
X33942Y108427D01*
X33769Y108409D01*
X33743Y108402D01*
X33717Y108398D01*
X33551Y108343D01*
X33384Y108291D01*
X33360Y108278D01*
X33335Y108270D01*
X33183Y108183D01*
X33030Y108099D01*
X33009Y108082D01*
X32986Y108069D01*
X32733Y107854D01*
X32066Y107187D01*
X31434Y107187D01*
G37*
%LPD*%
%LPC*%
G36*
X442897Y300070D02*
X442897Y300070D01*
X442734Y300155D01*
X442717Y300160D01*
X442701Y300168D01*
X442523Y300215D01*
X442348Y300266D01*
X442330Y300268D01*
X442313Y300272D01*
X441982Y300299D01*
X431790Y300299D01*
X432255Y301730D01*
X433079Y303349D01*
X434147Y304818D01*
X435432Y306103D01*
X436901Y307171D01*
X438520Y307995D01*
X440248Y308557D01*
X440330Y308592D01*
X440414Y308619D01*
X440513Y308673D01*
X440617Y308719D01*
X440690Y308770D01*
X440767Y308812D01*
X440854Y308885D01*
X440946Y308950D01*
X441008Y309014D01*
X441076Y309071D01*
X441146Y309160D01*
X441224Y309242D01*
X441271Y309317D01*
X441327Y309386D01*
X441378Y309487D01*
X441438Y309582D01*
X441470Y309665D01*
X441510Y309744D01*
X441541Y309853D01*
X441581Y309959D01*
X441596Y310046D01*
X441620Y310132D01*
X441629Y310244D01*
X441647Y310356D01*
X441644Y310445D01*
X441651Y310533D01*
X441638Y310645D01*
X441634Y310758D01*
X441613Y310845D01*
X441603Y310933D01*
X441567Y311040D01*
X441541Y311150D01*
X441504Y311231D01*
X441476Y311315D01*
X441420Y311413D01*
X441373Y311516D01*
X441321Y311588D01*
X441277Y311665D01*
X441202Y311750D01*
X441136Y311841D01*
X441071Y311901D01*
X441012Y311968D01*
X440923Y312037D01*
X440839Y312114D01*
X440763Y312160D01*
X440693Y312214D01*
X440567Y312278D01*
X440495Y312322D01*
X440452Y312338D01*
X440398Y312365D01*
X436988Y313778D01*
X434028Y316738D01*
X432425Y320606D01*
X432425Y324794D01*
X434028Y328662D01*
X436988Y331622D01*
X440856Y333225D01*
X445044Y333225D01*
X448912Y331622D01*
X451872Y328662D01*
X453475Y324794D01*
X453475Y320606D01*
X451872Y316738D01*
X448912Y313778D01*
X445502Y312365D01*
X445424Y312323D01*
X445341Y312290D01*
X445247Y312228D01*
X445147Y312175D01*
X445079Y312119D01*
X445005Y312070D01*
X444924Y311991D01*
X444837Y311919D01*
X444781Y311850D01*
X444718Y311787D01*
X444654Y311694D01*
X444583Y311606D01*
X444542Y311527D01*
X444492Y311454D01*
X444449Y311349D01*
X444396Y311249D01*
X444371Y311164D01*
X444337Y311082D01*
X444315Y310972D01*
X444283Y310863D01*
X444275Y310775D01*
X444258Y310688D01*
X444258Y310575D01*
X444248Y310462D01*
X444258Y310374D01*
X444258Y310285D01*
X444281Y310174D01*
X444294Y310062D01*
X444321Y309978D01*
X444338Y309890D01*
X444382Y309786D01*
X444417Y309679D01*
X444460Y309601D01*
X444494Y309519D01*
X444558Y309426D01*
X444613Y309327D01*
X444671Y309260D01*
X444721Y309186D01*
X444801Y309107D01*
X444875Y309021D01*
X444945Y308967D01*
X445008Y308904D01*
X445103Y308843D01*
X445192Y308773D01*
X445271Y308733D01*
X445346Y308685D01*
X445476Y308630D01*
X445552Y308592D01*
X445596Y308580D01*
X445652Y308557D01*
X447380Y307995D01*
X448999Y307171D01*
X450468Y306103D01*
X451753Y304818D01*
X452821Y303349D01*
X453645Y301730D01*
X454110Y300299D01*
X443918Y300299D01*
X443900Y300297D01*
X443883Y300299D01*
X443700Y300278D01*
X443518Y300259D01*
X443501Y300254D01*
X443483Y300252D01*
X443308Y300195D01*
X443133Y300141D01*
X443117Y300133D01*
X443100Y300127D01*
X442951Y300043D01*
X442897Y300070D01*
G37*
%LPD*%
%LPC*%
G36*
X40856Y884875D02*
X40856Y884875D01*
X36988Y886478D01*
X34028Y889438D01*
X32425Y893306D01*
X32425Y897494D01*
X34028Y901362D01*
X36988Y904322D01*
X40856Y905925D01*
X45044Y905925D01*
X48912Y904322D01*
X51872Y901362D01*
X53475Y897494D01*
X53475Y893306D01*
X51872Y889438D01*
X48912Y886478D01*
X45044Y884875D01*
X40856Y884875D01*
G37*
%LPD*%
%LPC*%
G36*
X326566Y816645D02*
X326566Y816645D01*
X322698Y818248D01*
X319738Y821208D01*
X318135Y825076D01*
X318135Y829264D01*
X319738Y833132D01*
X322698Y836092D01*
X326566Y837695D01*
X330754Y837695D01*
X334622Y836092D01*
X337582Y833132D01*
X339185Y829264D01*
X339185Y825076D01*
X337582Y821208D01*
X334622Y818248D01*
X330754Y816645D01*
X326566Y816645D01*
G37*
%LPD*%
%LPC*%
G36*
X40856Y744875D02*
X40856Y744875D01*
X36988Y746478D01*
X34028Y749438D01*
X32425Y753306D01*
X32425Y757494D01*
X34028Y761362D01*
X36988Y764322D01*
X40856Y765925D01*
X45044Y765925D01*
X48912Y764322D01*
X51872Y761362D01*
X53475Y757494D01*
X53475Y753306D01*
X51872Y749438D01*
X48912Y746478D01*
X45044Y744875D01*
X40856Y744875D01*
G37*
%LPD*%
%LPC*%
G36*
X440856Y206775D02*
X440856Y206775D01*
X436988Y208378D01*
X434028Y211338D01*
X432425Y215206D01*
X432425Y219394D01*
X434028Y223262D01*
X436988Y226222D01*
X438612Y226895D01*
X440856Y227825D01*
X445044Y227825D01*
X448912Y226222D01*
X451872Y223262D01*
X453475Y219394D01*
X453475Y215206D01*
X451872Y211338D01*
X448912Y208378D01*
X445044Y206775D01*
X440856Y206775D01*
G37*
%LPD*%
%LPC*%
G36*
X430856Y482175D02*
X430856Y482175D01*
X426988Y483778D01*
X424028Y486738D01*
X422425Y490606D01*
X422425Y494794D01*
X424028Y498662D01*
X426988Y501622D01*
X430856Y503225D01*
X435044Y503225D01*
X438912Y501622D01*
X441872Y498662D01*
X443475Y494794D01*
X443475Y490606D01*
X441872Y486738D01*
X438912Y483778D01*
X435044Y482175D01*
X430856Y482175D01*
G37*
%LPD*%
%LPC*%
G36*
X35256Y342855D02*
X35256Y342855D01*
X31895Y344247D01*
X29322Y346820D01*
X27930Y350181D01*
X27930Y353819D01*
X29322Y357180D01*
X31895Y359753D01*
X35256Y361145D01*
X38894Y361145D01*
X42255Y359753D01*
X44828Y357180D01*
X46220Y353819D01*
X46220Y350181D01*
X44828Y346820D01*
X42255Y344247D01*
X38894Y342855D01*
X35256Y342855D01*
G37*
%LPD*%
%LPC*%
G36*
X35256Y292055D02*
X35256Y292055D01*
X31895Y293447D01*
X29322Y296020D01*
X27930Y299381D01*
X27930Y303019D01*
X29322Y306380D01*
X31895Y308953D01*
X34849Y310176D01*
X35256Y310345D01*
X38894Y310345D01*
X42255Y308953D01*
X44828Y306380D01*
X46220Y303019D01*
X46220Y299381D01*
X44828Y296020D01*
X42255Y293447D01*
X38894Y292055D01*
X35256Y292055D01*
G37*
%LPD*%
%LPC*%
G36*
X35256Y393655D02*
X35256Y393655D01*
X31895Y395047D01*
X29322Y397620D01*
X27930Y400981D01*
X27930Y404619D01*
X29322Y407980D01*
X31895Y410553D01*
X34759Y411739D01*
X35256Y411945D01*
X38894Y411945D01*
X42255Y410553D01*
X44828Y407980D01*
X46220Y404619D01*
X46220Y400981D01*
X44828Y397620D01*
X42255Y395047D01*
X38894Y393655D01*
X35256Y393655D01*
G37*
%LPD*%
%LPC*%
G36*
X35256Y368255D02*
X35256Y368255D01*
X31895Y369647D01*
X29322Y372220D01*
X27930Y375581D01*
X27930Y379219D01*
X29322Y382580D01*
X31895Y385153D01*
X35256Y386545D01*
X38894Y386545D01*
X42255Y385153D01*
X44828Y382580D01*
X46220Y379219D01*
X46220Y375581D01*
X44828Y372220D01*
X42255Y369647D01*
X40128Y368766D01*
X38894Y368255D01*
X35256Y368255D01*
G37*
%LPD*%
%LPC*%
G36*
X35256Y266655D02*
X35256Y266655D01*
X31895Y268047D01*
X29322Y270620D01*
X27930Y273981D01*
X27930Y277619D01*
X29322Y280980D01*
X31895Y283553D01*
X32420Y283770D01*
X35256Y284945D01*
X38894Y284945D01*
X42255Y283553D01*
X44828Y280980D01*
X46220Y277619D01*
X46220Y273981D01*
X44828Y270620D01*
X42255Y268047D01*
X40219Y267204D01*
X38894Y266655D01*
X35256Y266655D01*
G37*
%LPD*%
%LPC*%
G36*
X206478Y604467D02*
X206478Y604467D01*
X201567Y609378D01*
X201567Y616322D01*
X206478Y621233D01*
X213422Y621233D01*
X218333Y616322D01*
X218333Y609378D01*
X213422Y604467D01*
X206478Y604467D01*
G37*
%LPD*%
%LPC*%
G36*
X79478Y579067D02*
X79478Y579067D01*
X74567Y583978D01*
X74567Y590922D01*
X79478Y595833D01*
X86422Y595833D01*
X91333Y590922D01*
X91333Y583978D01*
X86422Y579067D01*
X79478Y579067D01*
G37*
%LPD*%
%LPC*%
G36*
X104878Y579067D02*
X104878Y579067D01*
X99967Y583978D01*
X99967Y590922D01*
X104878Y595833D01*
X111822Y595833D01*
X116733Y590922D01*
X116733Y583978D01*
X111822Y579067D01*
X104878Y579067D01*
G37*
%LPD*%
%LPC*%
G36*
X104878Y604467D02*
X104878Y604467D01*
X99967Y609378D01*
X99967Y616322D01*
X104878Y621233D01*
X111822Y621233D01*
X116733Y616322D01*
X116733Y609378D01*
X111822Y604467D01*
X104878Y604467D01*
G37*
%LPD*%
%LPC*%
G36*
X351464Y793345D02*
X351464Y793345D01*
X348514Y794567D01*
X346257Y796824D01*
X345035Y799774D01*
X345035Y802966D01*
X346257Y805916D01*
X348514Y808173D01*
X351464Y809395D01*
X354656Y809395D01*
X357606Y808173D01*
X359863Y805916D01*
X361085Y802966D01*
X361085Y799774D01*
X359863Y796824D01*
X357606Y794567D01*
X354656Y793345D01*
X351464Y793345D01*
G37*
%LPD*%
%LPC*%
G36*
X351404Y649925D02*
X351404Y649925D01*
X348454Y651147D01*
X346197Y653404D01*
X344975Y656354D01*
X344975Y659546D01*
X346197Y662496D01*
X348454Y664753D01*
X350608Y665645D01*
X351404Y665975D01*
X354596Y665975D01*
X357546Y664753D01*
X359803Y662496D01*
X361025Y659546D01*
X361025Y656354D01*
X359803Y653404D01*
X357546Y651147D01*
X354596Y649925D01*
X351404Y649925D01*
G37*
%LPD*%
%LPC*%
G36*
X109684Y502979D02*
X109684Y502979D01*
X106883Y504139D01*
X104739Y506283D01*
X103579Y509084D01*
X103579Y512116D01*
X104739Y514917D01*
X106883Y517061D01*
X109684Y518221D01*
X112716Y518221D01*
X115517Y517061D01*
X117661Y514917D01*
X118821Y512116D01*
X118821Y509084D01*
X117661Y506283D01*
X115517Y504139D01*
X112716Y502979D01*
X109684Y502979D01*
G37*
%LPD*%
%LPC*%
G36*
X33484Y477579D02*
X33484Y477579D01*
X30683Y478739D01*
X28539Y480883D01*
X27379Y483684D01*
X27379Y486716D01*
X28539Y489517D01*
X30683Y491661D01*
X33484Y492821D01*
X36516Y492821D01*
X39317Y491661D01*
X41461Y489517D01*
X42621Y486716D01*
X42621Y483684D01*
X41461Y480883D01*
X39317Y478739D01*
X36516Y477579D01*
X33484Y477579D01*
G37*
%LPD*%
%LPC*%
G36*
X109684Y477579D02*
X109684Y477579D01*
X106883Y478739D01*
X104739Y480883D01*
X103579Y483684D01*
X103579Y486716D01*
X104739Y489517D01*
X106883Y491661D01*
X109684Y492821D01*
X112716Y492821D01*
X115517Y491661D01*
X117661Y489517D01*
X118821Y486716D01*
X118821Y483684D01*
X117661Y480883D01*
X115517Y478739D01*
X112716Y477579D01*
X109684Y477579D01*
G37*
%LPD*%
%LPC*%
G36*
X109684Y452179D02*
X109684Y452179D01*
X106883Y453339D01*
X104739Y455483D01*
X103579Y458284D01*
X103579Y461316D01*
X104739Y464117D01*
X106883Y466261D01*
X109684Y467421D01*
X112716Y467421D01*
X115517Y466261D01*
X117661Y464117D01*
X118821Y461316D01*
X118821Y458284D01*
X117661Y455483D01*
X115517Y453339D01*
X112716Y452179D01*
X109684Y452179D01*
G37*
%LPD*%
%LPC*%
G36*
X331659Y880169D02*
X331659Y880169D01*
X331659Y888330D01*
X333090Y887865D01*
X334709Y887041D01*
X336178Y885973D01*
X337463Y884688D01*
X338531Y883219D01*
X339355Y881600D01*
X339820Y880169D01*
X331659Y880169D01*
G37*
%LPD*%
%LPC*%
G36*
X18090Y209949D02*
X18090Y209949D01*
X18555Y211380D01*
X19379Y212999D01*
X20447Y214468D01*
X21732Y215753D01*
X23201Y216821D01*
X24820Y217645D01*
X26251Y218110D01*
X26251Y209949D01*
X18090Y209949D01*
G37*
%LPD*%
%LPC*%
G36*
X442500Y880169D02*
X442500Y880169D01*
X442965Y881600D01*
X443789Y883219D01*
X444857Y884688D01*
X446142Y885973D01*
X447611Y887041D01*
X449230Y887865D01*
X450661Y888330D01*
X450661Y880169D01*
X442500Y880169D01*
G37*
%LPD*%
%LPC*%
G36*
X317500Y880169D02*
X317500Y880169D01*
X317965Y881600D01*
X318789Y883219D01*
X319857Y884688D01*
X321142Y885973D01*
X322611Y887041D01*
X324230Y887865D01*
X325661Y888330D01*
X325661Y880169D01*
X317500Y880169D01*
G37*
%LPD*%
%LPC*%
G36*
X45949Y841601D02*
X45949Y841601D01*
X54110Y841601D01*
X53645Y840170D01*
X52821Y838551D01*
X51753Y837082D01*
X50468Y835797D01*
X48999Y834729D01*
X47380Y833905D01*
X45949Y833440D01*
X45949Y841601D01*
G37*
%LPD*%
%LPC*%
G36*
X168090Y526999D02*
X168090Y526999D01*
X168555Y528430D01*
X169379Y530049D01*
X170447Y531518D01*
X171732Y532803D01*
X173201Y533871D01*
X174820Y534695D01*
X176251Y535160D01*
X176251Y526999D01*
X168090Y526999D01*
G37*
%LPD*%
%LPC*%
G36*
X445949Y294301D02*
X445949Y294301D01*
X454110Y294301D01*
X453645Y292870D01*
X452821Y291251D01*
X451753Y289782D01*
X450468Y288497D01*
X448999Y287429D01*
X447380Y286605D01*
X445949Y286140D01*
X445949Y294301D01*
G37*
%LPD*%
%LPC*%
G36*
X45949Y701601D02*
X45949Y701601D01*
X54110Y701601D01*
X53645Y700170D01*
X52821Y698551D01*
X51753Y697082D01*
X50468Y695797D01*
X48999Y694729D01*
X47380Y693905D01*
X45949Y693440D01*
X45949Y701601D01*
G37*
%LPD*%
%LPC*%
G36*
X331659Y874171D02*
X331659Y874171D01*
X339820Y874171D01*
X339355Y872740D01*
X338531Y871121D01*
X337463Y869652D01*
X336178Y868367D01*
X334709Y867299D01*
X333090Y866475D01*
X331659Y866010D01*
X331659Y874171D01*
G37*
%LPD*%
%LPC*%
G36*
X42549Y102451D02*
X42549Y102451D01*
X50710Y102451D01*
X50245Y101020D01*
X49421Y99401D01*
X48353Y97932D01*
X47068Y96647D01*
X45599Y95579D01*
X43980Y94755D01*
X42549Y94290D01*
X42549Y102451D01*
G37*
%LPD*%
%LPC*%
G36*
X38520Y693905D02*
X38520Y693905D01*
X36901Y694729D01*
X35432Y695797D01*
X34147Y697082D01*
X33079Y698551D01*
X32255Y700170D01*
X31790Y701601D01*
X39951Y701601D01*
X39951Y693440D01*
X38520Y693905D01*
G37*
%LPD*%
%LPC*%
G36*
X24820Y196255D02*
X24820Y196255D01*
X23201Y197079D01*
X21732Y198147D01*
X20447Y199432D01*
X19379Y200901D01*
X18555Y202520D01*
X18090Y203951D01*
X26251Y203951D01*
X26251Y195790D01*
X24820Y196255D01*
G37*
%LPD*%
%LPC*%
G36*
X324230Y866475D02*
X324230Y866475D01*
X322611Y867299D01*
X321142Y868367D01*
X319857Y869652D01*
X318789Y871121D01*
X317965Y872740D01*
X317500Y874171D01*
X325661Y874171D01*
X325661Y866010D01*
X324230Y866475D01*
G37*
%LPD*%
%LPC*%
G36*
X38520Y833905D02*
X38520Y833905D01*
X36901Y834729D01*
X35432Y835797D01*
X34147Y837082D01*
X33079Y838551D01*
X32255Y840170D01*
X31790Y841601D01*
X39951Y841601D01*
X39951Y833440D01*
X38520Y833905D01*
G37*
%LPD*%
%LPC*%
G36*
X174820Y513305D02*
X174820Y513305D01*
X173201Y514129D01*
X171732Y515197D01*
X170447Y516482D01*
X169379Y517951D01*
X168555Y519570D01*
X168090Y521001D01*
X176251Y521001D01*
X176251Y512840D01*
X174820Y513305D01*
G37*
%LPD*%
%LPC*%
G36*
X438520Y286605D02*
X438520Y286605D01*
X436901Y287429D01*
X435432Y288497D01*
X434147Y289782D01*
X433079Y291251D01*
X432255Y292870D01*
X431790Y294301D01*
X439951Y294301D01*
X439951Y286140D01*
X438520Y286605D01*
G37*
%LPD*%
%LPC*%
G36*
X449230Y866475D02*
X449230Y866475D01*
X447611Y867299D01*
X446142Y868367D01*
X444857Y869652D01*
X443789Y871121D01*
X442965Y872740D01*
X442500Y874171D01*
X450661Y874171D01*
X450661Y866010D01*
X449230Y866475D01*
G37*
%LPD*%
%LPC*%
G36*
X35120Y94755D02*
X35120Y94755D01*
X33501Y95579D01*
X32032Y96647D01*
X30747Y97932D01*
X29679Y99401D01*
X28855Y101020D01*
X28390Y102451D01*
X36551Y102451D01*
X36551Y94290D01*
X35120Y94755D01*
G37*
%LPD*%
%LPC*%
G36*
X39614Y329139D02*
X39614Y329139D01*
X39614Y336459D01*
X40975Y336016D01*
X42400Y335290D01*
X43694Y334350D01*
X44825Y333219D01*
X45765Y331925D01*
X46491Y330500D01*
X46934Y329139D01*
X39614Y329139D01*
G37*
%LPD*%
%LPC*%
G36*
X39614Y324061D02*
X39614Y324061D01*
X46934Y324061D01*
X46491Y322700D01*
X45765Y321275D01*
X44825Y319981D01*
X43694Y318850D01*
X42400Y317910D01*
X40975Y317184D01*
X39614Y316741D01*
X39614Y324061D01*
G37*
%LPD*%
%LPC*%
G36*
X27216Y329139D02*
X27216Y329139D01*
X27659Y330500D01*
X28385Y331925D01*
X29325Y333219D01*
X30456Y334350D01*
X31750Y335290D01*
X33175Y336016D01*
X34536Y336459D01*
X34536Y329139D01*
X27216Y329139D01*
G37*
%LPD*%
%LPC*%
G36*
X33175Y317184D02*
X33175Y317184D01*
X31750Y317910D01*
X30456Y318850D01*
X29325Y319981D01*
X28385Y321275D01*
X27659Y322700D01*
X27216Y324061D01*
X34536Y324061D01*
X34536Y316741D01*
X33175Y317184D01*
G37*
%LPD*%
%LPC*%
G36*
X59835Y589735D02*
X59835Y589735D01*
X59835Y596849D01*
X61443Y596849D01*
X66949Y591343D01*
X66949Y589735D01*
X59835Y589735D01*
G37*
%LPD*%
%LPC*%
G36*
X48151Y589735D02*
X48151Y589735D01*
X48151Y591343D01*
X53657Y596849D01*
X55265Y596849D01*
X55265Y589735D01*
X48151Y589735D01*
G37*
%LPD*%
%LPC*%
G36*
X59835Y578051D02*
X59835Y578051D01*
X59835Y585165D01*
X66949Y585165D01*
X66949Y583557D01*
X61443Y578051D01*
X59835Y578051D01*
G37*
%LPD*%
%LPC*%
G36*
X53657Y578051D02*
X53657Y578051D01*
X48151Y583557D01*
X48151Y585165D01*
X55265Y585165D01*
X55265Y578051D01*
X53657Y578051D01*
G37*
%LPD*%
%LPC*%
G36*
X431231Y761581D02*
X431231Y761581D01*
X431231Y768382D01*
X431317Y768368D01*
X432670Y767928D01*
X433938Y767282D01*
X435090Y766446D01*
X436096Y765440D01*
X436932Y764288D01*
X437578Y763020D01*
X438018Y761667D01*
X438032Y761581D01*
X431231Y761581D01*
G37*
%LPD*%
%LPC*%
G36*
X431291Y905001D02*
X431291Y905001D01*
X431291Y911802D01*
X431377Y911788D01*
X432730Y911348D01*
X433998Y910702D01*
X435150Y909866D01*
X436156Y908860D01*
X436992Y907708D01*
X437638Y906440D01*
X438078Y905087D01*
X438092Y905001D01*
X431291Y905001D01*
G37*
%LPD*%
%LPC*%
G36*
X431291Y900939D02*
X431291Y900939D01*
X438092Y900939D01*
X438078Y900853D01*
X437638Y899500D01*
X436992Y898232D01*
X436156Y897080D01*
X435150Y896074D01*
X433998Y895238D01*
X432730Y894592D01*
X431377Y894152D01*
X431291Y894138D01*
X431291Y900939D01*
G37*
%LPD*%
%LPC*%
G36*
X420428Y905001D02*
X420428Y905001D01*
X420442Y905087D01*
X420882Y906440D01*
X421528Y907708D01*
X422364Y908860D01*
X423370Y909866D01*
X424522Y910702D01*
X425790Y911348D01*
X427143Y911788D01*
X427229Y911802D01*
X427229Y905001D01*
X420428Y905001D01*
G37*
%LPD*%
%LPC*%
G36*
X431231Y757519D02*
X431231Y757519D01*
X438032Y757519D01*
X438018Y757433D01*
X437578Y756080D01*
X436932Y754812D01*
X436096Y753660D01*
X435090Y752654D01*
X433938Y751818D01*
X432670Y751172D01*
X431317Y750732D01*
X431231Y750718D01*
X431231Y757519D01*
G37*
%LPD*%
%LPC*%
G36*
X420368Y761581D02*
X420368Y761581D01*
X420382Y761667D01*
X420822Y763020D01*
X421468Y764288D01*
X422304Y765440D01*
X423310Y766446D01*
X424462Y767282D01*
X425730Y767928D01*
X427083Y768368D01*
X427169Y768382D01*
X427169Y761581D01*
X420368Y761581D01*
G37*
%LPD*%
%LPC*%
G36*
X427083Y750732D02*
X427083Y750732D01*
X425730Y751172D01*
X424462Y751818D01*
X423310Y752654D01*
X422304Y753660D01*
X421468Y754812D01*
X420822Y756080D01*
X420382Y757433D01*
X420368Y757519D01*
X427169Y757519D01*
X427169Y750718D01*
X427083Y750732D01*
G37*
%LPD*%
%LPC*%
G36*
X427143Y894152D02*
X427143Y894152D01*
X425790Y894592D01*
X424522Y895238D01*
X423370Y896074D01*
X422364Y897080D01*
X421528Y898232D01*
X420882Y899500D01*
X420442Y900853D01*
X420428Y900939D01*
X427229Y900939D01*
X427229Y894138D01*
X427143Y894152D01*
G37*
%LPD*%
D10*
X290769Y223241D02*
X290769Y451241D01*
X395769Y451241D02*
X395769Y223241D01*
X472950Y0D02*
X2950Y0D01*
X472950Y0D02*
X472950Y1000000D01*
X2950Y1000000D01*
X2950Y0D01*
X88069Y297835D02*
X88092Y299676D01*
X88159Y301515D01*
X88272Y303352D01*
X88430Y305186D01*
X88633Y307016D01*
X88881Y308840D01*
X89173Y310657D01*
X89510Y312467D01*
X89891Y314268D01*
X90317Y316059D01*
X90786Y317838D01*
X91298Y319606D01*
X91854Y321361D01*
X92453Y323102D01*
X93095Y324827D01*
X93778Y326536D01*
X94503Y328228D01*
X95270Y329902D01*
X96077Y331556D01*
X96925Y333190D01*
X97812Y334802D01*
X98739Y336393D01*
X99705Y337960D01*
X100709Y339503D01*
X101750Y341021D01*
X102828Y342512D01*
X103943Y343977D01*
X105093Y345414D01*
X106278Y346823D01*
X107498Y348202D01*
X108750Y349551D01*
X110036Y350868D01*
X111353Y352154D01*
X112702Y353406D01*
X114081Y354626D01*
X115490Y355811D01*
X116927Y356961D01*
X118392Y358076D01*
X119883Y359154D01*
X121401Y360195D01*
X122944Y361199D01*
X124511Y362165D01*
X126102Y363092D01*
X127714Y363979D01*
X129348Y364827D01*
X131002Y365634D01*
X132676Y366401D01*
X134368Y367126D01*
X136077Y367809D01*
X137802Y368451D01*
X139543Y369050D01*
X141298Y369606D01*
X143066Y370118D01*
X144845Y370587D01*
X146636Y371013D01*
X148437Y371394D01*
X150247Y371731D01*
X152064Y372023D01*
X153888Y372271D01*
X155718Y372474D01*
X157552Y372632D01*
X159389Y372745D01*
X161228Y372812D01*
X163069Y372835D01*
X164910Y372812D01*
X166749Y372745D01*
X168586Y372632D01*
X170420Y372474D01*
X172250Y372271D01*
X174074Y372023D01*
X175891Y371731D01*
X177701Y371394D01*
X179502Y371013D01*
X181293Y370587D01*
X183072Y370118D01*
X184840Y369606D01*
X186595Y369050D01*
X188336Y368451D01*
X190061Y367809D01*
X191770Y367126D01*
X193462Y366401D01*
X195136Y365634D01*
X196790Y364827D01*
X198424Y363979D01*
X200036Y363092D01*
X201627Y362165D01*
X203194Y361199D01*
X204737Y360195D01*
X206255Y359154D01*
X207746Y358076D01*
X209211Y356961D01*
X210648Y355811D01*
X212057Y354626D01*
X213436Y353406D01*
X214785Y352154D01*
X216102Y350868D01*
X217388Y349551D01*
X218640Y348202D01*
X219860Y346823D01*
X221045Y345414D01*
X222195Y343977D01*
X223310Y342512D01*
X224388Y341021D01*
X225429Y339503D01*
X226433Y337960D01*
X227399Y336393D01*
X228326Y334802D01*
X229213Y333190D01*
X230061Y331556D01*
X230868Y329902D01*
X231635Y328228D01*
X232360Y326536D01*
X233043Y324827D01*
X233685Y323102D01*
X234284Y321361D01*
X234840Y319606D01*
X235352Y317838D01*
X235821Y316059D01*
X236247Y314268D01*
X236628Y312467D01*
X236965Y310657D01*
X237257Y308840D01*
X237505Y307016D01*
X237708Y305186D01*
X237866Y303352D01*
X237979Y301515D01*
X238046Y299676D01*
X238069Y297835D01*
X238046Y295994D01*
X237979Y294155D01*
X237866Y292318D01*
X237708Y290484D01*
X237505Y288654D01*
X237257Y286830D01*
X236965Y285013D01*
X236628Y283203D01*
X236247Y281402D01*
X235821Y279611D01*
X235352Y277832D01*
X234840Y276064D01*
X234284Y274309D01*
X233685Y272568D01*
X233043Y270843D01*
X232360Y269134D01*
X231635Y267442D01*
X230868Y265768D01*
X230061Y264114D01*
X229213Y262480D01*
X228326Y260868D01*
X227399Y259277D01*
X226433Y257710D01*
X225429Y256167D01*
X224388Y254649D01*
X223310Y253158D01*
X222195Y251693D01*
X221045Y250256D01*
X219860Y248847D01*
X218640Y247468D01*
X217388Y246119D01*
X216102Y244802D01*
X214785Y243516D01*
X213436Y242264D01*
X212057Y241044D01*
X210648Y239859D01*
X209211Y238709D01*
X207746Y237594D01*
X206255Y236516D01*
X204737Y235475D01*
X203194Y234471D01*
X201627Y233505D01*
X200036Y232578D01*
X198424Y231691D01*
X196790Y230843D01*
X195136Y230036D01*
X193462Y229269D01*
X191770Y228544D01*
X190061Y227861D01*
X188336Y227219D01*
X186595Y226620D01*
X184840Y226064D01*
X183072Y225552D01*
X181293Y225083D01*
X179502Y224657D01*
X177701Y224276D01*
X175891Y223939D01*
X174074Y223647D01*
X172250Y223399D01*
X170420Y223196D01*
X168586Y223038D01*
X166749Y222925D01*
X164910Y222858D01*
X163069Y222835D01*
X161228Y222858D01*
X159389Y222925D01*
X157552Y223038D01*
X155718Y223196D01*
X153888Y223399D01*
X152064Y223647D01*
X150247Y223939D01*
X148437Y224276D01*
X146636Y224657D01*
X144845Y225083D01*
X143066Y225552D01*
X141298Y226064D01*
X139543Y226620D01*
X137802Y227219D01*
X136077Y227861D01*
X134368Y228544D01*
X132676Y229269D01*
X131002Y230036D01*
X129348Y230843D01*
X127714Y231691D01*
X126102Y232578D01*
X124511Y233505D01*
X122944Y234471D01*
X121401Y235475D01*
X119883Y236516D01*
X118392Y237594D01*
X116927Y238709D01*
X115490Y239859D01*
X114081Y241044D01*
X112702Y242264D01*
X111353Y243516D01*
X110036Y244802D01*
X108750Y246119D01*
X107498Y247468D01*
X106278Y248847D01*
X105093Y250256D01*
X103943Y251693D01*
X102828Y253158D01*
X101750Y254649D01*
X100709Y256167D01*
X99705Y257710D01*
X98739Y259277D01*
X97812Y260868D01*
X96925Y262480D01*
X96077Y264114D01*
X95270Y265768D01*
X94503Y267442D01*
X93778Y269134D01*
X93095Y270843D01*
X92453Y272568D01*
X91854Y274309D01*
X91298Y276064D01*
X90786Y277832D01*
X90317Y279611D01*
X89891Y281402D01*
X89510Y283203D01*
X89173Y285013D01*
X88881Y286830D01*
X88633Y288654D01*
X88430Y290484D01*
X88272Y292318D01*
X88159Y294155D01*
X88092Y295994D01*
X88069Y297835D01*
X330769Y205241D02*
X330773Y205548D01*
X330784Y205854D01*
X330803Y206161D01*
X330829Y206466D01*
X330863Y206771D01*
X330904Y207075D01*
X330953Y207378D01*
X331009Y207680D01*
X331073Y207980D01*
X331144Y208278D01*
X331222Y208575D01*
X331307Y208870D01*
X331400Y209162D01*
X331500Y209452D01*
X331607Y209740D01*
X331721Y210025D01*
X331841Y210307D01*
X331969Y210585D01*
X332104Y210861D01*
X332245Y211133D01*
X332393Y211402D01*
X332547Y211667D01*
X332708Y211928D01*
X332876Y212186D01*
X333049Y212439D01*
X333229Y212687D01*
X333415Y212931D01*
X333606Y213171D01*
X333804Y213406D01*
X334007Y213635D01*
X334216Y213860D01*
X334430Y214080D01*
X334650Y214294D01*
X334875Y214503D01*
X335104Y214706D01*
X335339Y214904D01*
X335579Y215095D01*
X335823Y215281D01*
X336071Y215461D01*
X336324Y215634D01*
X336582Y215802D01*
X336843Y215963D01*
X337108Y216117D01*
X337377Y216265D01*
X337649Y216406D01*
X337925Y216541D01*
X338203Y216669D01*
X338485Y216789D01*
X338770Y216903D01*
X339058Y217010D01*
X339348Y217110D01*
X339640Y217203D01*
X339935Y217288D01*
X340232Y217366D01*
X340530Y217437D01*
X340830Y217501D01*
X341132Y217557D01*
X341435Y217606D01*
X341739Y217647D01*
X342044Y217681D01*
X342349Y217707D01*
X342656Y217726D01*
X342962Y217737D01*
X343269Y217741D01*
X343576Y217737D01*
X343882Y217726D01*
X344189Y217707D01*
X344494Y217681D01*
X344799Y217647D01*
X345103Y217606D01*
X345406Y217557D01*
X345708Y217501D01*
X346008Y217437D01*
X346306Y217366D01*
X346603Y217288D01*
X346898Y217203D01*
X347190Y217110D01*
X347480Y217010D01*
X347768Y216903D01*
X348053Y216789D01*
X348335Y216669D01*
X348613Y216541D01*
X348889Y216406D01*
X349161Y216265D01*
X349430Y216117D01*
X349695Y215963D01*
X349956Y215802D01*
X350214Y215634D01*
X350467Y215461D01*
X350715Y215281D01*
X350959Y215095D01*
X351199Y214904D01*
X351434Y214706D01*
X351663Y214503D01*
X351888Y214294D01*
X352108Y214080D01*
X352322Y213860D01*
X352531Y213635D01*
X352734Y213406D01*
X352932Y213171D01*
X353123Y212931D01*
X353309Y212687D01*
X353489Y212439D01*
X353662Y212186D01*
X353830Y211928D01*
X353991Y211667D01*
X354145Y211402D01*
X354293Y211133D01*
X354434Y210861D01*
X354569Y210585D01*
X354697Y210307D01*
X354817Y210025D01*
X354931Y209740D01*
X355038Y209452D01*
X355138Y209162D01*
X355231Y208870D01*
X355316Y208575D01*
X355394Y208278D01*
X355465Y207980D01*
X355529Y207680D01*
X355585Y207378D01*
X355634Y207075D01*
X355675Y206771D01*
X355709Y206466D01*
X355735Y206161D01*
X355754Y205854D01*
X355765Y205548D01*
X355769Y205241D01*
X355765Y204934D01*
X355754Y204628D01*
X355735Y204321D01*
X355709Y204016D01*
X355675Y203711D01*
X355634Y203407D01*
X355585Y203104D01*
X355529Y202802D01*
X355465Y202502D01*
X355394Y202204D01*
X355316Y201907D01*
X355231Y201612D01*
X355138Y201320D01*
X355038Y201030D01*
X354931Y200742D01*
X354817Y200457D01*
X354697Y200175D01*
X354569Y199897D01*
X354434Y199621D01*
X354293Y199349D01*
X354145Y199080D01*
X353991Y198815D01*
X353830Y198554D01*
X353662Y198296D01*
X353489Y198043D01*
X353309Y197795D01*
X353123Y197551D01*
X352932Y197311D01*
X352734Y197076D01*
X352531Y196847D01*
X352322Y196622D01*
X352108Y196402D01*
X351888Y196188D01*
X351663Y195979D01*
X351434Y195776D01*
X351199Y195578D01*
X350959Y195387D01*
X350715Y195201D01*
X350467Y195021D01*
X350214Y194848D01*
X349956Y194680D01*
X349695Y194519D01*
X349430Y194365D01*
X349161Y194217D01*
X348889Y194076D01*
X348613Y193941D01*
X348335Y193813D01*
X348053Y193693D01*
X347768Y193579D01*
X347480Y193472D01*
X347190Y193372D01*
X346898Y193279D01*
X346603Y193194D01*
X346306Y193116D01*
X346008Y193045D01*
X345708Y192981D01*
X345406Y192925D01*
X345103Y192876D01*
X344799Y192835D01*
X344494Y192801D01*
X344189Y192775D01*
X343882Y192756D01*
X343576Y192745D01*
X343269Y192741D01*
X342962Y192745D01*
X342656Y192756D01*
X342349Y192775D01*
X342044Y192801D01*
X341739Y192835D01*
X341435Y192876D01*
X341132Y192925D01*
X340830Y192981D01*
X340530Y193045D01*
X340232Y193116D01*
X339935Y193194D01*
X339640Y193279D01*
X339348Y193372D01*
X339058Y193472D01*
X338770Y193579D01*
X338485Y193693D01*
X338203Y193813D01*
X337925Y193941D01*
X337649Y194076D01*
X337377Y194217D01*
X337108Y194365D01*
X336843Y194519D01*
X336582Y194680D01*
X336324Y194848D01*
X336071Y195021D01*
X335823Y195201D01*
X335579Y195387D01*
X335339Y195578D01*
X335104Y195776D01*
X334875Y195979D01*
X334650Y196188D01*
X334430Y196402D01*
X334216Y196622D01*
X334007Y196847D01*
X333804Y197076D01*
X333606Y197311D01*
X333415Y197551D01*
X333229Y197795D01*
X333049Y198043D01*
X332876Y198296D01*
X332708Y198554D01*
X332547Y198815D01*
X332393Y199080D01*
X332245Y199349D01*
X332104Y199621D01*
X331969Y199897D01*
X331841Y200175D01*
X331721Y200457D01*
X331607Y200742D01*
X331500Y201030D01*
X331400Y201320D01*
X331307Y201612D01*
X331222Y201907D01*
X331144Y202204D01*
X331073Y202502D01*
X331009Y202802D01*
X330953Y203104D01*
X330904Y203407D01*
X330863Y203711D01*
X330829Y204016D01*
X330803Y204321D01*
X330784Y204628D01*
X330773Y204934D01*
X330769Y205241D01*
X88069Y108941D02*
X88092Y110782D01*
X88159Y112621D01*
X88272Y114458D01*
X88430Y116292D01*
X88633Y118122D01*
X88881Y119946D01*
X89173Y121763D01*
X89510Y123573D01*
X89891Y125374D01*
X90317Y127165D01*
X90786Y128944D01*
X91298Y130712D01*
X91854Y132467D01*
X92453Y134208D01*
X93095Y135933D01*
X93778Y137642D01*
X94503Y139334D01*
X95270Y141008D01*
X96077Y142662D01*
X96925Y144296D01*
X97812Y145908D01*
X98739Y147499D01*
X99705Y149066D01*
X100709Y150609D01*
X101750Y152127D01*
X102828Y153618D01*
X103943Y155083D01*
X105093Y156520D01*
X106278Y157929D01*
X107498Y159308D01*
X108750Y160657D01*
X110036Y161974D01*
X111353Y163260D01*
X112702Y164512D01*
X114081Y165732D01*
X115490Y166917D01*
X116927Y168067D01*
X118392Y169182D01*
X119883Y170260D01*
X121401Y171301D01*
X122944Y172305D01*
X124511Y173271D01*
X126102Y174198D01*
X127714Y175085D01*
X129348Y175933D01*
X131002Y176740D01*
X132676Y177507D01*
X134368Y178232D01*
X136077Y178915D01*
X137802Y179557D01*
X139543Y180156D01*
X141298Y180712D01*
X143066Y181224D01*
X144845Y181693D01*
X146636Y182119D01*
X148437Y182500D01*
X150247Y182837D01*
X152064Y183129D01*
X153888Y183377D01*
X155718Y183580D01*
X157552Y183738D01*
X159389Y183851D01*
X161228Y183918D01*
X163069Y183941D01*
X164910Y183918D01*
X166749Y183851D01*
X168586Y183738D01*
X170420Y183580D01*
X172250Y183377D01*
X174074Y183129D01*
X175891Y182837D01*
X177701Y182500D01*
X179502Y182119D01*
X181293Y181693D01*
X183072Y181224D01*
X184840Y180712D01*
X186595Y180156D01*
X188336Y179557D01*
X190061Y178915D01*
X191770Y178232D01*
X193462Y177507D01*
X195136Y176740D01*
X196790Y175933D01*
X198424Y175085D01*
X200036Y174198D01*
X201627Y173271D01*
X203194Y172305D01*
X204737Y171301D01*
X206255Y170260D01*
X207746Y169182D01*
X209211Y168067D01*
X210648Y166917D01*
X212057Y165732D01*
X213436Y164512D01*
X214785Y163260D01*
X216102Y161974D01*
X217388Y160657D01*
X218640Y159308D01*
X219860Y157929D01*
X221045Y156520D01*
X222195Y155083D01*
X223310Y153618D01*
X224388Y152127D01*
X225429Y150609D01*
X226433Y149066D01*
X227399Y147499D01*
X228326Y145908D01*
X229213Y144296D01*
X230061Y142662D01*
X230868Y141008D01*
X231635Y139334D01*
X232360Y137642D01*
X233043Y135933D01*
X233685Y134208D01*
X234284Y132467D01*
X234840Y130712D01*
X235352Y128944D01*
X235821Y127165D01*
X236247Y125374D01*
X236628Y123573D01*
X236965Y121763D01*
X237257Y119946D01*
X237505Y118122D01*
X237708Y116292D01*
X237866Y114458D01*
X237979Y112621D01*
X238046Y110782D01*
X238069Y108941D01*
X238046Y107100D01*
X237979Y105261D01*
X237866Y103424D01*
X237708Y101590D01*
X237505Y99760D01*
X237257Y97936D01*
X236965Y96119D01*
X236628Y94309D01*
X236247Y92508D01*
X235821Y90717D01*
X235352Y88938D01*
X234840Y87170D01*
X234284Y85415D01*
X233685Y83674D01*
X233043Y81949D01*
X232360Y80240D01*
X231635Y78548D01*
X230868Y76874D01*
X230061Y75220D01*
X229213Y73586D01*
X228326Y71974D01*
X227399Y70383D01*
X226433Y68816D01*
X225429Y67273D01*
X224388Y65755D01*
X223310Y64264D01*
X222195Y62799D01*
X221045Y61362D01*
X219860Y59953D01*
X218640Y58574D01*
X217388Y57225D01*
X216102Y55908D01*
X214785Y54622D01*
X213436Y53370D01*
X212057Y52150D01*
X210648Y50965D01*
X209211Y49815D01*
X207746Y48700D01*
X206255Y47622D01*
X204737Y46581D01*
X203194Y45577D01*
X201627Y44611D01*
X200036Y43684D01*
X198424Y42797D01*
X196790Y41949D01*
X195136Y41142D01*
X193462Y40375D01*
X191770Y39650D01*
X190061Y38967D01*
X188336Y38325D01*
X186595Y37726D01*
X184840Y37170D01*
X183072Y36658D01*
X181293Y36189D01*
X179502Y35763D01*
X177701Y35382D01*
X175891Y35045D01*
X174074Y34753D01*
X172250Y34505D01*
X170420Y34302D01*
X168586Y34144D01*
X166749Y34031D01*
X164910Y33964D01*
X163069Y33941D01*
X161228Y33964D01*
X159389Y34031D01*
X157552Y34144D01*
X155718Y34302D01*
X153888Y34505D01*
X152064Y34753D01*
X150247Y35045D01*
X148437Y35382D01*
X146636Y35763D01*
X144845Y36189D01*
X143066Y36658D01*
X141298Y37170D01*
X139543Y37726D01*
X137802Y38325D01*
X136077Y38967D01*
X134368Y39650D01*
X132676Y40375D01*
X131002Y41142D01*
X129348Y41949D01*
X127714Y42797D01*
X126102Y43684D01*
X124511Y44611D01*
X122944Y45577D01*
X121401Y46581D01*
X119883Y47622D01*
X118392Y48700D01*
X116927Y49815D01*
X115490Y50965D01*
X114081Y52150D01*
X112702Y53370D01*
X111353Y54622D01*
X110036Y55908D01*
X108750Y57225D01*
X107498Y58574D01*
X106278Y59953D01*
X105093Y61362D01*
X103943Y62799D01*
X102828Y64264D01*
X101750Y65755D01*
X100709Y67273D01*
X99705Y68816D01*
X98739Y70383D01*
X97812Y71974D01*
X96925Y73586D01*
X96077Y75220D01*
X95270Y76874D01*
X94503Y78548D01*
X93778Y80240D01*
X93095Y81949D01*
X92453Y83674D01*
X91854Y85415D01*
X91298Y87170D01*
X90786Y88938D01*
X90317Y90717D01*
X89891Y92508D01*
X89510Y94309D01*
X89173Y96119D01*
X88881Y97936D01*
X88633Y99760D01*
X88430Y101590D01*
X88272Y103424D01*
X88159Y105261D01*
X88092Y107100D01*
X88069Y108941D01*
X401950Y50000D02*
X401956Y50515D01*
X401975Y51030D01*
X402007Y51545D01*
X402051Y52058D01*
X402108Y52571D01*
X402177Y53081D01*
X402259Y53590D01*
X402354Y54097D01*
X402460Y54601D01*
X402579Y55103D01*
X402711Y55601D01*
X402854Y56096D01*
X403010Y56587D01*
X403178Y57075D01*
X403357Y57558D01*
X403549Y58036D01*
X403752Y58510D01*
X403966Y58979D01*
X404192Y59442D01*
X404430Y59899D01*
X404678Y60351D01*
X404938Y60796D01*
X405208Y61235D01*
X405489Y61667D01*
X405781Y62092D01*
X406083Y62510D01*
X406395Y62920D01*
X406717Y63322D01*
X407049Y63717D01*
X407390Y64103D01*
X407741Y64480D01*
X408101Y64849D01*
X408470Y65209D01*
X408847Y65560D01*
X409233Y65901D01*
X409628Y66233D01*
X410030Y66555D01*
X410440Y66867D01*
X410858Y67169D01*
X411283Y67461D01*
X411715Y67742D01*
X412154Y68012D01*
X412599Y68272D01*
X413051Y68520D01*
X413508Y68758D01*
X413971Y68984D01*
X414440Y69198D01*
X414914Y69401D01*
X415392Y69593D01*
X415875Y69772D01*
X416363Y69940D01*
X416854Y70096D01*
X417349Y70239D01*
X417847Y70371D01*
X418349Y70490D01*
X418853Y70596D01*
X419360Y70691D01*
X419869Y70773D01*
X420379Y70842D01*
X420892Y70899D01*
X421405Y70943D01*
X421920Y70975D01*
X422435Y70994D01*
X422950Y71000D01*
X423465Y70994D01*
X423980Y70975D01*
X424495Y70943D01*
X425008Y70899D01*
X425521Y70842D01*
X426031Y70773D01*
X426540Y70691D01*
X427047Y70596D01*
X427551Y70490D01*
X428053Y70371D01*
X428551Y70239D01*
X429046Y70096D01*
X429537Y69940D01*
X430025Y69772D01*
X430508Y69593D01*
X430986Y69401D01*
X431460Y69198D01*
X431929Y68984D01*
X432392Y68758D01*
X432849Y68520D01*
X433301Y68272D01*
X433746Y68012D01*
X434185Y67742D01*
X434617Y67461D01*
X435042Y67169D01*
X435460Y66867D01*
X435870Y66555D01*
X436272Y66233D01*
X436667Y65901D01*
X437053Y65560D01*
X437430Y65209D01*
X437799Y64849D01*
X438159Y64480D01*
X438510Y64103D01*
X438851Y63717D01*
X439183Y63322D01*
X439505Y62920D01*
X439817Y62510D01*
X440119Y62092D01*
X440411Y61667D01*
X440692Y61235D01*
X440962Y60796D01*
X441222Y60351D01*
X441470Y59899D01*
X441708Y59442D01*
X441934Y58979D01*
X442148Y58510D01*
X442351Y58036D01*
X442543Y57558D01*
X442722Y57075D01*
X442890Y56587D01*
X443046Y56096D01*
X443189Y55601D01*
X443321Y55103D01*
X443440Y54601D01*
X443546Y54097D01*
X443641Y53590D01*
X443723Y53081D01*
X443792Y52571D01*
X443849Y52058D01*
X443893Y51545D01*
X443925Y51030D01*
X443944Y50515D01*
X443950Y50000D01*
X443944Y49485D01*
X443925Y48970D01*
X443893Y48455D01*
X443849Y47942D01*
X443792Y47429D01*
X443723Y46919D01*
X443641Y46410D01*
X443546Y45903D01*
X443440Y45399D01*
X443321Y44897D01*
X443189Y44399D01*
X443046Y43904D01*
X442890Y43413D01*
X442722Y42925D01*
X442543Y42442D01*
X442351Y41964D01*
X442148Y41490D01*
X441934Y41021D01*
X441708Y40558D01*
X441470Y40101D01*
X441222Y39649D01*
X440962Y39204D01*
X440692Y38765D01*
X440411Y38333D01*
X440119Y37908D01*
X439817Y37490D01*
X439505Y37080D01*
X439183Y36678D01*
X438851Y36283D01*
X438510Y35897D01*
X438159Y35520D01*
X437799Y35151D01*
X437430Y34791D01*
X437053Y34440D01*
X436667Y34099D01*
X436272Y33767D01*
X435870Y33445D01*
X435460Y33133D01*
X435042Y32831D01*
X434617Y32539D01*
X434185Y32258D01*
X433746Y31988D01*
X433301Y31728D01*
X432849Y31480D01*
X432392Y31242D01*
X431929Y31016D01*
X431460Y30802D01*
X430986Y30599D01*
X430508Y30407D01*
X430025Y30228D01*
X429537Y30060D01*
X429046Y29904D01*
X428551Y29761D01*
X428053Y29629D01*
X427551Y29510D01*
X427047Y29404D01*
X426540Y29309D01*
X426031Y29227D01*
X425521Y29158D01*
X425008Y29101D01*
X424495Y29057D01*
X423980Y29025D01*
X423465Y29006D01*
X422950Y29000D01*
X422435Y29006D01*
X421920Y29025D01*
X421405Y29057D01*
X420892Y29101D01*
X420379Y29158D01*
X419869Y29227D01*
X419360Y29309D01*
X418853Y29404D01*
X418349Y29510D01*
X417847Y29629D01*
X417349Y29761D01*
X416854Y29904D01*
X416363Y30060D01*
X415875Y30228D01*
X415392Y30407D01*
X414914Y30599D01*
X414440Y30802D01*
X413971Y31016D01*
X413508Y31242D01*
X413051Y31480D01*
X412599Y31728D01*
X412154Y31988D01*
X411715Y32258D01*
X411283Y32539D01*
X410858Y32831D01*
X410440Y33133D01*
X410030Y33445D01*
X409628Y33767D01*
X409233Y34099D01*
X408847Y34440D01*
X408470Y34791D01*
X408101Y35151D01*
X407741Y35520D01*
X407390Y35897D01*
X407049Y36283D01*
X406717Y36678D01*
X406395Y37080D01*
X406083Y37490D01*
X405781Y37908D01*
X405489Y38333D01*
X405208Y38765D01*
X404938Y39204D01*
X404678Y39649D01*
X404430Y40101D01*
X404192Y40558D01*
X403966Y41021D01*
X403752Y41490D01*
X403549Y41964D01*
X403357Y42442D01*
X403178Y42925D01*
X403010Y43413D01*
X402854Y43904D01*
X402711Y44399D01*
X402579Y44897D01*
X402460Y45399D01*
X402354Y45903D01*
X402259Y46410D01*
X402177Y46919D01*
X402108Y47429D01*
X402051Y47942D01*
X402007Y48455D01*
X401975Y48970D01*
X401956Y49485D01*
X401950Y50000D01*
X283269Y108941D02*
X283287Y110413D01*
X283341Y111885D01*
X283432Y113355D01*
X283558Y114822D01*
X283720Y116286D01*
X283918Y117745D01*
X284152Y119199D01*
X284422Y120646D01*
X284727Y122087D01*
X285067Y123520D01*
X285442Y124944D01*
X285853Y126358D01*
X286297Y127762D01*
X286776Y129154D01*
X287289Y130535D01*
X287836Y131902D01*
X288416Y133255D01*
X289030Y134594D01*
X289676Y135918D01*
X290354Y137225D01*
X291064Y138515D01*
X291805Y139787D01*
X292578Y141041D01*
X293381Y142275D01*
X294214Y143489D01*
X295077Y144683D01*
X295968Y145855D01*
X296888Y147005D01*
X297836Y148131D01*
X298812Y149235D01*
X299814Y150313D01*
X300843Y151367D01*
X301897Y152396D01*
X302975Y153398D01*
X304079Y154374D01*
X305205Y155322D01*
X306355Y156242D01*
X307527Y157133D01*
X308721Y157996D01*
X309935Y158829D01*
X311169Y159632D01*
X312423Y160405D01*
X313695Y161146D01*
X314985Y161856D01*
X316292Y162534D01*
X317616Y163180D01*
X318955Y163794D01*
X320308Y164374D01*
X321675Y164921D01*
X323056Y165434D01*
X324448Y165913D01*
X325852Y166357D01*
X327266Y166768D01*
X328690Y167143D01*
X330123Y167483D01*
X331564Y167788D01*
X333011Y168058D01*
X334465Y168292D01*
X335924Y168490D01*
X337388Y168652D01*
X338855Y168778D01*
X340325Y168869D01*
X341797Y168923D01*
X343269Y168941D01*
X344741Y168923D01*
X346213Y168869D01*
X347683Y168778D01*
X349150Y168652D01*
X350614Y168490D01*
X352073Y168292D01*
X353527Y168058D01*
X354974Y167788D01*
X356415Y167483D01*
X357848Y167143D01*
X359272Y166768D01*
X360686Y166357D01*
X362090Y165913D01*
X363482Y165434D01*
X364863Y164921D01*
X366230Y164374D01*
X367583Y163794D01*
X368922Y163180D01*
X370246Y162534D01*
X371553Y161856D01*
X372843Y161146D01*
X374115Y160405D01*
X375369Y159632D01*
X376603Y158829D01*
X377817Y157996D01*
X379011Y157133D01*
X380183Y156242D01*
X381333Y155322D01*
X382459Y154374D01*
X383563Y153398D01*
X384641Y152396D01*
X385695Y151367D01*
X386724Y150313D01*
X387726Y149235D01*
X388702Y148131D01*
X389650Y147005D01*
X390570Y145855D01*
X391461Y144683D01*
X392324Y143489D01*
X393157Y142275D01*
X393960Y141041D01*
X394733Y139787D01*
X395474Y138515D01*
X396184Y137225D01*
X396862Y135918D01*
X397508Y134594D01*
X398122Y133255D01*
X398702Y131902D01*
X399249Y130535D01*
X399762Y129154D01*
X400241Y127762D01*
X400685Y126358D01*
X401096Y124944D01*
X401471Y123520D01*
X401811Y122087D01*
X402116Y120646D01*
X402386Y119199D01*
X402620Y117745D01*
X402818Y116286D01*
X402980Y114822D01*
X403106Y113355D01*
X403197Y111885D01*
X403251Y110413D01*
X403269Y108941D01*
X403251Y107469D01*
X403197Y105997D01*
X403106Y104527D01*
X402980Y103060D01*
X402818Y101596D01*
X402620Y100137D01*
X402386Y98683D01*
X402116Y97236D01*
X401811Y95795D01*
X401471Y94362D01*
X401096Y92938D01*
X400685Y91524D01*
X400241Y90120D01*
X399762Y88728D01*
X399249Y87347D01*
X398702Y85980D01*
X398122Y84627D01*
X397508Y83288D01*
X396862Y81964D01*
X396184Y80657D01*
X395474Y79367D01*
X394733Y78095D01*
X393960Y76841D01*
X393157Y75607D01*
X392324Y74393D01*
X391461Y73199D01*
X390570Y72027D01*
X389650Y70877D01*
X388702Y69751D01*
X387726Y68647D01*
X386724Y67569D01*
X385695Y66515D01*
X384641Y65486D01*
X383563Y64484D01*
X382459Y63508D01*
X381333Y62560D01*
X380183Y61640D01*
X379011Y60749D01*
X377817Y59886D01*
X376603Y59053D01*
X375369Y58250D01*
X374115Y57477D01*
X372843Y56736D01*
X371553Y56026D01*
X370246Y55348D01*
X368922Y54702D01*
X367583Y54088D01*
X366230Y53508D01*
X364863Y52961D01*
X363482Y52448D01*
X362090Y51969D01*
X360686Y51525D01*
X359272Y51114D01*
X357848Y50739D01*
X356415Y50399D01*
X354974Y50094D01*
X353527Y49824D01*
X352073Y49590D01*
X350614Y49392D01*
X349150Y49230D01*
X347683Y49104D01*
X346213Y49013D01*
X344741Y48959D01*
X343269Y48941D01*
X341797Y48959D01*
X340325Y49013D01*
X338855Y49104D01*
X337388Y49230D01*
X335924Y49392D01*
X334465Y49590D01*
X333011Y49824D01*
X331564Y50094D01*
X330123Y50399D01*
X328690Y50739D01*
X327266Y51114D01*
X325852Y51525D01*
X324448Y51969D01*
X323056Y52448D01*
X321675Y52961D01*
X320308Y53508D01*
X318955Y54088D01*
X317616Y54702D01*
X316292Y55348D01*
X314985Y56026D01*
X313695Y56736D01*
X312423Y57477D01*
X311169Y58250D01*
X309935Y59053D01*
X308721Y59886D01*
X307527Y60749D01*
X306355Y61640D01*
X305205Y62560D01*
X304079Y63508D01*
X302975Y64484D01*
X301897Y65486D01*
X300843Y66515D01*
X299814Y67569D01*
X298812Y68647D01*
X297836Y69751D01*
X296888Y70877D01*
X295968Y72027D01*
X295077Y73199D01*
X294214Y74393D01*
X293381Y75607D01*
X292578Y76841D01*
X291805Y78095D01*
X291064Y79367D01*
X290354Y80657D01*
X289676Y81964D01*
X289030Y83288D01*
X288416Y84627D01*
X287836Y85980D01*
X287289Y87347D01*
X286776Y88728D01*
X286297Y90120D01*
X285853Y91524D01*
X285442Y92938D01*
X285067Y94362D01*
X284727Y95795D01*
X284422Y97236D01*
X284152Y98683D01*
X283918Y100137D01*
X283720Y101596D01*
X283558Y103060D01*
X283432Y104527D01*
X283341Y105997D01*
X283287Y107469D01*
X283269Y108941D01*
X31950Y50000D02*
X31956Y50515D01*
X31975Y51030D01*
X32007Y51545D01*
X32051Y52058D01*
X32108Y52571D01*
X32177Y53081D01*
X32259Y53590D01*
X32354Y54097D01*
X32460Y54601D01*
X32579Y55103D01*
X32711Y55601D01*
X32854Y56096D01*
X33010Y56587D01*
X33178Y57075D01*
X33357Y57558D01*
X33549Y58036D01*
X33752Y58510D01*
X33966Y58979D01*
X34192Y59442D01*
X34430Y59899D01*
X34678Y60351D01*
X34938Y60796D01*
X35208Y61235D01*
X35489Y61667D01*
X35781Y62092D01*
X36083Y62510D01*
X36395Y62920D01*
X36717Y63322D01*
X37049Y63717D01*
X37390Y64103D01*
X37741Y64480D01*
X38101Y64849D01*
X38470Y65209D01*
X38847Y65560D01*
X39233Y65901D01*
X39628Y66233D01*
X40030Y66555D01*
X40440Y66867D01*
X40858Y67169D01*
X41283Y67461D01*
X41715Y67742D01*
X42154Y68012D01*
X42599Y68272D01*
X43051Y68520D01*
X43508Y68758D01*
X43971Y68984D01*
X44440Y69198D01*
X44914Y69401D01*
X45392Y69593D01*
X45875Y69772D01*
X46363Y69940D01*
X46854Y70096D01*
X47349Y70239D01*
X47847Y70371D01*
X48349Y70490D01*
X48853Y70596D01*
X49360Y70691D01*
X49869Y70773D01*
X50379Y70842D01*
X50892Y70899D01*
X51405Y70943D01*
X51920Y70975D01*
X52435Y70994D01*
X52950Y71000D01*
X53465Y70994D01*
X53980Y70975D01*
X54495Y70943D01*
X55008Y70899D01*
X55521Y70842D01*
X56031Y70773D01*
X56540Y70691D01*
X57047Y70596D01*
X57551Y70490D01*
X58053Y70371D01*
X58551Y70239D01*
X59046Y70096D01*
X59537Y69940D01*
X60025Y69772D01*
X60508Y69593D01*
X60986Y69401D01*
X61460Y69198D01*
X61929Y68984D01*
X62392Y68758D01*
X62849Y68520D01*
X63301Y68272D01*
X63746Y68012D01*
X64185Y67742D01*
X64617Y67461D01*
X65042Y67169D01*
X65460Y66867D01*
X65870Y66555D01*
X66272Y66233D01*
X66667Y65901D01*
X67053Y65560D01*
X67430Y65209D01*
X67799Y64849D01*
X68159Y64480D01*
X68510Y64103D01*
X68851Y63717D01*
X69183Y63322D01*
X69505Y62920D01*
X69817Y62510D01*
X70119Y62092D01*
X70411Y61667D01*
X70692Y61235D01*
X70962Y60796D01*
X71222Y60351D01*
X71470Y59899D01*
X71708Y59442D01*
X71934Y58979D01*
X72148Y58510D01*
X72351Y58036D01*
X72543Y57558D01*
X72722Y57075D01*
X72890Y56587D01*
X73046Y56096D01*
X73189Y55601D01*
X73321Y55103D01*
X73440Y54601D01*
X73546Y54097D01*
X73641Y53590D01*
X73723Y53081D01*
X73792Y52571D01*
X73849Y52058D01*
X73893Y51545D01*
X73925Y51030D01*
X73944Y50515D01*
X73950Y50000D01*
X73944Y49485D01*
X73925Y48970D01*
X73893Y48455D01*
X73849Y47942D01*
X73792Y47429D01*
X73723Y46919D01*
X73641Y46410D01*
X73546Y45903D01*
X73440Y45399D01*
X73321Y44897D01*
X73189Y44399D01*
X73046Y43904D01*
X72890Y43413D01*
X72722Y42925D01*
X72543Y42442D01*
X72351Y41964D01*
X72148Y41490D01*
X71934Y41021D01*
X71708Y40558D01*
X71470Y40101D01*
X71222Y39649D01*
X70962Y39204D01*
X70692Y38765D01*
X70411Y38333D01*
X70119Y37908D01*
X69817Y37490D01*
X69505Y37080D01*
X69183Y36678D01*
X68851Y36283D01*
X68510Y35897D01*
X68159Y35520D01*
X67799Y35151D01*
X67430Y34791D01*
X67053Y34440D01*
X66667Y34099D01*
X66272Y33767D01*
X65870Y33445D01*
X65460Y33133D01*
X65042Y32831D01*
X64617Y32539D01*
X64185Y32258D01*
X63746Y31988D01*
X63301Y31728D01*
X62849Y31480D01*
X62392Y31242D01*
X61929Y31016D01*
X61460Y30802D01*
X60986Y30599D01*
X60508Y30407D01*
X60025Y30228D01*
X59537Y30060D01*
X59046Y29904D01*
X58551Y29761D01*
X58053Y29629D01*
X57551Y29510D01*
X57047Y29404D01*
X56540Y29309D01*
X56031Y29227D01*
X55521Y29158D01*
X55008Y29101D01*
X54495Y29057D01*
X53980Y29025D01*
X53465Y29006D01*
X52950Y29000D01*
X52435Y29006D01*
X51920Y29025D01*
X51405Y29057D01*
X50892Y29101D01*
X50379Y29158D01*
X49869Y29227D01*
X49360Y29309D01*
X48853Y29404D01*
X48349Y29510D01*
X47847Y29629D01*
X47349Y29761D01*
X46854Y29904D01*
X46363Y30060D01*
X45875Y30228D01*
X45392Y30407D01*
X44914Y30599D01*
X44440Y30802D01*
X43971Y31016D01*
X43508Y31242D01*
X43051Y31480D01*
X42599Y31728D01*
X42154Y31988D01*
X41715Y32258D01*
X41283Y32539D01*
X40858Y32831D01*
X40440Y33133D01*
X40030Y33445D01*
X39628Y33767D01*
X39233Y34099D01*
X38847Y34440D01*
X38470Y34791D01*
X38101Y35151D01*
X37741Y35520D01*
X37390Y35897D01*
X37049Y36283D01*
X36717Y36678D01*
X36395Y37080D01*
X36083Y37490D01*
X35781Y37908D01*
X35489Y38333D01*
X35208Y38765D01*
X34938Y39204D01*
X34678Y39649D01*
X34430Y40101D01*
X34192Y40558D01*
X33966Y41021D01*
X33752Y41490D01*
X33549Y41964D01*
X33357Y42442D01*
X33178Y42925D01*
X33010Y43413D01*
X32854Y43904D01*
X32711Y44399D01*
X32579Y44897D01*
X32460Y45399D01*
X32354Y45903D01*
X32259Y46410D01*
X32177Y46919D01*
X32108Y47429D01*
X32051Y47942D01*
X32007Y48455D01*
X31975Y48970D01*
X31956Y49485D01*
X31950Y50000D01*
X175450Y732064D02*
X175469Y733598D01*
X175525Y735131D01*
X175619Y736662D01*
X175751Y738190D01*
X175920Y739715D01*
X176126Y741235D01*
X176370Y742749D01*
X176651Y744257D01*
X176969Y745758D01*
X177323Y747250D01*
X177714Y748734D01*
X178141Y750207D01*
X178604Y751669D01*
X179103Y753120D01*
X179638Y754557D01*
X180208Y755982D01*
X180812Y757392D01*
X181451Y758786D01*
X182123Y760165D01*
X182830Y761526D01*
X183570Y762870D01*
X184342Y764195D01*
X185147Y765501D01*
X185983Y766787D01*
X186851Y768052D01*
X187750Y769295D01*
X188678Y770516D01*
X189637Y771714D01*
X190624Y772887D01*
X191641Y774036D01*
X192685Y775160D01*
X193756Y776258D01*
X194854Y777329D01*
X195978Y778373D01*
X197127Y779390D01*
X198300Y780377D01*
X199498Y781336D01*
X200719Y782264D01*
X201962Y783163D01*
X203227Y784031D01*
X204513Y784867D01*
X205819Y785672D01*
X207144Y786444D01*
X208488Y787184D01*
X209849Y787891D01*
X211228Y788563D01*
X212622Y789202D01*
X214032Y789806D01*
X215457Y790376D01*
X216894Y790911D01*
X218345Y791410D01*
X219807Y791873D01*
X221280Y792300D01*
X222764Y792691D01*
X224256Y793045D01*
X225757Y793363D01*
X227265Y793644D01*
X228779Y793888D01*
X230299Y794094D01*
X231824Y794263D01*
X233352Y794395D01*
X234883Y794489D01*
X236416Y794545D01*
X237950Y794564D01*
X239484Y794545D01*
X241017Y794489D01*
X242548Y794395D01*
X244076Y794263D01*
X245601Y794094D01*
X247121Y793888D01*
X248635Y793644D01*
X250143Y793363D01*
X251644Y793045D01*
X253136Y792691D01*
X254620Y792300D01*
X256093Y791873D01*
X257555Y791410D01*
X259006Y790911D01*
X260443Y790376D01*
X261868Y789806D01*
X263278Y789202D01*
X264672Y788563D01*
X266051Y787891D01*
X267412Y787184D01*
X268756Y786444D01*
X270081Y785672D01*
X271387Y784867D01*
X272673Y784031D01*
X273938Y783163D01*
X275181Y782264D01*
X276402Y781336D01*
X277600Y780377D01*
X278773Y779390D01*
X279922Y778373D01*
X281046Y777329D01*
X282144Y776258D01*
X283215Y775160D01*
X284259Y774036D01*
X285276Y772887D01*
X286263Y771714D01*
X287222Y770516D01*
X288150Y769295D01*
X289049Y768052D01*
X289917Y766787D01*
X290753Y765501D01*
X291558Y764195D01*
X292330Y762870D01*
X293070Y761526D01*
X293777Y760165D01*
X294449Y758786D01*
X295088Y757392D01*
X295692Y755982D01*
X296262Y754557D01*
X296797Y753120D01*
X297296Y751669D01*
X297759Y750207D01*
X298186Y748734D01*
X298577Y747250D01*
X298931Y745758D01*
X299249Y744257D01*
X299530Y742749D01*
X299774Y741235D01*
X299980Y739715D01*
X300149Y738190D01*
X300281Y736662D01*
X300375Y735131D01*
X300431Y733598D01*
X300450Y732064D01*
X300431Y730530D01*
X300375Y728997D01*
X300281Y727466D01*
X300149Y725938D01*
X299980Y724413D01*
X299774Y722893D01*
X299530Y721379D01*
X299249Y719871D01*
X298931Y718370D01*
X298577Y716878D01*
X298186Y715394D01*
X297759Y713921D01*
X297296Y712459D01*
X296797Y711008D01*
X296262Y709571D01*
X295692Y708146D01*
X295088Y706736D01*
X294449Y705342D01*
X293777Y703963D01*
X293070Y702602D01*
X292330Y701258D01*
X291558Y699933D01*
X290753Y698627D01*
X289917Y697341D01*
X289049Y696076D01*
X288150Y694833D01*
X287222Y693612D01*
X286263Y692414D01*
X285276Y691241D01*
X284259Y690092D01*
X283215Y688968D01*
X282144Y687870D01*
X281046Y686799D01*
X279922Y685755D01*
X278773Y684738D01*
X277600Y683751D01*
X276402Y682792D01*
X275181Y681864D01*
X273938Y680965D01*
X272673Y680097D01*
X271387Y679261D01*
X270081Y678456D01*
X268756Y677684D01*
X267412Y676944D01*
X266051Y676237D01*
X264672Y675565D01*
X263278Y674926D01*
X261868Y674322D01*
X260443Y673752D01*
X259006Y673217D01*
X257555Y672718D01*
X256093Y672255D01*
X254620Y671828D01*
X253136Y671437D01*
X251644Y671083D01*
X250143Y670765D01*
X248635Y670484D01*
X247121Y670240D01*
X245601Y670034D01*
X244076Y669865D01*
X242548Y669733D01*
X241017Y669639D01*
X239484Y669583D01*
X237950Y669564D01*
X236416Y669583D01*
X234883Y669639D01*
X233352Y669733D01*
X231824Y669865D01*
X230299Y670034D01*
X228779Y670240D01*
X227265Y670484D01*
X225757Y670765D01*
X224256Y671083D01*
X222764Y671437D01*
X221280Y671828D01*
X219807Y672255D01*
X218345Y672718D01*
X216894Y673217D01*
X215457Y673752D01*
X214032Y674322D01*
X212622Y674926D01*
X211228Y675565D01*
X209849Y676237D01*
X208488Y676944D01*
X207144Y677684D01*
X205819Y678456D01*
X204513Y679261D01*
X203227Y680097D01*
X201962Y680965D01*
X200719Y681864D01*
X199498Y682792D01*
X198300Y683751D01*
X197127Y684738D01*
X195978Y685755D01*
X194854Y686799D01*
X193756Y687870D01*
X192685Y688968D01*
X191641Y690092D01*
X190624Y691241D01*
X189637Y692414D01*
X188678Y693612D01*
X187750Y694833D01*
X186851Y696076D01*
X185983Y697341D01*
X185147Y698627D01*
X184342Y699933D01*
X183570Y701258D01*
X182830Y702602D01*
X182123Y703963D01*
X181451Y705342D01*
X180812Y706736D01*
X180208Y708146D01*
X179638Y709571D01*
X179103Y711008D01*
X178604Y712459D01*
X178141Y713921D01*
X177714Y715394D01*
X177323Y716878D01*
X176969Y718370D01*
X176651Y719871D01*
X176370Y721379D01*
X176126Y722893D01*
X175920Y724413D01*
X175751Y725938D01*
X175619Y727466D01*
X175525Y728997D01*
X175469Y730530D01*
X175450Y732064D01*
X175450Y898369D02*
X175469Y899903D01*
X175525Y901436D01*
X175619Y902967D01*
X175751Y904495D01*
X175920Y906020D01*
X176126Y907540D01*
X176370Y909054D01*
X176651Y910562D01*
X176969Y912063D01*
X177323Y913555D01*
X177714Y915039D01*
X178141Y916512D01*
X178604Y917974D01*
X179103Y919425D01*
X179638Y920862D01*
X180208Y922287D01*
X180812Y923697D01*
X181451Y925091D01*
X182123Y926470D01*
X182830Y927831D01*
X183570Y929175D01*
X184342Y930500D01*
X185147Y931806D01*
X185983Y933092D01*
X186851Y934357D01*
X187750Y935600D01*
X188678Y936821D01*
X189637Y938019D01*
X190624Y939192D01*
X191641Y940341D01*
X192685Y941465D01*
X193756Y942563D01*
X194854Y943634D01*
X195978Y944678D01*
X197127Y945695D01*
X198300Y946682D01*
X199498Y947641D01*
X200719Y948569D01*
X201962Y949468D01*
X203227Y950336D01*
X204513Y951172D01*
X205819Y951977D01*
X207144Y952749D01*
X208488Y953489D01*
X209849Y954196D01*
X211228Y954868D01*
X212622Y955507D01*
X214032Y956111D01*
X215457Y956681D01*
X216894Y957216D01*
X218345Y957715D01*
X219807Y958178D01*
X221280Y958605D01*
X222764Y958996D01*
X224256Y959350D01*
X225757Y959668D01*
X227265Y959949D01*
X228779Y960193D01*
X230299Y960399D01*
X231824Y960568D01*
X233352Y960700D01*
X234883Y960794D01*
X236416Y960850D01*
X237950Y960869D01*
X239484Y960850D01*
X241017Y960794D01*
X242548Y960700D01*
X244076Y960568D01*
X245601Y960399D01*
X247121Y960193D01*
X248635Y959949D01*
X250143Y959668D01*
X251644Y959350D01*
X253136Y958996D01*
X254620Y958605D01*
X256093Y958178D01*
X257555Y957715D01*
X259006Y957216D01*
X260443Y956681D01*
X261868Y956111D01*
X263278Y955507D01*
X264672Y954868D01*
X266051Y954196D01*
X267412Y953489D01*
X268756Y952749D01*
X270081Y951977D01*
X271387Y951172D01*
X272673Y950336D01*
X273938Y949468D01*
X275181Y948569D01*
X276402Y947641D01*
X277600Y946682D01*
X278773Y945695D01*
X279922Y944678D01*
X281046Y943634D01*
X282144Y942563D01*
X283215Y941465D01*
X284259Y940341D01*
X285276Y939192D01*
X286263Y938019D01*
X287222Y936821D01*
X288150Y935600D01*
X289049Y934357D01*
X289917Y933092D01*
X290753Y931806D01*
X291558Y930500D01*
X292330Y929175D01*
X293070Y927831D01*
X293777Y926470D01*
X294449Y925091D01*
X295088Y923697D01*
X295692Y922287D01*
X296262Y920862D01*
X296797Y919425D01*
X297296Y917974D01*
X297759Y916512D01*
X298186Y915039D01*
X298577Y913555D01*
X298931Y912063D01*
X299249Y910562D01*
X299530Y909054D01*
X299774Y907540D01*
X299980Y906020D01*
X300149Y904495D01*
X300281Y902967D01*
X300375Y901436D01*
X300431Y899903D01*
X300450Y898369D01*
X300431Y896835D01*
X300375Y895302D01*
X300281Y893771D01*
X300149Y892243D01*
X299980Y890718D01*
X299774Y889198D01*
X299530Y887684D01*
X299249Y886176D01*
X298931Y884675D01*
X298577Y883183D01*
X298186Y881699D01*
X297759Y880226D01*
X297296Y878764D01*
X296797Y877313D01*
X296262Y875876D01*
X295692Y874451D01*
X295088Y873041D01*
X294449Y871647D01*
X293777Y870268D01*
X293070Y868907D01*
X292330Y867563D01*
X291558Y866238D01*
X290753Y864932D01*
X289917Y863646D01*
X289049Y862381D01*
X288150Y861138D01*
X287222Y859917D01*
X286263Y858719D01*
X285276Y857546D01*
X284259Y856397D01*
X283215Y855273D01*
X282144Y854175D01*
X281046Y853104D01*
X279922Y852060D01*
X278773Y851043D01*
X277600Y850056D01*
X276402Y849097D01*
X275181Y848169D01*
X273938Y847270D01*
X272673Y846402D01*
X271387Y845566D01*
X270081Y844761D01*
X268756Y843989D01*
X267412Y843249D01*
X266051Y842542D01*
X264672Y841870D01*
X263278Y841231D01*
X261868Y840627D01*
X260443Y840057D01*
X259006Y839522D01*
X257555Y839023D01*
X256093Y838560D01*
X254620Y838133D01*
X253136Y837742D01*
X251644Y837388D01*
X250143Y837070D01*
X248635Y836789D01*
X247121Y836545D01*
X245601Y836339D01*
X244076Y836170D01*
X242548Y836038D01*
X241017Y835944D01*
X239484Y835888D01*
X237950Y835869D01*
X236416Y835888D01*
X234883Y835944D01*
X233352Y836038D01*
X231824Y836170D01*
X230299Y836339D01*
X228779Y836545D01*
X227265Y836789D01*
X225757Y837070D01*
X224256Y837388D01*
X222764Y837742D01*
X221280Y838133D01*
X219807Y838560D01*
X218345Y839023D01*
X216894Y839522D01*
X215457Y840057D01*
X214032Y840627D01*
X212622Y841231D01*
X211228Y841870D01*
X209849Y842542D01*
X208488Y843249D01*
X207144Y843989D01*
X205819Y844761D01*
X204513Y845566D01*
X203227Y846402D01*
X201962Y847270D01*
X200719Y848169D01*
X199498Y849097D01*
X198300Y850056D01*
X197127Y851043D01*
X195978Y852060D01*
X194854Y853104D01*
X193756Y854175D01*
X192685Y855273D01*
X191641Y856397D01*
X190624Y857546D01*
X189637Y858719D01*
X188678Y859917D01*
X187750Y861138D01*
X186851Y862381D01*
X185983Y863646D01*
X185147Y864932D01*
X184342Y866238D01*
X183570Y867563D01*
X182830Y868907D01*
X182123Y870268D01*
X181451Y871647D01*
X180812Y873041D01*
X180208Y874451D01*
X179638Y875876D01*
X179103Y877313D01*
X178604Y878764D01*
X178141Y880226D01*
X177714Y881699D01*
X177323Y883183D01*
X176969Y884675D01*
X176651Y886176D01*
X176370Y887684D01*
X176126Y889198D01*
X175920Y890718D01*
X175751Y892243D01*
X175619Y893771D01*
X175525Y895302D01*
X175469Y896835D01*
X175450Y898369D01*
X401950Y950000D02*
X401956Y950515D01*
X401975Y951030D01*
X402007Y951545D01*
X402051Y952058D01*
X402108Y952571D01*
X402177Y953081D01*
X402259Y953590D01*
X402354Y954097D01*
X402460Y954601D01*
X402579Y955103D01*
X402711Y955601D01*
X402854Y956096D01*
X403010Y956587D01*
X403178Y957075D01*
X403357Y957558D01*
X403549Y958036D01*
X403752Y958510D01*
X403966Y958979D01*
X404192Y959442D01*
X404430Y959899D01*
X404678Y960351D01*
X404938Y960796D01*
X405208Y961235D01*
X405489Y961667D01*
X405781Y962092D01*
X406083Y962510D01*
X406395Y962920D01*
X406717Y963322D01*
X407049Y963717D01*
X407390Y964103D01*
X407741Y964480D01*
X408101Y964849D01*
X408470Y965209D01*
X408847Y965560D01*
X409233Y965901D01*
X409628Y966233D01*
X410030Y966555D01*
X410440Y966867D01*
X410858Y967169D01*
X411283Y967461D01*
X411715Y967742D01*
X412154Y968012D01*
X412599Y968272D01*
X413051Y968520D01*
X413508Y968758D01*
X413971Y968984D01*
X414440Y969198D01*
X414914Y969401D01*
X415392Y969593D01*
X415875Y969772D01*
X416363Y969940D01*
X416854Y970096D01*
X417349Y970239D01*
X417847Y970371D01*
X418349Y970490D01*
X418853Y970596D01*
X419360Y970691D01*
X419869Y970773D01*
X420379Y970842D01*
X420892Y970899D01*
X421405Y970943D01*
X421920Y970975D01*
X422435Y970994D01*
X422950Y971000D01*
X423465Y970994D01*
X423980Y970975D01*
X424495Y970943D01*
X425008Y970899D01*
X425521Y970842D01*
X426031Y970773D01*
X426540Y970691D01*
X427047Y970596D01*
X427551Y970490D01*
X428053Y970371D01*
X428551Y970239D01*
X429046Y970096D01*
X429537Y969940D01*
X430025Y969772D01*
X430508Y969593D01*
X430986Y969401D01*
X431460Y969198D01*
X431929Y968984D01*
X432392Y968758D01*
X432849Y968520D01*
X433301Y968272D01*
X433746Y968012D01*
X434185Y967742D01*
X434617Y967461D01*
X435042Y967169D01*
X435460Y966867D01*
X435870Y966555D01*
X436272Y966233D01*
X436667Y965901D01*
X437053Y965560D01*
X437430Y965209D01*
X437799Y964849D01*
X438159Y964480D01*
X438510Y964103D01*
X438851Y963717D01*
X439183Y963322D01*
X439505Y962920D01*
X439817Y962510D01*
X440119Y962092D01*
X440411Y961667D01*
X440692Y961235D01*
X440962Y960796D01*
X441222Y960351D01*
X441470Y959899D01*
X441708Y959442D01*
X441934Y958979D01*
X442148Y958510D01*
X442351Y958036D01*
X442543Y957558D01*
X442722Y957075D01*
X442890Y956587D01*
X443046Y956096D01*
X443189Y955601D01*
X443321Y955103D01*
X443440Y954601D01*
X443546Y954097D01*
X443641Y953590D01*
X443723Y953081D01*
X443792Y952571D01*
X443849Y952058D01*
X443893Y951545D01*
X443925Y951030D01*
X443944Y950515D01*
X443950Y950000D01*
X443944Y949485D01*
X443925Y948970D01*
X443893Y948455D01*
X443849Y947942D01*
X443792Y947429D01*
X443723Y946919D01*
X443641Y946410D01*
X443546Y945903D01*
X443440Y945399D01*
X443321Y944897D01*
X443189Y944399D01*
X443046Y943904D01*
X442890Y943413D01*
X442722Y942925D01*
X442543Y942442D01*
X442351Y941964D01*
X442148Y941490D01*
X441934Y941021D01*
X441708Y940558D01*
X441470Y940101D01*
X441222Y939649D01*
X440962Y939204D01*
X440692Y938765D01*
X440411Y938333D01*
X440119Y937908D01*
X439817Y937490D01*
X439505Y937080D01*
X439183Y936678D01*
X438851Y936283D01*
X438510Y935897D01*
X438159Y935520D01*
X437799Y935151D01*
X437430Y934791D01*
X437053Y934440D01*
X436667Y934099D01*
X436272Y933767D01*
X435870Y933445D01*
X435460Y933133D01*
X435042Y932831D01*
X434617Y932539D01*
X434185Y932258D01*
X433746Y931988D01*
X433301Y931728D01*
X432849Y931480D01*
X432392Y931242D01*
X431929Y931016D01*
X431460Y930802D01*
X430986Y930599D01*
X430508Y930407D01*
X430025Y930228D01*
X429537Y930060D01*
X429046Y929904D01*
X428551Y929761D01*
X428053Y929629D01*
X427551Y929510D01*
X427047Y929404D01*
X426540Y929309D01*
X426031Y929227D01*
X425521Y929158D01*
X425008Y929101D01*
X424495Y929057D01*
X423980Y929025D01*
X423465Y929006D01*
X422950Y929000D01*
X422435Y929006D01*
X421920Y929025D01*
X421405Y929057D01*
X420892Y929101D01*
X420379Y929158D01*
X419869Y929227D01*
X419360Y929309D01*
X418853Y929404D01*
X418349Y929510D01*
X417847Y929629D01*
X417349Y929761D01*
X416854Y929904D01*
X416363Y930060D01*
X415875Y930228D01*
X415392Y930407D01*
X414914Y930599D01*
X414440Y930802D01*
X413971Y931016D01*
X413508Y931242D01*
X413051Y931480D01*
X412599Y931728D01*
X412154Y931988D01*
X411715Y932258D01*
X411283Y932539D01*
X410858Y932831D01*
X410440Y933133D01*
X410030Y933445D01*
X409628Y933767D01*
X409233Y934099D01*
X408847Y934440D01*
X408470Y934791D01*
X408101Y935151D01*
X407741Y935520D01*
X407390Y935897D01*
X407049Y936283D01*
X406717Y936678D01*
X406395Y937080D01*
X406083Y937490D01*
X405781Y937908D01*
X405489Y938333D01*
X405208Y938765D01*
X404938Y939204D01*
X404678Y939649D01*
X404430Y940101D01*
X404192Y940558D01*
X403966Y941021D01*
X403752Y941490D01*
X403549Y941964D01*
X403357Y942442D01*
X403178Y942925D01*
X403010Y943413D01*
X402854Y943904D01*
X402711Y944399D01*
X402579Y944897D01*
X402460Y945399D01*
X402354Y945903D01*
X402259Y946410D01*
X402177Y946919D01*
X402108Y947429D01*
X402051Y947942D01*
X402007Y948455D01*
X401975Y948970D01*
X401956Y949485D01*
X401950Y950000D01*
X31950Y950000D02*
X31956Y950515D01*
X31975Y951030D01*
X32007Y951545D01*
X32051Y952058D01*
X32108Y952571D01*
X32177Y953081D01*
X32259Y953590D01*
X32354Y954097D01*
X32460Y954601D01*
X32579Y955103D01*
X32711Y955601D01*
X32854Y956096D01*
X33010Y956587D01*
X33178Y957075D01*
X33357Y957558D01*
X33549Y958036D01*
X33752Y958510D01*
X33966Y958979D01*
X34192Y959442D01*
X34430Y959899D01*
X34678Y960351D01*
X34938Y960796D01*
X35208Y961235D01*
X35489Y961667D01*
X35781Y962092D01*
X36083Y962510D01*
X36395Y962920D01*
X36717Y963322D01*
X37049Y963717D01*
X37390Y964103D01*
X37741Y964480D01*
X38101Y964849D01*
X38470Y965209D01*
X38847Y965560D01*
X39233Y965901D01*
X39628Y966233D01*
X40030Y966555D01*
X40440Y966867D01*
X40858Y967169D01*
X41283Y967461D01*
X41715Y967742D01*
X42154Y968012D01*
X42599Y968272D01*
X43051Y968520D01*
X43508Y968758D01*
X43971Y968984D01*
X44440Y969198D01*
X44914Y969401D01*
X45392Y969593D01*
X45875Y969772D01*
X46363Y969940D01*
X46854Y970096D01*
X47349Y970239D01*
X47847Y970371D01*
X48349Y970490D01*
X48853Y970596D01*
X49360Y970691D01*
X49869Y970773D01*
X50379Y970842D01*
X50892Y970899D01*
X51405Y970943D01*
X51920Y970975D01*
X52435Y970994D01*
X52950Y971000D01*
X53465Y970994D01*
X53980Y970975D01*
X54495Y970943D01*
X55008Y970899D01*
X55521Y970842D01*
X56031Y970773D01*
X56540Y970691D01*
X57047Y970596D01*
X57551Y970490D01*
X58053Y970371D01*
X58551Y970239D01*
X59046Y970096D01*
X59537Y969940D01*
X60025Y969772D01*
X60508Y969593D01*
X60986Y969401D01*
X61460Y969198D01*
X61929Y968984D01*
X62392Y968758D01*
X62849Y968520D01*
X63301Y968272D01*
X63746Y968012D01*
X64185Y967742D01*
X64617Y967461D01*
X65042Y967169D01*
X65460Y966867D01*
X65870Y966555D01*
X66272Y966233D01*
X66667Y965901D01*
X67053Y965560D01*
X67430Y965209D01*
X67799Y964849D01*
X68159Y964480D01*
X68510Y964103D01*
X68851Y963717D01*
X69183Y963322D01*
X69505Y962920D01*
X69817Y962510D01*
X70119Y962092D01*
X70411Y961667D01*
X70692Y961235D01*
X70962Y960796D01*
X71222Y960351D01*
X71470Y959899D01*
X71708Y959442D01*
X71934Y958979D01*
X72148Y958510D01*
X72351Y958036D01*
X72543Y957558D01*
X72722Y957075D01*
X72890Y956587D01*
X73046Y956096D01*
X73189Y955601D01*
X73321Y955103D01*
X73440Y954601D01*
X73546Y954097D01*
X73641Y953590D01*
X73723Y953081D01*
X73792Y952571D01*
X73849Y952058D01*
X73893Y951545D01*
X73925Y951030D01*
X73944Y950515D01*
X73950Y950000D01*
X73944Y949485D01*
X73925Y948970D01*
X73893Y948455D01*
X73849Y947942D01*
X73792Y947429D01*
X73723Y946919D01*
X73641Y946410D01*
X73546Y945903D01*
X73440Y945399D01*
X73321Y944897D01*
X73189Y944399D01*
X73046Y943904D01*
X72890Y943413D01*
X72722Y942925D01*
X72543Y942442D01*
X72351Y941964D01*
X72148Y941490D01*
X71934Y941021D01*
X71708Y940558D01*
X71470Y940101D01*
X71222Y939649D01*
X70962Y939204D01*
X70692Y938765D01*
X70411Y938333D01*
X70119Y937908D01*
X69817Y937490D01*
X69505Y937080D01*
X69183Y936678D01*
X68851Y936283D01*
X68510Y935897D01*
X68159Y935520D01*
X67799Y935151D01*
X67430Y934791D01*
X67053Y934440D01*
X66667Y934099D01*
X66272Y933767D01*
X65870Y933445D01*
X65460Y933133D01*
X65042Y932831D01*
X64617Y932539D01*
X64185Y932258D01*
X63746Y931988D01*
X63301Y931728D01*
X62849Y931480D01*
X62392Y931242D01*
X61929Y931016D01*
X61460Y930802D01*
X60986Y930599D01*
X60508Y930407D01*
X60025Y930228D01*
X59537Y930060D01*
X59046Y929904D01*
X58551Y929761D01*
X58053Y929629D01*
X57551Y929510D01*
X57047Y929404D01*
X56540Y929309D01*
X56031Y929227D01*
X55521Y929158D01*
X55008Y929101D01*
X54495Y929057D01*
X53980Y929025D01*
X53465Y929006D01*
X52950Y929000D01*
X52435Y929006D01*
X51920Y929025D01*
X51405Y929057D01*
X50892Y929101D01*
X50379Y929158D01*
X49869Y929227D01*
X49360Y929309D01*
X48853Y929404D01*
X48349Y929510D01*
X47847Y929629D01*
X47349Y929761D01*
X46854Y929904D01*
X46363Y930060D01*
X45875Y930228D01*
X45392Y930407D01*
X44914Y930599D01*
X44440Y930802D01*
X43971Y931016D01*
X43508Y931242D01*
X43051Y931480D01*
X42599Y931728D01*
X42154Y931988D01*
X41715Y932258D01*
X41283Y932539D01*
X40858Y932831D01*
X40440Y933133D01*
X40030Y933445D01*
X39628Y933767D01*
X39233Y934099D01*
X38847Y934440D01*
X38470Y934791D01*
X38101Y935151D01*
X37741Y935520D01*
X37390Y935897D01*
X37049Y936283D01*
X36717Y936678D01*
X36395Y937080D01*
X36083Y937490D01*
X35781Y937908D01*
X35489Y938333D01*
X35208Y938765D01*
X34938Y939204D01*
X34678Y939649D01*
X34430Y940101D01*
X34192Y940558D01*
X33966Y941021D01*
X33752Y941490D01*
X33549Y941964D01*
X33357Y942442D01*
X33178Y942925D01*
X33010Y943413D01*
X32854Y943904D01*
X32711Y944399D01*
X32579Y944897D01*
X32460Y945399D01*
X32354Y945903D01*
X32259Y946410D01*
X32177Y946919D01*
X32108Y947429D01*
X32051Y947942D01*
X32007Y948455D01*
X31975Y948970D01*
X31956Y949485D01*
X31950Y950000D01*
X290769Y223241D02*
X395769Y223241D01*
X283269Y566956D02*
X283287Y568428D01*
X283341Y569900D01*
X283432Y571370D01*
X283558Y572837D01*
X283720Y574301D01*
X283918Y575760D01*
X284152Y577214D01*
X284422Y578661D01*
X284727Y580102D01*
X285067Y581535D01*
X285442Y582959D01*
X285853Y584373D01*
X286297Y585777D01*
X286776Y587169D01*
X287289Y588550D01*
X287836Y589917D01*
X288416Y591270D01*
X289030Y592609D01*
X289676Y593933D01*
X290354Y595240D01*
X291064Y596530D01*
X291805Y597802D01*
X292578Y599056D01*
X293381Y600290D01*
X294214Y601504D01*
X295077Y602698D01*
X295968Y603870D01*
X296888Y605020D01*
X297836Y606146D01*
X298812Y607250D01*
X299814Y608328D01*
X300843Y609382D01*
X301897Y610411D01*
X302975Y611413D01*
X304079Y612389D01*
X305205Y613337D01*
X306355Y614257D01*
X307527Y615148D01*
X308721Y616011D01*
X309935Y616844D01*
X311169Y617647D01*
X312423Y618420D01*
X313695Y619161D01*
X314985Y619871D01*
X316292Y620549D01*
X317616Y621195D01*
X318955Y621809D01*
X320308Y622389D01*
X321675Y622936D01*
X323056Y623449D01*
X324448Y623928D01*
X325852Y624372D01*
X327266Y624783D01*
X328690Y625158D01*
X330123Y625498D01*
X331564Y625803D01*
X333011Y626073D01*
X334465Y626307D01*
X335924Y626505D01*
X337388Y626667D01*
X338855Y626793D01*
X340325Y626884D01*
X341797Y626938D01*
X343269Y626956D01*
X344741Y626938D01*
X346213Y626884D01*
X347683Y626793D01*
X349150Y626667D01*
X350614Y626505D01*
X352073Y626307D01*
X353527Y626073D01*
X354974Y625803D01*
X356415Y625498D01*
X357848Y625158D01*
X359272Y624783D01*
X360686Y624372D01*
X362090Y623928D01*
X363482Y623449D01*
X364863Y622936D01*
X366230Y622389D01*
X367583Y621809D01*
X368922Y621195D01*
X370246Y620549D01*
X371553Y619871D01*
X372843Y619161D01*
X374115Y618420D01*
X375369Y617647D01*
X376603Y616844D01*
X377817Y616011D01*
X379011Y615148D01*
X380183Y614257D01*
X381333Y613337D01*
X382459Y612389D01*
X383563Y611413D01*
X384641Y610411D01*
X385695Y609382D01*
X386724Y608328D01*
X387726Y607250D01*
X388702Y606146D01*
X389650Y605020D01*
X390570Y603870D01*
X391461Y602698D01*
X392324Y601504D01*
X393157Y600290D01*
X393960Y599056D01*
X394733Y597802D01*
X395474Y596530D01*
X396184Y595240D01*
X396862Y593933D01*
X397508Y592609D01*
X398122Y591270D01*
X398702Y589917D01*
X399249Y588550D01*
X399762Y587169D01*
X400241Y585777D01*
X400685Y584373D01*
X401096Y582959D01*
X401471Y581535D01*
X401811Y580102D01*
X402116Y578661D01*
X402386Y577214D01*
X402620Y575760D01*
X402818Y574301D01*
X402980Y572837D01*
X403106Y571370D01*
X403197Y569900D01*
X403251Y568428D01*
X403269Y566956D01*
X403251Y565484D01*
X403197Y564012D01*
X403106Y562542D01*
X402980Y561075D01*
X402818Y559611D01*
X402620Y558152D01*
X402386Y556698D01*
X402116Y555251D01*
X401811Y553810D01*
X401471Y552377D01*
X401096Y550953D01*
X400685Y549539D01*
X400241Y548135D01*
X399762Y546743D01*
X399249Y545362D01*
X398702Y543995D01*
X398122Y542642D01*
X397508Y541303D01*
X396862Y539979D01*
X396184Y538672D01*
X395474Y537382D01*
X394733Y536110D01*
X393960Y534856D01*
X393157Y533622D01*
X392324Y532408D01*
X391461Y531214D01*
X390570Y530042D01*
X389650Y528892D01*
X388702Y527766D01*
X387726Y526662D01*
X386724Y525584D01*
X385695Y524530D01*
X384641Y523501D01*
X383563Y522499D01*
X382459Y521523D01*
X381333Y520575D01*
X380183Y519655D01*
X379011Y518764D01*
X377817Y517901D01*
X376603Y517068D01*
X375369Y516265D01*
X374115Y515492D01*
X372843Y514751D01*
X371553Y514041D01*
X370246Y513363D01*
X368922Y512717D01*
X367583Y512103D01*
X366230Y511523D01*
X364863Y510976D01*
X363482Y510463D01*
X362090Y509984D01*
X360686Y509540D01*
X359272Y509129D01*
X357848Y508754D01*
X356415Y508414D01*
X354974Y508109D01*
X353527Y507839D01*
X352073Y507605D01*
X350614Y507407D01*
X349150Y507245D01*
X347683Y507119D01*
X346213Y507028D01*
X344741Y506974D01*
X343269Y506956D01*
X341797Y506974D01*
X340325Y507028D01*
X338855Y507119D01*
X337388Y507245D01*
X335924Y507407D01*
X334465Y507605D01*
X333011Y507839D01*
X331564Y508109D01*
X330123Y508414D01*
X328690Y508754D01*
X327266Y509129D01*
X325852Y509540D01*
X324448Y509984D01*
X323056Y510463D01*
X321675Y510976D01*
X320308Y511523D01*
X318955Y512103D01*
X317616Y512717D01*
X316292Y513363D01*
X314985Y514041D01*
X313695Y514751D01*
X312423Y515492D01*
X311169Y516265D01*
X309935Y517068D01*
X308721Y517901D01*
X307527Y518764D01*
X306355Y519655D01*
X305205Y520575D01*
X304079Y521523D01*
X302975Y522499D01*
X301897Y523501D01*
X300843Y524530D01*
X299814Y525584D01*
X298812Y526662D01*
X297836Y527766D01*
X296888Y528892D01*
X295968Y530042D01*
X295077Y531214D01*
X294214Y532408D01*
X293381Y533622D01*
X292578Y534856D01*
X291805Y536110D01*
X291064Y537382D01*
X290354Y538672D01*
X289676Y539979D01*
X289030Y541303D01*
X288416Y542642D01*
X287836Y543995D01*
X287289Y545362D01*
X286776Y546743D01*
X286297Y548135D01*
X285853Y549539D01*
X285442Y550953D01*
X285067Y552377D01*
X284727Y553810D01*
X284422Y555251D01*
X284152Y556698D01*
X283918Y558152D01*
X283720Y559611D01*
X283558Y561075D01*
X283432Y562542D01*
X283341Y564012D01*
X283287Y565484D01*
X283269Y566956D01*
X330769Y469241D02*
X330773Y469548D01*
X330784Y469854D01*
X330803Y470161D01*
X330829Y470466D01*
X330863Y470771D01*
X330904Y471075D01*
X330953Y471378D01*
X331009Y471680D01*
X331073Y471980D01*
X331144Y472278D01*
X331222Y472575D01*
X331307Y472870D01*
X331400Y473162D01*
X331500Y473452D01*
X331607Y473740D01*
X331721Y474025D01*
X331841Y474307D01*
X331969Y474585D01*
X332104Y474861D01*
X332245Y475133D01*
X332393Y475402D01*
X332547Y475667D01*
X332708Y475928D01*
X332876Y476186D01*
X333049Y476439D01*
X333229Y476687D01*
X333415Y476931D01*
X333606Y477171D01*
X333804Y477406D01*
X334007Y477635D01*
X334216Y477860D01*
X334430Y478080D01*
X334650Y478294D01*
X334875Y478503D01*
X335104Y478706D01*
X335339Y478904D01*
X335579Y479095D01*
X335823Y479281D01*
X336071Y479461D01*
X336324Y479634D01*
X336582Y479802D01*
X336843Y479963D01*
X337108Y480117D01*
X337377Y480265D01*
X337649Y480406D01*
X337925Y480541D01*
X338203Y480669D01*
X338485Y480789D01*
X338770Y480903D01*
X339058Y481010D01*
X339348Y481110D01*
X339640Y481203D01*
X339935Y481288D01*
X340232Y481366D01*
X340530Y481437D01*
X340830Y481501D01*
X341132Y481557D01*
X341435Y481606D01*
X341739Y481647D01*
X342044Y481681D01*
X342349Y481707D01*
X342656Y481726D01*
X342962Y481737D01*
X343269Y481741D01*
X343576Y481737D01*
X343882Y481726D01*
X344189Y481707D01*
X344494Y481681D01*
X344799Y481647D01*
X345103Y481606D01*
X345406Y481557D01*
X345708Y481501D01*
X346008Y481437D01*
X346306Y481366D01*
X346603Y481288D01*
X346898Y481203D01*
X347190Y481110D01*
X347480Y481010D01*
X347768Y480903D01*
X348053Y480789D01*
X348335Y480669D01*
X348613Y480541D01*
X348889Y480406D01*
X349161Y480265D01*
X349430Y480117D01*
X349695Y479963D01*
X349956Y479802D01*
X350214Y479634D01*
X350467Y479461D01*
X350715Y479281D01*
X350959Y479095D01*
X351199Y478904D01*
X351434Y478706D01*
X351663Y478503D01*
X351888Y478294D01*
X352108Y478080D01*
X352322Y477860D01*
X352531Y477635D01*
X352734Y477406D01*
X352932Y477171D01*
X353123Y476931D01*
X353309Y476687D01*
X353489Y476439D01*
X353662Y476186D01*
X353830Y475928D01*
X353991Y475667D01*
X354145Y475402D01*
X354293Y475133D01*
X354434Y474861D01*
X354569Y474585D01*
X354697Y474307D01*
X354817Y474025D01*
X354931Y473740D01*
X355038Y473452D01*
X355138Y473162D01*
X355231Y472870D01*
X355316Y472575D01*
X355394Y472278D01*
X355465Y471980D01*
X355529Y471680D01*
X355585Y471378D01*
X355634Y471075D01*
X355675Y470771D01*
X355709Y470466D01*
X355735Y470161D01*
X355754Y469854D01*
X355765Y469548D01*
X355769Y469241D01*
X355765Y468934D01*
X355754Y468628D01*
X355735Y468321D01*
X355709Y468016D01*
X355675Y467711D01*
X355634Y467407D01*
X355585Y467104D01*
X355529Y466802D01*
X355465Y466502D01*
X355394Y466204D01*
X355316Y465907D01*
X355231Y465612D01*
X355138Y465320D01*
X355038Y465030D01*
X354931Y464742D01*
X354817Y464457D01*
X354697Y464175D01*
X354569Y463897D01*
X354434Y463621D01*
X354293Y463349D01*
X354145Y463080D01*
X353991Y462815D01*
X353830Y462554D01*
X353662Y462296D01*
X353489Y462043D01*
X353309Y461795D01*
X353123Y461551D01*
X352932Y461311D01*
X352734Y461076D01*
X352531Y460847D01*
X352322Y460622D01*
X352108Y460402D01*
X351888Y460188D01*
X351663Y459979D01*
X351434Y459776D01*
X351199Y459578D01*
X350959Y459387D01*
X350715Y459201D01*
X350467Y459021D01*
X350214Y458848D01*
X349956Y458680D01*
X349695Y458519D01*
X349430Y458365D01*
X349161Y458217D01*
X348889Y458076D01*
X348613Y457941D01*
X348335Y457813D01*
X348053Y457693D01*
X347768Y457579D01*
X347480Y457472D01*
X347190Y457372D01*
X346898Y457279D01*
X346603Y457194D01*
X346306Y457116D01*
X346008Y457045D01*
X345708Y456981D01*
X345406Y456925D01*
X345103Y456876D01*
X344799Y456835D01*
X344494Y456801D01*
X344189Y456775D01*
X343882Y456756D01*
X343576Y456745D01*
X343269Y456741D01*
X342962Y456745D01*
X342656Y456756D01*
X342349Y456775D01*
X342044Y456801D01*
X341739Y456835D01*
X341435Y456876D01*
X341132Y456925D01*
X340830Y456981D01*
X340530Y457045D01*
X340232Y457116D01*
X339935Y457194D01*
X339640Y457279D01*
X339348Y457372D01*
X339058Y457472D01*
X338770Y457579D01*
X338485Y457693D01*
X338203Y457813D01*
X337925Y457941D01*
X337649Y458076D01*
X337377Y458217D01*
X337108Y458365D01*
X336843Y458519D01*
X336582Y458680D01*
X336324Y458848D01*
X336071Y459021D01*
X335823Y459201D01*
X335579Y459387D01*
X335339Y459578D01*
X335104Y459776D01*
X334875Y459979D01*
X334650Y460188D01*
X334430Y460402D01*
X334216Y460622D01*
X334007Y460847D01*
X333804Y461076D01*
X333606Y461311D01*
X333415Y461551D01*
X333229Y461795D01*
X333049Y462043D01*
X332876Y462296D01*
X332708Y462554D01*
X332547Y462815D01*
X332393Y463080D01*
X332245Y463349D01*
X332104Y463621D01*
X331969Y463897D01*
X331841Y464175D01*
X331721Y464457D01*
X331607Y464742D01*
X331500Y465030D01*
X331400Y465320D01*
X331307Y465612D01*
X331222Y465907D01*
X331144Y466204D01*
X331073Y466502D01*
X331009Y466802D01*
X330953Y467104D01*
X330904Y467407D01*
X330863Y467711D01*
X330829Y468016D01*
X330803Y468321D01*
X330784Y468628D01*
X330773Y468934D01*
X330769Y469241D01*
X290769Y451241D02*
X395769Y451241D01*
X163088Y451241D02*
X163099Y452161D01*
X163133Y453081D01*
X163190Y454000D01*
X163269Y454917D01*
X163370Y455831D01*
X163494Y456743D01*
X163640Y457652D01*
X163809Y458557D01*
X163999Y459457D01*
X164212Y460353D01*
X164446Y461243D01*
X164703Y462127D01*
X164981Y463004D01*
X165280Y463874D01*
X165601Y464737D01*
X165943Y465592D01*
X166305Y466438D01*
X166688Y467274D01*
X167092Y468101D01*
X167516Y468918D01*
X167960Y469725D01*
X168423Y470520D01*
X168906Y471303D01*
X169408Y472075D01*
X169929Y472834D01*
X170468Y473580D01*
X171025Y474312D01*
X171600Y475031D01*
X172193Y475735D01*
X172802Y476424D01*
X173429Y477099D01*
X174071Y477758D01*
X174730Y478400D01*
X175405Y479027D01*
X176094Y479636D01*
X176798Y480229D01*
X177517Y480804D01*
X178249Y481361D01*
X178995Y481900D01*
X179754Y482421D01*
X180526Y482923D01*
X181309Y483406D01*
X182104Y483869D01*
X182911Y484313D01*
X183728Y484737D01*
X184555Y485141D01*
X185391Y485524D01*
X186237Y485886D01*
X187092Y486228D01*
X187955Y486549D01*
X188825Y486848D01*
X189702Y487126D01*
X190586Y487383D01*
X191476Y487617D01*
X192372Y487830D01*
X193272Y488020D01*
X194177Y488189D01*
X195086Y488335D01*
X195998Y488459D01*
X196912Y488560D01*
X197829Y488639D01*
X198748Y488696D01*
X199668Y488730D01*
X200588Y488741D01*
X201508Y488730D01*
X202428Y488696D01*
X203347Y488639D01*
X204264Y488560D01*
X205178Y488459D01*
X206090Y488335D01*
X206999Y488189D01*
X207904Y488020D01*
X208804Y487830D01*
X209700Y487617D01*
X210590Y487383D01*
X211474Y487126D01*
X212351Y486848D01*
X213221Y486549D01*
X214084Y486228D01*
X214939Y485886D01*
X215785Y485524D01*
X216621Y485141D01*
X217448Y484737D01*
X218265Y484313D01*
X219072Y483869D01*
X219867Y483406D01*
X220650Y482923D01*
X221422Y482421D01*
X222181Y481900D01*
X222927Y481361D01*
X223659Y480804D01*
X224378Y480229D01*
X225082Y479636D01*
X225771Y479027D01*
X226446Y478400D01*
X227105Y477758D01*
X227747Y477099D01*
X228374Y476424D01*
X228983Y475735D01*
X229576Y475031D01*
X230151Y474312D01*
X230708Y473580D01*
X231247Y472834D01*
X231768Y472075D01*
X232270Y471303D01*
X232753Y470520D01*
X233216Y469725D01*
X233660Y468918D01*
X234084Y468101D01*
X234488Y467274D01*
X234871Y466438D01*
X235233Y465592D01*
X235575Y464737D01*
X235896Y463874D01*
X236195Y463004D01*
X236473Y462127D01*
X236730Y461243D01*
X236964Y460353D01*
X237177Y459457D01*
X237367Y458557D01*
X237536Y457652D01*
X237682Y456743D01*
X237806Y455831D01*
X237907Y454917D01*
X237986Y454000D01*
X238043Y453081D01*
X238077Y452161D01*
X238088Y451241D01*
X238077Y450321D01*
X238043Y449401D01*
X237986Y448482D01*
X237907Y447565D01*
X237806Y446651D01*
X237682Y445739D01*
X237536Y444830D01*
X237367Y443925D01*
X237177Y443025D01*
X236964Y442129D01*
X236730Y441239D01*
X236473Y440355D01*
X236195Y439478D01*
X235896Y438608D01*
X235575Y437745D01*
X235233Y436890D01*
X234871Y436044D01*
X234488Y435208D01*
X234084Y434381D01*
X233660Y433564D01*
X233216Y432757D01*
X232753Y431962D01*
X232270Y431179D01*
X231768Y430407D01*
X231247Y429648D01*
X230708Y428902D01*
X230151Y428170D01*
X229576Y427451D01*
X228983Y426747D01*
X228374Y426058D01*
X227747Y425383D01*
X227105Y424724D01*
X226446Y424082D01*
X225771Y423455D01*
X225082Y422846D01*
X224378Y422253D01*
X223659Y421678D01*
X222927Y421121D01*
X222181Y420582D01*
X221422Y420061D01*
X220650Y419559D01*
X219867Y419076D01*
X219072Y418613D01*
X218265Y418169D01*
X217448Y417745D01*
X216621Y417341D01*
X215785Y416958D01*
X214939Y416596D01*
X214084Y416254D01*
X213221Y415933D01*
X212351Y415634D01*
X211474Y415356D01*
X210590Y415099D01*
X209700Y414865D01*
X208804Y414652D01*
X207904Y414462D01*
X206999Y414293D01*
X206090Y414147D01*
X205178Y414023D01*
X204264Y413922D01*
X203347Y413843D01*
X202428Y413786D01*
X201508Y413752D01*
X200588Y413741D01*
X199668Y413752D01*
X198748Y413786D01*
X197829Y413843D01*
X196912Y413922D01*
X195998Y414023D01*
X195086Y414147D01*
X194177Y414293D01*
X193272Y414462D01*
X192372Y414652D01*
X191476Y414865D01*
X190586Y415099D01*
X189702Y415356D01*
X188825Y415634D01*
X187955Y415933D01*
X187092Y416254D01*
X186237Y416596D01*
X185391Y416958D01*
X184555Y417341D01*
X183728Y417745D01*
X182911Y418169D01*
X182104Y418613D01*
X181309Y419076D01*
X180526Y419559D01*
X179754Y420061D01*
X178995Y420582D01*
X178249Y421121D01*
X177517Y421678D01*
X176798Y422253D01*
X176094Y422846D01*
X175405Y423455D01*
X174730Y424082D01*
X174071Y424724D01*
X173429Y425383D01*
X172802Y426058D01*
X172193Y426747D01*
X171600Y427451D01*
X171025Y428170D01*
X170468Y428902D01*
X169929Y429648D01*
X169408Y430407D01*
X168906Y431179D01*
X168423Y431962D01*
X167960Y432757D01*
X167516Y433564D01*
X167092Y434381D01*
X166688Y435208D01*
X166305Y436044D01*
X165943Y436890D01*
X165601Y437745D01*
X165280Y438608D01*
X164981Y439478D01*
X164703Y440355D01*
X164446Y441239D01*
X164212Y442129D01*
X163999Y443025D01*
X163809Y443925D01*
X163640Y444830D01*
X163494Y445739D01*
X163370Y446651D01*
X163269Y447565D01*
X163190Y448482D01*
X163133Y449401D01*
X163099Y450321D01*
X163088Y451241D01*
D11*
X37075Y275800D03*
X37075Y301200D03*
X37075Y326600D03*
X37075Y352000D03*
X37075Y377400D03*
X37075Y402800D03*
D12*
X328600Y683750D03*
X453600Y683750D03*
X328600Y733750D03*
X453600Y733750D03*
D13*
X353000Y657950D03*
X429200Y759550D03*
D14*
X395800Y663750D02*
X395803Y663971D01*
X395811Y664192D01*
X395824Y664412D01*
X395843Y664632D01*
X395868Y664852D01*
X395897Y665071D01*
X395933Y665289D01*
X395973Y665506D01*
X396019Y665722D01*
X396070Y665937D01*
X396126Y666150D01*
X396188Y666363D01*
X396254Y666573D01*
X396326Y666782D01*
X396403Y666989D01*
X396485Y667194D01*
X396572Y667397D01*
X396664Y667598D01*
X396761Y667797D01*
X396863Y667993D01*
X396969Y668186D01*
X397080Y668377D01*
X397196Y668565D01*
X397317Y668750D01*
X397442Y668932D01*
X397571Y669111D01*
X397705Y669287D01*
X397843Y669460D01*
X397985Y669629D01*
X398131Y669794D01*
X398282Y669956D01*
X398436Y670114D01*
X398594Y670268D01*
X398756Y670419D01*
X398921Y670565D01*
X399090Y670707D01*
X399263Y670845D01*
X399439Y670979D01*
X399618Y671108D01*
X399800Y671233D01*
X399985Y671354D01*
X400173Y671470D01*
X400364Y671581D01*
X400557Y671687D01*
X400753Y671789D01*
X400952Y671886D01*
X401153Y671978D01*
X401356Y672065D01*
X401561Y672147D01*
X401768Y672224D01*
X401977Y672296D01*
X402187Y672362D01*
X402400Y672424D01*
X402613Y672480D01*
X402828Y672531D01*
X403044Y672577D01*
X403261Y672617D01*
X403479Y672653D01*
X403698Y672682D01*
X403918Y672707D01*
X404138Y672726D01*
X404358Y672739D01*
X404579Y672747D01*
X404800Y672750D01*
X405021Y672747D01*
X405242Y672739D01*
X405462Y672726D01*
X405682Y672707D01*
X405902Y672682D01*
X406121Y672653D01*
X406339Y672617D01*
X406556Y672577D01*
X406772Y672531D01*
X406987Y672480D01*
X407200Y672424D01*
X407413Y672362D01*
X407623Y672296D01*
X407832Y672224D01*
X408039Y672147D01*
X408244Y672065D01*
X408447Y671978D01*
X408648Y671886D01*
X408847Y671789D01*
X409043Y671687D01*
X409236Y671581D01*
X409427Y671470D01*
X409615Y671354D01*
X409800Y671233D01*
X409982Y671108D01*
X410161Y670979D01*
X410337Y670845D01*
X410510Y670707D01*
X410679Y670565D01*
X410844Y670419D01*
X411006Y670268D01*
X411164Y670114D01*
X411318Y669956D01*
X411469Y669794D01*
X411615Y669629D01*
X411757Y669460D01*
X411895Y669287D01*
X412029Y669111D01*
X412158Y668932D01*
X412283Y668750D01*
X412404Y668565D01*
X412520Y668377D01*
X412631Y668186D01*
X412737Y667993D01*
X412839Y667797D01*
X412936Y667598D01*
X413028Y667397D01*
X413115Y667194D01*
X413197Y666989D01*
X413274Y666782D01*
X413346Y666573D01*
X413412Y666363D01*
X413474Y666150D01*
X413530Y665937D01*
X413581Y665722D01*
X413627Y665506D01*
X413667Y665289D01*
X413703Y665071D01*
X413732Y664852D01*
X413757Y664632D01*
X413776Y664412D01*
X413789Y664192D01*
X413797Y663971D01*
X413800Y663750D01*
X413797Y663529D01*
X413789Y663308D01*
X413776Y663088D01*
X413757Y662868D01*
X413732Y662648D01*
X413703Y662429D01*
X413667Y662211D01*
X413627Y661994D01*
X413581Y661778D01*
X413530Y661563D01*
X413474Y661350D01*
X413412Y661137D01*
X413346Y660927D01*
X413274Y660718D01*
X413197Y660511D01*
X413115Y660306D01*
X413028Y660103D01*
X412936Y659902D01*
X412839Y659703D01*
X412737Y659507D01*
X412631Y659314D01*
X412520Y659123D01*
X412404Y658935D01*
X412283Y658750D01*
X412158Y658568D01*
X412029Y658389D01*
X411895Y658213D01*
X411757Y658040D01*
X411615Y657871D01*
X411469Y657706D01*
X411318Y657544D01*
X411164Y657386D01*
X411006Y657232D01*
X410844Y657081D01*
X410679Y656935D01*
X410510Y656793D01*
X410337Y656655D01*
X410161Y656521D01*
X409982Y656392D01*
X409800Y656267D01*
X409615Y656146D01*
X409427Y656030D01*
X409236Y655919D01*
X409043Y655813D01*
X408847Y655711D01*
X408648Y655614D01*
X408447Y655522D01*
X408244Y655435D01*
X408039Y655353D01*
X407832Y655276D01*
X407623Y655204D01*
X407413Y655138D01*
X407200Y655076D01*
X406987Y655020D01*
X406772Y654969D01*
X406556Y654923D01*
X406339Y654883D01*
X406121Y654847D01*
X405902Y654818D01*
X405682Y654793D01*
X405462Y654774D01*
X405242Y654761D01*
X405021Y654753D01*
X404800Y654750D01*
X404579Y654753D01*
X404358Y654761D01*
X404138Y654774D01*
X403918Y654793D01*
X403698Y654818D01*
X403479Y654847D01*
X403261Y654883D01*
X403044Y654923D01*
X402828Y654969D01*
X402613Y655020D01*
X402400Y655076D01*
X402187Y655138D01*
X401977Y655204D01*
X401768Y655276D01*
X401561Y655353D01*
X401356Y655435D01*
X401153Y655522D01*
X400952Y655614D01*
X400753Y655711D01*
X400557Y655813D01*
X400364Y655919D01*
X400173Y656030D01*
X399985Y656146D01*
X399800Y656267D01*
X399618Y656392D01*
X399439Y656521D01*
X399263Y656655D01*
X399090Y656793D01*
X398921Y656935D01*
X398756Y657081D01*
X398594Y657232D01*
X398436Y657386D01*
X398282Y657544D01*
X398131Y657706D01*
X397985Y657871D01*
X397843Y658040D01*
X397705Y658213D01*
X397571Y658389D01*
X397442Y658568D01*
X397317Y658750D01*
X397196Y658935D01*
X397080Y659123D01*
X396969Y659314D01*
X396863Y659507D01*
X396761Y659703D01*
X396664Y659902D01*
X396572Y660103D01*
X396485Y660306D01*
X396403Y660511D01*
X396326Y660718D01*
X396254Y660927D01*
X396188Y661137D01*
X396126Y661350D01*
X396070Y661563D01*
X396019Y661778D01*
X395973Y661994D01*
X395933Y662211D01*
X395897Y662429D01*
X395868Y662648D01*
X395843Y662868D01*
X395824Y663088D01*
X395811Y663308D01*
X395803Y663529D01*
X395800Y663750D01*
D12*
X39550Y130850D03*
X39550Y105450D03*
X204650Y524000D03*
X179250Y524000D03*
X54650Y206950D03*
X29250Y206950D03*
X432950Y467300D03*
X432950Y492700D03*
X442950Y322700D03*
X442950Y297300D03*
X42950Y755400D03*
X42950Y730000D03*
X42950Y704600D03*
X42950Y895400D03*
X42950Y870000D03*
X42950Y844600D03*
D15*
X35000Y510600D03*
X35000Y485200D03*
X35000Y459800D03*
X111200Y459800D03*
X111200Y510600D03*
X111200Y485200D03*
D16*
X209950Y587450D03*
X209950Y612850D03*
X184550Y587450D03*
X184550Y612850D03*
X159150Y587450D03*
X159150Y612850D03*
X133750Y587450D03*
X133750Y612850D03*
X108350Y587450D03*
X108350Y612850D03*
X82950Y587450D03*
X82950Y612850D03*
X57550Y587450D03*
X57550Y612850D03*
D12*
X442950Y242700D03*
X442950Y217300D03*
X328660Y827170D03*
X453660Y827170D03*
X328660Y877170D03*
X453660Y877170D03*
D13*
X353060Y801370D03*
X429260Y902970D03*
D14*
X395860Y807170D02*
X395863Y807391D01*
X395871Y807612D01*
X395884Y807832D01*
X395903Y808052D01*
X395928Y808272D01*
X395957Y808491D01*
X395993Y808709D01*
X396033Y808926D01*
X396079Y809142D01*
X396130Y809357D01*
X396186Y809570D01*
X396248Y809783D01*
X396314Y809993D01*
X396386Y810202D01*
X396463Y810409D01*
X396545Y810614D01*
X396632Y810817D01*
X396724Y811018D01*
X396821Y811217D01*
X396923Y811413D01*
X397029Y811606D01*
X397140Y811797D01*
X397256Y811985D01*
X397377Y812170D01*
X397502Y812352D01*
X397631Y812531D01*
X397765Y812707D01*
X397903Y812880D01*
X398045Y813049D01*
X398191Y813214D01*
X398342Y813376D01*
X398496Y813534D01*
X398654Y813688D01*
X398816Y813839D01*
X398981Y813985D01*
X399150Y814127D01*
X399323Y814265D01*
X399499Y814399D01*
X399678Y814528D01*
X399860Y814653D01*
X400045Y814774D01*
X400233Y814890D01*
X400424Y815001D01*
X400617Y815107D01*
X400813Y815209D01*
X401012Y815306D01*
X401213Y815398D01*
X401416Y815485D01*
X401621Y815567D01*
X401828Y815644D01*
X402037Y815716D01*
X402247Y815782D01*
X402460Y815844D01*
X402673Y815900D01*
X402888Y815951D01*
X403104Y815997D01*
X403321Y816037D01*
X403539Y816073D01*
X403758Y816102D01*
X403978Y816127D01*
X404198Y816146D01*
X404418Y816159D01*
X404639Y816167D01*
X404860Y816170D01*
X405081Y816167D01*
X405302Y816159D01*
X405522Y816146D01*
X405742Y816127D01*
X405962Y816102D01*
X406181Y816073D01*
X406399Y816037D01*
X406616Y815997D01*
X406832Y815951D01*
X407047Y815900D01*
X407260Y815844D01*
X407473Y815782D01*
X407683Y815716D01*
X407892Y815644D01*
X408099Y815567D01*
X408304Y815485D01*
X408507Y815398D01*
X408708Y815306D01*
X408907Y815209D01*
X409103Y815107D01*
X409296Y815001D01*
X409487Y814890D01*
X409675Y814774D01*
X409860Y814653D01*
X410042Y814528D01*
X410221Y814399D01*
X410397Y814265D01*
X410570Y814127D01*
X410739Y813985D01*
X410904Y813839D01*
X411066Y813688D01*
X411224Y813534D01*
X411378Y813376D01*
X411529Y813214D01*
X411675Y813049D01*
X411817Y812880D01*
X411955Y812707D01*
X412089Y812531D01*
X412218Y812352D01*
X412343Y812170D01*
X412464Y811985D01*
X412580Y811797D01*
X412691Y811606D01*
X412797Y811413D01*
X412899Y811217D01*
X412996Y811018D01*
X413088Y810817D01*
X413175Y810614D01*
X413257Y810409D01*
X413334Y810202D01*
X413406Y809993D01*
X413472Y809783D01*
X413534Y809570D01*
X413590Y809357D01*
X413641Y809142D01*
X413687Y808926D01*
X413727Y808709D01*
X413763Y808491D01*
X413792Y808272D01*
X413817Y808052D01*
X413836Y807832D01*
X413849Y807612D01*
X413857Y807391D01*
X413860Y807170D01*
X413857Y806949D01*
X413849Y806728D01*
X413836Y806508D01*
X413817Y806288D01*
X413792Y806068D01*
X413763Y805849D01*
X413727Y805631D01*
X413687Y805414D01*
X413641Y805198D01*
X413590Y804983D01*
X413534Y804770D01*
X413472Y804557D01*
X413406Y804347D01*
X413334Y804138D01*
X413257Y803931D01*
X413175Y803726D01*
X413088Y803523D01*
X412996Y803322D01*
X412899Y803123D01*
X412797Y802927D01*
X412691Y802734D01*
X412580Y802543D01*
X412464Y802355D01*
X412343Y802170D01*
X412218Y801988D01*
X412089Y801809D01*
X411955Y801633D01*
X411817Y801460D01*
X411675Y801291D01*
X411529Y801126D01*
X411378Y800964D01*
X411224Y800806D01*
X411066Y800652D01*
X410904Y800501D01*
X410739Y800355D01*
X410570Y800213D01*
X410397Y800075D01*
X410221Y799941D01*
X410042Y799812D01*
X409860Y799687D01*
X409675Y799566D01*
X409487Y799450D01*
X409296Y799339D01*
X409103Y799233D01*
X408907Y799131D01*
X408708Y799034D01*
X408507Y798942D01*
X408304Y798855D01*
X408099Y798773D01*
X407892Y798696D01*
X407683Y798624D01*
X407473Y798558D01*
X407260Y798496D01*
X407047Y798440D01*
X406832Y798389D01*
X406616Y798343D01*
X406399Y798303D01*
X406181Y798267D01*
X405962Y798238D01*
X405742Y798213D01*
X405522Y798194D01*
X405302Y798181D01*
X405081Y798173D01*
X404860Y798170D01*
X404639Y798173D01*
X404418Y798181D01*
X404198Y798194D01*
X403978Y798213D01*
X403758Y798238D01*
X403539Y798267D01*
X403321Y798303D01*
X403104Y798343D01*
X402888Y798389D01*
X402673Y798440D01*
X402460Y798496D01*
X402247Y798558D01*
X402037Y798624D01*
X401828Y798696D01*
X401621Y798773D01*
X401416Y798855D01*
X401213Y798942D01*
X401012Y799034D01*
X400813Y799131D01*
X400617Y799233D01*
X400424Y799339D01*
X400233Y799450D01*
X400045Y799566D01*
X399860Y799687D01*
X399678Y799812D01*
X399499Y799941D01*
X399323Y800075D01*
X399150Y800213D01*
X398981Y800355D01*
X398816Y800501D01*
X398654Y800652D01*
X398496Y800806D01*
X398342Y800964D01*
X398191Y801126D01*
X398045Y801291D01*
X397903Y801460D01*
X397765Y801633D01*
X397631Y801809D01*
X397502Y801988D01*
X397377Y802170D01*
X397256Y802355D01*
X397140Y802543D01*
X397029Y802734D01*
X396923Y802927D01*
X396821Y803123D01*
X396724Y803322D01*
X396632Y803523D01*
X396545Y803726D01*
X396463Y803931D01*
X396386Y804138D01*
X396314Y804347D01*
X396248Y804557D01*
X396186Y804770D01*
X396130Y804983D01*
X396079Y805198D01*
X396033Y805414D01*
X395993Y805631D01*
X395957Y805849D01*
X395928Y806068D01*
X395903Y806288D01*
X395884Y806508D01*
X395871Y806728D01*
X395863Y806949D01*
X395860Y807170D01*
D17*
X302668Y485323D03*
X263753Y517976D03*
D18*
X328600Y683750D02*
X394830Y683750D01*
X396022Y684942D01*
X413578Y684942D01*
X414770Y683750D01*
X453600Y683750D01*
D19*
X438150Y638150D03*
X88900Y800500D03*
X82550Y660400D03*
X452450Y127000D03*
X140861Y767189D03*
D18*
X151638Y620362D02*
X159150Y612850D01*
X151638Y620362D02*
X151638Y624615D01*
X140861Y635391D01*
X140861Y767189D01*
D19*
X101600Y635000D03*
D18*
X133350Y635000D01*
X146050Y622300D01*
X146050Y596900D01*
X155500Y587450D01*
X159150Y587450D01*
D20*
X89550Y565150D02*
X35000Y510600D01*
X111450Y565150D02*
X133750Y587450D01*
X111450Y565150D02*
X89550Y565150D01*
D19*
X260350Y412750D03*
D20*
X260350Y501650D01*
X196850Y600550D02*
X184550Y612850D01*
X196850Y565150D02*
X260350Y501650D01*
X196850Y565150D02*
X196850Y600550D01*
D18*
X387461Y467300D02*
X432950Y467300D01*
X387461Y467300D02*
X360824Y493938D01*
D19*
X256300Y565150D03*
D18*
X268232Y553219D01*
X268232Y535875D01*
X302668Y501439D02*
X302668Y485323D01*
X302668Y501439D02*
X268232Y535875D01*
X311282Y493938D02*
X360824Y493938D01*
X311282Y493938D02*
X302668Y485323D01*
X42950Y730000D02*
X25400Y730000D01*
X25400Y870000D02*
X42950Y870000D01*
X25400Y870000D02*
X19050Y863650D01*
X19050Y736350D02*
X25400Y730000D01*
X19050Y736350D02*
X19050Y863650D01*
X41200Y612850D02*
X57550Y612850D01*
X41200Y612850D02*
X19050Y635000D01*
X19050Y723900D01*
X25150Y730000D01*
X25400Y730000D01*
D20*
X279080Y324171D02*
X279080Y218399D01*
X431759Y242700D02*
X442950Y242700D01*
X431759Y242700D02*
X370110Y181052D01*
X316427Y181052D01*
X279080Y218399D01*
X67250Y459800D02*
X35000Y459800D01*
X203200Y400050D02*
X279080Y324171D01*
X203200Y400050D02*
X127000Y400050D01*
X67250Y459800D01*
D18*
X35000Y459800D02*
X19050Y475750D01*
X19050Y590700D02*
X41200Y612850D01*
X19050Y590700D02*
X19050Y475750D01*
X82950Y612850D02*
X82950Y648100D01*
X107950Y673100D01*
X323460Y738890D02*
X323460Y771645D01*
X323460Y738890D02*
X328600Y733750D01*
X323460Y771645D02*
X275955Y819150D01*
X107950Y744655D02*
X107950Y673100D01*
X107950Y744655D02*
X182445Y819150D01*
X275955Y819150D01*
X209950Y587450D02*
X209950Y564750D01*
X256724Y517976D02*
X263753Y517976D01*
X256724Y517976D02*
X209950Y564750D01*
M02*
