G04 EAGLE Gerber X2 export*
%TF.Part,Single*%
%TF.FileFunction,Other,Silk bottom*%
%TF.FilePolarity,Positive*%
%TF.GenerationSoftware,Autodesk,EAGLE,9.4.0*%
%TF.CreationDate,2019-06-23T01:53:00Z*%
G75*
%MOMM*%
%FSLAX34Y34*%
%LPD*%
%INSilk bottom*%
%AMOC8*
5,1,8,0,0,1.08239X$1,22.5*%
G01*
%ADD10C,0.076200*%
%ADD11C,0.050000*%
%ADD12C,0.152400*%
%ADD13R,1.400000X0.650000*%
%ADD14C,0.000000*%
%ADD15R,0.584200X0.457200*%
%ADD16R,1.422400X0.355600*%
%ADD17C,0.127000*%
%ADD18C,0.101600*%
%ADD19C,0.050800*%
%ADD20R,0.508000X0.508000*%
%ADD21C,0.177800*%
%ADD22R,0.457200X0.584200*%
%ADD23R,0.355600X1.422400*%
%ADD24R,0.650000X1.400000*%
%ADD25C,0.203200*%


D10*
X20842Y810853D02*
X20842Y812419D01*
X15621Y812419D01*
X15621Y809286D01*
X15623Y809197D01*
X15629Y809109D01*
X15638Y809021D01*
X15651Y808933D01*
X15668Y808846D01*
X15688Y808760D01*
X15713Y808675D01*
X15740Y808590D01*
X15772Y808507D01*
X15806Y808426D01*
X15845Y808346D01*
X15886Y808268D01*
X15931Y808191D01*
X15979Y808117D01*
X16030Y808044D01*
X16084Y807974D01*
X16142Y807907D01*
X16202Y807841D01*
X16264Y807779D01*
X16330Y807719D01*
X16397Y807661D01*
X16467Y807607D01*
X16540Y807556D01*
X16614Y807508D01*
X16691Y807463D01*
X16769Y807422D01*
X16849Y807383D01*
X16930Y807349D01*
X17013Y807317D01*
X17098Y807290D01*
X17183Y807265D01*
X17269Y807245D01*
X17356Y807228D01*
X17444Y807215D01*
X17532Y807206D01*
X17620Y807200D01*
X17709Y807198D01*
X22931Y807198D01*
X23022Y807200D01*
X23113Y807206D01*
X23204Y807216D01*
X23294Y807230D01*
X23383Y807247D01*
X23471Y807269D01*
X23559Y807295D01*
X23645Y807324D01*
X23730Y807357D01*
X23813Y807394D01*
X23895Y807434D01*
X23975Y807478D01*
X24053Y807525D01*
X24129Y807576D01*
X24202Y807629D01*
X24273Y807686D01*
X24342Y807747D01*
X24407Y807810D01*
X24470Y807875D01*
X24530Y807944D01*
X24588Y808015D01*
X24641Y808088D01*
X24692Y808164D01*
X24739Y808242D01*
X24783Y808322D01*
X24823Y808404D01*
X24860Y808487D01*
X24893Y808572D01*
X24922Y808658D01*
X24948Y808746D01*
X24970Y808834D01*
X24987Y808923D01*
X25001Y809013D01*
X25011Y809104D01*
X25017Y809195D01*
X25019Y809286D01*
X25019Y812419D01*
X20842Y672719D02*
X20842Y671153D01*
X20842Y672719D02*
X15621Y672719D01*
X15621Y669586D01*
X15623Y669497D01*
X15629Y669409D01*
X15638Y669321D01*
X15651Y669233D01*
X15668Y669146D01*
X15688Y669060D01*
X15713Y668975D01*
X15740Y668890D01*
X15772Y668807D01*
X15806Y668726D01*
X15845Y668646D01*
X15886Y668568D01*
X15931Y668491D01*
X15979Y668417D01*
X16030Y668344D01*
X16084Y668274D01*
X16142Y668207D01*
X16202Y668141D01*
X16264Y668079D01*
X16330Y668019D01*
X16397Y667961D01*
X16467Y667907D01*
X16540Y667856D01*
X16614Y667808D01*
X16691Y667763D01*
X16769Y667722D01*
X16849Y667683D01*
X16930Y667649D01*
X17013Y667617D01*
X17098Y667590D01*
X17183Y667565D01*
X17269Y667545D01*
X17356Y667528D01*
X17444Y667515D01*
X17532Y667506D01*
X17620Y667500D01*
X17709Y667498D01*
X22931Y667498D01*
X23022Y667500D01*
X23113Y667506D01*
X23204Y667516D01*
X23294Y667530D01*
X23383Y667547D01*
X23471Y667569D01*
X23559Y667595D01*
X23645Y667624D01*
X23730Y667657D01*
X23813Y667694D01*
X23895Y667734D01*
X23975Y667778D01*
X24053Y667825D01*
X24129Y667876D01*
X24202Y667929D01*
X24273Y667986D01*
X24342Y668047D01*
X24407Y668110D01*
X24470Y668175D01*
X24530Y668244D01*
X24588Y668315D01*
X24641Y668388D01*
X24692Y668464D01*
X24739Y668542D01*
X24783Y668622D01*
X24823Y668704D01*
X24860Y668787D01*
X24893Y668872D01*
X24922Y668958D01*
X24948Y669046D01*
X24970Y669134D01*
X24987Y669223D01*
X25001Y669313D01*
X25011Y669404D01*
X25017Y669495D01*
X25019Y669586D01*
X25019Y672719D01*
X171831Y490742D02*
X173397Y490742D01*
X171831Y490742D02*
X171831Y485521D01*
X174964Y485521D01*
X175053Y485523D01*
X175141Y485529D01*
X175229Y485538D01*
X175317Y485551D01*
X175404Y485568D01*
X175490Y485588D01*
X175575Y485613D01*
X175660Y485640D01*
X175743Y485672D01*
X175824Y485706D01*
X175904Y485745D01*
X175982Y485786D01*
X176059Y485831D01*
X176133Y485879D01*
X176206Y485930D01*
X176276Y485984D01*
X176343Y486042D01*
X176409Y486102D01*
X176471Y486164D01*
X176531Y486230D01*
X176589Y486297D01*
X176643Y486367D01*
X176694Y486440D01*
X176742Y486514D01*
X176787Y486591D01*
X176828Y486669D01*
X176867Y486749D01*
X176901Y486830D01*
X176933Y486913D01*
X176960Y486998D01*
X176985Y487083D01*
X177005Y487169D01*
X177022Y487256D01*
X177035Y487344D01*
X177044Y487432D01*
X177050Y487520D01*
X177052Y487609D01*
X177052Y492831D01*
X177050Y492920D01*
X177044Y493008D01*
X177035Y493096D01*
X177022Y493184D01*
X177005Y493271D01*
X176985Y493357D01*
X176960Y493442D01*
X176933Y493527D01*
X176901Y493610D01*
X176867Y493691D01*
X176828Y493771D01*
X176787Y493849D01*
X176742Y493926D01*
X176694Y494000D01*
X176643Y494073D01*
X176589Y494143D01*
X176531Y494210D01*
X176471Y494276D01*
X176409Y494338D01*
X176343Y494398D01*
X176276Y494456D01*
X176206Y494510D01*
X176133Y494561D01*
X176059Y494609D01*
X175982Y494654D01*
X175904Y494695D01*
X175824Y494734D01*
X175743Y494768D01*
X175660Y494800D01*
X175575Y494827D01*
X175490Y494852D01*
X175404Y494872D01*
X175317Y494889D01*
X175229Y494902D01*
X175141Y494911D01*
X175053Y494917D01*
X174964Y494919D01*
X171831Y494919D01*
X20997Y173242D02*
X19431Y173242D01*
X19431Y168021D01*
X22564Y168021D01*
X22653Y168023D01*
X22741Y168029D01*
X22829Y168038D01*
X22917Y168051D01*
X23004Y168068D01*
X23090Y168088D01*
X23175Y168113D01*
X23260Y168140D01*
X23343Y168172D01*
X23424Y168206D01*
X23504Y168245D01*
X23582Y168286D01*
X23659Y168331D01*
X23733Y168379D01*
X23806Y168430D01*
X23876Y168484D01*
X23943Y168542D01*
X24009Y168602D01*
X24071Y168664D01*
X24131Y168730D01*
X24189Y168797D01*
X24243Y168867D01*
X24294Y168940D01*
X24342Y169014D01*
X24387Y169091D01*
X24428Y169169D01*
X24467Y169249D01*
X24501Y169330D01*
X24533Y169413D01*
X24560Y169498D01*
X24585Y169583D01*
X24605Y169669D01*
X24622Y169756D01*
X24635Y169844D01*
X24644Y169932D01*
X24650Y170020D01*
X24652Y170109D01*
X24652Y175331D01*
X24650Y175420D01*
X24644Y175508D01*
X24635Y175596D01*
X24622Y175684D01*
X24605Y175771D01*
X24585Y175857D01*
X24560Y175942D01*
X24533Y176027D01*
X24501Y176110D01*
X24467Y176191D01*
X24428Y176271D01*
X24387Y176349D01*
X24342Y176426D01*
X24294Y176500D01*
X24243Y176573D01*
X24189Y176643D01*
X24131Y176710D01*
X24071Y176776D01*
X24009Y176838D01*
X23943Y176898D01*
X23876Y176956D01*
X23806Y177010D01*
X23733Y177061D01*
X23659Y177109D01*
X23582Y177154D01*
X23504Y177195D01*
X23424Y177234D01*
X23343Y177268D01*
X23260Y177300D01*
X23175Y177327D01*
X23090Y177352D01*
X23004Y177372D01*
X22917Y177389D01*
X22829Y177402D01*
X22741Y177411D01*
X22653Y177417D01*
X22564Y177419D01*
X19431Y177419D01*
X57898Y72164D02*
X57898Y70598D01*
X63119Y70598D01*
X63119Y73731D01*
X63117Y73820D01*
X63111Y73908D01*
X63102Y73996D01*
X63089Y74084D01*
X63072Y74171D01*
X63052Y74257D01*
X63027Y74342D01*
X63000Y74427D01*
X62968Y74510D01*
X62934Y74591D01*
X62895Y74671D01*
X62854Y74749D01*
X62809Y74826D01*
X62761Y74900D01*
X62710Y74973D01*
X62656Y75043D01*
X62598Y75110D01*
X62538Y75176D01*
X62476Y75238D01*
X62410Y75298D01*
X62343Y75356D01*
X62273Y75410D01*
X62200Y75461D01*
X62126Y75509D01*
X62049Y75554D01*
X61971Y75595D01*
X61891Y75634D01*
X61810Y75668D01*
X61727Y75700D01*
X61642Y75727D01*
X61557Y75752D01*
X61471Y75772D01*
X61384Y75789D01*
X61296Y75802D01*
X61208Y75811D01*
X61120Y75817D01*
X61031Y75819D01*
X55809Y75819D01*
X55809Y75820D02*
X55718Y75818D01*
X55627Y75812D01*
X55536Y75802D01*
X55446Y75788D01*
X55357Y75770D01*
X55268Y75749D01*
X55181Y75723D01*
X55095Y75694D01*
X55010Y75661D01*
X54926Y75624D01*
X54844Y75584D01*
X54765Y75540D01*
X54687Y75493D01*
X54611Y75442D01*
X54537Y75388D01*
X54466Y75331D01*
X54398Y75271D01*
X54332Y75208D01*
X54269Y75142D01*
X54209Y75074D01*
X54152Y75003D01*
X54098Y74929D01*
X54047Y74853D01*
X54000Y74776D01*
X53956Y74696D01*
X53916Y74614D01*
X53879Y74530D01*
X53846Y74446D01*
X53817Y74359D01*
X53791Y74272D01*
X53770Y74183D01*
X53752Y74094D01*
X53738Y74004D01*
X53728Y73913D01*
X53722Y73822D01*
X53720Y73731D01*
X53721Y73731D02*
X53721Y70598D01*
X414542Y271103D02*
X414542Y272669D01*
X409321Y272669D01*
X409321Y269536D01*
X409323Y269447D01*
X409329Y269359D01*
X409338Y269271D01*
X409351Y269183D01*
X409368Y269096D01*
X409388Y269010D01*
X409413Y268925D01*
X409440Y268840D01*
X409472Y268757D01*
X409506Y268676D01*
X409545Y268596D01*
X409586Y268518D01*
X409631Y268441D01*
X409679Y268367D01*
X409730Y268294D01*
X409784Y268224D01*
X409842Y268157D01*
X409902Y268091D01*
X409964Y268029D01*
X410030Y267969D01*
X410097Y267911D01*
X410167Y267857D01*
X410240Y267806D01*
X410314Y267758D01*
X410391Y267713D01*
X410469Y267672D01*
X410549Y267633D01*
X410630Y267599D01*
X410713Y267567D01*
X410798Y267540D01*
X410883Y267515D01*
X410969Y267495D01*
X411056Y267478D01*
X411144Y267465D01*
X411232Y267456D01*
X411320Y267450D01*
X411409Y267448D01*
X416631Y267448D01*
X416722Y267450D01*
X416813Y267456D01*
X416904Y267466D01*
X416994Y267480D01*
X417083Y267497D01*
X417171Y267519D01*
X417259Y267545D01*
X417345Y267574D01*
X417430Y267607D01*
X417513Y267644D01*
X417595Y267684D01*
X417675Y267728D01*
X417753Y267775D01*
X417829Y267826D01*
X417902Y267879D01*
X417973Y267936D01*
X418042Y267997D01*
X418107Y268060D01*
X418170Y268125D01*
X418230Y268194D01*
X418288Y268265D01*
X418341Y268338D01*
X418392Y268414D01*
X418439Y268492D01*
X418483Y268572D01*
X418523Y268654D01*
X418560Y268737D01*
X418593Y268822D01*
X418622Y268908D01*
X418648Y268996D01*
X418670Y269084D01*
X418687Y269173D01*
X418701Y269263D01*
X418711Y269354D01*
X418717Y269445D01*
X418719Y269536D01*
X418719Y272669D01*
D11*
X290769Y223241D02*
X290769Y451241D01*
X395769Y451241D02*
X395769Y223241D01*
X472950Y0D02*
X2950Y0D01*
X472950Y0D02*
X472950Y1000000D01*
X2950Y1000000D01*
X2950Y0D01*
X88069Y297835D02*
X88092Y299676D01*
X88159Y301515D01*
X88272Y303352D01*
X88430Y305186D01*
X88633Y307016D01*
X88881Y308840D01*
X89173Y310657D01*
X89510Y312467D01*
X89891Y314268D01*
X90317Y316059D01*
X90786Y317838D01*
X91298Y319606D01*
X91854Y321361D01*
X92453Y323102D01*
X93095Y324827D01*
X93778Y326536D01*
X94503Y328228D01*
X95270Y329902D01*
X96077Y331556D01*
X96925Y333190D01*
X97812Y334802D01*
X98739Y336393D01*
X99705Y337960D01*
X100709Y339503D01*
X101750Y341021D01*
X102828Y342512D01*
X103943Y343977D01*
X105093Y345414D01*
X106278Y346823D01*
X107498Y348202D01*
X108750Y349551D01*
X110036Y350868D01*
X111353Y352154D01*
X112702Y353406D01*
X114081Y354626D01*
X115490Y355811D01*
X116927Y356961D01*
X118392Y358076D01*
X119883Y359154D01*
X121401Y360195D01*
X122944Y361199D01*
X124511Y362165D01*
X126102Y363092D01*
X127714Y363979D01*
X129348Y364827D01*
X131002Y365634D01*
X132676Y366401D01*
X134368Y367126D01*
X136077Y367809D01*
X137802Y368451D01*
X139543Y369050D01*
X141298Y369606D01*
X143066Y370118D01*
X144845Y370587D01*
X146636Y371013D01*
X148437Y371394D01*
X150247Y371731D01*
X152064Y372023D01*
X153888Y372271D01*
X155718Y372474D01*
X157552Y372632D01*
X159389Y372745D01*
X161228Y372812D01*
X163069Y372835D01*
X164910Y372812D01*
X166749Y372745D01*
X168586Y372632D01*
X170420Y372474D01*
X172250Y372271D01*
X174074Y372023D01*
X175891Y371731D01*
X177701Y371394D01*
X179502Y371013D01*
X181293Y370587D01*
X183072Y370118D01*
X184840Y369606D01*
X186595Y369050D01*
X188336Y368451D01*
X190061Y367809D01*
X191770Y367126D01*
X193462Y366401D01*
X195136Y365634D01*
X196790Y364827D01*
X198424Y363979D01*
X200036Y363092D01*
X201627Y362165D01*
X203194Y361199D01*
X204737Y360195D01*
X206255Y359154D01*
X207746Y358076D01*
X209211Y356961D01*
X210648Y355811D01*
X212057Y354626D01*
X213436Y353406D01*
X214785Y352154D01*
X216102Y350868D01*
X217388Y349551D01*
X218640Y348202D01*
X219860Y346823D01*
X221045Y345414D01*
X222195Y343977D01*
X223310Y342512D01*
X224388Y341021D01*
X225429Y339503D01*
X226433Y337960D01*
X227399Y336393D01*
X228326Y334802D01*
X229213Y333190D01*
X230061Y331556D01*
X230868Y329902D01*
X231635Y328228D01*
X232360Y326536D01*
X233043Y324827D01*
X233685Y323102D01*
X234284Y321361D01*
X234840Y319606D01*
X235352Y317838D01*
X235821Y316059D01*
X236247Y314268D01*
X236628Y312467D01*
X236965Y310657D01*
X237257Y308840D01*
X237505Y307016D01*
X237708Y305186D01*
X237866Y303352D01*
X237979Y301515D01*
X238046Y299676D01*
X238069Y297835D01*
X238046Y295994D01*
X237979Y294155D01*
X237866Y292318D01*
X237708Y290484D01*
X237505Y288654D01*
X237257Y286830D01*
X236965Y285013D01*
X236628Y283203D01*
X236247Y281402D01*
X235821Y279611D01*
X235352Y277832D01*
X234840Y276064D01*
X234284Y274309D01*
X233685Y272568D01*
X233043Y270843D01*
X232360Y269134D01*
X231635Y267442D01*
X230868Y265768D01*
X230061Y264114D01*
X229213Y262480D01*
X228326Y260868D01*
X227399Y259277D01*
X226433Y257710D01*
X225429Y256167D01*
X224388Y254649D01*
X223310Y253158D01*
X222195Y251693D01*
X221045Y250256D01*
X219860Y248847D01*
X218640Y247468D01*
X217388Y246119D01*
X216102Y244802D01*
X214785Y243516D01*
X213436Y242264D01*
X212057Y241044D01*
X210648Y239859D01*
X209211Y238709D01*
X207746Y237594D01*
X206255Y236516D01*
X204737Y235475D01*
X203194Y234471D01*
X201627Y233505D01*
X200036Y232578D01*
X198424Y231691D01*
X196790Y230843D01*
X195136Y230036D01*
X193462Y229269D01*
X191770Y228544D01*
X190061Y227861D01*
X188336Y227219D01*
X186595Y226620D01*
X184840Y226064D01*
X183072Y225552D01*
X181293Y225083D01*
X179502Y224657D01*
X177701Y224276D01*
X175891Y223939D01*
X174074Y223647D01*
X172250Y223399D01*
X170420Y223196D01*
X168586Y223038D01*
X166749Y222925D01*
X164910Y222858D01*
X163069Y222835D01*
X161228Y222858D01*
X159389Y222925D01*
X157552Y223038D01*
X155718Y223196D01*
X153888Y223399D01*
X152064Y223647D01*
X150247Y223939D01*
X148437Y224276D01*
X146636Y224657D01*
X144845Y225083D01*
X143066Y225552D01*
X141298Y226064D01*
X139543Y226620D01*
X137802Y227219D01*
X136077Y227861D01*
X134368Y228544D01*
X132676Y229269D01*
X131002Y230036D01*
X129348Y230843D01*
X127714Y231691D01*
X126102Y232578D01*
X124511Y233505D01*
X122944Y234471D01*
X121401Y235475D01*
X119883Y236516D01*
X118392Y237594D01*
X116927Y238709D01*
X115490Y239859D01*
X114081Y241044D01*
X112702Y242264D01*
X111353Y243516D01*
X110036Y244802D01*
X108750Y246119D01*
X107498Y247468D01*
X106278Y248847D01*
X105093Y250256D01*
X103943Y251693D01*
X102828Y253158D01*
X101750Y254649D01*
X100709Y256167D01*
X99705Y257710D01*
X98739Y259277D01*
X97812Y260868D01*
X96925Y262480D01*
X96077Y264114D01*
X95270Y265768D01*
X94503Y267442D01*
X93778Y269134D01*
X93095Y270843D01*
X92453Y272568D01*
X91854Y274309D01*
X91298Y276064D01*
X90786Y277832D01*
X90317Y279611D01*
X89891Y281402D01*
X89510Y283203D01*
X89173Y285013D01*
X88881Y286830D01*
X88633Y288654D01*
X88430Y290484D01*
X88272Y292318D01*
X88159Y294155D01*
X88092Y295994D01*
X88069Y297835D01*
X330769Y205241D02*
X330773Y205548D01*
X330784Y205854D01*
X330803Y206161D01*
X330829Y206466D01*
X330863Y206771D01*
X330904Y207075D01*
X330953Y207378D01*
X331009Y207680D01*
X331073Y207980D01*
X331144Y208278D01*
X331222Y208575D01*
X331307Y208870D01*
X331400Y209162D01*
X331500Y209452D01*
X331607Y209740D01*
X331721Y210025D01*
X331841Y210307D01*
X331969Y210585D01*
X332104Y210861D01*
X332245Y211133D01*
X332393Y211402D01*
X332547Y211667D01*
X332708Y211928D01*
X332876Y212186D01*
X333049Y212439D01*
X333229Y212687D01*
X333415Y212931D01*
X333606Y213171D01*
X333804Y213406D01*
X334007Y213635D01*
X334216Y213860D01*
X334430Y214080D01*
X334650Y214294D01*
X334875Y214503D01*
X335104Y214706D01*
X335339Y214904D01*
X335579Y215095D01*
X335823Y215281D01*
X336071Y215461D01*
X336324Y215634D01*
X336582Y215802D01*
X336843Y215963D01*
X337108Y216117D01*
X337377Y216265D01*
X337649Y216406D01*
X337925Y216541D01*
X338203Y216669D01*
X338485Y216789D01*
X338770Y216903D01*
X339058Y217010D01*
X339348Y217110D01*
X339640Y217203D01*
X339935Y217288D01*
X340232Y217366D01*
X340530Y217437D01*
X340830Y217501D01*
X341132Y217557D01*
X341435Y217606D01*
X341739Y217647D01*
X342044Y217681D01*
X342349Y217707D01*
X342656Y217726D01*
X342962Y217737D01*
X343269Y217741D01*
X343576Y217737D01*
X343882Y217726D01*
X344189Y217707D01*
X344494Y217681D01*
X344799Y217647D01*
X345103Y217606D01*
X345406Y217557D01*
X345708Y217501D01*
X346008Y217437D01*
X346306Y217366D01*
X346603Y217288D01*
X346898Y217203D01*
X347190Y217110D01*
X347480Y217010D01*
X347768Y216903D01*
X348053Y216789D01*
X348335Y216669D01*
X348613Y216541D01*
X348889Y216406D01*
X349161Y216265D01*
X349430Y216117D01*
X349695Y215963D01*
X349956Y215802D01*
X350214Y215634D01*
X350467Y215461D01*
X350715Y215281D01*
X350959Y215095D01*
X351199Y214904D01*
X351434Y214706D01*
X351663Y214503D01*
X351888Y214294D01*
X352108Y214080D01*
X352322Y213860D01*
X352531Y213635D01*
X352734Y213406D01*
X352932Y213171D01*
X353123Y212931D01*
X353309Y212687D01*
X353489Y212439D01*
X353662Y212186D01*
X353830Y211928D01*
X353991Y211667D01*
X354145Y211402D01*
X354293Y211133D01*
X354434Y210861D01*
X354569Y210585D01*
X354697Y210307D01*
X354817Y210025D01*
X354931Y209740D01*
X355038Y209452D01*
X355138Y209162D01*
X355231Y208870D01*
X355316Y208575D01*
X355394Y208278D01*
X355465Y207980D01*
X355529Y207680D01*
X355585Y207378D01*
X355634Y207075D01*
X355675Y206771D01*
X355709Y206466D01*
X355735Y206161D01*
X355754Y205854D01*
X355765Y205548D01*
X355769Y205241D01*
X355765Y204934D01*
X355754Y204628D01*
X355735Y204321D01*
X355709Y204016D01*
X355675Y203711D01*
X355634Y203407D01*
X355585Y203104D01*
X355529Y202802D01*
X355465Y202502D01*
X355394Y202204D01*
X355316Y201907D01*
X355231Y201612D01*
X355138Y201320D01*
X355038Y201030D01*
X354931Y200742D01*
X354817Y200457D01*
X354697Y200175D01*
X354569Y199897D01*
X354434Y199621D01*
X354293Y199349D01*
X354145Y199080D01*
X353991Y198815D01*
X353830Y198554D01*
X353662Y198296D01*
X353489Y198043D01*
X353309Y197795D01*
X353123Y197551D01*
X352932Y197311D01*
X352734Y197076D01*
X352531Y196847D01*
X352322Y196622D01*
X352108Y196402D01*
X351888Y196188D01*
X351663Y195979D01*
X351434Y195776D01*
X351199Y195578D01*
X350959Y195387D01*
X350715Y195201D01*
X350467Y195021D01*
X350214Y194848D01*
X349956Y194680D01*
X349695Y194519D01*
X349430Y194365D01*
X349161Y194217D01*
X348889Y194076D01*
X348613Y193941D01*
X348335Y193813D01*
X348053Y193693D01*
X347768Y193579D01*
X347480Y193472D01*
X347190Y193372D01*
X346898Y193279D01*
X346603Y193194D01*
X346306Y193116D01*
X346008Y193045D01*
X345708Y192981D01*
X345406Y192925D01*
X345103Y192876D01*
X344799Y192835D01*
X344494Y192801D01*
X344189Y192775D01*
X343882Y192756D01*
X343576Y192745D01*
X343269Y192741D01*
X342962Y192745D01*
X342656Y192756D01*
X342349Y192775D01*
X342044Y192801D01*
X341739Y192835D01*
X341435Y192876D01*
X341132Y192925D01*
X340830Y192981D01*
X340530Y193045D01*
X340232Y193116D01*
X339935Y193194D01*
X339640Y193279D01*
X339348Y193372D01*
X339058Y193472D01*
X338770Y193579D01*
X338485Y193693D01*
X338203Y193813D01*
X337925Y193941D01*
X337649Y194076D01*
X337377Y194217D01*
X337108Y194365D01*
X336843Y194519D01*
X336582Y194680D01*
X336324Y194848D01*
X336071Y195021D01*
X335823Y195201D01*
X335579Y195387D01*
X335339Y195578D01*
X335104Y195776D01*
X334875Y195979D01*
X334650Y196188D01*
X334430Y196402D01*
X334216Y196622D01*
X334007Y196847D01*
X333804Y197076D01*
X333606Y197311D01*
X333415Y197551D01*
X333229Y197795D01*
X333049Y198043D01*
X332876Y198296D01*
X332708Y198554D01*
X332547Y198815D01*
X332393Y199080D01*
X332245Y199349D01*
X332104Y199621D01*
X331969Y199897D01*
X331841Y200175D01*
X331721Y200457D01*
X331607Y200742D01*
X331500Y201030D01*
X331400Y201320D01*
X331307Y201612D01*
X331222Y201907D01*
X331144Y202204D01*
X331073Y202502D01*
X331009Y202802D01*
X330953Y203104D01*
X330904Y203407D01*
X330863Y203711D01*
X330829Y204016D01*
X330803Y204321D01*
X330784Y204628D01*
X330773Y204934D01*
X330769Y205241D01*
X88069Y108941D02*
X88092Y110782D01*
X88159Y112621D01*
X88272Y114458D01*
X88430Y116292D01*
X88633Y118122D01*
X88881Y119946D01*
X89173Y121763D01*
X89510Y123573D01*
X89891Y125374D01*
X90317Y127165D01*
X90786Y128944D01*
X91298Y130712D01*
X91854Y132467D01*
X92453Y134208D01*
X93095Y135933D01*
X93778Y137642D01*
X94503Y139334D01*
X95270Y141008D01*
X96077Y142662D01*
X96925Y144296D01*
X97812Y145908D01*
X98739Y147499D01*
X99705Y149066D01*
X100709Y150609D01*
X101750Y152127D01*
X102828Y153618D01*
X103943Y155083D01*
X105093Y156520D01*
X106278Y157929D01*
X107498Y159308D01*
X108750Y160657D01*
X110036Y161974D01*
X111353Y163260D01*
X112702Y164512D01*
X114081Y165732D01*
X115490Y166917D01*
X116927Y168067D01*
X118392Y169182D01*
X119883Y170260D01*
X121401Y171301D01*
X122944Y172305D01*
X124511Y173271D01*
X126102Y174198D01*
X127714Y175085D01*
X129348Y175933D01*
X131002Y176740D01*
X132676Y177507D01*
X134368Y178232D01*
X136077Y178915D01*
X137802Y179557D01*
X139543Y180156D01*
X141298Y180712D01*
X143066Y181224D01*
X144845Y181693D01*
X146636Y182119D01*
X148437Y182500D01*
X150247Y182837D01*
X152064Y183129D01*
X153888Y183377D01*
X155718Y183580D01*
X157552Y183738D01*
X159389Y183851D01*
X161228Y183918D01*
X163069Y183941D01*
X164910Y183918D01*
X166749Y183851D01*
X168586Y183738D01*
X170420Y183580D01*
X172250Y183377D01*
X174074Y183129D01*
X175891Y182837D01*
X177701Y182500D01*
X179502Y182119D01*
X181293Y181693D01*
X183072Y181224D01*
X184840Y180712D01*
X186595Y180156D01*
X188336Y179557D01*
X190061Y178915D01*
X191770Y178232D01*
X193462Y177507D01*
X195136Y176740D01*
X196790Y175933D01*
X198424Y175085D01*
X200036Y174198D01*
X201627Y173271D01*
X203194Y172305D01*
X204737Y171301D01*
X206255Y170260D01*
X207746Y169182D01*
X209211Y168067D01*
X210648Y166917D01*
X212057Y165732D01*
X213436Y164512D01*
X214785Y163260D01*
X216102Y161974D01*
X217388Y160657D01*
X218640Y159308D01*
X219860Y157929D01*
X221045Y156520D01*
X222195Y155083D01*
X223310Y153618D01*
X224388Y152127D01*
X225429Y150609D01*
X226433Y149066D01*
X227399Y147499D01*
X228326Y145908D01*
X229213Y144296D01*
X230061Y142662D01*
X230868Y141008D01*
X231635Y139334D01*
X232360Y137642D01*
X233043Y135933D01*
X233685Y134208D01*
X234284Y132467D01*
X234840Y130712D01*
X235352Y128944D01*
X235821Y127165D01*
X236247Y125374D01*
X236628Y123573D01*
X236965Y121763D01*
X237257Y119946D01*
X237505Y118122D01*
X237708Y116292D01*
X237866Y114458D01*
X237979Y112621D01*
X238046Y110782D01*
X238069Y108941D01*
X238046Y107100D01*
X237979Y105261D01*
X237866Y103424D01*
X237708Y101590D01*
X237505Y99760D01*
X237257Y97936D01*
X236965Y96119D01*
X236628Y94309D01*
X236247Y92508D01*
X235821Y90717D01*
X235352Y88938D01*
X234840Y87170D01*
X234284Y85415D01*
X233685Y83674D01*
X233043Y81949D01*
X232360Y80240D01*
X231635Y78548D01*
X230868Y76874D01*
X230061Y75220D01*
X229213Y73586D01*
X228326Y71974D01*
X227399Y70383D01*
X226433Y68816D01*
X225429Y67273D01*
X224388Y65755D01*
X223310Y64264D01*
X222195Y62799D01*
X221045Y61362D01*
X219860Y59953D01*
X218640Y58574D01*
X217388Y57225D01*
X216102Y55908D01*
X214785Y54622D01*
X213436Y53370D01*
X212057Y52150D01*
X210648Y50965D01*
X209211Y49815D01*
X207746Y48700D01*
X206255Y47622D01*
X204737Y46581D01*
X203194Y45577D01*
X201627Y44611D01*
X200036Y43684D01*
X198424Y42797D01*
X196790Y41949D01*
X195136Y41142D01*
X193462Y40375D01*
X191770Y39650D01*
X190061Y38967D01*
X188336Y38325D01*
X186595Y37726D01*
X184840Y37170D01*
X183072Y36658D01*
X181293Y36189D01*
X179502Y35763D01*
X177701Y35382D01*
X175891Y35045D01*
X174074Y34753D01*
X172250Y34505D01*
X170420Y34302D01*
X168586Y34144D01*
X166749Y34031D01*
X164910Y33964D01*
X163069Y33941D01*
X161228Y33964D01*
X159389Y34031D01*
X157552Y34144D01*
X155718Y34302D01*
X153888Y34505D01*
X152064Y34753D01*
X150247Y35045D01*
X148437Y35382D01*
X146636Y35763D01*
X144845Y36189D01*
X143066Y36658D01*
X141298Y37170D01*
X139543Y37726D01*
X137802Y38325D01*
X136077Y38967D01*
X134368Y39650D01*
X132676Y40375D01*
X131002Y41142D01*
X129348Y41949D01*
X127714Y42797D01*
X126102Y43684D01*
X124511Y44611D01*
X122944Y45577D01*
X121401Y46581D01*
X119883Y47622D01*
X118392Y48700D01*
X116927Y49815D01*
X115490Y50965D01*
X114081Y52150D01*
X112702Y53370D01*
X111353Y54622D01*
X110036Y55908D01*
X108750Y57225D01*
X107498Y58574D01*
X106278Y59953D01*
X105093Y61362D01*
X103943Y62799D01*
X102828Y64264D01*
X101750Y65755D01*
X100709Y67273D01*
X99705Y68816D01*
X98739Y70383D01*
X97812Y71974D01*
X96925Y73586D01*
X96077Y75220D01*
X95270Y76874D01*
X94503Y78548D01*
X93778Y80240D01*
X93095Y81949D01*
X92453Y83674D01*
X91854Y85415D01*
X91298Y87170D01*
X90786Y88938D01*
X90317Y90717D01*
X89891Y92508D01*
X89510Y94309D01*
X89173Y96119D01*
X88881Y97936D01*
X88633Y99760D01*
X88430Y101590D01*
X88272Y103424D01*
X88159Y105261D01*
X88092Y107100D01*
X88069Y108941D01*
X401950Y50000D02*
X401956Y50515D01*
X401975Y51030D01*
X402007Y51545D01*
X402051Y52058D01*
X402108Y52571D01*
X402177Y53081D01*
X402259Y53590D01*
X402354Y54097D01*
X402460Y54601D01*
X402579Y55103D01*
X402711Y55601D01*
X402854Y56096D01*
X403010Y56587D01*
X403178Y57075D01*
X403357Y57558D01*
X403549Y58036D01*
X403752Y58510D01*
X403966Y58979D01*
X404192Y59442D01*
X404430Y59899D01*
X404678Y60351D01*
X404938Y60796D01*
X405208Y61235D01*
X405489Y61667D01*
X405781Y62092D01*
X406083Y62510D01*
X406395Y62920D01*
X406717Y63322D01*
X407049Y63717D01*
X407390Y64103D01*
X407741Y64480D01*
X408101Y64849D01*
X408470Y65209D01*
X408847Y65560D01*
X409233Y65901D01*
X409628Y66233D01*
X410030Y66555D01*
X410440Y66867D01*
X410858Y67169D01*
X411283Y67461D01*
X411715Y67742D01*
X412154Y68012D01*
X412599Y68272D01*
X413051Y68520D01*
X413508Y68758D01*
X413971Y68984D01*
X414440Y69198D01*
X414914Y69401D01*
X415392Y69593D01*
X415875Y69772D01*
X416363Y69940D01*
X416854Y70096D01*
X417349Y70239D01*
X417847Y70371D01*
X418349Y70490D01*
X418853Y70596D01*
X419360Y70691D01*
X419869Y70773D01*
X420379Y70842D01*
X420892Y70899D01*
X421405Y70943D01*
X421920Y70975D01*
X422435Y70994D01*
X422950Y71000D01*
X423465Y70994D01*
X423980Y70975D01*
X424495Y70943D01*
X425008Y70899D01*
X425521Y70842D01*
X426031Y70773D01*
X426540Y70691D01*
X427047Y70596D01*
X427551Y70490D01*
X428053Y70371D01*
X428551Y70239D01*
X429046Y70096D01*
X429537Y69940D01*
X430025Y69772D01*
X430508Y69593D01*
X430986Y69401D01*
X431460Y69198D01*
X431929Y68984D01*
X432392Y68758D01*
X432849Y68520D01*
X433301Y68272D01*
X433746Y68012D01*
X434185Y67742D01*
X434617Y67461D01*
X435042Y67169D01*
X435460Y66867D01*
X435870Y66555D01*
X436272Y66233D01*
X436667Y65901D01*
X437053Y65560D01*
X437430Y65209D01*
X437799Y64849D01*
X438159Y64480D01*
X438510Y64103D01*
X438851Y63717D01*
X439183Y63322D01*
X439505Y62920D01*
X439817Y62510D01*
X440119Y62092D01*
X440411Y61667D01*
X440692Y61235D01*
X440962Y60796D01*
X441222Y60351D01*
X441470Y59899D01*
X441708Y59442D01*
X441934Y58979D01*
X442148Y58510D01*
X442351Y58036D01*
X442543Y57558D01*
X442722Y57075D01*
X442890Y56587D01*
X443046Y56096D01*
X443189Y55601D01*
X443321Y55103D01*
X443440Y54601D01*
X443546Y54097D01*
X443641Y53590D01*
X443723Y53081D01*
X443792Y52571D01*
X443849Y52058D01*
X443893Y51545D01*
X443925Y51030D01*
X443944Y50515D01*
X443950Y50000D01*
X443944Y49485D01*
X443925Y48970D01*
X443893Y48455D01*
X443849Y47942D01*
X443792Y47429D01*
X443723Y46919D01*
X443641Y46410D01*
X443546Y45903D01*
X443440Y45399D01*
X443321Y44897D01*
X443189Y44399D01*
X443046Y43904D01*
X442890Y43413D01*
X442722Y42925D01*
X442543Y42442D01*
X442351Y41964D01*
X442148Y41490D01*
X441934Y41021D01*
X441708Y40558D01*
X441470Y40101D01*
X441222Y39649D01*
X440962Y39204D01*
X440692Y38765D01*
X440411Y38333D01*
X440119Y37908D01*
X439817Y37490D01*
X439505Y37080D01*
X439183Y36678D01*
X438851Y36283D01*
X438510Y35897D01*
X438159Y35520D01*
X437799Y35151D01*
X437430Y34791D01*
X437053Y34440D01*
X436667Y34099D01*
X436272Y33767D01*
X435870Y33445D01*
X435460Y33133D01*
X435042Y32831D01*
X434617Y32539D01*
X434185Y32258D01*
X433746Y31988D01*
X433301Y31728D01*
X432849Y31480D01*
X432392Y31242D01*
X431929Y31016D01*
X431460Y30802D01*
X430986Y30599D01*
X430508Y30407D01*
X430025Y30228D01*
X429537Y30060D01*
X429046Y29904D01*
X428551Y29761D01*
X428053Y29629D01*
X427551Y29510D01*
X427047Y29404D01*
X426540Y29309D01*
X426031Y29227D01*
X425521Y29158D01*
X425008Y29101D01*
X424495Y29057D01*
X423980Y29025D01*
X423465Y29006D01*
X422950Y29000D01*
X422435Y29006D01*
X421920Y29025D01*
X421405Y29057D01*
X420892Y29101D01*
X420379Y29158D01*
X419869Y29227D01*
X419360Y29309D01*
X418853Y29404D01*
X418349Y29510D01*
X417847Y29629D01*
X417349Y29761D01*
X416854Y29904D01*
X416363Y30060D01*
X415875Y30228D01*
X415392Y30407D01*
X414914Y30599D01*
X414440Y30802D01*
X413971Y31016D01*
X413508Y31242D01*
X413051Y31480D01*
X412599Y31728D01*
X412154Y31988D01*
X411715Y32258D01*
X411283Y32539D01*
X410858Y32831D01*
X410440Y33133D01*
X410030Y33445D01*
X409628Y33767D01*
X409233Y34099D01*
X408847Y34440D01*
X408470Y34791D01*
X408101Y35151D01*
X407741Y35520D01*
X407390Y35897D01*
X407049Y36283D01*
X406717Y36678D01*
X406395Y37080D01*
X406083Y37490D01*
X405781Y37908D01*
X405489Y38333D01*
X405208Y38765D01*
X404938Y39204D01*
X404678Y39649D01*
X404430Y40101D01*
X404192Y40558D01*
X403966Y41021D01*
X403752Y41490D01*
X403549Y41964D01*
X403357Y42442D01*
X403178Y42925D01*
X403010Y43413D01*
X402854Y43904D01*
X402711Y44399D01*
X402579Y44897D01*
X402460Y45399D01*
X402354Y45903D01*
X402259Y46410D01*
X402177Y46919D01*
X402108Y47429D01*
X402051Y47942D01*
X402007Y48455D01*
X401975Y48970D01*
X401956Y49485D01*
X401950Y50000D01*
X283269Y108941D02*
X283287Y110413D01*
X283341Y111885D01*
X283432Y113355D01*
X283558Y114822D01*
X283720Y116286D01*
X283918Y117745D01*
X284152Y119199D01*
X284422Y120646D01*
X284727Y122087D01*
X285067Y123520D01*
X285442Y124944D01*
X285853Y126358D01*
X286297Y127762D01*
X286776Y129154D01*
X287289Y130535D01*
X287836Y131902D01*
X288416Y133255D01*
X289030Y134594D01*
X289676Y135918D01*
X290354Y137225D01*
X291064Y138515D01*
X291805Y139787D01*
X292578Y141041D01*
X293381Y142275D01*
X294214Y143489D01*
X295077Y144683D01*
X295968Y145855D01*
X296888Y147005D01*
X297836Y148131D01*
X298812Y149235D01*
X299814Y150313D01*
X300843Y151367D01*
X301897Y152396D01*
X302975Y153398D01*
X304079Y154374D01*
X305205Y155322D01*
X306355Y156242D01*
X307527Y157133D01*
X308721Y157996D01*
X309935Y158829D01*
X311169Y159632D01*
X312423Y160405D01*
X313695Y161146D01*
X314985Y161856D01*
X316292Y162534D01*
X317616Y163180D01*
X318955Y163794D01*
X320308Y164374D01*
X321675Y164921D01*
X323056Y165434D01*
X324448Y165913D01*
X325852Y166357D01*
X327266Y166768D01*
X328690Y167143D01*
X330123Y167483D01*
X331564Y167788D01*
X333011Y168058D01*
X334465Y168292D01*
X335924Y168490D01*
X337388Y168652D01*
X338855Y168778D01*
X340325Y168869D01*
X341797Y168923D01*
X343269Y168941D01*
X344741Y168923D01*
X346213Y168869D01*
X347683Y168778D01*
X349150Y168652D01*
X350614Y168490D01*
X352073Y168292D01*
X353527Y168058D01*
X354974Y167788D01*
X356415Y167483D01*
X357848Y167143D01*
X359272Y166768D01*
X360686Y166357D01*
X362090Y165913D01*
X363482Y165434D01*
X364863Y164921D01*
X366230Y164374D01*
X367583Y163794D01*
X368922Y163180D01*
X370246Y162534D01*
X371553Y161856D01*
X372843Y161146D01*
X374115Y160405D01*
X375369Y159632D01*
X376603Y158829D01*
X377817Y157996D01*
X379011Y157133D01*
X380183Y156242D01*
X381333Y155322D01*
X382459Y154374D01*
X383563Y153398D01*
X384641Y152396D01*
X385695Y151367D01*
X386724Y150313D01*
X387726Y149235D01*
X388702Y148131D01*
X389650Y147005D01*
X390570Y145855D01*
X391461Y144683D01*
X392324Y143489D01*
X393157Y142275D01*
X393960Y141041D01*
X394733Y139787D01*
X395474Y138515D01*
X396184Y137225D01*
X396862Y135918D01*
X397508Y134594D01*
X398122Y133255D01*
X398702Y131902D01*
X399249Y130535D01*
X399762Y129154D01*
X400241Y127762D01*
X400685Y126358D01*
X401096Y124944D01*
X401471Y123520D01*
X401811Y122087D01*
X402116Y120646D01*
X402386Y119199D01*
X402620Y117745D01*
X402818Y116286D01*
X402980Y114822D01*
X403106Y113355D01*
X403197Y111885D01*
X403251Y110413D01*
X403269Y108941D01*
X403251Y107469D01*
X403197Y105997D01*
X403106Y104527D01*
X402980Y103060D01*
X402818Y101596D01*
X402620Y100137D01*
X402386Y98683D01*
X402116Y97236D01*
X401811Y95795D01*
X401471Y94362D01*
X401096Y92938D01*
X400685Y91524D01*
X400241Y90120D01*
X399762Y88728D01*
X399249Y87347D01*
X398702Y85980D01*
X398122Y84627D01*
X397508Y83288D01*
X396862Y81964D01*
X396184Y80657D01*
X395474Y79367D01*
X394733Y78095D01*
X393960Y76841D01*
X393157Y75607D01*
X392324Y74393D01*
X391461Y73199D01*
X390570Y72027D01*
X389650Y70877D01*
X388702Y69751D01*
X387726Y68647D01*
X386724Y67569D01*
X385695Y66515D01*
X384641Y65486D01*
X383563Y64484D01*
X382459Y63508D01*
X381333Y62560D01*
X380183Y61640D01*
X379011Y60749D01*
X377817Y59886D01*
X376603Y59053D01*
X375369Y58250D01*
X374115Y57477D01*
X372843Y56736D01*
X371553Y56026D01*
X370246Y55348D01*
X368922Y54702D01*
X367583Y54088D01*
X366230Y53508D01*
X364863Y52961D01*
X363482Y52448D01*
X362090Y51969D01*
X360686Y51525D01*
X359272Y51114D01*
X357848Y50739D01*
X356415Y50399D01*
X354974Y50094D01*
X353527Y49824D01*
X352073Y49590D01*
X350614Y49392D01*
X349150Y49230D01*
X347683Y49104D01*
X346213Y49013D01*
X344741Y48959D01*
X343269Y48941D01*
X341797Y48959D01*
X340325Y49013D01*
X338855Y49104D01*
X337388Y49230D01*
X335924Y49392D01*
X334465Y49590D01*
X333011Y49824D01*
X331564Y50094D01*
X330123Y50399D01*
X328690Y50739D01*
X327266Y51114D01*
X325852Y51525D01*
X324448Y51969D01*
X323056Y52448D01*
X321675Y52961D01*
X320308Y53508D01*
X318955Y54088D01*
X317616Y54702D01*
X316292Y55348D01*
X314985Y56026D01*
X313695Y56736D01*
X312423Y57477D01*
X311169Y58250D01*
X309935Y59053D01*
X308721Y59886D01*
X307527Y60749D01*
X306355Y61640D01*
X305205Y62560D01*
X304079Y63508D01*
X302975Y64484D01*
X301897Y65486D01*
X300843Y66515D01*
X299814Y67569D01*
X298812Y68647D01*
X297836Y69751D01*
X296888Y70877D01*
X295968Y72027D01*
X295077Y73199D01*
X294214Y74393D01*
X293381Y75607D01*
X292578Y76841D01*
X291805Y78095D01*
X291064Y79367D01*
X290354Y80657D01*
X289676Y81964D01*
X289030Y83288D01*
X288416Y84627D01*
X287836Y85980D01*
X287289Y87347D01*
X286776Y88728D01*
X286297Y90120D01*
X285853Y91524D01*
X285442Y92938D01*
X285067Y94362D01*
X284727Y95795D01*
X284422Y97236D01*
X284152Y98683D01*
X283918Y100137D01*
X283720Y101596D01*
X283558Y103060D01*
X283432Y104527D01*
X283341Y105997D01*
X283287Y107469D01*
X283269Y108941D01*
X31950Y50000D02*
X31956Y50515D01*
X31975Y51030D01*
X32007Y51545D01*
X32051Y52058D01*
X32108Y52571D01*
X32177Y53081D01*
X32259Y53590D01*
X32354Y54097D01*
X32460Y54601D01*
X32579Y55103D01*
X32711Y55601D01*
X32854Y56096D01*
X33010Y56587D01*
X33178Y57075D01*
X33357Y57558D01*
X33549Y58036D01*
X33752Y58510D01*
X33966Y58979D01*
X34192Y59442D01*
X34430Y59899D01*
X34678Y60351D01*
X34938Y60796D01*
X35208Y61235D01*
X35489Y61667D01*
X35781Y62092D01*
X36083Y62510D01*
X36395Y62920D01*
X36717Y63322D01*
X37049Y63717D01*
X37390Y64103D01*
X37741Y64480D01*
X38101Y64849D01*
X38470Y65209D01*
X38847Y65560D01*
X39233Y65901D01*
X39628Y66233D01*
X40030Y66555D01*
X40440Y66867D01*
X40858Y67169D01*
X41283Y67461D01*
X41715Y67742D01*
X42154Y68012D01*
X42599Y68272D01*
X43051Y68520D01*
X43508Y68758D01*
X43971Y68984D01*
X44440Y69198D01*
X44914Y69401D01*
X45392Y69593D01*
X45875Y69772D01*
X46363Y69940D01*
X46854Y70096D01*
X47349Y70239D01*
X47847Y70371D01*
X48349Y70490D01*
X48853Y70596D01*
X49360Y70691D01*
X49869Y70773D01*
X50379Y70842D01*
X50892Y70899D01*
X51405Y70943D01*
X51920Y70975D01*
X52435Y70994D01*
X52950Y71000D01*
X53465Y70994D01*
X53980Y70975D01*
X54495Y70943D01*
X55008Y70899D01*
X55521Y70842D01*
X56031Y70773D01*
X56540Y70691D01*
X57047Y70596D01*
X57551Y70490D01*
X58053Y70371D01*
X58551Y70239D01*
X59046Y70096D01*
X59537Y69940D01*
X60025Y69772D01*
X60508Y69593D01*
X60986Y69401D01*
X61460Y69198D01*
X61929Y68984D01*
X62392Y68758D01*
X62849Y68520D01*
X63301Y68272D01*
X63746Y68012D01*
X64185Y67742D01*
X64617Y67461D01*
X65042Y67169D01*
X65460Y66867D01*
X65870Y66555D01*
X66272Y66233D01*
X66667Y65901D01*
X67053Y65560D01*
X67430Y65209D01*
X67799Y64849D01*
X68159Y64480D01*
X68510Y64103D01*
X68851Y63717D01*
X69183Y63322D01*
X69505Y62920D01*
X69817Y62510D01*
X70119Y62092D01*
X70411Y61667D01*
X70692Y61235D01*
X70962Y60796D01*
X71222Y60351D01*
X71470Y59899D01*
X71708Y59442D01*
X71934Y58979D01*
X72148Y58510D01*
X72351Y58036D01*
X72543Y57558D01*
X72722Y57075D01*
X72890Y56587D01*
X73046Y56096D01*
X73189Y55601D01*
X73321Y55103D01*
X73440Y54601D01*
X73546Y54097D01*
X73641Y53590D01*
X73723Y53081D01*
X73792Y52571D01*
X73849Y52058D01*
X73893Y51545D01*
X73925Y51030D01*
X73944Y50515D01*
X73950Y50000D01*
X73944Y49485D01*
X73925Y48970D01*
X73893Y48455D01*
X73849Y47942D01*
X73792Y47429D01*
X73723Y46919D01*
X73641Y46410D01*
X73546Y45903D01*
X73440Y45399D01*
X73321Y44897D01*
X73189Y44399D01*
X73046Y43904D01*
X72890Y43413D01*
X72722Y42925D01*
X72543Y42442D01*
X72351Y41964D01*
X72148Y41490D01*
X71934Y41021D01*
X71708Y40558D01*
X71470Y40101D01*
X71222Y39649D01*
X70962Y39204D01*
X70692Y38765D01*
X70411Y38333D01*
X70119Y37908D01*
X69817Y37490D01*
X69505Y37080D01*
X69183Y36678D01*
X68851Y36283D01*
X68510Y35897D01*
X68159Y35520D01*
X67799Y35151D01*
X67430Y34791D01*
X67053Y34440D01*
X66667Y34099D01*
X66272Y33767D01*
X65870Y33445D01*
X65460Y33133D01*
X65042Y32831D01*
X64617Y32539D01*
X64185Y32258D01*
X63746Y31988D01*
X63301Y31728D01*
X62849Y31480D01*
X62392Y31242D01*
X61929Y31016D01*
X61460Y30802D01*
X60986Y30599D01*
X60508Y30407D01*
X60025Y30228D01*
X59537Y30060D01*
X59046Y29904D01*
X58551Y29761D01*
X58053Y29629D01*
X57551Y29510D01*
X57047Y29404D01*
X56540Y29309D01*
X56031Y29227D01*
X55521Y29158D01*
X55008Y29101D01*
X54495Y29057D01*
X53980Y29025D01*
X53465Y29006D01*
X52950Y29000D01*
X52435Y29006D01*
X51920Y29025D01*
X51405Y29057D01*
X50892Y29101D01*
X50379Y29158D01*
X49869Y29227D01*
X49360Y29309D01*
X48853Y29404D01*
X48349Y29510D01*
X47847Y29629D01*
X47349Y29761D01*
X46854Y29904D01*
X46363Y30060D01*
X45875Y30228D01*
X45392Y30407D01*
X44914Y30599D01*
X44440Y30802D01*
X43971Y31016D01*
X43508Y31242D01*
X43051Y31480D01*
X42599Y31728D01*
X42154Y31988D01*
X41715Y32258D01*
X41283Y32539D01*
X40858Y32831D01*
X40440Y33133D01*
X40030Y33445D01*
X39628Y33767D01*
X39233Y34099D01*
X38847Y34440D01*
X38470Y34791D01*
X38101Y35151D01*
X37741Y35520D01*
X37390Y35897D01*
X37049Y36283D01*
X36717Y36678D01*
X36395Y37080D01*
X36083Y37490D01*
X35781Y37908D01*
X35489Y38333D01*
X35208Y38765D01*
X34938Y39204D01*
X34678Y39649D01*
X34430Y40101D01*
X34192Y40558D01*
X33966Y41021D01*
X33752Y41490D01*
X33549Y41964D01*
X33357Y42442D01*
X33178Y42925D01*
X33010Y43413D01*
X32854Y43904D01*
X32711Y44399D01*
X32579Y44897D01*
X32460Y45399D01*
X32354Y45903D01*
X32259Y46410D01*
X32177Y46919D01*
X32108Y47429D01*
X32051Y47942D01*
X32007Y48455D01*
X31975Y48970D01*
X31956Y49485D01*
X31950Y50000D01*
X175450Y732064D02*
X175469Y733598D01*
X175525Y735131D01*
X175619Y736662D01*
X175751Y738190D01*
X175920Y739715D01*
X176126Y741235D01*
X176370Y742749D01*
X176651Y744257D01*
X176969Y745758D01*
X177323Y747250D01*
X177714Y748734D01*
X178141Y750207D01*
X178604Y751669D01*
X179103Y753120D01*
X179638Y754557D01*
X180208Y755982D01*
X180812Y757392D01*
X181451Y758786D01*
X182123Y760165D01*
X182830Y761526D01*
X183570Y762870D01*
X184342Y764195D01*
X185147Y765501D01*
X185983Y766787D01*
X186851Y768052D01*
X187750Y769295D01*
X188678Y770516D01*
X189637Y771714D01*
X190624Y772887D01*
X191641Y774036D01*
X192685Y775160D01*
X193756Y776258D01*
X194854Y777329D01*
X195978Y778373D01*
X197127Y779390D01*
X198300Y780377D01*
X199498Y781336D01*
X200719Y782264D01*
X201962Y783163D01*
X203227Y784031D01*
X204513Y784867D01*
X205819Y785672D01*
X207144Y786444D01*
X208488Y787184D01*
X209849Y787891D01*
X211228Y788563D01*
X212622Y789202D01*
X214032Y789806D01*
X215457Y790376D01*
X216894Y790911D01*
X218345Y791410D01*
X219807Y791873D01*
X221280Y792300D01*
X222764Y792691D01*
X224256Y793045D01*
X225757Y793363D01*
X227265Y793644D01*
X228779Y793888D01*
X230299Y794094D01*
X231824Y794263D01*
X233352Y794395D01*
X234883Y794489D01*
X236416Y794545D01*
X237950Y794564D01*
X239484Y794545D01*
X241017Y794489D01*
X242548Y794395D01*
X244076Y794263D01*
X245601Y794094D01*
X247121Y793888D01*
X248635Y793644D01*
X250143Y793363D01*
X251644Y793045D01*
X253136Y792691D01*
X254620Y792300D01*
X256093Y791873D01*
X257555Y791410D01*
X259006Y790911D01*
X260443Y790376D01*
X261868Y789806D01*
X263278Y789202D01*
X264672Y788563D01*
X266051Y787891D01*
X267412Y787184D01*
X268756Y786444D01*
X270081Y785672D01*
X271387Y784867D01*
X272673Y784031D01*
X273938Y783163D01*
X275181Y782264D01*
X276402Y781336D01*
X277600Y780377D01*
X278773Y779390D01*
X279922Y778373D01*
X281046Y777329D01*
X282144Y776258D01*
X283215Y775160D01*
X284259Y774036D01*
X285276Y772887D01*
X286263Y771714D01*
X287222Y770516D01*
X288150Y769295D01*
X289049Y768052D01*
X289917Y766787D01*
X290753Y765501D01*
X291558Y764195D01*
X292330Y762870D01*
X293070Y761526D01*
X293777Y760165D01*
X294449Y758786D01*
X295088Y757392D01*
X295692Y755982D01*
X296262Y754557D01*
X296797Y753120D01*
X297296Y751669D01*
X297759Y750207D01*
X298186Y748734D01*
X298577Y747250D01*
X298931Y745758D01*
X299249Y744257D01*
X299530Y742749D01*
X299774Y741235D01*
X299980Y739715D01*
X300149Y738190D01*
X300281Y736662D01*
X300375Y735131D01*
X300431Y733598D01*
X300450Y732064D01*
X300431Y730530D01*
X300375Y728997D01*
X300281Y727466D01*
X300149Y725938D01*
X299980Y724413D01*
X299774Y722893D01*
X299530Y721379D01*
X299249Y719871D01*
X298931Y718370D01*
X298577Y716878D01*
X298186Y715394D01*
X297759Y713921D01*
X297296Y712459D01*
X296797Y711008D01*
X296262Y709571D01*
X295692Y708146D01*
X295088Y706736D01*
X294449Y705342D01*
X293777Y703963D01*
X293070Y702602D01*
X292330Y701258D01*
X291558Y699933D01*
X290753Y698627D01*
X289917Y697341D01*
X289049Y696076D01*
X288150Y694833D01*
X287222Y693612D01*
X286263Y692414D01*
X285276Y691241D01*
X284259Y690092D01*
X283215Y688968D01*
X282144Y687870D01*
X281046Y686799D01*
X279922Y685755D01*
X278773Y684738D01*
X277600Y683751D01*
X276402Y682792D01*
X275181Y681864D01*
X273938Y680965D01*
X272673Y680097D01*
X271387Y679261D01*
X270081Y678456D01*
X268756Y677684D01*
X267412Y676944D01*
X266051Y676237D01*
X264672Y675565D01*
X263278Y674926D01*
X261868Y674322D01*
X260443Y673752D01*
X259006Y673217D01*
X257555Y672718D01*
X256093Y672255D01*
X254620Y671828D01*
X253136Y671437D01*
X251644Y671083D01*
X250143Y670765D01*
X248635Y670484D01*
X247121Y670240D01*
X245601Y670034D01*
X244076Y669865D01*
X242548Y669733D01*
X241017Y669639D01*
X239484Y669583D01*
X237950Y669564D01*
X236416Y669583D01*
X234883Y669639D01*
X233352Y669733D01*
X231824Y669865D01*
X230299Y670034D01*
X228779Y670240D01*
X227265Y670484D01*
X225757Y670765D01*
X224256Y671083D01*
X222764Y671437D01*
X221280Y671828D01*
X219807Y672255D01*
X218345Y672718D01*
X216894Y673217D01*
X215457Y673752D01*
X214032Y674322D01*
X212622Y674926D01*
X211228Y675565D01*
X209849Y676237D01*
X208488Y676944D01*
X207144Y677684D01*
X205819Y678456D01*
X204513Y679261D01*
X203227Y680097D01*
X201962Y680965D01*
X200719Y681864D01*
X199498Y682792D01*
X198300Y683751D01*
X197127Y684738D01*
X195978Y685755D01*
X194854Y686799D01*
X193756Y687870D01*
X192685Y688968D01*
X191641Y690092D01*
X190624Y691241D01*
X189637Y692414D01*
X188678Y693612D01*
X187750Y694833D01*
X186851Y696076D01*
X185983Y697341D01*
X185147Y698627D01*
X184342Y699933D01*
X183570Y701258D01*
X182830Y702602D01*
X182123Y703963D01*
X181451Y705342D01*
X180812Y706736D01*
X180208Y708146D01*
X179638Y709571D01*
X179103Y711008D01*
X178604Y712459D01*
X178141Y713921D01*
X177714Y715394D01*
X177323Y716878D01*
X176969Y718370D01*
X176651Y719871D01*
X176370Y721379D01*
X176126Y722893D01*
X175920Y724413D01*
X175751Y725938D01*
X175619Y727466D01*
X175525Y728997D01*
X175469Y730530D01*
X175450Y732064D01*
X175450Y898369D02*
X175469Y899903D01*
X175525Y901436D01*
X175619Y902967D01*
X175751Y904495D01*
X175920Y906020D01*
X176126Y907540D01*
X176370Y909054D01*
X176651Y910562D01*
X176969Y912063D01*
X177323Y913555D01*
X177714Y915039D01*
X178141Y916512D01*
X178604Y917974D01*
X179103Y919425D01*
X179638Y920862D01*
X180208Y922287D01*
X180812Y923697D01*
X181451Y925091D01*
X182123Y926470D01*
X182830Y927831D01*
X183570Y929175D01*
X184342Y930500D01*
X185147Y931806D01*
X185983Y933092D01*
X186851Y934357D01*
X187750Y935600D01*
X188678Y936821D01*
X189637Y938019D01*
X190624Y939192D01*
X191641Y940341D01*
X192685Y941465D01*
X193756Y942563D01*
X194854Y943634D01*
X195978Y944678D01*
X197127Y945695D01*
X198300Y946682D01*
X199498Y947641D01*
X200719Y948569D01*
X201962Y949468D01*
X203227Y950336D01*
X204513Y951172D01*
X205819Y951977D01*
X207144Y952749D01*
X208488Y953489D01*
X209849Y954196D01*
X211228Y954868D01*
X212622Y955507D01*
X214032Y956111D01*
X215457Y956681D01*
X216894Y957216D01*
X218345Y957715D01*
X219807Y958178D01*
X221280Y958605D01*
X222764Y958996D01*
X224256Y959350D01*
X225757Y959668D01*
X227265Y959949D01*
X228779Y960193D01*
X230299Y960399D01*
X231824Y960568D01*
X233352Y960700D01*
X234883Y960794D01*
X236416Y960850D01*
X237950Y960869D01*
X239484Y960850D01*
X241017Y960794D01*
X242548Y960700D01*
X244076Y960568D01*
X245601Y960399D01*
X247121Y960193D01*
X248635Y959949D01*
X250143Y959668D01*
X251644Y959350D01*
X253136Y958996D01*
X254620Y958605D01*
X256093Y958178D01*
X257555Y957715D01*
X259006Y957216D01*
X260443Y956681D01*
X261868Y956111D01*
X263278Y955507D01*
X264672Y954868D01*
X266051Y954196D01*
X267412Y953489D01*
X268756Y952749D01*
X270081Y951977D01*
X271387Y951172D01*
X272673Y950336D01*
X273938Y949468D01*
X275181Y948569D01*
X276402Y947641D01*
X277600Y946682D01*
X278773Y945695D01*
X279922Y944678D01*
X281046Y943634D01*
X282144Y942563D01*
X283215Y941465D01*
X284259Y940341D01*
X285276Y939192D01*
X286263Y938019D01*
X287222Y936821D01*
X288150Y935600D01*
X289049Y934357D01*
X289917Y933092D01*
X290753Y931806D01*
X291558Y930500D01*
X292330Y929175D01*
X293070Y927831D01*
X293777Y926470D01*
X294449Y925091D01*
X295088Y923697D01*
X295692Y922287D01*
X296262Y920862D01*
X296797Y919425D01*
X297296Y917974D01*
X297759Y916512D01*
X298186Y915039D01*
X298577Y913555D01*
X298931Y912063D01*
X299249Y910562D01*
X299530Y909054D01*
X299774Y907540D01*
X299980Y906020D01*
X300149Y904495D01*
X300281Y902967D01*
X300375Y901436D01*
X300431Y899903D01*
X300450Y898369D01*
X300431Y896835D01*
X300375Y895302D01*
X300281Y893771D01*
X300149Y892243D01*
X299980Y890718D01*
X299774Y889198D01*
X299530Y887684D01*
X299249Y886176D01*
X298931Y884675D01*
X298577Y883183D01*
X298186Y881699D01*
X297759Y880226D01*
X297296Y878764D01*
X296797Y877313D01*
X296262Y875876D01*
X295692Y874451D01*
X295088Y873041D01*
X294449Y871647D01*
X293777Y870268D01*
X293070Y868907D01*
X292330Y867563D01*
X291558Y866238D01*
X290753Y864932D01*
X289917Y863646D01*
X289049Y862381D01*
X288150Y861138D01*
X287222Y859917D01*
X286263Y858719D01*
X285276Y857546D01*
X284259Y856397D01*
X283215Y855273D01*
X282144Y854175D01*
X281046Y853104D01*
X279922Y852060D01*
X278773Y851043D01*
X277600Y850056D01*
X276402Y849097D01*
X275181Y848169D01*
X273938Y847270D01*
X272673Y846402D01*
X271387Y845566D01*
X270081Y844761D01*
X268756Y843989D01*
X267412Y843249D01*
X266051Y842542D01*
X264672Y841870D01*
X263278Y841231D01*
X261868Y840627D01*
X260443Y840057D01*
X259006Y839522D01*
X257555Y839023D01*
X256093Y838560D01*
X254620Y838133D01*
X253136Y837742D01*
X251644Y837388D01*
X250143Y837070D01*
X248635Y836789D01*
X247121Y836545D01*
X245601Y836339D01*
X244076Y836170D01*
X242548Y836038D01*
X241017Y835944D01*
X239484Y835888D01*
X237950Y835869D01*
X236416Y835888D01*
X234883Y835944D01*
X233352Y836038D01*
X231824Y836170D01*
X230299Y836339D01*
X228779Y836545D01*
X227265Y836789D01*
X225757Y837070D01*
X224256Y837388D01*
X222764Y837742D01*
X221280Y838133D01*
X219807Y838560D01*
X218345Y839023D01*
X216894Y839522D01*
X215457Y840057D01*
X214032Y840627D01*
X212622Y841231D01*
X211228Y841870D01*
X209849Y842542D01*
X208488Y843249D01*
X207144Y843989D01*
X205819Y844761D01*
X204513Y845566D01*
X203227Y846402D01*
X201962Y847270D01*
X200719Y848169D01*
X199498Y849097D01*
X198300Y850056D01*
X197127Y851043D01*
X195978Y852060D01*
X194854Y853104D01*
X193756Y854175D01*
X192685Y855273D01*
X191641Y856397D01*
X190624Y857546D01*
X189637Y858719D01*
X188678Y859917D01*
X187750Y861138D01*
X186851Y862381D01*
X185983Y863646D01*
X185147Y864932D01*
X184342Y866238D01*
X183570Y867563D01*
X182830Y868907D01*
X182123Y870268D01*
X181451Y871647D01*
X180812Y873041D01*
X180208Y874451D01*
X179638Y875876D01*
X179103Y877313D01*
X178604Y878764D01*
X178141Y880226D01*
X177714Y881699D01*
X177323Y883183D01*
X176969Y884675D01*
X176651Y886176D01*
X176370Y887684D01*
X176126Y889198D01*
X175920Y890718D01*
X175751Y892243D01*
X175619Y893771D01*
X175525Y895302D01*
X175469Y896835D01*
X175450Y898369D01*
X401950Y950000D02*
X401956Y950515D01*
X401975Y951030D01*
X402007Y951545D01*
X402051Y952058D01*
X402108Y952571D01*
X402177Y953081D01*
X402259Y953590D01*
X402354Y954097D01*
X402460Y954601D01*
X402579Y955103D01*
X402711Y955601D01*
X402854Y956096D01*
X403010Y956587D01*
X403178Y957075D01*
X403357Y957558D01*
X403549Y958036D01*
X403752Y958510D01*
X403966Y958979D01*
X404192Y959442D01*
X404430Y959899D01*
X404678Y960351D01*
X404938Y960796D01*
X405208Y961235D01*
X405489Y961667D01*
X405781Y962092D01*
X406083Y962510D01*
X406395Y962920D01*
X406717Y963322D01*
X407049Y963717D01*
X407390Y964103D01*
X407741Y964480D01*
X408101Y964849D01*
X408470Y965209D01*
X408847Y965560D01*
X409233Y965901D01*
X409628Y966233D01*
X410030Y966555D01*
X410440Y966867D01*
X410858Y967169D01*
X411283Y967461D01*
X411715Y967742D01*
X412154Y968012D01*
X412599Y968272D01*
X413051Y968520D01*
X413508Y968758D01*
X413971Y968984D01*
X414440Y969198D01*
X414914Y969401D01*
X415392Y969593D01*
X415875Y969772D01*
X416363Y969940D01*
X416854Y970096D01*
X417349Y970239D01*
X417847Y970371D01*
X418349Y970490D01*
X418853Y970596D01*
X419360Y970691D01*
X419869Y970773D01*
X420379Y970842D01*
X420892Y970899D01*
X421405Y970943D01*
X421920Y970975D01*
X422435Y970994D01*
X422950Y971000D01*
X423465Y970994D01*
X423980Y970975D01*
X424495Y970943D01*
X425008Y970899D01*
X425521Y970842D01*
X426031Y970773D01*
X426540Y970691D01*
X427047Y970596D01*
X427551Y970490D01*
X428053Y970371D01*
X428551Y970239D01*
X429046Y970096D01*
X429537Y969940D01*
X430025Y969772D01*
X430508Y969593D01*
X430986Y969401D01*
X431460Y969198D01*
X431929Y968984D01*
X432392Y968758D01*
X432849Y968520D01*
X433301Y968272D01*
X433746Y968012D01*
X434185Y967742D01*
X434617Y967461D01*
X435042Y967169D01*
X435460Y966867D01*
X435870Y966555D01*
X436272Y966233D01*
X436667Y965901D01*
X437053Y965560D01*
X437430Y965209D01*
X437799Y964849D01*
X438159Y964480D01*
X438510Y964103D01*
X438851Y963717D01*
X439183Y963322D01*
X439505Y962920D01*
X439817Y962510D01*
X440119Y962092D01*
X440411Y961667D01*
X440692Y961235D01*
X440962Y960796D01*
X441222Y960351D01*
X441470Y959899D01*
X441708Y959442D01*
X441934Y958979D01*
X442148Y958510D01*
X442351Y958036D01*
X442543Y957558D01*
X442722Y957075D01*
X442890Y956587D01*
X443046Y956096D01*
X443189Y955601D01*
X443321Y955103D01*
X443440Y954601D01*
X443546Y954097D01*
X443641Y953590D01*
X443723Y953081D01*
X443792Y952571D01*
X443849Y952058D01*
X443893Y951545D01*
X443925Y951030D01*
X443944Y950515D01*
X443950Y950000D01*
X443944Y949485D01*
X443925Y948970D01*
X443893Y948455D01*
X443849Y947942D01*
X443792Y947429D01*
X443723Y946919D01*
X443641Y946410D01*
X443546Y945903D01*
X443440Y945399D01*
X443321Y944897D01*
X443189Y944399D01*
X443046Y943904D01*
X442890Y943413D01*
X442722Y942925D01*
X442543Y942442D01*
X442351Y941964D01*
X442148Y941490D01*
X441934Y941021D01*
X441708Y940558D01*
X441470Y940101D01*
X441222Y939649D01*
X440962Y939204D01*
X440692Y938765D01*
X440411Y938333D01*
X440119Y937908D01*
X439817Y937490D01*
X439505Y937080D01*
X439183Y936678D01*
X438851Y936283D01*
X438510Y935897D01*
X438159Y935520D01*
X437799Y935151D01*
X437430Y934791D01*
X437053Y934440D01*
X436667Y934099D01*
X436272Y933767D01*
X435870Y933445D01*
X435460Y933133D01*
X435042Y932831D01*
X434617Y932539D01*
X434185Y932258D01*
X433746Y931988D01*
X433301Y931728D01*
X432849Y931480D01*
X432392Y931242D01*
X431929Y931016D01*
X431460Y930802D01*
X430986Y930599D01*
X430508Y930407D01*
X430025Y930228D01*
X429537Y930060D01*
X429046Y929904D01*
X428551Y929761D01*
X428053Y929629D01*
X427551Y929510D01*
X427047Y929404D01*
X426540Y929309D01*
X426031Y929227D01*
X425521Y929158D01*
X425008Y929101D01*
X424495Y929057D01*
X423980Y929025D01*
X423465Y929006D01*
X422950Y929000D01*
X422435Y929006D01*
X421920Y929025D01*
X421405Y929057D01*
X420892Y929101D01*
X420379Y929158D01*
X419869Y929227D01*
X419360Y929309D01*
X418853Y929404D01*
X418349Y929510D01*
X417847Y929629D01*
X417349Y929761D01*
X416854Y929904D01*
X416363Y930060D01*
X415875Y930228D01*
X415392Y930407D01*
X414914Y930599D01*
X414440Y930802D01*
X413971Y931016D01*
X413508Y931242D01*
X413051Y931480D01*
X412599Y931728D01*
X412154Y931988D01*
X411715Y932258D01*
X411283Y932539D01*
X410858Y932831D01*
X410440Y933133D01*
X410030Y933445D01*
X409628Y933767D01*
X409233Y934099D01*
X408847Y934440D01*
X408470Y934791D01*
X408101Y935151D01*
X407741Y935520D01*
X407390Y935897D01*
X407049Y936283D01*
X406717Y936678D01*
X406395Y937080D01*
X406083Y937490D01*
X405781Y937908D01*
X405489Y938333D01*
X405208Y938765D01*
X404938Y939204D01*
X404678Y939649D01*
X404430Y940101D01*
X404192Y940558D01*
X403966Y941021D01*
X403752Y941490D01*
X403549Y941964D01*
X403357Y942442D01*
X403178Y942925D01*
X403010Y943413D01*
X402854Y943904D01*
X402711Y944399D01*
X402579Y944897D01*
X402460Y945399D01*
X402354Y945903D01*
X402259Y946410D01*
X402177Y946919D01*
X402108Y947429D01*
X402051Y947942D01*
X402007Y948455D01*
X401975Y948970D01*
X401956Y949485D01*
X401950Y950000D01*
X31950Y950000D02*
X31956Y950515D01*
X31975Y951030D01*
X32007Y951545D01*
X32051Y952058D01*
X32108Y952571D01*
X32177Y953081D01*
X32259Y953590D01*
X32354Y954097D01*
X32460Y954601D01*
X32579Y955103D01*
X32711Y955601D01*
X32854Y956096D01*
X33010Y956587D01*
X33178Y957075D01*
X33357Y957558D01*
X33549Y958036D01*
X33752Y958510D01*
X33966Y958979D01*
X34192Y959442D01*
X34430Y959899D01*
X34678Y960351D01*
X34938Y960796D01*
X35208Y961235D01*
X35489Y961667D01*
X35781Y962092D01*
X36083Y962510D01*
X36395Y962920D01*
X36717Y963322D01*
X37049Y963717D01*
X37390Y964103D01*
X37741Y964480D01*
X38101Y964849D01*
X38470Y965209D01*
X38847Y965560D01*
X39233Y965901D01*
X39628Y966233D01*
X40030Y966555D01*
X40440Y966867D01*
X40858Y967169D01*
X41283Y967461D01*
X41715Y967742D01*
X42154Y968012D01*
X42599Y968272D01*
X43051Y968520D01*
X43508Y968758D01*
X43971Y968984D01*
X44440Y969198D01*
X44914Y969401D01*
X45392Y969593D01*
X45875Y969772D01*
X46363Y969940D01*
X46854Y970096D01*
X47349Y970239D01*
X47847Y970371D01*
X48349Y970490D01*
X48853Y970596D01*
X49360Y970691D01*
X49869Y970773D01*
X50379Y970842D01*
X50892Y970899D01*
X51405Y970943D01*
X51920Y970975D01*
X52435Y970994D01*
X52950Y971000D01*
X53465Y970994D01*
X53980Y970975D01*
X54495Y970943D01*
X55008Y970899D01*
X55521Y970842D01*
X56031Y970773D01*
X56540Y970691D01*
X57047Y970596D01*
X57551Y970490D01*
X58053Y970371D01*
X58551Y970239D01*
X59046Y970096D01*
X59537Y969940D01*
X60025Y969772D01*
X60508Y969593D01*
X60986Y969401D01*
X61460Y969198D01*
X61929Y968984D01*
X62392Y968758D01*
X62849Y968520D01*
X63301Y968272D01*
X63746Y968012D01*
X64185Y967742D01*
X64617Y967461D01*
X65042Y967169D01*
X65460Y966867D01*
X65870Y966555D01*
X66272Y966233D01*
X66667Y965901D01*
X67053Y965560D01*
X67430Y965209D01*
X67799Y964849D01*
X68159Y964480D01*
X68510Y964103D01*
X68851Y963717D01*
X69183Y963322D01*
X69505Y962920D01*
X69817Y962510D01*
X70119Y962092D01*
X70411Y961667D01*
X70692Y961235D01*
X70962Y960796D01*
X71222Y960351D01*
X71470Y959899D01*
X71708Y959442D01*
X71934Y958979D01*
X72148Y958510D01*
X72351Y958036D01*
X72543Y957558D01*
X72722Y957075D01*
X72890Y956587D01*
X73046Y956096D01*
X73189Y955601D01*
X73321Y955103D01*
X73440Y954601D01*
X73546Y954097D01*
X73641Y953590D01*
X73723Y953081D01*
X73792Y952571D01*
X73849Y952058D01*
X73893Y951545D01*
X73925Y951030D01*
X73944Y950515D01*
X73950Y950000D01*
X73944Y949485D01*
X73925Y948970D01*
X73893Y948455D01*
X73849Y947942D01*
X73792Y947429D01*
X73723Y946919D01*
X73641Y946410D01*
X73546Y945903D01*
X73440Y945399D01*
X73321Y944897D01*
X73189Y944399D01*
X73046Y943904D01*
X72890Y943413D01*
X72722Y942925D01*
X72543Y942442D01*
X72351Y941964D01*
X72148Y941490D01*
X71934Y941021D01*
X71708Y940558D01*
X71470Y940101D01*
X71222Y939649D01*
X70962Y939204D01*
X70692Y938765D01*
X70411Y938333D01*
X70119Y937908D01*
X69817Y937490D01*
X69505Y937080D01*
X69183Y936678D01*
X68851Y936283D01*
X68510Y935897D01*
X68159Y935520D01*
X67799Y935151D01*
X67430Y934791D01*
X67053Y934440D01*
X66667Y934099D01*
X66272Y933767D01*
X65870Y933445D01*
X65460Y933133D01*
X65042Y932831D01*
X64617Y932539D01*
X64185Y932258D01*
X63746Y931988D01*
X63301Y931728D01*
X62849Y931480D01*
X62392Y931242D01*
X61929Y931016D01*
X61460Y930802D01*
X60986Y930599D01*
X60508Y930407D01*
X60025Y930228D01*
X59537Y930060D01*
X59046Y929904D01*
X58551Y929761D01*
X58053Y929629D01*
X57551Y929510D01*
X57047Y929404D01*
X56540Y929309D01*
X56031Y929227D01*
X55521Y929158D01*
X55008Y929101D01*
X54495Y929057D01*
X53980Y929025D01*
X53465Y929006D01*
X52950Y929000D01*
X52435Y929006D01*
X51920Y929025D01*
X51405Y929057D01*
X50892Y929101D01*
X50379Y929158D01*
X49869Y929227D01*
X49360Y929309D01*
X48853Y929404D01*
X48349Y929510D01*
X47847Y929629D01*
X47349Y929761D01*
X46854Y929904D01*
X46363Y930060D01*
X45875Y930228D01*
X45392Y930407D01*
X44914Y930599D01*
X44440Y930802D01*
X43971Y931016D01*
X43508Y931242D01*
X43051Y931480D01*
X42599Y931728D01*
X42154Y931988D01*
X41715Y932258D01*
X41283Y932539D01*
X40858Y932831D01*
X40440Y933133D01*
X40030Y933445D01*
X39628Y933767D01*
X39233Y934099D01*
X38847Y934440D01*
X38470Y934791D01*
X38101Y935151D01*
X37741Y935520D01*
X37390Y935897D01*
X37049Y936283D01*
X36717Y936678D01*
X36395Y937080D01*
X36083Y937490D01*
X35781Y937908D01*
X35489Y938333D01*
X35208Y938765D01*
X34938Y939204D01*
X34678Y939649D01*
X34430Y940101D01*
X34192Y940558D01*
X33966Y941021D01*
X33752Y941490D01*
X33549Y941964D01*
X33357Y942442D01*
X33178Y942925D01*
X33010Y943413D01*
X32854Y943904D01*
X32711Y944399D01*
X32579Y944897D01*
X32460Y945399D01*
X32354Y945903D01*
X32259Y946410D01*
X32177Y946919D01*
X32108Y947429D01*
X32051Y947942D01*
X32007Y948455D01*
X31975Y948970D01*
X31956Y949485D01*
X31950Y950000D01*
X290769Y223241D02*
X395769Y223241D01*
X283269Y566956D02*
X283287Y568428D01*
X283341Y569900D01*
X283432Y571370D01*
X283558Y572837D01*
X283720Y574301D01*
X283918Y575760D01*
X284152Y577214D01*
X284422Y578661D01*
X284727Y580102D01*
X285067Y581535D01*
X285442Y582959D01*
X285853Y584373D01*
X286297Y585777D01*
X286776Y587169D01*
X287289Y588550D01*
X287836Y589917D01*
X288416Y591270D01*
X289030Y592609D01*
X289676Y593933D01*
X290354Y595240D01*
X291064Y596530D01*
X291805Y597802D01*
X292578Y599056D01*
X293381Y600290D01*
X294214Y601504D01*
X295077Y602698D01*
X295968Y603870D01*
X296888Y605020D01*
X297836Y606146D01*
X298812Y607250D01*
X299814Y608328D01*
X300843Y609382D01*
X301897Y610411D01*
X302975Y611413D01*
X304079Y612389D01*
X305205Y613337D01*
X306355Y614257D01*
X307527Y615148D01*
X308721Y616011D01*
X309935Y616844D01*
X311169Y617647D01*
X312423Y618420D01*
X313695Y619161D01*
X314985Y619871D01*
X316292Y620549D01*
X317616Y621195D01*
X318955Y621809D01*
X320308Y622389D01*
X321675Y622936D01*
X323056Y623449D01*
X324448Y623928D01*
X325852Y624372D01*
X327266Y624783D01*
X328690Y625158D01*
X330123Y625498D01*
X331564Y625803D01*
X333011Y626073D01*
X334465Y626307D01*
X335924Y626505D01*
X337388Y626667D01*
X338855Y626793D01*
X340325Y626884D01*
X341797Y626938D01*
X343269Y626956D01*
X344741Y626938D01*
X346213Y626884D01*
X347683Y626793D01*
X349150Y626667D01*
X350614Y626505D01*
X352073Y626307D01*
X353527Y626073D01*
X354974Y625803D01*
X356415Y625498D01*
X357848Y625158D01*
X359272Y624783D01*
X360686Y624372D01*
X362090Y623928D01*
X363482Y623449D01*
X364863Y622936D01*
X366230Y622389D01*
X367583Y621809D01*
X368922Y621195D01*
X370246Y620549D01*
X371553Y619871D01*
X372843Y619161D01*
X374115Y618420D01*
X375369Y617647D01*
X376603Y616844D01*
X377817Y616011D01*
X379011Y615148D01*
X380183Y614257D01*
X381333Y613337D01*
X382459Y612389D01*
X383563Y611413D01*
X384641Y610411D01*
X385695Y609382D01*
X386724Y608328D01*
X387726Y607250D01*
X388702Y606146D01*
X389650Y605020D01*
X390570Y603870D01*
X391461Y602698D01*
X392324Y601504D01*
X393157Y600290D01*
X393960Y599056D01*
X394733Y597802D01*
X395474Y596530D01*
X396184Y595240D01*
X396862Y593933D01*
X397508Y592609D01*
X398122Y591270D01*
X398702Y589917D01*
X399249Y588550D01*
X399762Y587169D01*
X400241Y585777D01*
X400685Y584373D01*
X401096Y582959D01*
X401471Y581535D01*
X401811Y580102D01*
X402116Y578661D01*
X402386Y577214D01*
X402620Y575760D01*
X402818Y574301D01*
X402980Y572837D01*
X403106Y571370D01*
X403197Y569900D01*
X403251Y568428D01*
X403269Y566956D01*
X403251Y565484D01*
X403197Y564012D01*
X403106Y562542D01*
X402980Y561075D01*
X402818Y559611D01*
X402620Y558152D01*
X402386Y556698D01*
X402116Y555251D01*
X401811Y553810D01*
X401471Y552377D01*
X401096Y550953D01*
X400685Y549539D01*
X400241Y548135D01*
X399762Y546743D01*
X399249Y545362D01*
X398702Y543995D01*
X398122Y542642D01*
X397508Y541303D01*
X396862Y539979D01*
X396184Y538672D01*
X395474Y537382D01*
X394733Y536110D01*
X393960Y534856D01*
X393157Y533622D01*
X392324Y532408D01*
X391461Y531214D01*
X390570Y530042D01*
X389650Y528892D01*
X388702Y527766D01*
X387726Y526662D01*
X386724Y525584D01*
X385695Y524530D01*
X384641Y523501D01*
X383563Y522499D01*
X382459Y521523D01*
X381333Y520575D01*
X380183Y519655D01*
X379011Y518764D01*
X377817Y517901D01*
X376603Y517068D01*
X375369Y516265D01*
X374115Y515492D01*
X372843Y514751D01*
X371553Y514041D01*
X370246Y513363D01*
X368922Y512717D01*
X367583Y512103D01*
X366230Y511523D01*
X364863Y510976D01*
X363482Y510463D01*
X362090Y509984D01*
X360686Y509540D01*
X359272Y509129D01*
X357848Y508754D01*
X356415Y508414D01*
X354974Y508109D01*
X353527Y507839D01*
X352073Y507605D01*
X350614Y507407D01*
X349150Y507245D01*
X347683Y507119D01*
X346213Y507028D01*
X344741Y506974D01*
X343269Y506956D01*
X341797Y506974D01*
X340325Y507028D01*
X338855Y507119D01*
X337388Y507245D01*
X335924Y507407D01*
X334465Y507605D01*
X333011Y507839D01*
X331564Y508109D01*
X330123Y508414D01*
X328690Y508754D01*
X327266Y509129D01*
X325852Y509540D01*
X324448Y509984D01*
X323056Y510463D01*
X321675Y510976D01*
X320308Y511523D01*
X318955Y512103D01*
X317616Y512717D01*
X316292Y513363D01*
X314985Y514041D01*
X313695Y514751D01*
X312423Y515492D01*
X311169Y516265D01*
X309935Y517068D01*
X308721Y517901D01*
X307527Y518764D01*
X306355Y519655D01*
X305205Y520575D01*
X304079Y521523D01*
X302975Y522499D01*
X301897Y523501D01*
X300843Y524530D01*
X299814Y525584D01*
X298812Y526662D01*
X297836Y527766D01*
X296888Y528892D01*
X295968Y530042D01*
X295077Y531214D01*
X294214Y532408D01*
X293381Y533622D01*
X292578Y534856D01*
X291805Y536110D01*
X291064Y537382D01*
X290354Y538672D01*
X289676Y539979D01*
X289030Y541303D01*
X288416Y542642D01*
X287836Y543995D01*
X287289Y545362D01*
X286776Y546743D01*
X286297Y548135D01*
X285853Y549539D01*
X285442Y550953D01*
X285067Y552377D01*
X284727Y553810D01*
X284422Y555251D01*
X284152Y556698D01*
X283918Y558152D01*
X283720Y559611D01*
X283558Y561075D01*
X283432Y562542D01*
X283341Y564012D01*
X283287Y565484D01*
X283269Y566956D01*
X330769Y469241D02*
X330773Y469548D01*
X330784Y469854D01*
X330803Y470161D01*
X330829Y470466D01*
X330863Y470771D01*
X330904Y471075D01*
X330953Y471378D01*
X331009Y471680D01*
X331073Y471980D01*
X331144Y472278D01*
X331222Y472575D01*
X331307Y472870D01*
X331400Y473162D01*
X331500Y473452D01*
X331607Y473740D01*
X331721Y474025D01*
X331841Y474307D01*
X331969Y474585D01*
X332104Y474861D01*
X332245Y475133D01*
X332393Y475402D01*
X332547Y475667D01*
X332708Y475928D01*
X332876Y476186D01*
X333049Y476439D01*
X333229Y476687D01*
X333415Y476931D01*
X333606Y477171D01*
X333804Y477406D01*
X334007Y477635D01*
X334216Y477860D01*
X334430Y478080D01*
X334650Y478294D01*
X334875Y478503D01*
X335104Y478706D01*
X335339Y478904D01*
X335579Y479095D01*
X335823Y479281D01*
X336071Y479461D01*
X336324Y479634D01*
X336582Y479802D01*
X336843Y479963D01*
X337108Y480117D01*
X337377Y480265D01*
X337649Y480406D01*
X337925Y480541D01*
X338203Y480669D01*
X338485Y480789D01*
X338770Y480903D01*
X339058Y481010D01*
X339348Y481110D01*
X339640Y481203D01*
X339935Y481288D01*
X340232Y481366D01*
X340530Y481437D01*
X340830Y481501D01*
X341132Y481557D01*
X341435Y481606D01*
X341739Y481647D01*
X342044Y481681D01*
X342349Y481707D01*
X342656Y481726D01*
X342962Y481737D01*
X343269Y481741D01*
X343576Y481737D01*
X343882Y481726D01*
X344189Y481707D01*
X344494Y481681D01*
X344799Y481647D01*
X345103Y481606D01*
X345406Y481557D01*
X345708Y481501D01*
X346008Y481437D01*
X346306Y481366D01*
X346603Y481288D01*
X346898Y481203D01*
X347190Y481110D01*
X347480Y481010D01*
X347768Y480903D01*
X348053Y480789D01*
X348335Y480669D01*
X348613Y480541D01*
X348889Y480406D01*
X349161Y480265D01*
X349430Y480117D01*
X349695Y479963D01*
X349956Y479802D01*
X350214Y479634D01*
X350467Y479461D01*
X350715Y479281D01*
X350959Y479095D01*
X351199Y478904D01*
X351434Y478706D01*
X351663Y478503D01*
X351888Y478294D01*
X352108Y478080D01*
X352322Y477860D01*
X352531Y477635D01*
X352734Y477406D01*
X352932Y477171D01*
X353123Y476931D01*
X353309Y476687D01*
X353489Y476439D01*
X353662Y476186D01*
X353830Y475928D01*
X353991Y475667D01*
X354145Y475402D01*
X354293Y475133D01*
X354434Y474861D01*
X354569Y474585D01*
X354697Y474307D01*
X354817Y474025D01*
X354931Y473740D01*
X355038Y473452D01*
X355138Y473162D01*
X355231Y472870D01*
X355316Y472575D01*
X355394Y472278D01*
X355465Y471980D01*
X355529Y471680D01*
X355585Y471378D01*
X355634Y471075D01*
X355675Y470771D01*
X355709Y470466D01*
X355735Y470161D01*
X355754Y469854D01*
X355765Y469548D01*
X355769Y469241D01*
X355765Y468934D01*
X355754Y468628D01*
X355735Y468321D01*
X355709Y468016D01*
X355675Y467711D01*
X355634Y467407D01*
X355585Y467104D01*
X355529Y466802D01*
X355465Y466502D01*
X355394Y466204D01*
X355316Y465907D01*
X355231Y465612D01*
X355138Y465320D01*
X355038Y465030D01*
X354931Y464742D01*
X354817Y464457D01*
X354697Y464175D01*
X354569Y463897D01*
X354434Y463621D01*
X354293Y463349D01*
X354145Y463080D01*
X353991Y462815D01*
X353830Y462554D01*
X353662Y462296D01*
X353489Y462043D01*
X353309Y461795D01*
X353123Y461551D01*
X352932Y461311D01*
X352734Y461076D01*
X352531Y460847D01*
X352322Y460622D01*
X352108Y460402D01*
X351888Y460188D01*
X351663Y459979D01*
X351434Y459776D01*
X351199Y459578D01*
X350959Y459387D01*
X350715Y459201D01*
X350467Y459021D01*
X350214Y458848D01*
X349956Y458680D01*
X349695Y458519D01*
X349430Y458365D01*
X349161Y458217D01*
X348889Y458076D01*
X348613Y457941D01*
X348335Y457813D01*
X348053Y457693D01*
X347768Y457579D01*
X347480Y457472D01*
X347190Y457372D01*
X346898Y457279D01*
X346603Y457194D01*
X346306Y457116D01*
X346008Y457045D01*
X345708Y456981D01*
X345406Y456925D01*
X345103Y456876D01*
X344799Y456835D01*
X344494Y456801D01*
X344189Y456775D01*
X343882Y456756D01*
X343576Y456745D01*
X343269Y456741D01*
X342962Y456745D01*
X342656Y456756D01*
X342349Y456775D01*
X342044Y456801D01*
X341739Y456835D01*
X341435Y456876D01*
X341132Y456925D01*
X340830Y456981D01*
X340530Y457045D01*
X340232Y457116D01*
X339935Y457194D01*
X339640Y457279D01*
X339348Y457372D01*
X339058Y457472D01*
X338770Y457579D01*
X338485Y457693D01*
X338203Y457813D01*
X337925Y457941D01*
X337649Y458076D01*
X337377Y458217D01*
X337108Y458365D01*
X336843Y458519D01*
X336582Y458680D01*
X336324Y458848D01*
X336071Y459021D01*
X335823Y459201D01*
X335579Y459387D01*
X335339Y459578D01*
X335104Y459776D01*
X334875Y459979D01*
X334650Y460188D01*
X334430Y460402D01*
X334216Y460622D01*
X334007Y460847D01*
X333804Y461076D01*
X333606Y461311D01*
X333415Y461551D01*
X333229Y461795D01*
X333049Y462043D01*
X332876Y462296D01*
X332708Y462554D01*
X332547Y462815D01*
X332393Y463080D01*
X332245Y463349D01*
X332104Y463621D01*
X331969Y463897D01*
X331841Y464175D01*
X331721Y464457D01*
X331607Y464742D01*
X331500Y465030D01*
X331400Y465320D01*
X331307Y465612D01*
X331222Y465907D01*
X331144Y466204D01*
X331073Y466502D01*
X331009Y466802D01*
X330953Y467104D01*
X330904Y467407D01*
X330863Y467711D01*
X330829Y468016D01*
X330803Y468321D01*
X330784Y468628D01*
X330773Y468934D01*
X330769Y469241D01*
X290769Y451241D02*
X395769Y451241D01*
X163088Y451241D02*
X163099Y452161D01*
X163133Y453081D01*
X163190Y454000D01*
X163269Y454917D01*
X163370Y455831D01*
X163494Y456743D01*
X163640Y457652D01*
X163809Y458557D01*
X163999Y459457D01*
X164212Y460353D01*
X164446Y461243D01*
X164703Y462127D01*
X164981Y463004D01*
X165280Y463874D01*
X165601Y464737D01*
X165943Y465592D01*
X166305Y466438D01*
X166688Y467274D01*
X167092Y468101D01*
X167516Y468918D01*
X167960Y469725D01*
X168423Y470520D01*
X168906Y471303D01*
X169408Y472075D01*
X169929Y472834D01*
X170468Y473580D01*
X171025Y474312D01*
X171600Y475031D01*
X172193Y475735D01*
X172802Y476424D01*
X173429Y477099D01*
X174071Y477758D01*
X174730Y478400D01*
X175405Y479027D01*
X176094Y479636D01*
X176798Y480229D01*
X177517Y480804D01*
X178249Y481361D01*
X178995Y481900D01*
X179754Y482421D01*
X180526Y482923D01*
X181309Y483406D01*
X182104Y483869D01*
X182911Y484313D01*
X183728Y484737D01*
X184555Y485141D01*
X185391Y485524D01*
X186237Y485886D01*
X187092Y486228D01*
X187955Y486549D01*
X188825Y486848D01*
X189702Y487126D01*
X190586Y487383D01*
X191476Y487617D01*
X192372Y487830D01*
X193272Y488020D01*
X194177Y488189D01*
X195086Y488335D01*
X195998Y488459D01*
X196912Y488560D01*
X197829Y488639D01*
X198748Y488696D01*
X199668Y488730D01*
X200588Y488741D01*
X201508Y488730D01*
X202428Y488696D01*
X203347Y488639D01*
X204264Y488560D01*
X205178Y488459D01*
X206090Y488335D01*
X206999Y488189D01*
X207904Y488020D01*
X208804Y487830D01*
X209700Y487617D01*
X210590Y487383D01*
X211474Y487126D01*
X212351Y486848D01*
X213221Y486549D01*
X214084Y486228D01*
X214939Y485886D01*
X215785Y485524D01*
X216621Y485141D01*
X217448Y484737D01*
X218265Y484313D01*
X219072Y483869D01*
X219867Y483406D01*
X220650Y482923D01*
X221422Y482421D01*
X222181Y481900D01*
X222927Y481361D01*
X223659Y480804D01*
X224378Y480229D01*
X225082Y479636D01*
X225771Y479027D01*
X226446Y478400D01*
X227105Y477758D01*
X227747Y477099D01*
X228374Y476424D01*
X228983Y475735D01*
X229576Y475031D01*
X230151Y474312D01*
X230708Y473580D01*
X231247Y472834D01*
X231768Y472075D01*
X232270Y471303D01*
X232753Y470520D01*
X233216Y469725D01*
X233660Y468918D01*
X234084Y468101D01*
X234488Y467274D01*
X234871Y466438D01*
X235233Y465592D01*
X235575Y464737D01*
X235896Y463874D01*
X236195Y463004D01*
X236473Y462127D01*
X236730Y461243D01*
X236964Y460353D01*
X237177Y459457D01*
X237367Y458557D01*
X237536Y457652D01*
X237682Y456743D01*
X237806Y455831D01*
X237907Y454917D01*
X237986Y454000D01*
X238043Y453081D01*
X238077Y452161D01*
X238088Y451241D01*
X238077Y450321D01*
X238043Y449401D01*
X237986Y448482D01*
X237907Y447565D01*
X237806Y446651D01*
X237682Y445739D01*
X237536Y444830D01*
X237367Y443925D01*
X237177Y443025D01*
X236964Y442129D01*
X236730Y441239D01*
X236473Y440355D01*
X236195Y439478D01*
X235896Y438608D01*
X235575Y437745D01*
X235233Y436890D01*
X234871Y436044D01*
X234488Y435208D01*
X234084Y434381D01*
X233660Y433564D01*
X233216Y432757D01*
X232753Y431962D01*
X232270Y431179D01*
X231768Y430407D01*
X231247Y429648D01*
X230708Y428902D01*
X230151Y428170D01*
X229576Y427451D01*
X228983Y426747D01*
X228374Y426058D01*
X227747Y425383D01*
X227105Y424724D01*
X226446Y424082D01*
X225771Y423455D01*
X225082Y422846D01*
X224378Y422253D01*
X223659Y421678D01*
X222927Y421121D01*
X222181Y420582D01*
X221422Y420061D01*
X220650Y419559D01*
X219867Y419076D01*
X219072Y418613D01*
X218265Y418169D01*
X217448Y417745D01*
X216621Y417341D01*
X215785Y416958D01*
X214939Y416596D01*
X214084Y416254D01*
X213221Y415933D01*
X212351Y415634D01*
X211474Y415356D01*
X210590Y415099D01*
X209700Y414865D01*
X208804Y414652D01*
X207904Y414462D01*
X206999Y414293D01*
X206090Y414147D01*
X205178Y414023D01*
X204264Y413922D01*
X203347Y413843D01*
X202428Y413786D01*
X201508Y413752D01*
X200588Y413741D01*
X199668Y413752D01*
X198748Y413786D01*
X197829Y413843D01*
X196912Y413922D01*
X195998Y414023D01*
X195086Y414147D01*
X194177Y414293D01*
X193272Y414462D01*
X192372Y414652D01*
X191476Y414865D01*
X190586Y415099D01*
X189702Y415356D01*
X188825Y415634D01*
X187955Y415933D01*
X187092Y416254D01*
X186237Y416596D01*
X185391Y416958D01*
X184555Y417341D01*
X183728Y417745D01*
X182911Y418169D01*
X182104Y418613D01*
X181309Y419076D01*
X180526Y419559D01*
X179754Y420061D01*
X178995Y420582D01*
X178249Y421121D01*
X177517Y421678D01*
X176798Y422253D01*
X176094Y422846D01*
X175405Y423455D01*
X174730Y424082D01*
X174071Y424724D01*
X173429Y425383D01*
X172802Y426058D01*
X172193Y426747D01*
X171600Y427451D01*
X171025Y428170D01*
X170468Y428902D01*
X169929Y429648D01*
X169408Y430407D01*
X168906Y431179D01*
X168423Y431962D01*
X167960Y432757D01*
X167516Y433564D01*
X167092Y434381D01*
X166688Y435208D01*
X166305Y436044D01*
X165943Y436890D01*
X165601Y437745D01*
X165280Y438608D01*
X164981Y439478D01*
X164703Y440355D01*
X164446Y441239D01*
X164212Y442129D01*
X163999Y443025D01*
X163809Y443925D01*
X163640Y444830D01*
X163494Y445739D01*
X163370Y446651D01*
X163269Y447565D01*
X163190Y448482D01*
X163133Y449401D01*
X163099Y450321D01*
X163088Y451241D01*
D12*
X447230Y790265D02*
X447230Y798465D01*
X459930Y798465D02*
X459930Y790265D01*
D13*
X453565Y787051D03*
X453565Y801783D03*
D10*
X444309Y782440D02*
X436999Y780351D01*
X436999Y785572D01*
X439088Y784006D02*
X434911Y784006D01*
X434911Y789102D02*
X435433Y789102D01*
X435433Y789624D01*
X434911Y789624D01*
X434911Y789102D01*
X443265Y793153D02*
X444309Y793153D01*
X444309Y798374D01*
X434911Y795763D01*
X434911Y802733D02*
X444309Y802733D01*
X444309Y807954D02*
X438566Y802733D01*
X440654Y804821D02*
X434911Y807954D01*
D12*
X447630Y650750D02*
X447630Y642550D01*
X460330Y642550D02*
X460330Y650750D01*
D13*
X453965Y639336D03*
X453965Y654068D03*
D10*
X444709Y634725D02*
X437399Y632636D01*
X437399Y637857D01*
X439488Y636291D02*
X435311Y636291D01*
X435311Y641387D02*
X435833Y641387D01*
X435833Y641909D01*
X435311Y641909D01*
X435311Y641387D01*
X443665Y645438D02*
X444709Y645438D01*
X444709Y650659D01*
X435311Y648048D01*
X435311Y655018D02*
X444709Y655018D01*
X444709Y660239D02*
X438966Y655018D01*
X441054Y657106D02*
X435311Y660239D01*
D14*
X395800Y663750D02*
X395803Y663971D01*
X395811Y664192D01*
X395824Y664412D01*
X395843Y664632D01*
X395868Y664852D01*
X395897Y665071D01*
X395933Y665289D01*
X395973Y665506D01*
X396019Y665722D01*
X396070Y665937D01*
X396126Y666150D01*
X396188Y666363D01*
X396254Y666573D01*
X396326Y666782D01*
X396403Y666989D01*
X396485Y667194D01*
X396572Y667397D01*
X396664Y667598D01*
X396761Y667797D01*
X396863Y667993D01*
X396969Y668186D01*
X397080Y668377D01*
X397196Y668565D01*
X397317Y668750D01*
X397442Y668932D01*
X397571Y669111D01*
X397705Y669287D01*
X397843Y669460D01*
X397985Y669629D01*
X398131Y669794D01*
X398282Y669956D01*
X398436Y670114D01*
X398594Y670268D01*
X398756Y670419D01*
X398921Y670565D01*
X399090Y670707D01*
X399263Y670845D01*
X399439Y670979D01*
X399618Y671108D01*
X399800Y671233D01*
X399985Y671354D01*
X400173Y671470D01*
X400364Y671581D01*
X400557Y671687D01*
X400753Y671789D01*
X400952Y671886D01*
X401153Y671978D01*
X401356Y672065D01*
X401561Y672147D01*
X401768Y672224D01*
X401977Y672296D01*
X402187Y672362D01*
X402400Y672424D01*
X402613Y672480D01*
X402828Y672531D01*
X403044Y672577D01*
X403261Y672617D01*
X403479Y672653D01*
X403698Y672682D01*
X403918Y672707D01*
X404138Y672726D01*
X404358Y672739D01*
X404579Y672747D01*
X404800Y672750D01*
X405021Y672747D01*
X405242Y672739D01*
X405462Y672726D01*
X405682Y672707D01*
X405902Y672682D01*
X406121Y672653D01*
X406339Y672617D01*
X406556Y672577D01*
X406772Y672531D01*
X406987Y672480D01*
X407200Y672424D01*
X407413Y672362D01*
X407623Y672296D01*
X407832Y672224D01*
X408039Y672147D01*
X408244Y672065D01*
X408447Y671978D01*
X408648Y671886D01*
X408847Y671789D01*
X409043Y671687D01*
X409236Y671581D01*
X409427Y671470D01*
X409615Y671354D01*
X409800Y671233D01*
X409982Y671108D01*
X410161Y670979D01*
X410337Y670845D01*
X410510Y670707D01*
X410679Y670565D01*
X410844Y670419D01*
X411006Y670268D01*
X411164Y670114D01*
X411318Y669956D01*
X411469Y669794D01*
X411615Y669629D01*
X411757Y669460D01*
X411895Y669287D01*
X412029Y669111D01*
X412158Y668932D01*
X412283Y668750D01*
X412404Y668565D01*
X412520Y668377D01*
X412631Y668186D01*
X412737Y667993D01*
X412839Y667797D01*
X412936Y667598D01*
X413028Y667397D01*
X413115Y667194D01*
X413197Y666989D01*
X413274Y666782D01*
X413346Y666573D01*
X413412Y666363D01*
X413474Y666150D01*
X413530Y665937D01*
X413581Y665722D01*
X413627Y665506D01*
X413667Y665289D01*
X413703Y665071D01*
X413732Y664852D01*
X413757Y664632D01*
X413776Y664412D01*
X413789Y664192D01*
X413797Y663971D01*
X413800Y663750D01*
X413797Y663529D01*
X413789Y663308D01*
X413776Y663088D01*
X413757Y662868D01*
X413732Y662648D01*
X413703Y662429D01*
X413667Y662211D01*
X413627Y661994D01*
X413581Y661778D01*
X413530Y661563D01*
X413474Y661350D01*
X413412Y661137D01*
X413346Y660927D01*
X413274Y660718D01*
X413197Y660511D01*
X413115Y660306D01*
X413028Y660103D01*
X412936Y659902D01*
X412839Y659703D01*
X412737Y659507D01*
X412631Y659314D01*
X412520Y659123D01*
X412404Y658935D01*
X412283Y658750D01*
X412158Y658568D01*
X412029Y658389D01*
X411895Y658213D01*
X411757Y658040D01*
X411615Y657871D01*
X411469Y657706D01*
X411318Y657544D01*
X411164Y657386D01*
X411006Y657232D01*
X410844Y657081D01*
X410679Y656935D01*
X410510Y656793D01*
X410337Y656655D01*
X410161Y656521D01*
X409982Y656392D01*
X409800Y656267D01*
X409615Y656146D01*
X409427Y656030D01*
X409236Y655919D01*
X409043Y655813D01*
X408847Y655711D01*
X408648Y655614D01*
X408447Y655522D01*
X408244Y655435D01*
X408039Y655353D01*
X407832Y655276D01*
X407623Y655204D01*
X407413Y655138D01*
X407200Y655076D01*
X406987Y655020D01*
X406772Y654969D01*
X406556Y654923D01*
X406339Y654883D01*
X406121Y654847D01*
X405902Y654818D01*
X405682Y654793D01*
X405462Y654774D01*
X405242Y654761D01*
X405021Y654753D01*
X404800Y654750D01*
X404579Y654753D01*
X404358Y654761D01*
X404138Y654774D01*
X403918Y654793D01*
X403698Y654818D01*
X403479Y654847D01*
X403261Y654883D01*
X403044Y654923D01*
X402828Y654969D01*
X402613Y655020D01*
X402400Y655076D01*
X402187Y655138D01*
X401977Y655204D01*
X401768Y655276D01*
X401561Y655353D01*
X401356Y655435D01*
X401153Y655522D01*
X400952Y655614D01*
X400753Y655711D01*
X400557Y655813D01*
X400364Y655919D01*
X400173Y656030D01*
X399985Y656146D01*
X399800Y656267D01*
X399618Y656392D01*
X399439Y656521D01*
X399263Y656655D01*
X399090Y656793D01*
X398921Y656935D01*
X398756Y657081D01*
X398594Y657232D01*
X398436Y657386D01*
X398282Y657544D01*
X398131Y657706D01*
X397985Y657871D01*
X397843Y658040D01*
X397705Y658213D01*
X397571Y658389D01*
X397442Y658568D01*
X397317Y658750D01*
X397196Y658935D01*
X397080Y659123D01*
X396969Y659314D01*
X396863Y659507D01*
X396761Y659703D01*
X396664Y659902D01*
X396572Y660103D01*
X396485Y660306D01*
X396403Y660511D01*
X396326Y660718D01*
X396254Y660927D01*
X396188Y661137D01*
X396126Y661350D01*
X396070Y661563D01*
X396019Y661778D01*
X395973Y661994D01*
X395933Y662211D01*
X395897Y662429D01*
X395868Y662648D01*
X395843Y662868D01*
X395824Y663088D01*
X395811Y663308D01*
X395803Y663529D01*
X395800Y663750D01*
D12*
X49554Y785776D02*
X36346Y785776D01*
X49554Y785776D02*
X49554Y814224D01*
X36346Y814224D01*
X36346Y785776D01*
D15*
X32917Y800000D03*
X52983Y790602D03*
X52983Y809398D03*
D12*
X49554Y645776D02*
X36346Y645776D01*
X49554Y645776D02*
X49554Y674224D01*
X36346Y674224D01*
X36346Y645776D01*
D15*
X32917Y660000D03*
X52983Y650602D03*
X52983Y669398D03*
D12*
X89300Y682888D02*
X89300Y697112D01*
X76600Y697112D02*
X76600Y682888D01*
D16*
X82950Y681364D03*
X82950Y698636D03*
D10*
X98119Y677681D02*
X105429Y679769D01*
X98119Y677681D02*
X98119Y682902D01*
X100208Y681336D02*
X96031Y681336D01*
X96031Y686431D02*
X96553Y686431D01*
X96553Y686953D01*
X96031Y686953D01*
X96031Y686431D01*
X104385Y690483D02*
X105429Y690483D01*
X105429Y695704D01*
X96031Y693093D01*
X96031Y699949D02*
X105429Y699949D01*
X102296Y704126D02*
X99164Y699949D01*
X100469Y701776D02*
X96031Y704126D01*
D12*
X89300Y832888D02*
X89300Y847112D01*
X76600Y847112D02*
X76600Y832888D01*
D16*
X82950Y831364D03*
X82950Y848636D03*
D10*
X98119Y827681D02*
X105429Y829769D01*
X98119Y827681D02*
X98119Y832902D01*
X100208Y831336D02*
X96031Y831336D01*
X96031Y836431D02*
X96553Y836431D01*
X96553Y836953D01*
X96031Y836953D01*
X96031Y836431D01*
X104385Y840483D02*
X105429Y840483D01*
X105429Y845704D01*
X96031Y843093D01*
X96031Y849949D02*
X105429Y849949D01*
X102296Y854126D02*
X99164Y849949D01*
X100469Y851776D02*
X96031Y854126D01*
D17*
X14150Y156250D02*
X14150Y80050D01*
X64950Y80050D01*
X64950Y92750D01*
X64950Y143550D01*
X64950Y156250D01*
X14150Y156250D01*
X52250Y143550D02*
X64950Y143550D01*
X52250Y143550D02*
X52250Y92750D01*
X64950Y92750D01*
D18*
X71808Y76884D02*
X83492Y76884D01*
X71808Y76884D02*
X71808Y82076D01*
X71808Y87346D02*
X83492Y87346D01*
X71808Y86047D02*
X71808Y88644D01*
X83492Y88644D02*
X83492Y86047D01*
X83492Y93794D02*
X71808Y93794D01*
X83492Y93794D02*
X83492Y97040D01*
X83490Y97153D01*
X83484Y97266D01*
X83474Y97379D01*
X83460Y97492D01*
X83443Y97604D01*
X83421Y97715D01*
X83396Y97825D01*
X83366Y97935D01*
X83333Y98043D01*
X83296Y98150D01*
X83256Y98256D01*
X83211Y98360D01*
X83163Y98463D01*
X83112Y98564D01*
X83057Y98663D01*
X82999Y98760D01*
X82937Y98855D01*
X82872Y98948D01*
X82804Y99038D01*
X82733Y99126D01*
X82658Y99212D01*
X82581Y99295D01*
X82501Y99375D01*
X82418Y99452D01*
X82332Y99527D01*
X82244Y99598D01*
X82154Y99666D01*
X82061Y99731D01*
X81966Y99793D01*
X81869Y99851D01*
X81770Y99906D01*
X81669Y99957D01*
X81566Y100005D01*
X81462Y100050D01*
X81356Y100090D01*
X81249Y100127D01*
X81141Y100160D01*
X81031Y100190D01*
X80921Y100215D01*
X80810Y100237D01*
X80698Y100254D01*
X80585Y100268D01*
X80472Y100278D01*
X80359Y100284D01*
X80246Y100286D01*
X80133Y100284D01*
X80020Y100278D01*
X79907Y100268D01*
X79794Y100254D01*
X79682Y100237D01*
X79571Y100215D01*
X79461Y100190D01*
X79351Y100160D01*
X79243Y100127D01*
X79136Y100090D01*
X79030Y100050D01*
X78926Y100005D01*
X78823Y99957D01*
X78722Y99906D01*
X78623Y99851D01*
X78526Y99793D01*
X78431Y99731D01*
X78338Y99666D01*
X78248Y99598D01*
X78160Y99527D01*
X78074Y99452D01*
X77991Y99375D01*
X77911Y99295D01*
X77834Y99212D01*
X77759Y99126D01*
X77688Y99038D01*
X77620Y98948D01*
X77555Y98855D01*
X77493Y98760D01*
X77435Y98663D01*
X77380Y98564D01*
X77329Y98463D01*
X77281Y98360D01*
X77236Y98256D01*
X77196Y98150D01*
X77159Y98043D01*
X77126Y97935D01*
X77096Y97825D01*
X77071Y97715D01*
X77049Y97604D01*
X77032Y97492D01*
X77018Y97379D01*
X77008Y97266D01*
X77002Y97153D01*
X77000Y97040D01*
X77001Y97040D02*
X77001Y93794D01*
X75054Y104674D02*
X80246Y104674D01*
X80246Y104673D02*
X80359Y104675D01*
X80472Y104681D01*
X80585Y104691D01*
X80698Y104705D01*
X80810Y104722D01*
X80921Y104744D01*
X81031Y104769D01*
X81141Y104799D01*
X81249Y104832D01*
X81356Y104869D01*
X81462Y104909D01*
X81566Y104954D01*
X81669Y105002D01*
X81770Y105053D01*
X81869Y105108D01*
X81966Y105166D01*
X82061Y105228D01*
X82154Y105293D01*
X82244Y105361D01*
X82332Y105432D01*
X82418Y105507D01*
X82501Y105584D01*
X82581Y105664D01*
X82658Y105747D01*
X82733Y105833D01*
X82804Y105921D01*
X82872Y106011D01*
X82937Y106104D01*
X82999Y106199D01*
X83057Y106296D01*
X83112Y106395D01*
X83163Y106496D01*
X83211Y106599D01*
X83256Y106703D01*
X83296Y106809D01*
X83333Y106916D01*
X83366Y107024D01*
X83396Y107134D01*
X83421Y107244D01*
X83443Y107355D01*
X83460Y107467D01*
X83474Y107580D01*
X83484Y107693D01*
X83490Y107806D01*
X83492Y107919D01*
X83490Y108032D01*
X83484Y108145D01*
X83474Y108258D01*
X83460Y108371D01*
X83443Y108483D01*
X83421Y108594D01*
X83396Y108704D01*
X83366Y108814D01*
X83333Y108922D01*
X83296Y109029D01*
X83256Y109135D01*
X83211Y109239D01*
X83163Y109342D01*
X83112Y109443D01*
X83057Y109542D01*
X82999Y109639D01*
X82937Y109734D01*
X82872Y109827D01*
X82804Y109917D01*
X82733Y110005D01*
X82658Y110091D01*
X82581Y110174D01*
X82501Y110254D01*
X82418Y110331D01*
X82332Y110406D01*
X82244Y110477D01*
X82154Y110545D01*
X82061Y110610D01*
X81966Y110672D01*
X81869Y110730D01*
X81770Y110785D01*
X81669Y110836D01*
X81566Y110884D01*
X81462Y110929D01*
X81356Y110969D01*
X81249Y111006D01*
X81141Y111039D01*
X81031Y111069D01*
X80921Y111094D01*
X80810Y111116D01*
X80698Y111133D01*
X80585Y111147D01*
X80472Y111157D01*
X80359Y111163D01*
X80246Y111165D01*
X75054Y111165D01*
X74941Y111163D01*
X74828Y111157D01*
X74715Y111147D01*
X74602Y111133D01*
X74490Y111116D01*
X74379Y111094D01*
X74269Y111069D01*
X74159Y111039D01*
X74051Y111006D01*
X73944Y110969D01*
X73838Y110929D01*
X73734Y110884D01*
X73631Y110836D01*
X73530Y110785D01*
X73431Y110730D01*
X73334Y110672D01*
X73239Y110610D01*
X73146Y110545D01*
X73056Y110477D01*
X72968Y110406D01*
X72882Y110331D01*
X72799Y110254D01*
X72719Y110174D01*
X72642Y110091D01*
X72567Y110005D01*
X72496Y109917D01*
X72428Y109827D01*
X72363Y109734D01*
X72301Y109639D01*
X72243Y109542D01*
X72188Y109443D01*
X72137Y109342D01*
X72089Y109239D01*
X72044Y109135D01*
X72004Y109029D01*
X71967Y108922D01*
X71934Y108814D01*
X71904Y108704D01*
X71879Y108594D01*
X71857Y108483D01*
X71840Y108371D01*
X71826Y108258D01*
X71816Y108145D01*
X71810Y108032D01*
X71808Y107919D01*
X71810Y107806D01*
X71816Y107693D01*
X71826Y107580D01*
X71840Y107467D01*
X71857Y107355D01*
X71879Y107244D01*
X71904Y107134D01*
X71934Y107024D01*
X71967Y106916D01*
X72004Y106809D01*
X72044Y106703D01*
X72089Y106599D01*
X72137Y106496D01*
X72188Y106395D01*
X72243Y106296D01*
X72301Y106199D01*
X72363Y106104D01*
X72428Y106011D01*
X72496Y105921D01*
X72567Y105833D01*
X72642Y105747D01*
X72719Y105664D01*
X72799Y105584D01*
X72882Y105507D01*
X72968Y105432D01*
X73056Y105361D01*
X73146Y105293D01*
X73239Y105228D01*
X73334Y105166D01*
X73431Y105108D01*
X73530Y105053D01*
X73631Y105002D01*
X73734Y104954D01*
X73838Y104909D01*
X73944Y104869D01*
X74051Y104832D01*
X74159Y104799D01*
X74269Y104769D01*
X74379Y104744D01*
X74490Y104722D01*
X74602Y104705D01*
X74715Y104691D01*
X74828Y104681D01*
X74941Y104675D01*
X75054Y104673D01*
X76352Y116217D02*
X76352Y124006D01*
X71808Y129462D02*
X83492Y129462D01*
X71808Y129462D02*
X71808Y134654D01*
X71808Y139368D02*
X71808Y144560D01*
X71808Y139368D02*
X83492Y139368D01*
X83492Y144560D01*
X78299Y143262D02*
X78299Y139368D01*
X83492Y149251D02*
X71808Y149251D01*
X83492Y149251D02*
X83492Y152496D01*
X83490Y152609D01*
X83484Y152722D01*
X83474Y152835D01*
X83460Y152948D01*
X83443Y153060D01*
X83421Y153171D01*
X83396Y153281D01*
X83366Y153391D01*
X83333Y153499D01*
X83296Y153606D01*
X83256Y153712D01*
X83211Y153816D01*
X83163Y153919D01*
X83112Y154020D01*
X83057Y154119D01*
X82999Y154216D01*
X82937Y154311D01*
X82872Y154404D01*
X82804Y154494D01*
X82733Y154582D01*
X82658Y154668D01*
X82581Y154751D01*
X82501Y154831D01*
X82418Y154908D01*
X82332Y154983D01*
X82244Y155054D01*
X82154Y155122D01*
X82061Y155187D01*
X81966Y155249D01*
X81869Y155307D01*
X81770Y155362D01*
X81669Y155413D01*
X81566Y155461D01*
X81462Y155506D01*
X81356Y155546D01*
X81249Y155583D01*
X81141Y155616D01*
X81031Y155646D01*
X80921Y155671D01*
X80810Y155693D01*
X80698Y155710D01*
X80585Y155724D01*
X80472Y155734D01*
X80359Y155740D01*
X80246Y155742D01*
X75054Y155742D01*
X74941Y155740D01*
X74828Y155734D01*
X74715Y155724D01*
X74602Y155710D01*
X74490Y155693D01*
X74379Y155671D01*
X74269Y155646D01*
X74159Y155616D01*
X74051Y155583D01*
X73944Y155546D01*
X73838Y155506D01*
X73734Y155461D01*
X73631Y155413D01*
X73530Y155362D01*
X73431Y155307D01*
X73334Y155249D01*
X73239Y155187D01*
X73146Y155122D01*
X73056Y155054D01*
X72968Y154983D01*
X72882Y154908D01*
X72799Y154831D01*
X72719Y154751D01*
X72642Y154668D01*
X72567Y154582D01*
X72496Y154494D01*
X72428Y154404D01*
X72363Y154311D01*
X72301Y154216D01*
X72243Y154119D01*
X72188Y154020D01*
X72137Y153919D01*
X72089Y153816D01*
X72044Y153712D01*
X72004Y153606D01*
X71967Y153499D01*
X71934Y153391D01*
X71904Y153281D01*
X71879Y153171D01*
X71857Y153060D01*
X71840Y152948D01*
X71826Y152835D01*
X71816Y152722D01*
X71810Y152609D01*
X71808Y152496D01*
X71808Y149251D01*
D17*
X153850Y549400D02*
X230050Y549400D01*
X153850Y549400D02*
X153850Y498600D01*
X166550Y498600D01*
X217350Y498600D01*
X230050Y498600D01*
X230050Y549400D01*
X217350Y511300D02*
X217350Y498600D01*
X217350Y511300D02*
X166550Y511300D01*
X166550Y498600D01*
D18*
X148592Y449605D02*
X136908Y449605D01*
X142101Y453500D02*
X148592Y449605D01*
X142101Y453500D02*
X148592Y457394D01*
X136908Y457394D01*
X140154Y462827D02*
X145346Y462827D01*
X145459Y462829D01*
X145572Y462835D01*
X145685Y462845D01*
X145798Y462859D01*
X145910Y462876D01*
X146021Y462898D01*
X146131Y462923D01*
X146241Y462953D01*
X146349Y462986D01*
X146456Y463023D01*
X146562Y463063D01*
X146666Y463108D01*
X146769Y463156D01*
X146870Y463207D01*
X146969Y463262D01*
X147066Y463320D01*
X147161Y463382D01*
X147254Y463447D01*
X147344Y463515D01*
X147432Y463586D01*
X147518Y463661D01*
X147601Y463738D01*
X147681Y463818D01*
X147758Y463901D01*
X147833Y463987D01*
X147904Y464075D01*
X147972Y464165D01*
X148037Y464258D01*
X148099Y464353D01*
X148157Y464450D01*
X148212Y464549D01*
X148263Y464650D01*
X148311Y464753D01*
X148356Y464857D01*
X148396Y464963D01*
X148433Y465070D01*
X148466Y465178D01*
X148496Y465288D01*
X148521Y465398D01*
X148543Y465509D01*
X148560Y465621D01*
X148574Y465734D01*
X148584Y465847D01*
X148590Y465960D01*
X148592Y466073D01*
X148590Y466186D01*
X148584Y466299D01*
X148574Y466412D01*
X148560Y466525D01*
X148543Y466637D01*
X148521Y466748D01*
X148496Y466858D01*
X148466Y466968D01*
X148433Y467076D01*
X148396Y467183D01*
X148356Y467289D01*
X148311Y467393D01*
X148263Y467496D01*
X148212Y467597D01*
X148157Y467696D01*
X148099Y467793D01*
X148037Y467888D01*
X147972Y467981D01*
X147904Y468071D01*
X147833Y468159D01*
X147758Y468245D01*
X147681Y468328D01*
X147601Y468408D01*
X147518Y468485D01*
X147432Y468560D01*
X147344Y468631D01*
X147254Y468699D01*
X147161Y468764D01*
X147066Y468826D01*
X146969Y468884D01*
X146870Y468939D01*
X146769Y468990D01*
X146666Y469038D01*
X146562Y469083D01*
X146456Y469123D01*
X146349Y469160D01*
X146241Y469193D01*
X146131Y469223D01*
X146021Y469248D01*
X145910Y469270D01*
X145798Y469287D01*
X145685Y469301D01*
X145572Y469311D01*
X145459Y469317D01*
X145346Y469319D01*
X145346Y469318D02*
X140154Y469318D01*
X140154Y469319D02*
X140041Y469317D01*
X139928Y469311D01*
X139815Y469301D01*
X139702Y469287D01*
X139590Y469270D01*
X139479Y469248D01*
X139369Y469223D01*
X139259Y469193D01*
X139151Y469160D01*
X139044Y469123D01*
X138938Y469083D01*
X138834Y469038D01*
X138731Y468990D01*
X138630Y468939D01*
X138531Y468884D01*
X138434Y468826D01*
X138339Y468764D01*
X138246Y468699D01*
X138156Y468631D01*
X138068Y468560D01*
X137982Y468485D01*
X137899Y468408D01*
X137819Y468328D01*
X137742Y468245D01*
X137667Y468159D01*
X137596Y468071D01*
X137528Y467981D01*
X137463Y467888D01*
X137401Y467793D01*
X137343Y467696D01*
X137288Y467597D01*
X137237Y467496D01*
X137189Y467393D01*
X137144Y467289D01*
X137104Y467183D01*
X137067Y467076D01*
X137034Y466968D01*
X137004Y466858D01*
X136979Y466748D01*
X136957Y466637D01*
X136940Y466525D01*
X136926Y466412D01*
X136916Y466299D01*
X136910Y466186D01*
X136908Y466073D01*
X136910Y465960D01*
X136916Y465847D01*
X136926Y465734D01*
X136940Y465621D01*
X136957Y465509D01*
X136979Y465398D01*
X137004Y465288D01*
X137034Y465178D01*
X137067Y465070D01*
X137104Y464963D01*
X137144Y464857D01*
X137189Y464753D01*
X137237Y464650D01*
X137288Y464549D01*
X137343Y464450D01*
X137401Y464353D01*
X137463Y464258D01*
X137528Y464165D01*
X137596Y464075D01*
X137667Y463987D01*
X137742Y463901D01*
X137819Y463818D01*
X137899Y463738D01*
X137982Y463661D01*
X138068Y463586D01*
X138156Y463515D01*
X138246Y463447D01*
X138339Y463382D01*
X138434Y463320D01*
X138531Y463262D01*
X138630Y463207D01*
X138731Y463156D01*
X138834Y463108D01*
X138938Y463063D01*
X139044Y463023D01*
X139151Y462986D01*
X139259Y462953D01*
X139369Y462923D01*
X139479Y462898D01*
X139590Y462876D01*
X139702Y462859D01*
X139815Y462845D01*
X139928Y462835D01*
X140041Y462829D01*
X140154Y462827D01*
X136908Y476741D02*
X148592Y476741D01*
X148592Y479986D02*
X148592Y473495D01*
X145346Y484163D02*
X140154Y484163D01*
X145346Y484163D02*
X145459Y484165D01*
X145572Y484171D01*
X145685Y484181D01*
X145798Y484195D01*
X145910Y484212D01*
X146021Y484234D01*
X146131Y484259D01*
X146241Y484289D01*
X146349Y484322D01*
X146456Y484359D01*
X146562Y484399D01*
X146666Y484444D01*
X146769Y484492D01*
X146870Y484543D01*
X146969Y484598D01*
X147066Y484656D01*
X147161Y484718D01*
X147254Y484783D01*
X147344Y484851D01*
X147432Y484922D01*
X147518Y484997D01*
X147601Y485074D01*
X147681Y485154D01*
X147758Y485237D01*
X147833Y485323D01*
X147904Y485411D01*
X147972Y485501D01*
X148037Y485594D01*
X148099Y485689D01*
X148157Y485786D01*
X148212Y485885D01*
X148263Y485986D01*
X148311Y486089D01*
X148356Y486193D01*
X148396Y486299D01*
X148433Y486406D01*
X148466Y486514D01*
X148496Y486624D01*
X148521Y486734D01*
X148543Y486845D01*
X148560Y486957D01*
X148574Y487070D01*
X148584Y487183D01*
X148590Y487296D01*
X148592Y487409D01*
X148590Y487522D01*
X148584Y487635D01*
X148574Y487748D01*
X148560Y487861D01*
X148543Y487973D01*
X148521Y488084D01*
X148496Y488194D01*
X148466Y488304D01*
X148433Y488412D01*
X148396Y488519D01*
X148356Y488625D01*
X148311Y488729D01*
X148263Y488832D01*
X148212Y488933D01*
X148157Y489032D01*
X148099Y489129D01*
X148037Y489224D01*
X147972Y489317D01*
X147904Y489407D01*
X147833Y489495D01*
X147758Y489581D01*
X147681Y489664D01*
X147601Y489744D01*
X147518Y489821D01*
X147432Y489896D01*
X147344Y489967D01*
X147254Y490035D01*
X147161Y490100D01*
X147066Y490162D01*
X146969Y490220D01*
X146870Y490275D01*
X146769Y490326D01*
X146666Y490374D01*
X146562Y490419D01*
X146456Y490459D01*
X146349Y490496D01*
X146241Y490529D01*
X146131Y490559D01*
X146021Y490584D01*
X145910Y490606D01*
X145798Y490623D01*
X145685Y490637D01*
X145572Y490647D01*
X145459Y490653D01*
X145346Y490655D01*
X145346Y490654D02*
X140154Y490654D01*
X140154Y490655D02*
X140041Y490653D01*
X139928Y490647D01*
X139815Y490637D01*
X139702Y490623D01*
X139590Y490606D01*
X139479Y490584D01*
X139369Y490559D01*
X139259Y490529D01*
X139151Y490496D01*
X139044Y490459D01*
X138938Y490419D01*
X138834Y490374D01*
X138731Y490326D01*
X138630Y490275D01*
X138531Y490220D01*
X138434Y490162D01*
X138339Y490100D01*
X138246Y490035D01*
X138156Y489967D01*
X138068Y489896D01*
X137982Y489821D01*
X137899Y489744D01*
X137819Y489664D01*
X137742Y489581D01*
X137667Y489495D01*
X137596Y489407D01*
X137528Y489317D01*
X137463Y489224D01*
X137401Y489129D01*
X137343Y489032D01*
X137288Y488933D01*
X137237Y488832D01*
X137189Y488729D01*
X137144Y488625D01*
X137104Y488519D01*
X137067Y488412D01*
X137034Y488304D01*
X137004Y488194D01*
X136979Y488084D01*
X136957Y487973D01*
X136940Y487861D01*
X136926Y487748D01*
X136916Y487635D01*
X136910Y487522D01*
X136908Y487409D01*
X136910Y487296D01*
X136916Y487183D01*
X136926Y487070D01*
X136940Y486957D01*
X136957Y486845D01*
X136979Y486734D01*
X137004Y486624D01*
X137034Y486514D01*
X137067Y486406D01*
X137104Y486299D01*
X137144Y486193D01*
X137189Y486089D01*
X137237Y485986D01*
X137288Y485885D01*
X137343Y485786D01*
X137401Y485689D01*
X137463Y485594D01*
X137528Y485501D01*
X137596Y485411D01*
X137667Y485323D01*
X137742Y485237D01*
X137819Y485154D01*
X137899Y485074D01*
X137982Y484997D01*
X138068Y484922D01*
X138156Y484851D01*
X138246Y484783D01*
X138339Y484718D01*
X138434Y484656D01*
X138531Y484598D01*
X138630Y484543D01*
X138731Y484492D01*
X138834Y484444D01*
X138938Y484399D01*
X139044Y484359D01*
X139151Y484322D01*
X139259Y484289D01*
X139369Y484259D01*
X139479Y484234D01*
X139590Y484212D01*
X139702Y484195D01*
X139815Y484181D01*
X139928Y484171D01*
X140041Y484165D01*
X140154Y484163D01*
X136908Y496048D02*
X148592Y496048D01*
X148592Y499293D01*
X148590Y499406D01*
X148584Y499519D01*
X148574Y499632D01*
X148560Y499745D01*
X148543Y499857D01*
X148521Y499968D01*
X148496Y500078D01*
X148466Y500188D01*
X148433Y500296D01*
X148396Y500403D01*
X148356Y500509D01*
X148311Y500613D01*
X148263Y500716D01*
X148212Y500817D01*
X148157Y500916D01*
X148099Y501013D01*
X148037Y501108D01*
X147972Y501201D01*
X147904Y501291D01*
X147833Y501379D01*
X147758Y501465D01*
X147681Y501548D01*
X147601Y501628D01*
X147518Y501705D01*
X147432Y501780D01*
X147344Y501851D01*
X147254Y501919D01*
X147161Y501984D01*
X147066Y502046D01*
X146969Y502104D01*
X146870Y502159D01*
X146769Y502210D01*
X146666Y502258D01*
X146562Y502303D01*
X146456Y502343D01*
X146349Y502380D01*
X146241Y502413D01*
X146131Y502443D01*
X146021Y502468D01*
X145910Y502490D01*
X145798Y502507D01*
X145685Y502521D01*
X145572Y502531D01*
X145459Y502537D01*
X145346Y502539D01*
X145233Y502537D01*
X145120Y502531D01*
X145007Y502521D01*
X144894Y502507D01*
X144782Y502490D01*
X144671Y502468D01*
X144561Y502443D01*
X144451Y502413D01*
X144343Y502380D01*
X144236Y502343D01*
X144130Y502303D01*
X144026Y502258D01*
X143923Y502210D01*
X143822Y502159D01*
X143723Y502104D01*
X143626Y502046D01*
X143531Y501984D01*
X143438Y501919D01*
X143348Y501851D01*
X143260Y501780D01*
X143174Y501705D01*
X143091Y501628D01*
X143011Y501548D01*
X142934Y501465D01*
X142859Y501379D01*
X142788Y501291D01*
X142720Y501201D01*
X142655Y501108D01*
X142593Y501013D01*
X142535Y500916D01*
X142480Y500817D01*
X142429Y500716D01*
X142381Y500613D01*
X142336Y500509D01*
X142296Y500403D01*
X142259Y500296D01*
X142226Y500188D01*
X142196Y500078D01*
X142171Y499968D01*
X142149Y499857D01*
X142132Y499745D01*
X142118Y499632D01*
X142108Y499519D01*
X142102Y499406D01*
X142100Y499293D01*
X142101Y499293D02*
X142101Y496048D01*
X142101Y499942D02*
X136908Y502539D01*
X141452Y507517D02*
X141452Y515306D01*
X136908Y520762D02*
X148592Y520762D01*
X136908Y520762D02*
X136908Y525954D01*
X136908Y530668D02*
X136908Y535860D01*
X136908Y530668D02*
X148592Y530668D01*
X148592Y535860D01*
X143399Y534562D02*
X143399Y530668D01*
X148592Y540551D02*
X136908Y540551D01*
X148592Y540551D02*
X148592Y543796D01*
X148590Y543909D01*
X148584Y544022D01*
X148574Y544135D01*
X148560Y544248D01*
X148543Y544360D01*
X148521Y544471D01*
X148496Y544581D01*
X148466Y544691D01*
X148433Y544799D01*
X148396Y544906D01*
X148356Y545012D01*
X148311Y545116D01*
X148263Y545219D01*
X148212Y545320D01*
X148157Y545419D01*
X148099Y545516D01*
X148037Y545611D01*
X147972Y545704D01*
X147904Y545794D01*
X147833Y545882D01*
X147758Y545968D01*
X147681Y546051D01*
X147601Y546131D01*
X147518Y546208D01*
X147432Y546283D01*
X147344Y546354D01*
X147254Y546422D01*
X147161Y546487D01*
X147066Y546549D01*
X146969Y546607D01*
X146870Y546662D01*
X146769Y546713D01*
X146666Y546761D01*
X146562Y546806D01*
X146456Y546846D01*
X146349Y546883D01*
X146241Y546916D01*
X146131Y546946D01*
X146021Y546971D01*
X145910Y546993D01*
X145798Y547010D01*
X145685Y547024D01*
X145572Y547034D01*
X145459Y547040D01*
X145346Y547042D01*
X140154Y547042D01*
X140041Y547040D01*
X139928Y547034D01*
X139815Y547024D01*
X139702Y547010D01*
X139590Y546993D01*
X139479Y546971D01*
X139369Y546946D01*
X139259Y546916D01*
X139151Y546883D01*
X139044Y546846D01*
X138938Y546806D01*
X138834Y546761D01*
X138731Y546713D01*
X138630Y546662D01*
X138531Y546607D01*
X138434Y546549D01*
X138339Y546487D01*
X138246Y546422D01*
X138156Y546354D01*
X138068Y546283D01*
X137982Y546208D01*
X137899Y546131D01*
X137819Y546051D01*
X137742Y545968D01*
X137667Y545882D01*
X137596Y545794D01*
X137528Y545704D01*
X137463Y545611D01*
X137401Y545516D01*
X137343Y545419D01*
X137288Y545320D01*
X137237Y545219D01*
X137189Y545116D01*
X137144Y545012D01*
X137104Y544906D01*
X137067Y544799D01*
X137034Y544691D01*
X137004Y544581D01*
X136979Y544471D01*
X136957Y544360D01*
X136940Y544248D01*
X136926Y544135D01*
X136916Y544022D01*
X136910Y543909D01*
X136908Y543796D01*
X136908Y540551D01*
D17*
X80050Y232350D02*
X3850Y232350D01*
X3850Y181550D01*
X16550Y181550D01*
X67350Y181550D01*
X80050Y181550D01*
X80050Y232350D01*
X67350Y194250D02*
X67350Y181550D01*
X67350Y194250D02*
X16550Y194250D01*
X16550Y181550D01*
D18*
X94746Y170714D02*
X97342Y173960D01*
X85658Y173960D01*
X85658Y177205D02*
X85658Y170714D01*
X97342Y185714D02*
X97340Y185821D01*
X97334Y185927D01*
X97324Y186033D01*
X97311Y186139D01*
X97293Y186245D01*
X97272Y186349D01*
X97247Y186453D01*
X97218Y186556D01*
X97186Y186657D01*
X97149Y186757D01*
X97109Y186856D01*
X97066Y186954D01*
X97019Y187050D01*
X96968Y187144D01*
X96914Y187236D01*
X96857Y187326D01*
X96797Y187414D01*
X96733Y187499D01*
X96666Y187582D01*
X96596Y187663D01*
X96524Y187741D01*
X96448Y187817D01*
X96370Y187889D01*
X96289Y187959D01*
X96206Y188026D01*
X96121Y188090D01*
X96033Y188150D01*
X95943Y188207D01*
X95851Y188261D01*
X95757Y188312D01*
X95661Y188359D01*
X95563Y188402D01*
X95464Y188442D01*
X95364Y188479D01*
X95263Y188511D01*
X95160Y188540D01*
X95056Y188565D01*
X94952Y188586D01*
X94846Y188604D01*
X94740Y188617D01*
X94634Y188627D01*
X94528Y188633D01*
X94421Y188635D01*
X97342Y185714D02*
X97340Y185593D01*
X97334Y185472D01*
X97324Y185352D01*
X97311Y185231D01*
X97293Y185112D01*
X97272Y184992D01*
X97247Y184874D01*
X97218Y184757D01*
X97185Y184640D01*
X97149Y184525D01*
X97108Y184411D01*
X97065Y184298D01*
X97017Y184186D01*
X96966Y184077D01*
X96911Y183969D01*
X96853Y183862D01*
X96792Y183758D01*
X96727Y183656D01*
X96659Y183556D01*
X96588Y183458D01*
X96514Y183362D01*
X96437Y183269D01*
X96356Y183179D01*
X96273Y183091D01*
X96187Y183006D01*
X96098Y182923D01*
X96007Y182844D01*
X95913Y182767D01*
X95817Y182694D01*
X95719Y182624D01*
X95618Y182557D01*
X95515Y182493D01*
X95410Y182433D01*
X95303Y182376D01*
X95195Y182322D01*
X95085Y182272D01*
X94973Y182226D01*
X94860Y182183D01*
X94745Y182144D01*
X92149Y187662D02*
X92226Y187741D01*
X92307Y187817D01*
X92390Y187890D01*
X92475Y187960D01*
X92563Y188027D01*
X92653Y188091D01*
X92745Y188151D01*
X92840Y188208D01*
X92936Y188262D01*
X93034Y188313D01*
X93134Y188360D01*
X93236Y188404D01*
X93339Y188444D01*
X93443Y188480D01*
X93549Y188512D01*
X93655Y188541D01*
X93763Y188566D01*
X93871Y188588D01*
X93981Y188605D01*
X94090Y188619D01*
X94200Y188628D01*
X94311Y188634D01*
X94421Y188636D01*
X92149Y187661D02*
X85658Y182144D01*
X85658Y188635D01*
X85658Y196819D02*
X97342Y192925D01*
X97342Y200714D02*
X85658Y196819D01*
X90202Y205117D02*
X90202Y212906D01*
X85658Y218362D02*
X97342Y218362D01*
X85658Y218362D02*
X85658Y223554D01*
X85658Y228268D02*
X85658Y233460D01*
X85658Y228268D02*
X97342Y228268D01*
X97342Y233460D01*
X92149Y232162D02*
X92149Y228268D01*
X97342Y238151D02*
X85658Y238151D01*
X97342Y238151D02*
X97342Y241396D01*
X97340Y241509D01*
X97334Y241622D01*
X97324Y241735D01*
X97310Y241848D01*
X97293Y241960D01*
X97271Y242071D01*
X97246Y242181D01*
X97216Y242291D01*
X97183Y242399D01*
X97146Y242506D01*
X97106Y242612D01*
X97061Y242716D01*
X97013Y242819D01*
X96962Y242920D01*
X96907Y243019D01*
X96849Y243116D01*
X96787Y243211D01*
X96722Y243304D01*
X96654Y243394D01*
X96583Y243482D01*
X96508Y243568D01*
X96431Y243651D01*
X96351Y243731D01*
X96268Y243808D01*
X96182Y243883D01*
X96094Y243954D01*
X96004Y244022D01*
X95911Y244087D01*
X95816Y244149D01*
X95719Y244207D01*
X95620Y244262D01*
X95519Y244313D01*
X95416Y244361D01*
X95312Y244406D01*
X95206Y244446D01*
X95099Y244483D01*
X94991Y244516D01*
X94881Y244546D01*
X94771Y244571D01*
X94660Y244593D01*
X94548Y244610D01*
X94435Y244624D01*
X94322Y244634D01*
X94209Y244640D01*
X94096Y244642D01*
X88904Y244642D01*
X88791Y244640D01*
X88678Y244634D01*
X88565Y244624D01*
X88452Y244610D01*
X88340Y244593D01*
X88229Y244571D01*
X88119Y244546D01*
X88009Y244516D01*
X87901Y244483D01*
X87794Y244446D01*
X87688Y244406D01*
X87584Y244361D01*
X87481Y244313D01*
X87380Y244262D01*
X87281Y244207D01*
X87184Y244149D01*
X87089Y244087D01*
X86996Y244022D01*
X86906Y243954D01*
X86818Y243883D01*
X86732Y243808D01*
X86649Y243731D01*
X86569Y243651D01*
X86492Y243568D01*
X86417Y243482D01*
X86346Y243394D01*
X86278Y243304D01*
X86213Y243211D01*
X86151Y243116D01*
X86093Y243019D01*
X86038Y242920D01*
X85987Y242819D01*
X85939Y242716D01*
X85894Y242612D01*
X85854Y242506D01*
X85817Y242399D01*
X85784Y242291D01*
X85754Y242181D01*
X85729Y242071D01*
X85707Y241960D01*
X85690Y241848D01*
X85676Y241735D01*
X85666Y241622D01*
X85660Y241509D01*
X85658Y241396D01*
X85658Y238151D01*
D17*
X458350Y441900D02*
X458350Y518100D01*
X407550Y518100D01*
X407550Y505400D01*
X407550Y454600D01*
X407550Y441900D01*
X458350Y441900D01*
X420250Y454600D02*
X407550Y454600D01*
X420250Y454600D02*
X420250Y505400D01*
X407550Y505400D01*
D18*
X458858Y436058D02*
X470542Y436058D01*
X464051Y439953D01*
X470542Y443847D01*
X458858Y443847D01*
X462104Y449280D02*
X467296Y449280D01*
X467409Y449282D01*
X467522Y449288D01*
X467635Y449298D01*
X467748Y449312D01*
X467860Y449329D01*
X467971Y449351D01*
X468081Y449376D01*
X468191Y449406D01*
X468299Y449439D01*
X468406Y449476D01*
X468512Y449516D01*
X468616Y449561D01*
X468719Y449609D01*
X468820Y449660D01*
X468919Y449715D01*
X469016Y449773D01*
X469111Y449835D01*
X469204Y449900D01*
X469294Y449968D01*
X469382Y450039D01*
X469468Y450114D01*
X469551Y450191D01*
X469631Y450271D01*
X469708Y450354D01*
X469783Y450440D01*
X469854Y450528D01*
X469922Y450618D01*
X469987Y450711D01*
X470049Y450806D01*
X470107Y450903D01*
X470162Y451002D01*
X470213Y451103D01*
X470261Y451206D01*
X470306Y451310D01*
X470346Y451416D01*
X470383Y451523D01*
X470416Y451631D01*
X470446Y451741D01*
X470471Y451851D01*
X470493Y451962D01*
X470510Y452074D01*
X470524Y452187D01*
X470534Y452300D01*
X470540Y452413D01*
X470542Y452526D01*
X470540Y452639D01*
X470534Y452752D01*
X470524Y452865D01*
X470510Y452978D01*
X470493Y453090D01*
X470471Y453201D01*
X470446Y453311D01*
X470416Y453421D01*
X470383Y453529D01*
X470346Y453636D01*
X470306Y453742D01*
X470261Y453846D01*
X470213Y453949D01*
X470162Y454050D01*
X470107Y454149D01*
X470049Y454246D01*
X469987Y454341D01*
X469922Y454434D01*
X469854Y454524D01*
X469783Y454612D01*
X469708Y454698D01*
X469631Y454781D01*
X469551Y454861D01*
X469468Y454938D01*
X469382Y455013D01*
X469294Y455084D01*
X469204Y455152D01*
X469111Y455217D01*
X469016Y455279D01*
X468919Y455337D01*
X468820Y455392D01*
X468719Y455443D01*
X468616Y455491D01*
X468512Y455536D01*
X468406Y455576D01*
X468299Y455613D01*
X468191Y455646D01*
X468081Y455676D01*
X467971Y455701D01*
X467860Y455723D01*
X467748Y455740D01*
X467635Y455754D01*
X467522Y455764D01*
X467409Y455770D01*
X467296Y455772D01*
X467296Y455771D02*
X462104Y455771D01*
X462104Y455772D02*
X461991Y455770D01*
X461878Y455764D01*
X461765Y455754D01*
X461652Y455740D01*
X461540Y455723D01*
X461429Y455701D01*
X461319Y455676D01*
X461209Y455646D01*
X461101Y455613D01*
X460994Y455576D01*
X460888Y455536D01*
X460784Y455491D01*
X460681Y455443D01*
X460580Y455392D01*
X460481Y455337D01*
X460384Y455279D01*
X460289Y455217D01*
X460196Y455152D01*
X460106Y455084D01*
X460018Y455013D01*
X459932Y454938D01*
X459849Y454861D01*
X459769Y454781D01*
X459692Y454698D01*
X459617Y454612D01*
X459546Y454524D01*
X459478Y454434D01*
X459413Y454341D01*
X459351Y454246D01*
X459293Y454149D01*
X459238Y454050D01*
X459187Y453949D01*
X459139Y453846D01*
X459094Y453742D01*
X459054Y453636D01*
X459017Y453529D01*
X458984Y453421D01*
X458954Y453311D01*
X458929Y453201D01*
X458907Y453090D01*
X458890Y452978D01*
X458876Y452865D01*
X458866Y452752D01*
X458860Y452639D01*
X458858Y452526D01*
X458860Y452413D01*
X458866Y452300D01*
X458876Y452187D01*
X458890Y452074D01*
X458907Y451962D01*
X458929Y451851D01*
X458954Y451741D01*
X458984Y451631D01*
X459017Y451523D01*
X459054Y451416D01*
X459094Y451310D01*
X459139Y451206D01*
X459187Y451103D01*
X459238Y451002D01*
X459293Y450903D01*
X459351Y450806D01*
X459413Y450711D01*
X459478Y450618D01*
X459546Y450528D01*
X459617Y450440D01*
X459692Y450354D01*
X459769Y450271D01*
X459849Y450191D01*
X459932Y450114D01*
X460018Y450039D01*
X460106Y449968D01*
X460196Y449900D01*
X460289Y449835D01*
X460384Y449773D01*
X460481Y449715D01*
X460580Y449660D01*
X460681Y449609D01*
X460784Y449561D01*
X460888Y449516D01*
X460994Y449476D01*
X461101Y449439D01*
X461209Y449406D01*
X461319Y449376D01*
X461429Y449351D01*
X461540Y449329D01*
X461652Y449312D01*
X461765Y449298D01*
X461878Y449288D01*
X461991Y449282D01*
X462104Y449280D01*
X458858Y463194D02*
X470542Y463194D01*
X470542Y466439D02*
X470542Y459948D01*
X467296Y470616D02*
X462104Y470616D01*
X467296Y470616D02*
X467409Y470618D01*
X467522Y470624D01*
X467635Y470634D01*
X467748Y470648D01*
X467860Y470665D01*
X467971Y470687D01*
X468081Y470712D01*
X468191Y470742D01*
X468299Y470775D01*
X468406Y470812D01*
X468512Y470852D01*
X468616Y470897D01*
X468719Y470945D01*
X468820Y470996D01*
X468919Y471051D01*
X469016Y471109D01*
X469111Y471171D01*
X469204Y471236D01*
X469294Y471304D01*
X469382Y471375D01*
X469468Y471450D01*
X469551Y471527D01*
X469631Y471607D01*
X469708Y471690D01*
X469783Y471776D01*
X469854Y471864D01*
X469922Y471954D01*
X469987Y472047D01*
X470049Y472142D01*
X470107Y472239D01*
X470162Y472338D01*
X470213Y472439D01*
X470261Y472542D01*
X470306Y472646D01*
X470346Y472752D01*
X470383Y472859D01*
X470416Y472967D01*
X470446Y473077D01*
X470471Y473187D01*
X470493Y473298D01*
X470510Y473410D01*
X470524Y473523D01*
X470534Y473636D01*
X470540Y473749D01*
X470542Y473862D01*
X470540Y473975D01*
X470534Y474088D01*
X470524Y474201D01*
X470510Y474314D01*
X470493Y474426D01*
X470471Y474537D01*
X470446Y474647D01*
X470416Y474757D01*
X470383Y474865D01*
X470346Y474972D01*
X470306Y475078D01*
X470261Y475182D01*
X470213Y475285D01*
X470162Y475386D01*
X470107Y475485D01*
X470049Y475582D01*
X469987Y475677D01*
X469922Y475770D01*
X469854Y475860D01*
X469783Y475948D01*
X469708Y476034D01*
X469631Y476117D01*
X469551Y476197D01*
X469468Y476274D01*
X469382Y476349D01*
X469294Y476420D01*
X469204Y476488D01*
X469111Y476553D01*
X469016Y476615D01*
X468919Y476673D01*
X468820Y476728D01*
X468719Y476779D01*
X468616Y476827D01*
X468512Y476872D01*
X468406Y476912D01*
X468299Y476949D01*
X468191Y476982D01*
X468081Y477012D01*
X467971Y477037D01*
X467860Y477059D01*
X467748Y477076D01*
X467635Y477090D01*
X467522Y477100D01*
X467409Y477106D01*
X467296Y477108D01*
X467296Y477107D02*
X462104Y477107D01*
X462104Y477108D02*
X461991Y477106D01*
X461878Y477100D01*
X461765Y477090D01*
X461652Y477076D01*
X461540Y477059D01*
X461429Y477037D01*
X461319Y477012D01*
X461209Y476982D01*
X461101Y476949D01*
X460994Y476912D01*
X460888Y476872D01*
X460784Y476827D01*
X460681Y476779D01*
X460580Y476728D01*
X460481Y476673D01*
X460384Y476615D01*
X460289Y476553D01*
X460196Y476488D01*
X460106Y476420D01*
X460018Y476349D01*
X459932Y476274D01*
X459849Y476197D01*
X459769Y476117D01*
X459692Y476034D01*
X459617Y475948D01*
X459546Y475860D01*
X459478Y475770D01*
X459413Y475677D01*
X459351Y475582D01*
X459293Y475485D01*
X459238Y475386D01*
X459187Y475285D01*
X459139Y475182D01*
X459094Y475078D01*
X459054Y474972D01*
X459017Y474865D01*
X458984Y474757D01*
X458954Y474647D01*
X458929Y474537D01*
X458907Y474426D01*
X458890Y474314D01*
X458876Y474201D01*
X458866Y474088D01*
X458860Y473975D01*
X458858Y473862D01*
X458860Y473749D01*
X458866Y473636D01*
X458876Y473523D01*
X458890Y473410D01*
X458907Y473298D01*
X458929Y473187D01*
X458954Y473077D01*
X458984Y472967D01*
X459017Y472859D01*
X459054Y472752D01*
X459094Y472646D01*
X459139Y472542D01*
X459187Y472439D01*
X459238Y472338D01*
X459293Y472239D01*
X459351Y472142D01*
X459413Y472047D01*
X459478Y471954D01*
X459546Y471864D01*
X459617Y471776D01*
X459692Y471690D01*
X459769Y471607D01*
X459849Y471527D01*
X459932Y471450D01*
X460018Y471375D01*
X460106Y471304D01*
X460196Y471236D01*
X460289Y471171D01*
X460384Y471109D01*
X460481Y471051D01*
X460580Y470996D01*
X460681Y470945D01*
X460784Y470897D01*
X460888Y470852D01*
X460994Y470812D01*
X461101Y470775D01*
X461209Y470742D01*
X461319Y470712D01*
X461429Y470687D01*
X461540Y470665D01*
X461652Y470648D01*
X461765Y470634D01*
X461878Y470624D01*
X461991Y470618D01*
X462104Y470616D01*
X458858Y482501D02*
X470542Y482501D01*
X470542Y485746D01*
X470540Y485859D01*
X470534Y485972D01*
X470524Y486085D01*
X470510Y486198D01*
X470493Y486310D01*
X470471Y486421D01*
X470446Y486531D01*
X470416Y486641D01*
X470383Y486749D01*
X470346Y486856D01*
X470306Y486962D01*
X470261Y487066D01*
X470213Y487169D01*
X470162Y487270D01*
X470107Y487369D01*
X470049Y487466D01*
X469987Y487561D01*
X469922Y487654D01*
X469854Y487744D01*
X469783Y487832D01*
X469708Y487918D01*
X469631Y488001D01*
X469551Y488081D01*
X469468Y488158D01*
X469382Y488233D01*
X469294Y488304D01*
X469204Y488372D01*
X469111Y488437D01*
X469016Y488499D01*
X468919Y488557D01*
X468820Y488612D01*
X468719Y488663D01*
X468616Y488711D01*
X468512Y488756D01*
X468406Y488796D01*
X468299Y488833D01*
X468191Y488866D01*
X468081Y488896D01*
X467971Y488921D01*
X467860Y488943D01*
X467748Y488960D01*
X467635Y488974D01*
X467522Y488984D01*
X467409Y488990D01*
X467296Y488992D01*
X467183Y488990D01*
X467070Y488984D01*
X466957Y488974D01*
X466844Y488960D01*
X466732Y488943D01*
X466621Y488921D01*
X466511Y488896D01*
X466401Y488866D01*
X466293Y488833D01*
X466186Y488796D01*
X466080Y488756D01*
X465976Y488711D01*
X465873Y488663D01*
X465772Y488612D01*
X465673Y488557D01*
X465576Y488499D01*
X465481Y488437D01*
X465388Y488372D01*
X465298Y488304D01*
X465210Y488233D01*
X465124Y488158D01*
X465041Y488081D01*
X464961Y488001D01*
X464884Y487918D01*
X464809Y487832D01*
X464738Y487744D01*
X464670Y487654D01*
X464605Y487561D01*
X464543Y487466D01*
X464485Y487369D01*
X464430Y487270D01*
X464379Y487169D01*
X464331Y487066D01*
X464286Y486962D01*
X464246Y486856D01*
X464209Y486749D01*
X464176Y486641D01*
X464146Y486531D01*
X464121Y486421D01*
X464099Y486310D01*
X464082Y486198D01*
X464068Y486085D01*
X464058Y485972D01*
X464052Y485859D01*
X464050Y485746D01*
X464051Y485746D02*
X464051Y482501D01*
X464051Y486395D02*
X458858Y488992D01*
X463402Y493970D02*
X463402Y501759D01*
X458858Y507361D02*
X470542Y507361D01*
X470542Y513852D02*
X463402Y507361D01*
X465998Y509958D02*
X458858Y513852D01*
X458858Y518645D02*
X458858Y523837D01*
X458858Y518645D02*
X470542Y518645D01*
X470542Y523837D01*
X465349Y522539D02*
X465349Y518645D01*
X470542Y527498D02*
X465025Y531393D01*
X470542Y535287D01*
X465025Y531393D02*
X458858Y531393D01*
D17*
X417550Y348100D02*
X417550Y271900D01*
X468350Y271900D01*
X468350Y284600D01*
X468350Y335400D01*
X468350Y348100D01*
X417550Y348100D01*
X455650Y335400D02*
X468350Y335400D01*
X455650Y335400D02*
X455650Y284600D01*
X468350Y284600D01*
D18*
X410692Y281403D02*
X399008Y285297D01*
X410692Y289192D01*
X407446Y293482D02*
X402254Y293482D01*
X407446Y293481D02*
X407559Y293483D01*
X407672Y293489D01*
X407785Y293499D01*
X407898Y293513D01*
X408010Y293530D01*
X408121Y293552D01*
X408231Y293577D01*
X408341Y293607D01*
X408449Y293640D01*
X408556Y293677D01*
X408662Y293717D01*
X408766Y293762D01*
X408869Y293810D01*
X408970Y293861D01*
X409069Y293916D01*
X409166Y293974D01*
X409261Y294036D01*
X409354Y294101D01*
X409444Y294169D01*
X409532Y294240D01*
X409618Y294315D01*
X409701Y294392D01*
X409781Y294472D01*
X409858Y294555D01*
X409933Y294641D01*
X410004Y294729D01*
X410072Y294819D01*
X410137Y294912D01*
X410199Y295007D01*
X410257Y295104D01*
X410312Y295203D01*
X410363Y295304D01*
X410411Y295407D01*
X410456Y295511D01*
X410496Y295617D01*
X410533Y295724D01*
X410566Y295832D01*
X410596Y295942D01*
X410621Y296052D01*
X410643Y296163D01*
X410660Y296275D01*
X410674Y296388D01*
X410684Y296501D01*
X410690Y296614D01*
X410692Y296727D01*
X410690Y296840D01*
X410684Y296953D01*
X410674Y297066D01*
X410660Y297179D01*
X410643Y297291D01*
X410621Y297402D01*
X410596Y297512D01*
X410566Y297622D01*
X410533Y297730D01*
X410496Y297837D01*
X410456Y297943D01*
X410411Y298047D01*
X410363Y298150D01*
X410312Y298251D01*
X410257Y298350D01*
X410199Y298447D01*
X410137Y298542D01*
X410072Y298635D01*
X410004Y298725D01*
X409933Y298813D01*
X409858Y298899D01*
X409781Y298982D01*
X409701Y299062D01*
X409618Y299139D01*
X409532Y299214D01*
X409444Y299285D01*
X409354Y299353D01*
X409261Y299418D01*
X409166Y299480D01*
X409069Y299538D01*
X408970Y299593D01*
X408869Y299644D01*
X408766Y299692D01*
X408662Y299737D01*
X408556Y299777D01*
X408449Y299814D01*
X408341Y299847D01*
X408231Y299877D01*
X408121Y299902D01*
X408010Y299924D01*
X407898Y299941D01*
X407785Y299955D01*
X407672Y299965D01*
X407559Y299971D01*
X407446Y299973D01*
X402254Y299973D01*
X402141Y299971D01*
X402028Y299965D01*
X401915Y299955D01*
X401802Y299941D01*
X401690Y299924D01*
X401579Y299902D01*
X401469Y299877D01*
X401359Y299847D01*
X401251Y299814D01*
X401144Y299777D01*
X401038Y299737D01*
X400934Y299692D01*
X400831Y299644D01*
X400730Y299593D01*
X400631Y299538D01*
X400534Y299480D01*
X400439Y299418D01*
X400346Y299353D01*
X400256Y299285D01*
X400168Y299214D01*
X400082Y299139D01*
X399999Y299062D01*
X399919Y298982D01*
X399842Y298899D01*
X399767Y298813D01*
X399696Y298725D01*
X399628Y298635D01*
X399563Y298542D01*
X399501Y298447D01*
X399443Y298350D01*
X399388Y298251D01*
X399337Y298150D01*
X399289Y298047D01*
X399244Y297943D01*
X399204Y297837D01*
X399167Y297730D01*
X399134Y297622D01*
X399104Y297512D01*
X399079Y297402D01*
X399057Y297291D01*
X399040Y297179D01*
X399026Y297066D01*
X399016Y296953D01*
X399010Y296840D01*
X399008Y296727D01*
X399010Y296614D01*
X399016Y296501D01*
X399026Y296388D01*
X399040Y296275D01*
X399057Y296163D01*
X399079Y296052D01*
X399104Y295942D01*
X399134Y295832D01*
X399167Y295724D01*
X399204Y295617D01*
X399244Y295511D01*
X399289Y295407D01*
X399337Y295304D01*
X399388Y295203D01*
X399443Y295104D01*
X399501Y295007D01*
X399563Y294912D01*
X399628Y294819D01*
X399696Y294729D01*
X399767Y294641D01*
X399842Y294555D01*
X399919Y294472D01*
X399999Y294392D01*
X400082Y294315D01*
X400168Y294240D01*
X400256Y294169D01*
X400346Y294101D01*
X400439Y294036D01*
X400534Y293974D01*
X400631Y293916D01*
X400730Y293861D01*
X400831Y293810D01*
X400934Y293762D01*
X401038Y293717D01*
X401144Y293677D01*
X401251Y293640D01*
X401359Y293607D01*
X401469Y293577D01*
X401579Y293552D01*
X401690Y293530D01*
X401802Y293513D01*
X401915Y293499D01*
X402028Y293489D01*
X402141Y293483D01*
X402254Y293481D01*
X399008Y305315D02*
X410692Y305315D01*
X399008Y305315D02*
X399008Y310508D01*
X399008Y317301D02*
X410692Y317301D01*
X410692Y314056D02*
X410692Y320547D01*
X410692Y327969D02*
X399008Y324074D01*
X399008Y331864D02*
X410692Y327969D01*
X401929Y330890D02*
X401929Y325048D01*
X405499Y341078D02*
X405499Y343026D01*
X399008Y343026D01*
X399008Y339131D01*
X399010Y339032D01*
X399016Y338932D01*
X399025Y338833D01*
X399038Y338735D01*
X399055Y338637D01*
X399076Y338539D01*
X399101Y338443D01*
X399129Y338348D01*
X399161Y338254D01*
X399196Y338161D01*
X399235Y338069D01*
X399278Y337979D01*
X399323Y337891D01*
X399373Y337804D01*
X399425Y337720D01*
X399481Y337637D01*
X399539Y337557D01*
X399601Y337479D01*
X399666Y337404D01*
X399734Y337331D01*
X399804Y337261D01*
X399877Y337193D01*
X399952Y337128D01*
X400030Y337066D01*
X400110Y337008D01*
X400193Y336952D01*
X400277Y336900D01*
X400364Y336850D01*
X400452Y336805D01*
X400542Y336762D01*
X400634Y336723D01*
X400727Y336688D01*
X400821Y336656D01*
X400916Y336628D01*
X401012Y336603D01*
X401110Y336582D01*
X401208Y336565D01*
X401306Y336552D01*
X401405Y336543D01*
X401505Y336537D01*
X401604Y336535D01*
X408096Y336535D01*
X408195Y336537D01*
X408295Y336543D01*
X408394Y336552D01*
X408492Y336565D01*
X408590Y336582D01*
X408688Y336603D01*
X408784Y336628D01*
X408879Y336656D01*
X408973Y336688D01*
X409066Y336723D01*
X409158Y336762D01*
X409248Y336805D01*
X409336Y336850D01*
X409423Y336900D01*
X409507Y336952D01*
X409590Y337008D01*
X409670Y337066D01*
X409748Y337128D01*
X409823Y337193D01*
X409896Y337261D01*
X409966Y337331D01*
X410034Y337404D01*
X410099Y337479D01*
X410161Y337557D01*
X410219Y337637D01*
X410275Y337720D01*
X410327Y337804D01*
X410377Y337891D01*
X410422Y337979D01*
X410465Y338069D01*
X410504Y338161D01*
X410539Y338253D01*
X410571Y338348D01*
X410599Y338443D01*
X410624Y338539D01*
X410645Y338637D01*
X410662Y338735D01*
X410675Y338833D01*
X410684Y338932D01*
X410690Y339032D01*
X410692Y339131D01*
X410692Y343026D01*
X399008Y348749D02*
X399008Y353942D01*
X399008Y348749D02*
X410692Y348749D01*
X410692Y353942D01*
X405499Y352644D02*
X405499Y348749D01*
D17*
X68350Y780800D02*
X17550Y780800D01*
X68350Y780800D02*
X68350Y768100D01*
X68350Y691900D01*
X68350Y679200D01*
X17550Y679200D01*
X17550Y780800D01*
X55650Y768100D02*
X68350Y768100D01*
X55650Y768100D02*
X55650Y691900D01*
X68350Y691900D01*
D18*
X5358Y711148D02*
X5358Y715042D01*
X5360Y715141D01*
X5366Y715241D01*
X5375Y715340D01*
X5388Y715438D01*
X5405Y715536D01*
X5426Y715634D01*
X5451Y715730D01*
X5479Y715825D01*
X5511Y715919D01*
X5546Y716012D01*
X5585Y716104D01*
X5628Y716194D01*
X5673Y716282D01*
X5723Y716369D01*
X5775Y716453D01*
X5831Y716536D01*
X5889Y716616D01*
X5951Y716694D01*
X6016Y716769D01*
X6084Y716842D01*
X6154Y716912D01*
X6227Y716980D01*
X6302Y717045D01*
X6380Y717107D01*
X6460Y717165D01*
X6543Y717221D01*
X6627Y717273D01*
X6714Y717323D01*
X6802Y717368D01*
X6892Y717411D01*
X6984Y717450D01*
X7077Y717485D01*
X7171Y717517D01*
X7266Y717545D01*
X7362Y717570D01*
X7460Y717591D01*
X7558Y717608D01*
X7656Y717621D01*
X7755Y717630D01*
X7855Y717636D01*
X7954Y717638D01*
X7954Y717639D02*
X9253Y717639D01*
X9253Y717638D02*
X9352Y717636D01*
X9452Y717630D01*
X9551Y717621D01*
X9649Y717608D01*
X9747Y717591D01*
X9845Y717570D01*
X9941Y717545D01*
X10036Y717517D01*
X10130Y717485D01*
X10223Y717450D01*
X10315Y717411D01*
X10405Y717368D01*
X10493Y717323D01*
X10580Y717273D01*
X10664Y717221D01*
X10747Y717165D01*
X10827Y717107D01*
X10905Y717045D01*
X10980Y716980D01*
X11053Y716912D01*
X11123Y716842D01*
X11191Y716769D01*
X11256Y716694D01*
X11318Y716616D01*
X11376Y716536D01*
X11432Y716453D01*
X11484Y716369D01*
X11534Y716282D01*
X11579Y716194D01*
X11622Y716104D01*
X11661Y716012D01*
X11696Y715919D01*
X11728Y715825D01*
X11756Y715730D01*
X11781Y715634D01*
X11802Y715536D01*
X11819Y715438D01*
X11832Y715340D01*
X11841Y715241D01*
X11847Y715141D01*
X11849Y715042D01*
X11849Y711148D01*
X17042Y711148D01*
X17042Y717639D01*
X17042Y721929D02*
X5358Y725823D01*
X17042Y729718D01*
X9902Y734121D02*
X9902Y741910D01*
X5358Y750475D02*
X5360Y750574D01*
X5366Y750674D01*
X5375Y750773D01*
X5388Y750871D01*
X5405Y750969D01*
X5426Y751067D01*
X5451Y751163D01*
X5479Y751258D01*
X5511Y751352D01*
X5546Y751445D01*
X5585Y751537D01*
X5628Y751627D01*
X5673Y751715D01*
X5723Y751802D01*
X5775Y751886D01*
X5831Y751969D01*
X5889Y752049D01*
X5951Y752127D01*
X6016Y752202D01*
X6084Y752275D01*
X6154Y752345D01*
X6227Y752413D01*
X6302Y752478D01*
X6380Y752540D01*
X6460Y752598D01*
X6543Y752654D01*
X6627Y752706D01*
X6714Y752756D01*
X6802Y752801D01*
X6892Y752844D01*
X6984Y752883D01*
X7077Y752918D01*
X7171Y752950D01*
X7266Y752978D01*
X7362Y753003D01*
X7460Y753024D01*
X7558Y753041D01*
X7656Y753054D01*
X7755Y753063D01*
X7855Y753069D01*
X7954Y753071D01*
X5358Y750475D02*
X5360Y750331D01*
X5366Y750186D01*
X5375Y750042D01*
X5388Y749899D01*
X5405Y749755D01*
X5426Y749612D01*
X5451Y749470D01*
X5479Y749329D01*
X5511Y749188D01*
X5547Y749048D01*
X5586Y748909D01*
X5629Y748771D01*
X5676Y748635D01*
X5726Y748499D01*
X5780Y748365D01*
X5837Y748233D01*
X5898Y748102D01*
X5962Y747973D01*
X6030Y747845D01*
X6100Y747719D01*
X6175Y747595D01*
X6252Y747474D01*
X6333Y747354D01*
X6416Y747236D01*
X6503Y747121D01*
X6593Y747008D01*
X6686Y746897D01*
X6781Y746789D01*
X6880Y746683D01*
X6981Y746580D01*
X14446Y746906D02*
X14545Y746908D01*
X14645Y746914D01*
X14744Y746923D01*
X14842Y746936D01*
X14940Y746953D01*
X15038Y746974D01*
X15134Y746999D01*
X15229Y747027D01*
X15323Y747059D01*
X15416Y747094D01*
X15508Y747133D01*
X15598Y747176D01*
X15686Y747221D01*
X15773Y747271D01*
X15857Y747323D01*
X15940Y747379D01*
X16020Y747437D01*
X16098Y747499D01*
X16173Y747564D01*
X16246Y747632D01*
X16316Y747702D01*
X16384Y747775D01*
X16449Y747850D01*
X16511Y747928D01*
X16569Y748008D01*
X16625Y748091D01*
X16677Y748175D01*
X16727Y748262D01*
X16772Y748350D01*
X16815Y748440D01*
X16854Y748532D01*
X16889Y748625D01*
X16921Y748719D01*
X16949Y748814D01*
X16974Y748911D01*
X16995Y749008D01*
X17012Y749106D01*
X17025Y749204D01*
X17034Y749303D01*
X17040Y749403D01*
X17042Y749502D01*
X17040Y749638D01*
X17034Y749774D01*
X17025Y749910D01*
X17012Y750046D01*
X16994Y750181D01*
X16974Y750315D01*
X16949Y750449D01*
X16921Y750583D01*
X16888Y750715D01*
X16853Y750846D01*
X16813Y750977D01*
X16770Y751106D01*
X16724Y751234D01*
X16673Y751360D01*
X16620Y751486D01*
X16562Y751609D01*
X16502Y751731D01*
X16438Y751851D01*
X16370Y751970D01*
X16300Y752086D01*
X16226Y752200D01*
X16149Y752313D01*
X16068Y752423D01*
X12174Y748203D02*
X12227Y748117D01*
X12284Y748033D01*
X12343Y747951D01*
X12406Y747871D01*
X12472Y747794D01*
X12540Y747719D01*
X12612Y747647D01*
X12686Y747578D01*
X12763Y747512D01*
X12842Y747449D01*
X12924Y747389D01*
X13008Y747332D01*
X13094Y747278D01*
X13182Y747228D01*
X13272Y747181D01*
X13363Y747137D01*
X13457Y747098D01*
X13551Y747061D01*
X13647Y747029D01*
X13745Y747000D01*
X13843Y746975D01*
X13942Y746954D01*
X14042Y746936D01*
X14142Y746923D01*
X14243Y746913D01*
X14345Y746907D01*
X14446Y746905D01*
X10226Y751774D02*
X10173Y751860D01*
X10116Y751944D01*
X10057Y752026D01*
X9994Y752106D01*
X9928Y752183D01*
X9860Y752258D01*
X9788Y752330D01*
X9714Y752399D01*
X9637Y752465D01*
X9558Y752528D01*
X9476Y752588D01*
X9392Y752645D01*
X9306Y752699D01*
X9218Y752749D01*
X9128Y752796D01*
X9037Y752840D01*
X8943Y752879D01*
X8849Y752916D01*
X8753Y752948D01*
X8655Y752977D01*
X8557Y753002D01*
X8458Y753023D01*
X8358Y753041D01*
X8258Y753054D01*
X8157Y753064D01*
X8055Y753070D01*
X7954Y753072D01*
X10226Y751773D02*
X12174Y748203D01*
X17042Y757206D02*
X5358Y759803D01*
X13147Y762399D01*
X5358Y764996D01*
X17042Y767592D01*
D17*
X17550Y920800D02*
X68350Y920800D01*
X68350Y908100D01*
X68350Y831900D01*
X68350Y819200D01*
X17550Y819200D01*
X17550Y920800D01*
X55650Y908100D02*
X68350Y908100D01*
X55650Y908100D02*
X55650Y831900D01*
X68350Y831900D01*
D18*
X5358Y839718D02*
X5358Y842963D01*
X5360Y843076D01*
X5366Y843189D01*
X5376Y843302D01*
X5390Y843415D01*
X5407Y843527D01*
X5429Y843638D01*
X5454Y843748D01*
X5484Y843858D01*
X5517Y843966D01*
X5554Y844073D01*
X5594Y844179D01*
X5639Y844283D01*
X5687Y844386D01*
X5738Y844487D01*
X5793Y844586D01*
X5851Y844683D01*
X5913Y844778D01*
X5978Y844871D01*
X6046Y844961D01*
X6117Y845049D01*
X6192Y845135D01*
X6269Y845218D01*
X6349Y845298D01*
X6432Y845375D01*
X6518Y845450D01*
X6606Y845521D01*
X6696Y845589D01*
X6789Y845654D01*
X6884Y845716D01*
X6981Y845774D01*
X7080Y845829D01*
X7181Y845880D01*
X7284Y845928D01*
X7388Y845973D01*
X7494Y846013D01*
X7601Y846050D01*
X7709Y846083D01*
X7819Y846113D01*
X7929Y846138D01*
X8040Y846160D01*
X8152Y846177D01*
X8265Y846191D01*
X8378Y846201D01*
X8491Y846207D01*
X8604Y846209D01*
X8717Y846207D01*
X8830Y846201D01*
X8943Y846191D01*
X9056Y846177D01*
X9168Y846160D01*
X9279Y846138D01*
X9389Y846113D01*
X9499Y846083D01*
X9607Y846050D01*
X9714Y846013D01*
X9820Y845973D01*
X9924Y845928D01*
X10027Y845880D01*
X10128Y845829D01*
X10227Y845774D01*
X10324Y845716D01*
X10419Y845654D01*
X10512Y845589D01*
X10602Y845521D01*
X10690Y845450D01*
X10776Y845375D01*
X10859Y845298D01*
X10939Y845218D01*
X11016Y845135D01*
X11091Y845049D01*
X11162Y844961D01*
X11230Y844871D01*
X11295Y844778D01*
X11357Y844683D01*
X11415Y844586D01*
X11470Y844487D01*
X11521Y844386D01*
X11569Y844283D01*
X11614Y844179D01*
X11654Y844073D01*
X11691Y843966D01*
X11724Y843858D01*
X11754Y843748D01*
X11779Y843638D01*
X11801Y843527D01*
X11818Y843415D01*
X11832Y843302D01*
X11842Y843189D01*
X11848Y843076D01*
X11850Y842963D01*
X17042Y843612D02*
X17042Y839718D01*
X17042Y843612D02*
X17040Y843713D01*
X17034Y843813D01*
X17024Y843913D01*
X17011Y844013D01*
X16993Y844112D01*
X16972Y844211D01*
X16947Y844308D01*
X16918Y844405D01*
X16885Y844500D01*
X16849Y844594D01*
X16809Y844686D01*
X16766Y844777D01*
X16719Y844866D01*
X16669Y844953D01*
X16615Y845039D01*
X16558Y845122D01*
X16498Y845202D01*
X16435Y845281D01*
X16368Y845357D01*
X16299Y845430D01*
X16227Y845500D01*
X16153Y845568D01*
X16076Y845633D01*
X15996Y845694D01*
X15914Y845753D01*
X15830Y845808D01*
X15744Y845860D01*
X15656Y845909D01*
X15566Y845954D01*
X15474Y845996D01*
X15381Y846034D01*
X15286Y846068D01*
X15191Y846099D01*
X15094Y846126D01*
X14996Y846149D01*
X14897Y846169D01*
X14797Y846184D01*
X14697Y846196D01*
X14597Y846204D01*
X14496Y846208D01*
X14396Y846208D01*
X14295Y846204D01*
X14195Y846196D01*
X14095Y846184D01*
X13995Y846169D01*
X13896Y846149D01*
X13798Y846126D01*
X13701Y846099D01*
X13606Y846068D01*
X13511Y846034D01*
X13418Y845996D01*
X13326Y845954D01*
X13236Y845909D01*
X13148Y845860D01*
X13062Y845808D01*
X12978Y845753D01*
X12896Y845694D01*
X12816Y845633D01*
X12739Y845568D01*
X12665Y845500D01*
X12593Y845430D01*
X12524Y845357D01*
X12457Y845281D01*
X12394Y845202D01*
X12334Y845122D01*
X12277Y845039D01*
X12223Y844953D01*
X12173Y844866D01*
X12126Y844777D01*
X12083Y844686D01*
X12043Y844594D01*
X12007Y844500D01*
X11974Y844405D01*
X11945Y844308D01*
X11920Y844211D01*
X11899Y844112D01*
X11881Y844013D01*
X11868Y843913D01*
X11858Y843813D01*
X11852Y843713D01*
X11850Y843612D01*
X11849Y843612D02*
X11849Y841016D01*
X17042Y850499D02*
X5358Y854393D01*
X17042Y858288D01*
X5358Y862578D02*
X5358Y865823D01*
X5360Y865936D01*
X5366Y866049D01*
X5376Y866162D01*
X5390Y866275D01*
X5407Y866387D01*
X5429Y866498D01*
X5454Y866608D01*
X5484Y866718D01*
X5517Y866826D01*
X5554Y866933D01*
X5594Y867039D01*
X5639Y867143D01*
X5687Y867246D01*
X5738Y867347D01*
X5793Y867446D01*
X5851Y867543D01*
X5913Y867638D01*
X5978Y867731D01*
X6046Y867821D01*
X6117Y867909D01*
X6192Y867995D01*
X6269Y868078D01*
X6349Y868158D01*
X6432Y868235D01*
X6518Y868310D01*
X6606Y868381D01*
X6696Y868449D01*
X6789Y868514D01*
X6884Y868576D01*
X6981Y868634D01*
X7080Y868689D01*
X7181Y868740D01*
X7284Y868788D01*
X7388Y868833D01*
X7494Y868873D01*
X7601Y868910D01*
X7709Y868943D01*
X7819Y868973D01*
X7929Y868998D01*
X8040Y869020D01*
X8152Y869037D01*
X8265Y869051D01*
X8378Y869061D01*
X8491Y869067D01*
X8604Y869069D01*
X8717Y869067D01*
X8830Y869061D01*
X8943Y869051D01*
X9056Y869037D01*
X9168Y869020D01*
X9279Y868998D01*
X9389Y868973D01*
X9499Y868943D01*
X9607Y868910D01*
X9714Y868873D01*
X9820Y868833D01*
X9924Y868788D01*
X10027Y868740D01*
X10128Y868689D01*
X10227Y868634D01*
X10324Y868576D01*
X10419Y868514D01*
X10512Y868449D01*
X10602Y868381D01*
X10690Y868310D01*
X10776Y868235D01*
X10859Y868158D01*
X10939Y868078D01*
X11016Y867995D01*
X11091Y867909D01*
X11162Y867821D01*
X11230Y867731D01*
X11295Y867638D01*
X11357Y867543D01*
X11415Y867446D01*
X11470Y867347D01*
X11521Y867246D01*
X11569Y867143D01*
X11614Y867039D01*
X11654Y866933D01*
X11691Y866826D01*
X11724Y866718D01*
X11754Y866608D01*
X11779Y866498D01*
X11801Y866387D01*
X11818Y866275D01*
X11832Y866162D01*
X11842Y866049D01*
X11848Y865936D01*
X11850Y865823D01*
X17042Y866472D02*
X17042Y862578D01*
X17042Y866472D02*
X17040Y866573D01*
X17034Y866673D01*
X17024Y866773D01*
X17011Y866873D01*
X16993Y866972D01*
X16972Y867071D01*
X16947Y867168D01*
X16918Y867265D01*
X16885Y867360D01*
X16849Y867454D01*
X16809Y867546D01*
X16766Y867637D01*
X16719Y867726D01*
X16669Y867813D01*
X16615Y867899D01*
X16558Y867982D01*
X16498Y868062D01*
X16435Y868141D01*
X16368Y868217D01*
X16299Y868290D01*
X16227Y868360D01*
X16153Y868428D01*
X16076Y868493D01*
X15996Y868554D01*
X15914Y868613D01*
X15830Y868668D01*
X15744Y868720D01*
X15656Y868769D01*
X15566Y868814D01*
X15474Y868856D01*
X15381Y868894D01*
X15286Y868928D01*
X15191Y868959D01*
X15094Y868986D01*
X14996Y869009D01*
X14897Y869029D01*
X14797Y869044D01*
X14697Y869056D01*
X14597Y869064D01*
X14496Y869068D01*
X14396Y869068D01*
X14295Y869064D01*
X14195Y869056D01*
X14095Y869044D01*
X13995Y869029D01*
X13896Y869009D01*
X13798Y868986D01*
X13701Y868959D01*
X13606Y868928D01*
X13511Y868894D01*
X13418Y868856D01*
X13326Y868814D01*
X13236Y868769D01*
X13148Y868720D01*
X13062Y868668D01*
X12978Y868613D01*
X12896Y868554D01*
X12816Y868493D01*
X12739Y868428D01*
X12665Y868360D01*
X12593Y868290D01*
X12524Y868217D01*
X12457Y868141D01*
X12394Y868062D01*
X12334Y867982D01*
X12277Y867899D01*
X12223Y867813D01*
X12173Y867726D01*
X12126Y867637D01*
X12083Y867546D01*
X12043Y867454D01*
X12007Y867360D01*
X11974Y867265D01*
X11945Y867168D01*
X11920Y867071D01*
X11899Y866972D01*
X11881Y866873D01*
X11868Y866773D01*
X11858Y866673D01*
X11852Y866573D01*
X11850Y866472D01*
X11849Y866472D02*
X11849Y863876D01*
X9902Y874121D02*
X9902Y881910D01*
X5358Y890475D02*
X5360Y890574D01*
X5366Y890674D01*
X5375Y890773D01*
X5388Y890871D01*
X5405Y890969D01*
X5426Y891067D01*
X5451Y891163D01*
X5479Y891258D01*
X5511Y891352D01*
X5546Y891445D01*
X5585Y891537D01*
X5628Y891627D01*
X5673Y891715D01*
X5723Y891802D01*
X5775Y891886D01*
X5831Y891969D01*
X5889Y892049D01*
X5951Y892127D01*
X6016Y892202D01*
X6084Y892275D01*
X6154Y892345D01*
X6227Y892413D01*
X6302Y892478D01*
X6380Y892540D01*
X6460Y892598D01*
X6543Y892654D01*
X6627Y892706D01*
X6714Y892756D01*
X6802Y892801D01*
X6892Y892844D01*
X6984Y892883D01*
X7077Y892918D01*
X7171Y892950D01*
X7266Y892978D01*
X7362Y893003D01*
X7460Y893024D01*
X7558Y893041D01*
X7656Y893054D01*
X7755Y893063D01*
X7855Y893069D01*
X7954Y893071D01*
X5358Y890475D02*
X5360Y890331D01*
X5366Y890186D01*
X5375Y890042D01*
X5388Y889899D01*
X5405Y889755D01*
X5426Y889612D01*
X5451Y889470D01*
X5479Y889329D01*
X5511Y889188D01*
X5547Y889048D01*
X5586Y888909D01*
X5629Y888771D01*
X5676Y888635D01*
X5726Y888499D01*
X5780Y888365D01*
X5837Y888233D01*
X5898Y888102D01*
X5962Y887973D01*
X6030Y887845D01*
X6100Y887719D01*
X6175Y887595D01*
X6252Y887474D01*
X6333Y887354D01*
X6416Y887236D01*
X6503Y887121D01*
X6593Y887008D01*
X6686Y886897D01*
X6781Y886789D01*
X6880Y886683D01*
X6981Y886580D01*
X14446Y886906D02*
X14545Y886908D01*
X14645Y886914D01*
X14744Y886923D01*
X14842Y886936D01*
X14940Y886953D01*
X15038Y886974D01*
X15134Y886999D01*
X15229Y887027D01*
X15323Y887059D01*
X15416Y887094D01*
X15508Y887133D01*
X15598Y887176D01*
X15686Y887221D01*
X15773Y887271D01*
X15857Y887323D01*
X15940Y887379D01*
X16020Y887437D01*
X16098Y887499D01*
X16173Y887564D01*
X16246Y887632D01*
X16316Y887702D01*
X16384Y887775D01*
X16449Y887850D01*
X16511Y887928D01*
X16569Y888008D01*
X16625Y888091D01*
X16677Y888175D01*
X16727Y888262D01*
X16772Y888350D01*
X16815Y888440D01*
X16854Y888532D01*
X16889Y888625D01*
X16921Y888719D01*
X16949Y888814D01*
X16974Y888911D01*
X16995Y889008D01*
X17012Y889106D01*
X17025Y889204D01*
X17034Y889303D01*
X17040Y889403D01*
X17042Y889502D01*
X17040Y889638D01*
X17034Y889774D01*
X17025Y889910D01*
X17012Y890046D01*
X16994Y890181D01*
X16974Y890315D01*
X16949Y890449D01*
X16921Y890583D01*
X16888Y890715D01*
X16853Y890846D01*
X16813Y890977D01*
X16770Y891106D01*
X16724Y891234D01*
X16673Y891360D01*
X16620Y891486D01*
X16562Y891609D01*
X16502Y891731D01*
X16438Y891851D01*
X16370Y891970D01*
X16300Y892086D01*
X16226Y892200D01*
X16149Y892313D01*
X16068Y892423D01*
X12174Y888203D02*
X12227Y888117D01*
X12284Y888033D01*
X12343Y887951D01*
X12406Y887871D01*
X12472Y887794D01*
X12540Y887719D01*
X12612Y887647D01*
X12686Y887578D01*
X12763Y887512D01*
X12842Y887449D01*
X12924Y887389D01*
X13008Y887332D01*
X13094Y887278D01*
X13182Y887228D01*
X13272Y887181D01*
X13363Y887137D01*
X13457Y887098D01*
X13551Y887061D01*
X13647Y887029D01*
X13745Y887000D01*
X13843Y886975D01*
X13942Y886954D01*
X14042Y886936D01*
X14142Y886923D01*
X14243Y886913D01*
X14345Y886907D01*
X14446Y886905D01*
X10226Y891774D02*
X10173Y891860D01*
X10116Y891944D01*
X10057Y892026D01*
X9994Y892106D01*
X9928Y892183D01*
X9860Y892258D01*
X9788Y892330D01*
X9714Y892399D01*
X9637Y892465D01*
X9558Y892528D01*
X9476Y892588D01*
X9392Y892645D01*
X9306Y892699D01*
X9218Y892749D01*
X9128Y892796D01*
X9037Y892840D01*
X8943Y892879D01*
X8849Y892916D01*
X8753Y892948D01*
X8655Y892977D01*
X8557Y893002D01*
X8458Y893023D01*
X8358Y893041D01*
X8258Y893054D01*
X8157Y893064D01*
X8055Y893070D01*
X7954Y893072D01*
X10226Y891773D02*
X12174Y888203D01*
X17042Y897206D02*
X5358Y899803D01*
X13147Y902399D01*
X5358Y904996D01*
X17042Y907592D01*
D12*
X19450Y631900D02*
X248050Y631900D01*
X19450Y631900D02*
X19450Y568400D01*
X248050Y568400D02*
X248050Y631900D01*
X248050Y644600D02*
X260750Y644600D01*
X53740Y555700D02*
X6750Y555700D01*
X6750Y644600D01*
X260750Y644600D02*
X260750Y555700D01*
X62630Y568400D02*
X19450Y568400D01*
X113430Y576020D02*
X154070Y576020D01*
X154070Y568400D01*
X248050Y568400D01*
X154070Y568400D02*
X154070Y565860D01*
X113430Y568400D02*
X113430Y576020D01*
X113430Y568400D02*
X113430Y565860D01*
X19450Y644600D02*
X19450Y647140D01*
X32150Y647140D01*
X32150Y644600D01*
X19450Y644600D02*
X6750Y644600D01*
X127400Y647140D02*
X140100Y647140D01*
X127400Y647140D02*
X127400Y644600D01*
X32150Y644600D01*
X140100Y644600D02*
X140100Y647140D01*
X235350Y647140D02*
X248050Y647140D01*
X248050Y644600D01*
X235350Y644600D02*
X235350Y647140D01*
X235350Y644600D02*
X140100Y644600D01*
X113430Y555700D02*
X86760Y555700D01*
X113430Y555700D02*
X154070Y555700D01*
X77870Y565860D02*
X77870Y568400D01*
X113430Y568400D01*
X62630Y568400D02*
X62630Y565860D01*
X62630Y568400D02*
X77870Y568400D01*
X82950Y560780D02*
X86760Y555700D01*
X57550Y560780D02*
X53740Y555700D01*
X57550Y560780D02*
X62630Y560780D01*
D19*
X77870Y565860D02*
X113430Y565860D01*
D12*
X113430Y555700D01*
D19*
X62630Y565860D02*
X16910Y565860D01*
X16910Y634440D01*
X250590Y634440D01*
X250590Y565860D01*
X154070Y565860D01*
D12*
X154070Y555700D01*
X77870Y560780D02*
X77870Y565860D01*
X77870Y560780D02*
X82950Y560780D01*
X62630Y560780D02*
X62630Y565860D01*
X62630Y560780D02*
X77870Y560780D01*
X154070Y555700D02*
X202330Y555700D01*
X202330Y556970D01*
X217570Y556970D01*
X217570Y555700D01*
X260750Y555700D01*
D17*
X143275Y569035D02*
X140100Y571575D01*
X140100Y560145D01*
X143275Y560145D02*
X136925Y560145D01*
X131845Y562685D02*
X129305Y571575D01*
X131845Y562685D02*
X125495Y562685D01*
X127400Y565225D02*
X127400Y560145D01*
X231540Y593165D02*
X234715Y590625D01*
X231540Y593165D02*
X231540Y581735D01*
X234715Y581735D02*
X228365Y581735D01*
X228365Y615708D02*
X228367Y615812D01*
X228373Y615917D01*
X228382Y616021D01*
X228395Y616124D01*
X228413Y616227D01*
X228433Y616329D01*
X228458Y616431D01*
X228486Y616531D01*
X228518Y616631D01*
X228554Y616729D01*
X228593Y616826D01*
X228635Y616921D01*
X228681Y617015D01*
X228731Y617107D01*
X228783Y617197D01*
X228839Y617285D01*
X228899Y617371D01*
X228961Y617455D01*
X229026Y617536D01*
X229094Y617615D01*
X229166Y617692D01*
X229239Y617765D01*
X229316Y617837D01*
X229395Y617905D01*
X229476Y617970D01*
X229560Y618032D01*
X229646Y618092D01*
X229734Y618148D01*
X229824Y618200D01*
X229916Y618250D01*
X230010Y618296D01*
X230105Y618338D01*
X230202Y618377D01*
X230300Y618413D01*
X230400Y618445D01*
X230500Y618473D01*
X230602Y618498D01*
X230704Y618518D01*
X230807Y618536D01*
X230910Y618549D01*
X231014Y618558D01*
X231119Y618564D01*
X231223Y618566D01*
X231223Y618565D02*
X231341Y618563D01*
X231460Y618557D01*
X231578Y618548D01*
X231695Y618535D01*
X231812Y618517D01*
X231929Y618497D01*
X232045Y618472D01*
X232160Y618444D01*
X232273Y618411D01*
X232386Y618376D01*
X232498Y618336D01*
X232608Y618294D01*
X232717Y618247D01*
X232825Y618197D01*
X232930Y618144D01*
X233034Y618087D01*
X233136Y618027D01*
X233236Y617964D01*
X233334Y617897D01*
X233430Y617828D01*
X233523Y617755D01*
X233614Y617679D01*
X233703Y617601D01*
X233789Y617519D01*
X233872Y617435D01*
X233953Y617349D01*
X234030Y617259D01*
X234105Y617168D01*
X234177Y617074D01*
X234246Y616977D01*
X234311Y616879D01*
X234374Y616778D01*
X234433Y616675D01*
X234489Y616571D01*
X234541Y616465D01*
X234590Y616357D01*
X234635Y616248D01*
X234677Y616137D01*
X234715Y616025D01*
X229317Y613486D02*
X229241Y613561D01*
X229166Y613640D01*
X229095Y613721D01*
X229026Y613805D01*
X228961Y613891D01*
X228899Y613979D01*
X228839Y614069D01*
X228783Y614161D01*
X228730Y614256D01*
X228681Y614352D01*
X228635Y614450D01*
X228592Y614549D01*
X228553Y614650D01*
X228518Y614752D01*
X228486Y614855D01*
X228458Y614959D01*
X228433Y615064D01*
X228412Y615171D01*
X228395Y615277D01*
X228382Y615384D01*
X228373Y615492D01*
X228367Y615600D01*
X228365Y615708D01*
X229318Y613485D02*
X234715Y607135D01*
X228365Y607135D01*
D20*
X57550Y612850D03*
X82950Y612850D03*
X82950Y587450D03*
X57550Y587450D03*
X184550Y612850D03*
X209950Y612850D03*
X159150Y612850D03*
X108350Y612850D03*
X133750Y612850D03*
X184550Y587450D03*
X209950Y587450D03*
X159150Y587450D03*
X108350Y587450D03*
X133750Y587450D03*
D21*
X223666Y651839D02*
X223666Y667841D01*
X228111Y667841D02*
X219221Y667841D01*
X213522Y663396D02*
X213522Y656284D01*
X213522Y663396D02*
X213520Y663528D01*
X213514Y663659D01*
X213504Y663791D01*
X213491Y663922D01*
X213473Y664052D01*
X213452Y664182D01*
X213427Y664312D01*
X213398Y664440D01*
X213365Y664568D01*
X213328Y664694D01*
X213288Y664820D01*
X213244Y664944D01*
X213196Y665067D01*
X213145Y665188D01*
X213090Y665308D01*
X213032Y665426D01*
X212970Y665542D01*
X212904Y665656D01*
X212836Y665769D01*
X212764Y665879D01*
X212689Y665987D01*
X212610Y666093D01*
X212529Y666197D01*
X212444Y666298D01*
X212357Y666396D01*
X212266Y666492D01*
X212173Y666585D01*
X212077Y666676D01*
X211979Y666763D01*
X211878Y666848D01*
X211774Y666929D01*
X211668Y667008D01*
X211560Y667083D01*
X211450Y667155D01*
X211337Y667223D01*
X211223Y667289D01*
X211107Y667351D01*
X210989Y667409D01*
X210869Y667464D01*
X210748Y667515D01*
X210625Y667563D01*
X210501Y667607D01*
X210375Y667647D01*
X210249Y667684D01*
X210121Y667717D01*
X209993Y667746D01*
X209863Y667771D01*
X209733Y667792D01*
X209603Y667810D01*
X209472Y667823D01*
X209340Y667833D01*
X209209Y667839D01*
X209077Y667841D01*
X208945Y667839D01*
X208814Y667833D01*
X208682Y667823D01*
X208551Y667810D01*
X208421Y667792D01*
X208291Y667771D01*
X208161Y667746D01*
X208033Y667717D01*
X207905Y667684D01*
X207779Y667647D01*
X207653Y667607D01*
X207529Y667563D01*
X207406Y667515D01*
X207285Y667464D01*
X207165Y667409D01*
X207047Y667351D01*
X206931Y667289D01*
X206817Y667223D01*
X206704Y667155D01*
X206594Y667083D01*
X206486Y667008D01*
X206380Y666929D01*
X206276Y666848D01*
X206175Y666763D01*
X206077Y666676D01*
X205981Y666585D01*
X205888Y666492D01*
X205797Y666396D01*
X205710Y666298D01*
X205625Y666197D01*
X205544Y666093D01*
X205465Y665987D01*
X205390Y665879D01*
X205318Y665769D01*
X205250Y665656D01*
X205184Y665542D01*
X205122Y665426D01*
X205064Y665308D01*
X205009Y665188D01*
X204958Y665067D01*
X204910Y664944D01*
X204866Y664820D01*
X204826Y664694D01*
X204789Y664568D01*
X204756Y664440D01*
X204727Y664312D01*
X204702Y664182D01*
X204681Y664052D01*
X204663Y663922D01*
X204650Y663791D01*
X204640Y663659D01*
X204634Y663528D01*
X204632Y663396D01*
X204632Y656284D01*
X204634Y656152D01*
X204640Y656021D01*
X204650Y655889D01*
X204663Y655758D01*
X204681Y655628D01*
X204702Y655498D01*
X204727Y655368D01*
X204756Y655240D01*
X204789Y655112D01*
X204826Y654986D01*
X204866Y654860D01*
X204910Y654736D01*
X204958Y654613D01*
X205009Y654492D01*
X205064Y654372D01*
X205122Y654254D01*
X205184Y654138D01*
X205250Y654024D01*
X205318Y653911D01*
X205390Y653801D01*
X205465Y653693D01*
X205544Y653587D01*
X205625Y653483D01*
X205710Y653382D01*
X205797Y653284D01*
X205888Y653188D01*
X205981Y653095D01*
X206077Y653004D01*
X206175Y652917D01*
X206276Y652832D01*
X206380Y652751D01*
X206486Y652672D01*
X206594Y652597D01*
X206704Y652525D01*
X206817Y652457D01*
X206931Y652391D01*
X207047Y652329D01*
X207165Y652271D01*
X207285Y652216D01*
X207406Y652165D01*
X207529Y652117D01*
X207653Y652073D01*
X207779Y652033D01*
X207905Y651996D01*
X208033Y651963D01*
X208161Y651934D01*
X208291Y651909D01*
X208421Y651888D01*
X208551Y651870D01*
X208682Y651857D01*
X208814Y651847D01*
X208945Y651841D01*
X209077Y651839D01*
X209209Y651841D01*
X209340Y651847D01*
X209472Y651857D01*
X209603Y651870D01*
X209733Y651888D01*
X209863Y651909D01*
X209993Y651934D01*
X210121Y651963D01*
X210249Y651996D01*
X210375Y652033D01*
X210501Y652073D01*
X210625Y652117D01*
X210748Y652165D01*
X210869Y652216D01*
X210989Y652271D01*
X211107Y652329D01*
X211223Y652391D01*
X211337Y652457D01*
X211450Y652525D01*
X211560Y652597D01*
X211668Y652672D01*
X211774Y652751D01*
X211878Y652832D01*
X211979Y652917D01*
X212077Y653004D01*
X212173Y653095D01*
X212266Y653188D01*
X212357Y653284D01*
X212444Y653382D01*
X212529Y653483D01*
X212610Y653587D01*
X212689Y653693D01*
X212764Y653801D01*
X212836Y653911D01*
X212904Y654024D01*
X212970Y654138D01*
X213032Y654254D01*
X213090Y654372D01*
X213145Y654492D01*
X213196Y654613D01*
X213244Y654736D01*
X213288Y654860D01*
X213328Y654986D01*
X213365Y655112D01*
X213398Y655240D01*
X213427Y655368D01*
X213452Y655498D01*
X213473Y655628D01*
X213491Y655758D01*
X213504Y655889D01*
X213514Y656021D01*
X213520Y656152D01*
X213522Y656284D01*
X197738Y658062D02*
X187070Y658062D01*
X179501Y651839D02*
X179501Y667841D01*
X174167Y658951D01*
X168833Y667841D01*
X168833Y651839D01*
X162307Y651839D02*
X156973Y667841D01*
X151639Y651839D01*
X152972Y655840D02*
X160973Y655840D01*
X144468Y651839D02*
X144468Y667841D01*
X146246Y651839D02*
X142690Y651839D01*
X142690Y667841D02*
X146246Y667841D01*
X135887Y667841D02*
X135887Y651839D01*
X126997Y651839D02*
X135887Y667841D01*
X126997Y667841D02*
X126997Y651839D01*
X114845Y667842D02*
X114719Y667840D01*
X114594Y667834D01*
X114468Y667824D01*
X114344Y667810D01*
X114219Y667793D01*
X114095Y667771D01*
X113972Y667746D01*
X113850Y667716D01*
X113729Y667683D01*
X113609Y667646D01*
X113490Y667605D01*
X113372Y667561D01*
X113256Y667513D01*
X113141Y667461D01*
X113029Y667406D01*
X112918Y667347D01*
X112808Y667285D01*
X112701Y667219D01*
X112596Y667150D01*
X112493Y667078D01*
X112393Y667002D01*
X112295Y666924D01*
X112199Y666842D01*
X112106Y666758D01*
X112016Y666670D01*
X111928Y666580D01*
X111844Y666487D01*
X111762Y666391D01*
X111684Y666293D01*
X111608Y666193D01*
X111536Y666090D01*
X111467Y665985D01*
X111401Y665878D01*
X111339Y665768D01*
X111280Y665657D01*
X111225Y665545D01*
X111173Y665430D01*
X111125Y665314D01*
X111081Y665196D01*
X111040Y665077D01*
X111003Y664957D01*
X110970Y664836D01*
X110940Y664714D01*
X110915Y664591D01*
X110893Y664467D01*
X110876Y664342D01*
X110862Y664218D01*
X110852Y664092D01*
X110846Y663967D01*
X110844Y663841D01*
X114845Y667841D02*
X114986Y667839D01*
X115126Y667833D01*
X115266Y667824D01*
X115406Y667810D01*
X115545Y667793D01*
X115684Y667772D01*
X115823Y667747D01*
X115960Y667719D01*
X116097Y667686D01*
X116233Y667650D01*
X116368Y667610D01*
X116501Y667567D01*
X116634Y667520D01*
X116765Y667469D01*
X116894Y667415D01*
X117022Y667357D01*
X117149Y667296D01*
X117274Y667231D01*
X117396Y667163D01*
X117517Y667092D01*
X117637Y667017D01*
X117753Y666939D01*
X117868Y666858D01*
X117981Y666774D01*
X118091Y666686D01*
X118199Y666596D01*
X118304Y666503D01*
X118406Y666407D01*
X118506Y666308D01*
X118604Y666207D01*
X118698Y666103D01*
X118790Y665996D01*
X118878Y665887D01*
X118964Y665776D01*
X119046Y665662D01*
X119126Y665546D01*
X119202Y665428D01*
X119275Y665308D01*
X119344Y665186D01*
X119411Y665062D01*
X119474Y664936D01*
X119533Y664809D01*
X119589Y664680D01*
X119641Y664550D01*
X119690Y664418D01*
X119735Y664285D01*
X112178Y660729D02*
X112086Y660820D01*
X111996Y660913D01*
X111910Y661008D01*
X111826Y661106D01*
X111746Y661207D01*
X111668Y661310D01*
X111594Y661415D01*
X111523Y661523D01*
X111455Y661632D01*
X111391Y661744D01*
X111329Y661857D01*
X111272Y661972D01*
X111217Y662089D01*
X111166Y662208D01*
X111119Y662328D01*
X111076Y662449D01*
X111036Y662571D01*
X111000Y662695D01*
X110967Y662820D01*
X110938Y662945D01*
X110913Y663072D01*
X110892Y663199D01*
X110875Y663327D01*
X110861Y663455D01*
X110852Y663583D01*
X110846Y663712D01*
X110844Y663841D01*
X112178Y660729D02*
X119734Y651839D01*
X110844Y651839D01*
D12*
X457174Y106604D02*
X457174Y93396D01*
X457174Y106604D02*
X428726Y106604D01*
X428726Y93396D01*
X457174Y93396D01*
D22*
X442950Y89967D03*
X452348Y110033D03*
X433552Y110033D03*
D12*
X435838Y146350D02*
X450062Y146350D01*
X450062Y133650D02*
X435838Y133650D01*
D23*
X451586Y140000D03*
X434314Y140000D03*
D10*
X418419Y126113D02*
X411109Y124024D01*
X411109Y129245D01*
X413198Y127679D02*
X409021Y127679D01*
X409021Y132775D02*
X409543Y132775D01*
X409543Y133297D01*
X409021Y133297D01*
X409021Y132775D01*
X417375Y136826D02*
X418419Y136826D01*
X418419Y142047D01*
X409021Y139436D01*
X409021Y146292D02*
X418419Y146292D01*
X415286Y150469D02*
X412154Y146292D01*
X413459Y148120D02*
X409021Y150469D01*
D12*
X89030Y874158D02*
X89030Y888382D01*
X76330Y888382D02*
X76330Y874158D01*
D16*
X82680Y872634D03*
X82680Y889906D03*
D10*
X103071Y875301D02*
X105159Y877912D01*
X95761Y877912D01*
X95761Y880522D02*
X95761Y875301D01*
X95761Y884767D02*
X105159Y884767D01*
X102026Y888944D02*
X98894Y884767D01*
X100199Y886595D02*
X95761Y888944D01*
D12*
X89300Y737112D02*
X89300Y722888D01*
X76600Y722888D02*
X76600Y737112D01*
D16*
X82950Y721364D03*
X82950Y738636D03*
D10*
X103341Y724031D02*
X105429Y726642D01*
X96031Y726642D01*
X96031Y729252D02*
X96031Y724031D01*
X96031Y733497D02*
X105429Y733497D01*
X102296Y737674D02*
X99164Y733497D01*
X100469Y735325D02*
X96031Y737674D01*
D12*
X435838Y153650D02*
X450062Y153650D01*
X450062Y166350D02*
X435838Y166350D01*
D23*
X434314Y160000D03*
X451586Y160000D03*
D10*
X421279Y160192D02*
X419191Y157581D01*
X421279Y160192D02*
X411881Y160192D01*
X411881Y162802D02*
X411881Y157581D01*
X411881Y167047D02*
X421279Y167047D01*
X418146Y171224D02*
X415014Y167047D01*
X416319Y168875D02*
X411881Y171224D01*
D17*
X417550Y191900D02*
X417550Y268100D01*
X417550Y191900D02*
X468350Y191900D01*
X468350Y204600D01*
X468350Y255400D01*
X468350Y268100D01*
X417550Y268100D01*
X455650Y255400D02*
X468350Y255400D01*
X455650Y255400D02*
X455650Y204600D01*
X468350Y204600D01*
D18*
X410692Y188767D02*
X408096Y185522D01*
X410692Y188767D02*
X399008Y188767D01*
X399008Y185522D02*
X399008Y192013D01*
X407771Y203443D02*
X407878Y203441D01*
X407984Y203435D01*
X408090Y203425D01*
X408196Y203412D01*
X408302Y203394D01*
X408406Y203373D01*
X408510Y203348D01*
X408613Y203319D01*
X408714Y203287D01*
X408814Y203250D01*
X408913Y203210D01*
X409011Y203167D01*
X409107Y203120D01*
X409201Y203069D01*
X409293Y203015D01*
X409383Y202958D01*
X409471Y202898D01*
X409556Y202834D01*
X409639Y202767D01*
X409720Y202697D01*
X409798Y202625D01*
X409874Y202549D01*
X409946Y202471D01*
X410016Y202390D01*
X410083Y202307D01*
X410147Y202222D01*
X410207Y202134D01*
X410264Y202044D01*
X410318Y201952D01*
X410369Y201858D01*
X410416Y201762D01*
X410459Y201664D01*
X410499Y201565D01*
X410536Y201465D01*
X410568Y201364D01*
X410597Y201261D01*
X410622Y201157D01*
X410643Y201053D01*
X410661Y200947D01*
X410674Y200841D01*
X410684Y200735D01*
X410690Y200629D01*
X410692Y200522D01*
X410690Y200401D01*
X410684Y200280D01*
X410674Y200160D01*
X410661Y200039D01*
X410643Y199920D01*
X410622Y199800D01*
X410597Y199682D01*
X410568Y199565D01*
X410535Y199448D01*
X410499Y199333D01*
X410458Y199219D01*
X410415Y199106D01*
X410367Y198994D01*
X410316Y198885D01*
X410261Y198777D01*
X410203Y198670D01*
X410142Y198566D01*
X410077Y198464D01*
X410009Y198364D01*
X409938Y198266D01*
X409864Y198170D01*
X409787Y198077D01*
X409706Y197987D01*
X409623Y197899D01*
X409537Y197814D01*
X409448Y197731D01*
X409357Y197652D01*
X409263Y197575D01*
X409167Y197502D01*
X409069Y197432D01*
X408968Y197365D01*
X408865Y197301D01*
X408760Y197241D01*
X408653Y197184D01*
X408545Y197130D01*
X408435Y197080D01*
X408323Y197034D01*
X408210Y196991D01*
X408095Y196952D01*
X405499Y202469D02*
X405576Y202548D01*
X405657Y202624D01*
X405740Y202697D01*
X405825Y202767D01*
X405913Y202834D01*
X406003Y202898D01*
X406095Y202958D01*
X406190Y203015D01*
X406286Y203069D01*
X406384Y203120D01*
X406484Y203167D01*
X406586Y203211D01*
X406689Y203251D01*
X406793Y203287D01*
X406899Y203319D01*
X407005Y203348D01*
X407113Y203373D01*
X407221Y203395D01*
X407331Y203412D01*
X407440Y203426D01*
X407550Y203435D01*
X407661Y203441D01*
X407771Y203443D01*
X405499Y202469D02*
X399008Y196952D01*
X399008Y203443D01*
X399008Y211627D02*
X410692Y207733D01*
X410692Y215522D02*
X399008Y211627D01*
X403552Y219925D02*
X403552Y227714D01*
X399008Y233316D02*
X410692Y233316D01*
X410692Y239807D02*
X403552Y233316D01*
X406148Y235913D02*
X399008Y239807D01*
X399008Y244599D02*
X399008Y249792D01*
X399008Y244599D02*
X410692Y244599D01*
X410692Y249792D01*
X405499Y248494D02*
X405499Y244599D01*
X410692Y253453D02*
X405175Y257347D01*
X410692Y261242D01*
X405175Y257347D02*
X399008Y257347D01*
D14*
X395860Y807170D02*
X395863Y807391D01*
X395871Y807612D01*
X395884Y807832D01*
X395903Y808052D01*
X395928Y808272D01*
X395957Y808491D01*
X395993Y808709D01*
X396033Y808926D01*
X396079Y809142D01*
X396130Y809357D01*
X396186Y809570D01*
X396248Y809783D01*
X396314Y809993D01*
X396386Y810202D01*
X396463Y810409D01*
X396545Y810614D01*
X396632Y810817D01*
X396724Y811018D01*
X396821Y811217D01*
X396923Y811413D01*
X397029Y811606D01*
X397140Y811797D01*
X397256Y811985D01*
X397377Y812170D01*
X397502Y812352D01*
X397631Y812531D01*
X397765Y812707D01*
X397903Y812880D01*
X398045Y813049D01*
X398191Y813214D01*
X398342Y813376D01*
X398496Y813534D01*
X398654Y813688D01*
X398816Y813839D01*
X398981Y813985D01*
X399150Y814127D01*
X399323Y814265D01*
X399499Y814399D01*
X399678Y814528D01*
X399860Y814653D01*
X400045Y814774D01*
X400233Y814890D01*
X400424Y815001D01*
X400617Y815107D01*
X400813Y815209D01*
X401012Y815306D01*
X401213Y815398D01*
X401416Y815485D01*
X401621Y815567D01*
X401828Y815644D01*
X402037Y815716D01*
X402247Y815782D01*
X402460Y815844D01*
X402673Y815900D01*
X402888Y815951D01*
X403104Y815997D01*
X403321Y816037D01*
X403539Y816073D01*
X403758Y816102D01*
X403978Y816127D01*
X404198Y816146D01*
X404418Y816159D01*
X404639Y816167D01*
X404860Y816170D01*
X405081Y816167D01*
X405302Y816159D01*
X405522Y816146D01*
X405742Y816127D01*
X405962Y816102D01*
X406181Y816073D01*
X406399Y816037D01*
X406616Y815997D01*
X406832Y815951D01*
X407047Y815900D01*
X407260Y815844D01*
X407473Y815782D01*
X407683Y815716D01*
X407892Y815644D01*
X408099Y815567D01*
X408304Y815485D01*
X408507Y815398D01*
X408708Y815306D01*
X408907Y815209D01*
X409103Y815107D01*
X409296Y815001D01*
X409487Y814890D01*
X409675Y814774D01*
X409860Y814653D01*
X410042Y814528D01*
X410221Y814399D01*
X410397Y814265D01*
X410570Y814127D01*
X410739Y813985D01*
X410904Y813839D01*
X411066Y813688D01*
X411224Y813534D01*
X411378Y813376D01*
X411529Y813214D01*
X411675Y813049D01*
X411817Y812880D01*
X411955Y812707D01*
X412089Y812531D01*
X412218Y812352D01*
X412343Y812170D01*
X412464Y811985D01*
X412580Y811797D01*
X412691Y811606D01*
X412797Y811413D01*
X412899Y811217D01*
X412996Y811018D01*
X413088Y810817D01*
X413175Y810614D01*
X413257Y810409D01*
X413334Y810202D01*
X413406Y809993D01*
X413472Y809783D01*
X413534Y809570D01*
X413590Y809357D01*
X413641Y809142D01*
X413687Y808926D01*
X413727Y808709D01*
X413763Y808491D01*
X413792Y808272D01*
X413817Y808052D01*
X413836Y807832D01*
X413849Y807612D01*
X413857Y807391D01*
X413860Y807170D01*
X413857Y806949D01*
X413849Y806728D01*
X413836Y806508D01*
X413817Y806288D01*
X413792Y806068D01*
X413763Y805849D01*
X413727Y805631D01*
X413687Y805414D01*
X413641Y805198D01*
X413590Y804983D01*
X413534Y804770D01*
X413472Y804557D01*
X413406Y804347D01*
X413334Y804138D01*
X413257Y803931D01*
X413175Y803726D01*
X413088Y803523D01*
X412996Y803322D01*
X412899Y803123D01*
X412797Y802927D01*
X412691Y802734D01*
X412580Y802543D01*
X412464Y802355D01*
X412343Y802170D01*
X412218Y801988D01*
X412089Y801809D01*
X411955Y801633D01*
X411817Y801460D01*
X411675Y801291D01*
X411529Y801126D01*
X411378Y800964D01*
X411224Y800806D01*
X411066Y800652D01*
X410904Y800501D01*
X410739Y800355D01*
X410570Y800213D01*
X410397Y800075D01*
X410221Y799941D01*
X410042Y799812D01*
X409860Y799687D01*
X409675Y799566D01*
X409487Y799450D01*
X409296Y799339D01*
X409103Y799233D01*
X408907Y799131D01*
X408708Y799034D01*
X408507Y798942D01*
X408304Y798855D01*
X408099Y798773D01*
X407892Y798696D01*
X407683Y798624D01*
X407473Y798558D01*
X407260Y798496D01*
X407047Y798440D01*
X406832Y798389D01*
X406616Y798343D01*
X406399Y798303D01*
X406181Y798267D01*
X405962Y798238D01*
X405742Y798213D01*
X405522Y798194D01*
X405302Y798181D01*
X405081Y798173D01*
X404860Y798170D01*
X404639Y798173D01*
X404418Y798181D01*
X404198Y798194D01*
X403978Y798213D01*
X403758Y798238D01*
X403539Y798267D01*
X403321Y798303D01*
X403104Y798343D01*
X402888Y798389D01*
X402673Y798440D01*
X402460Y798496D01*
X402247Y798558D01*
X402037Y798624D01*
X401828Y798696D01*
X401621Y798773D01*
X401416Y798855D01*
X401213Y798942D01*
X401012Y799034D01*
X400813Y799131D01*
X400617Y799233D01*
X400424Y799339D01*
X400233Y799450D01*
X400045Y799566D01*
X399860Y799687D01*
X399678Y799812D01*
X399499Y799941D01*
X399323Y800075D01*
X399150Y800213D01*
X398981Y800355D01*
X398816Y800501D01*
X398654Y800652D01*
X398496Y800806D01*
X398342Y800964D01*
X398191Y801126D01*
X398045Y801291D01*
X397903Y801460D01*
X397765Y801633D01*
X397631Y801809D01*
X397502Y801988D01*
X397377Y802170D01*
X397256Y802355D01*
X397140Y802543D01*
X397029Y802734D01*
X396923Y802927D01*
X396821Y803123D01*
X396724Y803322D01*
X396632Y803523D01*
X396545Y803726D01*
X396463Y803931D01*
X396386Y804138D01*
X396314Y804347D01*
X396248Y804557D01*
X396186Y804770D01*
X396130Y804983D01*
X396079Y805198D01*
X396033Y805414D01*
X395993Y805631D01*
X395957Y805849D01*
X395928Y806068D01*
X395903Y806288D01*
X395884Y806508D01*
X395871Y806728D01*
X395863Y806949D01*
X395860Y807170D01*
D12*
X402300Y844550D02*
X410500Y844550D01*
X410500Y831850D02*
X402300Y831850D01*
D24*
X399086Y838215D03*
X413818Y838215D03*
D10*
X413639Y847471D02*
X411028Y847471D01*
X410927Y847473D01*
X410826Y847479D01*
X410725Y847489D01*
X410625Y847502D01*
X410525Y847520D01*
X410426Y847541D01*
X410328Y847567D01*
X410231Y847596D01*
X410135Y847628D01*
X410041Y847665D01*
X409948Y847705D01*
X409856Y847749D01*
X409767Y847796D01*
X409679Y847847D01*
X409593Y847901D01*
X409510Y847958D01*
X409428Y848018D01*
X409350Y848082D01*
X409273Y848148D01*
X409200Y848218D01*
X409129Y848290D01*
X409061Y848365D01*
X408996Y848443D01*
X408934Y848523D01*
X408875Y848605D01*
X408819Y848690D01*
X408767Y848777D01*
X408718Y848865D01*
X408672Y848956D01*
X408631Y849048D01*
X408592Y849142D01*
X408558Y849237D01*
X408527Y849333D01*
X408500Y849431D01*
X408476Y849529D01*
X408457Y849629D01*
X408441Y849729D01*
X408429Y849829D01*
X408421Y849930D01*
X408417Y850031D01*
X408417Y850133D01*
X408421Y850234D01*
X408429Y850335D01*
X408441Y850435D01*
X408457Y850535D01*
X408476Y850635D01*
X408500Y850733D01*
X408527Y850831D01*
X408558Y850927D01*
X408592Y851022D01*
X408631Y851116D01*
X408672Y851208D01*
X408718Y851299D01*
X408767Y851388D01*
X408819Y851474D01*
X408875Y851559D01*
X408934Y851641D01*
X408996Y851721D01*
X409061Y851799D01*
X409129Y851874D01*
X409200Y851946D01*
X409273Y852016D01*
X409350Y852082D01*
X409428Y852146D01*
X409510Y852206D01*
X409593Y852263D01*
X409679Y852317D01*
X409767Y852368D01*
X409856Y852415D01*
X409948Y852459D01*
X410041Y852499D01*
X410135Y852536D01*
X410231Y852568D01*
X410328Y852597D01*
X410426Y852623D01*
X410525Y852644D01*
X410625Y852662D01*
X410725Y852675D01*
X410826Y852685D01*
X410927Y852691D01*
X411028Y852693D01*
X410506Y856869D02*
X413639Y856869D01*
X410506Y856869D02*
X410416Y856867D01*
X410327Y856861D01*
X410237Y856852D01*
X410148Y856838D01*
X410060Y856821D01*
X409973Y856800D01*
X409886Y856775D01*
X409801Y856746D01*
X409717Y856714D01*
X409635Y856679D01*
X409554Y856639D01*
X409475Y856597D01*
X409398Y856551D01*
X409323Y856501D01*
X409250Y856449D01*
X409179Y856393D01*
X409111Y856335D01*
X409046Y856273D01*
X408983Y856209D01*
X408923Y856142D01*
X408866Y856073D01*
X408812Y856001D01*
X408761Y855927D01*
X408713Y855851D01*
X408669Y855773D01*
X408628Y855693D01*
X408590Y855611D01*
X408556Y855528D01*
X408526Y855443D01*
X408499Y855357D01*
X408476Y855271D01*
X408457Y855183D01*
X408442Y855094D01*
X408430Y855005D01*
X408422Y854916D01*
X408418Y854826D01*
X408418Y854736D01*
X408422Y854646D01*
X408430Y854557D01*
X408442Y854468D01*
X408457Y854379D01*
X408476Y854291D01*
X408499Y854205D01*
X408526Y854119D01*
X408556Y854034D01*
X408590Y853951D01*
X408628Y853869D01*
X408669Y853789D01*
X408713Y853711D01*
X408761Y853635D01*
X408812Y853561D01*
X408866Y853489D01*
X408923Y853420D01*
X408983Y853353D01*
X409046Y853289D01*
X409111Y853227D01*
X409179Y853169D01*
X409250Y853113D01*
X409323Y853061D01*
X409398Y853011D01*
X409475Y852965D01*
X409554Y852923D01*
X409635Y852883D01*
X409717Y852848D01*
X409801Y852816D01*
X409886Y852787D01*
X409973Y852762D01*
X410060Y852741D01*
X410148Y852724D01*
X410237Y852710D01*
X410327Y852701D01*
X410416Y852695D01*
X410506Y852693D01*
X410506Y852692D02*
X412595Y852692D01*
X404495Y847471D02*
X401885Y847471D01*
X401784Y847473D01*
X401683Y847479D01*
X401582Y847489D01*
X401482Y847502D01*
X401382Y847520D01*
X401283Y847541D01*
X401185Y847567D01*
X401088Y847596D01*
X400992Y847628D01*
X400898Y847665D01*
X400805Y847705D01*
X400713Y847749D01*
X400624Y847796D01*
X400536Y847847D01*
X400450Y847901D01*
X400367Y847958D01*
X400285Y848018D01*
X400207Y848082D01*
X400130Y848148D01*
X400057Y848218D01*
X399986Y848290D01*
X399918Y848365D01*
X399853Y848443D01*
X399791Y848523D01*
X399732Y848605D01*
X399676Y848690D01*
X399624Y848777D01*
X399575Y848865D01*
X399529Y848956D01*
X399488Y849048D01*
X399449Y849142D01*
X399415Y849237D01*
X399384Y849333D01*
X399357Y849431D01*
X399333Y849529D01*
X399314Y849629D01*
X399298Y849729D01*
X399286Y849829D01*
X399278Y849930D01*
X399274Y850031D01*
X399274Y850133D01*
X399278Y850234D01*
X399286Y850335D01*
X399298Y850435D01*
X399314Y850535D01*
X399333Y850635D01*
X399357Y850733D01*
X399384Y850831D01*
X399415Y850927D01*
X399449Y851022D01*
X399488Y851116D01*
X399529Y851208D01*
X399575Y851299D01*
X399624Y851388D01*
X399676Y851474D01*
X399732Y851559D01*
X399791Y851641D01*
X399853Y851721D01*
X399918Y851799D01*
X399986Y851874D01*
X400057Y851946D01*
X400130Y852016D01*
X400207Y852082D01*
X400285Y852146D01*
X400367Y852206D01*
X400450Y852263D01*
X400536Y852317D01*
X400624Y852368D01*
X400713Y852415D01*
X400805Y852459D01*
X400898Y852499D01*
X400992Y852536D01*
X401088Y852568D01*
X401185Y852597D01*
X401283Y852623D01*
X401382Y852644D01*
X401482Y852662D01*
X401582Y852675D01*
X401683Y852685D01*
X401784Y852691D01*
X401885Y852693D01*
X401362Y856869D02*
X404495Y856869D01*
X401362Y856869D02*
X401272Y856867D01*
X401183Y856861D01*
X401093Y856852D01*
X401004Y856838D01*
X400916Y856821D01*
X400829Y856800D01*
X400742Y856775D01*
X400657Y856746D01*
X400573Y856714D01*
X400491Y856679D01*
X400410Y856639D01*
X400331Y856597D01*
X400254Y856551D01*
X400179Y856501D01*
X400106Y856449D01*
X400035Y856393D01*
X399967Y856335D01*
X399902Y856273D01*
X399839Y856209D01*
X399779Y856142D01*
X399722Y856073D01*
X399668Y856001D01*
X399617Y855927D01*
X399569Y855851D01*
X399525Y855773D01*
X399484Y855693D01*
X399446Y855611D01*
X399412Y855528D01*
X399382Y855443D01*
X399355Y855357D01*
X399332Y855271D01*
X399313Y855183D01*
X399298Y855094D01*
X399286Y855005D01*
X399278Y854916D01*
X399274Y854826D01*
X399274Y854736D01*
X399278Y854646D01*
X399286Y854557D01*
X399298Y854468D01*
X399313Y854379D01*
X399332Y854291D01*
X399355Y854205D01*
X399382Y854119D01*
X399412Y854034D01*
X399446Y853951D01*
X399484Y853869D01*
X399525Y853789D01*
X399569Y853711D01*
X399617Y853635D01*
X399668Y853561D01*
X399722Y853489D01*
X399779Y853420D01*
X399839Y853353D01*
X399902Y853289D01*
X399967Y853227D01*
X400035Y853169D01*
X400106Y853113D01*
X400179Y853061D01*
X400254Y853011D01*
X400331Y852965D01*
X400410Y852923D01*
X400491Y852883D01*
X400573Y852848D01*
X400657Y852816D01*
X400742Y852787D01*
X400829Y852762D01*
X400916Y852741D01*
X401004Y852724D01*
X401093Y852710D01*
X401183Y852701D01*
X401272Y852695D01*
X401362Y852693D01*
X401362Y852692D02*
X403451Y852692D01*
X395351Y852170D02*
X395349Y852355D01*
X395342Y852540D01*
X395331Y852724D01*
X395316Y852908D01*
X395296Y853092D01*
X395272Y853276D01*
X395243Y853458D01*
X395210Y853640D01*
X395173Y853821D01*
X395131Y854001D01*
X395085Y854181D01*
X395035Y854359D01*
X394981Y854535D01*
X394922Y854711D01*
X394860Y854885D01*
X394793Y855057D01*
X394722Y855228D01*
X394647Y855397D01*
X394568Y855564D01*
X394569Y855564D02*
X394539Y855644D01*
X394506Y855723D01*
X394469Y855800D01*
X394429Y855876D01*
X394386Y855950D01*
X394340Y856022D01*
X394290Y856091D01*
X394238Y856159D01*
X394182Y856224D01*
X394124Y856287D01*
X394062Y856346D01*
X393999Y856404D01*
X393932Y856458D01*
X393864Y856509D01*
X393793Y856557D01*
X393720Y856602D01*
X393646Y856644D01*
X393569Y856682D01*
X393491Y856717D01*
X393412Y856749D01*
X393331Y856777D01*
X393249Y856801D01*
X393165Y856822D01*
X393082Y856839D01*
X392997Y856852D01*
X392912Y856861D01*
X392827Y856867D01*
X392741Y856869D01*
X392655Y856867D01*
X392570Y856861D01*
X392485Y856852D01*
X392400Y856839D01*
X392317Y856822D01*
X392233Y856801D01*
X392151Y856777D01*
X392071Y856749D01*
X391991Y856717D01*
X391913Y856682D01*
X391836Y856644D01*
X391762Y856602D01*
X391689Y856557D01*
X391618Y856509D01*
X391550Y856458D01*
X391483Y856404D01*
X391420Y856346D01*
X391359Y856287D01*
X391300Y856224D01*
X391245Y856159D01*
X391192Y856091D01*
X391142Y856022D01*
X391096Y855950D01*
X391053Y855876D01*
X391013Y855800D01*
X390976Y855723D01*
X390943Y855644D01*
X390913Y855564D01*
X390834Y855397D01*
X390759Y855228D01*
X390688Y855057D01*
X390621Y854885D01*
X390559Y854711D01*
X390500Y854535D01*
X390446Y854359D01*
X390396Y854181D01*
X390350Y854001D01*
X390308Y853821D01*
X390271Y853640D01*
X390238Y853458D01*
X390209Y853276D01*
X390185Y853092D01*
X390165Y852908D01*
X390150Y852724D01*
X390139Y852540D01*
X390132Y852355D01*
X390130Y852170D01*
X395351Y852170D02*
X395349Y851985D01*
X395342Y851800D01*
X395331Y851616D01*
X395316Y851432D01*
X395296Y851248D01*
X395272Y851064D01*
X395243Y850882D01*
X395210Y850700D01*
X395173Y850519D01*
X395131Y850339D01*
X395085Y850159D01*
X395035Y849981D01*
X394981Y849805D01*
X394922Y849629D01*
X394860Y849455D01*
X394793Y849283D01*
X394722Y849112D01*
X394647Y848943D01*
X394568Y848776D01*
X394569Y848776D02*
X394539Y848696D01*
X394506Y848617D01*
X394469Y848540D01*
X394429Y848464D01*
X394386Y848390D01*
X394340Y848318D01*
X394290Y848249D01*
X394237Y848181D01*
X394182Y848116D01*
X394123Y848053D01*
X394062Y847994D01*
X393999Y847936D01*
X393932Y847882D01*
X393864Y847831D01*
X393793Y847783D01*
X393720Y847738D01*
X393646Y847696D01*
X393569Y847658D01*
X393491Y847623D01*
X393412Y847591D01*
X393331Y847563D01*
X393249Y847539D01*
X393165Y847518D01*
X393082Y847501D01*
X392997Y847488D01*
X392912Y847479D01*
X392827Y847473D01*
X392741Y847471D01*
X390913Y848776D02*
X390834Y848943D01*
X390759Y849112D01*
X390688Y849283D01*
X390621Y849455D01*
X390559Y849629D01*
X390500Y849805D01*
X390446Y849981D01*
X390396Y850159D01*
X390350Y850339D01*
X390308Y850519D01*
X390271Y850700D01*
X390238Y850882D01*
X390209Y851064D01*
X390185Y851248D01*
X390165Y851432D01*
X390150Y851616D01*
X390139Y851800D01*
X390132Y851985D01*
X390130Y852170D01*
X390913Y848776D02*
X390943Y848696D01*
X390976Y848617D01*
X391013Y848540D01*
X391053Y848464D01*
X391096Y848390D01*
X391142Y848318D01*
X391192Y848249D01*
X391245Y848181D01*
X391300Y848116D01*
X391359Y848053D01*
X391420Y847994D01*
X391483Y847936D01*
X391550Y847882D01*
X391618Y847831D01*
X391689Y847783D01*
X391762Y847738D01*
X391836Y847696D01*
X391913Y847658D01*
X391991Y847623D01*
X392071Y847591D01*
X392151Y847563D01*
X392233Y847539D01*
X392317Y847518D01*
X392400Y847501D01*
X392485Y847488D01*
X392570Y847479D01*
X392655Y847473D01*
X392741Y847471D01*
X394829Y849559D02*
X390652Y854781D01*
D12*
X408650Y698500D02*
X416850Y698500D01*
X416850Y685800D02*
X408650Y685800D01*
D24*
X405436Y692165D03*
X420168Y692165D03*
D10*
X419989Y701421D02*
X417378Y701421D01*
X417277Y701423D01*
X417176Y701429D01*
X417075Y701439D01*
X416975Y701452D01*
X416875Y701470D01*
X416776Y701491D01*
X416678Y701517D01*
X416581Y701546D01*
X416485Y701578D01*
X416391Y701615D01*
X416298Y701655D01*
X416206Y701699D01*
X416117Y701746D01*
X416029Y701797D01*
X415943Y701851D01*
X415860Y701908D01*
X415778Y701968D01*
X415700Y702032D01*
X415623Y702098D01*
X415550Y702168D01*
X415479Y702240D01*
X415411Y702315D01*
X415346Y702393D01*
X415284Y702473D01*
X415225Y702555D01*
X415169Y702640D01*
X415117Y702727D01*
X415068Y702815D01*
X415022Y702906D01*
X414981Y702998D01*
X414942Y703092D01*
X414908Y703187D01*
X414877Y703283D01*
X414850Y703381D01*
X414826Y703479D01*
X414807Y703579D01*
X414791Y703679D01*
X414779Y703779D01*
X414771Y703880D01*
X414767Y703981D01*
X414767Y704083D01*
X414771Y704184D01*
X414779Y704285D01*
X414791Y704385D01*
X414807Y704485D01*
X414826Y704585D01*
X414850Y704683D01*
X414877Y704781D01*
X414908Y704877D01*
X414942Y704972D01*
X414981Y705066D01*
X415022Y705158D01*
X415068Y705249D01*
X415117Y705338D01*
X415169Y705424D01*
X415225Y705509D01*
X415284Y705591D01*
X415346Y705671D01*
X415411Y705749D01*
X415479Y705824D01*
X415550Y705896D01*
X415623Y705966D01*
X415700Y706032D01*
X415778Y706096D01*
X415860Y706156D01*
X415943Y706213D01*
X416029Y706267D01*
X416117Y706318D01*
X416206Y706365D01*
X416298Y706409D01*
X416391Y706449D01*
X416485Y706486D01*
X416581Y706518D01*
X416678Y706547D01*
X416776Y706573D01*
X416875Y706594D01*
X416975Y706612D01*
X417075Y706625D01*
X417176Y706635D01*
X417277Y706641D01*
X417378Y706643D01*
X416856Y710819D02*
X419989Y710819D01*
X416856Y710819D02*
X416766Y710817D01*
X416677Y710811D01*
X416587Y710802D01*
X416498Y710788D01*
X416410Y710771D01*
X416323Y710750D01*
X416236Y710725D01*
X416151Y710696D01*
X416067Y710664D01*
X415985Y710629D01*
X415904Y710589D01*
X415825Y710547D01*
X415748Y710501D01*
X415673Y710451D01*
X415600Y710399D01*
X415529Y710343D01*
X415461Y710285D01*
X415396Y710223D01*
X415333Y710159D01*
X415273Y710092D01*
X415216Y710023D01*
X415162Y709951D01*
X415111Y709877D01*
X415063Y709801D01*
X415019Y709723D01*
X414978Y709643D01*
X414940Y709561D01*
X414906Y709478D01*
X414876Y709393D01*
X414849Y709307D01*
X414826Y709221D01*
X414807Y709133D01*
X414792Y709044D01*
X414780Y708955D01*
X414772Y708866D01*
X414768Y708776D01*
X414768Y708686D01*
X414772Y708596D01*
X414780Y708507D01*
X414792Y708418D01*
X414807Y708329D01*
X414826Y708241D01*
X414849Y708155D01*
X414876Y708069D01*
X414906Y707984D01*
X414940Y707901D01*
X414978Y707819D01*
X415019Y707739D01*
X415063Y707661D01*
X415111Y707585D01*
X415162Y707511D01*
X415216Y707439D01*
X415273Y707370D01*
X415333Y707303D01*
X415396Y707239D01*
X415461Y707177D01*
X415529Y707119D01*
X415600Y707063D01*
X415673Y707011D01*
X415748Y706961D01*
X415825Y706915D01*
X415904Y706873D01*
X415985Y706833D01*
X416067Y706798D01*
X416151Y706766D01*
X416236Y706737D01*
X416323Y706712D01*
X416410Y706691D01*
X416498Y706674D01*
X416587Y706660D01*
X416677Y706651D01*
X416766Y706645D01*
X416856Y706643D01*
X416856Y706642D02*
X418945Y706642D01*
X410845Y701421D02*
X408235Y701421D01*
X408134Y701423D01*
X408033Y701429D01*
X407932Y701439D01*
X407832Y701452D01*
X407732Y701470D01*
X407633Y701491D01*
X407535Y701517D01*
X407438Y701546D01*
X407342Y701578D01*
X407248Y701615D01*
X407155Y701655D01*
X407063Y701699D01*
X406974Y701746D01*
X406886Y701797D01*
X406800Y701851D01*
X406717Y701908D01*
X406635Y701968D01*
X406557Y702032D01*
X406480Y702098D01*
X406407Y702168D01*
X406336Y702240D01*
X406268Y702315D01*
X406203Y702393D01*
X406141Y702473D01*
X406082Y702555D01*
X406026Y702640D01*
X405974Y702727D01*
X405925Y702815D01*
X405879Y702906D01*
X405838Y702998D01*
X405799Y703092D01*
X405765Y703187D01*
X405734Y703283D01*
X405707Y703381D01*
X405683Y703479D01*
X405664Y703579D01*
X405648Y703679D01*
X405636Y703779D01*
X405628Y703880D01*
X405624Y703981D01*
X405624Y704083D01*
X405628Y704184D01*
X405636Y704285D01*
X405648Y704385D01*
X405664Y704485D01*
X405683Y704585D01*
X405707Y704683D01*
X405734Y704781D01*
X405765Y704877D01*
X405799Y704972D01*
X405838Y705066D01*
X405879Y705158D01*
X405925Y705249D01*
X405974Y705338D01*
X406026Y705424D01*
X406082Y705509D01*
X406141Y705591D01*
X406203Y705671D01*
X406268Y705749D01*
X406336Y705824D01*
X406407Y705896D01*
X406480Y705966D01*
X406557Y706032D01*
X406635Y706096D01*
X406717Y706156D01*
X406800Y706213D01*
X406886Y706267D01*
X406974Y706318D01*
X407063Y706365D01*
X407155Y706409D01*
X407248Y706449D01*
X407342Y706486D01*
X407438Y706518D01*
X407535Y706547D01*
X407633Y706573D01*
X407732Y706594D01*
X407832Y706612D01*
X407932Y706625D01*
X408033Y706635D01*
X408134Y706641D01*
X408235Y706643D01*
X407712Y710819D02*
X410845Y710819D01*
X407712Y710819D02*
X407622Y710817D01*
X407533Y710811D01*
X407443Y710802D01*
X407354Y710788D01*
X407266Y710771D01*
X407179Y710750D01*
X407092Y710725D01*
X407007Y710696D01*
X406923Y710664D01*
X406841Y710629D01*
X406760Y710589D01*
X406681Y710547D01*
X406604Y710501D01*
X406529Y710451D01*
X406456Y710399D01*
X406385Y710343D01*
X406317Y710285D01*
X406252Y710223D01*
X406189Y710159D01*
X406129Y710092D01*
X406072Y710023D01*
X406018Y709951D01*
X405967Y709877D01*
X405919Y709801D01*
X405875Y709723D01*
X405834Y709643D01*
X405796Y709561D01*
X405762Y709478D01*
X405732Y709393D01*
X405705Y709307D01*
X405682Y709221D01*
X405663Y709133D01*
X405648Y709044D01*
X405636Y708955D01*
X405628Y708866D01*
X405624Y708776D01*
X405624Y708686D01*
X405628Y708596D01*
X405636Y708507D01*
X405648Y708418D01*
X405663Y708329D01*
X405682Y708241D01*
X405705Y708155D01*
X405732Y708069D01*
X405762Y707984D01*
X405796Y707901D01*
X405834Y707819D01*
X405875Y707739D01*
X405919Y707661D01*
X405967Y707585D01*
X406018Y707511D01*
X406072Y707439D01*
X406129Y707370D01*
X406189Y707303D01*
X406252Y707239D01*
X406317Y707177D01*
X406385Y707119D01*
X406456Y707063D01*
X406529Y707011D01*
X406604Y706961D01*
X406681Y706915D01*
X406760Y706873D01*
X406841Y706833D01*
X406923Y706798D01*
X407007Y706766D01*
X407092Y706737D01*
X407179Y706712D01*
X407266Y706691D01*
X407354Y706674D01*
X407443Y706660D01*
X407533Y706651D01*
X407622Y706645D01*
X407712Y706643D01*
X407712Y706642D02*
X409801Y706642D01*
X401701Y706120D02*
X401699Y706305D01*
X401692Y706490D01*
X401681Y706674D01*
X401666Y706858D01*
X401646Y707042D01*
X401622Y707226D01*
X401593Y707408D01*
X401560Y707590D01*
X401523Y707771D01*
X401481Y707951D01*
X401435Y708131D01*
X401385Y708309D01*
X401331Y708485D01*
X401272Y708661D01*
X401210Y708835D01*
X401143Y709007D01*
X401072Y709178D01*
X400997Y709347D01*
X400918Y709514D01*
X400919Y709514D02*
X400889Y709594D01*
X400856Y709673D01*
X400819Y709750D01*
X400779Y709826D01*
X400736Y709900D01*
X400690Y709972D01*
X400640Y710041D01*
X400588Y710109D01*
X400532Y710174D01*
X400474Y710237D01*
X400412Y710296D01*
X400349Y710354D01*
X400282Y710408D01*
X400214Y710459D01*
X400143Y710507D01*
X400070Y710552D01*
X399996Y710594D01*
X399919Y710632D01*
X399841Y710667D01*
X399762Y710699D01*
X399681Y710727D01*
X399599Y710751D01*
X399515Y710772D01*
X399432Y710789D01*
X399347Y710802D01*
X399262Y710811D01*
X399177Y710817D01*
X399091Y710819D01*
X399005Y710817D01*
X398920Y710811D01*
X398835Y710802D01*
X398750Y710789D01*
X398667Y710772D01*
X398583Y710751D01*
X398501Y710727D01*
X398421Y710699D01*
X398341Y710667D01*
X398263Y710632D01*
X398186Y710594D01*
X398112Y710552D01*
X398039Y710507D01*
X397968Y710459D01*
X397900Y710408D01*
X397833Y710354D01*
X397770Y710296D01*
X397709Y710237D01*
X397650Y710174D01*
X397595Y710109D01*
X397542Y710041D01*
X397492Y709972D01*
X397446Y709900D01*
X397403Y709826D01*
X397363Y709750D01*
X397326Y709673D01*
X397293Y709594D01*
X397263Y709514D01*
X397184Y709347D01*
X397109Y709178D01*
X397038Y709007D01*
X396971Y708835D01*
X396909Y708661D01*
X396850Y708485D01*
X396796Y708309D01*
X396746Y708131D01*
X396700Y707951D01*
X396658Y707771D01*
X396621Y707590D01*
X396588Y707408D01*
X396559Y707226D01*
X396535Y707042D01*
X396515Y706858D01*
X396500Y706674D01*
X396489Y706490D01*
X396482Y706305D01*
X396480Y706120D01*
X401701Y706120D02*
X401699Y705935D01*
X401692Y705750D01*
X401681Y705566D01*
X401666Y705382D01*
X401646Y705198D01*
X401622Y705014D01*
X401593Y704832D01*
X401560Y704650D01*
X401523Y704469D01*
X401481Y704289D01*
X401435Y704109D01*
X401385Y703931D01*
X401331Y703755D01*
X401272Y703579D01*
X401210Y703405D01*
X401143Y703233D01*
X401072Y703062D01*
X400997Y702893D01*
X400918Y702726D01*
X400919Y702726D02*
X400889Y702646D01*
X400856Y702567D01*
X400819Y702490D01*
X400779Y702414D01*
X400736Y702340D01*
X400690Y702268D01*
X400640Y702199D01*
X400587Y702131D01*
X400532Y702066D01*
X400473Y702003D01*
X400412Y701944D01*
X400349Y701886D01*
X400282Y701832D01*
X400214Y701781D01*
X400143Y701733D01*
X400070Y701688D01*
X399996Y701646D01*
X399919Y701608D01*
X399841Y701573D01*
X399762Y701541D01*
X399681Y701513D01*
X399599Y701489D01*
X399515Y701468D01*
X399432Y701451D01*
X399347Y701438D01*
X399262Y701429D01*
X399177Y701423D01*
X399091Y701421D01*
X397263Y702726D02*
X397184Y702893D01*
X397109Y703062D01*
X397038Y703233D01*
X396971Y703405D01*
X396909Y703579D01*
X396850Y703755D01*
X396796Y703931D01*
X396746Y704109D01*
X396700Y704289D01*
X396658Y704469D01*
X396621Y704650D01*
X396588Y704832D01*
X396559Y705014D01*
X396535Y705198D01*
X396515Y705382D01*
X396500Y705566D01*
X396489Y705750D01*
X396482Y705935D01*
X396480Y706120D01*
X397263Y702726D02*
X397293Y702646D01*
X397326Y702567D01*
X397363Y702490D01*
X397403Y702414D01*
X397446Y702340D01*
X397492Y702268D01*
X397542Y702199D01*
X397595Y702131D01*
X397650Y702066D01*
X397709Y702003D01*
X397770Y701944D01*
X397833Y701886D01*
X397900Y701832D01*
X397968Y701781D01*
X398039Y701733D01*
X398112Y701688D01*
X398186Y701646D01*
X398263Y701608D01*
X398341Y701573D01*
X398421Y701541D01*
X398501Y701513D01*
X398583Y701489D01*
X398667Y701468D01*
X398750Y701451D01*
X398835Y701438D01*
X398920Y701429D01*
X399005Y701423D01*
X399091Y701421D01*
X401179Y703509D02*
X397002Y708731D01*
D25*
X314913Y499917D02*
X315270Y499619D01*
X315618Y499312D01*
X315960Y498997D01*
X316293Y498674D01*
X316619Y498343D01*
X316937Y498004D01*
X317246Y497657D01*
X317546Y497303D01*
X317838Y496941D01*
X318121Y496573D01*
X318395Y496198D01*
X318659Y495816D01*
X318915Y495428D01*
X319160Y495034D01*
X319396Y494634D01*
X319623Y494228D01*
X319839Y493817D01*
X320045Y493401D01*
X320241Y492980D01*
X320427Y492554D01*
X320602Y492124D01*
X320767Y491690D01*
X320921Y491251D01*
X321064Y490810D01*
X321196Y490364D01*
X321318Y489916D01*
X321429Y489465D01*
X321528Y489011D01*
X321617Y488555D01*
X321694Y488097D01*
X321760Y487638D01*
X321815Y487177D01*
X321859Y486714D01*
X321891Y486251D01*
X321912Y485787D01*
X321922Y485322D01*
X321921Y484858D01*
X321908Y484394D01*
X321884Y483930D01*
X321848Y483467D01*
X321801Y483005D01*
X321743Y482544D01*
X321674Y482084D01*
X321594Y481627D01*
X321502Y481172D01*
X321400Y480719D01*
X321286Y480268D01*
X321162Y479821D01*
X321026Y479376D01*
X320880Y478936D01*
X320723Y478498D01*
X320555Y478065D01*
X320377Y477636D01*
X320189Y477212D01*
X319990Y476792D01*
X319781Y476377D01*
X319562Y475967D01*
X319334Y475563D01*
X319095Y475165D01*
X318847Y474772D01*
X318589Y474386D01*
X318322Y474006D01*
X318045Y473633D01*
X317760Y473266D01*
X317466Y472907D01*
X317163Y472554D01*
X316851Y472210D01*
X316532Y471873D01*
X316204Y471544D01*
X315868Y471223D01*
X315525Y470910D01*
X315174Y470606D01*
X314816Y470310D01*
X314450Y470023D01*
X314078Y469746D01*
X313699Y469477D01*
X313314Y469218D01*
X312922Y468968D01*
X312524Y468728D01*
X312121Y468497D01*
X311712Y468277D01*
X311298Y468066D01*
X310879Y467866D01*
X310456Y467676D01*
X310027Y467496D01*
X309595Y467327D01*
X309158Y467168D01*
X308718Y467020D01*
X308274Y466883D01*
X307827Y466757D01*
X307377Y466642D01*
X306925Y466537D01*
X306470Y466444D01*
X306012Y466362D01*
X305553Y466291D01*
X305093Y466231D01*
X304631Y466182D01*
X304168Y466145D01*
X303704Y466119D01*
X303240Y466105D01*
X302775Y466101D01*
X302311Y466109D01*
X301847Y466129D01*
X301383Y466159D01*
X300921Y466201D01*
X300459Y466254D01*
X299999Y466319D01*
X299541Y466394D01*
X299085Y466481D01*
X298631Y466579D01*
X298179Y466688D01*
X297730Y466808D01*
X297285Y466938D01*
X296842Y467080D01*
X296404Y467232D01*
X295969Y467395D01*
X295538Y467569D01*
X295111Y467753D01*
X294690Y467947D01*
X294273Y468152D01*
X293861Y468366D01*
X293454Y468591D01*
X293053Y468825D01*
X292658Y469070D01*
X292269Y469323D01*
X291886Y469587D01*
X291510Y469859D01*
X291141Y470140D01*
X290778Y470431D01*
X290423Y470730D01*
X290422Y470730D02*
X251507Y503384D01*
X251155Y503686D01*
X250811Y503997D01*
X250474Y504317D01*
X250146Y504644D01*
X249825Y504979D01*
X249513Y505322D01*
X249209Y505673D01*
X248913Y506031D01*
X248627Y506395D01*
X248349Y506767D01*
X248081Y507146D01*
X247822Y507530D01*
X247572Y507921D01*
X247332Y508318D01*
X247102Y508721D01*
X246881Y509129D01*
X246671Y509543D01*
X246471Y509961D01*
X246280Y510384D01*
X246101Y510812D01*
X245932Y511244D01*
X245773Y511680D01*
X245625Y512120D01*
X245488Y512563D01*
X245361Y513009D01*
X245246Y513458D01*
X245141Y513910D01*
X245048Y514365D01*
X244965Y514821D01*
X244894Y515280D01*
X244834Y515740D01*
X244785Y516201D01*
X244747Y516664D01*
X244721Y517127D01*
X244706Y517590D01*
X244702Y518054D01*
X244710Y518518D01*
X244729Y518982D01*
X244759Y519445D01*
X244800Y519907D01*
X244853Y520368D01*
X244916Y520827D01*
X244991Y521285D01*
X245078Y521741D01*
X245175Y522194D01*
X245283Y522646D01*
X245402Y523094D01*
X245532Y523539D01*
X245673Y523981D01*
X245825Y524420D01*
X245987Y524854D01*
X246160Y525285D01*
X246343Y525711D01*
X246536Y526133D01*
X246740Y526550D01*
X246954Y526961D01*
X247177Y527368D01*
X247411Y527769D01*
X247654Y528164D01*
X247907Y528553D01*
X248169Y528935D01*
X248441Y529311D01*
X248721Y529681D01*
X249011Y530044D01*
X249309Y530399D01*
X249616Y530747D01*
X249931Y531087D01*
X250254Y531420D01*
X250586Y531745D01*
X250925Y532061D01*
X251272Y532369D01*
X251626Y532669D01*
X251987Y532960D01*
X252355Y533242D01*
X252731Y533515D01*
X253112Y533779D01*
X253500Y534033D01*
X253894Y534278D01*
X254294Y534513D01*
X254700Y534739D01*
X255110Y534954D01*
X255526Y535160D01*
X255947Y535355D01*
X256373Y535540D01*
X256803Y535714D01*
X257237Y535878D01*
X257674Y536031D01*
X258116Y536174D01*
X258561Y536306D01*
X259008Y536427D01*
X259459Y536537D01*
X259912Y536636D01*
X260368Y536724D01*
X260825Y536801D01*
X261285Y536867D01*
X261745Y536921D01*
X262207Y536964D01*
X262670Y536996D01*
X263134Y537017D01*
X263597Y537026D01*
X264061Y537024D01*
X264525Y537011D01*
X264988Y536987D01*
X265451Y536951D01*
X265912Y536904D01*
X266373Y536846D01*
X266831Y536776D01*
X267288Y536696D01*
X267743Y536604D01*
X268195Y536502D01*
X268645Y536388D01*
X269092Y536263D01*
X269536Y536128D01*
X269976Y535982D01*
X270413Y535825D01*
X270845Y535657D01*
X271274Y535479D01*
X271698Y535291D01*
X272117Y535092D01*
X272531Y534883D01*
X272940Y534665D01*
X273344Y534436D01*
X273742Y534198D01*
X274134Y533949D01*
X274520Y533692D01*
X274899Y533425D01*
X275272Y533149D01*
X275638Y532864D01*
X275997Y532570D01*
X275998Y532570D02*
X314913Y499916D01*
X292916Y498894D02*
X287610Y492570D01*
X273504Y504406D02*
X278810Y510730D01*
X283210Y501650D02*
X292939Y493487D01*
X283210Y501650D02*
X273481Y509813D01*
X278810Y510730D02*
X292916Y498894D01*
X287610Y492570D02*
X273504Y504406D01*
X283210Y501650D02*
X281756Y492508D01*
X286621Y488426D01*
X283210Y501650D02*
X284665Y510792D01*
X279800Y514874D01*
D18*
X314290Y498487D02*
X318142Y507117D01*
X314290Y498487D02*
X309318Y502659D01*
X312478Y503396D02*
X309140Y499418D01*
X307620Y508320D02*
X307766Y508498D01*
X307907Y508679D01*
X308044Y508864D01*
X308177Y509052D01*
X308305Y509243D01*
X308428Y509436D01*
X308547Y509633D01*
X308661Y509833D01*
X308770Y510035D01*
X308875Y510240D01*
X308974Y510447D01*
X309069Y510657D01*
X309158Y510868D01*
X309243Y511082D01*
X309322Y511298D01*
X309396Y511516D01*
X309465Y511735D01*
X309528Y511956D01*
X309587Y512178D01*
X309586Y512177D02*
X309619Y512268D01*
X309648Y512359D01*
X309674Y512452D01*
X309695Y512546D01*
X309713Y512640D01*
X309727Y512735D01*
X309738Y512831D01*
X309744Y512926D01*
X309747Y513023D01*
X309746Y513119D01*
X309741Y513215D01*
X309732Y513310D01*
X309719Y513406D01*
X309703Y513500D01*
X309682Y513594D01*
X309658Y513687D01*
X309631Y513779D01*
X309599Y513870D01*
X309564Y513960D01*
X309526Y514048D01*
X309484Y514134D01*
X309438Y514219D01*
X309390Y514302D01*
X309338Y514382D01*
X309282Y514461D01*
X309224Y514537D01*
X309163Y514611D01*
X309098Y514683D01*
X309031Y514752D01*
X308961Y514818D01*
X308889Y514881D01*
X308814Y514941D01*
X308737Y514999D01*
X308657Y515053D01*
X308576Y515104D01*
X308492Y515151D01*
X308407Y515195D01*
X308320Y515236D01*
X308231Y515273D01*
X308141Y515307D01*
X308050Y515337D01*
X307958Y515364D01*
X307864Y515386D01*
X307770Y515405D01*
X307675Y515420D01*
X307580Y515431D01*
X307484Y515439D01*
X307388Y515443D01*
X307292Y515442D01*
X307196Y515438D01*
X307100Y515430D01*
X307005Y515419D01*
X306910Y515403D01*
X306816Y515384D01*
X306722Y515361D01*
X306630Y515334D01*
X306539Y515304D01*
X306449Y515270D01*
X306361Y515232D01*
X306274Y515191D01*
X306189Y515146D01*
X306105Y515098D01*
X306105Y515099D02*
X305897Y515003D01*
X305690Y514902D01*
X305486Y514796D01*
X305285Y514685D01*
X305086Y514570D01*
X304890Y514450D01*
X304697Y514325D01*
X304507Y514195D01*
X304320Y514061D01*
X304137Y513923D01*
X303956Y513780D01*
X303780Y513633D01*
X303606Y513482D01*
X303437Y513327D01*
X303271Y513168D01*
X303109Y513005D01*
X302951Y512838D01*
X302797Y512667D01*
X302647Y512493D01*
X307620Y508320D02*
X307470Y508145D01*
X307316Y507975D01*
X307158Y507808D01*
X306996Y507644D01*
X306831Y507485D01*
X306661Y507330D01*
X306488Y507179D01*
X306311Y507032D01*
X306131Y506889D01*
X305947Y506751D01*
X305761Y506617D01*
X305571Y506488D01*
X305378Y506363D01*
X305182Y506242D01*
X304983Y506127D01*
X304782Y506016D01*
X304578Y505910D01*
X304371Y505809D01*
X304162Y505713D01*
X304163Y505713D02*
X304080Y505665D01*
X303994Y505620D01*
X303908Y505579D01*
X303819Y505541D01*
X303729Y505507D01*
X303638Y505477D01*
X303546Y505450D01*
X303452Y505427D01*
X303358Y505408D01*
X303263Y505392D01*
X303168Y505381D01*
X303072Y505373D01*
X302976Y505369D01*
X302880Y505368D01*
X302784Y505372D01*
X302688Y505379D01*
X302593Y505391D01*
X302498Y505406D01*
X302404Y505425D01*
X302310Y505447D01*
X302218Y505474D01*
X302127Y505504D01*
X302036Y505538D01*
X301948Y505575D01*
X301861Y505616D01*
X301776Y505660D01*
X301692Y505707D01*
X301610Y505758D01*
X301531Y505812D01*
X301454Y505870D01*
X301379Y505930D01*
X300681Y508634D02*
X300740Y508857D01*
X300803Y509078D01*
X300872Y509297D01*
X300946Y509514D01*
X301026Y509730D01*
X301110Y509944D01*
X301199Y510156D01*
X301294Y510365D01*
X301393Y510573D01*
X301498Y510777D01*
X301607Y510980D01*
X301721Y511179D01*
X301840Y511376D01*
X301963Y511570D01*
X302091Y511761D01*
X302224Y511949D01*
X302361Y512133D01*
X302502Y512315D01*
X302648Y512492D01*
X300682Y508634D02*
X300649Y508543D01*
X300620Y508452D01*
X300594Y508359D01*
X300573Y508266D01*
X300555Y508171D01*
X300541Y508076D01*
X300530Y507980D01*
X300524Y507885D01*
X300521Y507789D01*
X300522Y507692D01*
X300527Y507596D01*
X300536Y507501D01*
X300549Y507405D01*
X300565Y507311D01*
X300586Y507217D01*
X300610Y507124D01*
X300637Y507032D01*
X300669Y506941D01*
X300704Y506851D01*
X300742Y506763D01*
X300784Y506677D01*
X300830Y506592D01*
X300878Y506509D01*
X300931Y506429D01*
X300986Y506350D01*
X301044Y506274D01*
X301106Y506200D01*
X301170Y506128D01*
X301237Y506059D01*
X301307Y505993D01*
X301379Y505930D01*
X305037Y506251D02*
X305231Y514561D01*
X298864Y515667D02*
X299010Y515845D01*
X299151Y516026D01*
X299288Y516211D01*
X299421Y516399D01*
X299549Y516590D01*
X299672Y516783D01*
X299791Y516980D01*
X299905Y517180D01*
X300014Y517382D01*
X300119Y517587D01*
X300218Y517794D01*
X300313Y518004D01*
X300402Y518215D01*
X300487Y518429D01*
X300566Y518645D01*
X300640Y518863D01*
X300709Y519082D01*
X300772Y519303D01*
X300831Y519525D01*
X300831Y519524D02*
X300864Y519615D01*
X300893Y519706D01*
X300919Y519799D01*
X300940Y519893D01*
X300958Y519987D01*
X300972Y520082D01*
X300983Y520178D01*
X300989Y520273D01*
X300992Y520370D01*
X300991Y520466D01*
X300986Y520562D01*
X300977Y520657D01*
X300964Y520753D01*
X300948Y520847D01*
X300927Y520941D01*
X300903Y521034D01*
X300876Y521126D01*
X300844Y521217D01*
X300809Y521307D01*
X300771Y521395D01*
X300729Y521481D01*
X300683Y521566D01*
X300635Y521649D01*
X300583Y521729D01*
X300527Y521808D01*
X300469Y521884D01*
X300408Y521958D01*
X300343Y522030D01*
X300276Y522099D01*
X300206Y522165D01*
X300134Y522228D01*
X300059Y522288D01*
X299982Y522346D01*
X299902Y522400D01*
X299821Y522451D01*
X299737Y522498D01*
X299652Y522542D01*
X299565Y522583D01*
X299476Y522620D01*
X299386Y522654D01*
X299295Y522684D01*
X299203Y522711D01*
X299109Y522733D01*
X299015Y522752D01*
X298920Y522767D01*
X298825Y522778D01*
X298729Y522786D01*
X298633Y522790D01*
X298537Y522789D01*
X298441Y522785D01*
X298345Y522777D01*
X298250Y522766D01*
X298155Y522750D01*
X298061Y522731D01*
X297967Y522708D01*
X297875Y522681D01*
X297784Y522651D01*
X297694Y522617D01*
X297606Y522579D01*
X297519Y522538D01*
X297434Y522493D01*
X297350Y522445D01*
X297349Y522446D02*
X297141Y522350D01*
X296934Y522249D01*
X296730Y522143D01*
X296529Y522032D01*
X296330Y521917D01*
X296134Y521797D01*
X295941Y521672D01*
X295751Y521542D01*
X295564Y521408D01*
X295381Y521270D01*
X295200Y521127D01*
X295024Y520980D01*
X294850Y520829D01*
X294681Y520674D01*
X294515Y520515D01*
X294353Y520352D01*
X294195Y520185D01*
X294041Y520014D01*
X293891Y519840D01*
X298864Y515667D02*
X298714Y515492D01*
X298560Y515322D01*
X298402Y515155D01*
X298240Y514991D01*
X298075Y514832D01*
X297905Y514677D01*
X297732Y514526D01*
X297555Y514379D01*
X297375Y514236D01*
X297191Y514098D01*
X297005Y513964D01*
X296815Y513835D01*
X296622Y513710D01*
X296426Y513589D01*
X296227Y513474D01*
X296026Y513363D01*
X295822Y513257D01*
X295615Y513156D01*
X295406Y513060D01*
X295407Y513060D02*
X295324Y513012D01*
X295238Y512967D01*
X295152Y512926D01*
X295063Y512888D01*
X294973Y512854D01*
X294882Y512824D01*
X294790Y512797D01*
X294696Y512774D01*
X294602Y512755D01*
X294507Y512739D01*
X294412Y512728D01*
X294316Y512720D01*
X294220Y512716D01*
X294124Y512715D01*
X294028Y512719D01*
X293932Y512726D01*
X293837Y512738D01*
X293742Y512753D01*
X293648Y512772D01*
X293554Y512794D01*
X293462Y512821D01*
X293371Y512851D01*
X293280Y512885D01*
X293192Y512922D01*
X293105Y512963D01*
X293020Y513007D01*
X292936Y513054D01*
X292854Y513105D01*
X292775Y513159D01*
X292698Y513217D01*
X292623Y513277D01*
X291925Y515981D02*
X291984Y516204D01*
X292047Y516425D01*
X292116Y516644D01*
X292190Y516861D01*
X292270Y517077D01*
X292354Y517291D01*
X292443Y517503D01*
X292538Y517712D01*
X292637Y517920D01*
X292742Y518124D01*
X292851Y518327D01*
X292965Y518526D01*
X293084Y518723D01*
X293207Y518917D01*
X293335Y519108D01*
X293468Y519296D01*
X293605Y519480D01*
X293746Y519662D01*
X293892Y519839D01*
X291926Y515981D02*
X291893Y515890D01*
X291864Y515799D01*
X291838Y515706D01*
X291817Y515613D01*
X291799Y515518D01*
X291785Y515423D01*
X291774Y515327D01*
X291768Y515232D01*
X291765Y515136D01*
X291766Y515039D01*
X291771Y514943D01*
X291780Y514848D01*
X291793Y514752D01*
X291809Y514658D01*
X291830Y514564D01*
X291854Y514471D01*
X291881Y514379D01*
X291913Y514288D01*
X291948Y514198D01*
X291986Y514110D01*
X292028Y514024D01*
X292074Y513939D01*
X292122Y513856D01*
X292175Y513776D01*
X292230Y513697D01*
X292288Y513621D01*
X292350Y513547D01*
X292414Y513475D01*
X292481Y513406D01*
X292551Y513340D01*
X292623Y513277D01*
X296281Y513598D02*
X296475Y521908D01*
X290982Y524823D02*
X285975Y518856D01*
X290982Y524823D02*
X286507Y528578D01*
X286507Y528577D02*
X286438Y528632D01*
X286368Y528684D01*
X286295Y528732D01*
X286220Y528777D01*
X286143Y528819D01*
X286065Y528857D01*
X285984Y528891D01*
X285903Y528922D01*
X285820Y528949D01*
X285735Y528973D01*
X285650Y528992D01*
X285564Y529008D01*
X285478Y529020D01*
X285391Y529028D01*
X285304Y529032D01*
X285216Y529033D01*
X285129Y529029D01*
X285042Y529021D01*
X284955Y529010D01*
X284869Y528994D01*
X284784Y528975D01*
X284700Y528952D01*
X284617Y528925D01*
X284535Y528895D01*
X284454Y528861D01*
X284375Y528823D01*
X284298Y528782D01*
X284223Y528737D01*
X284150Y528689D01*
X284079Y528638D01*
X284011Y528584D01*
X283945Y528526D01*
X283882Y528466D01*
X283821Y528403D01*
X283764Y528338D01*
X283763Y528338D02*
X280008Y523863D01*
X282992Y521359D02*
X287999Y527326D01*
X276344Y526938D02*
X280871Y538392D01*
X270377Y531945D01*
X273000Y533556D02*
X277475Y529801D01*
D12*
X70612Y177800D02*
X56388Y177800D01*
X56388Y165100D02*
X70612Y165100D01*
D23*
X72136Y171450D03*
X54864Y171450D03*
D10*
X41529Y168092D02*
X41527Y168169D01*
X41521Y168245D01*
X41512Y168322D01*
X41499Y168398D01*
X41482Y168473D01*
X41462Y168547D01*
X41437Y168620D01*
X41410Y168691D01*
X41379Y168762D01*
X41344Y168830D01*
X41306Y168897D01*
X41265Y168962D01*
X41221Y169025D01*
X41174Y169085D01*
X41123Y169144D01*
X41070Y169199D01*
X41015Y169252D01*
X40956Y169303D01*
X40896Y169350D01*
X40833Y169394D01*
X40768Y169435D01*
X40701Y169473D01*
X40633Y169508D01*
X40562Y169539D01*
X40491Y169566D01*
X40418Y169591D01*
X40344Y169611D01*
X40269Y169628D01*
X40193Y169641D01*
X40116Y169650D01*
X40040Y169656D01*
X39963Y169658D01*
X41529Y168092D02*
X41527Y167934D01*
X41522Y167777D01*
X41513Y167620D01*
X41500Y167462D01*
X41483Y167306D01*
X41463Y167149D01*
X41440Y166994D01*
X41412Y166838D01*
X41381Y166684D01*
X41347Y166530D01*
X41309Y166377D01*
X41267Y166225D01*
X41222Y166074D01*
X41173Y165924D01*
X41121Y165775D01*
X41066Y165628D01*
X41007Y165482D01*
X39963Y169658D02*
X39893Y169656D01*
X39823Y169651D01*
X39754Y169641D01*
X39685Y169628D01*
X39617Y169611D01*
X39550Y169591D01*
X39485Y169567D01*
X39420Y169540D01*
X39357Y169509D01*
X39296Y169475D01*
X39237Y169437D01*
X39180Y169397D01*
X37874Y168092D01*
X37873Y168092D02*
X37815Y168036D01*
X37755Y167983D01*
X37692Y167933D01*
X37627Y167886D01*
X37560Y167842D01*
X37491Y167801D01*
X37421Y167763D01*
X37348Y167728D01*
X37275Y167697D01*
X37199Y167668D01*
X37123Y167644D01*
X37046Y167623D01*
X36967Y167605D01*
X36888Y167591D01*
X36809Y167580D01*
X36729Y167573D01*
X36649Y167569D01*
X36568Y167570D01*
X36569Y167569D02*
X35916Y167577D01*
X35263Y167569D01*
X32653Y167308D02*
X32131Y167308D01*
X32653Y167308D02*
X32653Y167831D01*
X32131Y167831D01*
X32131Y167308D01*
D12*
X234950Y519938D02*
X234950Y534162D01*
X247650Y534162D02*
X247650Y519938D01*
D16*
X241300Y535686D03*
X241300Y518414D03*
D10*
X264753Y539369D02*
X264830Y539367D01*
X264906Y539361D01*
X264983Y539352D01*
X265059Y539339D01*
X265134Y539322D01*
X265208Y539302D01*
X265281Y539277D01*
X265352Y539250D01*
X265423Y539219D01*
X265491Y539184D01*
X265558Y539146D01*
X265623Y539105D01*
X265686Y539061D01*
X265746Y539014D01*
X265805Y538963D01*
X265860Y538910D01*
X265913Y538855D01*
X265964Y538796D01*
X266011Y538736D01*
X266055Y538673D01*
X266096Y538608D01*
X266134Y538541D01*
X266169Y538473D01*
X266200Y538402D01*
X266227Y538331D01*
X266252Y538258D01*
X266272Y538184D01*
X266289Y538109D01*
X266302Y538033D01*
X266311Y537956D01*
X266317Y537880D01*
X266319Y537803D01*
X266317Y537645D01*
X266312Y537488D01*
X266303Y537331D01*
X266290Y537173D01*
X266273Y537017D01*
X266253Y536860D01*
X266230Y536705D01*
X266202Y536549D01*
X266171Y536395D01*
X266137Y536241D01*
X266099Y536088D01*
X266057Y535936D01*
X266012Y535785D01*
X265963Y535635D01*
X265911Y535486D01*
X265856Y535339D01*
X265797Y535193D01*
X264753Y539369D02*
X264683Y539367D01*
X264613Y539362D01*
X264544Y539352D01*
X264475Y539339D01*
X264407Y539322D01*
X264340Y539302D01*
X264275Y539278D01*
X264210Y539251D01*
X264147Y539220D01*
X264086Y539186D01*
X264027Y539148D01*
X263970Y539108D01*
X262664Y537803D01*
X262663Y537803D02*
X262605Y537747D01*
X262545Y537694D01*
X262482Y537644D01*
X262417Y537597D01*
X262350Y537553D01*
X262281Y537512D01*
X262211Y537474D01*
X262138Y537439D01*
X262065Y537408D01*
X261989Y537379D01*
X261913Y537355D01*
X261836Y537334D01*
X261757Y537316D01*
X261678Y537302D01*
X261599Y537291D01*
X261519Y537284D01*
X261439Y537280D01*
X261358Y537281D01*
X261359Y537280D02*
X260706Y537288D01*
X260053Y537280D01*
X257443Y537020D02*
X256921Y537020D01*
X257443Y537020D02*
X257443Y537542D01*
X256921Y537542D01*
X256921Y537020D01*
D12*
X51562Y241300D02*
X37338Y241300D01*
X37338Y254000D02*
X51562Y254000D01*
D23*
X35814Y247650D03*
X53086Y247650D03*
D10*
X22479Y244292D02*
X22477Y244369D01*
X22471Y244445D01*
X22462Y244522D01*
X22449Y244598D01*
X22432Y244673D01*
X22412Y244747D01*
X22387Y244820D01*
X22360Y244891D01*
X22329Y244962D01*
X22294Y245030D01*
X22256Y245097D01*
X22215Y245162D01*
X22171Y245225D01*
X22124Y245285D01*
X22073Y245344D01*
X22020Y245399D01*
X21965Y245452D01*
X21906Y245503D01*
X21846Y245550D01*
X21783Y245594D01*
X21718Y245635D01*
X21651Y245673D01*
X21583Y245708D01*
X21512Y245739D01*
X21441Y245766D01*
X21368Y245791D01*
X21294Y245811D01*
X21219Y245828D01*
X21143Y245841D01*
X21066Y245850D01*
X20990Y245856D01*
X20913Y245858D01*
X22479Y244292D02*
X22477Y244134D01*
X22472Y243977D01*
X22463Y243820D01*
X22450Y243662D01*
X22433Y243506D01*
X22413Y243349D01*
X22390Y243194D01*
X22362Y243038D01*
X22331Y242884D01*
X22297Y242730D01*
X22259Y242577D01*
X22217Y242425D01*
X22172Y242274D01*
X22123Y242124D01*
X22071Y241975D01*
X22016Y241828D01*
X21957Y241682D01*
X20913Y245858D02*
X20843Y245856D01*
X20773Y245851D01*
X20704Y245841D01*
X20635Y245828D01*
X20567Y245811D01*
X20500Y245791D01*
X20435Y245767D01*
X20370Y245740D01*
X20307Y245709D01*
X20246Y245675D01*
X20187Y245637D01*
X20130Y245597D01*
X18824Y244292D01*
X18823Y244292D02*
X18765Y244236D01*
X18705Y244183D01*
X18642Y244133D01*
X18577Y244086D01*
X18510Y244042D01*
X18441Y244001D01*
X18371Y243963D01*
X18298Y243928D01*
X18225Y243897D01*
X18149Y243868D01*
X18073Y243844D01*
X17996Y243823D01*
X17917Y243805D01*
X17838Y243791D01*
X17759Y243780D01*
X17679Y243773D01*
X17599Y243769D01*
X17518Y243770D01*
X17519Y243769D02*
X16866Y243777D01*
X16213Y243769D01*
X13603Y243508D02*
X13081Y243508D01*
X13603Y243508D02*
X13603Y244031D01*
X13081Y244031D01*
X13081Y243508D01*
M02*
