M48
;GenerationSoftware,Autodesk,EAGLE,9.4.0*%
;CreationDate,2019-06-23T01:53:01Z*%
FMAT,2
ICI,OFF
METRIC,TZ,000.000
T7C0.350
T6C0.800
T5C0.813
T4C0.914
T3C1.016
T2C1.200
T1C1.800
%
G90
M71
T1
X40480Y66375
X40486Y80717
T2
X43295Y46730
X43295Y49270
X44295Y32270
X44295Y29730
X4295Y75540
X4295Y73000
X4295Y70460
X32860Y68375
X4295Y89540
X4295Y87000
X4295Y84460
X44295Y21730
X44295Y24270
X32866Y82717
X45366Y82717
X45360Y68375
X32860Y73375
X45360Y73375
X32866Y87717
X45366Y87717
X3955Y13085
X3955Y10545
X20465Y52400
X17925Y52400
X5465Y20695
X2925Y20695
T3
X3707Y27580
X3707Y30120
X3707Y32660
X3707Y35200
X3707Y37740
X3707Y40280
T4
X15915Y58745
X13375Y61285
X5755Y61285
X5755Y58745
X8295Y61285
X8295Y58745
X10835Y61285
X10835Y58745
X13375Y58745
X15915Y61285
X20995Y58745
X20995Y61285
X18455Y58745
X18455Y61285
T5
X26375Y51798
X3500Y51060
X3500Y48520
X3500Y45980
X11120Y45980
X11120Y51060
X11120Y48520
X30267Y48532
T6
X35300Y65795
X42920Y75955
X35306Y80137
X42926Y90297
T7
X14086Y76719
X45245Y12700
X8255Y66040
X43815Y63815
X25630Y56515
X26035Y41275
X10160Y63500
X8890Y80050
M30