M48
;GenerationSoftware,Autodesk,EAGLE,9.4.0*%
;CreationDate,2019-06-23T03:26:36Z*%
FMAT,2
ICI,OFF
METRIC,TZ,000.000
T26C0.305
T25C0.350
T24C0.400
T23C0.450
T22C0.600
T21C0.610
T20C0.650
T19C0.700
T18C0.759
T17C0.800
T16C0.813
T15C0.900
T14C0.914
T13C0.950
T12C1.000
T11C1.016
T10C1.194
T9C1.200
T8C1.321
T7C1.600
T6C1.700
T5C2.300
T4C3.048
T3C3.200
T2C4.000
T1C5.000
%
G90
M71
T1
X4572Y119706
X4572Y112706
T2
X139700Y128270
X6350Y6350
X6350Y128270
X139700Y6350
T3
X133350Y64135
X133350Y75565
T4
X119920Y53650
X119920Y4650
X61920Y4650
X61920Y53650
T5
X134620Y109440
X134620Y96300
T6
X6604Y31092
X6604Y35052
X6604Y39012
X18542Y14074
X18542Y18034
X18542Y21994
X18542Y31092
X18542Y35052
X53998Y5080
X6350Y62940
X6350Y67870
X6350Y71830
X6350Y80720
X6350Y58980
X6350Y50090
X18542Y39012
X6350Y76760
X46078Y5080
X6350Y54050
X50038Y5080
X6604Y14074
X6604Y18034
X6604Y21994
T7
X136400Y61975
X136400Y77725
T8
X36093Y3556
X30963Y3556
X25933Y3556
X41123Y3556
X15773Y3556
X4064Y97053
X4064Y102083
X20803Y3556
T9
X62230Y74930
X53848Y33782
X62230Y77470
X62230Y80010
X62230Y82550
X62230Y85090
X53848Y31242
X74930Y115570
X62230Y87630
X54610Y87630
X54610Y85090
X54610Y82550
X120650Y106934
X120650Y104394
X120650Y101854
X111760Y106934
X111760Y104394
X111760Y101854
X102870Y106934
X102870Y104394
X58420Y96520
X102870Y101854
X67945Y116840
X67945Y114300
X54610Y80010
X54610Y77470
X54610Y74930
X67945Y111760
X60960Y96520
X115570Y90170
X80010Y109220
X77470Y109220
X74930Y109220
X80010Y115570
X77470Y115570
X80010Y121920
X77470Y121920
X74930Y121920
X80010Y128270
X77470Y128270
X74930Y128270
X79756Y61722
X82296Y61722
X44450Y78740
X44450Y81280
X44450Y83820
X44450Y86360
X16510Y93980
X19050Y93980
X21590Y93980
X77470Y102870
X80010Y102870
X36830Y59690
X36830Y62230
X36830Y64770
X36830Y67310
X36830Y69850
X43180Y59690
X43180Y62230
X43180Y64770
X43180Y67310
X43180Y69850
X38100Y78740
X38100Y81280
X38100Y83820
X38100Y86360
X6858Y90170
X9398Y90170
X121920Y90170
X121920Y92710
X121920Y95250
X115570Y92710
X115570Y95250
X109220Y90170
X109220Y92710
X109220Y95250
X102870Y90170
X102870Y92710
X102870Y95250
T10
X91440Y108026
X91440Y118034
T11
X13970Y116840
X34290Y100330
X36830Y100330
X20955Y111760
X20955Y114300
X53213Y24511
X68580Y94234
X53213Y27051
X19050Y82550
X25400Y102870
X68580Y106934
X31750Y100330
X20955Y116840
X68580Y104394
X68580Y101854
X20320Y102870
X17780Y102870
X15240Y102870
X68580Y99314
X68580Y96774
X43180Y100330
X45720Y100330
X48260Y100330
X13970Y111760
X13970Y114300
T12
X129970Y63525
X115050Y5920
X115050Y3380
X19050Y128460
X19050Y121460
X14050Y124910
X29210Y128270
X37465Y128445
X49990Y123825
X58420Y127810
X50510Y22300
X50510Y15800
X46010Y22300
X46010Y15800
X128450Y66065
X128450Y76175
X129970Y73635
X38644Y15800
X38644Y22300
X43144Y15800
X43144Y22300
X107430Y3380
X66790Y5920
X66790Y3380
X69330Y5920
X69330Y3380
X71870Y5920
X71870Y3380
X74410Y5920
X74410Y3380
X76950Y5920
X76950Y3380
X79490Y5920
X79490Y3380
X82030Y5920
X82030Y3380
X84570Y5920
X84570Y3380
X87110Y5920
X87110Y3380
X89650Y5920
X89650Y3380
X92190Y5920
X92190Y3380
X94730Y5920
X94730Y3380
X97270Y5920
X97270Y3380
X99810Y5920
X99810Y3380
X102350Y5920
X102350Y3380
X104890Y5920
X104890Y3380
X107430Y5920
X109970Y5920
X109970Y3380
X112510Y5920
X112510Y3380
T13
X131910Y101870
X131910Y99370
X131910Y106370
X131910Y103870
T14
X39370Y34036
X32258Y39116
X29718Y36576
X32258Y36576
X29718Y34036
X41910Y34036
X41910Y36576
X39370Y36576
X41910Y39116
X39370Y39116
X32258Y34036
X41910Y41656
X29718Y46736
X32258Y49276
X29718Y49276
X39370Y41656
X41910Y44196
X39370Y44196
X41910Y46736
X39370Y46736
X41910Y49276
X39370Y49276
X29718Y39116
X32258Y41656
X29718Y41656
X32258Y44196
X29718Y44196
X32258Y46736
T15
X142240Y65405
X139700Y74295
X139700Y71755
X142240Y67945
X139700Y69215
X139700Y66675
X142240Y73025
X142240Y70485
T16
X31750Y93980
X53340Y118110
X60960Y118110
X31750Y118110
X39370Y118110
X55880Y68580
X55880Y66040
X63500Y66040
X55880Y60960
X55880Y63500
X63500Y63500
X63500Y60960
X63500Y68580
X59182Y101346
X61722Y101346
X43180Y93980
X45720Y93980
X48260Y93980
X56642Y101346
X36830Y93980
X34290Y93980
T17
X121110Y132920
X119110Y132920
X121110Y110920
X123110Y110920
X125110Y110920
X127110Y110920
X111110Y132920
X78613Y69342
X83439Y69342
X109110Y110920
X119110Y110920
X111110Y110920
X113110Y110920
X115110Y132920
X109110Y132920
X127110Y132920
X125110Y132920
X113110Y132920
X123110Y132920
X117110Y132920
X115110Y110920
X117110Y110920
T18
X56991Y40894
X56991Y43434
X56991Y45974
X49181Y45974
X49181Y43434
X49181Y40894
X56991Y38354
X49181Y38354
T19
X55118Y113538
X61976Y90714
T20
X51592Y86335
X58928Y111760
X24430Y126284
X33274Y125984
X64770Y95062
X61214Y94170
X42164Y126870
X69088Y126492
X63500Y126870
X54356Y129286
X46228Y127801
X101600Y115062
T21
X44450Y129540
X44450Y127000
X44450Y124460
X66040Y129540
X66040Y127000
X66040Y124460
T22
X51054Y38608
X51054Y33020
X22606Y99314
X52578Y47752
X25908Y80010
X28702Y55118
X25908Y55118
T23
X90868Y79849
X68580Y77216
X67730Y83820
X57150Y107950
X72136Y96520
X64770Y98298
T24
X54698Y53340
X33274Y70612
X115062Y77724
X50546Y53594
X85852Y106172
X80772Y98044
X116840Y70546
X97282Y71186
X83566Y59182
X32977Y69385
X57655Y51816
X81280Y74168
T25
X100520Y103537
X95440Y97441
X95440Y95917
X95440Y94393
X95440Y91091
X97218Y91091
X98742Y91091
X100774Y91091
X74676Y83360
X70104Y85090
X97028Y103348
X26235Y45466
X127508Y100838
X23876Y52578
X71374Y92711
X70482Y99631
X80518Y88900
X74676Y58042
X35888Y51615
X122530Y126390
X73406Y87860
X69088Y74676
X68326Y66802
X44450Y72644
X60706Y59436
X91948Y87360
X96520Y87308
X90932Y88360
X96012Y88217
X90264Y89177
X95504Y89228
X89662Y89860
X87122Y76200
X102870Y73406
X105843Y76962
X87658Y76962
X98578Y76454
X92383Y81521
X95295Y79502
X92332Y82550
X94612Y81280
X104648Y86106
X101854Y69342
X100250Y68964
X125984Y66294
X125730Y80337
X90932Y70612
X45974Y72418
X45974Y70104
X48616Y84480
X73660Y72136
X63754Y70358
X32941Y53340
X28013Y47752
X23622Y38608
X73553Y70047
X58674Y67389
X34414Y34036
X73660Y71120
X62250Y69675
X33274Y52431
X28013Y46894
X24130Y37592
X84709Y100203
X87122Y102616
X69206Y89532
X53594Y64516
X73660Y68580
X34414Y33020
X83820Y113284
X83953Y90129
X83537Y106934
X83537Y91440
X82301Y89961
X82933Y90830
X22098Y57139
X22693Y60198
X62738Y71103
X74168Y73660
X73175Y73660
X63754Y71786
X118110Y81534
X22693Y72136
X22693Y74941
X28448Y73660
X34036Y74422
X64452Y72469
X73152Y74676
X73152Y75692
X65024Y73152
X33020Y76200
X28448Y76200
X78994Y96266
X41628Y75111
X79510Y97020
X40770Y75111
X94742Y43180
X94742Y45974
X67310Y40894
X44958Y29464
X51827Y60949
X56896Y73914
X70866Y88177
X64285Y74315
X52736Y61214
X69596Y88138
X68072Y9398
X69342Y9144
X66372Y88822
X71905Y79502
X112776Y121158
X45466Y11176
X85344Y80360
X59182Y57404
X91440Y95758
X66294Y59944
X94561Y92710
X106492Y74742
X105598Y73848
X95250Y74930
X74168Y91773
X71120Y98457
X74930Y89662
X49931Y61067
X46990Y41910
X48768Y10160
X96012Y76708
X95123Y86487
X85090Y81280
X78740Y80518
X69218Y80518
X60198Y78895
X67942Y80518
X34290Y50546
X92383Y83566
X35230Y47498
X43180Y25996
X44489Y20320
X39878Y29464
X117348Y76388
X65122Y80264
X28702Y56101
X37018Y54676
X13970Y44450
X4064Y43942
X17780Y51054
X33274Y57404
X37338Y121412
X59690Y125476
X56992Y130810
X37338Y125984
X46228Y125222
X35560Y131318
X111340Y78740
X108204Y74676
X73406Y80860
X91440Y94234
X89408Y95692
X106426Y77724
X107188Y77724
X108204Y77724
X107188Y76708
X106680Y75946
X103886Y73406
X104902Y72390
X105918Y72390
X106934Y72390
X102108Y82296
X101092Y82296
X98044Y83312
X97028Y83312
X98044Y84328
X97028Y84328
X96266Y82296
X101092Y81280
X102108Y81280
X102108Y80264
X90424Y74676
X88646Y61722
X102870Y77470
X102870Y76200
X102870Y74930
X83510Y77681
X78642Y77470
X59116Y10668
X24605Y66040
X91635Y129032
X103886Y86106
X105410Y86106
X104394Y85344
X104394Y84328
X106172Y85598
X88900Y79502
X89662Y77949
X21082Y53975
X21082Y71755
X96456Y98711
X97726Y98711
X98996Y98711
X100266Y98711
X101536Y98711
X102806Y98711
X104076Y98711
X105346Y98711
X106616Y98711
X107886Y98711
X109156Y98711
X110426Y98711
X111696Y98711
X112966Y98711
X114236Y98711
X115506Y98711
X116776Y98711
X118046Y98711
X120078Y98711
X121348Y98711
X122364Y98965
X123126Y99727
X123888Y100489
X124650Y101251
X125412Y102013
X97726Y100489
X98996Y100489
X100266Y100489
X101536Y100489
X124396Y103537
X125158Y104299
X128206Y104553
X126238Y102489
X128524Y102489
X107124Y103791
X116268Y103791
X107124Y106585
X98742Y106585
X99758Y107093
X105346Y106585
X105346Y103791
X109156Y103791
X109156Y106585
X113982Y106585
X113982Y103791
X115252Y105061
X118300Y107093
X118300Y103791
X127952Y106839
X127952Y108617
X123698Y73152
X127000Y70104
X104076Y100489
X105346Y100489
X106616Y100489
X107886Y100489
X109156Y100489
X110426Y100489
X112966Y100489
X114236Y100489
X115506Y100489
X116776Y100489
X118046Y100489
X121348Y100489
X116268Y86519
X108394Y86519
X116268Y84741
X120332Y86519
X121602Y86519
X122872Y86519
X124142Y86519
X125412Y86519
X126682Y86519
X127952Y86519
X129222Y86519
X120332Y84741
X121602Y84741
X122872Y84741
X124142Y84741
X125412Y84741
X126682Y84741
X127952Y84741
X129222Y84741
X95758Y65278
X95758Y63500
X95758Y61722
X95758Y59944
X95758Y58166
X97028Y65278
X98298Y65278
X99568Y65278
X100838Y65278
X102108Y65278
X103378Y65278
X104648Y65278
X105918Y65278
X107188Y65278
X108458Y65278
X109728Y65278
X110998Y65278
X112268Y65278
X113538Y65278
X97028Y63500
X98298Y63500
X99568Y63500
X100838Y63500
X102108Y63500
X103378Y63500
X104648Y63500
X105918Y63500
X107188Y63500
X108458Y63500
X109728Y63500
X110998Y63500
X112268Y63500
X113538Y63500
X97028Y61722
X98298Y61722
X99568Y61722
X100838Y61722
X102108Y61722
X103378Y61722
X104648Y61722
X105918Y61722
X107188Y61722
X108458Y61722
X109728Y61722
X110998Y61722
X112268Y61722
X113538Y61722
X97028Y59944
X98298Y59944
X99568Y59944
X141478Y66802
X100838Y59944
X102108Y59944
X103378Y59944
X104648Y59944
X105918Y59944
X107188Y59944
X108458Y59944
X109728Y59944
X110998Y59944
X112268Y59944
X113538Y59944
X97028Y58166
X98298Y58166
X99568Y58166
X100838Y58166
X102108Y58166
X103378Y58166
X104648Y58166
X105918Y58166
X107188Y58166
X108458Y58166
X109728Y58166
X110998Y58166
X112268Y58166
X113538Y58166
X114808Y65278
X116078Y65278
X117348Y65278
X114808Y63500
X116078Y63500
X117348Y63500
X114808Y61722
X116078Y61722
X117348Y61722
X114808Y59944
X116078Y59944
X117348Y59944
X114808Y58166
X116078Y58166
X117348Y58166
X139192Y64008
X137414Y64008
X139192Y62230
X140970Y64008
X137414Y65786
X135890Y65786
X130810Y66040
X136906Y69850
X133350Y69850
X130302Y69850
X137922Y71120
X140716Y67818
X143256Y61468
X143256Y59944
X143256Y58420
X142240Y59944
X142240Y58420
X141224Y58420
X140208Y58420
X138938Y58420
X130556Y59690
X124206Y59690
X121412Y59690
X121412Y65278
X124206Y65278
X111506Y69596
X109728Y71374
X109728Y69088
X107188Y67310
X95250Y67310
X98298Y67310
X100838Y67310
X103378Y67310
X105918Y67310
X99060Y72390
X126746Y80518
X128524Y79756
X130302Y78232
X131064Y76962
X125222Y82042
X123952Y83058
X133350Y78486
X139446Y77216
X141986Y77216
X143510Y76708
X136398Y75692
X131572Y73660
X130810Y75184
X117094Y112522
X118872Y112776
X122936Y112268
X119888Y112268
X121158Y112776
X124206Y112776
X125730Y112268
X127254Y112776
X98742Y103537
T26
X28702Y68783
X28702Y69596
X31242Y89154
X49536Y57398
M30