G04 EAGLE Gerber X2 export*
%TF.Part,Single*%
%TF.FileFunction,Other,Solder Mask bottom*%
%TF.FilePolarity,Positive*%
%TF.GenerationSoftware,Autodesk,EAGLE,9.4.0*%
%TF.CreationDate,2019-06-23T03:26:36Z*%
G75*
%MOMM*%
%FSLAX34Y34*%
%LPD*%
%INSolder Mask bottom*%
%AMOC8*
5,1,8,0,0,1.08239X$1,22.5*%
G01*
%ADD10C,0.000000*%
%ADD11C,0.001000*%
%ADD12C,1.600000*%
%ADD13C,1.500000*%
%ADD14C,2.400000*%
%ADD15C,1.350000*%
%ADD16C,3.200000*%
%ADD17R,2.550000X2.550000*%
%ADD18C,2.550000*%
%ADD19C,1.800000*%
%ADD20P,2.336880X8X22.500000*%
%ADD21C,1.219200*%
%ADD22C,1.524000*%
%ADD23C,1.524000*%
%ADD24P,1.319650X8X202.500000*%
%ADD25C,1.981200*%
%ADD26P,2.749271X8X112.500000*%
%ADD27R,1.500000X1.300000*%
%ADD28C,0.914400*%
%ADD29P,1.484606X8X112.500000*%
%ADD30R,1.778000X1.778000*%
%ADD31C,1.778000*%
%ADD32C,6.200000*%
%ADD33C,2.000000*%
%ADD34C,1.425000*%
%ADD35C,3.316000*%
%ADD36C,1.270000*%
%ADD37R,1.159000X1.159000*%
%ADD38C,1.159000*%
%ADD39R,1.300000X1.500000*%
%ADD40P,6.511658X8X292.500000*%
%ADD41C,8.000000*%


D10*
X0Y0D02*
X1449200Y0D01*
X1449200Y1347600D01*
X0Y1347600D01*
X0Y0D01*
D11*
X714999Y138591D02*
X761142Y184734D01*
X761143Y184735D02*
X759885Y186370D01*
X758668Y188036D01*
X757492Y189731D01*
X756357Y191454D01*
X755264Y193203D01*
X754214Y194979D01*
X753207Y196780D01*
X752245Y198605D01*
X751326Y200452D01*
X750454Y202322D01*
X749626Y204211D01*
X748845Y206121D01*
X748110Y208049D01*
X747423Y209994D01*
X746782Y211955D01*
X746190Y213931D01*
X745646Y215921D01*
X745150Y217924D01*
X744703Y219938D01*
X744305Y221962D01*
X743956Y223995D01*
X743656Y226037D01*
X743407Y228084D01*
X743207Y230138D01*
X743056Y232195D01*
X742956Y234256D01*
X742906Y236318D01*
X742906Y238382D01*
X742956Y240444D01*
X743056Y242505D01*
X743207Y244562D01*
X743407Y246616D01*
X743656Y248663D01*
X743956Y250705D01*
X744305Y252738D01*
X744703Y254762D01*
X745150Y256776D01*
X745646Y258779D01*
X746190Y260769D01*
X746782Y262745D01*
X747423Y264706D01*
X748110Y266651D01*
X748845Y268579D01*
X749626Y270489D01*
X750454Y272378D01*
X751326Y274248D01*
X752245Y276095D01*
X753207Y277920D01*
X754214Y279721D01*
X755264Y281497D01*
X756357Y283246D01*
X757492Y284969D01*
X758668Y286664D01*
X759885Y288330D01*
X761143Y289965D01*
X761142Y289966D02*
X714999Y336109D01*
X712627Y333329D01*
X710324Y330493D01*
X708090Y327601D01*
X705927Y324655D01*
X703837Y321658D01*
X701820Y318611D01*
X699878Y315516D01*
X698012Y312374D01*
X696223Y309187D01*
X694512Y305958D01*
X692881Y302689D01*
X691329Y299380D01*
X689859Y296035D01*
X688470Y292655D01*
X687164Y289242D01*
X685942Y285798D01*
X684804Y282326D01*
X683751Y278827D01*
X682784Y275303D01*
X681902Y271756D01*
X681107Y268190D01*
X680400Y264605D01*
X679780Y261004D01*
X679247Y257388D01*
X678803Y253761D01*
X678448Y250124D01*
X678181Y246480D01*
X678003Y242830D01*
X677914Y239177D01*
X677914Y235523D01*
X678003Y231870D01*
X678181Y228220D01*
X678448Y224576D01*
X678803Y220939D01*
X679247Y217312D01*
X679780Y213696D01*
X680400Y210095D01*
X681107Y206510D01*
X681902Y202944D01*
X682784Y199397D01*
X683751Y195873D01*
X684804Y192374D01*
X685942Y188902D01*
X687164Y185458D01*
X688470Y182045D01*
X689859Y178665D01*
X691329Y175320D01*
X692881Y172011D01*
X694512Y168742D01*
X696223Y165513D01*
X698012Y162326D01*
X699878Y159184D01*
X701820Y156089D01*
X703837Y153042D01*
X705927Y150045D01*
X708090Y147099D01*
X710324Y144207D01*
X712627Y141371D01*
X714999Y138591D01*
X880516Y304108D02*
X926659Y350251D01*
X880515Y304107D02*
X878880Y305365D01*
X877214Y306582D01*
X875519Y307758D01*
X873796Y308893D01*
X872047Y309986D01*
X870271Y311036D01*
X868470Y312043D01*
X866645Y313005D01*
X864798Y313924D01*
X862928Y314796D01*
X861039Y315624D01*
X859129Y316405D01*
X857201Y317140D01*
X855256Y317827D01*
X853295Y318468D01*
X851319Y319060D01*
X849329Y319604D01*
X847326Y320100D01*
X845312Y320547D01*
X843288Y320945D01*
X841255Y321294D01*
X839213Y321594D01*
X837166Y321843D01*
X835112Y322043D01*
X833055Y322194D01*
X830994Y322294D01*
X828932Y322344D01*
X826868Y322344D01*
X824806Y322294D01*
X822745Y322194D01*
X820688Y322043D01*
X818634Y321843D01*
X816587Y321594D01*
X814545Y321294D01*
X812512Y320945D01*
X810488Y320547D01*
X808474Y320100D01*
X806471Y319604D01*
X804481Y319060D01*
X802505Y318468D01*
X800544Y317827D01*
X798599Y317140D01*
X796671Y316405D01*
X794761Y315624D01*
X792872Y314796D01*
X791002Y313924D01*
X789155Y313005D01*
X787330Y312043D01*
X785529Y311036D01*
X783753Y309986D01*
X782004Y308893D01*
X780281Y307758D01*
X778586Y306582D01*
X776920Y305365D01*
X775285Y304107D01*
X775284Y304108D02*
X729141Y350251D01*
X731921Y352623D01*
X734757Y354926D01*
X737649Y357160D01*
X740595Y359323D01*
X743592Y361413D01*
X746639Y363430D01*
X749734Y365372D01*
X752876Y367238D01*
X756063Y369027D01*
X759292Y370738D01*
X762561Y372369D01*
X765870Y373921D01*
X769215Y375391D01*
X772595Y376780D01*
X776008Y378086D01*
X779452Y379308D01*
X782924Y380446D01*
X786423Y381499D01*
X789947Y382466D01*
X793494Y383348D01*
X797060Y384143D01*
X800645Y384850D01*
X804246Y385470D01*
X807862Y386003D01*
X811489Y386447D01*
X815126Y386802D01*
X818770Y387069D01*
X822420Y387247D01*
X826073Y387336D01*
X829727Y387336D01*
X833380Y387247D01*
X837030Y387069D01*
X840674Y386802D01*
X844311Y386447D01*
X847938Y386003D01*
X851554Y385470D01*
X855155Y384850D01*
X858740Y384143D01*
X862306Y383348D01*
X865853Y382466D01*
X869377Y381499D01*
X872876Y380446D01*
X876348Y379308D01*
X879792Y378086D01*
X883205Y376780D01*
X886585Y375391D01*
X889930Y373921D01*
X893239Y372369D01*
X896508Y370738D01*
X899737Y369027D01*
X902924Y367238D01*
X906066Y365372D01*
X909161Y363430D01*
X912208Y361413D01*
X915205Y359323D01*
X918151Y357160D01*
X921043Y354926D01*
X923879Y352623D01*
X926659Y350251D01*
X880516Y170592D02*
X926659Y124449D01*
X880515Y170593D02*
X878880Y169335D01*
X877214Y168118D01*
X875519Y166942D01*
X873796Y165807D01*
X872047Y164714D01*
X870271Y163664D01*
X868470Y162657D01*
X866645Y161695D01*
X864798Y160776D01*
X862928Y159904D01*
X861039Y159076D01*
X859129Y158295D01*
X857201Y157560D01*
X855256Y156873D01*
X853295Y156232D01*
X851319Y155640D01*
X849329Y155096D01*
X847326Y154600D01*
X845312Y154153D01*
X843288Y153755D01*
X841255Y153406D01*
X839213Y153106D01*
X837166Y152857D01*
X835112Y152657D01*
X833055Y152506D01*
X830994Y152406D01*
X828932Y152356D01*
X826868Y152356D01*
X824806Y152406D01*
X822745Y152506D01*
X820688Y152657D01*
X818634Y152857D01*
X816587Y153106D01*
X814545Y153406D01*
X812512Y153755D01*
X810488Y154153D01*
X808474Y154600D01*
X806471Y155096D01*
X804481Y155640D01*
X802505Y156232D01*
X800544Y156873D01*
X798599Y157560D01*
X796671Y158295D01*
X794761Y159076D01*
X792872Y159904D01*
X791002Y160776D01*
X789155Y161695D01*
X787330Y162657D01*
X785529Y163664D01*
X783753Y164714D01*
X782004Y165807D01*
X780281Y166942D01*
X778586Y168118D01*
X776920Y169335D01*
X775285Y170593D01*
X775284Y170592D02*
X729141Y124449D01*
X731921Y122077D01*
X734757Y119774D01*
X737649Y117540D01*
X740595Y115377D01*
X743592Y113287D01*
X746639Y111270D01*
X749734Y109328D01*
X752876Y107462D01*
X756063Y105673D01*
X759292Y103962D01*
X762561Y102331D01*
X765870Y100779D01*
X769215Y99309D01*
X772595Y97920D01*
X776008Y96614D01*
X779452Y95392D01*
X782924Y94254D01*
X786423Y93201D01*
X789947Y92234D01*
X793494Y91352D01*
X797060Y90557D01*
X800645Y89850D01*
X804246Y89230D01*
X807862Y88697D01*
X811489Y88253D01*
X815126Y87898D01*
X818770Y87631D01*
X822420Y87453D01*
X826073Y87364D01*
X829727Y87364D01*
X833380Y87453D01*
X837030Y87631D01*
X840674Y87898D01*
X844311Y88253D01*
X847938Y88697D01*
X851554Y89230D01*
X855155Y89850D01*
X858740Y90557D01*
X862306Y91352D01*
X865853Y92234D01*
X869377Y93201D01*
X872876Y94254D01*
X876348Y95392D01*
X879792Y96614D01*
X883205Y97920D01*
X886585Y99309D01*
X889930Y100779D01*
X893239Y102331D01*
X896508Y103962D01*
X899737Y105673D01*
X902924Y107462D01*
X906066Y109328D01*
X909161Y111270D01*
X912208Y113287D01*
X915205Y115377D01*
X918151Y117540D01*
X921043Y119774D01*
X923879Y122077D01*
X926659Y124449D01*
X894657Y184735D02*
X895915Y186370D01*
X897132Y188036D01*
X898308Y189731D01*
X899443Y191454D01*
X900536Y193203D01*
X901586Y194979D01*
X902593Y196780D01*
X903555Y198605D01*
X904474Y200452D01*
X905346Y202322D01*
X906174Y204211D01*
X906955Y206121D01*
X907690Y208049D01*
X908377Y209994D01*
X909018Y211955D01*
X909610Y213931D01*
X910154Y215921D01*
X910650Y217924D01*
X911097Y219938D01*
X911495Y221962D01*
X911844Y223995D01*
X912144Y226037D01*
X912393Y228084D01*
X912593Y230138D01*
X912744Y232195D01*
X912844Y234256D01*
X912894Y236318D01*
X912894Y238382D01*
X912844Y240444D01*
X912744Y242505D01*
X912593Y244562D01*
X912393Y246616D01*
X912144Y248663D01*
X911844Y250705D01*
X911495Y252738D01*
X911097Y254762D01*
X910650Y256776D01*
X910154Y258779D01*
X909610Y260769D01*
X909018Y262745D01*
X908377Y264706D01*
X907690Y266651D01*
X906955Y268579D01*
X906174Y270489D01*
X905346Y272378D01*
X904474Y274248D01*
X903555Y276095D01*
X902593Y277920D01*
X901586Y279721D01*
X900536Y281497D01*
X899443Y283246D01*
X898308Y284969D01*
X897132Y286664D01*
X895915Y288330D01*
X894657Y289965D01*
X894658Y184734D02*
X940801Y138591D01*
X943173Y141371D01*
X945476Y144207D01*
X947710Y147099D01*
X949873Y150045D01*
X951963Y153042D01*
X953980Y156089D01*
X955922Y159184D01*
X957788Y162326D01*
X959577Y165513D01*
X961288Y168742D01*
X962919Y172011D01*
X964471Y175320D01*
X965941Y178665D01*
X967330Y182045D01*
X968636Y185458D01*
X969858Y188902D01*
X970996Y192374D01*
X972049Y195873D01*
X973016Y199397D01*
X973898Y202944D01*
X974693Y206510D01*
X975400Y210095D01*
X976020Y213696D01*
X976553Y217312D01*
X976997Y220939D01*
X977352Y224576D01*
X977619Y228220D01*
X977797Y231870D01*
X977886Y235523D01*
X977886Y239177D01*
X977797Y242830D01*
X977619Y246480D01*
X977352Y250124D01*
X976997Y253761D01*
X976553Y257388D01*
X976020Y261004D01*
X975400Y264605D01*
X974693Y268190D01*
X973898Y271756D01*
X973016Y275303D01*
X972049Y278827D01*
X970996Y282326D01*
X969858Y285798D01*
X968636Y289242D01*
X967330Y292655D01*
X965941Y296035D01*
X964471Y299380D01*
X962919Y302689D01*
X961288Y305958D01*
X959577Y309187D01*
X957788Y312374D01*
X955922Y315516D01*
X953980Y318611D01*
X951963Y321658D01*
X949873Y324655D01*
X947710Y327601D01*
X945476Y330493D01*
X943173Y333329D01*
X940801Y336109D01*
X894658Y289966D01*
X880386Y275694D02*
X881301Y274409D01*
X882184Y273102D01*
X883036Y271774D01*
X883855Y270426D01*
X884641Y269059D01*
X885394Y267673D01*
X886113Y266269D01*
X886797Y264848D01*
X887447Y263411D01*
X888062Y261958D01*
X888641Y260491D01*
X889185Y259010D01*
X889692Y257517D01*
X890163Y256012D01*
X890598Y254495D01*
X890996Y252969D01*
X891356Y251433D01*
X891679Y249890D01*
X891964Y248338D01*
X892212Y246781D01*
X892422Y245217D01*
X892594Y243649D01*
X892728Y242078D01*
X892823Y240503D01*
X892881Y238927D01*
X892900Y237350D01*
X892881Y235773D01*
X892823Y234197D01*
X892728Y232622D01*
X892594Y231051D01*
X892422Y229483D01*
X892212Y227919D01*
X891964Y226362D01*
X891679Y224810D01*
X891356Y223267D01*
X890996Y221731D01*
X890598Y220205D01*
X890163Y218688D01*
X889692Y217183D01*
X889185Y215690D01*
X888641Y214209D01*
X888062Y212742D01*
X887447Y211289D01*
X886797Y209852D01*
X886113Y208431D01*
X885394Y207027D01*
X884641Y205641D01*
X883855Y204274D01*
X883036Y202926D01*
X882184Y201598D01*
X881301Y200291D01*
X880386Y199006D01*
X851173Y228219D01*
X851387Y228783D01*
X851586Y229352D01*
X851772Y229926D01*
X851944Y230504D01*
X852102Y231086D01*
X852247Y231671D01*
X852376Y232260D01*
X852492Y232852D01*
X852593Y233446D01*
X852680Y234043D01*
X852753Y234642D01*
X852811Y235242D01*
X852855Y235843D01*
X852884Y236446D01*
X852898Y237048D01*
X852898Y237652D01*
X852884Y238254D01*
X852855Y238857D01*
X852811Y239458D01*
X852753Y240058D01*
X852680Y240657D01*
X852593Y241254D01*
X852492Y241848D01*
X852376Y242440D01*
X852247Y243029D01*
X852102Y243614D01*
X851944Y244196D01*
X851772Y244774D01*
X851586Y245348D01*
X851387Y245917D01*
X851173Y246481D01*
X880386Y275694D01*
X866244Y289836D02*
X864959Y290751D01*
X863652Y291634D01*
X862324Y292486D01*
X860976Y293305D01*
X859609Y294091D01*
X858223Y294844D01*
X856819Y295563D01*
X855398Y296247D01*
X853961Y296897D01*
X852508Y297512D01*
X851041Y298091D01*
X849560Y298635D01*
X848067Y299142D01*
X846562Y299613D01*
X845045Y300048D01*
X843519Y300446D01*
X841983Y300806D01*
X840440Y301129D01*
X838888Y301414D01*
X837331Y301662D01*
X835767Y301872D01*
X834199Y302044D01*
X832628Y302178D01*
X831053Y302273D01*
X829477Y302331D01*
X827900Y302350D01*
X826323Y302331D01*
X824747Y302273D01*
X823172Y302178D01*
X821601Y302044D01*
X820033Y301872D01*
X818469Y301662D01*
X816912Y301414D01*
X815360Y301129D01*
X813817Y300806D01*
X812281Y300446D01*
X810755Y300048D01*
X809238Y299613D01*
X807733Y299142D01*
X806240Y298635D01*
X804759Y298091D01*
X803292Y297512D01*
X801839Y296897D01*
X800402Y296247D01*
X798981Y295563D01*
X797577Y294844D01*
X796191Y294091D01*
X794824Y293305D01*
X793476Y292486D01*
X792148Y291634D01*
X790841Y290751D01*
X789556Y289836D01*
X818769Y260623D01*
X819333Y260837D01*
X819902Y261036D01*
X820476Y261222D01*
X821054Y261394D01*
X821636Y261552D01*
X822221Y261697D01*
X822810Y261826D01*
X823402Y261942D01*
X823996Y262043D01*
X824593Y262130D01*
X825192Y262203D01*
X825792Y262261D01*
X826393Y262305D01*
X826996Y262334D01*
X827598Y262348D01*
X828202Y262348D01*
X828804Y262334D01*
X829407Y262305D01*
X830008Y262261D01*
X830608Y262203D01*
X831207Y262130D01*
X831804Y262043D01*
X832398Y261942D01*
X832990Y261826D01*
X833579Y261697D01*
X834164Y261552D01*
X834746Y261394D01*
X835324Y261222D01*
X835898Y261036D01*
X836467Y260837D01*
X837031Y260623D01*
X866244Y289836D01*
X837031Y214077D02*
X836467Y213863D01*
X835898Y213664D01*
X835324Y213478D01*
X834746Y213306D01*
X834164Y213148D01*
X833579Y213003D01*
X832990Y212874D01*
X832398Y212758D01*
X831804Y212657D01*
X831207Y212570D01*
X830608Y212497D01*
X830008Y212439D01*
X829407Y212395D01*
X828804Y212366D01*
X828202Y212352D01*
X827598Y212352D01*
X826996Y212366D01*
X826393Y212395D01*
X825792Y212439D01*
X825192Y212497D01*
X824593Y212570D01*
X823996Y212657D01*
X823402Y212758D01*
X822810Y212874D01*
X822221Y213003D01*
X821636Y213148D01*
X821054Y213306D01*
X820476Y213478D01*
X819902Y213664D01*
X819333Y213863D01*
X818769Y214077D01*
X837031Y214077D02*
X866244Y184864D01*
X864959Y183949D01*
X863652Y183066D01*
X862324Y182214D01*
X860976Y181395D01*
X859609Y180609D01*
X858223Y179856D01*
X856819Y179137D01*
X855398Y178453D01*
X853961Y177803D01*
X852508Y177188D01*
X851041Y176609D01*
X849560Y176065D01*
X848067Y175558D01*
X846562Y175087D01*
X845045Y174652D01*
X843519Y174254D01*
X841983Y173894D01*
X840440Y173571D01*
X838888Y173286D01*
X837331Y173038D01*
X835767Y172828D01*
X834199Y172656D01*
X832628Y172522D01*
X831053Y172427D01*
X829477Y172369D01*
X827900Y172350D01*
X826323Y172369D01*
X824747Y172427D01*
X823172Y172522D01*
X821601Y172656D01*
X820033Y172828D01*
X818469Y173038D01*
X816912Y173286D01*
X815360Y173571D01*
X813817Y173894D01*
X812281Y174254D01*
X810755Y174652D01*
X809238Y175087D01*
X807733Y175558D01*
X806240Y176065D01*
X804759Y176609D01*
X803292Y177188D01*
X801839Y177803D01*
X800402Y178453D01*
X798981Y179137D01*
X797577Y179856D01*
X796191Y180609D01*
X794824Y181395D01*
X793476Y182214D01*
X792148Y183066D01*
X790841Y183949D01*
X789556Y184864D01*
X818769Y214077D01*
X804627Y228219D02*
X804413Y228783D01*
X804214Y229352D01*
X804028Y229926D01*
X803856Y230504D01*
X803698Y231086D01*
X803553Y231671D01*
X803424Y232260D01*
X803308Y232852D01*
X803207Y233446D01*
X803120Y234043D01*
X803047Y234642D01*
X802989Y235242D01*
X802945Y235843D01*
X802916Y236446D01*
X802902Y237048D01*
X802902Y237652D01*
X802916Y238254D01*
X802945Y238857D01*
X802989Y239458D01*
X803047Y240058D01*
X803120Y240657D01*
X803207Y241254D01*
X803308Y241848D01*
X803424Y242440D01*
X803553Y243029D01*
X803698Y243614D01*
X803856Y244196D01*
X804028Y244774D01*
X804214Y245348D01*
X804413Y245917D01*
X804627Y246481D01*
X775414Y275694D01*
X774499Y274409D01*
X773616Y273102D01*
X772764Y271774D01*
X771945Y270426D01*
X771159Y269059D01*
X770406Y267673D01*
X769687Y266269D01*
X769003Y264848D01*
X768353Y263411D01*
X767738Y261958D01*
X767159Y260491D01*
X766615Y259010D01*
X766108Y257517D01*
X765637Y256012D01*
X765202Y254495D01*
X764804Y252969D01*
X764444Y251433D01*
X764121Y249890D01*
X763836Y248338D01*
X763588Y246781D01*
X763378Y245217D01*
X763206Y243649D01*
X763072Y242078D01*
X762977Y240503D01*
X762919Y238927D01*
X762900Y237350D01*
X762919Y235773D01*
X762977Y234197D01*
X763072Y232622D01*
X763206Y231051D01*
X763378Y229483D01*
X763588Y227919D01*
X763836Y226362D01*
X764121Y224810D01*
X764444Y223267D01*
X764804Y221731D01*
X765202Y220205D01*
X765637Y218688D01*
X766108Y217183D01*
X766615Y215690D01*
X767159Y214209D01*
X767738Y212742D01*
X768353Y211289D01*
X769003Y209852D01*
X769687Y208431D01*
X770406Y207027D01*
X771159Y205641D01*
X771945Y204274D01*
X772764Y202926D01*
X773616Y201598D01*
X774499Y200291D01*
X775414Y199006D01*
X804627Y228219D01*
X691900Y117350D02*
X691905Y117743D01*
X691919Y118135D01*
X691943Y118527D01*
X691977Y118918D01*
X692020Y119309D01*
X692073Y119698D01*
X692136Y120085D01*
X692207Y120471D01*
X692289Y120856D01*
X692379Y121238D01*
X692480Y121617D01*
X692589Y121995D01*
X692708Y122369D01*
X692835Y122740D01*
X692972Y123108D01*
X693118Y123473D01*
X693273Y123834D01*
X693436Y124191D01*
X693608Y124544D01*
X693789Y124892D01*
X693979Y125236D01*
X694176Y125576D01*
X694382Y125910D01*
X694596Y126239D01*
X694819Y126563D01*
X695049Y126881D01*
X695286Y127194D01*
X695532Y127500D01*
X695785Y127801D01*
X696045Y128095D01*
X696312Y128383D01*
X696586Y128664D01*
X696867Y128938D01*
X697155Y129205D01*
X697449Y129465D01*
X697750Y129718D01*
X698056Y129964D01*
X698369Y130201D01*
X698687Y130431D01*
X699011Y130654D01*
X699340Y130868D01*
X699674Y131074D01*
X700014Y131271D01*
X700358Y131461D01*
X700706Y131642D01*
X701059Y131814D01*
X701416Y131977D01*
X701777Y132132D01*
X702142Y132278D01*
X702510Y132415D01*
X702881Y132542D01*
X703255Y132661D01*
X703633Y132770D01*
X704012Y132871D01*
X704394Y132961D01*
X704779Y133043D01*
X705165Y133114D01*
X705552Y133177D01*
X705941Y133230D01*
X706332Y133273D01*
X706723Y133307D01*
X707115Y133331D01*
X707507Y133345D01*
X707900Y133350D01*
X708293Y133345D01*
X708685Y133331D01*
X709077Y133307D01*
X709468Y133273D01*
X709859Y133230D01*
X710248Y133177D01*
X710635Y133114D01*
X711021Y133043D01*
X711406Y132961D01*
X711788Y132871D01*
X712167Y132770D01*
X712545Y132661D01*
X712919Y132542D01*
X713290Y132415D01*
X713658Y132278D01*
X714023Y132132D01*
X714384Y131977D01*
X714741Y131814D01*
X715094Y131642D01*
X715442Y131461D01*
X715786Y131271D01*
X716126Y131074D01*
X716460Y130868D01*
X716789Y130654D01*
X717113Y130431D01*
X717431Y130201D01*
X717744Y129964D01*
X718050Y129718D01*
X718351Y129465D01*
X718645Y129205D01*
X718933Y128938D01*
X719214Y128664D01*
X719488Y128383D01*
X719755Y128095D01*
X720015Y127801D01*
X720268Y127500D01*
X720514Y127194D01*
X720751Y126881D01*
X720981Y126563D01*
X721204Y126239D01*
X721418Y125910D01*
X721624Y125576D01*
X721821Y125236D01*
X722011Y124892D01*
X722192Y124544D01*
X722364Y124191D01*
X722527Y123834D01*
X722682Y123473D01*
X722828Y123108D01*
X722965Y122740D01*
X723092Y122369D01*
X723211Y121995D01*
X723320Y121617D01*
X723421Y121238D01*
X723511Y120856D01*
X723593Y120471D01*
X723664Y120085D01*
X723727Y119698D01*
X723780Y119309D01*
X723823Y118918D01*
X723857Y118527D01*
X723881Y118135D01*
X723895Y117743D01*
X723900Y117350D01*
X723895Y116957D01*
X723881Y116565D01*
X723857Y116173D01*
X723823Y115782D01*
X723780Y115391D01*
X723727Y115002D01*
X723664Y114615D01*
X723593Y114229D01*
X723511Y113844D01*
X723421Y113462D01*
X723320Y113083D01*
X723211Y112705D01*
X723092Y112331D01*
X722965Y111960D01*
X722828Y111592D01*
X722682Y111227D01*
X722527Y110866D01*
X722364Y110509D01*
X722192Y110156D01*
X722011Y109808D01*
X721821Y109464D01*
X721624Y109124D01*
X721418Y108790D01*
X721204Y108461D01*
X720981Y108137D01*
X720751Y107819D01*
X720514Y107506D01*
X720268Y107200D01*
X720015Y106899D01*
X719755Y106605D01*
X719488Y106317D01*
X719214Y106036D01*
X718933Y105762D01*
X718645Y105495D01*
X718351Y105235D01*
X718050Y104982D01*
X717744Y104736D01*
X717431Y104499D01*
X717113Y104269D01*
X716789Y104046D01*
X716460Y103832D01*
X716126Y103626D01*
X715786Y103429D01*
X715442Y103239D01*
X715094Y103058D01*
X714741Y102886D01*
X714384Y102723D01*
X714023Y102568D01*
X713658Y102422D01*
X713290Y102285D01*
X712919Y102158D01*
X712545Y102039D01*
X712167Y101930D01*
X711788Y101829D01*
X711406Y101739D01*
X711021Y101657D01*
X710635Y101586D01*
X710248Y101523D01*
X709859Y101470D01*
X709468Y101427D01*
X709077Y101393D01*
X708685Y101369D01*
X708293Y101355D01*
X707900Y101350D01*
X707507Y101355D01*
X707115Y101369D01*
X706723Y101393D01*
X706332Y101427D01*
X705941Y101470D01*
X705552Y101523D01*
X705165Y101586D01*
X704779Y101657D01*
X704394Y101739D01*
X704012Y101829D01*
X703633Y101930D01*
X703255Y102039D01*
X702881Y102158D01*
X702510Y102285D01*
X702142Y102422D01*
X701777Y102568D01*
X701416Y102723D01*
X701059Y102886D01*
X700706Y103058D01*
X700358Y103239D01*
X700014Y103429D01*
X699674Y103626D01*
X699340Y103832D01*
X699011Y104046D01*
X698687Y104269D01*
X698369Y104499D01*
X698056Y104736D01*
X697750Y104982D01*
X697449Y105235D01*
X697155Y105495D01*
X696867Y105762D01*
X696586Y106036D01*
X696312Y106317D01*
X696045Y106605D01*
X695785Y106899D01*
X695532Y107200D01*
X695286Y107506D01*
X695049Y107819D01*
X694819Y108137D01*
X694596Y108461D01*
X694382Y108790D01*
X694176Y109124D01*
X693979Y109464D01*
X693789Y109808D01*
X693608Y110156D01*
X693436Y110509D01*
X693273Y110866D01*
X693118Y111227D01*
X692972Y111592D01*
X692835Y111960D01*
X692708Y112331D01*
X692589Y112705D01*
X692480Y113083D01*
X692379Y113462D01*
X692289Y113844D01*
X692207Y114229D01*
X692136Y114615D01*
X692073Y115002D01*
X692020Y115391D01*
X691977Y115782D01*
X691943Y116173D01*
X691919Y116565D01*
X691905Y116957D01*
X691900Y117350D01*
X691900Y357350D02*
X691905Y357743D01*
X691919Y358135D01*
X691943Y358527D01*
X691977Y358918D01*
X692020Y359309D01*
X692073Y359698D01*
X692136Y360085D01*
X692207Y360471D01*
X692289Y360856D01*
X692379Y361238D01*
X692480Y361617D01*
X692589Y361995D01*
X692708Y362369D01*
X692835Y362740D01*
X692972Y363108D01*
X693118Y363473D01*
X693273Y363834D01*
X693436Y364191D01*
X693608Y364544D01*
X693789Y364892D01*
X693979Y365236D01*
X694176Y365576D01*
X694382Y365910D01*
X694596Y366239D01*
X694819Y366563D01*
X695049Y366881D01*
X695286Y367194D01*
X695532Y367500D01*
X695785Y367801D01*
X696045Y368095D01*
X696312Y368383D01*
X696586Y368664D01*
X696867Y368938D01*
X697155Y369205D01*
X697449Y369465D01*
X697750Y369718D01*
X698056Y369964D01*
X698369Y370201D01*
X698687Y370431D01*
X699011Y370654D01*
X699340Y370868D01*
X699674Y371074D01*
X700014Y371271D01*
X700358Y371461D01*
X700706Y371642D01*
X701059Y371814D01*
X701416Y371977D01*
X701777Y372132D01*
X702142Y372278D01*
X702510Y372415D01*
X702881Y372542D01*
X703255Y372661D01*
X703633Y372770D01*
X704012Y372871D01*
X704394Y372961D01*
X704779Y373043D01*
X705165Y373114D01*
X705552Y373177D01*
X705941Y373230D01*
X706332Y373273D01*
X706723Y373307D01*
X707115Y373331D01*
X707507Y373345D01*
X707900Y373350D01*
X708293Y373345D01*
X708685Y373331D01*
X709077Y373307D01*
X709468Y373273D01*
X709859Y373230D01*
X710248Y373177D01*
X710635Y373114D01*
X711021Y373043D01*
X711406Y372961D01*
X711788Y372871D01*
X712167Y372770D01*
X712545Y372661D01*
X712919Y372542D01*
X713290Y372415D01*
X713658Y372278D01*
X714023Y372132D01*
X714384Y371977D01*
X714741Y371814D01*
X715094Y371642D01*
X715442Y371461D01*
X715786Y371271D01*
X716126Y371074D01*
X716460Y370868D01*
X716789Y370654D01*
X717113Y370431D01*
X717431Y370201D01*
X717744Y369964D01*
X718050Y369718D01*
X718351Y369465D01*
X718645Y369205D01*
X718933Y368938D01*
X719214Y368664D01*
X719488Y368383D01*
X719755Y368095D01*
X720015Y367801D01*
X720268Y367500D01*
X720514Y367194D01*
X720751Y366881D01*
X720981Y366563D01*
X721204Y366239D01*
X721418Y365910D01*
X721624Y365576D01*
X721821Y365236D01*
X722011Y364892D01*
X722192Y364544D01*
X722364Y364191D01*
X722527Y363834D01*
X722682Y363473D01*
X722828Y363108D01*
X722965Y362740D01*
X723092Y362369D01*
X723211Y361995D01*
X723320Y361617D01*
X723421Y361238D01*
X723511Y360856D01*
X723593Y360471D01*
X723664Y360085D01*
X723727Y359698D01*
X723780Y359309D01*
X723823Y358918D01*
X723857Y358527D01*
X723881Y358135D01*
X723895Y357743D01*
X723900Y357350D01*
X723895Y356957D01*
X723881Y356565D01*
X723857Y356173D01*
X723823Y355782D01*
X723780Y355391D01*
X723727Y355002D01*
X723664Y354615D01*
X723593Y354229D01*
X723511Y353844D01*
X723421Y353462D01*
X723320Y353083D01*
X723211Y352705D01*
X723092Y352331D01*
X722965Y351960D01*
X722828Y351592D01*
X722682Y351227D01*
X722527Y350866D01*
X722364Y350509D01*
X722192Y350156D01*
X722011Y349808D01*
X721821Y349464D01*
X721624Y349124D01*
X721418Y348790D01*
X721204Y348461D01*
X720981Y348137D01*
X720751Y347819D01*
X720514Y347506D01*
X720268Y347200D01*
X720015Y346899D01*
X719755Y346605D01*
X719488Y346317D01*
X719214Y346036D01*
X718933Y345762D01*
X718645Y345495D01*
X718351Y345235D01*
X718050Y344982D01*
X717744Y344736D01*
X717431Y344499D01*
X717113Y344269D01*
X716789Y344046D01*
X716460Y343832D01*
X716126Y343626D01*
X715786Y343429D01*
X715442Y343239D01*
X715094Y343058D01*
X714741Y342886D01*
X714384Y342723D01*
X714023Y342568D01*
X713658Y342422D01*
X713290Y342285D01*
X712919Y342158D01*
X712545Y342039D01*
X712167Y341930D01*
X711788Y341829D01*
X711406Y341739D01*
X711021Y341657D01*
X710635Y341586D01*
X710248Y341523D01*
X709859Y341470D01*
X709468Y341427D01*
X709077Y341393D01*
X708685Y341369D01*
X708293Y341355D01*
X707900Y341350D01*
X707507Y341355D01*
X707115Y341369D01*
X706723Y341393D01*
X706332Y341427D01*
X705941Y341470D01*
X705552Y341523D01*
X705165Y341586D01*
X704779Y341657D01*
X704394Y341739D01*
X704012Y341829D01*
X703633Y341930D01*
X703255Y342039D01*
X702881Y342158D01*
X702510Y342285D01*
X702142Y342422D01*
X701777Y342568D01*
X701416Y342723D01*
X701059Y342886D01*
X700706Y343058D01*
X700358Y343239D01*
X700014Y343429D01*
X699674Y343626D01*
X699340Y343832D01*
X699011Y344046D01*
X698687Y344269D01*
X698369Y344499D01*
X698056Y344736D01*
X697750Y344982D01*
X697449Y345235D01*
X697155Y345495D01*
X696867Y345762D01*
X696586Y346036D01*
X696312Y346317D01*
X696045Y346605D01*
X695785Y346899D01*
X695532Y347200D01*
X695286Y347506D01*
X695049Y347819D01*
X694819Y348137D01*
X694596Y348461D01*
X694382Y348790D01*
X694176Y349124D01*
X693979Y349464D01*
X693789Y349808D01*
X693608Y350156D01*
X693436Y350509D01*
X693273Y350866D01*
X693118Y351227D01*
X692972Y351592D01*
X692835Y351960D01*
X692708Y352331D01*
X692589Y352705D01*
X692480Y353083D01*
X692379Y353462D01*
X692289Y353844D01*
X692207Y354229D01*
X692136Y354615D01*
X692073Y355002D01*
X692020Y355391D01*
X691977Y355782D01*
X691943Y356173D01*
X691919Y356565D01*
X691905Y356957D01*
X691900Y357350D01*
X931900Y357350D02*
X931905Y357743D01*
X931919Y358135D01*
X931943Y358527D01*
X931977Y358918D01*
X932020Y359309D01*
X932073Y359698D01*
X932136Y360085D01*
X932207Y360471D01*
X932289Y360856D01*
X932379Y361238D01*
X932480Y361617D01*
X932589Y361995D01*
X932708Y362369D01*
X932835Y362740D01*
X932972Y363108D01*
X933118Y363473D01*
X933273Y363834D01*
X933436Y364191D01*
X933608Y364544D01*
X933789Y364892D01*
X933979Y365236D01*
X934176Y365576D01*
X934382Y365910D01*
X934596Y366239D01*
X934819Y366563D01*
X935049Y366881D01*
X935286Y367194D01*
X935532Y367500D01*
X935785Y367801D01*
X936045Y368095D01*
X936312Y368383D01*
X936586Y368664D01*
X936867Y368938D01*
X937155Y369205D01*
X937449Y369465D01*
X937750Y369718D01*
X938056Y369964D01*
X938369Y370201D01*
X938687Y370431D01*
X939011Y370654D01*
X939340Y370868D01*
X939674Y371074D01*
X940014Y371271D01*
X940358Y371461D01*
X940706Y371642D01*
X941059Y371814D01*
X941416Y371977D01*
X941777Y372132D01*
X942142Y372278D01*
X942510Y372415D01*
X942881Y372542D01*
X943255Y372661D01*
X943633Y372770D01*
X944012Y372871D01*
X944394Y372961D01*
X944779Y373043D01*
X945165Y373114D01*
X945552Y373177D01*
X945941Y373230D01*
X946332Y373273D01*
X946723Y373307D01*
X947115Y373331D01*
X947507Y373345D01*
X947900Y373350D01*
X948293Y373345D01*
X948685Y373331D01*
X949077Y373307D01*
X949468Y373273D01*
X949859Y373230D01*
X950248Y373177D01*
X950635Y373114D01*
X951021Y373043D01*
X951406Y372961D01*
X951788Y372871D01*
X952167Y372770D01*
X952545Y372661D01*
X952919Y372542D01*
X953290Y372415D01*
X953658Y372278D01*
X954023Y372132D01*
X954384Y371977D01*
X954741Y371814D01*
X955094Y371642D01*
X955442Y371461D01*
X955786Y371271D01*
X956126Y371074D01*
X956460Y370868D01*
X956789Y370654D01*
X957113Y370431D01*
X957431Y370201D01*
X957744Y369964D01*
X958050Y369718D01*
X958351Y369465D01*
X958645Y369205D01*
X958933Y368938D01*
X959214Y368664D01*
X959488Y368383D01*
X959755Y368095D01*
X960015Y367801D01*
X960268Y367500D01*
X960514Y367194D01*
X960751Y366881D01*
X960981Y366563D01*
X961204Y366239D01*
X961418Y365910D01*
X961624Y365576D01*
X961821Y365236D01*
X962011Y364892D01*
X962192Y364544D01*
X962364Y364191D01*
X962527Y363834D01*
X962682Y363473D01*
X962828Y363108D01*
X962965Y362740D01*
X963092Y362369D01*
X963211Y361995D01*
X963320Y361617D01*
X963421Y361238D01*
X963511Y360856D01*
X963593Y360471D01*
X963664Y360085D01*
X963727Y359698D01*
X963780Y359309D01*
X963823Y358918D01*
X963857Y358527D01*
X963881Y358135D01*
X963895Y357743D01*
X963900Y357350D01*
X963895Y356957D01*
X963881Y356565D01*
X963857Y356173D01*
X963823Y355782D01*
X963780Y355391D01*
X963727Y355002D01*
X963664Y354615D01*
X963593Y354229D01*
X963511Y353844D01*
X963421Y353462D01*
X963320Y353083D01*
X963211Y352705D01*
X963092Y352331D01*
X962965Y351960D01*
X962828Y351592D01*
X962682Y351227D01*
X962527Y350866D01*
X962364Y350509D01*
X962192Y350156D01*
X962011Y349808D01*
X961821Y349464D01*
X961624Y349124D01*
X961418Y348790D01*
X961204Y348461D01*
X960981Y348137D01*
X960751Y347819D01*
X960514Y347506D01*
X960268Y347200D01*
X960015Y346899D01*
X959755Y346605D01*
X959488Y346317D01*
X959214Y346036D01*
X958933Y345762D01*
X958645Y345495D01*
X958351Y345235D01*
X958050Y344982D01*
X957744Y344736D01*
X957431Y344499D01*
X957113Y344269D01*
X956789Y344046D01*
X956460Y343832D01*
X956126Y343626D01*
X955786Y343429D01*
X955442Y343239D01*
X955094Y343058D01*
X954741Y342886D01*
X954384Y342723D01*
X954023Y342568D01*
X953658Y342422D01*
X953290Y342285D01*
X952919Y342158D01*
X952545Y342039D01*
X952167Y341930D01*
X951788Y341829D01*
X951406Y341739D01*
X951021Y341657D01*
X950635Y341586D01*
X950248Y341523D01*
X949859Y341470D01*
X949468Y341427D01*
X949077Y341393D01*
X948685Y341369D01*
X948293Y341355D01*
X947900Y341350D01*
X947507Y341355D01*
X947115Y341369D01*
X946723Y341393D01*
X946332Y341427D01*
X945941Y341470D01*
X945552Y341523D01*
X945165Y341586D01*
X944779Y341657D01*
X944394Y341739D01*
X944012Y341829D01*
X943633Y341930D01*
X943255Y342039D01*
X942881Y342158D01*
X942510Y342285D01*
X942142Y342422D01*
X941777Y342568D01*
X941416Y342723D01*
X941059Y342886D01*
X940706Y343058D01*
X940358Y343239D01*
X940014Y343429D01*
X939674Y343626D01*
X939340Y343832D01*
X939011Y344046D01*
X938687Y344269D01*
X938369Y344499D01*
X938056Y344736D01*
X937750Y344982D01*
X937449Y345235D01*
X937155Y345495D01*
X936867Y345762D01*
X936586Y346036D01*
X936312Y346317D01*
X936045Y346605D01*
X935785Y346899D01*
X935532Y347200D01*
X935286Y347506D01*
X935049Y347819D01*
X934819Y348137D01*
X934596Y348461D01*
X934382Y348790D01*
X934176Y349124D01*
X933979Y349464D01*
X933789Y349808D01*
X933608Y350156D01*
X933436Y350509D01*
X933273Y350866D01*
X933118Y351227D01*
X932972Y351592D01*
X932835Y351960D01*
X932708Y352331D01*
X932589Y352705D01*
X932480Y353083D01*
X932379Y353462D01*
X932289Y353844D01*
X932207Y354229D01*
X932136Y354615D01*
X932073Y355002D01*
X932020Y355391D01*
X931977Y355782D01*
X931943Y356173D01*
X931919Y356565D01*
X931905Y356957D01*
X931900Y357350D01*
X931900Y117350D02*
X931905Y117743D01*
X931919Y118135D01*
X931943Y118527D01*
X931977Y118918D01*
X932020Y119309D01*
X932073Y119698D01*
X932136Y120085D01*
X932207Y120471D01*
X932289Y120856D01*
X932379Y121238D01*
X932480Y121617D01*
X932589Y121995D01*
X932708Y122369D01*
X932835Y122740D01*
X932972Y123108D01*
X933118Y123473D01*
X933273Y123834D01*
X933436Y124191D01*
X933608Y124544D01*
X933789Y124892D01*
X933979Y125236D01*
X934176Y125576D01*
X934382Y125910D01*
X934596Y126239D01*
X934819Y126563D01*
X935049Y126881D01*
X935286Y127194D01*
X935532Y127500D01*
X935785Y127801D01*
X936045Y128095D01*
X936312Y128383D01*
X936586Y128664D01*
X936867Y128938D01*
X937155Y129205D01*
X937449Y129465D01*
X937750Y129718D01*
X938056Y129964D01*
X938369Y130201D01*
X938687Y130431D01*
X939011Y130654D01*
X939340Y130868D01*
X939674Y131074D01*
X940014Y131271D01*
X940358Y131461D01*
X940706Y131642D01*
X941059Y131814D01*
X941416Y131977D01*
X941777Y132132D01*
X942142Y132278D01*
X942510Y132415D01*
X942881Y132542D01*
X943255Y132661D01*
X943633Y132770D01*
X944012Y132871D01*
X944394Y132961D01*
X944779Y133043D01*
X945165Y133114D01*
X945552Y133177D01*
X945941Y133230D01*
X946332Y133273D01*
X946723Y133307D01*
X947115Y133331D01*
X947507Y133345D01*
X947900Y133350D01*
X948293Y133345D01*
X948685Y133331D01*
X949077Y133307D01*
X949468Y133273D01*
X949859Y133230D01*
X950248Y133177D01*
X950635Y133114D01*
X951021Y133043D01*
X951406Y132961D01*
X951788Y132871D01*
X952167Y132770D01*
X952545Y132661D01*
X952919Y132542D01*
X953290Y132415D01*
X953658Y132278D01*
X954023Y132132D01*
X954384Y131977D01*
X954741Y131814D01*
X955094Y131642D01*
X955442Y131461D01*
X955786Y131271D01*
X956126Y131074D01*
X956460Y130868D01*
X956789Y130654D01*
X957113Y130431D01*
X957431Y130201D01*
X957744Y129964D01*
X958050Y129718D01*
X958351Y129465D01*
X958645Y129205D01*
X958933Y128938D01*
X959214Y128664D01*
X959488Y128383D01*
X959755Y128095D01*
X960015Y127801D01*
X960268Y127500D01*
X960514Y127194D01*
X960751Y126881D01*
X960981Y126563D01*
X961204Y126239D01*
X961418Y125910D01*
X961624Y125576D01*
X961821Y125236D01*
X962011Y124892D01*
X962192Y124544D01*
X962364Y124191D01*
X962527Y123834D01*
X962682Y123473D01*
X962828Y123108D01*
X962965Y122740D01*
X963092Y122369D01*
X963211Y121995D01*
X963320Y121617D01*
X963421Y121238D01*
X963511Y120856D01*
X963593Y120471D01*
X963664Y120085D01*
X963727Y119698D01*
X963780Y119309D01*
X963823Y118918D01*
X963857Y118527D01*
X963881Y118135D01*
X963895Y117743D01*
X963900Y117350D01*
X963895Y116957D01*
X963881Y116565D01*
X963857Y116173D01*
X963823Y115782D01*
X963780Y115391D01*
X963727Y115002D01*
X963664Y114615D01*
X963593Y114229D01*
X963511Y113844D01*
X963421Y113462D01*
X963320Y113083D01*
X963211Y112705D01*
X963092Y112331D01*
X962965Y111960D01*
X962828Y111592D01*
X962682Y111227D01*
X962527Y110866D01*
X962364Y110509D01*
X962192Y110156D01*
X962011Y109808D01*
X961821Y109464D01*
X961624Y109124D01*
X961418Y108790D01*
X961204Y108461D01*
X960981Y108137D01*
X960751Y107819D01*
X960514Y107506D01*
X960268Y107200D01*
X960015Y106899D01*
X959755Y106605D01*
X959488Y106317D01*
X959214Y106036D01*
X958933Y105762D01*
X958645Y105495D01*
X958351Y105235D01*
X958050Y104982D01*
X957744Y104736D01*
X957431Y104499D01*
X957113Y104269D01*
X956789Y104046D01*
X956460Y103832D01*
X956126Y103626D01*
X955786Y103429D01*
X955442Y103239D01*
X955094Y103058D01*
X954741Y102886D01*
X954384Y102723D01*
X954023Y102568D01*
X953658Y102422D01*
X953290Y102285D01*
X952919Y102158D01*
X952545Y102039D01*
X952167Y101930D01*
X951788Y101829D01*
X951406Y101739D01*
X951021Y101657D01*
X950635Y101586D01*
X950248Y101523D01*
X949859Y101470D01*
X949468Y101427D01*
X949077Y101393D01*
X948685Y101369D01*
X948293Y101355D01*
X947900Y101350D01*
X947507Y101355D01*
X947115Y101369D01*
X946723Y101393D01*
X946332Y101427D01*
X945941Y101470D01*
X945552Y101523D01*
X945165Y101586D01*
X944779Y101657D01*
X944394Y101739D01*
X944012Y101829D01*
X943633Y101930D01*
X943255Y102039D01*
X942881Y102158D01*
X942510Y102285D01*
X942142Y102422D01*
X941777Y102568D01*
X941416Y102723D01*
X941059Y102886D01*
X940706Y103058D01*
X940358Y103239D01*
X940014Y103429D01*
X939674Y103626D01*
X939340Y103832D01*
X939011Y104046D01*
X938687Y104269D01*
X938369Y104499D01*
X938056Y104736D01*
X937750Y104982D01*
X937449Y105235D01*
X937155Y105495D01*
X936867Y105762D01*
X936586Y106036D01*
X936312Y106317D01*
X936045Y106605D01*
X935785Y106899D01*
X935532Y107200D01*
X935286Y107506D01*
X935049Y107819D01*
X934819Y108137D01*
X934596Y108461D01*
X934382Y108790D01*
X934176Y109124D01*
X933979Y109464D01*
X933789Y109808D01*
X933608Y110156D01*
X933436Y110509D01*
X933273Y110866D01*
X933118Y111227D01*
X932972Y111592D01*
X932835Y111960D01*
X932708Y112331D01*
X932589Y112705D01*
X932480Y113083D01*
X932379Y113462D01*
X932289Y113844D01*
X932207Y114229D01*
X932136Y114615D01*
X932073Y115002D01*
X932020Y115391D01*
X931977Y115782D01*
X931943Y116173D01*
X931919Y116565D01*
X931905Y116957D01*
X931900Y117350D01*
D12*
X834390Y693420D03*
X786130Y693420D03*
D13*
X505100Y223000D03*
X505100Y158000D03*
X460100Y223000D03*
X460100Y158000D03*
X1299700Y635250D03*
X1284500Y660650D03*
X1284500Y761750D03*
X1299700Y736350D03*
D14*
X1364000Y619750D03*
X1364000Y777250D03*
D15*
X1422400Y654050D03*
X1397000Y742950D03*
X1422400Y730250D03*
X1397000Y717550D03*
X1422400Y704850D03*
X1397000Y692150D03*
X1422400Y679450D03*
X1397000Y666750D03*
D10*
X1317500Y641350D02*
X1317505Y641743D01*
X1317519Y642135D01*
X1317543Y642527D01*
X1317577Y642918D01*
X1317620Y643309D01*
X1317673Y643698D01*
X1317736Y644085D01*
X1317807Y644471D01*
X1317889Y644856D01*
X1317979Y645238D01*
X1318080Y645617D01*
X1318189Y645995D01*
X1318308Y646369D01*
X1318435Y646740D01*
X1318572Y647108D01*
X1318718Y647473D01*
X1318873Y647834D01*
X1319036Y648191D01*
X1319208Y648544D01*
X1319389Y648892D01*
X1319579Y649236D01*
X1319776Y649576D01*
X1319982Y649910D01*
X1320196Y650239D01*
X1320419Y650563D01*
X1320649Y650881D01*
X1320886Y651194D01*
X1321132Y651500D01*
X1321385Y651801D01*
X1321645Y652095D01*
X1321912Y652383D01*
X1322186Y652664D01*
X1322467Y652938D01*
X1322755Y653205D01*
X1323049Y653465D01*
X1323350Y653718D01*
X1323656Y653964D01*
X1323969Y654201D01*
X1324287Y654431D01*
X1324611Y654654D01*
X1324940Y654868D01*
X1325274Y655074D01*
X1325614Y655271D01*
X1325958Y655461D01*
X1326306Y655642D01*
X1326659Y655814D01*
X1327016Y655977D01*
X1327377Y656132D01*
X1327742Y656278D01*
X1328110Y656415D01*
X1328481Y656542D01*
X1328855Y656661D01*
X1329233Y656770D01*
X1329612Y656871D01*
X1329994Y656961D01*
X1330379Y657043D01*
X1330765Y657114D01*
X1331152Y657177D01*
X1331541Y657230D01*
X1331932Y657273D01*
X1332323Y657307D01*
X1332715Y657331D01*
X1333107Y657345D01*
X1333500Y657350D01*
X1333893Y657345D01*
X1334285Y657331D01*
X1334677Y657307D01*
X1335068Y657273D01*
X1335459Y657230D01*
X1335848Y657177D01*
X1336235Y657114D01*
X1336621Y657043D01*
X1337006Y656961D01*
X1337388Y656871D01*
X1337767Y656770D01*
X1338145Y656661D01*
X1338519Y656542D01*
X1338890Y656415D01*
X1339258Y656278D01*
X1339623Y656132D01*
X1339984Y655977D01*
X1340341Y655814D01*
X1340694Y655642D01*
X1341042Y655461D01*
X1341386Y655271D01*
X1341726Y655074D01*
X1342060Y654868D01*
X1342389Y654654D01*
X1342713Y654431D01*
X1343031Y654201D01*
X1343344Y653964D01*
X1343650Y653718D01*
X1343951Y653465D01*
X1344245Y653205D01*
X1344533Y652938D01*
X1344814Y652664D01*
X1345088Y652383D01*
X1345355Y652095D01*
X1345615Y651801D01*
X1345868Y651500D01*
X1346114Y651194D01*
X1346351Y650881D01*
X1346581Y650563D01*
X1346804Y650239D01*
X1347018Y649910D01*
X1347224Y649576D01*
X1347421Y649236D01*
X1347611Y648892D01*
X1347792Y648544D01*
X1347964Y648191D01*
X1348127Y647834D01*
X1348282Y647473D01*
X1348428Y647108D01*
X1348565Y646740D01*
X1348692Y646369D01*
X1348811Y645995D01*
X1348920Y645617D01*
X1349021Y645238D01*
X1349111Y644856D01*
X1349193Y644471D01*
X1349264Y644085D01*
X1349327Y643698D01*
X1349380Y643309D01*
X1349423Y642918D01*
X1349457Y642527D01*
X1349481Y642135D01*
X1349495Y641743D01*
X1349500Y641350D01*
X1349495Y640957D01*
X1349481Y640565D01*
X1349457Y640173D01*
X1349423Y639782D01*
X1349380Y639391D01*
X1349327Y639002D01*
X1349264Y638615D01*
X1349193Y638229D01*
X1349111Y637844D01*
X1349021Y637462D01*
X1348920Y637083D01*
X1348811Y636705D01*
X1348692Y636331D01*
X1348565Y635960D01*
X1348428Y635592D01*
X1348282Y635227D01*
X1348127Y634866D01*
X1347964Y634509D01*
X1347792Y634156D01*
X1347611Y633808D01*
X1347421Y633464D01*
X1347224Y633124D01*
X1347018Y632790D01*
X1346804Y632461D01*
X1346581Y632137D01*
X1346351Y631819D01*
X1346114Y631506D01*
X1345868Y631200D01*
X1345615Y630899D01*
X1345355Y630605D01*
X1345088Y630317D01*
X1344814Y630036D01*
X1344533Y629762D01*
X1344245Y629495D01*
X1343951Y629235D01*
X1343650Y628982D01*
X1343344Y628736D01*
X1343031Y628499D01*
X1342713Y628269D01*
X1342389Y628046D01*
X1342060Y627832D01*
X1341726Y627626D01*
X1341386Y627429D01*
X1341042Y627239D01*
X1340694Y627058D01*
X1340341Y626886D01*
X1339984Y626723D01*
X1339623Y626568D01*
X1339258Y626422D01*
X1338890Y626285D01*
X1338519Y626158D01*
X1338145Y626039D01*
X1337767Y625930D01*
X1337388Y625829D01*
X1337006Y625739D01*
X1336621Y625657D01*
X1336235Y625586D01*
X1335848Y625523D01*
X1335459Y625470D01*
X1335068Y625427D01*
X1334677Y625393D01*
X1334285Y625369D01*
X1333893Y625355D01*
X1333500Y625350D01*
X1333107Y625355D01*
X1332715Y625369D01*
X1332323Y625393D01*
X1331932Y625427D01*
X1331541Y625470D01*
X1331152Y625523D01*
X1330765Y625586D01*
X1330379Y625657D01*
X1329994Y625739D01*
X1329612Y625829D01*
X1329233Y625930D01*
X1328855Y626039D01*
X1328481Y626158D01*
X1328110Y626285D01*
X1327742Y626422D01*
X1327377Y626568D01*
X1327016Y626723D01*
X1326659Y626886D01*
X1326306Y627058D01*
X1325958Y627239D01*
X1325614Y627429D01*
X1325274Y627626D01*
X1324940Y627832D01*
X1324611Y628046D01*
X1324287Y628269D01*
X1323969Y628499D01*
X1323656Y628736D01*
X1323350Y628982D01*
X1323049Y629235D01*
X1322755Y629495D01*
X1322467Y629762D01*
X1322186Y630036D01*
X1321912Y630317D01*
X1321645Y630605D01*
X1321385Y630899D01*
X1321132Y631200D01*
X1320886Y631506D01*
X1320649Y631819D01*
X1320419Y632137D01*
X1320196Y632461D01*
X1319982Y632790D01*
X1319776Y633124D01*
X1319579Y633464D01*
X1319389Y633808D01*
X1319208Y634156D01*
X1319036Y634509D01*
X1318873Y634866D01*
X1318718Y635227D01*
X1318572Y635592D01*
X1318435Y635960D01*
X1318308Y636331D01*
X1318189Y636705D01*
X1318080Y637083D01*
X1317979Y637462D01*
X1317889Y637844D01*
X1317807Y638229D01*
X1317736Y638615D01*
X1317673Y639002D01*
X1317620Y639391D01*
X1317577Y639782D01*
X1317543Y640173D01*
X1317519Y640565D01*
X1317505Y640957D01*
X1317500Y641350D01*
D16*
X1333500Y641350D03*
D10*
X1317500Y755650D02*
X1317505Y756043D01*
X1317519Y756435D01*
X1317543Y756827D01*
X1317577Y757218D01*
X1317620Y757609D01*
X1317673Y757998D01*
X1317736Y758385D01*
X1317807Y758771D01*
X1317889Y759156D01*
X1317979Y759538D01*
X1318080Y759917D01*
X1318189Y760295D01*
X1318308Y760669D01*
X1318435Y761040D01*
X1318572Y761408D01*
X1318718Y761773D01*
X1318873Y762134D01*
X1319036Y762491D01*
X1319208Y762844D01*
X1319389Y763192D01*
X1319579Y763536D01*
X1319776Y763876D01*
X1319982Y764210D01*
X1320196Y764539D01*
X1320419Y764863D01*
X1320649Y765181D01*
X1320886Y765494D01*
X1321132Y765800D01*
X1321385Y766101D01*
X1321645Y766395D01*
X1321912Y766683D01*
X1322186Y766964D01*
X1322467Y767238D01*
X1322755Y767505D01*
X1323049Y767765D01*
X1323350Y768018D01*
X1323656Y768264D01*
X1323969Y768501D01*
X1324287Y768731D01*
X1324611Y768954D01*
X1324940Y769168D01*
X1325274Y769374D01*
X1325614Y769571D01*
X1325958Y769761D01*
X1326306Y769942D01*
X1326659Y770114D01*
X1327016Y770277D01*
X1327377Y770432D01*
X1327742Y770578D01*
X1328110Y770715D01*
X1328481Y770842D01*
X1328855Y770961D01*
X1329233Y771070D01*
X1329612Y771171D01*
X1329994Y771261D01*
X1330379Y771343D01*
X1330765Y771414D01*
X1331152Y771477D01*
X1331541Y771530D01*
X1331932Y771573D01*
X1332323Y771607D01*
X1332715Y771631D01*
X1333107Y771645D01*
X1333500Y771650D01*
X1333893Y771645D01*
X1334285Y771631D01*
X1334677Y771607D01*
X1335068Y771573D01*
X1335459Y771530D01*
X1335848Y771477D01*
X1336235Y771414D01*
X1336621Y771343D01*
X1337006Y771261D01*
X1337388Y771171D01*
X1337767Y771070D01*
X1338145Y770961D01*
X1338519Y770842D01*
X1338890Y770715D01*
X1339258Y770578D01*
X1339623Y770432D01*
X1339984Y770277D01*
X1340341Y770114D01*
X1340694Y769942D01*
X1341042Y769761D01*
X1341386Y769571D01*
X1341726Y769374D01*
X1342060Y769168D01*
X1342389Y768954D01*
X1342713Y768731D01*
X1343031Y768501D01*
X1343344Y768264D01*
X1343650Y768018D01*
X1343951Y767765D01*
X1344245Y767505D01*
X1344533Y767238D01*
X1344814Y766964D01*
X1345088Y766683D01*
X1345355Y766395D01*
X1345615Y766101D01*
X1345868Y765800D01*
X1346114Y765494D01*
X1346351Y765181D01*
X1346581Y764863D01*
X1346804Y764539D01*
X1347018Y764210D01*
X1347224Y763876D01*
X1347421Y763536D01*
X1347611Y763192D01*
X1347792Y762844D01*
X1347964Y762491D01*
X1348127Y762134D01*
X1348282Y761773D01*
X1348428Y761408D01*
X1348565Y761040D01*
X1348692Y760669D01*
X1348811Y760295D01*
X1348920Y759917D01*
X1349021Y759538D01*
X1349111Y759156D01*
X1349193Y758771D01*
X1349264Y758385D01*
X1349327Y757998D01*
X1349380Y757609D01*
X1349423Y757218D01*
X1349457Y756827D01*
X1349481Y756435D01*
X1349495Y756043D01*
X1349500Y755650D01*
X1349495Y755257D01*
X1349481Y754865D01*
X1349457Y754473D01*
X1349423Y754082D01*
X1349380Y753691D01*
X1349327Y753302D01*
X1349264Y752915D01*
X1349193Y752529D01*
X1349111Y752144D01*
X1349021Y751762D01*
X1348920Y751383D01*
X1348811Y751005D01*
X1348692Y750631D01*
X1348565Y750260D01*
X1348428Y749892D01*
X1348282Y749527D01*
X1348127Y749166D01*
X1347964Y748809D01*
X1347792Y748456D01*
X1347611Y748108D01*
X1347421Y747764D01*
X1347224Y747424D01*
X1347018Y747090D01*
X1346804Y746761D01*
X1346581Y746437D01*
X1346351Y746119D01*
X1346114Y745806D01*
X1345868Y745500D01*
X1345615Y745199D01*
X1345355Y744905D01*
X1345088Y744617D01*
X1344814Y744336D01*
X1344533Y744062D01*
X1344245Y743795D01*
X1343951Y743535D01*
X1343650Y743282D01*
X1343344Y743036D01*
X1343031Y742799D01*
X1342713Y742569D01*
X1342389Y742346D01*
X1342060Y742132D01*
X1341726Y741926D01*
X1341386Y741729D01*
X1341042Y741539D01*
X1340694Y741358D01*
X1340341Y741186D01*
X1339984Y741023D01*
X1339623Y740868D01*
X1339258Y740722D01*
X1338890Y740585D01*
X1338519Y740458D01*
X1338145Y740339D01*
X1337767Y740230D01*
X1337388Y740129D01*
X1337006Y740039D01*
X1336621Y739957D01*
X1336235Y739886D01*
X1335848Y739823D01*
X1335459Y739770D01*
X1335068Y739727D01*
X1334677Y739693D01*
X1334285Y739669D01*
X1333893Y739655D01*
X1333500Y739650D01*
X1333107Y739655D01*
X1332715Y739669D01*
X1332323Y739693D01*
X1331932Y739727D01*
X1331541Y739770D01*
X1331152Y739823D01*
X1330765Y739886D01*
X1330379Y739957D01*
X1329994Y740039D01*
X1329612Y740129D01*
X1329233Y740230D01*
X1328855Y740339D01*
X1328481Y740458D01*
X1328110Y740585D01*
X1327742Y740722D01*
X1327377Y740868D01*
X1327016Y741023D01*
X1326659Y741186D01*
X1326306Y741358D01*
X1325958Y741539D01*
X1325614Y741729D01*
X1325274Y741926D01*
X1324940Y742132D01*
X1324611Y742346D01*
X1324287Y742569D01*
X1323969Y742799D01*
X1323656Y743036D01*
X1323350Y743282D01*
X1323049Y743535D01*
X1322755Y743795D01*
X1322467Y744062D01*
X1322186Y744336D01*
X1321912Y744617D01*
X1321645Y744905D01*
X1321385Y745199D01*
X1321132Y745500D01*
X1320886Y745806D01*
X1320649Y746119D01*
X1320419Y746437D01*
X1320196Y746761D01*
X1319982Y747090D01*
X1319776Y747424D01*
X1319579Y747764D01*
X1319389Y748108D01*
X1319208Y748456D01*
X1319036Y748809D01*
X1318873Y749166D01*
X1318718Y749527D01*
X1318572Y749892D01*
X1318435Y750260D01*
X1318308Y750631D01*
X1318189Y751005D01*
X1318080Y751383D01*
X1317979Y751762D01*
X1317889Y752144D01*
X1317807Y752529D01*
X1317736Y752915D01*
X1317673Y753302D01*
X1317620Y753691D01*
X1317577Y754082D01*
X1317543Y754473D01*
X1317519Y754865D01*
X1317505Y755257D01*
X1317500Y755650D01*
D16*
X1333500Y755650D03*
D17*
X460780Y50800D03*
D18*
X500380Y50800D03*
X539980Y50800D03*
D17*
X63500Y540500D03*
D18*
X63500Y500900D03*
D17*
X63500Y629400D03*
D18*
X63500Y589800D03*
D17*
X63500Y807200D03*
D18*
X63500Y767600D03*
D17*
X63500Y718300D03*
D18*
X63500Y678700D03*
D19*
X800100Y1092200D03*
X774700Y1092200D03*
X749300Y1092200D03*
X800100Y1155700D03*
X774700Y1155700D03*
X749300Y1155700D03*
X800100Y1219200D03*
X774700Y1219200D03*
X749300Y1219200D03*
X800100Y1282700D03*
X774700Y1282700D03*
X749300Y1282700D03*
X797560Y617220D03*
X822960Y617220D03*
D20*
X190500Y825500D03*
X254000Y1028700D03*
D19*
X444500Y787400D03*
X444500Y812800D03*
X444500Y838200D03*
X444500Y863600D03*
D21*
X628904Y609600D02*
X641096Y609600D01*
X641096Y635000D02*
X628904Y635000D01*
X564896Y635000D02*
X552704Y635000D01*
X552704Y609600D02*
X564896Y609600D01*
X628904Y660400D02*
X641096Y660400D01*
X641096Y685800D02*
X628904Y685800D01*
X564896Y660400D02*
X552704Y660400D01*
X552704Y685800D02*
X564896Y685800D01*
D19*
X774700Y1028700D03*
X800100Y1028700D03*
X368300Y596900D03*
X368300Y622300D03*
X368300Y647700D03*
X368300Y673100D03*
X368300Y698500D03*
X431800Y596900D03*
X431800Y622300D03*
X431800Y647700D03*
X431800Y673100D03*
X431800Y698500D03*
X381000Y787400D03*
X381000Y812800D03*
X381000Y838200D03*
X381000Y863600D03*
X68580Y901700D03*
X93980Y901700D03*
D22*
X203200Y1028700D03*
X177800Y1028700D03*
X152400Y1028700D03*
D19*
X1219200Y901700D03*
X1219200Y927100D03*
X1219200Y952500D03*
X1155700Y901700D03*
X1155700Y927100D03*
X1155700Y952500D03*
X1092200Y901700D03*
X1092200Y927100D03*
X1092200Y952500D03*
X1028700Y901700D03*
X1028700Y927100D03*
X1028700Y952500D03*
X622300Y749300D03*
X622300Y774700D03*
X622300Y800100D03*
X622300Y825500D03*
X622300Y850900D03*
X622300Y876300D03*
D23*
X431800Y995680D02*
X431800Y1010920D01*
X457200Y1010920D02*
X457200Y995680D01*
X482600Y995680D02*
X482600Y1010920D01*
X147320Y1117600D02*
X132080Y1117600D01*
X132080Y1143000D02*
X147320Y1143000D01*
X147320Y1168400D02*
X132080Y1168400D01*
X317500Y1010920D02*
X317500Y995680D01*
X342900Y995680D02*
X342900Y1010920D01*
X368300Y1010920D02*
X368300Y995680D01*
X217170Y1117600D02*
X201930Y1117600D01*
X201930Y1143000D02*
X217170Y1143000D01*
X217170Y1168400D02*
X201930Y1168400D01*
D24*
X393700Y1181100D03*
X317500Y1181100D03*
X609600Y1181100D03*
X533400Y1181100D03*
D13*
X386440Y158000D03*
X386440Y223000D03*
X431440Y158000D03*
X431440Y223000D03*
D25*
X50546Y970534D02*
X30734Y970534D01*
X30734Y1020826D02*
X50546Y1020826D01*
D21*
X317500Y945896D02*
X317500Y933704D01*
X342900Y933704D02*
X342900Y945896D01*
X368300Y945896D02*
X368300Y933704D01*
X566420Y1007364D02*
X566420Y1019556D01*
X591820Y1019556D02*
X591820Y1007364D01*
X617220Y1007364D02*
X617220Y1019556D01*
X431800Y945896D02*
X431800Y933704D01*
X457200Y933704D02*
X457200Y945896D01*
X482600Y945896D02*
X482600Y933704D01*
D26*
X914400Y1080262D03*
X914400Y1180338D03*
D27*
X355600Y1303900D03*
X355600Y1286900D03*
X571500Y1297550D03*
X571500Y1280550D03*
D28*
X444500Y1295400D03*
X444500Y1270000D03*
X444500Y1244600D03*
X660400Y1295400D03*
X660400Y1270000D03*
X660400Y1244600D03*
D19*
X546100Y749300D03*
X546100Y774700D03*
X546100Y800100D03*
X546100Y825500D03*
X546100Y850900D03*
X546100Y876300D03*
X215900Y939800D03*
X190500Y939800D03*
X165100Y939800D03*
D22*
X685800Y942340D03*
X685800Y967740D03*
X685800Y993140D03*
X685800Y1018540D03*
X685800Y1043940D03*
X685800Y1069340D03*
D29*
X419100Y340360D03*
X393700Y340360D03*
X419100Y365760D03*
X393700Y365760D03*
X419100Y391160D03*
X393700Y391160D03*
X419100Y416560D03*
X393700Y416560D03*
X419100Y441960D03*
X393700Y441960D03*
X419100Y467360D03*
X393700Y467360D03*
X419100Y492760D03*
X393700Y492760D03*
D19*
X609600Y965200D03*
X584200Y965200D03*
D30*
X667900Y59200D03*
D31*
X667900Y33800D03*
X693300Y59200D03*
X693300Y33800D03*
X718700Y59200D03*
X718700Y33800D03*
X744100Y59200D03*
X744100Y33800D03*
X769500Y59200D03*
X769500Y33800D03*
X794900Y59200D03*
X794900Y33800D03*
X820300Y59200D03*
X820300Y33800D03*
X845700Y59200D03*
X845700Y33800D03*
X871100Y59200D03*
X871100Y33800D03*
X896500Y59200D03*
X896500Y33800D03*
X921900Y59200D03*
X921900Y33800D03*
X947300Y59200D03*
X947300Y33800D03*
X972700Y59200D03*
X972700Y33800D03*
X998100Y59200D03*
X998100Y33800D03*
X1023500Y59200D03*
X1023500Y33800D03*
X1048900Y59200D03*
X1048900Y33800D03*
X1074300Y59200D03*
X1074300Y33800D03*
X1099700Y59200D03*
X1099700Y33800D03*
X1125100Y59200D03*
X1125100Y33800D03*
X1150500Y59200D03*
X1150500Y33800D03*
D32*
X619200Y536500D03*
X619200Y46500D03*
X1199200Y46500D03*
X1199200Y536500D03*
D10*
X200500Y1279600D02*
X200640Y1279602D01*
X200780Y1279608D01*
X200920Y1279618D01*
X201060Y1279631D01*
X201199Y1279649D01*
X201338Y1279671D01*
X201475Y1279696D01*
X201613Y1279725D01*
X201749Y1279758D01*
X201884Y1279795D01*
X202018Y1279836D01*
X202151Y1279881D01*
X202283Y1279929D01*
X202413Y1279981D01*
X202542Y1280036D01*
X202669Y1280095D01*
X202795Y1280158D01*
X202919Y1280224D01*
X203040Y1280293D01*
X203160Y1280366D01*
X203278Y1280443D01*
X203393Y1280522D01*
X203507Y1280605D01*
X203617Y1280691D01*
X203726Y1280780D01*
X203832Y1280872D01*
X203935Y1280967D01*
X204036Y1281064D01*
X204133Y1281165D01*
X204228Y1281268D01*
X204320Y1281374D01*
X204409Y1281483D01*
X204495Y1281593D01*
X204578Y1281707D01*
X204657Y1281822D01*
X204734Y1281940D01*
X204807Y1282060D01*
X204876Y1282181D01*
X204942Y1282305D01*
X205005Y1282431D01*
X205064Y1282558D01*
X205119Y1282687D01*
X205171Y1282817D01*
X205219Y1282949D01*
X205264Y1283082D01*
X205305Y1283216D01*
X205342Y1283351D01*
X205375Y1283487D01*
X205404Y1283625D01*
X205429Y1283762D01*
X205451Y1283901D01*
X205469Y1284040D01*
X205482Y1284180D01*
X205492Y1284320D01*
X205498Y1284460D01*
X205500Y1284600D01*
X205498Y1284740D01*
X205492Y1284880D01*
X205482Y1285020D01*
X205469Y1285160D01*
X205451Y1285299D01*
X205429Y1285438D01*
X205404Y1285575D01*
X205375Y1285713D01*
X205342Y1285849D01*
X205305Y1285984D01*
X205264Y1286118D01*
X205219Y1286251D01*
X205171Y1286383D01*
X205119Y1286513D01*
X205064Y1286642D01*
X205005Y1286769D01*
X204942Y1286895D01*
X204876Y1287019D01*
X204807Y1287140D01*
X204734Y1287260D01*
X204657Y1287378D01*
X204578Y1287493D01*
X204495Y1287607D01*
X204409Y1287717D01*
X204320Y1287826D01*
X204228Y1287932D01*
X204133Y1288035D01*
X204036Y1288136D01*
X203935Y1288233D01*
X203832Y1288328D01*
X203726Y1288420D01*
X203617Y1288509D01*
X203507Y1288595D01*
X203393Y1288678D01*
X203278Y1288757D01*
X203160Y1288834D01*
X203040Y1288907D01*
X202919Y1288976D01*
X202795Y1289042D01*
X202669Y1289105D01*
X202542Y1289164D01*
X202413Y1289219D01*
X202283Y1289271D01*
X202151Y1289319D01*
X202018Y1289364D01*
X201884Y1289405D01*
X201749Y1289442D01*
X201613Y1289475D01*
X201475Y1289504D01*
X201338Y1289529D01*
X201199Y1289551D01*
X201060Y1289569D01*
X200920Y1289582D01*
X200780Y1289592D01*
X200640Y1289598D01*
X200500Y1289600D01*
X180500Y1289600D02*
X180360Y1289598D01*
X180220Y1289592D01*
X180080Y1289582D01*
X179940Y1289569D01*
X179801Y1289551D01*
X179662Y1289529D01*
X179525Y1289504D01*
X179387Y1289475D01*
X179251Y1289442D01*
X179116Y1289405D01*
X178982Y1289364D01*
X178849Y1289319D01*
X178717Y1289271D01*
X178587Y1289219D01*
X178458Y1289164D01*
X178331Y1289105D01*
X178205Y1289042D01*
X178081Y1288976D01*
X177960Y1288907D01*
X177840Y1288834D01*
X177722Y1288757D01*
X177607Y1288678D01*
X177493Y1288595D01*
X177383Y1288509D01*
X177274Y1288420D01*
X177168Y1288328D01*
X177065Y1288233D01*
X176964Y1288136D01*
X176867Y1288035D01*
X176772Y1287932D01*
X176680Y1287826D01*
X176591Y1287717D01*
X176505Y1287607D01*
X176422Y1287493D01*
X176343Y1287378D01*
X176266Y1287260D01*
X176193Y1287140D01*
X176124Y1287019D01*
X176058Y1286895D01*
X175995Y1286769D01*
X175936Y1286642D01*
X175881Y1286513D01*
X175829Y1286383D01*
X175781Y1286251D01*
X175736Y1286118D01*
X175695Y1285984D01*
X175658Y1285849D01*
X175625Y1285713D01*
X175596Y1285575D01*
X175571Y1285438D01*
X175549Y1285299D01*
X175531Y1285160D01*
X175518Y1285020D01*
X175508Y1284880D01*
X175502Y1284740D01*
X175500Y1284600D01*
X175502Y1284460D01*
X175508Y1284320D01*
X175518Y1284180D01*
X175531Y1284040D01*
X175549Y1283901D01*
X175571Y1283762D01*
X175596Y1283625D01*
X175625Y1283487D01*
X175658Y1283351D01*
X175695Y1283216D01*
X175736Y1283082D01*
X175781Y1282949D01*
X175829Y1282817D01*
X175881Y1282687D01*
X175936Y1282558D01*
X175995Y1282431D01*
X176058Y1282305D01*
X176124Y1282181D01*
X176193Y1282060D01*
X176266Y1281940D01*
X176343Y1281822D01*
X176422Y1281707D01*
X176505Y1281593D01*
X176591Y1281483D01*
X176680Y1281374D01*
X176772Y1281268D01*
X176867Y1281165D01*
X176964Y1281064D01*
X177065Y1280967D01*
X177168Y1280872D01*
X177274Y1280780D01*
X177383Y1280691D01*
X177493Y1280605D01*
X177607Y1280522D01*
X177722Y1280443D01*
X177840Y1280366D01*
X177960Y1280293D01*
X178081Y1280224D01*
X178205Y1280158D01*
X178331Y1280095D01*
X178458Y1280036D01*
X178587Y1279981D01*
X178717Y1279929D01*
X178849Y1279881D01*
X178982Y1279836D01*
X179116Y1279795D01*
X179251Y1279758D01*
X179387Y1279725D01*
X179525Y1279696D01*
X179662Y1279671D01*
X179801Y1279649D01*
X179940Y1279631D01*
X180080Y1279618D01*
X180220Y1279608D01*
X180360Y1279602D01*
X180500Y1279600D01*
X200500Y1279600D01*
X200500Y1289600D02*
X180500Y1289600D01*
X145500Y1237600D02*
X145498Y1237460D01*
X145492Y1237320D01*
X145482Y1237180D01*
X145469Y1237040D01*
X145451Y1236901D01*
X145429Y1236762D01*
X145404Y1236625D01*
X145375Y1236487D01*
X145342Y1236351D01*
X145305Y1236216D01*
X145264Y1236082D01*
X145219Y1235949D01*
X145171Y1235817D01*
X145119Y1235687D01*
X145064Y1235558D01*
X145005Y1235431D01*
X144942Y1235305D01*
X144876Y1235181D01*
X144807Y1235060D01*
X144734Y1234940D01*
X144657Y1234822D01*
X144578Y1234707D01*
X144495Y1234593D01*
X144409Y1234483D01*
X144320Y1234374D01*
X144228Y1234268D01*
X144133Y1234165D01*
X144036Y1234064D01*
X143935Y1233967D01*
X143832Y1233872D01*
X143726Y1233780D01*
X143617Y1233691D01*
X143507Y1233605D01*
X143393Y1233522D01*
X143278Y1233443D01*
X143160Y1233366D01*
X143040Y1233293D01*
X142919Y1233224D01*
X142795Y1233158D01*
X142669Y1233095D01*
X142542Y1233036D01*
X142413Y1232981D01*
X142283Y1232929D01*
X142151Y1232881D01*
X142018Y1232836D01*
X141884Y1232795D01*
X141749Y1232758D01*
X141613Y1232725D01*
X141475Y1232696D01*
X141338Y1232671D01*
X141199Y1232649D01*
X141060Y1232631D01*
X140920Y1232618D01*
X140780Y1232608D01*
X140640Y1232602D01*
X140500Y1232600D01*
X140360Y1232602D01*
X140220Y1232608D01*
X140080Y1232618D01*
X139940Y1232631D01*
X139801Y1232649D01*
X139662Y1232671D01*
X139525Y1232696D01*
X139387Y1232725D01*
X139251Y1232758D01*
X139116Y1232795D01*
X138982Y1232836D01*
X138849Y1232881D01*
X138717Y1232929D01*
X138587Y1232981D01*
X138458Y1233036D01*
X138331Y1233095D01*
X138205Y1233158D01*
X138081Y1233224D01*
X137960Y1233293D01*
X137840Y1233366D01*
X137722Y1233443D01*
X137607Y1233522D01*
X137493Y1233605D01*
X137383Y1233691D01*
X137274Y1233780D01*
X137168Y1233872D01*
X137065Y1233967D01*
X136964Y1234064D01*
X136867Y1234165D01*
X136772Y1234268D01*
X136680Y1234374D01*
X136591Y1234483D01*
X136505Y1234593D01*
X136422Y1234707D01*
X136343Y1234822D01*
X136266Y1234940D01*
X136193Y1235060D01*
X136124Y1235181D01*
X136058Y1235305D01*
X135995Y1235431D01*
X135936Y1235558D01*
X135881Y1235687D01*
X135829Y1235817D01*
X135781Y1235949D01*
X135736Y1236082D01*
X135695Y1236216D01*
X135658Y1236351D01*
X135625Y1236487D01*
X135596Y1236625D01*
X135571Y1236762D01*
X135549Y1236901D01*
X135531Y1237040D01*
X135518Y1237180D01*
X135508Y1237320D01*
X135502Y1237460D01*
X135500Y1237600D01*
X135500Y1260600D02*
X135502Y1260740D01*
X135508Y1260880D01*
X135518Y1261020D01*
X135531Y1261160D01*
X135549Y1261299D01*
X135571Y1261438D01*
X135596Y1261575D01*
X135625Y1261713D01*
X135658Y1261849D01*
X135695Y1261984D01*
X135736Y1262118D01*
X135781Y1262251D01*
X135829Y1262383D01*
X135881Y1262513D01*
X135936Y1262642D01*
X135995Y1262769D01*
X136058Y1262895D01*
X136124Y1263019D01*
X136193Y1263140D01*
X136266Y1263260D01*
X136343Y1263378D01*
X136422Y1263493D01*
X136505Y1263607D01*
X136591Y1263717D01*
X136680Y1263826D01*
X136772Y1263932D01*
X136867Y1264035D01*
X136964Y1264136D01*
X137065Y1264233D01*
X137168Y1264328D01*
X137274Y1264420D01*
X137383Y1264509D01*
X137493Y1264595D01*
X137607Y1264678D01*
X137722Y1264757D01*
X137840Y1264834D01*
X137960Y1264907D01*
X138081Y1264976D01*
X138205Y1265042D01*
X138331Y1265105D01*
X138458Y1265164D01*
X138587Y1265219D01*
X138717Y1265271D01*
X138849Y1265319D01*
X138982Y1265364D01*
X139116Y1265405D01*
X139251Y1265442D01*
X139387Y1265475D01*
X139525Y1265504D01*
X139662Y1265529D01*
X139801Y1265551D01*
X139940Y1265569D01*
X140080Y1265582D01*
X140220Y1265592D01*
X140360Y1265598D01*
X140500Y1265600D01*
X140640Y1265598D01*
X140780Y1265592D01*
X140920Y1265582D01*
X141060Y1265569D01*
X141199Y1265551D01*
X141338Y1265529D01*
X141475Y1265504D01*
X141613Y1265475D01*
X141749Y1265442D01*
X141884Y1265405D01*
X142018Y1265364D01*
X142151Y1265319D01*
X142283Y1265271D01*
X142413Y1265219D01*
X142542Y1265164D01*
X142669Y1265105D01*
X142795Y1265042D01*
X142919Y1264976D01*
X143040Y1264907D01*
X143160Y1264834D01*
X143278Y1264757D01*
X143393Y1264678D01*
X143507Y1264595D01*
X143617Y1264509D01*
X143726Y1264420D01*
X143832Y1264328D01*
X143935Y1264233D01*
X144036Y1264136D01*
X144133Y1264035D01*
X144228Y1263932D01*
X144320Y1263826D01*
X144409Y1263717D01*
X144495Y1263607D01*
X144578Y1263493D01*
X144657Y1263378D01*
X144734Y1263260D01*
X144807Y1263140D01*
X144876Y1263019D01*
X144942Y1262895D01*
X145005Y1262769D01*
X145064Y1262642D01*
X145119Y1262513D01*
X145171Y1262383D01*
X145219Y1262251D01*
X145264Y1262118D01*
X145305Y1261984D01*
X145342Y1261849D01*
X145375Y1261713D01*
X145404Y1261575D01*
X145429Y1261438D01*
X145451Y1261299D01*
X145469Y1261160D01*
X145482Y1261020D01*
X145492Y1260880D01*
X145498Y1260740D01*
X145500Y1260600D01*
X135500Y1260600D02*
X135500Y1237600D01*
X145500Y1237600D02*
X145500Y1260600D01*
X201500Y1219600D02*
X201640Y1219598D01*
X201780Y1219592D01*
X201920Y1219582D01*
X202060Y1219569D01*
X202199Y1219551D01*
X202338Y1219529D01*
X202475Y1219504D01*
X202613Y1219475D01*
X202749Y1219442D01*
X202884Y1219405D01*
X203018Y1219364D01*
X203151Y1219319D01*
X203283Y1219271D01*
X203413Y1219219D01*
X203542Y1219164D01*
X203669Y1219105D01*
X203795Y1219042D01*
X203919Y1218976D01*
X204040Y1218907D01*
X204160Y1218834D01*
X204278Y1218757D01*
X204393Y1218678D01*
X204507Y1218595D01*
X204617Y1218509D01*
X204726Y1218420D01*
X204832Y1218328D01*
X204935Y1218233D01*
X205036Y1218136D01*
X205133Y1218035D01*
X205228Y1217932D01*
X205320Y1217826D01*
X205409Y1217717D01*
X205495Y1217607D01*
X205578Y1217493D01*
X205657Y1217378D01*
X205734Y1217260D01*
X205807Y1217140D01*
X205876Y1217019D01*
X205942Y1216895D01*
X206005Y1216769D01*
X206064Y1216642D01*
X206119Y1216513D01*
X206171Y1216383D01*
X206219Y1216251D01*
X206264Y1216118D01*
X206305Y1215984D01*
X206342Y1215849D01*
X206375Y1215713D01*
X206404Y1215575D01*
X206429Y1215438D01*
X206451Y1215299D01*
X206469Y1215160D01*
X206482Y1215020D01*
X206492Y1214880D01*
X206498Y1214740D01*
X206500Y1214600D01*
X206498Y1214460D01*
X206492Y1214320D01*
X206482Y1214180D01*
X206469Y1214040D01*
X206451Y1213901D01*
X206429Y1213762D01*
X206404Y1213625D01*
X206375Y1213487D01*
X206342Y1213351D01*
X206305Y1213216D01*
X206264Y1213082D01*
X206219Y1212949D01*
X206171Y1212817D01*
X206119Y1212687D01*
X206064Y1212558D01*
X206005Y1212431D01*
X205942Y1212305D01*
X205876Y1212181D01*
X205807Y1212060D01*
X205734Y1211940D01*
X205657Y1211822D01*
X205578Y1211707D01*
X205495Y1211593D01*
X205409Y1211483D01*
X205320Y1211374D01*
X205228Y1211268D01*
X205133Y1211165D01*
X205036Y1211064D01*
X204935Y1210967D01*
X204832Y1210872D01*
X204726Y1210780D01*
X204617Y1210691D01*
X204507Y1210605D01*
X204393Y1210522D01*
X204278Y1210443D01*
X204160Y1210366D01*
X204040Y1210293D01*
X203919Y1210224D01*
X203795Y1210158D01*
X203669Y1210095D01*
X203542Y1210036D01*
X203413Y1209981D01*
X203283Y1209929D01*
X203151Y1209881D01*
X203018Y1209836D01*
X202884Y1209795D01*
X202749Y1209758D01*
X202613Y1209725D01*
X202475Y1209696D01*
X202338Y1209671D01*
X202199Y1209649D01*
X202060Y1209631D01*
X201920Y1209618D01*
X201780Y1209608D01*
X201640Y1209602D01*
X201500Y1209600D01*
X179500Y1209600D02*
X179360Y1209602D01*
X179220Y1209608D01*
X179080Y1209618D01*
X178940Y1209631D01*
X178801Y1209649D01*
X178662Y1209671D01*
X178525Y1209696D01*
X178387Y1209725D01*
X178251Y1209758D01*
X178116Y1209795D01*
X177982Y1209836D01*
X177849Y1209881D01*
X177717Y1209929D01*
X177587Y1209981D01*
X177458Y1210036D01*
X177331Y1210095D01*
X177205Y1210158D01*
X177081Y1210224D01*
X176960Y1210293D01*
X176840Y1210366D01*
X176722Y1210443D01*
X176607Y1210522D01*
X176493Y1210605D01*
X176383Y1210691D01*
X176274Y1210780D01*
X176168Y1210872D01*
X176065Y1210967D01*
X175964Y1211064D01*
X175867Y1211165D01*
X175772Y1211268D01*
X175680Y1211374D01*
X175591Y1211483D01*
X175505Y1211593D01*
X175422Y1211707D01*
X175343Y1211822D01*
X175266Y1211940D01*
X175193Y1212060D01*
X175124Y1212181D01*
X175058Y1212305D01*
X174995Y1212431D01*
X174936Y1212558D01*
X174881Y1212687D01*
X174829Y1212817D01*
X174781Y1212949D01*
X174736Y1213082D01*
X174695Y1213216D01*
X174658Y1213351D01*
X174625Y1213487D01*
X174596Y1213625D01*
X174571Y1213762D01*
X174549Y1213901D01*
X174531Y1214040D01*
X174518Y1214180D01*
X174508Y1214320D01*
X174502Y1214460D01*
X174500Y1214600D01*
X174502Y1214740D01*
X174508Y1214880D01*
X174518Y1215020D01*
X174531Y1215160D01*
X174549Y1215299D01*
X174571Y1215438D01*
X174596Y1215575D01*
X174625Y1215713D01*
X174658Y1215849D01*
X174695Y1215984D01*
X174736Y1216118D01*
X174781Y1216251D01*
X174829Y1216383D01*
X174881Y1216513D01*
X174936Y1216642D01*
X174995Y1216769D01*
X175058Y1216895D01*
X175124Y1217019D01*
X175193Y1217140D01*
X175266Y1217260D01*
X175343Y1217378D01*
X175422Y1217493D01*
X175505Y1217607D01*
X175591Y1217717D01*
X175680Y1217826D01*
X175772Y1217932D01*
X175867Y1218035D01*
X175964Y1218136D01*
X176065Y1218233D01*
X176168Y1218328D01*
X176274Y1218420D01*
X176383Y1218509D01*
X176493Y1218595D01*
X176607Y1218678D01*
X176722Y1218757D01*
X176840Y1218834D01*
X176960Y1218907D01*
X177081Y1218976D01*
X177205Y1219042D01*
X177331Y1219105D01*
X177458Y1219164D01*
X177587Y1219219D01*
X177717Y1219271D01*
X177849Y1219319D01*
X177982Y1219364D01*
X178116Y1219405D01*
X178251Y1219442D01*
X178387Y1219475D01*
X178525Y1219504D01*
X178662Y1219529D01*
X178801Y1219551D01*
X178940Y1219569D01*
X179080Y1219582D01*
X179220Y1219592D01*
X179360Y1219598D01*
X179500Y1219600D01*
X201500Y1219600D01*
X201500Y1209600D02*
X179500Y1209600D01*
D33*
X180500Y1284600D02*
X200500Y1284600D01*
X200500Y1214600D02*
X180500Y1214600D01*
X140500Y1239100D02*
X140500Y1259100D01*
D34*
X1311975Y1018700D02*
X1326225Y1018700D01*
X1326225Y1038700D02*
X1311975Y1038700D01*
X1311975Y993700D02*
X1326225Y993700D01*
X1326225Y1063700D02*
X1311975Y1063700D01*
D35*
X1346200Y963000D03*
X1346200Y1094400D03*
D36*
X1271100Y1329200D03*
X1251100Y1329200D03*
X1231100Y1329200D03*
X1211100Y1329200D03*
X1191100Y1329200D03*
X1171100Y1329200D03*
X1151100Y1329200D03*
X1131100Y1329200D03*
X1111100Y1329200D03*
X1091100Y1329200D03*
X1091100Y1109200D03*
X1111100Y1109200D03*
X1131100Y1109200D03*
X1151100Y1109200D03*
X1171100Y1109200D03*
X1191100Y1109200D03*
X1211100Y1109200D03*
X1231100Y1109200D03*
X1251100Y1109200D03*
X1271100Y1109200D03*
D19*
X679450Y1117600D03*
X679450Y1143000D03*
X679450Y1168400D03*
X1028700Y1018540D03*
X1028700Y1043940D03*
X1028700Y1069340D03*
X1117600Y1018540D03*
X1117600Y1043940D03*
X1117600Y1069340D03*
X1206500Y1018540D03*
X1206500Y1043940D03*
X1206500Y1069340D03*
D23*
X539750Y270510D02*
X524510Y270510D01*
X524510Y245110D02*
X539750Y245110D01*
D37*
X569910Y383540D03*
D38*
X569910Y408940D03*
X569910Y434340D03*
X569910Y459740D03*
X491810Y459740D03*
X491810Y434340D03*
X491810Y408940D03*
X491810Y383540D03*
D39*
X442620Y419100D03*
X461620Y419100D03*
D40*
X45720Y1197060D03*
X45720Y1127060D03*
D29*
X322580Y340360D03*
X297180Y340360D03*
X322580Y365760D03*
X297180Y365760D03*
X322580Y391160D03*
X297180Y391160D03*
X322580Y416560D03*
X297180Y416560D03*
X322580Y441960D03*
X297180Y441960D03*
X322580Y467360D03*
X297180Y467360D03*
X322580Y492760D03*
X297180Y492760D03*
D25*
X259334Y45466D02*
X259334Y25654D01*
X309626Y25654D02*
X309626Y45466D01*
X360934Y45466D02*
X360934Y25654D01*
X411226Y25654D02*
X411226Y45466D01*
X157734Y45466D02*
X157734Y25654D01*
X208026Y25654D02*
X208026Y45466D01*
D17*
X185420Y390120D03*
D18*
X185420Y350520D03*
X185420Y310920D03*
D17*
X185420Y219940D03*
D18*
X185420Y180340D03*
X185420Y140740D03*
D17*
X66040Y390120D03*
D18*
X66040Y350520D03*
X66040Y310920D03*
D17*
X66040Y219940D03*
D18*
X66040Y180340D03*
X66040Y140740D03*
D19*
X538480Y312420D03*
X538480Y337820D03*
D41*
X1397000Y63500D03*
X1397000Y1282700D03*
X63500Y63500D03*
X63500Y1282700D03*
M02*
