G04 EAGLE Gerber X2 export*
%TF.Part,Single*%
%TF.FileFunction,Other,Top Layer*%
%TF.FilePolarity,Positive*%
%TF.GenerationSoftware,Autodesk,EAGLE,9.4.0*%
%TF.CreationDate,2019-06-23T03:23:47Z*%
G75*
%MOMM*%
%FSLAX34Y34*%
%LPD*%
%INTop Layer*%
%AMOC8*
5,1,8,0,0,1.08239X$1,22.5*%
G01*
%ADD10C,0.050000*%
%ADD11R,1.500000X1.300000*%
%ADD12R,1.300000X1.500000*%
%ADD13C,1.219200*%
%ADD14R,1.159000X1.159000*%
%ADD15C,1.159000*%
%ADD16C,1.676400*%
%ADD17P,1.484606X8X292.500000*%
%ADD18P,1.814519X8X202.500000*%
%ADD19P,2.749271X8X112.500000*%
%ADD20R,2.550000X2.550000*%
%ADD21C,2.550000*%
%ADD22C,1.016000*%
%ADD23C,0.654800*%
%ADD24C,0.406400*%
%ADD25C,0.609600*%

G36*
X513356Y5333D02*
X513356Y5333D01*
X513374Y5331D01*
X513556Y5352D01*
X513739Y5371D01*
X513756Y5376D01*
X513773Y5378D01*
X513948Y5435D01*
X514124Y5489D01*
X514139Y5497D01*
X514156Y5503D01*
X514316Y5593D01*
X514478Y5681D01*
X514491Y5692D01*
X514507Y5701D01*
X514646Y5821D01*
X514787Y5938D01*
X514798Y5952D01*
X514812Y5964D01*
X514924Y6109D01*
X515039Y6252D01*
X515047Y6268D01*
X515058Y6282D01*
X515140Y6447D01*
X515225Y6609D01*
X515230Y6626D01*
X515238Y6642D01*
X515285Y6821D01*
X515336Y6996D01*
X515338Y7014D01*
X515342Y7031D01*
X515369Y7362D01*
X515369Y538738D01*
X515367Y538756D01*
X515369Y538774D01*
X515348Y538956D01*
X515329Y539139D01*
X515324Y539156D01*
X515322Y539173D01*
X515265Y539348D01*
X515211Y539524D01*
X515203Y539539D01*
X515197Y539556D01*
X515107Y539716D01*
X515019Y539878D01*
X515008Y539891D01*
X514999Y539907D01*
X514879Y540046D01*
X514762Y540187D01*
X514748Y540198D01*
X514736Y540212D01*
X514591Y540324D01*
X514448Y540439D01*
X514432Y540447D01*
X514418Y540458D01*
X514253Y540540D01*
X514091Y540625D01*
X514074Y540630D01*
X514058Y540638D01*
X513879Y540685D01*
X513704Y540736D01*
X513686Y540738D01*
X513669Y540742D01*
X513338Y540769D01*
X7362Y540769D01*
X7344Y540767D01*
X7326Y540769D01*
X7144Y540748D01*
X6961Y540729D01*
X6944Y540724D01*
X6927Y540722D01*
X6752Y540665D01*
X6576Y540611D01*
X6561Y540603D01*
X6544Y540597D01*
X6384Y540507D01*
X6222Y540419D01*
X6209Y540408D01*
X6193Y540399D01*
X6054Y540279D01*
X5913Y540162D01*
X5902Y540148D01*
X5888Y540136D01*
X5776Y539991D01*
X5661Y539848D01*
X5653Y539832D01*
X5642Y539818D01*
X5560Y539653D01*
X5475Y539491D01*
X5470Y539474D01*
X5462Y539458D01*
X5415Y539279D01*
X5364Y539104D01*
X5362Y539086D01*
X5358Y539069D01*
X5331Y538738D01*
X5331Y7362D01*
X5333Y7344D01*
X5331Y7326D01*
X5352Y7144D01*
X5371Y6961D01*
X5376Y6944D01*
X5378Y6927D01*
X5435Y6752D01*
X5489Y6576D01*
X5497Y6561D01*
X5503Y6544D01*
X5593Y6384D01*
X5681Y6222D01*
X5692Y6209D01*
X5701Y6193D01*
X5821Y6054D01*
X5938Y5913D01*
X5952Y5902D01*
X5964Y5888D01*
X6109Y5776D01*
X6252Y5661D01*
X6268Y5653D01*
X6282Y5642D01*
X6447Y5560D01*
X6609Y5475D01*
X6626Y5470D01*
X6642Y5462D01*
X6821Y5415D01*
X6996Y5364D01*
X7014Y5362D01*
X7031Y5358D01*
X7362Y5331D01*
X513338Y5331D01*
X513356Y5333D01*
G37*
%LPC*%
G36*
X26604Y96011D02*
X26604Y96011D01*
X22963Y97519D01*
X20176Y100306D01*
X18668Y103947D01*
X18668Y124653D01*
X20176Y128294D01*
X21375Y129493D01*
X21392Y129513D01*
X21413Y129531D01*
X21520Y129669D01*
X21630Y129804D01*
X21643Y129828D01*
X21659Y129849D01*
X21737Y130006D01*
X21819Y130160D01*
X21827Y130185D01*
X21839Y130209D01*
X21884Y130379D01*
X21934Y130546D01*
X21936Y130572D01*
X21943Y130598D01*
X21970Y130929D01*
X21970Y160064D01*
X22976Y162491D01*
X25119Y164635D01*
X48659Y188175D01*
X48665Y188182D01*
X48672Y188187D01*
X48792Y188337D01*
X48914Y188486D01*
X48918Y188494D01*
X48924Y188501D01*
X49013Y188672D01*
X49103Y188842D01*
X49105Y188850D01*
X49110Y188858D01*
X49163Y189044D01*
X49218Y189228D01*
X49219Y189237D01*
X49221Y189245D01*
X49237Y189437D01*
X49254Y189629D01*
X49253Y189638D01*
X49254Y189647D01*
X49232Y189836D01*
X49211Y190029D01*
X49208Y190038D01*
X49207Y190046D01*
X49148Y190228D01*
X49089Y190413D01*
X49085Y190421D01*
X49082Y190429D01*
X48987Y190598D01*
X48894Y190765D01*
X48889Y190772D01*
X48884Y190780D01*
X48758Y190926D01*
X48634Y191072D01*
X48627Y191078D01*
X48621Y191085D01*
X48470Y191202D01*
X48318Y191322D01*
X48310Y191326D01*
X48303Y191331D01*
X48131Y191417D01*
X47959Y191504D01*
X47950Y191507D01*
X47942Y191511D01*
X47756Y191561D01*
X47571Y191612D01*
X47562Y191613D01*
X47554Y191615D01*
X47223Y191642D01*
X40978Y191642D01*
X36067Y196553D01*
X36067Y202536D01*
X36065Y202563D01*
X36067Y202590D01*
X36045Y202764D01*
X36027Y202937D01*
X36020Y202963D01*
X36016Y202989D01*
X35960Y203155D01*
X35909Y203322D01*
X35896Y203346D01*
X35888Y203371D01*
X35801Y203522D01*
X35717Y203676D01*
X35700Y203696D01*
X35687Y203720D01*
X35472Y203973D01*
X28722Y210723D01*
X26043Y213402D01*
X26043Y433444D01*
X26041Y433462D01*
X26043Y433480D01*
X26022Y433662D01*
X26003Y433845D01*
X25998Y433862D01*
X25996Y433879D01*
X25939Y434054D01*
X25885Y434230D01*
X25877Y434245D01*
X25871Y434262D01*
X25781Y434422D01*
X25693Y434584D01*
X25682Y434597D01*
X25673Y434613D01*
X25553Y434752D01*
X25436Y434893D01*
X25422Y434904D01*
X25410Y434918D01*
X25265Y435030D01*
X25122Y435145D01*
X25106Y435153D01*
X25092Y435164D01*
X24927Y435246D01*
X24765Y435331D01*
X24748Y435336D01*
X24732Y435344D01*
X24553Y435391D01*
X24378Y435442D01*
X24360Y435444D01*
X24343Y435448D01*
X24012Y435475D01*
X22468Y435475D01*
X21575Y436368D01*
X21575Y452632D01*
X22468Y453525D01*
X36743Y453525D01*
X36833Y453454D01*
X36975Y453338D01*
X36991Y453329D01*
X37005Y453318D01*
X37169Y453235D01*
X37331Y453149D01*
X37348Y453144D01*
X37364Y453136D01*
X37540Y453087D01*
X37717Y453034D01*
X37735Y453033D01*
X37752Y453028D01*
X37935Y453014D01*
X38118Y452998D01*
X38135Y453000D01*
X38153Y452998D01*
X38335Y453021D01*
X38518Y453041D01*
X38535Y453047D01*
X38553Y453049D01*
X38727Y453107D01*
X38902Y453163D01*
X38917Y453171D01*
X38934Y453177D01*
X39094Y453269D01*
X39254Y453357D01*
X39268Y453369D01*
X39283Y453378D01*
X39536Y453593D01*
X39917Y453974D01*
X39934Y453994D01*
X39955Y454012D01*
X40062Y454150D01*
X40172Y454285D01*
X40185Y454309D01*
X40201Y454330D01*
X40273Y454473D01*
X41182Y455383D01*
X50705Y464906D01*
X50722Y464927D01*
X50743Y464944D01*
X50850Y465082D01*
X50960Y465217D01*
X50973Y465241D01*
X50989Y465262D01*
X51067Y465419D01*
X51149Y465573D01*
X51157Y465599D01*
X51169Y465623D01*
X51214Y465792D01*
X51264Y465959D01*
X51266Y465986D01*
X51273Y466012D01*
X51300Y466342D01*
X51300Y478068D01*
X51371Y478158D01*
X51487Y478300D01*
X51496Y478316D01*
X51507Y478330D01*
X51590Y478494D01*
X51676Y478656D01*
X51681Y478673D01*
X51689Y478689D01*
X51738Y478865D01*
X51791Y479042D01*
X51792Y479060D01*
X51797Y479077D01*
X51811Y479260D01*
X51827Y479443D01*
X51825Y479460D01*
X51827Y479478D01*
X51804Y479660D01*
X51784Y479843D01*
X51778Y479860D01*
X51776Y479878D01*
X51718Y480052D01*
X51662Y480227D01*
X51654Y480242D01*
X51648Y480259D01*
X51556Y480419D01*
X51468Y480579D01*
X51456Y480593D01*
X51447Y480608D01*
X51300Y480781D01*
X51300Y495057D01*
X52193Y495950D01*
X54737Y495950D01*
X54755Y495952D01*
X54773Y495950D01*
X54955Y495971D01*
X55138Y495990D01*
X55155Y495995D01*
X55172Y495997D01*
X55347Y496054D01*
X55523Y496108D01*
X55538Y496116D01*
X55555Y496122D01*
X55715Y496212D01*
X55877Y496300D01*
X55890Y496311D01*
X55906Y496320D01*
X56045Y496440D01*
X56186Y496557D01*
X56197Y496571D01*
X56211Y496583D01*
X56323Y496728D01*
X56438Y496871D01*
X56446Y496887D01*
X56457Y496901D01*
X56539Y497066D01*
X56624Y497228D01*
X56629Y497245D01*
X56637Y497261D01*
X56684Y497440D01*
X56735Y497615D01*
X56737Y497633D01*
X56741Y497650D01*
X56768Y497981D01*
X56768Y506230D01*
X56766Y506257D01*
X56768Y506283D01*
X56746Y506457D01*
X56728Y506631D01*
X56721Y506656D01*
X56717Y506683D01*
X56662Y506849D01*
X56610Y507016D01*
X56597Y507039D01*
X56589Y507065D01*
X56502Y507216D01*
X56418Y507370D01*
X56401Y507390D01*
X56388Y507413D01*
X56173Y507666D01*
X50418Y513422D01*
X50418Y521628D01*
X56222Y527432D01*
X64428Y527432D01*
X70232Y521628D01*
X70232Y513422D01*
X64477Y507666D01*
X64460Y507646D01*
X64439Y507628D01*
X64332Y507490D01*
X64222Y507355D01*
X64209Y507331D01*
X64193Y507310D01*
X64115Y507153D01*
X64033Y506999D01*
X64025Y506974D01*
X64013Y506950D01*
X63968Y506780D01*
X63918Y506613D01*
X63916Y506587D01*
X63909Y506561D01*
X63882Y506230D01*
X63882Y497981D01*
X63884Y497963D01*
X63882Y497945D01*
X63903Y497763D01*
X63922Y497580D01*
X63927Y497563D01*
X63929Y497546D01*
X63986Y497371D01*
X64040Y497195D01*
X64048Y497180D01*
X64054Y497163D01*
X64144Y497003D01*
X64232Y496841D01*
X64243Y496828D01*
X64252Y496812D01*
X64372Y496673D01*
X64489Y496532D01*
X64503Y496521D01*
X64515Y496507D01*
X64660Y496395D01*
X64803Y496280D01*
X64819Y496272D01*
X64833Y496261D01*
X64998Y496179D01*
X65160Y496094D01*
X65177Y496089D01*
X65193Y496081D01*
X65372Y496034D01*
X65547Y495983D01*
X65565Y495981D01*
X65582Y495977D01*
X65913Y495950D01*
X68457Y495950D01*
X69350Y495057D01*
X69350Y480782D01*
X69279Y480692D01*
X69163Y480550D01*
X69154Y480534D01*
X69143Y480520D01*
X69060Y480356D01*
X68974Y480194D01*
X68969Y480177D01*
X68961Y480161D01*
X68911Y479984D01*
X68859Y479808D01*
X68858Y479790D01*
X68853Y479773D01*
X68839Y479590D01*
X68823Y479407D01*
X68825Y479389D01*
X68823Y479372D01*
X68846Y479190D01*
X68866Y479007D01*
X68872Y478990D01*
X68874Y478972D01*
X68932Y478799D01*
X68988Y478623D01*
X68996Y478607D01*
X69002Y478591D01*
X69094Y478431D01*
X69182Y478271D01*
X69194Y478257D01*
X69203Y478242D01*
X69350Y478069D01*
X69350Y470152D01*
X69352Y470126D01*
X69350Y470099D01*
X69372Y469925D01*
X69390Y469752D01*
X69397Y469726D01*
X69401Y469699D01*
X69457Y469534D01*
X69508Y469367D01*
X69521Y469343D01*
X69529Y469318D01*
X69616Y469166D01*
X69700Y469013D01*
X69717Y468992D01*
X69730Y468969D01*
X69945Y468716D01*
X83278Y455383D01*
X83525Y455136D01*
X83546Y455119D01*
X83563Y455098D01*
X83701Y454991D01*
X83836Y454881D01*
X83860Y454868D01*
X83881Y454852D01*
X84038Y454774D01*
X84192Y454692D01*
X84218Y454684D01*
X84242Y454672D01*
X84411Y454627D01*
X84578Y454577D01*
X84605Y454575D01*
X84626Y454569D01*
X84626Y445718D01*
X84627Y445700D01*
X84626Y445683D01*
X84647Y445500D01*
X84666Y445318D01*
X84671Y445301D01*
X84673Y445283D01*
X84730Y445108D01*
X84784Y444933D01*
X84792Y444917D01*
X84798Y444900D01*
X84888Y444740D01*
X84975Y444579D01*
X84987Y444565D01*
X84996Y444549D01*
X85041Y444497D01*
X84956Y444392D01*
X84948Y444376D01*
X84937Y444362D01*
X84855Y444197D01*
X84770Y444034D01*
X84765Y444017D01*
X84757Y444001D01*
X84709Y443823D01*
X84659Y443648D01*
X84657Y443630D01*
X84653Y443613D01*
X84626Y443282D01*
X84626Y434459D01*
X81040Y434459D01*
X80394Y434632D01*
X79755Y435001D01*
X79725Y435025D01*
X79590Y435135D01*
X79566Y435148D01*
X79545Y435164D01*
X79388Y435242D01*
X79234Y435324D01*
X79209Y435332D01*
X79185Y435344D01*
X79015Y435389D01*
X78848Y435439D01*
X78822Y435441D01*
X78796Y435448D01*
X78465Y435475D01*
X63743Y435475D01*
X62850Y436368D01*
X62850Y438912D01*
X62848Y438930D01*
X62850Y438948D01*
X62829Y439130D01*
X62810Y439313D01*
X62805Y439330D01*
X62803Y439347D01*
X62746Y439522D01*
X62692Y439698D01*
X62684Y439713D01*
X62678Y439730D01*
X62588Y439890D01*
X62500Y440052D01*
X62489Y440065D01*
X62480Y440081D01*
X62360Y440220D01*
X62243Y440361D01*
X62229Y440372D01*
X62217Y440386D01*
X62072Y440498D01*
X61929Y440613D01*
X61913Y440621D01*
X61899Y440632D01*
X61734Y440714D01*
X61572Y440799D01*
X61555Y440804D01*
X61539Y440812D01*
X61360Y440859D01*
X61185Y440910D01*
X61167Y440912D01*
X61150Y440916D01*
X60819Y440943D01*
X56656Y440943D01*
X56638Y440941D01*
X56620Y440943D01*
X56438Y440922D01*
X56255Y440903D01*
X56238Y440898D01*
X56221Y440896D01*
X56046Y440839D01*
X55870Y440785D01*
X55855Y440777D01*
X55838Y440771D01*
X55678Y440681D01*
X55516Y440593D01*
X55503Y440582D01*
X55487Y440573D01*
X55348Y440453D01*
X55207Y440336D01*
X55196Y440322D01*
X55182Y440310D01*
X55070Y440165D01*
X54955Y440022D01*
X54947Y440006D01*
X54936Y439992D01*
X54854Y439827D01*
X54769Y439665D01*
X54764Y439648D01*
X54756Y439632D01*
X54709Y439453D01*
X54658Y439278D01*
X54656Y439260D01*
X54652Y439243D01*
X54625Y438912D01*
X54625Y436368D01*
X53732Y435475D01*
X39457Y435475D01*
X39367Y435546D01*
X39225Y435662D01*
X39209Y435671D01*
X39195Y435682D01*
X39031Y435765D01*
X38869Y435851D01*
X38852Y435856D01*
X38836Y435864D01*
X38659Y435914D01*
X38483Y435966D01*
X38465Y435967D01*
X38448Y435972D01*
X38265Y435986D01*
X38082Y436002D01*
X38064Y436000D01*
X38047Y436002D01*
X37865Y435979D01*
X37682Y435959D01*
X37665Y435953D01*
X37647Y435951D01*
X37474Y435893D01*
X37298Y435837D01*
X37282Y435829D01*
X37266Y435823D01*
X37106Y435731D01*
X36946Y435643D01*
X36932Y435631D01*
X36917Y435622D01*
X36744Y435475D01*
X35188Y435475D01*
X35170Y435473D01*
X35152Y435475D01*
X34970Y435454D01*
X34787Y435435D01*
X34770Y435430D01*
X34753Y435428D01*
X34578Y435371D01*
X34402Y435317D01*
X34387Y435309D01*
X34370Y435303D01*
X34210Y435213D01*
X34048Y435125D01*
X34035Y435114D01*
X34019Y435105D01*
X33880Y434985D01*
X33739Y434868D01*
X33728Y434854D01*
X33714Y434842D01*
X33602Y434697D01*
X33487Y434554D01*
X33479Y434538D01*
X33468Y434524D01*
X33386Y434359D01*
X33301Y434197D01*
X33296Y434180D01*
X33288Y434164D01*
X33241Y433985D01*
X33190Y433810D01*
X33188Y433792D01*
X33184Y433775D01*
X33157Y433444D01*
X33157Y357891D01*
X33158Y357882D01*
X33157Y357873D01*
X33178Y357681D01*
X33197Y357490D01*
X33199Y357481D01*
X33200Y357472D01*
X33258Y357290D01*
X33315Y357105D01*
X33319Y357097D01*
X33322Y357089D01*
X33415Y356920D01*
X33507Y356751D01*
X33512Y356744D01*
X33517Y356736D01*
X33641Y356589D01*
X33764Y356442D01*
X33771Y356436D01*
X33777Y356429D01*
X33928Y356310D01*
X34078Y356189D01*
X34086Y356185D01*
X34093Y356180D01*
X34266Y356092D01*
X34435Y356004D01*
X34444Y356001D01*
X34452Y355997D01*
X34638Y355945D01*
X34822Y355892D01*
X34831Y355892D01*
X34840Y355889D01*
X35033Y355875D01*
X35224Y355860D01*
X35232Y355861D01*
X35241Y355860D01*
X35434Y355884D01*
X35623Y355907D01*
X35632Y355909D01*
X35641Y355910D01*
X35824Y355972D01*
X36006Y356031D01*
X36014Y356036D01*
X36022Y356039D01*
X36189Y356135D01*
X36357Y356229D01*
X36364Y356235D01*
X36371Y356240D01*
X36624Y356454D01*
X40978Y360808D01*
X47922Y360808D01*
X50126Y358604D01*
X50133Y358599D01*
X50138Y358592D01*
X50288Y358471D01*
X50437Y358349D01*
X50445Y358345D01*
X50452Y358339D01*
X50622Y358251D01*
X50793Y358161D01*
X50802Y358158D01*
X50809Y358154D01*
X50994Y358101D01*
X51179Y358046D01*
X51188Y358045D01*
X51196Y358042D01*
X51387Y358027D01*
X51580Y358009D01*
X51589Y358010D01*
X51598Y358010D01*
X51787Y358032D01*
X51980Y358053D01*
X51989Y358055D01*
X51997Y358057D01*
X52179Y358116D01*
X52364Y358174D01*
X52372Y358179D01*
X52380Y358181D01*
X52549Y358276D01*
X52716Y358369D01*
X52723Y358375D01*
X52731Y358379D01*
X52877Y358505D01*
X53023Y358630D01*
X53029Y358637D01*
X53036Y358642D01*
X53153Y358794D01*
X53273Y358946D01*
X53277Y358954D01*
X53282Y358961D01*
X53368Y359133D01*
X53455Y359304D01*
X53458Y359313D01*
X53462Y359321D01*
X53512Y359507D01*
X53563Y359692D01*
X53564Y359701D01*
X53566Y359710D01*
X53593Y360041D01*
X53593Y376123D01*
X132373Y454903D01*
X132390Y454924D01*
X132411Y454942D01*
X132517Y455079D01*
X132628Y455215D01*
X132641Y455238D01*
X132657Y455260D01*
X132735Y455417D01*
X132817Y455571D01*
X132825Y455596D01*
X132837Y455620D01*
X132882Y455789D01*
X132932Y455956D01*
X132934Y455983D01*
X132941Y456009D01*
X132968Y456340D01*
X132968Y506230D01*
X132966Y506257D01*
X132968Y506283D01*
X132946Y506457D01*
X132928Y506631D01*
X132921Y506656D01*
X132917Y506683D01*
X132862Y506849D01*
X132810Y507016D01*
X132797Y507039D01*
X132789Y507065D01*
X132702Y507216D01*
X132618Y507370D01*
X132601Y507390D01*
X132588Y507413D01*
X132373Y507666D01*
X126618Y513422D01*
X126618Y521628D01*
X132422Y527432D01*
X140628Y527432D01*
X146432Y521628D01*
X146432Y513422D01*
X140677Y507666D01*
X140660Y507646D01*
X140639Y507628D01*
X140532Y507490D01*
X140422Y507355D01*
X140409Y507331D01*
X140393Y507310D01*
X140315Y507153D01*
X140233Y506999D01*
X140225Y506974D01*
X140213Y506950D01*
X140168Y506780D01*
X140118Y506613D01*
X140116Y506587D01*
X140109Y506561D01*
X140082Y506230D01*
X140082Y452552D01*
X61302Y373772D01*
X61285Y373751D01*
X61264Y373733D01*
X61157Y373596D01*
X61047Y373460D01*
X61034Y373437D01*
X61018Y373415D01*
X60940Y373258D01*
X60858Y373104D01*
X60850Y373079D01*
X60838Y373055D01*
X60793Y372885D01*
X60743Y372719D01*
X60741Y372692D01*
X60734Y372666D01*
X60707Y372335D01*
X60707Y361477D01*
X60708Y361469D01*
X60707Y361460D01*
X60728Y361268D01*
X60747Y361077D01*
X60749Y361068D01*
X60750Y361059D01*
X60808Y360877D01*
X60865Y360692D01*
X60869Y360684D01*
X60872Y360675D01*
X60965Y360507D01*
X61057Y360338D01*
X61062Y360331D01*
X61067Y360323D01*
X61192Y360175D01*
X61314Y360029D01*
X61321Y360023D01*
X61327Y360016D01*
X61479Y359896D01*
X61628Y359776D01*
X61636Y359772D01*
X61643Y359767D01*
X61816Y359679D01*
X61985Y359591D01*
X61994Y359588D01*
X62002Y359584D01*
X62188Y359532D01*
X62372Y359479D01*
X62381Y359479D01*
X62390Y359476D01*
X62582Y359462D01*
X62774Y359446D01*
X62782Y359447D01*
X62791Y359447D01*
X62984Y359471D01*
X63173Y359493D01*
X63182Y359496D01*
X63191Y359497D01*
X63374Y359559D01*
X63556Y359618D01*
X63564Y359623D01*
X63572Y359625D01*
X63737Y359720D01*
X63907Y359816D01*
X63914Y359822D01*
X63921Y359826D01*
X64174Y360041D01*
X65957Y361824D01*
X67565Y361824D01*
X67565Y352679D01*
X67566Y352661D01*
X67565Y352644D01*
X67586Y352461D01*
X67588Y352450D01*
X67565Y352171D01*
X67565Y343026D01*
X65957Y343026D01*
X64174Y344809D01*
X64167Y344815D01*
X64162Y344821D01*
X64012Y344942D01*
X63863Y345064D01*
X63855Y345068D01*
X63848Y345074D01*
X63678Y345162D01*
X63507Y345253D01*
X63498Y345255D01*
X63491Y345259D01*
X63306Y345312D01*
X63121Y345367D01*
X63112Y345368D01*
X63104Y345371D01*
X62913Y345386D01*
X62720Y345404D01*
X62711Y345403D01*
X62702Y345404D01*
X62513Y345381D01*
X62320Y345360D01*
X62311Y345358D01*
X62303Y345357D01*
X62121Y345297D01*
X61936Y345239D01*
X61928Y345235D01*
X61920Y345232D01*
X61751Y345137D01*
X61584Y345044D01*
X61577Y345038D01*
X61569Y345034D01*
X61423Y344908D01*
X61277Y344784D01*
X61271Y344777D01*
X61264Y344771D01*
X61147Y344619D01*
X61027Y344468D01*
X61023Y344460D01*
X61018Y344453D01*
X60932Y344280D01*
X60845Y344109D01*
X60842Y344100D01*
X60838Y344092D01*
X60788Y343905D01*
X60737Y343721D01*
X60736Y343712D01*
X60734Y343703D01*
X60707Y343373D01*
X60707Y334641D01*
X60708Y334632D01*
X60707Y334623D01*
X60728Y334431D01*
X60747Y334240D01*
X60749Y334231D01*
X60750Y334222D01*
X60808Y334040D01*
X60865Y333855D01*
X60869Y333847D01*
X60872Y333839D01*
X60966Y333669D01*
X61057Y333501D01*
X61062Y333494D01*
X61067Y333486D01*
X61191Y333339D01*
X61314Y333192D01*
X61321Y333186D01*
X61327Y333179D01*
X61478Y333060D01*
X61628Y332939D01*
X61636Y332935D01*
X61643Y332930D01*
X61816Y332842D01*
X61985Y332754D01*
X61994Y332751D01*
X62002Y332747D01*
X62188Y332695D01*
X62372Y332642D01*
X62381Y332642D01*
X62390Y332639D01*
X62583Y332625D01*
X62774Y332610D01*
X62782Y332611D01*
X62791Y332610D01*
X62984Y332634D01*
X63173Y332657D01*
X63182Y332659D01*
X63191Y332660D01*
X63374Y332722D01*
X63556Y332781D01*
X63564Y332786D01*
X63572Y332789D01*
X63738Y332884D01*
X63907Y332979D01*
X63914Y332985D01*
X63921Y332990D01*
X64174Y333204D01*
X66378Y335408D01*
X72361Y335408D01*
X72388Y335410D01*
X72415Y335408D01*
X72589Y335430D01*
X72762Y335448D01*
X72787Y335455D01*
X72814Y335459D01*
X72980Y335514D01*
X73147Y335566D01*
X73170Y335579D01*
X73196Y335587D01*
X73347Y335674D01*
X73501Y335758D01*
X73521Y335775D01*
X73545Y335788D01*
X73798Y336003D01*
X78398Y340603D01*
X78415Y340624D01*
X78436Y340642D01*
X78543Y340779D01*
X78653Y340915D01*
X78666Y340938D01*
X78682Y340960D01*
X78760Y341117D01*
X78842Y341271D01*
X78850Y341296D01*
X78862Y341320D01*
X78907Y341490D01*
X78957Y341656D01*
X78959Y341683D01*
X78966Y341709D01*
X78993Y342040D01*
X78993Y343373D01*
X78992Y343381D01*
X78993Y343390D01*
X78972Y343582D01*
X78953Y343773D01*
X78951Y343782D01*
X78950Y343791D01*
X78892Y343973D01*
X78835Y344158D01*
X78831Y344166D01*
X78828Y344175D01*
X78735Y344343D01*
X78643Y344512D01*
X78638Y344519D01*
X78633Y344527D01*
X78508Y344675D01*
X78386Y344821D01*
X78379Y344827D01*
X78373Y344834D01*
X78221Y344954D01*
X78072Y345074D01*
X78064Y345078D01*
X78057Y345083D01*
X77884Y345171D01*
X77715Y345259D01*
X77706Y345262D01*
X77698Y345266D01*
X77512Y345318D01*
X77328Y345371D01*
X77319Y345371D01*
X77310Y345374D01*
X77118Y345388D01*
X76926Y345404D01*
X76918Y345403D01*
X76909Y345403D01*
X76716Y345379D01*
X76527Y345357D01*
X76518Y345354D01*
X76509Y345353D01*
X76326Y345291D01*
X76144Y345232D01*
X76136Y345227D01*
X76128Y345225D01*
X75962Y345129D01*
X75793Y345034D01*
X75786Y345028D01*
X75779Y345024D01*
X75526Y344809D01*
X73743Y343026D01*
X72135Y343026D01*
X72135Y352171D01*
X72133Y352189D01*
X72135Y352206D01*
X72114Y352389D01*
X72112Y352400D01*
X72135Y352679D01*
X72135Y361824D01*
X73743Y361824D01*
X75526Y360041D01*
X75533Y360035D01*
X75538Y360029D01*
X75688Y359908D01*
X75837Y359786D01*
X75845Y359782D01*
X75852Y359776D01*
X76022Y359688D01*
X76193Y359597D01*
X76202Y359595D01*
X76209Y359591D01*
X76394Y359538D01*
X76579Y359483D01*
X76588Y359482D01*
X76596Y359479D01*
X76787Y359464D01*
X76980Y359446D01*
X76989Y359447D01*
X76998Y359446D01*
X77187Y359469D01*
X77380Y359490D01*
X77389Y359492D01*
X77397Y359493D01*
X77579Y359553D01*
X77764Y359611D01*
X77772Y359615D01*
X77780Y359618D01*
X77949Y359713D01*
X78116Y359806D01*
X78123Y359812D01*
X78131Y359816D01*
X78277Y359942D01*
X78423Y360066D01*
X78429Y360073D01*
X78436Y360079D01*
X78553Y360231D01*
X78673Y360382D01*
X78677Y360390D01*
X78682Y360397D01*
X78768Y360569D01*
X78855Y360741D01*
X78858Y360750D01*
X78862Y360758D01*
X78912Y360944D01*
X78963Y361129D01*
X78964Y361138D01*
X78966Y361147D01*
X78993Y361477D01*
X78993Y382473D01*
X157773Y461253D01*
X157790Y461274D01*
X157811Y461292D01*
X157918Y461429D01*
X158028Y461565D01*
X158041Y461588D01*
X158057Y461610D01*
X158135Y461767D01*
X158217Y461921D01*
X158225Y461946D01*
X158237Y461970D01*
X158282Y462140D01*
X158332Y462306D01*
X158334Y462333D01*
X158341Y462359D01*
X158368Y462690D01*
X158368Y506230D01*
X158366Y506257D01*
X158368Y506283D01*
X158346Y506457D01*
X158328Y506631D01*
X158321Y506656D01*
X158317Y506683D01*
X158262Y506849D01*
X158210Y507016D01*
X158197Y507039D01*
X158189Y507065D01*
X158102Y507216D01*
X158018Y507370D01*
X158001Y507390D01*
X157988Y507413D01*
X157773Y507666D01*
X152018Y513422D01*
X152018Y521628D01*
X157822Y527432D01*
X166028Y527432D01*
X171832Y521628D01*
X171832Y513422D01*
X166077Y507666D01*
X166060Y507646D01*
X166039Y507628D01*
X165932Y507490D01*
X165822Y507355D01*
X165809Y507331D01*
X165793Y507310D01*
X165715Y507153D01*
X165633Y506999D01*
X165625Y506974D01*
X165613Y506950D01*
X165568Y506780D01*
X165518Y506613D01*
X165516Y506587D01*
X165509Y506561D01*
X165482Y506230D01*
X165482Y458902D01*
X86702Y380122D01*
X86685Y380101D01*
X86664Y380083D01*
X86557Y379946D01*
X86447Y379810D01*
X86434Y379787D01*
X86418Y379765D01*
X86340Y379608D01*
X86258Y379454D01*
X86250Y379429D01*
X86238Y379405D01*
X86193Y379235D01*
X86143Y379069D01*
X86141Y379042D01*
X86134Y379016D01*
X86107Y378685D01*
X86107Y345059D01*
X86109Y345041D01*
X86107Y345023D01*
X86128Y344841D01*
X86147Y344658D01*
X86152Y344641D01*
X86154Y344624D01*
X86211Y344449D01*
X86265Y344273D01*
X86273Y344258D01*
X86279Y344241D01*
X86369Y344081D01*
X86457Y343919D01*
X86468Y343906D01*
X86477Y343890D01*
X86597Y343751D01*
X86714Y343610D01*
X86728Y343599D01*
X86740Y343585D01*
X86885Y343473D01*
X87028Y343358D01*
X87044Y343350D01*
X87058Y343339D01*
X87223Y343257D01*
X87385Y343172D01*
X87402Y343167D01*
X87418Y343159D01*
X87597Y343112D01*
X87772Y343061D01*
X87790Y343059D01*
X87807Y343055D01*
X88138Y343028D01*
X95068Y343028D01*
X95095Y343030D01*
X95122Y343028D01*
X95295Y343050D01*
X95469Y343068D01*
X95494Y343075D01*
X95521Y343079D01*
X95687Y343134D01*
X95854Y343186D01*
X95877Y343199D01*
X95903Y343207D01*
X96054Y343294D01*
X96208Y343378D01*
X96228Y343395D01*
X96252Y343408D01*
X96505Y343623D01*
X110148Y357266D01*
X110165Y357287D01*
X110186Y357305D01*
X110293Y357443D01*
X110403Y357578D01*
X110416Y357602D01*
X110432Y357623D01*
X110510Y357780D01*
X110592Y357934D01*
X110600Y357959D01*
X110612Y357983D01*
X110657Y358153D01*
X110707Y358320D01*
X110709Y358346D01*
X110716Y358372D01*
X110743Y358703D01*
X110743Y376123D01*
X121327Y386707D01*
X122294Y386707D01*
X122312Y386709D01*
X122330Y386707D01*
X122512Y386728D01*
X122695Y386747D01*
X122712Y386752D01*
X122729Y386754D01*
X122904Y386811D01*
X123080Y386865D01*
X123095Y386873D01*
X123112Y386879D01*
X123272Y386969D01*
X123434Y387057D01*
X123447Y387068D01*
X123463Y387077D01*
X123602Y387197D01*
X123743Y387314D01*
X123754Y387328D01*
X123768Y387340D01*
X123880Y387485D01*
X123995Y387628D01*
X124003Y387644D01*
X124014Y387658D01*
X124096Y387823D01*
X124181Y387985D01*
X124186Y388002D01*
X124194Y388018D01*
X124241Y388197D01*
X124292Y388372D01*
X124294Y388390D01*
X124298Y388407D01*
X124325Y388738D01*
X124325Y390282D01*
X125218Y391175D01*
X135503Y391175D01*
X135530Y391177D01*
X135557Y391175D01*
X135731Y391197D01*
X135904Y391215D01*
X135929Y391222D01*
X135956Y391226D01*
X136122Y391281D01*
X136289Y391333D01*
X136312Y391346D01*
X136338Y391354D01*
X136489Y391441D01*
X136643Y391525D01*
X136663Y391542D01*
X136687Y391555D01*
X136940Y391770D01*
X148777Y403607D01*
X176175Y403607D01*
X176184Y403608D01*
X176193Y403607D01*
X176384Y403627D01*
X176576Y403647D01*
X176584Y403649D01*
X176593Y403650D01*
X176776Y403708D01*
X176961Y403765D01*
X176969Y403769D01*
X176977Y403772D01*
X177146Y403865D01*
X177315Y403957D01*
X177322Y403962D01*
X177330Y403967D01*
X177478Y404093D01*
X177624Y404214D01*
X177630Y404221D01*
X177637Y404227D01*
X177756Y404379D01*
X177876Y404528D01*
X177881Y404536D01*
X177886Y404543D01*
X177973Y404715D01*
X178062Y404885D01*
X178064Y404894D01*
X178068Y404902D01*
X178120Y405088D01*
X178173Y405272D01*
X178174Y405281D01*
X178176Y405290D01*
X178190Y405481D01*
X178206Y405674D01*
X178205Y405683D01*
X178206Y405691D01*
X178182Y405881D01*
X178159Y406073D01*
X178156Y406082D01*
X178155Y406091D01*
X178094Y406273D01*
X178034Y406456D01*
X178030Y406464D01*
X178027Y406473D01*
X177931Y406639D01*
X177837Y406807D01*
X177831Y406814D01*
X177826Y406821D01*
X177611Y407074D01*
X177562Y407124D01*
X176763Y408223D01*
X176146Y409435D01*
X175729Y410719D01*
X184150Y410719D01*
X192571Y410719D01*
X192154Y409435D01*
X191537Y408223D01*
X190738Y407124D01*
X190689Y407074D01*
X190683Y407067D01*
X190676Y407062D01*
X190556Y406913D01*
X190433Y406763D01*
X190429Y406755D01*
X190424Y406748D01*
X190335Y406578D01*
X190245Y406407D01*
X190242Y406399D01*
X190238Y406391D01*
X190185Y406206D01*
X190130Y406021D01*
X190129Y406012D01*
X190127Y406004D01*
X190111Y405813D01*
X190094Y405620D01*
X190095Y405611D01*
X190094Y405602D01*
X190116Y405413D01*
X190137Y405220D01*
X190140Y405211D01*
X190141Y405203D01*
X190200Y405020D01*
X190258Y404836D01*
X190263Y404828D01*
X190266Y404820D01*
X190360Y404652D01*
X190453Y404484D01*
X190459Y404477D01*
X190463Y404469D01*
X190589Y404324D01*
X190714Y404177D01*
X190721Y404171D01*
X190727Y404164D01*
X190878Y404047D01*
X191030Y403927D01*
X191038Y403923D01*
X191045Y403918D01*
X191216Y403833D01*
X191388Y403745D01*
X191397Y403742D01*
X191405Y403738D01*
X191591Y403688D01*
X191776Y403637D01*
X191785Y403636D01*
X191794Y403634D01*
X192125Y403607D01*
X198323Y403607D01*
X201001Y400929D01*
X201002Y400928D01*
X204078Y397852D01*
X206757Y395173D01*
X206757Y379527D01*
X192366Y365136D01*
X192349Y365115D01*
X192328Y365097D01*
X192221Y364960D01*
X192111Y364824D01*
X192098Y364801D01*
X192082Y364779D01*
X192004Y364622D01*
X191922Y364468D01*
X191914Y364443D01*
X191902Y364419D01*
X191857Y364249D01*
X191807Y364083D01*
X191805Y364056D01*
X191798Y364030D01*
X191771Y363699D01*
X191771Y360434D01*
X190611Y357633D01*
X188467Y355489D01*
X185666Y354329D01*
X182634Y354329D01*
X179833Y355489D01*
X177689Y357633D01*
X176529Y360434D01*
X176529Y363466D01*
X177689Y366267D01*
X179833Y368411D01*
X182634Y369571D01*
X185899Y369571D01*
X185926Y369573D01*
X185953Y369571D01*
X186127Y369593D01*
X186300Y369611D01*
X186325Y369618D01*
X186352Y369622D01*
X186518Y369677D01*
X186685Y369729D01*
X186708Y369742D01*
X186734Y369750D01*
X186885Y369837D01*
X187039Y369921D01*
X187059Y369938D01*
X187083Y369951D01*
X187336Y370166D01*
X199048Y381878D01*
X199065Y381899D01*
X199086Y381917D01*
X199193Y382054D01*
X199303Y382190D01*
X199316Y382213D01*
X199332Y382235D01*
X199410Y382392D01*
X199492Y382546D01*
X199500Y382571D01*
X199512Y382595D01*
X199557Y382765D01*
X199607Y382931D01*
X199609Y382958D01*
X199616Y382984D01*
X199643Y383315D01*
X199643Y391385D01*
X199641Y391412D01*
X199643Y391439D01*
X199621Y391613D01*
X199603Y391786D01*
X199596Y391812D01*
X199592Y391838D01*
X199537Y392004D01*
X199485Y392171D01*
X199472Y392195D01*
X199464Y392220D01*
X199377Y392371D01*
X199293Y392525D01*
X199276Y392545D01*
X199263Y392569D01*
X199048Y392822D01*
X195972Y395898D01*
X195951Y395915D01*
X195934Y395936D01*
X195796Y396043D01*
X195660Y396153D01*
X195637Y396166D01*
X195615Y396182D01*
X195458Y396260D01*
X195304Y396342D01*
X195279Y396350D01*
X195255Y396362D01*
X195085Y396407D01*
X194919Y396457D01*
X194892Y396459D01*
X194866Y396466D01*
X194535Y396493D01*
X190688Y396493D01*
X190679Y396492D01*
X190670Y396493D01*
X190478Y396472D01*
X190287Y396453D01*
X190279Y396451D01*
X190270Y396450D01*
X190088Y396392D01*
X189902Y396335D01*
X189894Y396331D01*
X189886Y396328D01*
X189718Y396235D01*
X189548Y396143D01*
X189542Y396138D01*
X189534Y396133D01*
X189386Y396008D01*
X189239Y395886D01*
X189234Y395879D01*
X189227Y395873D01*
X189107Y395721D01*
X188987Y395572D01*
X188983Y395564D01*
X188977Y395557D01*
X188890Y395385D01*
X188801Y395215D01*
X188799Y395206D01*
X188795Y395198D01*
X188743Y395012D01*
X188690Y394828D01*
X188689Y394819D01*
X188687Y394810D01*
X188673Y394618D01*
X188657Y394426D01*
X188658Y394418D01*
X188657Y394409D01*
X188682Y394216D01*
X188704Y394027D01*
X188707Y394018D01*
X188708Y394009D01*
X188769Y393826D01*
X188829Y393644D01*
X188833Y393636D01*
X188836Y393628D01*
X188931Y393462D01*
X189027Y393293D01*
X189033Y393286D01*
X189037Y393279D01*
X189252Y393026D01*
X190611Y391667D01*
X191771Y388866D01*
X191771Y385834D01*
X190611Y383033D01*
X188467Y380889D01*
X185666Y379729D01*
X182634Y379729D01*
X179833Y380889D01*
X177524Y383198D01*
X177504Y383215D01*
X177486Y383236D01*
X177348Y383343D01*
X177213Y383453D01*
X177189Y383466D01*
X177168Y383482D01*
X177011Y383560D01*
X176857Y383642D01*
X176832Y383650D01*
X176808Y383662D01*
X176638Y383707D01*
X176471Y383757D01*
X176445Y383759D01*
X176419Y383766D01*
X176088Y383793D01*
X173765Y383793D01*
X173738Y383791D01*
X173711Y383793D01*
X173537Y383771D01*
X173364Y383753D01*
X173339Y383746D01*
X173312Y383742D01*
X173146Y383687D01*
X172979Y383635D01*
X172956Y383622D01*
X172930Y383614D01*
X172779Y383527D01*
X172625Y383443D01*
X172605Y383426D01*
X172581Y383413D01*
X172328Y383198D01*
X172173Y383043D01*
X172156Y383022D01*
X172135Y383004D01*
X172028Y382867D01*
X171918Y382731D01*
X171905Y382708D01*
X171889Y382686D01*
X171811Y382529D01*
X171729Y382375D01*
X171721Y382350D01*
X171709Y382326D01*
X171664Y382156D01*
X171614Y381990D01*
X171612Y381963D01*
X171605Y381937D01*
X171578Y381606D01*
X171578Y364102D01*
X171580Y364075D01*
X171578Y364048D01*
X171600Y363874D01*
X171618Y363701D01*
X171625Y363675D01*
X171629Y363649D01*
X171684Y363483D01*
X171736Y363316D01*
X171749Y363292D01*
X171757Y363267D01*
X171844Y363115D01*
X171928Y362962D01*
X171945Y362941D01*
X171958Y362918D01*
X172173Y362665D01*
X172467Y362371D01*
X172467Y361529D01*
X171871Y360933D01*
X171029Y360933D01*
X165274Y366688D01*
X165253Y366705D01*
X165236Y366726D01*
X165098Y366833D01*
X164962Y366943D01*
X164939Y366956D01*
X164918Y366972D01*
X164761Y367050D01*
X164607Y367132D01*
X164581Y367140D01*
X164557Y367152D01*
X164388Y367197D01*
X164221Y367247D01*
X164194Y367249D01*
X164168Y367256D01*
X163837Y367283D01*
X157255Y367283D01*
X157228Y367281D01*
X157201Y367283D01*
X157027Y367261D01*
X156854Y367243D01*
X156828Y367236D01*
X156802Y367232D01*
X156636Y367176D01*
X156469Y367125D01*
X156445Y367112D01*
X156420Y367104D01*
X156269Y367017D01*
X156115Y366933D01*
X156094Y366916D01*
X156071Y366903D01*
X155818Y366688D01*
X153873Y364743D01*
X144406Y364743D01*
X144388Y364741D01*
X144370Y364743D01*
X144188Y364722D01*
X144005Y364703D01*
X143988Y364698D01*
X143971Y364696D01*
X143796Y364639D01*
X143620Y364585D01*
X143605Y364577D01*
X143588Y364571D01*
X143428Y364481D01*
X143266Y364393D01*
X143253Y364382D01*
X143237Y364373D01*
X143098Y364253D01*
X142957Y364136D01*
X142946Y364122D01*
X142932Y364110D01*
X142820Y363965D01*
X142705Y363822D01*
X142697Y363806D01*
X142686Y363792D01*
X142604Y363627D01*
X142519Y363465D01*
X142514Y363448D01*
X142506Y363432D01*
X142459Y363253D01*
X142408Y363078D01*
X142406Y363060D01*
X142402Y363043D01*
X142375Y362712D01*
X142375Y359018D01*
X141482Y358125D01*
X132222Y358125D01*
X132195Y358123D01*
X132168Y358125D01*
X131994Y358103D01*
X131821Y358085D01*
X131795Y358078D01*
X131769Y358074D01*
X131603Y358019D01*
X131436Y357967D01*
X131412Y357954D01*
X131387Y357946D01*
X131236Y357859D01*
X131082Y357775D01*
X131062Y357758D01*
X131038Y357745D01*
X130785Y357530D01*
X78828Y305573D01*
X78811Y305552D01*
X78790Y305535D01*
X78683Y305397D01*
X78573Y305261D01*
X78560Y305238D01*
X78544Y305216D01*
X78466Y305059D01*
X78384Y304905D01*
X78376Y304880D01*
X78364Y304856D01*
X78319Y304686D01*
X78269Y304520D01*
X78267Y304493D01*
X78260Y304467D01*
X78233Y304136D01*
X78233Y298153D01*
X73997Y293917D01*
X73992Y293910D01*
X73985Y293905D01*
X73864Y293755D01*
X73742Y293606D01*
X73738Y293598D01*
X73732Y293591D01*
X73644Y293420D01*
X73554Y293250D01*
X73551Y293241D01*
X73547Y293234D01*
X73494Y293049D01*
X73439Y292864D01*
X73438Y292855D01*
X73435Y292847D01*
X73420Y292655D01*
X73402Y292463D01*
X73403Y292454D01*
X73403Y292445D01*
X73425Y292256D01*
X73446Y292063D01*
X73448Y292054D01*
X73450Y292046D01*
X73509Y291864D01*
X73567Y291679D01*
X73572Y291671D01*
X73574Y291663D01*
X73669Y291494D01*
X73762Y291327D01*
X73768Y291320D01*
X73772Y291312D01*
X73898Y291166D01*
X74023Y291020D01*
X74030Y291014D01*
X74035Y291007D01*
X74187Y290890D01*
X74339Y290770D01*
X74347Y290766D01*
X74354Y290761D01*
X74526Y290675D01*
X74697Y290588D01*
X74706Y290585D01*
X74714Y290581D01*
X74900Y290531D01*
X75085Y290480D01*
X75094Y290479D01*
X75103Y290477D01*
X75434Y290450D01*
X113128Y290450D01*
X113155Y290452D01*
X113182Y290450D01*
X113356Y290472D01*
X113529Y290490D01*
X113554Y290497D01*
X113581Y290501D01*
X113747Y290556D01*
X113914Y290608D01*
X113937Y290621D01*
X113963Y290629D01*
X114114Y290716D01*
X114268Y290800D01*
X114288Y290817D01*
X114312Y290830D01*
X114565Y291045D01*
X121327Y297807D01*
X141344Y297807D01*
X141362Y297809D01*
X141380Y297807D01*
X141562Y297828D01*
X141745Y297847D01*
X141762Y297852D01*
X141779Y297854D01*
X141954Y297911D01*
X142130Y297965D01*
X142145Y297973D01*
X142162Y297979D01*
X142322Y298069D01*
X142484Y298157D01*
X142497Y298168D01*
X142513Y298177D01*
X142652Y298297D01*
X142793Y298414D01*
X142804Y298428D01*
X142818Y298440D01*
X142929Y298584D01*
X143045Y298728D01*
X143053Y298744D01*
X143064Y298758D01*
X143146Y298923D01*
X143231Y299085D01*
X143236Y299102D01*
X143244Y299118D01*
X143291Y299297D01*
X143342Y299472D01*
X143344Y299490D01*
X143348Y299507D01*
X143375Y299838D01*
X143375Y301382D01*
X144268Y302275D01*
X160532Y302275D01*
X161425Y301382D01*
X161425Y297522D01*
X161427Y297495D01*
X161425Y297468D01*
X161447Y297294D01*
X161465Y297121D01*
X161472Y297095D01*
X161476Y297069D01*
X161532Y296903D01*
X161583Y296736D01*
X161596Y296712D01*
X161604Y296687D01*
X161691Y296536D01*
X161775Y296382D01*
X161792Y296362D01*
X161805Y296338D01*
X162020Y296085D01*
X180315Y277790D01*
X180336Y277773D01*
X180354Y277752D01*
X180491Y277645D01*
X180627Y277535D01*
X180650Y277522D01*
X180672Y277506D01*
X180829Y277428D01*
X180983Y277346D01*
X181008Y277338D01*
X181032Y277326D01*
X181202Y277281D01*
X181368Y277231D01*
X181395Y277229D01*
X181421Y277222D01*
X181752Y277195D01*
X184656Y277195D01*
X187346Y276080D01*
X189405Y274021D01*
X190520Y271331D01*
X190520Y268419D01*
X189405Y265729D01*
X187346Y263670D01*
X186071Y263141D01*
X184656Y262555D01*
X181744Y262555D01*
X179054Y263670D01*
X176995Y265729D01*
X175880Y268419D01*
X175880Y271323D01*
X175878Y271350D01*
X175880Y271377D01*
X175858Y271550D01*
X175840Y271724D01*
X175833Y271749D01*
X175829Y271776D01*
X175774Y271942D01*
X175722Y272109D01*
X175709Y272132D01*
X175701Y272158D01*
X175614Y272309D01*
X175530Y272463D01*
X175513Y272483D01*
X175500Y272507D01*
X175285Y272760D01*
X164892Y283153D01*
X164885Y283158D01*
X164880Y283165D01*
X164730Y283286D01*
X164581Y283408D01*
X164573Y283412D01*
X164566Y283418D01*
X164396Y283506D01*
X164225Y283596D01*
X164216Y283599D01*
X164209Y283603D01*
X164024Y283656D01*
X163839Y283711D01*
X163830Y283712D01*
X163822Y283714D01*
X163630Y283730D01*
X163438Y283748D01*
X163429Y283747D01*
X163420Y283747D01*
X163231Y283725D01*
X163038Y283704D01*
X163029Y283701D01*
X163021Y283700D01*
X162839Y283641D01*
X162654Y283583D01*
X162646Y283578D01*
X162638Y283576D01*
X162469Y283480D01*
X162302Y283388D01*
X162295Y283382D01*
X162287Y283378D01*
X162141Y283252D01*
X161995Y283127D01*
X161989Y283120D01*
X161982Y283115D01*
X161865Y282963D01*
X161745Y282811D01*
X161741Y282803D01*
X161736Y282796D01*
X161650Y282624D01*
X161563Y282453D01*
X161560Y282444D01*
X161556Y282436D01*
X161506Y282249D01*
X161455Y282065D01*
X161454Y282056D01*
X161452Y282047D01*
X161425Y281716D01*
X161425Y270118D01*
X160532Y269225D01*
X157988Y269225D01*
X157970Y269223D01*
X157952Y269225D01*
X157770Y269204D01*
X157587Y269185D01*
X157570Y269180D01*
X157553Y269178D01*
X157378Y269121D01*
X157202Y269067D01*
X157187Y269059D01*
X157170Y269053D01*
X157010Y268963D01*
X156848Y268875D01*
X156835Y268864D01*
X156819Y268855D01*
X156680Y268735D01*
X156539Y268618D01*
X156528Y268604D01*
X156514Y268592D01*
X156402Y268447D01*
X156287Y268304D01*
X156279Y268288D01*
X156268Y268274D01*
X156186Y268109D01*
X156101Y267947D01*
X156096Y267930D01*
X156088Y267914D01*
X156041Y267735D01*
X155990Y267560D01*
X155988Y267542D01*
X155984Y267525D01*
X155957Y267194D01*
X155957Y263031D01*
X155959Y263013D01*
X155957Y262995D01*
X155978Y262813D01*
X155997Y262630D01*
X156002Y262613D01*
X156004Y262596D01*
X156061Y262421D01*
X156115Y262245D01*
X156123Y262230D01*
X156129Y262213D01*
X156219Y262053D01*
X156307Y261891D01*
X156318Y261878D01*
X156327Y261862D01*
X156447Y261723D01*
X156564Y261582D01*
X156578Y261571D01*
X156590Y261557D01*
X156735Y261445D01*
X156878Y261330D01*
X156894Y261322D01*
X156908Y261311D01*
X157073Y261229D01*
X157235Y261144D01*
X157252Y261139D01*
X157268Y261131D01*
X157447Y261084D01*
X157622Y261033D01*
X157640Y261031D01*
X157657Y261027D01*
X157988Y261000D01*
X160532Y261000D01*
X161425Y260107D01*
X161425Y245832D01*
X161354Y245742D01*
X161238Y245600D01*
X161229Y245584D01*
X161218Y245570D01*
X161135Y245406D01*
X161049Y245244D01*
X161044Y245227D01*
X161036Y245211D01*
X160987Y245035D01*
X160934Y244858D01*
X160933Y244840D01*
X160928Y244823D01*
X160914Y244640D01*
X160898Y244457D01*
X160900Y244440D01*
X160898Y244422D01*
X160921Y244240D01*
X160941Y244057D01*
X160947Y244040D01*
X160949Y244022D01*
X161007Y243848D01*
X161063Y243673D01*
X161071Y243658D01*
X161077Y243641D01*
X161169Y243481D01*
X161257Y243321D01*
X161269Y243307D01*
X161278Y243292D01*
X161425Y243119D01*
X161425Y241563D01*
X161427Y241545D01*
X161425Y241527D01*
X161446Y241345D01*
X161465Y241162D01*
X161470Y241145D01*
X161472Y241128D01*
X161529Y240953D01*
X161583Y240777D01*
X161591Y240762D01*
X161597Y240745D01*
X161688Y240584D01*
X161775Y240423D01*
X161786Y240410D01*
X161795Y240394D01*
X161915Y240255D01*
X162032Y240114D01*
X162046Y240103D01*
X162058Y240089D01*
X162203Y239977D01*
X162346Y239862D01*
X162362Y239854D01*
X162376Y239843D01*
X162541Y239761D01*
X162703Y239676D01*
X162720Y239671D01*
X162736Y239663D01*
X162915Y239616D01*
X163090Y239565D01*
X163108Y239563D01*
X163125Y239559D01*
X163456Y239532D01*
X172385Y239532D01*
X172412Y239534D01*
X172439Y239532D01*
X172613Y239554D01*
X172786Y239572D01*
X172811Y239579D01*
X172838Y239583D01*
X173004Y239638D01*
X173171Y239690D01*
X173194Y239703D01*
X173220Y239711D01*
X173371Y239798D01*
X173525Y239882D01*
X173545Y239899D01*
X173569Y239912D01*
X173822Y240127D01*
X175285Y241590D01*
X175302Y241611D01*
X175323Y241629D01*
X175430Y241766D01*
X175540Y241902D01*
X175553Y241925D01*
X175569Y241947D01*
X175647Y242104D01*
X175729Y242258D01*
X175737Y242283D01*
X175749Y242307D01*
X175794Y242477D01*
X175844Y242643D01*
X175846Y242670D01*
X175853Y242696D01*
X175880Y243027D01*
X175880Y245931D01*
X176995Y248621D01*
X179054Y250680D01*
X180477Y251270D01*
X181744Y251795D01*
X184656Y251795D01*
X187346Y250680D01*
X189405Y248621D01*
X190520Y245931D01*
X190520Y243019D01*
X189405Y240329D01*
X187346Y238270D01*
X184656Y237155D01*
X181752Y237155D01*
X181725Y237153D01*
X181698Y237155D01*
X181524Y237133D01*
X181351Y237115D01*
X181326Y237108D01*
X181299Y237104D01*
X181133Y237049D01*
X180966Y236997D01*
X180943Y236984D01*
X180917Y236976D01*
X180766Y236889D01*
X180612Y236805D01*
X180592Y236788D01*
X180568Y236775D01*
X180315Y236560D01*
X176173Y232418D01*
X163456Y232418D01*
X163438Y232416D01*
X163420Y232418D01*
X163238Y232397D01*
X163055Y232378D01*
X163038Y232373D01*
X163021Y232371D01*
X162846Y232314D01*
X162670Y232260D01*
X162655Y232252D01*
X162638Y232246D01*
X162478Y232156D01*
X162316Y232068D01*
X162303Y232057D01*
X162287Y232048D01*
X162148Y231928D01*
X162007Y231811D01*
X161996Y231797D01*
X161982Y231785D01*
X161870Y231640D01*
X161755Y231497D01*
X161747Y231481D01*
X161736Y231467D01*
X161654Y231302D01*
X161569Y231140D01*
X161564Y231123D01*
X161556Y231107D01*
X161509Y230928D01*
X161458Y230753D01*
X161456Y230735D01*
X161452Y230718D01*
X161425Y230387D01*
X161425Y228843D01*
X160532Y227950D01*
X144268Y227950D01*
X143375Y228843D01*
X143375Y230387D01*
X143373Y230405D01*
X143375Y230423D01*
X143354Y230605D01*
X143335Y230788D01*
X143330Y230805D01*
X143328Y230822D01*
X143271Y230997D01*
X143217Y231173D01*
X143209Y231188D01*
X143203Y231205D01*
X143113Y231365D01*
X143025Y231527D01*
X143014Y231540D01*
X143005Y231556D01*
X142885Y231695D01*
X142768Y231836D01*
X142754Y231847D01*
X142742Y231861D01*
X142597Y231973D01*
X142454Y232088D01*
X142438Y232096D01*
X142424Y232107D01*
X142259Y232189D01*
X142097Y232274D01*
X142080Y232279D01*
X142064Y232287D01*
X141885Y232334D01*
X141710Y232385D01*
X141692Y232387D01*
X141675Y232391D01*
X141344Y232418D01*
X108627Y232418D01*
X73798Y267247D01*
X73777Y267264D01*
X73759Y267285D01*
X73622Y267392D01*
X73486Y267502D01*
X73463Y267515D01*
X73441Y267531D01*
X73284Y267609D01*
X73130Y267691D01*
X73105Y267699D01*
X73081Y267711D01*
X72911Y267756D01*
X72745Y267806D01*
X72718Y267808D01*
X72692Y267815D01*
X72361Y267842D01*
X66378Y267842D01*
X61467Y272753D01*
X61467Y279697D01*
X61639Y279869D01*
X61644Y279876D01*
X61651Y279881D01*
X61771Y280030D01*
X61894Y280180D01*
X61898Y280188D01*
X61904Y280195D01*
X61991Y280364D01*
X62082Y280536D01*
X62085Y280545D01*
X62089Y280552D01*
X62141Y280734D01*
X62197Y280922D01*
X62198Y280931D01*
X62201Y280939D01*
X62216Y281130D01*
X62234Y281323D01*
X62233Y281332D01*
X62233Y281341D01*
X62211Y281530D01*
X62190Y281723D01*
X62188Y281732D01*
X62186Y281740D01*
X62127Y281923D01*
X62069Y282107D01*
X62064Y282115D01*
X62062Y282123D01*
X61967Y282292D01*
X61874Y282459D01*
X61868Y282466D01*
X61864Y282474D01*
X61738Y282619D01*
X61613Y282766D01*
X61606Y282772D01*
X61601Y282779D01*
X61449Y282896D01*
X61298Y283016D01*
X61290Y283020D01*
X61282Y283025D01*
X61109Y283112D01*
X60939Y283198D01*
X60930Y283201D01*
X60922Y283205D01*
X60734Y283255D01*
X60551Y283306D01*
X60542Y283307D01*
X60533Y283309D01*
X60202Y283336D01*
X57433Y283336D01*
X57406Y283334D01*
X57379Y283336D01*
X57205Y283314D01*
X57032Y283296D01*
X57007Y283289D01*
X56980Y283285D01*
X56814Y283230D01*
X56647Y283178D01*
X56624Y283165D01*
X56598Y283157D01*
X56447Y283070D01*
X56293Y282986D01*
X56273Y282969D01*
X56249Y282956D01*
X55996Y282741D01*
X53428Y280173D01*
X53411Y280152D01*
X53390Y280134D01*
X53283Y279997D01*
X53173Y279861D01*
X53160Y279838D01*
X53144Y279816D01*
X53066Y279659D01*
X52984Y279505D01*
X52976Y279480D01*
X52964Y279456D01*
X52919Y279286D01*
X52869Y279120D01*
X52867Y279093D01*
X52860Y279067D01*
X52833Y278736D01*
X52833Y272753D01*
X47922Y267842D01*
X40978Y267842D01*
X36624Y272196D01*
X36617Y272201D01*
X36612Y272208D01*
X36462Y272329D01*
X36313Y272451D01*
X36305Y272455D01*
X36298Y272461D01*
X36128Y272549D01*
X35957Y272639D01*
X35948Y272642D01*
X35941Y272646D01*
X35756Y272699D01*
X35571Y272754D01*
X35562Y272755D01*
X35554Y272758D01*
X35362Y272773D01*
X35170Y272791D01*
X35161Y272790D01*
X35152Y272790D01*
X34963Y272768D01*
X34770Y272747D01*
X34761Y272745D01*
X34753Y272743D01*
X34571Y272684D01*
X34386Y272626D01*
X34378Y272621D01*
X34370Y272619D01*
X34201Y272524D01*
X34034Y272431D01*
X34027Y272425D01*
X34019Y272421D01*
X33873Y272295D01*
X33727Y272170D01*
X33721Y272163D01*
X33714Y272158D01*
X33597Y272006D01*
X33477Y271854D01*
X33473Y271846D01*
X33468Y271839D01*
X33382Y271667D01*
X33295Y271496D01*
X33292Y271487D01*
X33288Y271479D01*
X33238Y271293D01*
X33187Y271108D01*
X33186Y271099D01*
X33184Y271090D01*
X33157Y270759D01*
X33157Y256291D01*
X33158Y256282D01*
X33157Y256273D01*
X33178Y256081D01*
X33197Y255890D01*
X33199Y255881D01*
X33200Y255872D01*
X33258Y255690D01*
X33315Y255505D01*
X33319Y255497D01*
X33322Y255489D01*
X33416Y255319D01*
X33507Y255151D01*
X33512Y255144D01*
X33517Y255136D01*
X33642Y254989D01*
X33764Y254842D01*
X33771Y254836D01*
X33777Y254829D01*
X33928Y254710D01*
X34078Y254589D01*
X34086Y254585D01*
X34093Y254580D01*
X34266Y254492D01*
X34435Y254404D01*
X34444Y254401D01*
X34452Y254397D01*
X34638Y254345D01*
X34822Y254292D01*
X34831Y254292D01*
X34840Y254289D01*
X35033Y254275D01*
X35224Y254260D01*
X35232Y254261D01*
X35241Y254260D01*
X35434Y254284D01*
X35623Y254307D01*
X35632Y254309D01*
X35641Y254310D01*
X35824Y254372D01*
X36006Y254431D01*
X36014Y254436D01*
X36022Y254439D01*
X36189Y254535D01*
X36357Y254629D01*
X36364Y254635D01*
X36371Y254640D01*
X36624Y254854D01*
X40978Y259208D01*
X47922Y259208D01*
X52833Y254297D01*
X52833Y247353D01*
X47922Y242442D01*
X40978Y242442D01*
X36624Y246796D01*
X36617Y246801D01*
X36612Y246808D01*
X36462Y246929D01*
X36313Y247051D01*
X36305Y247055D01*
X36298Y247061D01*
X36128Y247149D01*
X35957Y247239D01*
X35948Y247242D01*
X35941Y247246D01*
X35756Y247299D01*
X35571Y247354D01*
X35562Y247355D01*
X35554Y247358D01*
X35362Y247373D01*
X35170Y247391D01*
X35161Y247390D01*
X35152Y247390D01*
X34963Y247368D01*
X34770Y247347D01*
X34761Y247345D01*
X34753Y247343D01*
X34571Y247284D01*
X34386Y247226D01*
X34378Y247221D01*
X34370Y247219D01*
X34201Y247124D01*
X34034Y247031D01*
X34027Y247025D01*
X34019Y247021D01*
X33873Y246895D01*
X33727Y246770D01*
X33721Y246763D01*
X33714Y246758D01*
X33597Y246606D01*
X33477Y246454D01*
X33473Y246446D01*
X33468Y246439D01*
X33382Y246267D01*
X33295Y246096D01*
X33292Y246087D01*
X33288Y246079D01*
X33238Y245893D01*
X33187Y245708D01*
X33186Y245699D01*
X33184Y245690D01*
X33157Y245359D01*
X33157Y230891D01*
X33158Y230882D01*
X33157Y230873D01*
X33178Y230681D01*
X33197Y230490D01*
X33199Y230481D01*
X33200Y230472D01*
X33258Y230290D01*
X33315Y230105D01*
X33319Y230097D01*
X33322Y230089D01*
X33416Y229919D01*
X33507Y229751D01*
X33512Y229744D01*
X33517Y229736D01*
X33642Y229589D01*
X33764Y229442D01*
X33771Y229436D01*
X33777Y229429D01*
X33928Y229310D01*
X34078Y229189D01*
X34086Y229185D01*
X34093Y229180D01*
X34266Y229092D01*
X34435Y229004D01*
X34444Y229001D01*
X34452Y228997D01*
X34638Y228945D01*
X34822Y228892D01*
X34831Y228892D01*
X34840Y228889D01*
X35033Y228875D01*
X35224Y228860D01*
X35232Y228861D01*
X35241Y228860D01*
X35434Y228884D01*
X35623Y228907D01*
X35632Y228909D01*
X35641Y228910D01*
X35824Y228972D01*
X36006Y229031D01*
X36014Y229036D01*
X36022Y229039D01*
X36189Y229135D01*
X36357Y229229D01*
X36364Y229235D01*
X36371Y229240D01*
X36624Y229454D01*
X40978Y233808D01*
X47922Y233808D01*
X52833Y228897D01*
X52833Y221953D01*
X47922Y217042D01*
X40978Y217042D01*
X36624Y221396D01*
X36617Y221401D01*
X36612Y221408D01*
X36462Y221529D01*
X36313Y221651D01*
X36305Y221655D01*
X36298Y221661D01*
X36128Y221749D01*
X35957Y221839D01*
X35948Y221842D01*
X35941Y221846D01*
X35756Y221899D01*
X35571Y221954D01*
X35562Y221955D01*
X35554Y221958D01*
X35362Y221973D01*
X35170Y221991D01*
X35161Y221990D01*
X35152Y221990D01*
X34963Y221968D01*
X34770Y221947D01*
X34761Y221945D01*
X34753Y221943D01*
X34571Y221884D01*
X34386Y221826D01*
X34378Y221821D01*
X34370Y221819D01*
X34201Y221724D01*
X34034Y221631D01*
X34027Y221625D01*
X34019Y221621D01*
X33873Y221495D01*
X33727Y221370D01*
X33721Y221363D01*
X33714Y221358D01*
X33597Y221206D01*
X33477Y221054D01*
X33473Y221046D01*
X33468Y221039D01*
X33382Y220867D01*
X33295Y220696D01*
X33292Y220687D01*
X33288Y220679D01*
X33238Y220493D01*
X33187Y220308D01*
X33186Y220299D01*
X33184Y220290D01*
X33157Y219959D01*
X33157Y217190D01*
X33159Y217163D01*
X33157Y217136D01*
X33179Y216962D01*
X33197Y216789D01*
X33204Y216764D01*
X33208Y216737D01*
X33263Y216571D01*
X33315Y216404D01*
X33328Y216380D01*
X33336Y216355D01*
X33423Y216204D01*
X33507Y216050D01*
X33524Y216030D01*
X33537Y216006D01*
X33752Y215753D01*
X40502Y209003D01*
X40523Y208986D01*
X40540Y208965D01*
X40678Y208858D01*
X40814Y208748D01*
X40837Y208735D01*
X40859Y208719D01*
X41015Y208641D01*
X41169Y208559D01*
X41195Y208551D01*
X41219Y208539D01*
X41388Y208494D01*
X41555Y208444D01*
X41582Y208442D01*
X41608Y208435D01*
X41939Y208408D01*
X47922Y208408D01*
X52833Y203497D01*
X52833Y197252D01*
X52834Y197243D01*
X52833Y197234D01*
X52854Y197042D01*
X52873Y196851D01*
X52875Y196843D01*
X52876Y196834D01*
X52934Y196652D01*
X52991Y196467D01*
X52995Y196459D01*
X52998Y196450D01*
X53091Y196282D01*
X53183Y196113D01*
X53188Y196106D01*
X53193Y196098D01*
X53317Y195951D01*
X53440Y195803D01*
X53447Y195798D01*
X53453Y195791D01*
X53604Y195672D01*
X53754Y195551D01*
X53762Y195547D01*
X53769Y195541D01*
X53942Y195453D01*
X54111Y195365D01*
X54120Y195363D01*
X54128Y195359D01*
X54314Y195307D01*
X54498Y195254D01*
X54507Y195253D01*
X54516Y195251D01*
X54709Y195237D01*
X54900Y195221D01*
X54908Y195222D01*
X54917Y195222D01*
X55110Y195246D01*
X55299Y195268D01*
X55308Y195271D01*
X55317Y195272D01*
X55500Y195333D01*
X55682Y195393D01*
X55690Y195397D01*
X55698Y195400D01*
X55865Y195496D01*
X56033Y195591D01*
X56040Y195597D01*
X56047Y195601D01*
X56300Y195816D01*
X60872Y200388D01*
X60889Y200409D01*
X60910Y200426D01*
X61016Y200564D01*
X61127Y200699D01*
X61140Y200723D01*
X61156Y200744D01*
X61234Y200900D01*
X61316Y201055D01*
X61324Y201081D01*
X61336Y201105D01*
X61381Y201273D01*
X61431Y201441D01*
X61433Y201468D01*
X61440Y201493D01*
X61467Y201824D01*
X61467Y203497D01*
X66378Y208408D01*
X73322Y208408D01*
X78233Y203497D01*
X78233Y196553D01*
X73322Y191642D01*
X71649Y191642D01*
X71623Y191640D01*
X71596Y191642D01*
X71422Y191620D01*
X71249Y191602D01*
X71223Y191595D01*
X71196Y191591D01*
X71031Y191536D01*
X70864Y191484D01*
X70840Y191471D01*
X70815Y191463D01*
X70663Y191376D01*
X70510Y191292D01*
X70489Y191275D01*
X70466Y191262D01*
X70213Y191047D01*
X35775Y156609D01*
X35758Y156588D01*
X35737Y156571D01*
X35630Y156433D01*
X35520Y156298D01*
X35507Y156274D01*
X35491Y156253D01*
X35413Y156096D01*
X35331Y155942D01*
X35323Y155916D01*
X35311Y155892D01*
X35266Y155723D01*
X35216Y155556D01*
X35214Y155529D01*
X35207Y155504D01*
X35180Y155173D01*
X35180Y130929D01*
X35182Y130902D01*
X35180Y130876D01*
X35202Y130702D01*
X35220Y130528D01*
X35227Y130503D01*
X35231Y130476D01*
X35286Y130310D01*
X35338Y130143D01*
X35351Y130120D01*
X35359Y130094D01*
X35446Y129943D01*
X35530Y129789D01*
X35547Y129769D01*
X35560Y129746D01*
X35775Y129493D01*
X36974Y128294D01*
X38482Y124653D01*
X38482Y103947D01*
X36974Y100306D01*
X34187Y97519D01*
X30546Y96011D01*
X26604Y96011D01*
G37*
%LPD*%
%LPC*%
G36*
X30822Y25018D02*
X30822Y25018D01*
X25018Y30822D01*
X25018Y39028D01*
X30822Y44832D01*
X38960Y44832D01*
X38987Y44834D01*
X39014Y44832D01*
X39188Y44854D01*
X39361Y44872D01*
X39386Y44879D01*
X39413Y44883D01*
X39579Y44938D01*
X39746Y44990D01*
X39769Y45003D01*
X39795Y45011D01*
X39946Y45098D01*
X40100Y45182D01*
X40120Y45199D01*
X40144Y45212D01*
X40397Y45427D01*
X81077Y86107D01*
X156435Y86107D01*
X156462Y86109D01*
X156489Y86107D01*
X156663Y86129D01*
X156836Y86147D01*
X156861Y86154D01*
X156888Y86158D01*
X157054Y86213D01*
X157221Y86265D01*
X157244Y86278D01*
X157270Y86286D01*
X157421Y86373D01*
X157575Y86457D01*
X157595Y86474D01*
X157619Y86487D01*
X157872Y86702D01*
X211748Y140578D01*
X211765Y140599D01*
X211786Y140617D01*
X211893Y140754D01*
X212003Y140890D01*
X212016Y140913D01*
X212032Y140935D01*
X212110Y141092D01*
X212192Y141246D01*
X212200Y141271D01*
X212212Y141295D01*
X212257Y141464D01*
X212307Y141631D01*
X212309Y141658D01*
X212316Y141684D01*
X212343Y142015D01*
X212343Y198099D01*
X212342Y198108D01*
X212343Y198117D01*
X212322Y198310D01*
X212303Y198500D01*
X212301Y198508D01*
X212300Y198517D01*
X212242Y198701D01*
X212185Y198884D01*
X212181Y198892D01*
X212178Y198901D01*
X212086Y199068D01*
X211993Y199238D01*
X211988Y199245D01*
X211983Y199253D01*
X211859Y199400D01*
X211736Y199548D01*
X211729Y199553D01*
X211723Y199560D01*
X211571Y199680D01*
X211422Y199800D01*
X211414Y199804D01*
X211407Y199810D01*
X211234Y199898D01*
X211065Y199986D01*
X211056Y199988D01*
X211048Y199992D01*
X210862Y200044D01*
X210678Y200097D01*
X210669Y200098D01*
X210660Y200100D01*
X210467Y200114D01*
X210276Y200130D01*
X210268Y200129D01*
X210259Y200129D01*
X210066Y200105D01*
X209877Y200083D01*
X209868Y200080D01*
X209859Y200079D01*
X209676Y200018D01*
X209494Y199958D01*
X209486Y199954D01*
X209478Y199951D01*
X209311Y199855D01*
X209143Y199760D01*
X209136Y199754D01*
X209129Y199750D01*
X208876Y199535D01*
X200306Y190965D01*
X162491Y153151D01*
X160064Y152145D01*
X114702Y152145D01*
X114676Y152143D01*
X114649Y152145D01*
X114475Y152123D01*
X114302Y152105D01*
X114276Y152098D01*
X114249Y152094D01*
X114084Y152039D01*
X113917Y151987D01*
X113893Y151974D01*
X113868Y151966D01*
X113716Y151879D01*
X113563Y151795D01*
X113542Y151778D01*
X113519Y151765D01*
X113266Y151550D01*
X77177Y115461D01*
X77160Y115440D01*
X77139Y115423D01*
X77032Y115285D01*
X76922Y115150D01*
X76909Y115126D01*
X76893Y115105D01*
X76815Y114948D01*
X76733Y114794D01*
X76725Y114768D01*
X76713Y114744D01*
X76668Y114575D01*
X76618Y114408D01*
X76616Y114381D01*
X76609Y114356D01*
X76582Y114025D01*
X76582Y103947D01*
X75074Y100306D01*
X72287Y97519D01*
X68646Y96011D01*
X64704Y96011D01*
X61063Y97519D01*
X58276Y100306D01*
X56768Y103947D01*
X56768Y124653D01*
X58276Y128294D01*
X61063Y131081D01*
X64704Y132589D01*
X68646Y132589D01*
X72326Y131064D01*
X72347Y131058D01*
X72367Y131048D01*
X72539Y131000D01*
X72711Y130948D01*
X72733Y130946D01*
X72755Y130940D01*
X72934Y130927D01*
X73112Y130910D01*
X73134Y130912D01*
X73156Y130910D01*
X73335Y130933D01*
X73512Y130951D01*
X73533Y130958D01*
X73556Y130961D01*
X73726Y131018D01*
X73897Y131071D01*
X73916Y131082D01*
X73937Y131089D01*
X74093Y131179D01*
X74250Y131265D01*
X74267Y131279D01*
X74286Y131290D01*
X74539Y131505D01*
X107384Y164349D01*
X109811Y165355D01*
X155173Y165355D01*
X155199Y165357D01*
X155226Y165355D01*
X155400Y165377D01*
X155573Y165395D01*
X155599Y165402D01*
X155626Y165406D01*
X155791Y165461D01*
X155958Y165513D01*
X155982Y165526D01*
X156007Y165534D01*
X156159Y165621D01*
X156312Y165705D01*
X156333Y165722D01*
X156356Y165735D01*
X156609Y165950D01*
X200064Y209405D01*
X200081Y209426D01*
X200102Y209443D01*
X200209Y209581D01*
X200319Y209716D01*
X200332Y209740D01*
X200348Y209761D01*
X200426Y209918D01*
X200508Y210072D01*
X200516Y210098D01*
X200528Y210122D01*
X200573Y210290D01*
X200623Y210458D01*
X200625Y210485D01*
X200632Y210510D01*
X200659Y210841D01*
X200659Y348278D01*
X201665Y350705D01*
X215050Y364091D01*
X215067Y364112D01*
X215088Y364129D01*
X215195Y364267D01*
X215305Y364402D01*
X215318Y364426D01*
X215334Y364447D01*
X215412Y364604D01*
X215494Y364758D01*
X215502Y364784D01*
X215514Y364808D01*
X215559Y364977D01*
X215609Y365144D01*
X215611Y365171D01*
X215618Y365196D01*
X215645Y365527D01*
X215645Y434573D01*
X215643Y434599D01*
X215645Y434626D01*
X215623Y434800D01*
X215605Y434974D01*
X215598Y434999D01*
X215594Y435026D01*
X215539Y435191D01*
X215487Y435358D01*
X215474Y435382D01*
X215466Y435407D01*
X215379Y435559D01*
X215295Y435712D01*
X215278Y435733D01*
X215265Y435756D01*
X215050Y436009D01*
X209269Y441790D01*
X207126Y443934D01*
X206120Y446361D01*
X206120Y509278D01*
X206118Y509305D01*
X206120Y509331D01*
X206098Y509505D01*
X206080Y509679D01*
X206073Y509704D01*
X206069Y509731D01*
X206013Y509897D01*
X205962Y510064D01*
X205949Y510087D01*
X205941Y510113D01*
X205854Y510264D01*
X205770Y510418D01*
X205753Y510438D01*
X205740Y510461D01*
X205525Y510714D01*
X202818Y513422D01*
X202818Y521628D01*
X208622Y527432D01*
X216828Y527432D01*
X222632Y521628D01*
X222632Y513422D01*
X219925Y510714D01*
X219908Y510694D01*
X219887Y510676D01*
X219780Y510538D01*
X219670Y510403D01*
X219657Y510379D01*
X219641Y510358D01*
X219563Y510202D01*
X219481Y510047D01*
X219473Y510022D01*
X219461Y509998D01*
X219416Y509829D01*
X219366Y509661D01*
X219364Y509635D01*
X219357Y509609D01*
X219330Y509278D01*
X219330Y451252D01*
X219332Y451226D01*
X219330Y451199D01*
X219352Y451025D01*
X219370Y450851D01*
X219377Y450826D01*
X219381Y450799D01*
X219436Y450634D01*
X219488Y450467D01*
X219501Y450443D01*
X219509Y450418D01*
X219596Y450266D01*
X219680Y450113D01*
X219697Y450092D01*
X219710Y450069D01*
X219925Y449816D01*
X225706Y444035D01*
X227849Y441891D01*
X228855Y439464D01*
X228855Y360636D01*
X227849Y358209D01*
X214464Y344823D01*
X214447Y344802D01*
X214426Y344785D01*
X214319Y344647D01*
X214209Y344512D01*
X214196Y344488D01*
X214180Y344467D01*
X214102Y344310D01*
X214020Y344156D01*
X214012Y344130D01*
X214000Y344106D01*
X213955Y343937D01*
X213905Y343770D01*
X213903Y343743D01*
X213896Y343718D01*
X213869Y343387D01*
X213869Y312703D01*
X213870Y312694D01*
X213869Y312685D01*
X213890Y312491D01*
X213909Y312302D01*
X213911Y312294D01*
X213912Y312285D01*
X213971Y312100D01*
X214027Y311917D01*
X214031Y311909D01*
X214034Y311901D01*
X214127Y311732D01*
X214219Y311563D01*
X214224Y311556D01*
X214229Y311548D01*
X214353Y311401D01*
X214476Y311254D01*
X214483Y311248D01*
X214489Y311241D01*
X214641Y311122D01*
X214790Y311001D01*
X214798Y310997D01*
X214805Y310992D01*
X214978Y310904D01*
X215147Y310816D01*
X215156Y310813D01*
X215164Y310809D01*
X215350Y310757D01*
X215534Y310705D01*
X215543Y310704D01*
X215552Y310701D01*
X215745Y310687D01*
X215936Y310672D01*
X215944Y310673D01*
X215953Y310672D01*
X216146Y310696D01*
X216335Y310719D01*
X216344Y310721D01*
X216353Y310722D01*
X216535Y310784D01*
X216718Y310843D01*
X216726Y310848D01*
X216734Y310851D01*
X216901Y310947D01*
X217069Y311041D01*
X217076Y311047D01*
X217083Y311052D01*
X217336Y311266D01*
X246177Y340107D01*
X252288Y340107D01*
X252315Y340109D01*
X252341Y340107D01*
X252515Y340129D01*
X252689Y340147D01*
X252714Y340154D01*
X252741Y340158D01*
X252906Y340213D01*
X253074Y340265D01*
X253097Y340278D01*
X253122Y340286D01*
X253274Y340373D01*
X253428Y340457D01*
X253448Y340474D01*
X253471Y340487D01*
X253724Y340702D01*
X256033Y343011D01*
X258834Y344171D01*
X261866Y344171D01*
X264667Y343011D01*
X266811Y340867D01*
X267971Y338066D01*
X267971Y335034D01*
X266811Y332233D01*
X264667Y330089D01*
X261866Y328929D01*
X258834Y328929D01*
X256033Y330089D01*
X253724Y332398D01*
X253704Y332415D01*
X253686Y332436D01*
X253548Y332543D01*
X253413Y332653D01*
X253389Y332666D01*
X253368Y332682D01*
X253211Y332760D01*
X253057Y332842D01*
X253032Y332850D01*
X253008Y332862D01*
X252838Y332907D01*
X252671Y332957D01*
X252645Y332959D01*
X252619Y332966D01*
X252288Y332993D01*
X249965Y332993D01*
X249938Y332991D01*
X249911Y332993D01*
X249737Y332971D01*
X249564Y332953D01*
X249539Y332946D01*
X249512Y332942D01*
X249346Y332887D01*
X249179Y332835D01*
X249155Y332822D01*
X249130Y332814D01*
X248979Y332727D01*
X248825Y332643D01*
X248805Y332626D01*
X248781Y332613D01*
X248528Y332398D01*
X240654Y324524D01*
X240649Y324517D01*
X240642Y324512D01*
X240521Y324362D01*
X240399Y324213D01*
X240395Y324205D01*
X240389Y324198D01*
X240301Y324028D01*
X240211Y323857D01*
X240208Y323848D01*
X240204Y323841D01*
X240151Y323656D01*
X240096Y323471D01*
X240095Y323462D01*
X240093Y323454D01*
X240077Y323262D01*
X240059Y323070D01*
X240060Y323061D01*
X240060Y323052D01*
X240082Y322863D01*
X240103Y322670D01*
X240106Y322661D01*
X240107Y322653D01*
X240166Y322471D01*
X240224Y322286D01*
X240229Y322278D01*
X240231Y322270D01*
X240326Y322101D01*
X240419Y321934D01*
X240425Y321927D01*
X240429Y321919D01*
X240555Y321773D01*
X240680Y321627D01*
X240687Y321621D01*
X240692Y321614D01*
X240844Y321497D01*
X240996Y321377D01*
X241004Y321373D01*
X241011Y321368D01*
X241183Y321282D01*
X241354Y321195D01*
X241363Y321192D01*
X241371Y321188D01*
X241558Y321138D01*
X241742Y321087D01*
X241751Y321086D01*
X241760Y321084D01*
X242091Y321057D01*
X277085Y321057D01*
X277112Y321059D01*
X277139Y321057D01*
X277313Y321079D01*
X277486Y321097D01*
X277511Y321104D01*
X277538Y321108D01*
X277704Y321163D01*
X277871Y321215D01*
X277894Y321228D01*
X277920Y321236D01*
X278071Y321323D01*
X278225Y321407D01*
X278245Y321424D01*
X278269Y321437D01*
X278522Y321652D01*
X287948Y331078D01*
X287965Y331099D01*
X287986Y331116D01*
X288093Y331254D01*
X288203Y331390D01*
X288216Y331413D01*
X288232Y331435D01*
X288310Y331591D01*
X288392Y331745D01*
X288400Y331771D01*
X288412Y331795D01*
X288457Y331964D01*
X288507Y332131D01*
X288509Y332158D01*
X288516Y332184D01*
X288543Y332515D01*
X288543Y391385D01*
X288541Y391412D01*
X288543Y391439D01*
X288521Y391613D01*
X288503Y391786D01*
X288496Y391812D01*
X288492Y391838D01*
X288436Y392004D01*
X288385Y392171D01*
X288372Y392195D01*
X288364Y392220D01*
X288277Y392371D01*
X288193Y392525D01*
X288176Y392545D01*
X288163Y392569D01*
X287948Y392822D01*
X272172Y408598D01*
X272151Y408615D01*
X272133Y408636D01*
X271996Y408743D01*
X271860Y408853D01*
X271837Y408866D01*
X271815Y408882D01*
X271658Y408960D01*
X271504Y409042D01*
X271479Y409050D01*
X271455Y409062D01*
X271285Y409107D01*
X271119Y409157D01*
X271092Y409159D01*
X271066Y409166D01*
X270735Y409193D01*
X268412Y409193D01*
X268385Y409191D01*
X268359Y409193D01*
X268185Y409171D01*
X268011Y409153D01*
X267986Y409146D01*
X267959Y409142D01*
X267794Y409087D01*
X267626Y409035D01*
X267603Y409022D01*
X267578Y409014D01*
X267426Y408927D01*
X267272Y408843D01*
X267252Y408826D01*
X267229Y408813D01*
X266976Y408598D01*
X264667Y406289D01*
X261866Y405129D01*
X258834Y405129D01*
X256033Y406289D01*
X253889Y408433D01*
X252729Y411234D01*
X252729Y414266D01*
X253889Y417067D01*
X256033Y419211D01*
X258834Y420371D01*
X261866Y420371D01*
X264667Y419211D01*
X266976Y416902D01*
X266996Y416885D01*
X267014Y416864D01*
X267152Y416757D01*
X267287Y416647D01*
X267311Y416634D01*
X267332Y416618D01*
X267489Y416540D01*
X267643Y416458D01*
X267668Y416450D01*
X267692Y416438D01*
X267862Y416393D01*
X268029Y416343D01*
X268055Y416341D01*
X268081Y416334D01*
X268412Y416307D01*
X274523Y416307D01*
X277202Y413628D01*
X292978Y397852D01*
X295657Y395173D01*
X295657Y328727D01*
X292979Y326049D01*
X292978Y326048D01*
X280873Y313943D01*
X238817Y313943D01*
X238791Y313941D01*
X238764Y313943D01*
X238590Y313921D01*
X238417Y313903D01*
X238391Y313896D01*
X238365Y313892D01*
X238199Y313837D01*
X238032Y313785D01*
X238008Y313772D01*
X237983Y313764D01*
X237831Y313677D01*
X237678Y313593D01*
X237657Y313576D01*
X237634Y313563D01*
X237381Y313348D01*
X226402Y302369D01*
X226385Y302348D01*
X226364Y302331D01*
X226257Y302193D01*
X226147Y302057D01*
X226134Y302034D01*
X226118Y302013D01*
X226040Y301856D01*
X225958Y301702D01*
X225950Y301676D01*
X225938Y301652D01*
X225893Y301483D01*
X225843Y301316D01*
X225841Y301289D01*
X225834Y301263D01*
X225807Y300933D01*
X225807Y298609D01*
X225809Y298583D01*
X225807Y298556D01*
X225829Y298382D01*
X225847Y298209D01*
X225854Y298183D01*
X225858Y298157D01*
X225913Y297991D01*
X225965Y297824D01*
X225978Y297800D01*
X225986Y297775D01*
X226073Y297623D01*
X226157Y297470D01*
X226174Y297449D01*
X226187Y297426D01*
X226402Y297173D01*
X232431Y291144D01*
X232452Y291127D01*
X232469Y291106D01*
X232607Y290999D01*
X232743Y290889D01*
X232766Y290876D01*
X232787Y290860D01*
X232944Y290782D01*
X233098Y290700D01*
X233124Y290692D01*
X233148Y290680D01*
X233317Y290635D01*
X233484Y290585D01*
X233511Y290583D01*
X233537Y290576D01*
X233867Y290549D01*
X235905Y290549D01*
X237668Y289818D01*
X239018Y288468D01*
X239749Y286705D01*
X239749Y284795D01*
X239005Y283001D01*
X238957Y282939D01*
X238847Y282804D01*
X238834Y282780D01*
X238818Y282759D01*
X238740Y282602D01*
X238658Y282448D01*
X238650Y282423D01*
X238638Y282398D01*
X238593Y282229D01*
X238543Y282062D01*
X238541Y282036D01*
X238534Y282010D01*
X238507Y281679D01*
X238507Y138227D01*
X166573Y66293D01*
X122965Y66293D01*
X122938Y66291D01*
X122911Y66293D01*
X122737Y66271D01*
X122564Y66253D01*
X122539Y66246D01*
X122512Y66242D01*
X122346Y66187D01*
X122179Y66135D01*
X122156Y66122D01*
X122130Y66114D01*
X121979Y66027D01*
X121825Y65943D01*
X121805Y65926D01*
X121781Y65913D01*
X121528Y65698D01*
X96227Y40397D01*
X96210Y40376D01*
X96189Y40358D01*
X96082Y40221D01*
X95972Y40085D01*
X95959Y40062D01*
X95943Y40040D01*
X95865Y39883D01*
X95783Y39729D01*
X95775Y39704D01*
X95763Y39680D01*
X95718Y39510D01*
X95668Y39344D01*
X95666Y39317D01*
X95659Y39291D01*
X95632Y38960D01*
X95632Y30822D01*
X89828Y25018D01*
X81492Y25018D01*
X81449Y25039D01*
X81295Y25121D01*
X81270Y25129D01*
X81246Y25141D01*
X81076Y25186D01*
X80909Y25236D01*
X80883Y25238D01*
X80857Y25245D01*
X80526Y25272D01*
X65524Y25272D01*
X65497Y25270D01*
X65471Y25272D01*
X65297Y25250D01*
X65123Y25232D01*
X65098Y25225D01*
X65071Y25221D01*
X64905Y25166D01*
X64738Y25114D01*
X64715Y25101D01*
X64689Y25093D01*
X64560Y25018D01*
X56092Y25018D01*
X56049Y25039D01*
X55895Y25121D01*
X55870Y25129D01*
X55846Y25141D01*
X55676Y25186D01*
X55509Y25236D01*
X55483Y25238D01*
X55457Y25245D01*
X55126Y25272D01*
X40124Y25272D01*
X40097Y25270D01*
X40071Y25272D01*
X39897Y25250D01*
X39723Y25232D01*
X39698Y25225D01*
X39671Y25221D01*
X39505Y25166D01*
X39338Y25114D01*
X39315Y25101D01*
X39289Y25093D01*
X39160Y25018D01*
X30822Y25018D01*
G37*
%LPD*%
%LPC*%
G36*
X454084Y15493D02*
X454084Y15493D01*
X444900Y24677D01*
X444879Y24694D01*
X444862Y24715D01*
X444724Y24822D01*
X444588Y24932D01*
X444565Y24945D01*
X444543Y24961D01*
X444387Y25039D01*
X444233Y25121D01*
X444207Y25129D01*
X444183Y25141D01*
X444014Y25186D01*
X443847Y25236D01*
X443820Y25238D01*
X443794Y25245D01*
X443463Y25272D01*
X436364Y25272D01*
X436337Y25270D01*
X436311Y25272D01*
X436137Y25250D01*
X435963Y25232D01*
X435938Y25225D01*
X435911Y25221D01*
X435745Y25166D01*
X435578Y25114D01*
X435555Y25101D01*
X435529Y25093D01*
X435400Y25018D01*
X427062Y25018D01*
X421258Y30822D01*
X421258Y39028D01*
X427623Y45394D01*
X427640Y45414D01*
X427661Y45432D01*
X427768Y45570D01*
X427878Y45705D01*
X427891Y45729D01*
X427907Y45750D01*
X427985Y45907D01*
X428067Y46061D01*
X428075Y46086D01*
X428087Y46110D01*
X428132Y46280D01*
X428182Y46447D01*
X428184Y46473D01*
X428191Y46499D01*
X428218Y46830D01*
X428218Y58794D01*
X428216Y58812D01*
X428218Y58830D01*
X428197Y59012D01*
X428178Y59195D01*
X428173Y59212D01*
X428171Y59229D01*
X428114Y59404D01*
X428060Y59580D01*
X428052Y59595D01*
X428046Y59612D01*
X427956Y59772D01*
X427868Y59934D01*
X427857Y59947D01*
X427848Y59963D01*
X427728Y60102D01*
X427611Y60243D01*
X427597Y60254D01*
X427585Y60268D01*
X427440Y60380D01*
X427297Y60495D01*
X427281Y60503D01*
X427267Y60514D01*
X427102Y60596D01*
X426940Y60681D01*
X426923Y60686D01*
X426907Y60694D01*
X426728Y60741D01*
X426553Y60792D01*
X426535Y60794D01*
X426518Y60798D01*
X426187Y60825D01*
X424643Y60825D01*
X424414Y61055D01*
X424350Y61107D01*
X424293Y61167D01*
X424194Y61235D01*
X424102Y61310D01*
X424029Y61349D01*
X423961Y61396D01*
X423852Y61443D01*
X423747Y61499D01*
X423667Y61522D01*
X423592Y61555D01*
X423475Y61580D01*
X423361Y61614D01*
X423278Y61621D01*
X423198Y61638D01*
X423078Y61639D01*
X422960Y61650D01*
X422878Y61641D01*
X422795Y61642D01*
X422678Y61619D01*
X422559Y61607D01*
X422481Y61582D01*
X422400Y61566D01*
X422289Y61521D01*
X422176Y61485D01*
X422103Y61445D01*
X422027Y61414D01*
X421928Y61348D01*
X421823Y61290D01*
X421760Y61237D01*
X421692Y61191D01*
X421607Y61107D01*
X421516Y61030D01*
X421465Y60965D01*
X421407Y60907D01*
X421366Y60848D01*
X420835Y60317D01*
X420256Y59982D01*
X419610Y59809D01*
X416024Y59809D01*
X416024Y68632D01*
X416022Y68650D01*
X416024Y68667D01*
X416003Y68850D01*
X415984Y69032D01*
X415979Y69049D01*
X415977Y69067D01*
X415920Y69242D01*
X415866Y69417D01*
X415858Y69433D01*
X415852Y69450D01*
X415762Y69610D01*
X415674Y69771D01*
X415663Y69785D01*
X415654Y69801D01*
X415609Y69853D01*
X415694Y69958D01*
X415702Y69974D01*
X415713Y69988D01*
X415795Y70153D01*
X415880Y70316D01*
X415885Y70333D01*
X415893Y70349D01*
X415940Y70527D01*
X415991Y70702D01*
X415993Y70720D01*
X415997Y70737D01*
X416024Y71068D01*
X416024Y79891D01*
X419610Y79891D01*
X420256Y79718D01*
X420835Y79383D01*
X421386Y78833D01*
X421453Y78739D01*
X421513Y78683D01*
X421566Y78620D01*
X421660Y78546D01*
X421747Y78465D01*
X421818Y78422D01*
X421882Y78370D01*
X421989Y78316D01*
X422090Y78254D01*
X422168Y78225D01*
X422241Y78188D01*
X422356Y78156D01*
X422468Y78115D01*
X422550Y78102D01*
X422629Y78080D01*
X422748Y78071D01*
X422866Y78053D01*
X422948Y78057D01*
X423031Y78051D01*
X423149Y78066D01*
X423268Y78071D01*
X423348Y78091D01*
X423430Y78101D01*
X423543Y78139D01*
X423659Y78168D01*
X423734Y78203D01*
X423812Y78229D01*
X423915Y78289D01*
X424023Y78340D01*
X424089Y78389D01*
X424161Y78430D01*
X424277Y78529D01*
X424346Y78580D01*
X424373Y78611D01*
X424414Y78645D01*
X424643Y78875D01*
X425088Y78875D01*
X425102Y78876D01*
X425115Y78875D01*
X425302Y78896D01*
X425489Y78915D01*
X425502Y78919D01*
X425515Y78920D01*
X425694Y78978D01*
X425874Y79033D01*
X425886Y79039D01*
X425898Y79043D01*
X426062Y79135D01*
X426228Y79225D01*
X426238Y79233D01*
X426250Y79240D01*
X426393Y79362D01*
X426537Y79482D01*
X426545Y79493D01*
X426556Y79502D01*
X426672Y79650D01*
X426789Y79796D01*
X426796Y79808D01*
X426804Y79819D01*
X426889Y79988D01*
X426975Y80153D01*
X426979Y80166D01*
X426985Y80178D01*
X427034Y80360D01*
X427086Y80540D01*
X427087Y80554D01*
X427091Y80567D01*
X427104Y80753D01*
X427119Y80942D01*
X427118Y80955D01*
X427119Y80968D01*
X427094Y81152D01*
X427072Y81341D01*
X427068Y81354D01*
X427066Y81368D01*
X427001Y81570D01*
X427001Y83505D01*
X427732Y85268D01*
X429082Y86618D01*
X430845Y87349D01*
X433037Y87349D01*
X433063Y87351D01*
X433090Y87349D01*
X433264Y87371D01*
X433437Y87389D01*
X433463Y87396D01*
X433490Y87400D01*
X433655Y87456D01*
X433822Y87507D01*
X433846Y87520D01*
X433871Y87528D01*
X434023Y87615D01*
X434176Y87699D01*
X434197Y87716D01*
X434220Y87729D01*
X434473Y87944D01*
X442051Y95522D01*
X442096Y95536D01*
X442112Y95544D01*
X442129Y95550D01*
X442289Y95640D01*
X442450Y95728D01*
X442464Y95739D01*
X442479Y95748D01*
X442619Y95868D01*
X442759Y95985D01*
X442771Y95999D01*
X442784Y96011D01*
X442897Y96156D01*
X443012Y96299D01*
X443020Y96315D01*
X443031Y96329D01*
X443113Y96494D01*
X443197Y96656D01*
X443202Y96673D01*
X443210Y96689D01*
X443258Y96868D01*
X443309Y97043D01*
X443310Y97061D01*
X443315Y97078D01*
X443342Y97409D01*
X443342Y139784D01*
X443339Y139811D01*
X443341Y139837D01*
X443319Y140011D01*
X443302Y140185D01*
X443294Y140210D01*
X443291Y140237D01*
X443235Y140402D01*
X443184Y140570D01*
X443171Y140593D01*
X443163Y140618D01*
X443076Y140770D01*
X442992Y140924D01*
X442975Y140944D01*
X442962Y140967D01*
X442747Y141220D01*
X429005Y154962D01*
X429005Y166112D01*
X429003Y166139D01*
X429005Y166166D01*
X428983Y166340D01*
X428965Y166513D01*
X428958Y166538D01*
X428954Y166565D01*
X428899Y166731D01*
X428847Y166898D01*
X428834Y166921D01*
X428826Y166947D01*
X428739Y167098D01*
X428655Y167252D01*
X428638Y167272D01*
X428625Y167296D01*
X428410Y167549D01*
X405092Y190867D01*
X405085Y190872D01*
X405080Y190879D01*
X404930Y190999D01*
X404781Y191122D01*
X404773Y191126D01*
X404766Y191132D01*
X404595Y191220D01*
X404425Y191310D01*
X404417Y191313D01*
X404409Y191317D01*
X404223Y191370D01*
X404039Y191425D01*
X404030Y191426D01*
X404022Y191428D01*
X403830Y191444D01*
X403638Y191462D01*
X403629Y191461D01*
X403620Y191461D01*
X403431Y191439D01*
X403238Y191418D01*
X403229Y191415D01*
X403221Y191414D01*
X403039Y191355D01*
X402854Y191297D01*
X402846Y191292D01*
X402838Y191290D01*
X402669Y191195D01*
X402502Y191102D01*
X402495Y191096D01*
X402487Y191092D01*
X402341Y190966D01*
X402195Y190841D01*
X402189Y190834D01*
X402182Y190828D01*
X402065Y190677D01*
X401945Y190525D01*
X401941Y190517D01*
X401936Y190510D01*
X401850Y190338D01*
X401763Y190166D01*
X401760Y190158D01*
X401756Y190150D01*
X401706Y189963D01*
X401655Y189779D01*
X401654Y189770D01*
X401652Y189761D01*
X401625Y189430D01*
X401625Y165918D01*
X400732Y165025D01*
X380383Y165025D01*
X380357Y165023D01*
X380330Y165025D01*
X380156Y165003D01*
X379983Y164985D01*
X379957Y164978D01*
X379931Y164974D01*
X379765Y164919D01*
X379598Y164867D01*
X379574Y164854D01*
X379549Y164846D01*
X379397Y164759D01*
X379244Y164675D01*
X379223Y164658D01*
X379200Y164645D01*
X378947Y164430D01*
X360768Y146251D01*
X360751Y146230D01*
X360730Y146213D01*
X360623Y146075D01*
X360513Y145939D01*
X360500Y145916D01*
X360484Y145895D01*
X360406Y145738D01*
X360324Y145584D01*
X360316Y145558D01*
X360304Y145534D01*
X360259Y145365D01*
X360209Y145198D01*
X360207Y145171D01*
X360200Y145145D01*
X360173Y144815D01*
X360173Y141604D01*
X360176Y141573D01*
X360174Y141542D01*
X360196Y141373D01*
X360213Y141204D01*
X360222Y141174D01*
X360226Y141143D01*
X360327Y140827D01*
X360399Y140655D01*
X360399Y138745D01*
X359668Y136982D01*
X358318Y135632D01*
X356555Y134901D01*
X354645Y134901D01*
X352882Y135632D01*
X351532Y136982D01*
X350801Y138745D01*
X350801Y140655D01*
X350873Y140827D01*
X350882Y140857D01*
X350896Y140885D01*
X350940Y141050D01*
X350989Y141212D01*
X350992Y141243D01*
X351000Y141273D01*
X351027Y141604D01*
X351027Y148460D01*
X351723Y150140D01*
X372480Y170897D01*
X372497Y170918D01*
X372518Y170935D01*
X372625Y171073D01*
X372735Y171209D01*
X372748Y171232D01*
X372764Y171253D01*
X372842Y171410D01*
X372924Y171564D01*
X372932Y171590D01*
X372944Y171614D01*
X372989Y171783D01*
X373039Y171950D01*
X373041Y171977D01*
X373048Y172003D01*
X373075Y172333D01*
X373075Y192682D01*
X373968Y193575D01*
X397480Y193575D01*
X397489Y193576D01*
X397498Y193575D01*
X397691Y193596D01*
X397881Y193615D01*
X397889Y193617D01*
X397898Y193618D01*
X398083Y193677D01*
X398266Y193733D01*
X398274Y193737D01*
X398282Y193740D01*
X398451Y193833D01*
X398620Y193925D01*
X398627Y193930D01*
X398635Y193935D01*
X398782Y194059D01*
X398929Y194182D01*
X398935Y194189D01*
X398942Y194195D01*
X399061Y194347D01*
X399182Y194496D01*
X399186Y194504D01*
X399191Y194511D01*
X399279Y194684D01*
X399367Y194853D01*
X399369Y194862D01*
X399374Y194870D01*
X399425Y195055D01*
X399478Y195240D01*
X399479Y195249D01*
X399482Y195258D01*
X399496Y195450D01*
X399511Y195642D01*
X399510Y195650D01*
X399511Y195659D01*
X399487Y195852D01*
X399464Y196041D01*
X399462Y196050D01*
X399461Y196059D01*
X399399Y196241D01*
X399340Y196424D01*
X399335Y196432D01*
X399332Y196440D01*
X399236Y196607D01*
X399142Y196775D01*
X399136Y196782D01*
X399131Y196789D01*
X398917Y197042D01*
X382423Y213536D01*
X382419Y213539D01*
X382417Y213542D01*
X382263Y213667D01*
X382111Y213791D01*
X382107Y213793D01*
X382104Y213796D01*
X381926Y213889D01*
X381756Y213980D01*
X381752Y213981D01*
X381747Y213983D01*
X381555Y214039D01*
X381370Y214095D01*
X381365Y214095D01*
X381361Y214096D01*
X381168Y214113D01*
X380969Y214131D01*
X380964Y214130D01*
X380960Y214131D01*
X380770Y214109D01*
X380569Y214088D01*
X380564Y214086D01*
X380560Y214086D01*
X380374Y214026D01*
X380185Y213966D01*
X380181Y213964D01*
X380177Y213963D01*
X380003Y213865D01*
X379832Y213771D01*
X379829Y213768D01*
X379825Y213766D01*
X379675Y213638D01*
X379525Y213511D01*
X379523Y213507D01*
X379519Y213504D01*
X379398Y213349D01*
X379276Y213195D01*
X379274Y213191D01*
X379271Y213187D01*
X379182Y213010D01*
X379093Y212836D01*
X379092Y212832D01*
X379090Y212828D01*
X379038Y212638D01*
X378985Y212448D01*
X378985Y212444D01*
X378984Y212439D01*
X378970Y212243D01*
X378956Y212046D01*
X378957Y212042D01*
X378956Y212038D01*
X378982Y211841D01*
X379006Y211647D01*
X379008Y211643D01*
X379008Y211638D01*
X379110Y211322D01*
X379449Y210505D01*
X379449Y208595D01*
X378718Y206832D01*
X377368Y205482D01*
X375574Y204739D01*
X375495Y204729D01*
X375322Y204711D01*
X375297Y204704D01*
X375270Y204700D01*
X375104Y204645D01*
X374937Y204593D01*
X374914Y204580D01*
X374888Y204572D01*
X374737Y204485D01*
X374583Y204401D01*
X374563Y204384D01*
X374539Y204371D01*
X374286Y204156D01*
X347052Y176922D01*
X347035Y176901D01*
X347014Y176883D01*
X346907Y176746D01*
X346797Y176610D01*
X346784Y176587D01*
X346768Y176565D01*
X346690Y176408D01*
X346608Y176254D01*
X346600Y176229D01*
X346588Y176205D01*
X346543Y176035D01*
X346493Y175869D01*
X346491Y175842D01*
X346484Y175816D01*
X346457Y175485D01*
X346457Y112021D01*
X346459Y111995D01*
X346457Y111968D01*
X346479Y111794D01*
X346497Y111620D01*
X346504Y111595D01*
X346508Y111568D01*
X346563Y111403D01*
X346615Y111236D01*
X346628Y111212D01*
X346636Y111187D01*
X346723Y111035D01*
X346807Y110882D01*
X346824Y110861D01*
X346837Y110838D01*
X346956Y110697D01*
X347656Y109008D01*
X347662Y108996D01*
X347666Y108983D01*
X347757Y108819D01*
X347846Y108653D01*
X347855Y108643D01*
X347861Y108631D01*
X347982Y108488D01*
X348103Y108343D01*
X348113Y108334D01*
X348122Y108324D01*
X348269Y108207D01*
X348415Y108089D01*
X348427Y108083D01*
X348438Y108074D01*
X348606Y107989D01*
X348772Y107902D01*
X348784Y107898D01*
X348796Y107892D01*
X348978Y107841D01*
X349158Y107789D01*
X349171Y107788D01*
X349184Y107784D01*
X349373Y107770D01*
X349559Y107754D01*
X349572Y107756D01*
X349586Y107755D01*
X349773Y107778D01*
X349959Y107799D01*
X349972Y107803D01*
X349985Y107805D01*
X350163Y107865D01*
X350343Y107922D01*
X350354Y107929D01*
X350367Y107933D01*
X350530Y108027D01*
X350694Y108119D01*
X350704Y108127D01*
X350716Y108134D01*
X350969Y108349D01*
X373992Y131372D01*
X374006Y131389D01*
X374023Y131403D01*
X374133Y131544D01*
X374247Y131683D01*
X374257Y131703D01*
X374271Y131720D01*
X374352Y131881D01*
X374435Y132039D01*
X374442Y132060D01*
X374452Y132080D01*
X374499Y132253D01*
X374550Y132425D01*
X374552Y132447D01*
X374558Y132468D01*
X374570Y132647D01*
X374587Y132826D01*
X374584Y132848D01*
X374586Y132870D01*
X374562Y133048D01*
X374543Y133226D01*
X374536Y133247D01*
X374533Y133269D01*
X374432Y133585D01*
X373075Y136861D01*
X373075Y142539D01*
X375248Y147786D01*
X379264Y151802D01*
X384511Y153975D01*
X390189Y153975D01*
X395436Y151802D01*
X399452Y147786D01*
X401625Y142539D01*
X401625Y136861D01*
X399452Y131614D01*
X395436Y127598D01*
X390189Y125425D01*
X384511Y125425D01*
X381235Y126782D01*
X381214Y126788D01*
X381194Y126799D01*
X381022Y126847D01*
X380850Y126898D01*
X380828Y126901D01*
X380806Y126907D01*
X380627Y126920D01*
X380449Y126937D01*
X380427Y126934D01*
X380405Y126936D01*
X380226Y126913D01*
X380049Y126895D01*
X380027Y126888D01*
X380005Y126885D01*
X379835Y126828D01*
X379664Y126775D01*
X379645Y126764D01*
X379623Y126757D01*
X379468Y126668D01*
X379311Y126582D01*
X379294Y126568D01*
X379275Y126556D01*
X379022Y126342D01*
X359117Y106437D01*
X359100Y106416D01*
X359079Y106398D01*
X358972Y106261D01*
X358862Y106125D01*
X358849Y106102D01*
X358833Y106080D01*
X358755Y105923D01*
X358673Y105769D01*
X358665Y105744D01*
X358653Y105720D01*
X358608Y105550D01*
X358558Y105384D01*
X358556Y105357D01*
X358549Y105331D01*
X358522Y105000D01*
X358522Y46220D01*
X358524Y46193D01*
X358522Y46167D01*
X358544Y45993D01*
X358562Y45819D01*
X358569Y45794D01*
X358573Y45767D01*
X358628Y45601D01*
X358680Y45434D01*
X358693Y45411D01*
X358701Y45385D01*
X358788Y45234D01*
X358872Y45080D01*
X358889Y45060D01*
X358902Y45037D01*
X359117Y44784D01*
X364872Y39028D01*
X364872Y30822D01*
X359068Y25018D01*
X350862Y25018D01*
X345058Y30822D01*
X345058Y39028D01*
X350813Y44784D01*
X350830Y44804D01*
X350851Y44822D01*
X350958Y44960D01*
X351068Y45095D01*
X351081Y45119D01*
X351097Y45140D01*
X351175Y45297D01*
X351257Y45451D01*
X351265Y45476D01*
X351277Y45500D01*
X351322Y45670D01*
X351372Y45837D01*
X351374Y45863D01*
X351381Y45889D01*
X351408Y46220D01*
X351408Y46834D01*
X351407Y46843D01*
X351408Y46852D01*
X351387Y47046D01*
X351368Y47235D01*
X351366Y47243D01*
X351365Y47252D01*
X351306Y47437D01*
X351250Y47620D01*
X351246Y47628D01*
X351243Y47636D01*
X351150Y47805D01*
X351058Y47974D01*
X351053Y47981D01*
X351048Y47989D01*
X350924Y48136D01*
X350801Y48283D01*
X350794Y48289D01*
X350788Y48296D01*
X350636Y48415D01*
X350487Y48536D01*
X350479Y48540D01*
X350472Y48545D01*
X350299Y48633D01*
X350130Y48721D01*
X350121Y48724D01*
X350113Y48728D01*
X349927Y48780D01*
X349743Y48832D01*
X349734Y48833D01*
X349725Y48836D01*
X349532Y48850D01*
X349341Y48865D01*
X349333Y48864D01*
X349324Y48865D01*
X349131Y48841D01*
X348942Y48818D01*
X348933Y48816D01*
X348924Y48815D01*
X348742Y48753D01*
X348559Y48694D01*
X348551Y48689D01*
X348543Y48686D01*
X348376Y48590D01*
X348208Y48496D01*
X348201Y48490D01*
X348194Y48485D01*
X347941Y48271D01*
X340067Y40397D01*
X340050Y40376D01*
X340029Y40359D01*
X339922Y40221D01*
X339812Y40085D01*
X339799Y40062D01*
X339783Y40040D01*
X339705Y39883D01*
X339623Y39729D01*
X339615Y39704D01*
X339603Y39680D01*
X339558Y39510D01*
X339508Y39344D01*
X339506Y39317D01*
X339499Y39291D01*
X339472Y38960D01*
X339472Y30822D01*
X333668Y25018D01*
X325462Y25018D01*
X319658Y30822D01*
X319658Y39028D01*
X325462Y44832D01*
X333600Y44832D01*
X333627Y44834D01*
X333654Y44832D01*
X333828Y44854D01*
X334001Y44872D01*
X334027Y44879D01*
X334053Y44883D01*
X334219Y44938D01*
X334386Y44990D01*
X334410Y45003D01*
X334435Y45011D01*
X334586Y45098D01*
X334740Y45182D01*
X334760Y45199D01*
X334784Y45212D01*
X335037Y45427D01*
X342777Y53167D01*
X342782Y53174D01*
X342789Y53179D01*
X342910Y53329D01*
X343032Y53478D01*
X343036Y53486D01*
X343042Y53493D01*
X343130Y53664D01*
X343220Y53834D01*
X343223Y53842D01*
X343227Y53850D01*
X343280Y54036D01*
X343335Y54220D01*
X343336Y54229D01*
X343338Y54237D01*
X343354Y54429D01*
X343372Y54621D01*
X343371Y54630D01*
X343371Y54639D01*
X343349Y54828D01*
X343328Y55021D01*
X343325Y55030D01*
X343324Y55038D01*
X343265Y55220D01*
X343207Y55405D01*
X343202Y55413D01*
X343200Y55421D01*
X343105Y55590D01*
X343012Y55757D01*
X343006Y55764D01*
X343002Y55772D01*
X342876Y55917D01*
X342751Y56064D01*
X342744Y56070D01*
X342739Y56077D01*
X342587Y56194D01*
X342435Y56314D01*
X342427Y56318D01*
X342420Y56323D01*
X342248Y56409D01*
X342077Y56496D01*
X342068Y56499D01*
X342060Y56503D01*
X341873Y56553D01*
X341689Y56604D01*
X341680Y56605D01*
X341671Y56607D01*
X341340Y56634D01*
X338774Y56634D01*
X338774Y65457D01*
X338772Y65475D01*
X338774Y65492D01*
X338753Y65675D01*
X338734Y65857D01*
X338729Y65874D01*
X338727Y65892D01*
X338670Y66067D01*
X338616Y66242D01*
X338608Y66258D01*
X338602Y66275D01*
X338512Y66435D01*
X338424Y66596D01*
X338413Y66610D01*
X338404Y66626D01*
X338359Y66678D01*
X338444Y66783D01*
X338452Y66799D01*
X338463Y66813D01*
X338545Y66978D01*
X338630Y67141D01*
X338635Y67158D01*
X338643Y67174D01*
X338690Y67351D01*
X338741Y67527D01*
X338743Y67545D01*
X338747Y67562D01*
X338774Y67893D01*
X338774Y76716D01*
X342359Y76716D01*
X343136Y76508D01*
X343217Y76494D01*
X343296Y76472D01*
X343416Y76462D01*
X343534Y76442D01*
X343616Y76445D01*
X343698Y76439D01*
X343816Y76453D01*
X343936Y76457D01*
X344016Y76476D01*
X344097Y76486D01*
X344211Y76523D01*
X344328Y76550D01*
X344402Y76585D01*
X344480Y76610D01*
X344584Y76669D01*
X344693Y76719D01*
X344759Y76768D01*
X344831Y76808D01*
X344921Y76887D01*
X345018Y76957D01*
X345073Y77018D01*
X345136Y77071D01*
X345209Y77166D01*
X345290Y77254D01*
X345332Y77325D01*
X345382Y77390D01*
X345436Y77497D01*
X345497Y77599D01*
X345525Y77677D01*
X345562Y77750D01*
X345593Y77866D01*
X345633Y77978D01*
X345645Y78060D01*
X345666Y78139D01*
X345679Y78291D01*
X345691Y78377D01*
X345689Y78417D01*
X345693Y78470D01*
X345693Y80235D01*
X345691Y80262D01*
X345693Y80289D01*
X345671Y80463D01*
X345653Y80636D01*
X345646Y80661D01*
X345642Y80688D01*
X345587Y80854D01*
X345535Y81021D01*
X345522Y81044D01*
X345514Y81070D01*
X345427Y81221D01*
X345343Y81375D01*
X345326Y81395D01*
X345313Y81419D01*
X345098Y81672D01*
X300428Y126342D01*
X300411Y126356D01*
X300397Y126373D01*
X300256Y126483D01*
X300117Y126597D01*
X300097Y126607D01*
X300080Y126621D01*
X299919Y126702D01*
X299761Y126785D01*
X299740Y126792D01*
X299720Y126802D01*
X299547Y126849D01*
X299375Y126900D01*
X299353Y126902D01*
X299332Y126908D01*
X299153Y126920D01*
X298974Y126937D01*
X298952Y126934D01*
X298930Y126936D01*
X298752Y126912D01*
X298574Y126893D01*
X298553Y126886D01*
X298531Y126883D01*
X298215Y126782D01*
X294939Y125425D01*
X289261Y125425D01*
X284014Y127598D01*
X279998Y131614D01*
X277825Y136861D01*
X277825Y142539D01*
X279998Y147786D01*
X284014Y151802D01*
X289261Y153975D01*
X294939Y153975D01*
X300186Y151802D01*
X304202Y147786D01*
X306375Y142539D01*
X306375Y136861D01*
X305018Y133585D01*
X305012Y133564D01*
X305001Y133544D01*
X304953Y133372D01*
X304902Y133200D01*
X304899Y133178D01*
X304893Y133156D01*
X304880Y132977D01*
X304863Y132799D01*
X304866Y132777D01*
X304864Y132755D01*
X304887Y132576D01*
X304905Y132399D01*
X304912Y132377D01*
X304915Y132355D01*
X304972Y132185D01*
X305025Y132014D01*
X305036Y131995D01*
X305043Y131973D01*
X305132Y131818D01*
X305218Y131661D01*
X305232Y131644D01*
X305244Y131625D01*
X305458Y131372D01*
X347941Y88889D01*
X347948Y88884D01*
X347953Y88877D01*
X348103Y88756D01*
X348252Y88634D01*
X348260Y88630D01*
X348267Y88624D01*
X348438Y88536D01*
X348608Y88446D01*
X348616Y88443D01*
X348624Y88439D01*
X348810Y88386D01*
X348994Y88331D01*
X349003Y88330D01*
X349011Y88328D01*
X349203Y88312D01*
X349395Y88294D01*
X349404Y88295D01*
X349413Y88295D01*
X349602Y88317D01*
X349795Y88338D01*
X349804Y88341D01*
X349812Y88342D01*
X349994Y88401D01*
X350179Y88459D01*
X350187Y88464D01*
X350195Y88466D01*
X350364Y88561D01*
X350531Y88654D01*
X350538Y88660D01*
X350546Y88664D01*
X350692Y88790D01*
X350838Y88915D01*
X350844Y88922D01*
X350851Y88927D01*
X350968Y89079D01*
X351088Y89231D01*
X351092Y89239D01*
X351097Y89246D01*
X351183Y89418D01*
X351270Y89589D01*
X351273Y89598D01*
X351277Y89606D01*
X351327Y89793D01*
X351378Y89977D01*
X351379Y89986D01*
X351381Y89995D01*
X351408Y90326D01*
X351408Y105739D01*
X351408Y105744D01*
X351408Y105748D01*
X351388Y105942D01*
X351368Y106140D01*
X351367Y106144D01*
X351367Y106149D01*
X351309Y106334D01*
X351250Y106525D01*
X351248Y106529D01*
X351247Y106533D01*
X351153Y106705D01*
X351058Y106879D01*
X351056Y106882D01*
X351053Y106886D01*
X350928Y107036D01*
X350801Y107188D01*
X350797Y107191D01*
X350794Y107194D01*
X350640Y107318D01*
X350487Y107440D01*
X350483Y107443D01*
X350480Y107445D01*
X350305Y107535D01*
X350130Y107626D01*
X350125Y107627D01*
X350121Y107629D01*
X349934Y107682D01*
X349743Y107737D01*
X349738Y107738D01*
X349734Y107739D01*
X349541Y107754D01*
X349341Y107770D01*
X349337Y107770D01*
X349333Y107770D01*
X349139Y107747D01*
X348942Y107723D01*
X348937Y107722D01*
X348933Y107721D01*
X348749Y107660D01*
X348559Y107599D01*
X348555Y107596D01*
X348551Y107595D01*
X348381Y107498D01*
X348208Y107401D01*
X348205Y107398D01*
X348201Y107395D01*
X348050Y107264D01*
X347904Y107137D01*
X347901Y107134D01*
X347897Y107131D01*
X347777Y106974D01*
X347657Y106819D01*
X347655Y106815D01*
X347652Y106812D01*
X347500Y106517D01*
X346968Y105232D01*
X345618Y103882D01*
X343855Y103151D01*
X341945Y103151D01*
X340182Y103882D01*
X338832Y105232D01*
X338101Y106995D01*
X338101Y108905D01*
X338845Y110699D01*
X338893Y110761D01*
X339003Y110896D01*
X339016Y110920D01*
X339032Y110941D01*
X339110Y111098D01*
X339192Y111252D01*
X339200Y111277D01*
X339212Y111302D01*
X339257Y111471D01*
X339307Y111638D01*
X339309Y111664D01*
X339316Y111690D01*
X339343Y112021D01*
X339343Y179273D01*
X369256Y209186D01*
X369273Y209207D01*
X369294Y209225D01*
X369401Y209362D01*
X369511Y209498D01*
X369524Y209521D01*
X369540Y209543D01*
X369618Y209700D01*
X369700Y209854D01*
X369708Y209879D01*
X369720Y209903D01*
X369765Y210072D01*
X369815Y210239D01*
X369817Y210266D01*
X369824Y210292D01*
X369839Y210475D01*
X370625Y212371D01*
X370629Y212377D01*
X370716Y212545D01*
X370808Y212717D01*
X370810Y212726D01*
X370815Y212734D01*
X370868Y212918D01*
X370923Y213103D01*
X370923Y213112D01*
X370926Y213121D01*
X370942Y213313D01*
X370959Y213504D01*
X370958Y213513D01*
X370959Y213523D01*
X370937Y213712D01*
X370916Y213905D01*
X370913Y213913D01*
X370912Y213922D01*
X370852Y214105D01*
X370794Y214288D01*
X370790Y214296D01*
X370787Y214305D01*
X370692Y214473D01*
X370600Y214641D01*
X370594Y214648D01*
X370589Y214656D01*
X370464Y214801D01*
X370339Y214948D01*
X370332Y214954D01*
X370326Y214961D01*
X370175Y215078D01*
X370023Y215198D01*
X370015Y215202D01*
X370008Y215207D01*
X369836Y215293D01*
X369665Y215380D01*
X369656Y215382D01*
X369647Y215387D01*
X369460Y215437D01*
X369277Y215488D01*
X369268Y215489D01*
X369259Y215491D01*
X368928Y215518D01*
X270651Y215518D01*
X270633Y215516D01*
X270615Y215518D01*
X270433Y215497D01*
X270250Y215478D01*
X270233Y215473D01*
X270216Y215471D01*
X270041Y215414D01*
X269865Y215360D01*
X269850Y215352D01*
X269833Y215346D01*
X269673Y215256D01*
X269511Y215168D01*
X269498Y215157D01*
X269482Y215148D01*
X269343Y215028D01*
X269202Y214911D01*
X269191Y214897D01*
X269177Y214885D01*
X269065Y214740D01*
X268950Y214597D01*
X268942Y214581D01*
X268931Y214567D01*
X268849Y214402D01*
X268764Y214240D01*
X268759Y214223D01*
X268751Y214207D01*
X268704Y214028D01*
X268653Y213853D01*
X268651Y213835D01*
X268647Y213818D01*
X268620Y213487D01*
X268620Y212648D01*
X267727Y211755D01*
X254873Y211755D01*
X253980Y212648D01*
X253980Y225502D01*
X254873Y226395D01*
X267727Y226395D01*
X268620Y225502D01*
X268620Y224663D01*
X268622Y224645D01*
X268620Y224627D01*
X268641Y224445D01*
X268660Y224262D01*
X268665Y224245D01*
X268667Y224228D01*
X268724Y224053D01*
X268778Y223877D01*
X268786Y223862D01*
X268792Y223845D01*
X268882Y223685D01*
X268970Y223523D01*
X268981Y223510D01*
X268990Y223494D01*
X269110Y223355D01*
X269227Y223214D01*
X269241Y223203D01*
X269253Y223189D01*
X269398Y223077D01*
X269541Y222962D01*
X269557Y222954D01*
X269571Y222943D01*
X269736Y222861D01*
X269898Y222776D01*
X269915Y222771D01*
X269931Y222763D01*
X270110Y222716D01*
X270285Y222665D01*
X270303Y222663D01*
X270320Y222659D01*
X270651Y222632D01*
X377034Y222632D01*
X377043Y222633D01*
X377052Y222632D01*
X377246Y222653D01*
X377435Y222672D01*
X377443Y222674D01*
X377452Y222675D01*
X377637Y222734D01*
X377820Y222790D01*
X377828Y222794D01*
X377836Y222797D01*
X378005Y222890D01*
X378174Y222982D01*
X378181Y222987D01*
X378189Y222992D01*
X378336Y223116D01*
X378483Y223239D01*
X378489Y223246D01*
X378496Y223252D01*
X378615Y223404D01*
X378736Y223553D01*
X378740Y223561D01*
X378745Y223568D01*
X378833Y223741D01*
X378921Y223910D01*
X378924Y223919D01*
X378928Y223927D01*
X378980Y224113D01*
X379032Y224297D01*
X379033Y224306D01*
X379036Y224315D01*
X379050Y224508D01*
X379065Y224699D01*
X379064Y224707D01*
X379065Y224716D01*
X379041Y224907D01*
X379018Y225098D01*
X379016Y225107D01*
X379015Y225116D01*
X378953Y225298D01*
X378894Y225481D01*
X378889Y225489D01*
X378886Y225497D01*
X378790Y225664D01*
X378696Y225832D01*
X378690Y225839D01*
X378685Y225846D01*
X378471Y226099D01*
X313447Y291123D01*
X313426Y291140D01*
X313408Y291161D01*
X313271Y291268D01*
X313135Y291378D01*
X313112Y291391D01*
X313090Y291407D01*
X312933Y291485D01*
X312779Y291567D01*
X312754Y291575D01*
X312730Y291587D01*
X312560Y291632D01*
X312394Y291682D01*
X312367Y291684D01*
X312341Y291691D01*
X312010Y291718D01*
X268936Y291718D01*
X268910Y291716D01*
X268883Y291718D01*
X268709Y291696D01*
X268536Y291678D01*
X268510Y291671D01*
X268484Y291667D01*
X268318Y291611D01*
X268151Y291560D01*
X268127Y291547D01*
X268102Y291539D01*
X267951Y291452D01*
X267797Y291368D01*
X267776Y291351D01*
X267753Y291338D01*
X267500Y291123D01*
X265446Y289070D01*
X262756Y287955D01*
X259844Y287955D01*
X257154Y289070D01*
X255095Y291129D01*
X253980Y293819D01*
X253980Y296731D01*
X255095Y299421D01*
X257154Y301480D01*
X259844Y302595D01*
X262756Y302595D01*
X265446Y301480D01*
X267500Y299427D01*
X267521Y299410D01*
X267538Y299389D01*
X267676Y299282D01*
X267811Y299172D01*
X267835Y299159D01*
X267856Y299143D01*
X268013Y299065D01*
X268167Y298983D01*
X268193Y298975D01*
X268217Y298963D01*
X268386Y298918D01*
X268553Y298868D01*
X268580Y298866D01*
X268606Y298859D01*
X268936Y298832D01*
X315798Y298832D01*
X318477Y296153D01*
X438070Y176560D01*
X438098Y176537D01*
X438123Y176509D01*
X438254Y176409D01*
X438381Y176305D01*
X438414Y176288D01*
X438443Y176265D01*
X438592Y176193D01*
X438737Y176116D01*
X438772Y176106D01*
X438806Y176090D01*
X438965Y176049D01*
X439123Y176002D01*
X439160Y175998D01*
X439195Y175989D01*
X439359Y175980D01*
X439524Y175965D01*
X439561Y175969D01*
X439597Y175967D01*
X439760Y175991D01*
X439924Y176009D01*
X439959Y176020D01*
X439996Y176025D01*
X440151Y176080D01*
X440308Y176130D01*
X440340Y176148D01*
X440375Y176160D01*
X440516Y176245D01*
X440660Y176325D01*
X440688Y176349D01*
X440720Y176368D01*
X440842Y176479D01*
X440967Y176586D01*
X440990Y176615D01*
X441017Y176639D01*
X441115Y176772D01*
X441217Y176901D01*
X441234Y176934D01*
X441255Y176964D01*
X441395Y177251D01*
X441399Y177260D01*
X441400Y177261D01*
X441400Y177263D01*
X445003Y186563D01*
X451513Y193704D01*
X460164Y198012D01*
X469786Y198903D01*
X479081Y196259D01*
X486793Y190435D01*
X491880Y182219D01*
X493656Y172720D01*
X493190Y170228D01*
X493190Y170227D01*
X492430Y166165D01*
X492051Y164134D01*
X492050Y164134D01*
X491880Y163221D01*
X486793Y155005D01*
X479081Y149181D01*
X469786Y146537D01*
X460164Y147428D01*
X460033Y147494D01*
X459963Y147520D01*
X459896Y147555D01*
X459775Y147591D01*
X459656Y147636D01*
X459582Y147649D01*
X459511Y147670D01*
X459384Y147682D01*
X459259Y147702D01*
X459184Y147700D01*
X459110Y147706D01*
X458983Y147693D01*
X458857Y147688D01*
X458784Y147671D01*
X458709Y147663D01*
X458589Y147625D01*
X458465Y147596D01*
X458397Y147564D01*
X458325Y147542D01*
X458215Y147480D01*
X458099Y147427D01*
X458039Y147383D01*
X457973Y147347D01*
X457876Y147265D01*
X457774Y147190D01*
X457723Y147135D01*
X457666Y147086D01*
X457588Y146987D01*
X457502Y146893D01*
X457463Y146829D01*
X457417Y146770D01*
X457359Y146657D01*
X457293Y146549D01*
X457268Y146478D01*
X457234Y146411D01*
X457200Y146289D01*
X457157Y146170D01*
X457146Y146096D01*
X457126Y146023D01*
X457117Y145897D01*
X457098Y145772D01*
X457102Y145697D01*
X457097Y145622D01*
X457113Y145496D01*
X457119Y145370D01*
X457138Y145297D01*
X457147Y145222D01*
X457188Y145102D01*
X457219Y144979D01*
X457252Y144912D01*
X457275Y144841D01*
X457339Y144731D01*
X457394Y144617D01*
X457439Y144557D01*
X457476Y144492D01*
X457584Y144365D01*
X457637Y144296D01*
X457662Y144273D01*
X457691Y144239D01*
X460122Y141808D01*
X460122Y46220D01*
X460124Y46193D01*
X460122Y46167D01*
X460144Y45993D01*
X460162Y45819D01*
X460169Y45794D01*
X460173Y45767D01*
X460228Y45601D01*
X460280Y45434D01*
X460293Y45411D01*
X460301Y45385D01*
X460388Y45234D01*
X460472Y45080D01*
X460489Y45060D01*
X460502Y45037D01*
X460717Y44784D01*
X466678Y38823D01*
X466698Y38806D01*
X466716Y38785D01*
X466854Y38678D01*
X466989Y38568D01*
X467013Y38555D01*
X467034Y38539D01*
X467191Y38461D01*
X467345Y38379D01*
X467370Y38371D01*
X467394Y38359D01*
X467564Y38314D01*
X467731Y38264D01*
X467757Y38262D01*
X467783Y38255D01*
X468114Y38228D01*
X470416Y38228D01*
X470443Y38230D01*
X470469Y38228D01*
X470643Y38250D01*
X470817Y38268D01*
X470842Y38275D01*
X470869Y38279D01*
X471035Y38334D01*
X471202Y38386D01*
X471225Y38399D01*
X471251Y38407D01*
X471402Y38494D01*
X471556Y38578D01*
X471576Y38595D01*
X471599Y38608D01*
X471852Y38823D01*
X477862Y44832D01*
X486068Y44832D01*
X491872Y39028D01*
X491872Y30822D01*
X486117Y25066D01*
X486100Y25046D01*
X486079Y25028D01*
X485972Y24890D01*
X485862Y24755D01*
X485849Y24731D01*
X485833Y24710D01*
X485755Y24553D01*
X485673Y24399D01*
X485665Y24374D01*
X485653Y24350D01*
X485608Y24180D01*
X485558Y24013D01*
X485556Y23987D01*
X485549Y23961D01*
X485522Y23630D01*
X485522Y23292D01*
X477723Y15493D01*
X454084Y15493D01*
G37*
%LPD*%
%LPC*%
G36*
X460164Y468103D02*
X460164Y468103D01*
X451513Y472411D01*
X445003Y479552D01*
X441512Y488563D01*
X441512Y498227D01*
X445003Y507238D01*
X451513Y514379D01*
X460164Y518687D01*
X469786Y519578D01*
X479081Y516934D01*
X486793Y511110D01*
X491880Y502894D01*
X493656Y493395D01*
X493618Y493197D01*
X493618Y493196D01*
X492479Y487103D01*
X492479Y487102D01*
X491880Y483896D01*
X486793Y475680D01*
X479081Y469856D01*
X469786Y467212D01*
X460164Y468103D01*
G37*
%LPD*%
G36*
X141362Y239534D02*
X141362Y239534D01*
X141380Y239532D01*
X141562Y239553D01*
X141745Y239572D01*
X141762Y239577D01*
X141779Y239579D01*
X141954Y239636D01*
X142130Y239690D01*
X142145Y239698D01*
X142162Y239704D01*
X142322Y239794D01*
X142484Y239882D01*
X142497Y239893D01*
X142513Y239902D01*
X142652Y240022D01*
X142793Y240139D01*
X142804Y240153D01*
X142818Y240165D01*
X142930Y240310D01*
X143045Y240453D01*
X143053Y240469D01*
X143064Y240483D01*
X143146Y240648D01*
X143231Y240810D01*
X143236Y240827D01*
X143244Y240843D01*
X143291Y241022D01*
X143342Y241197D01*
X143344Y241215D01*
X143348Y241232D01*
X143375Y241563D01*
X143375Y243118D01*
X143446Y243208D01*
X143562Y243350D01*
X143571Y243366D01*
X143582Y243380D01*
X143665Y243544D01*
X143751Y243706D01*
X143756Y243723D01*
X143764Y243739D01*
X143814Y243916D01*
X143866Y244092D01*
X143867Y244110D01*
X143872Y244127D01*
X143886Y244310D01*
X143902Y244493D01*
X143900Y244511D01*
X143902Y244528D01*
X143879Y244710D01*
X143859Y244893D01*
X143853Y244910D01*
X143851Y244928D01*
X143793Y245101D01*
X143737Y245277D01*
X143729Y245293D01*
X143723Y245309D01*
X143631Y245469D01*
X143543Y245629D01*
X143531Y245643D01*
X143522Y245658D01*
X143375Y245831D01*
X143375Y254762D01*
X143373Y254780D01*
X143375Y254798D01*
X143354Y254980D01*
X143335Y255163D01*
X143330Y255180D01*
X143328Y255197D01*
X143271Y255372D01*
X143217Y255548D01*
X143209Y255563D01*
X143203Y255580D01*
X143113Y255740D01*
X143025Y255902D01*
X143014Y255915D01*
X143005Y255931D01*
X142885Y256070D01*
X142768Y256211D01*
X142754Y256222D01*
X142742Y256236D01*
X142597Y256348D01*
X142454Y256463D01*
X142438Y256471D01*
X142424Y256482D01*
X142259Y256564D01*
X142097Y256649D01*
X142080Y256654D01*
X142064Y256662D01*
X141885Y256709D01*
X141710Y256760D01*
X141692Y256762D01*
X141675Y256766D01*
X141344Y256793D01*
X140206Y256793D01*
X140188Y256791D01*
X140170Y256793D01*
X139988Y256772D01*
X139805Y256753D01*
X139788Y256748D01*
X139771Y256746D01*
X139596Y256689D01*
X139420Y256635D01*
X139405Y256627D01*
X139388Y256621D01*
X139228Y256531D01*
X139066Y256443D01*
X139053Y256432D01*
X139037Y256423D01*
X138898Y256303D01*
X138757Y256186D01*
X138746Y256172D01*
X138732Y256160D01*
X138620Y256015D01*
X138505Y255872D01*
X138497Y255856D01*
X138486Y255842D01*
X138403Y255676D01*
X138319Y255515D01*
X138314Y255498D01*
X138306Y255482D01*
X138259Y255303D01*
X138208Y255128D01*
X138206Y255110D01*
X138202Y255093D01*
X138175Y254762D01*
X138175Y252218D01*
X137282Y251325D01*
X123018Y251325D01*
X122789Y251555D01*
X122725Y251607D01*
X122668Y251666D01*
X122570Y251734D01*
X122477Y251810D01*
X122405Y251849D01*
X122337Y251895D01*
X122227Y251943D01*
X122121Y251999D01*
X122043Y252022D01*
X121967Y252055D01*
X121850Y252079D01*
X121736Y252113D01*
X121653Y252121D01*
X121573Y252138D01*
X121454Y252139D01*
X121335Y252150D01*
X121253Y252141D01*
X121170Y252142D01*
X121053Y252119D01*
X120934Y252106D01*
X120856Y252082D01*
X120775Y252066D01*
X120664Y252021D01*
X120550Y251985D01*
X120478Y251945D01*
X120402Y251914D01*
X120303Y251848D01*
X120198Y251790D01*
X120135Y251737D01*
X120067Y251691D01*
X119982Y251607D01*
X119891Y251530D01*
X119840Y251465D01*
X119782Y251407D01*
X119741Y251348D01*
X119210Y250817D01*
X118631Y250482D01*
X117985Y250309D01*
X114399Y250309D01*
X114399Y259132D01*
X114397Y259150D01*
X114399Y259167D01*
X114378Y259350D01*
X114359Y259532D01*
X114354Y259549D01*
X114352Y259567D01*
X114295Y259742D01*
X114241Y259917D01*
X114233Y259933D01*
X114227Y259950D01*
X114137Y260110D01*
X114049Y260271D01*
X114038Y260285D01*
X114029Y260301D01*
X113984Y260353D01*
X114069Y260458D01*
X114077Y260474D01*
X114088Y260488D01*
X114170Y260653D01*
X114255Y260816D01*
X114260Y260833D01*
X114268Y260849D01*
X114315Y261027D01*
X114366Y261202D01*
X114368Y261220D01*
X114372Y261237D01*
X114399Y261568D01*
X114399Y270391D01*
X117985Y270391D01*
X118631Y270218D01*
X119210Y269883D01*
X119761Y269332D01*
X119828Y269239D01*
X119888Y269183D01*
X119941Y269120D01*
X120035Y269046D01*
X120123Y268965D01*
X120193Y268922D01*
X120257Y268870D01*
X120364Y268816D01*
X120466Y268754D01*
X120543Y268725D01*
X120616Y268688D01*
X120732Y268656D01*
X120843Y268615D01*
X120925Y268602D01*
X121004Y268580D01*
X121123Y268571D01*
X121241Y268553D01*
X121324Y268557D01*
X121406Y268551D01*
X121524Y268566D01*
X121644Y268571D01*
X121723Y268591D01*
X121805Y268601D01*
X121918Y268639D01*
X122034Y268668D01*
X122109Y268703D01*
X122187Y268729D01*
X122290Y268789D01*
X122398Y268840D01*
X122464Y268889D01*
X122536Y268930D01*
X122652Y269029D01*
X122721Y269081D01*
X122748Y269111D01*
X122789Y269145D01*
X123018Y269375D01*
X137282Y269375D01*
X138175Y268482D01*
X138175Y265938D01*
X138177Y265920D01*
X138175Y265902D01*
X138196Y265720D01*
X138215Y265537D01*
X138220Y265520D01*
X138222Y265503D01*
X138279Y265328D01*
X138333Y265152D01*
X138341Y265137D01*
X138347Y265120D01*
X138437Y264960D01*
X138525Y264798D01*
X138536Y264785D01*
X138545Y264769D01*
X138665Y264630D01*
X138782Y264489D01*
X138796Y264478D01*
X138808Y264464D01*
X138953Y264352D01*
X139096Y264237D01*
X139112Y264229D01*
X139126Y264218D01*
X139291Y264136D01*
X139453Y264051D01*
X139470Y264046D01*
X139486Y264038D01*
X139665Y263991D01*
X139840Y263940D01*
X139858Y263938D01*
X139875Y263934D01*
X140206Y263907D01*
X146812Y263907D01*
X146830Y263909D01*
X146848Y263907D01*
X147030Y263928D01*
X147213Y263947D01*
X147230Y263952D01*
X147247Y263954D01*
X147422Y264011D01*
X147598Y264065D01*
X147613Y264073D01*
X147630Y264079D01*
X147790Y264169D01*
X147952Y264257D01*
X147965Y264268D01*
X147981Y264277D01*
X148120Y264397D01*
X148261Y264514D01*
X148272Y264528D01*
X148286Y264540D01*
X148398Y264685D01*
X148513Y264828D01*
X148521Y264844D01*
X148532Y264858D01*
X148614Y265022D01*
X148699Y265185D01*
X148704Y265202D01*
X148712Y265218D01*
X148759Y265397D01*
X148810Y265572D01*
X148812Y265590D01*
X148816Y265607D01*
X148843Y265938D01*
X148843Y267194D01*
X148841Y267212D01*
X148843Y267230D01*
X148822Y267411D01*
X148803Y267595D01*
X148798Y267612D01*
X148796Y267629D01*
X148739Y267804D01*
X148685Y267980D01*
X148677Y267995D01*
X148671Y268012D01*
X148581Y268172D01*
X148493Y268334D01*
X148482Y268347D01*
X148473Y268363D01*
X148353Y268502D01*
X148236Y268643D01*
X148222Y268654D01*
X148210Y268668D01*
X148065Y268780D01*
X147922Y268895D01*
X147906Y268903D01*
X147892Y268914D01*
X147727Y268996D01*
X147565Y269081D01*
X147548Y269086D01*
X147532Y269094D01*
X147353Y269141D01*
X147178Y269192D01*
X147160Y269194D01*
X147143Y269198D01*
X146812Y269225D01*
X144268Y269225D01*
X143375Y270118D01*
X143375Y284393D01*
X143446Y284483D01*
X143562Y284625D01*
X143571Y284641D01*
X143582Y284655D01*
X143665Y284819D01*
X143751Y284981D01*
X143756Y284998D01*
X143764Y285014D01*
X143813Y285190D01*
X143866Y285367D01*
X143867Y285385D01*
X143872Y285402D01*
X143886Y285585D01*
X143902Y285768D01*
X143900Y285785D01*
X143902Y285803D01*
X143879Y285985D01*
X143859Y286168D01*
X143853Y286185D01*
X143851Y286203D01*
X143793Y286377D01*
X143737Y286552D01*
X143729Y286567D01*
X143723Y286584D01*
X143631Y286744D01*
X143543Y286904D01*
X143531Y286918D01*
X143522Y286933D01*
X143375Y287106D01*
X143375Y288662D01*
X143373Y288680D01*
X143375Y288698D01*
X143354Y288880D01*
X143335Y289063D01*
X143330Y289080D01*
X143328Y289097D01*
X143271Y289272D01*
X143217Y289448D01*
X143209Y289463D01*
X143203Y289480D01*
X143113Y289640D01*
X143025Y289802D01*
X143014Y289815D01*
X143005Y289831D01*
X142885Y289970D01*
X142768Y290111D01*
X142754Y290122D01*
X142742Y290136D01*
X142597Y290248D01*
X142454Y290363D01*
X142438Y290371D01*
X142424Y290382D01*
X142259Y290464D01*
X142097Y290549D01*
X142080Y290554D01*
X142064Y290562D01*
X141885Y290609D01*
X141710Y290660D01*
X141692Y290662D01*
X141675Y290666D01*
X141344Y290693D01*
X125115Y290693D01*
X125088Y290691D01*
X125061Y290693D01*
X124887Y290671D01*
X124714Y290653D01*
X124689Y290646D01*
X124662Y290642D01*
X124496Y290587D01*
X124329Y290535D01*
X124306Y290522D01*
X124280Y290514D01*
X124129Y290427D01*
X123975Y290343D01*
X123955Y290326D01*
X123931Y290313D01*
X123678Y290098D01*
X116916Y283336D01*
X79498Y283336D01*
X79489Y283335D01*
X79480Y283336D01*
X79288Y283315D01*
X79097Y283296D01*
X79088Y283294D01*
X79079Y283293D01*
X78896Y283235D01*
X78712Y283178D01*
X78704Y283174D01*
X78696Y283171D01*
X78528Y283078D01*
X78358Y282986D01*
X78351Y282981D01*
X78343Y282976D01*
X78197Y282852D01*
X78049Y282729D01*
X78043Y282722D01*
X78036Y282716D01*
X77916Y282564D01*
X77796Y282415D01*
X77792Y282407D01*
X77787Y282400D01*
X77699Y282227D01*
X77611Y282058D01*
X77608Y282049D01*
X77604Y282041D01*
X77553Y281856D01*
X77499Y281671D01*
X77499Y281662D01*
X77496Y281653D01*
X77482Y281461D01*
X77467Y281269D01*
X77468Y281261D01*
X77467Y281252D01*
X77491Y281060D01*
X77514Y280870D01*
X77516Y280861D01*
X77517Y280852D01*
X77579Y280670D01*
X77638Y280487D01*
X77643Y280479D01*
X77646Y280471D01*
X77742Y280303D01*
X77836Y280136D01*
X77842Y280129D01*
X77847Y280122D01*
X78061Y279869D01*
X78233Y279697D01*
X78233Y273714D01*
X78235Y273687D01*
X78233Y273660D01*
X78255Y273486D01*
X78273Y273313D01*
X78280Y273288D01*
X78284Y273261D01*
X78340Y273095D01*
X78391Y272928D01*
X78404Y272905D01*
X78412Y272879D01*
X78499Y272728D01*
X78583Y272574D01*
X78600Y272554D01*
X78613Y272530D01*
X78828Y272277D01*
X98642Y252463D01*
X98649Y252458D01*
X98654Y252451D01*
X98804Y252330D01*
X98953Y252208D01*
X98961Y252204D01*
X98968Y252198D01*
X99139Y252110D01*
X99309Y252020D01*
X99317Y252017D01*
X99325Y252013D01*
X99511Y251960D01*
X99695Y251905D01*
X99704Y251904D01*
X99712Y251902D01*
X99904Y251886D01*
X100096Y251868D01*
X100105Y251869D01*
X100114Y251869D01*
X100303Y251891D01*
X100496Y251912D01*
X100505Y251915D01*
X100513Y251916D01*
X100695Y251975D01*
X100880Y252033D01*
X100888Y252038D01*
X100896Y252040D01*
X101065Y252135D01*
X101232Y252228D01*
X101239Y252234D01*
X101247Y252238D01*
X101393Y252364D01*
X101539Y252489D01*
X101545Y252496D01*
X101552Y252501D01*
X101669Y252653D01*
X101789Y252805D01*
X101793Y252813D01*
X101798Y252820D01*
X101884Y252992D01*
X101971Y253163D01*
X101974Y253172D01*
X101978Y253180D01*
X102028Y253367D01*
X102079Y253551D01*
X102080Y253560D01*
X102082Y253569D01*
X102109Y253900D01*
X102109Y257101D01*
X107901Y257101D01*
X107901Y250309D01*
X105700Y250309D01*
X105691Y250308D01*
X105682Y250309D01*
X105488Y250288D01*
X105299Y250269D01*
X105291Y250267D01*
X105282Y250266D01*
X105098Y250208D01*
X104914Y250151D01*
X104906Y250147D01*
X104898Y250144D01*
X104729Y250051D01*
X104560Y249959D01*
X104553Y249954D01*
X104545Y249949D01*
X104398Y249825D01*
X104251Y249702D01*
X104245Y249695D01*
X104238Y249689D01*
X104119Y249538D01*
X103998Y249388D01*
X103994Y249380D01*
X103989Y249373D01*
X103901Y249200D01*
X103813Y249031D01*
X103810Y249022D01*
X103806Y249014D01*
X103754Y248828D01*
X103702Y248644D01*
X103701Y248635D01*
X103698Y248626D01*
X103684Y248433D01*
X103669Y248242D01*
X103670Y248234D01*
X103669Y248225D01*
X103693Y248032D01*
X103716Y247843D01*
X103718Y247834D01*
X103719Y247825D01*
X103781Y247642D01*
X103840Y247460D01*
X103845Y247452D01*
X103848Y247444D01*
X103944Y247277D01*
X104038Y247109D01*
X104044Y247102D01*
X104049Y247095D01*
X104263Y246842D01*
X110978Y240127D01*
X110999Y240110D01*
X111017Y240089D01*
X111154Y239982D01*
X111290Y239872D01*
X111313Y239859D01*
X111335Y239843D01*
X111492Y239765D01*
X111646Y239683D01*
X111671Y239675D01*
X111695Y239663D01*
X111865Y239618D01*
X112031Y239568D01*
X112058Y239566D01*
X112084Y239559D01*
X112415Y239532D01*
X141344Y239532D01*
X141362Y239534D01*
G37*
%LPC*%
G36*
X300062Y25018D02*
X300062Y25018D01*
X294258Y30822D01*
X294258Y39028D01*
X300013Y44784D01*
X300030Y44804D01*
X300051Y44822D01*
X300158Y44960D01*
X300268Y45095D01*
X300281Y45119D01*
X300297Y45140D01*
X300375Y45296D01*
X300457Y45451D01*
X300465Y45476D01*
X300477Y45500D01*
X300522Y45670D01*
X300572Y45837D01*
X300574Y45863D01*
X300581Y45889D01*
X300608Y46220D01*
X300608Y53788D01*
X302280Y55460D01*
X302285Y55467D01*
X302292Y55472D01*
X302413Y55622D01*
X302535Y55771D01*
X302539Y55779D01*
X302545Y55786D01*
X302633Y55956D01*
X302723Y56127D01*
X302726Y56136D01*
X302730Y56143D01*
X302783Y56328D01*
X302838Y56513D01*
X302839Y56522D01*
X302841Y56530D01*
X302857Y56721D01*
X302875Y56914D01*
X302874Y56923D01*
X302874Y56932D01*
X302852Y57121D01*
X302831Y57314D01*
X302828Y57323D01*
X302827Y57331D01*
X302768Y57512D01*
X302710Y57698D01*
X302705Y57706D01*
X302703Y57714D01*
X302608Y57883D01*
X302515Y58050D01*
X302509Y58057D01*
X302505Y58065D01*
X302379Y58211D01*
X302254Y58357D01*
X302247Y58363D01*
X302242Y58370D01*
X302090Y58487D01*
X301938Y58607D01*
X301930Y58611D01*
X301923Y58616D01*
X301751Y58702D01*
X301580Y58789D01*
X301571Y58792D01*
X301563Y58796D01*
X301377Y58846D01*
X301192Y58897D01*
X301183Y58898D01*
X301174Y58900D01*
X300843Y58927D01*
X236854Y58927D01*
X236823Y58924D01*
X236792Y58926D01*
X236623Y58904D01*
X236454Y58887D01*
X236424Y58878D01*
X236393Y58874D01*
X236077Y58773D01*
X235905Y58701D01*
X233995Y58701D01*
X232232Y59432D01*
X230882Y60782D01*
X230151Y62545D01*
X230151Y64455D01*
X230882Y66218D01*
X232232Y67568D01*
X233995Y68299D01*
X235905Y68299D01*
X236077Y68227D01*
X236107Y68218D01*
X236135Y68204D01*
X236300Y68160D01*
X236462Y68111D01*
X236493Y68108D01*
X236523Y68100D01*
X236854Y68073D01*
X302896Y68073D01*
X302927Y68076D01*
X302958Y68074D01*
X303127Y68096D01*
X303296Y68113D01*
X303326Y68122D01*
X303357Y68126D01*
X303673Y68227D01*
X303845Y68299D01*
X305755Y68299D01*
X307692Y67496D01*
X307705Y67492D01*
X307716Y67486D01*
X307896Y67435D01*
X308077Y67380D01*
X308090Y67379D01*
X308103Y67375D01*
X308291Y67360D01*
X308478Y67342D01*
X308491Y67343D01*
X308505Y67342D01*
X308691Y67364D01*
X308878Y67383D01*
X308891Y67387D01*
X308904Y67389D01*
X309083Y67447D01*
X309263Y67503D01*
X309274Y67510D01*
X309287Y67514D01*
X309451Y67606D01*
X309616Y67696D01*
X309626Y67705D01*
X309638Y67712D01*
X309780Y67834D01*
X309924Y67956D01*
X309932Y67966D01*
X309943Y67975D01*
X310057Y68123D01*
X310175Y68270D01*
X310181Y68282D01*
X310189Y68293D01*
X310273Y68461D01*
X310359Y68629D01*
X310363Y68641D01*
X310369Y68653D01*
X310418Y68836D01*
X310469Y69016D01*
X310470Y69029D01*
X310473Y69042D01*
X310500Y69373D01*
X310500Y74807D01*
X311393Y75700D01*
X316092Y75700D01*
X316123Y75703D01*
X316154Y75701D01*
X316324Y75723D01*
X316493Y75740D01*
X316522Y75749D01*
X316554Y75753D01*
X316869Y75854D01*
X317570Y76145D01*
X319480Y76145D01*
X320181Y75854D01*
X320210Y75845D01*
X320238Y75831D01*
X320403Y75787D01*
X320566Y75738D01*
X320597Y75735D01*
X320627Y75727D01*
X320958Y75700D01*
X326115Y75700D01*
X326142Y75702D01*
X326169Y75700D01*
X326342Y75722D01*
X326516Y75740D01*
X326542Y75748D01*
X326568Y75751D01*
X326733Y75806D01*
X326901Y75858D01*
X326924Y75871D01*
X326950Y75879D01*
X327101Y75966D01*
X327255Y76050D01*
X327275Y76067D01*
X327299Y76080D01*
X327417Y76180D01*
X328044Y76543D01*
X328690Y76716D01*
X332276Y76716D01*
X332276Y67893D01*
X332277Y67875D01*
X332276Y67858D01*
X332297Y67675D01*
X332316Y67493D01*
X332321Y67476D01*
X332323Y67458D01*
X332380Y67283D01*
X332434Y67108D01*
X332442Y67092D01*
X332448Y67075D01*
X332538Y66915D01*
X332625Y66754D01*
X332637Y66740D01*
X332646Y66724D01*
X332691Y66672D01*
X332606Y66567D01*
X332598Y66551D01*
X332587Y66537D01*
X332505Y66372D01*
X332420Y66209D01*
X332415Y66192D01*
X332407Y66176D01*
X332359Y65998D01*
X332309Y65823D01*
X332307Y65805D01*
X332303Y65788D01*
X332276Y65457D01*
X332276Y56634D01*
X328690Y56634D01*
X328044Y56807D01*
X327405Y57176D01*
X327375Y57200D01*
X327240Y57310D01*
X327216Y57323D01*
X327195Y57339D01*
X327038Y57417D01*
X326884Y57499D01*
X326859Y57507D01*
X326835Y57519D01*
X326665Y57564D01*
X326498Y57614D01*
X326472Y57616D01*
X326446Y57623D01*
X326115Y57650D01*
X315372Y57650D01*
X315345Y57648D01*
X315318Y57650D01*
X315144Y57628D01*
X314971Y57610D01*
X314946Y57603D01*
X314919Y57599D01*
X314753Y57544D01*
X314586Y57492D01*
X314563Y57479D01*
X314537Y57471D01*
X314386Y57384D01*
X314232Y57300D01*
X314212Y57283D01*
X314188Y57270D01*
X313935Y57055D01*
X308317Y51437D01*
X308300Y51416D01*
X308279Y51398D01*
X308172Y51261D01*
X308062Y51125D01*
X308049Y51102D01*
X308033Y51080D01*
X307955Y50923D01*
X307873Y50769D01*
X307865Y50744D01*
X307853Y50720D01*
X307808Y50550D01*
X307758Y50384D01*
X307756Y50357D01*
X307749Y50331D01*
X307722Y50000D01*
X307722Y46220D01*
X307724Y46193D01*
X307722Y46167D01*
X307744Y45993D01*
X307762Y45819D01*
X307769Y45794D01*
X307773Y45767D01*
X307829Y45601D01*
X307880Y45434D01*
X307893Y45411D01*
X307901Y45385D01*
X307988Y45234D01*
X308072Y45080D01*
X308089Y45060D01*
X308102Y45037D01*
X308317Y44784D01*
X314072Y39028D01*
X314072Y30822D01*
X308268Y25018D01*
X300062Y25018D01*
G37*
%LPD*%
%LPC*%
G36*
X380490Y478909D02*
X380490Y478909D01*
X379844Y479082D01*
X379265Y479417D01*
X378714Y479968D01*
X378647Y480061D01*
X378587Y480117D01*
X378534Y480180D01*
X378440Y480254D01*
X378352Y480335D01*
X378282Y480378D01*
X378218Y480430D01*
X378111Y480484D01*
X378009Y480546D01*
X377932Y480575D01*
X377859Y480612D01*
X377743Y480644D01*
X377632Y480685D01*
X377550Y480698D01*
X377471Y480720D01*
X377352Y480729D01*
X377234Y480747D01*
X377151Y480743D01*
X377069Y480749D01*
X376951Y480734D01*
X376831Y480729D01*
X376752Y480709D01*
X376670Y480699D01*
X376557Y480661D01*
X376441Y480632D01*
X376366Y480597D01*
X376288Y480571D01*
X376185Y480511D01*
X376077Y480460D01*
X376011Y480411D01*
X375939Y480370D01*
X375823Y480271D01*
X375754Y480219D01*
X375727Y480189D01*
X375686Y480155D01*
X375457Y479925D01*
X361193Y479925D01*
X360300Y480818D01*
X360300Y483362D01*
X360298Y483380D01*
X360300Y483398D01*
X360279Y483580D01*
X360260Y483763D01*
X360255Y483780D01*
X360253Y483797D01*
X360196Y483972D01*
X360142Y484148D01*
X360134Y484163D01*
X360128Y484180D01*
X360038Y484340D01*
X359950Y484502D01*
X359939Y484515D01*
X359930Y484531D01*
X359810Y484670D01*
X359693Y484811D01*
X359679Y484822D01*
X359667Y484836D01*
X359522Y484948D01*
X359379Y485063D01*
X359363Y485071D01*
X359349Y485082D01*
X359184Y485164D01*
X359022Y485249D01*
X359005Y485254D01*
X358989Y485262D01*
X358810Y485309D01*
X358635Y485360D01*
X358617Y485362D01*
X358600Y485366D01*
X358269Y485393D01*
X341427Y485393D01*
X319797Y507023D01*
X319776Y507040D01*
X319758Y507061D01*
X319621Y507168D01*
X319485Y507278D01*
X319462Y507291D01*
X319440Y507307D01*
X319283Y507385D01*
X319129Y507467D01*
X319104Y507475D01*
X319080Y507487D01*
X318910Y507532D01*
X318744Y507582D01*
X318717Y507584D01*
X318691Y507591D01*
X318360Y507618D01*
X310222Y507618D01*
X304418Y513422D01*
X304418Y521628D01*
X310222Y527432D01*
X318428Y527432D01*
X324232Y521628D01*
X324232Y513490D01*
X324234Y513463D01*
X324232Y513436D01*
X324254Y513262D01*
X324272Y513089D01*
X324279Y513064D01*
X324283Y513037D01*
X324338Y512871D01*
X324390Y512704D01*
X324403Y512681D01*
X324411Y512655D01*
X324498Y512504D01*
X324582Y512350D01*
X324599Y512330D01*
X324612Y512306D01*
X324827Y512053D01*
X343778Y493102D01*
X343799Y493085D01*
X343817Y493064D01*
X343954Y492957D01*
X344090Y492847D01*
X344113Y492834D01*
X344135Y492818D01*
X344292Y492740D01*
X344446Y492658D01*
X344471Y492650D01*
X344495Y492638D01*
X344665Y492593D01*
X344831Y492543D01*
X344858Y492541D01*
X344884Y492534D01*
X345215Y492507D01*
X358269Y492507D01*
X358287Y492509D01*
X358305Y492507D01*
X358487Y492528D01*
X358670Y492547D01*
X358687Y492552D01*
X358704Y492554D01*
X358879Y492611D01*
X359055Y492665D01*
X359070Y492673D01*
X359087Y492679D01*
X359247Y492769D01*
X359409Y492857D01*
X359422Y492868D01*
X359438Y492877D01*
X359577Y492997D01*
X359718Y493114D01*
X359729Y493128D01*
X359743Y493140D01*
X359855Y493285D01*
X359970Y493428D01*
X359978Y493444D01*
X359989Y493458D01*
X360071Y493623D01*
X360156Y493785D01*
X360161Y493802D01*
X360169Y493818D01*
X360216Y493997D01*
X360267Y494172D01*
X360269Y494190D01*
X360273Y494207D01*
X360300Y494538D01*
X360300Y497082D01*
X361193Y497975D01*
X362737Y497975D01*
X362755Y497977D01*
X362773Y497975D01*
X362955Y497996D01*
X363138Y498015D01*
X363155Y498020D01*
X363172Y498022D01*
X363347Y498079D01*
X363523Y498133D01*
X363538Y498141D01*
X363555Y498147D01*
X363715Y498237D01*
X363877Y498325D01*
X363890Y498336D01*
X363906Y498345D01*
X364045Y498465D01*
X364186Y498582D01*
X364197Y498596D01*
X364211Y498608D01*
X364323Y498753D01*
X364438Y498896D01*
X364446Y498912D01*
X364457Y498926D01*
X364539Y499091D01*
X364624Y499253D01*
X364629Y499270D01*
X364637Y499286D01*
X364684Y499465D01*
X364735Y499640D01*
X364737Y499658D01*
X364741Y499675D01*
X364768Y500006D01*
X364768Y505587D01*
X364766Y505605D01*
X364768Y505623D01*
X364747Y505805D01*
X364728Y505988D01*
X364723Y506005D01*
X364721Y506022D01*
X364664Y506197D01*
X364610Y506373D01*
X364602Y506388D01*
X364596Y506405D01*
X364506Y506565D01*
X364418Y506727D01*
X364407Y506740D01*
X364398Y506756D01*
X364278Y506895D01*
X364161Y507036D01*
X364147Y507047D01*
X364135Y507061D01*
X363990Y507173D01*
X363847Y507288D01*
X363831Y507296D01*
X363817Y507307D01*
X363652Y507389D01*
X363490Y507474D01*
X363473Y507479D01*
X363457Y507487D01*
X363278Y507534D01*
X363103Y507585D01*
X363085Y507587D01*
X363068Y507591D01*
X362737Y507618D01*
X361022Y507618D01*
X355218Y513422D01*
X355218Y521628D01*
X361022Y527432D01*
X369228Y527432D01*
X375032Y521628D01*
X375032Y513422D01*
X372477Y510866D01*
X372460Y510846D01*
X372439Y510828D01*
X372332Y510690D01*
X372222Y510555D01*
X372209Y510531D01*
X372193Y510510D01*
X372115Y510353D01*
X372033Y510199D01*
X372025Y510174D01*
X372013Y510150D01*
X371968Y509980D01*
X371918Y509813D01*
X371916Y509787D01*
X371909Y509761D01*
X371882Y509430D01*
X371882Y500006D01*
X371884Y499988D01*
X371882Y499970D01*
X371903Y499788D01*
X371922Y499605D01*
X371927Y499588D01*
X371929Y499571D01*
X371986Y499396D01*
X372040Y499220D01*
X372048Y499205D01*
X372054Y499188D01*
X372144Y499028D01*
X372232Y498866D01*
X372243Y498853D01*
X372252Y498837D01*
X372372Y498698D01*
X372489Y498557D01*
X372503Y498546D01*
X372515Y498532D01*
X372660Y498420D01*
X372803Y498305D01*
X372819Y498297D01*
X372833Y498286D01*
X372998Y498204D01*
X373160Y498119D01*
X373177Y498114D01*
X373193Y498106D01*
X373372Y498059D01*
X373547Y498008D01*
X373565Y498006D01*
X373582Y498002D01*
X373913Y497975D01*
X375457Y497975D01*
X375686Y497745D01*
X375750Y497693D01*
X375807Y497634D01*
X375905Y497566D01*
X375998Y497490D01*
X376070Y497451D01*
X376138Y497405D01*
X376248Y497357D01*
X376354Y497301D01*
X376432Y497278D01*
X376508Y497245D01*
X376625Y497221D01*
X376739Y497187D01*
X376822Y497179D01*
X376902Y497162D01*
X377021Y497161D01*
X377140Y497150D01*
X377222Y497159D01*
X377305Y497158D01*
X377422Y497181D01*
X377541Y497194D01*
X377619Y497218D01*
X377700Y497234D01*
X377811Y497279D01*
X377925Y497315D01*
X377997Y497355D01*
X378073Y497386D01*
X378172Y497452D01*
X378277Y497510D01*
X378340Y497563D01*
X378408Y497609D01*
X378493Y497693D01*
X378584Y497770D01*
X378635Y497835D01*
X378693Y497893D01*
X378734Y497952D01*
X379265Y498483D01*
X379844Y498818D01*
X380490Y498991D01*
X384076Y498991D01*
X384076Y490168D01*
X384077Y490150D01*
X384076Y490133D01*
X384097Y489950D01*
X384116Y489768D01*
X384121Y489751D01*
X384123Y489733D01*
X384180Y489558D01*
X384234Y489383D01*
X384242Y489367D01*
X384248Y489350D01*
X384338Y489190D01*
X384425Y489029D01*
X384437Y489015D01*
X384446Y488999D01*
X384491Y488947D01*
X384406Y488842D01*
X384398Y488826D01*
X384387Y488812D01*
X384305Y488647D01*
X384220Y488484D01*
X384215Y488467D01*
X384207Y488451D01*
X384159Y488273D01*
X384109Y488098D01*
X384107Y488080D01*
X384103Y488063D01*
X384076Y487732D01*
X384076Y478909D01*
X380490Y478909D01*
G37*
%LPD*%
%LPC*%
G36*
X278718Y165025D02*
X278718Y165025D01*
X277825Y165918D01*
X277825Y192682D01*
X278718Y193575D01*
X305482Y193575D01*
X306375Y192682D01*
X306375Y165918D01*
X305482Y165025D01*
X278718Y165025D01*
G37*
%LPD*%
%LPC*%
G36*
X400508Y259587D02*
X400508Y259587D01*
X392175Y267920D01*
X392175Y279704D01*
X400508Y288037D01*
X412292Y288037D01*
X420625Y279704D01*
X420625Y267920D01*
X412292Y259587D01*
X400508Y259587D01*
G37*
%LPD*%
G36*
X50817Y25529D02*
X50817Y25529D01*
X50826Y25528D01*
X51018Y25549D01*
X51209Y25568D01*
X51217Y25570D01*
X51226Y25571D01*
X51409Y25629D01*
X51594Y25686D01*
X51602Y25690D01*
X51610Y25693D01*
X51778Y25786D01*
X51948Y25878D01*
X51955Y25883D01*
X51962Y25888D01*
X52110Y26013D01*
X52257Y26135D01*
X52263Y26142D01*
X52269Y26148D01*
X52389Y26300D01*
X52509Y26449D01*
X52513Y26457D01*
X52519Y26464D01*
X52607Y26637D01*
X52695Y26806D01*
X52697Y26815D01*
X52701Y26823D01*
X52753Y27009D01*
X52806Y27193D01*
X52807Y27202D01*
X52809Y27211D01*
X52823Y27403D01*
X52839Y27595D01*
X52838Y27603D01*
X52839Y27612D01*
X52814Y27805D01*
X52792Y27994D01*
X52789Y28003D01*
X52788Y28012D01*
X52727Y28195D01*
X52667Y28377D01*
X52663Y28385D01*
X52660Y28393D01*
X52565Y28559D01*
X52469Y28728D01*
X52464Y28735D01*
X52459Y28742D01*
X52245Y28995D01*
X50418Y30822D01*
X50418Y39028D01*
X56222Y44832D01*
X64360Y44832D01*
X64387Y44834D01*
X64414Y44832D01*
X64588Y44854D01*
X64761Y44872D01*
X64786Y44879D01*
X64813Y44883D01*
X64979Y44938D01*
X65146Y44990D01*
X65169Y45003D01*
X65195Y45011D01*
X65346Y45098D01*
X65500Y45182D01*
X65520Y45199D01*
X65544Y45212D01*
X65797Y45427D01*
X95896Y75526D01*
X95901Y75533D01*
X95908Y75538D01*
X96029Y75688D01*
X96151Y75837D01*
X96155Y75845D01*
X96161Y75852D01*
X96249Y76023D01*
X96339Y76193D01*
X96342Y76201D01*
X96346Y76209D01*
X96399Y76395D01*
X96454Y76579D01*
X96455Y76588D01*
X96457Y76596D01*
X96473Y76787D01*
X96491Y76980D01*
X96490Y76989D01*
X96490Y76998D01*
X96468Y77187D01*
X96447Y77380D01*
X96444Y77389D01*
X96443Y77397D01*
X96384Y77579D01*
X96326Y77764D01*
X96321Y77772D01*
X96319Y77780D01*
X96224Y77949D01*
X96131Y78116D01*
X96125Y78123D01*
X96121Y78131D01*
X95995Y78277D01*
X95870Y78423D01*
X95863Y78429D01*
X95858Y78436D01*
X95706Y78553D01*
X95554Y78673D01*
X95546Y78677D01*
X95539Y78682D01*
X95367Y78768D01*
X95196Y78855D01*
X95187Y78858D01*
X95179Y78862D01*
X94992Y78912D01*
X94808Y78963D01*
X94799Y78964D01*
X94790Y78966D01*
X94459Y78993D01*
X84865Y78993D01*
X84838Y78991D01*
X84811Y78993D01*
X84637Y78971D01*
X84464Y78953D01*
X84439Y78946D01*
X84412Y78942D01*
X84246Y78887D01*
X84079Y78835D01*
X84056Y78822D01*
X84030Y78814D01*
X83879Y78727D01*
X83725Y78643D01*
X83705Y78626D01*
X83681Y78613D01*
X83428Y78398D01*
X45427Y40397D01*
X45410Y40376D01*
X45389Y40358D01*
X45282Y40221D01*
X45172Y40085D01*
X45159Y40062D01*
X45143Y40040D01*
X45065Y39883D01*
X44983Y39729D01*
X44975Y39704D01*
X44963Y39680D01*
X44918Y39510D01*
X44868Y39344D01*
X44866Y39317D01*
X44859Y39291D01*
X44832Y38960D01*
X44832Y30822D01*
X43005Y28995D01*
X43000Y28988D01*
X42993Y28983D01*
X42873Y28833D01*
X42750Y28684D01*
X42746Y28676D01*
X42741Y28669D01*
X42652Y28499D01*
X42562Y28328D01*
X42559Y28319D01*
X42555Y28312D01*
X42502Y28127D01*
X42447Y27942D01*
X42446Y27933D01*
X42444Y27925D01*
X42428Y27734D01*
X42411Y27541D01*
X42412Y27532D01*
X42411Y27523D01*
X42433Y27334D01*
X42454Y27141D01*
X42457Y27132D01*
X42458Y27124D01*
X42517Y26942D01*
X42576Y26757D01*
X42580Y26749D01*
X42583Y26741D01*
X42678Y26572D01*
X42770Y26405D01*
X42776Y26398D01*
X42781Y26390D01*
X42906Y26244D01*
X43031Y26098D01*
X43038Y26092D01*
X43044Y26085D01*
X43195Y25968D01*
X43347Y25848D01*
X43355Y25844D01*
X43362Y25839D01*
X43534Y25753D01*
X43706Y25666D01*
X43714Y25663D01*
X43722Y25659D01*
X43908Y25609D01*
X44094Y25558D01*
X44102Y25557D01*
X44111Y25555D01*
X44442Y25528D01*
X50808Y25528D01*
X50817Y25529D01*
G37*
%LPC*%
G36*
X102804Y96011D02*
X102804Y96011D01*
X99163Y97519D01*
X96376Y100306D01*
X94868Y103947D01*
X94868Y124653D01*
X96376Y128294D01*
X99163Y131081D01*
X102804Y132589D01*
X106746Y132589D01*
X110387Y131081D01*
X113174Y128294D01*
X114682Y124653D01*
X114682Y103947D01*
X113174Y100306D01*
X110387Y97519D01*
X106746Y96011D01*
X102804Y96011D01*
G37*
%LPD*%
G36*
X76217Y25529D02*
X76217Y25529D01*
X76226Y25528D01*
X76418Y25549D01*
X76609Y25568D01*
X76617Y25570D01*
X76626Y25571D01*
X76809Y25629D01*
X76994Y25686D01*
X77002Y25690D01*
X77010Y25693D01*
X77178Y25786D01*
X77348Y25878D01*
X77355Y25883D01*
X77362Y25888D01*
X77510Y26013D01*
X77657Y26135D01*
X77663Y26142D01*
X77669Y26148D01*
X77789Y26300D01*
X77909Y26449D01*
X77913Y26457D01*
X77919Y26464D01*
X78007Y26637D01*
X78095Y26806D01*
X78097Y26815D01*
X78101Y26823D01*
X78153Y27009D01*
X78206Y27193D01*
X78207Y27202D01*
X78209Y27211D01*
X78223Y27403D01*
X78239Y27595D01*
X78238Y27603D01*
X78239Y27612D01*
X78214Y27805D01*
X78192Y27994D01*
X78189Y28003D01*
X78188Y28012D01*
X78127Y28195D01*
X78067Y28377D01*
X78063Y28385D01*
X78060Y28393D01*
X77965Y28559D01*
X77869Y28728D01*
X77864Y28735D01*
X77859Y28742D01*
X77645Y28995D01*
X75818Y30822D01*
X75818Y39028D01*
X81622Y44832D01*
X89760Y44832D01*
X89787Y44834D01*
X89814Y44832D01*
X89988Y44854D01*
X90161Y44872D01*
X90186Y44879D01*
X90213Y44883D01*
X90379Y44938D01*
X90546Y44990D01*
X90569Y45003D01*
X90595Y45011D01*
X90746Y45098D01*
X90900Y45182D01*
X90920Y45199D01*
X90944Y45212D01*
X91197Y45427D01*
X115708Y69938D01*
X115713Y69945D01*
X115720Y69950D01*
X115841Y70100D01*
X115963Y70249D01*
X115967Y70257D01*
X115973Y70264D01*
X116061Y70435D01*
X116151Y70605D01*
X116154Y70613D01*
X116158Y70621D01*
X116211Y70807D01*
X116266Y70991D01*
X116267Y71000D01*
X116269Y71008D01*
X116285Y71200D01*
X116303Y71392D01*
X116302Y71401D01*
X116302Y71410D01*
X116280Y71599D01*
X116259Y71792D01*
X116256Y71801D01*
X116255Y71809D01*
X116196Y71991D01*
X116138Y72176D01*
X116133Y72184D01*
X116131Y72192D01*
X116036Y72360D01*
X115943Y72528D01*
X115937Y72535D01*
X115933Y72543D01*
X115807Y72689D01*
X115682Y72835D01*
X115675Y72841D01*
X115670Y72848D01*
X115518Y72965D01*
X115366Y73085D01*
X115358Y73089D01*
X115351Y73094D01*
X115179Y73180D01*
X115008Y73267D01*
X114999Y73270D01*
X114991Y73274D01*
X114804Y73324D01*
X114620Y73375D01*
X114611Y73376D01*
X114602Y73378D01*
X114271Y73405D01*
X104677Y73405D01*
X104650Y73403D01*
X104623Y73405D01*
X104449Y73383D01*
X104276Y73365D01*
X104251Y73358D01*
X104224Y73354D01*
X104058Y73299D01*
X103891Y73247D01*
X103868Y73234D01*
X103842Y73226D01*
X103691Y73139D01*
X103537Y73055D01*
X103517Y73038D01*
X103493Y73025D01*
X103240Y72810D01*
X70827Y40397D01*
X70810Y40376D01*
X70789Y40358D01*
X70682Y40221D01*
X70572Y40085D01*
X70559Y40062D01*
X70543Y40040D01*
X70465Y39883D01*
X70383Y39729D01*
X70375Y39704D01*
X70363Y39680D01*
X70318Y39510D01*
X70268Y39344D01*
X70266Y39317D01*
X70259Y39291D01*
X70232Y38960D01*
X70232Y30822D01*
X68405Y28995D01*
X68400Y28988D01*
X68393Y28983D01*
X68273Y28833D01*
X68150Y28684D01*
X68146Y28676D01*
X68141Y28669D01*
X68052Y28499D01*
X67962Y28328D01*
X67959Y28319D01*
X67955Y28312D01*
X67902Y28127D01*
X67847Y27942D01*
X67846Y27933D01*
X67844Y27925D01*
X67828Y27734D01*
X67811Y27541D01*
X67812Y27532D01*
X67811Y27523D01*
X67833Y27334D01*
X67854Y27141D01*
X67857Y27132D01*
X67858Y27124D01*
X67917Y26942D01*
X67976Y26757D01*
X67980Y26749D01*
X67983Y26741D01*
X68078Y26572D01*
X68170Y26405D01*
X68176Y26398D01*
X68181Y26390D01*
X68306Y26244D01*
X68431Y26098D01*
X68438Y26092D01*
X68444Y26085D01*
X68595Y25968D01*
X68747Y25848D01*
X68755Y25844D01*
X68762Y25839D01*
X68934Y25753D01*
X69106Y25666D01*
X69114Y25663D01*
X69122Y25659D01*
X69308Y25609D01*
X69494Y25558D01*
X69502Y25557D01*
X69511Y25555D01*
X69842Y25528D01*
X76208Y25528D01*
X76217Y25529D01*
G37*
%LPC*%
G36*
X258834Y354329D02*
X258834Y354329D01*
X256033Y355489D01*
X253889Y357633D01*
X252729Y360434D01*
X252729Y363466D01*
X253889Y366267D01*
X256198Y368576D01*
X256215Y368596D01*
X256236Y368614D01*
X256343Y368752D01*
X256453Y368887D01*
X256466Y368911D01*
X256482Y368932D01*
X256560Y369089D01*
X256642Y369243D01*
X256650Y369268D01*
X256662Y369292D01*
X256707Y369462D01*
X256757Y369629D01*
X256759Y369655D01*
X256766Y369681D01*
X256793Y370012D01*
X256793Y379288D01*
X256791Y379315D01*
X256793Y379341D01*
X256771Y379515D01*
X256753Y379689D01*
X256746Y379714D01*
X256742Y379741D01*
X256686Y379907D01*
X256635Y380074D01*
X256622Y380097D01*
X256614Y380122D01*
X256527Y380274D01*
X256443Y380428D01*
X256426Y380448D01*
X256413Y380471D01*
X256198Y380724D01*
X253889Y383033D01*
X252729Y385834D01*
X252729Y388866D01*
X253889Y391667D01*
X256033Y393811D01*
X258834Y394971D01*
X261866Y394971D01*
X264667Y393811D01*
X266811Y391667D01*
X267971Y388866D01*
X267971Y385834D01*
X266811Y383033D01*
X264502Y380724D01*
X264485Y380704D01*
X264464Y380686D01*
X264357Y380548D01*
X264247Y380413D01*
X264234Y380389D01*
X264218Y380368D01*
X264140Y380211D01*
X264058Y380057D01*
X264050Y380032D01*
X264038Y380008D01*
X263993Y379838D01*
X263943Y379671D01*
X263941Y379645D01*
X263934Y379619D01*
X263907Y379288D01*
X263907Y370012D01*
X263909Y369985D01*
X263907Y369959D01*
X263929Y369785D01*
X263947Y369611D01*
X263954Y369586D01*
X263958Y369559D01*
X264014Y369393D01*
X264065Y369226D01*
X264078Y369203D01*
X264086Y369178D01*
X264173Y369026D01*
X264257Y368872D01*
X264274Y368852D01*
X264287Y368829D01*
X264502Y368576D01*
X266811Y366267D01*
X267971Y363466D01*
X267971Y360434D01*
X266811Y357633D01*
X264667Y355489D01*
X261866Y354329D01*
X258834Y354329D01*
G37*
%LPD*%
%LPC*%
G36*
X81622Y507618D02*
X81622Y507618D01*
X75818Y513422D01*
X75818Y521628D01*
X81622Y527432D01*
X89828Y527432D01*
X95632Y521628D01*
X95632Y513422D01*
X89828Y507618D01*
X81622Y507618D01*
G37*
%LPD*%
%LPC*%
G36*
X107022Y507618D02*
X107022Y507618D01*
X101218Y513422D01*
X101218Y521628D01*
X107022Y527432D01*
X115228Y527432D01*
X121032Y521628D01*
X121032Y513422D01*
X115228Y507618D01*
X107022Y507618D01*
G37*
%LPD*%
%LPC*%
G36*
X335622Y507618D02*
X335622Y507618D01*
X329818Y513422D01*
X329818Y521628D01*
X335622Y527432D01*
X343828Y527432D01*
X349632Y521628D01*
X349632Y513422D01*
X343828Y507618D01*
X335622Y507618D01*
G37*
%LPD*%
%LPC*%
G36*
X284822Y507618D02*
X284822Y507618D01*
X279018Y513422D01*
X279018Y521628D01*
X284822Y527432D01*
X293028Y527432D01*
X298832Y521628D01*
X298832Y513422D01*
X293028Y507618D01*
X284822Y507618D01*
G37*
%LPD*%
%LPC*%
G36*
X386422Y507618D02*
X386422Y507618D01*
X380618Y513422D01*
X380618Y521628D01*
X386422Y527432D01*
X394628Y527432D01*
X400432Y521628D01*
X400432Y513422D01*
X394628Y507618D01*
X386422Y507618D01*
G37*
%LPD*%
%LPC*%
G36*
X30822Y507618D02*
X30822Y507618D01*
X25018Y513422D01*
X25018Y521628D01*
X30822Y527432D01*
X39028Y527432D01*
X44832Y521628D01*
X44832Y513422D01*
X39028Y507618D01*
X30822Y507618D01*
G37*
%LPD*%
%LPC*%
G36*
X274662Y25018D02*
X274662Y25018D01*
X268858Y30822D01*
X268858Y39028D01*
X274662Y44832D01*
X282868Y44832D01*
X288672Y39028D01*
X288672Y30822D01*
X282868Y25018D01*
X274662Y25018D01*
G37*
%LPD*%
%LPC*%
G36*
X107022Y25018D02*
X107022Y25018D01*
X101218Y30822D01*
X101218Y39028D01*
X107022Y44832D01*
X115228Y44832D01*
X121032Y39028D01*
X121032Y30822D01*
X115228Y25018D01*
X107022Y25018D01*
G37*
%LPD*%
%LPC*%
G36*
X132422Y25018D02*
X132422Y25018D01*
X126618Y30822D01*
X126618Y39028D01*
X132422Y44832D01*
X140628Y44832D01*
X146432Y39028D01*
X146432Y30822D01*
X140628Y25018D01*
X132422Y25018D01*
G37*
%LPD*%
%LPC*%
G36*
X157822Y25018D02*
X157822Y25018D01*
X152018Y30822D01*
X152018Y39028D01*
X157822Y44832D01*
X166028Y44832D01*
X171832Y39028D01*
X171832Y30822D01*
X166028Y25018D01*
X157822Y25018D01*
G37*
%LPD*%
%LPC*%
G36*
X183222Y25018D02*
X183222Y25018D01*
X177418Y30822D01*
X177418Y39028D01*
X183222Y44832D01*
X191428Y44832D01*
X197232Y39028D01*
X197232Y30822D01*
X191428Y25018D01*
X183222Y25018D01*
G37*
%LPD*%
%LPC*%
G36*
X208622Y25018D02*
X208622Y25018D01*
X202818Y30822D01*
X202818Y39028D01*
X208622Y44832D01*
X216828Y44832D01*
X222632Y39028D01*
X222632Y30822D01*
X216828Y25018D01*
X208622Y25018D01*
G37*
%LPD*%
%LPC*%
G36*
X249262Y25018D02*
X249262Y25018D01*
X243458Y30822D01*
X243458Y39028D01*
X249262Y44832D01*
X257468Y44832D01*
X263272Y39028D01*
X263272Y30822D01*
X257468Y25018D01*
X249262Y25018D01*
G37*
%LPD*%
%LPC*%
G36*
X376262Y25018D02*
X376262Y25018D01*
X370458Y30822D01*
X370458Y39028D01*
X376262Y44832D01*
X384468Y44832D01*
X390272Y39028D01*
X390272Y30822D01*
X384468Y25018D01*
X376262Y25018D01*
G37*
%LPD*%
%LPC*%
G36*
X66378Y242442D02*
X66378Y242442D01*
X61467Y247353D01*
X61467Y254297D01*
X66378Y259208D01*
X73322Y259208D01*
X78233Y254297D01*
X78233Y247353D01*
X73322Y242442D01*
X66378Y242442D01*
G37*
%LPD*%
%LPC*%
G36*
X66378Y217042D02*
X66378Y217042D01*
X61467Y221953D01*
X61467Y228897D01*
X66378Y233808D01*
X73322Y233808D01*
X78233Y228897D01*
X78233Y221953D01*
X73322Y217042D01*
X66378Y217042D01*
G37*
%LPD*%
%LPC*%
G36*
X182634Y328929D02*
X182634Y328929D01*
X179833Y330089D01*
X177689Y332233D01*
X176529Y335034D01*
X176529Y338066D01*
X177689Y340867D01*
X179833Y343011D01*
X182634Y344171D01*
X185666Y344171D01*
X188467Y343011D01*
X190611Y340867D01*
X191771Y338066D01*
X191771Y335034D01*
X190611Y332233D01*
X188467Y330089D01*
X185666Y328929D01*
X182634Y328929D01*
G37*
%LPD*%
%LPC*%
G36*
X181744Y287955D02*
X181744Y287955D01*
X179054Y289070D01*
X176995Y291129D01*
X175880Y293819D01*
X175880Y296731D01*
X176995Y299421D01*
X179054Y301480D01*
X181744Y302595D01*
X184656Y302595D01*
X187346Y301480D01*
X189405Y299421D01*
X190520Y296731D01*
X190520Y293819D01*
X189405Y291129D01*
X187346Y289070D01*
X184656Y287955D01*
X181744Y287955D01*
G37*
%LPD*%
%LPC*%
G36*
X259844Y262555D02*
X259844Y262555D01*
X257154Y263670D01*
X255095Y265729D01*
X253980Y268419D01*
X253980Y271331D01*
X255095Y274021D01*
X257154Y276080D01*
X259844Y277195D01*
X262756Y277195D01*
X265446Y276080D01*
X267505Y274021D01*
X268620Y271331D01*
X268620Y268419D01*
X267505Y265729D01*
X265446Y263670D01*
X264171Y263141D01*
X262756Y262555D01*
X259844Y262555D01*
G37*
%LPD*%
%LPC*%
G36*
X409384Y376872D02*
X409384Y376872D01*
X409384Y389129D01*
X412713Y389129D01*
X421641Y380201D01*
X421641Y376872D01*
X409384Y376872D01*
G37*
%LPD*%
%LPC*%
G36*
X391159Y376872D02*
X391159Y376872D01*
X391159Y380201D01*
X400087Y389129D01*
X403416Y389129D01*
X403416Y376872D01*
X391159Y376872D01*
G37*
%LPD*%
%LPC*%
G36*
X409384Y358647D02*
X409384Y358647D01*
X409384Y370904D01*
X421641Y370904D01*
X421641Y367575D01*
X412713Y358647D01*
X409384Y358647D01*
G37*
%LPD*%
%LPC*%
G36*
X400087Y358647D02*
X400087Y358647D01*
X391159Y367575D01*
X391159Y370904D01*
X403416Y370904D01*
X403416Y358647D01*
X400087Y358647D01*
G37*
%LPD*%
%LPC*%
G36*
X240624Y520024D02*
X240624Y520024D01*
X240624Y528448D01*
X242649Y528448D01*
X249389Y521708D01*
X249402Y521697D01*
X249414Y521683D01*
X249558Y521570D01*
X249700Y521453D01*
X249716Y521445D01*
X249730Y521434D01*
X249894Y521351D01*
X250056Y521265D01*
X250073Y521260D01*
X250089Y521251D01*
X250266Y521202D01*
X250442Y521150D01*
X250460Y521148D01*
X250477Y521143D01*
X250660Y521130D01*
X250843Y521113D01*
X250861Y521115D01*
X250878Y521114D01*
X251060Y521137D01*
X251243Y521157D01*
X251260Y521162D01*
X251278Y521165D01*
X251451Y521223D01*
X251627Y521278D01*
X251643Y521287D01*
X251659Y521293D01*
X251819Y521385D01*
X251979Y521473D01*
X251993Y521485D01*
X252008Y521494D01*
X252261Y521708D01*
X259001Y528448D01*
X261026Y528448D01*
X261026Y520024D01*
X240624Y520024D01*
G37*
%LPD*%
%LPC*%
G36*
X240624Y506602D02*
X240624Y506602D01*
X240624Y515026D01*
X261026Y515026D01*
X261026Y506602D01*
X259001Y506602D01*
X252261Y513342D01*
X252247Y513353D01*
X252236Y513367D01*
X252092Y513480D01*
X251950Y513597D01*
X251934Y513605D01*
X251920Y513616D01*
X251756Y513700D01*
X251594Y513785D01*
X251577Y513790D01*
X251561Y513799D01*
X251384Y513848D01*
X251208Y513900D01*
X251190Y513902D01*
X251173Y513907D01*
X250990Y513920D01*
X250807Y513937D01*
X250789Y513935D01*
X250772Y513936D01*
X250590Y513913D01*
X250407Y513893D01*
X250390Y513888D01*
X250372Y513885D01*
X250198Y513827D01*
X250023Y513772D01*
X250007Y513763D01*
X249991Y513757D01*
X249831Y513665D01*
X249671Y513577D01*
X249657Y513565D01*
X249642Y513556D01*
X249389Y513342D01*
X242649Y506602D01*
X240624Y506602D01*
G37*
%LPD*%
%LPC*%
G36*
X296163Y104163D02*
X296163Y104163D01*
X296163Y114841D01*
X297026Y114610D01*
X298877Y113843D01*
X300613Y112841D01*
X302203Y111621D01*
X303621Y110203D01*
X304841Y108613D01*
X305843Y106877D01*
X306610Y105026D01*
X306841Y104163D01*
X296163Y104163D01*
G37*
%LPD*%
%LPC*%
G36*
X391413Y104163D02*
X391413Y104163D01*
X391413Y114841D01*
X392276Y114610D01*
X394127Y113843D01*
X395863Y112841D01*
X397453Y111621D01*
X398871Y110203D01*
X400091Y108613D01*
X401093Y106877D01*
X401860Y105026D01*
X402091Y104163D01*
X391413Y104163D01*
G37*
%LPD*%
%LPC*%
G36*
X391413Y96037D02*
X391413Y96037D01*
X402091Y96037D01*
X401860Y95174D01*
X401093Y93323D01*
X400091Y91587D01*
X398871Y89997D01*
X397453Y88579D01*
X395863Y87359D01*
X394127Y86357D01*
X392276Y85590D01*
X391413Y85359D01*
X391413Y96037D01*
G37*
%LPD*%
%LPC*%
G36*
X296163Y96037D02*
X296163Y96037D01*
X306841Y96037D01*
X306610Y95174D01*
X305843Y93323D01*
X304841Y91587D01*
X303621Y89997D01*
X302203Y88579D01*
X300613Y87359D01*
X298877Y86357D01*
X297026Y85590D01*
X296163Y85359D01*
X296163Y96037D01*
G37*
%LPD*%
%LPC*%
G36*
X277359Y104163D02*
X277359Y104163D01*
X277590Y105026D01*
X278357Y106877D01*
X279359Y108613D01*
X280579Y110203D01*
X281997Y111621D01*
X283587Y112841D01*
X285323Y113843D01*
X287174Y114610D01*
X288037Y114841D01*
X288037Y104163D01*
X277359Y104163D01*
G37*
%LPD*%
%LPC*%
G36*
X372609Y104163D02*
X372609Y104163D01*
X372840Y105026D01*
X373607Y106877D01*
X374609Y108613D01*
X375829Y110203D01*
X377247Y111621D01*
X378837Y112841D01*
X380573Y113843D01*
X382424Y114610D01*
X383287Y114841D01*
X383287Y104163D01*
X372609Y104163D01*
G37*
%LPD*%
%LPC*%
G36*
X382424Y85590D02*
X382424Y85590D01*
X380573Y86357D01*
X378837Y87359D01*
X377247Y88579D01*
X375829Y89997D01*
X374609Y91587D01*
X373607Y93323D01*
X372840Y95174D01*
X372609Y96037D01*
X383287Y96037D01*
X383287Y85359D01*
X382424Y85590D01*
G37*
%LPD*%
%LPC*%
G36*
X287174Y85590D02*
X287174Y85590D01*
X285323Y86357D01*
X283587Y87359D01*
X281997Y88579D01*
X280579Y89997D01*
X279359Y91587D01*
X278357Y93323D01*
X277590Y95174D01*
X277359Y96037D01*
X288037Y96037D01*
X288037Y85359D01*
X287174Y85590D01*
G37*
%LPD*%
%LPC*%
G36*
X266024Y520024D02*
X266024Y520024D01*
X266024Y528448D01*
X268049Y528448D01*
X274448Y522049D01*
X274448Y520024D01*
X266024Y520024D01*
G37*
%LPD*%
%LPC*%
G36*
X408264Y37424D02*
X408264Y37424D01*
X408264Y45848D01*
X410289Y45848D01*
X416688Y39449D01*
X416688Y37424D01*
X408264Y37424D01*
G37*
%LPD*%
%LPC*%
G36*
X227202Y520024D02*
X227202Y520024D01*
X227202Y522049D01*
X233601Y528448D01*
X235626Y528448D01*
X235626Y520024D01*
X227202Y520024D01*
G37*
%LPD*%
%LPC*%
G36*
X266024Y506602D02*
X266024Y506602D01*
X266024Y515026D01*
X274448Y515026D01*
X274448Y513001D01*
X268049Y506602D01*
X266024Y506602D01*
G37*
%LPD*%
%LPC*%
G36*
X408264Y24002D02*
X408264Y24002D01*
X408264Y32426D01*
X416688Y32426D01*
X416688Y30401D01*
X410289Y24002D01*
X408264Y24002D01*
G37*
%LPD*%
%LPC*%
G36*
X394842Y37424D02*
X394842Y37424D01*
X394842Y39449D01*
X401241Y45848D01*
X403266Y45848D01*
X403266Y37424D01*
X394842Y37424D01*
G37*
%LPD*%
%LPC*%
G36*
X233601Y506602D02*
X233601Y506602D01*
X227202Y513001D01*
X227202Y515026D01*
X235626Y515026D01*
X235626Y506602D01*
X233601Y506602D01*
G37*
%LPD*%
%LPC*%
G36*
X401241Y24002D02*
X401241Y24002D01*
X394842Y30401D01*
X394842Y32426D01*
X403266Y32426D01*
X403266Y24002D01*
X401241Y24002D01*
G37*
%LPD*%
%LPC*%
G36*
X390574Y492199D02*
X390574Y492199D01*
X390574Y498991D01*
X394160Y498991D01*
X394806Y498818D01*
X395385Y498483D01*
X395858Y498010D01*
X396193Y497431D01*
X396366Y496785D01*
X396366Y492199D01*
X390574Y492199D01*
G37*
%LPD*%
%LPC*%
G36*
X91124Y447749D02*
X91124Y447749D01*
X91124Y454541D01*
X94710Y454541D01*
X95356Y454368D01*
X95935Y454033D01*
X96408Y453560D01*
X96743Y452981D01*
X96916Y452335D01*
X96916Y447749D01*
X91124Y447749D01*
G37*
%LPD*%
%LPC*%
G36*
X91124Y434459D02*
X91124Y434459D01*
X91124Y441251D01*
X96916Y441251D01*
X96916Y436665D01*
X96743Y436019D01*
X96408Y435440D01*
X95935Y434967D01*
X95356Y434632D01*
X94710Y434459D01*
X91124Y434459D01*
G37*
%LPD*%
%LPC*%
G36*
X390574Y478909D02*
X390574Y478909D01*
X390574Y485701D01*
X396366Y485701D01*
X396366Y481115D01*
X396193Y480469D01*
X395858Y479890D01*
X395385Y479417D01*
X394806Y479082D01*
X394160Y478909D01*
X390574Y478909D01*
G37*
%LPD*%
%LPC*%
G36*
X102109Y263599D02*
X102109Y263599D01*
X102109Y268185D01*
X102282Y268831D01*
X102617Y269410D01*
X103090Y269883D01*
X103669Y270218D01*
X104315Y270391D01*
X107901Y270391D01*
X107901Y263599D01*
X102109Y263599D01*
G37*
%LPD*%
%LPC*%
G36*
X403734Y73099D02*
X403734Y73099D01*
X403734Y77685D01*
X403907Y78331D01*
X404242Y78910D01*
X404715Y79383D01*
X405294Y79718D01*
X405940Y79891D01*
X409526Y79891D01*
X409526Y73099D01*
X403734Y73099D01*
G37*
%LPD*%
%LPC*%
G36*
X405940Y59809D02*
X405940Y59809D01*
X405294Y59982D01*
X404715Y60317D01*
X404242Y60790D01*
X403907Y61369D01*
X403734Y62015D01*
X403734Y66601D01*
X409526Y66601D01*
X409526Y59809D01*
X405940Y59809D01*
G37*
%LPD*%
%LPC*%
G36*
X186181Y414781D02*
X186181Y414781D01*
X186181Y421171D01*
X187465Y420754D01*
X188677Y420137D01*
X189776Y419338D01*
X190738Y418376D01*
X191537Y417277D01*
X192154Y416065D01*
X192571Y414781D01*
X186181Y414781D01*
G37*
%LPD*%
%LPC*%
G36*
X175729Y414781D02*
X175729Y414781D01*
X176146Y416065D01*
X176763Y417277D01*
X177562Y418376D01*
X178524Y419338D01*
X179623Y420137D01*
X180835Y420754D01*
X182119Y421171D01*
X182119Y414781D01*
X175729Y414781D01*
G37*
%LPD*%
%LPC*%
G36*
X185231Y221106D02*
X185231Y221106D01*
X185231Y227180D01*
X186400Y226800D01*
X187569Y226204D01*
X188630Y225433D01*
X189558Y224505D01*
X190329Y223444D01*
X190925Y222275D01*
X191305Y221106D01*
X185231Y221106D01*
G37*
%LPD*%
%LPC*%
G36*
X263331Y246506D02*
X263331Y246506D01*
X263331Y252580D01*
X264500Y252200D01*
X265669Y251604D01*
X266730Y250833D01*
X267658Y249905D01*
X268429Y248844D01*
X269025Y247675D01*
X269405Y246506D01*
X263331Y246506D01*
G37*
%LPD*%
%LPC*%
G36*
X185231Y217044D02*
X185231Y217044D01*
X191305Y217044D01*
X190925Y215875D01*
X190329Y214706D01*
X189558Y213645D01*
X188630Y212717D01*
X187569Y211946D01*
X186400Y211350D01*
X185231Y210970D01*
X185231Y217044D01*
G37*
%LPD*%
%LPC*%
G36*
X175095Y221106D02*
X175095Y221106D01*
X175475Y222275D01*
X176071Y223444D01*
X176842Y224505D01*
X177770Y225433D01*
X178831Y226204D01*
X180000Y226800D01*
X181169Y227180D01*
X181169Y221106D01*
X175095Y221106D01*
G37*
%LPD*%
%LPC*%
G36*
X253195Y246506D02*
X253195Y246506D01*
X253575Y247675D01*
X254171Y248844D01*
X254942Y249905D01*
X255870Y250833D01*
X256931Y251604D01*
X258100Y252200D01*
X259269Y252580D01*
X259269Y246506D01*
X253195Y246506D01*
G37*
%LPD*%
%LPC*%
G36*
X263331Y242444D02*
X263331Y242444D01*
X269405Y242444D01*
X269025Y241275D01*
X268429Y240106D01*
X267658Y239045D01*
X266730Y238117D01*
X265669Y237346D01*
X264500Y236750D01*
X263331Y236370D01*
X263331Y242444D01*
G37*
%LPD*%
%LPC*%
G36*
X180000Y211350D02*
X180000Y211350D01*
X178831Y211946D01*
X177770Y212717D01*
X176842Y213645D01*
X176071Y214706D01*
X175475Y215875D01*
X175095Y217044D01*
X181169Y217044D01*
X181169Y210970D01*
X180000Y211350D01*
G37*
%LPD*%
%LPC*%
G36*
X258100Y236750D02*
X258100Y236750D01*
X256931Y237346D01*
X255870Y238117D01*
X254942Y239045D01*
X254171Y240106D01*
X253575Y241275D01*
X253195Y242444D01*
X259269Y242444D01*
X259269Y236370D01*
X258100Y236750D01*
G37*
%LPD*%
%LPC*%
G36*
X292099Y100099D02*
X292099Y100099D01*
X292099Y100101D01*
X292101Y100101D01*
X292101Y100099D01*
X292099Y100099D01*
G37*
%LPD*%
%LPC*%
G36*
X387349Y100099D02*
X387349Y100099D01*
X387349Y100101D01*
X387351Y100101D01*
X387351Y100099D01*
X387349Y100099D01*
G37*
%LPD*%
D10*
X0Y0D02*
X520700Y0D01*
X520700Y546100D01*
X0Y546100D01*
X0Y0D01*
X446360Y493395D02*
X446366Y493910D01*
X446385Y494425D01*
X446417Y494940D01*
X446461Y495453D01*
X446518Y495966D01*
X446587Y496476D01*
X446669Y496985D01*
X446764Y497492D01*
X446870Y497996D01*
X446989Y498498D01*
X447121Y498996D01*
X447264Y499491D01*
X447420Y499982D01*
X447588Y500470D01*
X447767Y500953D01*
X447959Y501431D01*
X448162Y501905D01*
X448376Y502374D01*
X448602Y502837D01*
X448840Y503294D01*
X449088Y503746D01*
X449348Y504191D01*
X449618Y504630D01*
X449899Y505062D01*
X450191Y505487D01*
X450493Y505905D01*
X450805Y506315D01*
X451127Y506717D01*
X451459Y507112D01*
X451800Y507498D01*
X452151Y507875D01*
X452511Y508244D01*
X452880Y508604D01*
X453257Y508955D01*
X453643Y509296D01*
X454038Y509628D01*
X454440Y509950D01*
X454850Y510262D01*
X455268Y510564D01*
X455693Y510856D01*
X456125Y511137D01*
X456564Y511407D01*
X457009Y511667D01*
X457461Y511915D01*
X457918Y512153D01*
X458381Y512379D01*
X458850Y512593D01*
X459324Y512796D01*
X459802Y512988D01*
X460285Y513167D01*
X460773Y513335D01*
X461264Y513491D01*
X461759Y513634D01*
X462257Y513766D01*
X462759Y513885D01*
X463263Y513991D01*
X463770Y514086D01*
X464279Y514168D01*
X464789Y514237D01*
X465302Y514294D01*
X465815Y514338D01*
X466330Y514370D01*
X466845Y514389D01*
X467360Y514395D01*
X467875Y514389D01*
X468390Y514370D01*
X468905Y514338D01*
X469418Y514294D01*
X469931Y514237D01*
X470441Y514168D01*
X470950Y514086D01*
X471457Y513991D01*
X471961Y513885D01*
X472463Y513766D01*
X472961Y513634D01*
X473456Y513491D01*
X473947Y513335D01*
X474435Y513167D01*
X474918Y512988D01*
X475396Y512796D01*
X475870Y512593D01*
X476339Y512379D01*
X476802Y512153D01*
X477259Y511915D01*
X477711Y511667D01*
X478156Y511407D01*
X478595Y511137D01*
X479027Y510856D01*
X479452Y510564D01*
X479870Y510262D01*
X480280Y509950D01*
X480682Y509628D01*
X481077Y509296D01*
X481463Y508955D01*
X481840Y508604D01*
X482209Y508244D01*
X482569Y507875D01*
X482920Y507498D01*
X483261Y507112D01*
X483593Y506717D01*
X483915Y506315D01*
X484227Y505905D01*
X484529Y505487D01*
X484821Y505062D01*
X485102Y504630D01*
X485372Y504191D01*
X485632Y503746D01*
X485880Y503294D01*
X486118Y502837D01*
X486344Y502374D01*
X486558Y501905D01*
X486761Y501431D01*
X486953Y500953D01*
X487132Y500470D01*
X487300Y499982D01*
X487456Y499491D01*
X487599Y498996D01*
X487731Y498498D01*
X487850Y497996D01*
X487956Y497492D01*
X488051Y496985D01*
X488133Y496476D01*
X488202Y495966D01*
X488259Y495453D01*
X488303Y494940D01*
X488335Y494425D01*
X488354Y493910D01*
X488360Y493395D01*
X488354Y492880D01*
X488335Y492365D01*
X488303Y491850D01*
X488259Y491337D01*
X488202Y490824D01*
X488133Y490314D01*
X488051Y489805D01*
X487956Y489298D01*
X487850Y488794D01*
X487731Y488292D01*
X487599Y487794D01*
X487456Y487299D01*
X487300Y486808D01*
X487132Y486320D01*
X486953Y485837D01*
X486761Y485359D01*
X486558Y484885D01*
X486344Y484416D01*
X486118Y483953D01*
X485880Y483496D01*
X485632Y483044D01*
X485372Y482599D01*
X485102Y482160D01*
X484821Y481728D01*
X484529Y481303D01*
X484227Y480885D01*
X483915Y480475D01*
X483593Y480073D01*
X483261Y479678D01*
X482920Y479292D01*
X482569Y478915D01*
X482209Y478546D01*
X481840Y478186D01*
X481463Y477835D01*
X481077Y477494D01*
X480682Y477162D01*
X480280Y476840D01*
X479870Y476528D01*
X479452Y476226D01*
X479027Y475934D01*
X478595Y475653D01*
X478156Y475383D01*
X477711Y475123D01*
X477259Y474875D01*
X476802Y474637D01*
X476339Y474411D01*
X475870Y474197D01*
X475396Y473994D01*
X474918Y473802D01*
X474435Y473623D01*
X473947Y473455D01*
X473456Y473299D01*
X472961Y473156D01*
X472463Y473024D01*
X471961Y472905D01*
X471457Y472799D01*
X470950Y472704D01*
X470441Y472622D01*
X469931Y472553D01*
X469418Y472496D01*
X468905Y472452D01*
X468390Y472420D01*
X467875Y472401D01*
X467360Y472395D01*
X466845Y472401D01*
X466330Y472420D01*
X465815Y472452D01*
X465302Y472496D01*
X464789Y472553D01*
X464279Y472622D01*
X463770Y472704D01*
X463263Y472799D01*
X462759Y472905D01*
X462257Y473024D01*
X461759Y473156D01*
X461264Y473299D01*
X460773Y473455D01*
X460285Y473623D01*
X459802Y473802D01*
X459324Y473994D01*
X458850Y474197D01*
X458381Y474411D01*
X457918Y474637D01*
X457461Y474875D01*
X457009Y475123D01*
X456564Y475383D01*
X456125Y475653D01*
X455693Y475934D01*
X455268Y476226D01*
X454850Y476528D01*
X454440Y476840D01*
X454038Y477162D01*
X453643Y477494D01*
X453257Y477835D01*
X452880Y478186D01*
X452511Y478546D01*
X452151Y478915D01*
X451800Y479292D01*
X451459Y479678D01*
X451127Y480073D01*
X450805Y480475D01*
X450493Y480885D01*
X450191Y481303D01*
X449899Y481728D01*
X449618Y482160D01*
X449348Y482599D01*
X449088Y483044D01*
X448840Y483496D01*
X448602Y483953D01*
X448376Y484416D01*
X448162Y484885D01*
X447959Y485359D01*
X447767Y485837D01*
X447588Y486320D01*
X447420Y486808D01*
X447264Y487299D01*
X447121Y487794D01*
X446989Y488292D01*
X446870Y488794D01*
X446764Y489298D01*
X446669Y489805D01*
X446587Y490314D01*
X446518Y490824D01*
X446461Y491337D01*
X446417Y491850D01*
X446385Y492365D01*
X446366Y492880D01*
X446360Y493395D01*
X446360Y172720D02*
X446366Y173235D01*
X446385Y173750D01*
X446417Y174265D01*
X446461Y174778D01*
X446518Y175291D01*
X446587Y175801D01*
X446669Y176310D01*
X446764Y176817D01*
X446870Y177321D01*
X446989Y177823D01*
X447121Y178321D01*
X447264Y178816D01*
X447420Y179307D01*
X447588Y179795D01*
X447767Y180278D01*
X447959Y180756D01*
X448162Y181230D01*
X448376Y181699D01*
X448602Y182162D01*
X448840Y182619D01*
X449088Y183071D01*
X449348Y183516D01*
X449618Y183955D01*
X449899Y184387D01*
X450191Y184812D01*
X450493Y185230D01*
X450805Y185640D01*
X451127Y186042D01*
X451459Y186437D01*
X451800Y186823D01*
X452151Y187200D01*
X452511Y187569D01*
X452880Y187929D01*
X453257Y188280D01*
X453643Y188621D01*
X454038Y188953D01*
X454440Y189275D01*
X454850Y189587D01*
X455268Y189889D01*
X455693Y190181D01*
X456125Y190462D01*
X456564Y190732D01*
X457009Y190992D01*
X457461Y191240D01*
X457918Y191478D01*
X458381Y191704D01*
X458850Y191918D01*
X459324Y192121D01*
X459802Y192313D01*
X460285Y192492D01*
X460773Y192660D01*
X461264Y192816D01*
X461759Y192959D01*
X462257Y193091D01*
X462759Y193210D01*
X463263Y193316D01*
X463770Y193411D01*
X464279Y193493D01*
X464789Y193562D01*
X465302Y193619D01*
X465815Y193663D01*
X466330Y193695D01*
X466845Y193714D01*
X467360Y193720D01*
X467875Y193714D01*
X468390Y193695D01*
X468905Y193663D01*
X469418Y193619D01*
X469931Y193562D01*
X470441Y193493D01*
X470950Y193411D01*
X471457Y193316D01*
X471961Y193210D01*
X472463Y193091D01*
X472961Y192959D01*
X473456Y192816D01*
X473947Y192660D01*
X474435Y192492D01*
X474918Y192313D01*
X475396Y192121D01*
X475870Y191918D01*
X476339Y191704D01*
X476802Y191478D01*
X477259Y191240D01*
X477711Y190992D01*
X478156Y190732D01*
X478595Y190462D01*
X479027Y190181D01*
X479452Y189889D01*
X479870Y189587D01*
X480280Y189275D01*
X480682Y188953D01*
X481077Y188621D01*
X481463Y188280D01*
X481840Y187929D01*
X482209Y187569D01*
X482569Y187200D01*
X482920Y186823D01*
X483261Y186437D01*
X483593Y186042D01*
X483915Y185640D01*
X484227Y185230D01*
X484529Y184812D01*
X484821Y184387D01*
X485102Y183955D01*
X485372Y183516D01*
X485632Y183071D01*
X485880Y182619D01*
X486118Y182162D01*
X486344Y181699D01*
X486558Y181230D01*
X486761Y180756D01*
X486953Y180278D01*
X487132Y179795D01*
X487300Y179307D01*
X487456Y178816D01*
X487599Y178321D01*
X487731Y177823D01*
X487850Y177321D01*
X487956Y176817D01*
X488051Y176310D01*
X488133Y175801D01*
X488202Y175291D01*
X488259Y174778D01*
X488303Y174265D01*
X488335Y173750D01*
X488354Y173235D01*
X488360Y172720D01*
X488354Y172205D01*
X488335Y171690D01*
X488303Y171175D01*
X488259Y170662D01*
X488202Y170149D01*
X488133Y169639D01*
X488051Y169130D01*
X487956Y168623D01*
X487850Y168119D01*
X487731Y167617D01*
X487599Y167119D01*
X487456Y166624D01*
X487300Y166133D01*
X487132Y165645D01*
X486953Y165162D01*
X486761Y164684D01*
X486558Y164210D01*
X486344Y163741D01*
X486118Y163278D01*
X485880Y162821D01*
X485632Y162369D01*
X485372Y161924D01*
X485102Y161485D01*
X484821Y161053D01*
X484529Y160628D01*
X484227Y160210D01*
X483915Y159800D01*
X483593Y159398D01*
X483261Y159003D01*
X482920Y158617D01*
X482569Y158240D01*
X482209Y157871D01*
X481840Y157511D01*
X481463Y157160D01*
X481077Y156819D01*
X480682Y156487D01*
X480280Y156165D01*
X479870Y155853D01*
X479452Y155551D01*
X479027Y155259D01*
X478595Y154978D01*
X478156Y154708D01*
X477711Y154448D01*
X477259Y154200D01*
X476802Y153962D01*
X476339Y153736D01*
X475870Y153522D01*
X475396Y153319D01*
X474918Y153127D01*
X474435Y152948D01*
X473947Y152780D01*
X473456Y152624D01*
X472961Y152481D01*
X472463Y152349D01*
X471961Y152230D01*
X471457Y152124D01*
X470950Y152029D01*
X470441Y151947D01*
X469931Y151878D01*
X469418Y151821D01*
X468905Y151777D01*
X468390Y151745D01*
X467875Y151726D01*
X467360Y151720D01*
X466845Y151726D01*
X466330Y151745D01*
X465815Y151777D01*
X465302Y151821D01*
X464789Y151878D01*
X464279Y151947D01*
X463770Y152029D01*
X463263Y152124D01*
X462759Y152230D01*
X462257Y152349D01*
X461759Y152481D01*
X461264Y152624D01*
X460773Y152780D01*
X460285Y152948D01*
X459802Y153127D01*
X459324Y153319D01*
X458850Y153522D01*
X458381Y153736D01*
X457918Y153962D01*
X457461Y154200D01*
X457009Y154448D01*
X456564Y154708D01*
X456125Y154978D01*
X455693Y155259D01*
X455268Y155551D01*
X454850Y155853D01*
X454440Y156165D01*
X454038Y156487D01*
X453643Y156819D01*
X453257Y157160D01*
X452880Y157511D01*
X452511Y157871D01*
X452151Y158240D01*
X451800Y158617D01*
X451459Y159003D01*
X451127Y159398D01*
X450805Y159800D01*
X450493Y160210D01*
X450191Y160628D01*
X449899Y161053D01*
X449618Y161485D01*
X449348Y161924D01*
X449088Y162369D01*
X448840Y162821D01*
X448602Y163278D01*
X448376Y163741D01*
X448162Y164210D01*
X447959Y164684D01*
X447767Y165162D01*
X447588Y165645D01*
X447420Y166133D01*
X447264Y166624D01*
X447121Y167119D01*
X446989Y167617D01*
X446870Y168119D01*
X446764Y168623D01*
X446669Y169130D01*
X446587Y169639D01*
X446518Y170149D01*
X446461Y170662D01*
X446417Y171175D01*
X446385Y171690D01*
X446366Y172205D01*
X446360Y172720D01*
D11*
X60325Y470925D03*
X60325Y487925D03*
D12*
X29600Y444500D03*
X46600Y444500D03*
X70875Y444500D03*
X87875Y444500D03*
X111150Y260350D03*
X130150Y260350D03*
D11*
X152400Y252975D03*
X152400Y235975D03*
X152400Y277250D03*
X152400Y294250D03*
D13*
X260350Y336550D03*
X260350Y361950D03*
X184150Y361950D03*
X184150Y336550D03*
X260350Y387350D03*
X260350Y412750D03*
X184150Y387350D03*
X184150Y412750D03*
D14*
X261300Y219075D03*
D15*
X261300Y244475D03*
X261300Y269875D03*
X261300Y295275D03*
X183200Y295275D03*
X183200Y269875D03*
X183200Y244475D03*
X183200Y219075D03*
D11*
X133350Y366150D03*
X133350Y383150D03*
D16*
X104775Y122682D02*
X104775Y105918D01*
X66675Y105918D02*
X66675Y122682D01*
X28575Y122682D02*
X28575Y105918D01*
D12*
X387325Y488950D03*
X368325Y488950D03*
D17*
X44450Y352425D03*
X69850Y352425D03*
X44450Y327025D03*
X69850Y327025D03*
X44450Y301625D03*
X69850Y301625D03*
X44450Y276225D03*
X69850Y276225D03*
X44450Y250825D03*
X69850Y250825D03*
X44450Y225425D03*
X69850Y225425D03*
X44450Y200025D03*
X69850Y200025D03*
D18*
X161925Y517525D03*
X136525Y517525D03*
X111125Y517525D03*
X85725Y517525D03*
X60325Y517525D03*
X34925Y517525D03*
X212725Y517525D03*
X238125Y517525D03*
X263525Y517525D03*
X288925Y517525D03*
X314325Y517525D03*
X339725Y517525D03*
X365125Y517525D03*
X390525Y517525D03*
X136525Y34925D03*
X111125Y34925D03*
X85725Y34925D03*
X60325Y34925D03*
X34925Y34925D03*
X161925Y34925D03*
X187325Y34925D03*
X212725Y34925D03*
X253365Y34925D03*
X278765Y34925D03*
X304165Y34925D03*
X329565Y34925D03*
X354965Y34925D03*
X380365Y34925D03*
X405765Y34925D03*
X431165Y34925D03*
X456565Y34925D03*
X481965Y34925D03*
D19*
X406400Y273812D03*
X406400Y373888D03*
D12*
X318525Y66675D03*
X335525Y66675D03*
X412775Y69850D03*
X431775Y69850D03*
D20*
X292100Y179300D03*
D21*
X292100Y139700D03*
X292100Y100100D03*
D20*
X387350Y179300D03*
D21*
X387350Y139700D03*
X387350Y100100D03*
D22*
X69850Y200025D02*
X28575Y158750D01*
X28575Y114300D01*
D23*
X254000Y165100D03*
X254000Y139700D03*
X203200Y63500D03*
X203200Y88900D03*
X254000Y114300D03*
X412750Y292100D03*
X463550Y292100D03*
X463550Y266700D03*
X463550Y241300D03*
X330200Y292100D03*
X355600Y292100D03*
X355600Y266700D03*
X304800Y241300D03*
X127000Y139700D03*
X25400Y63500D03*
X25400Y88900D03*
X50800Y88900D03*
X76200Y88900D03*
X76200Y63500D03*
X50800Y63500D03*
X304800Y469900D03*
X304800Y495300D03*
X330200Y469900D03*
X304800Y444500D03*
X330200Y444500D03*
X355600Y444500D03*
X228600Y495300D03*
X254000Y495300D03*
X254000Y469900D03*
X228600Y469900D03*
X203200Y444500D03*
X254000Y444500D03*
X101600Y469900D03*
X101600Y495300D03*
X127000Y495300D03*
X152400Y495300D03*
X152400Y469900D03*
X127000Y469900D03*
X101600Y444500D03*
X25400Y495300D03*
X25400Y469900D03*
X50800Y419100D03*
X101600Y368300D03*
X127000Y342900D03*
X152400Y342900D03*
X101600Y317500D03*
X127000Y317500D03*
X152400Y317500D03*
X304800Y368300D03*
X304800Y393700D03*
X330200Y393700D03*
X355600Y393700D03*
X355600Y368300D03*
X330200Y368300D03*
X304800Y342900D03*
X330200Y342900D03*
X355600Y342900D03*
X381000Y368300D03*
X381000Y393700D03*
X381000Y342900D03*
X412750Y393700D03*
X463550Y393700D03*
X463550Y368300D03*
X412750Y342900D03*
X463550Y342900D03*
X488950Y266700D03*
X488950Y292100D03*
X488950Y241300D03*
X381000Y266700D03*
X381000Y292100D03*
X381000Y241300D03*
X412750Y114300D03*
X463550Y114300D03*
X412750Y12700D03*
X438150Y12700D03*
X330200Y12700D03*
X381000Y12700D03*
X355600Y12700D03*
X254000Y12700D03*
X304800Y12700D03*
X279400Y12700D03*
X228600Y38100D03*
X177800Y63500D03*
X127000Y12700D03*
X152400Y12700D03*
X177800Y12700D03*
X25400Y12700D03*
X50800Y12700D03*
X76200Y12700D03*
X101600Y63500D03*
X101600Y12700D03*
X203200Y12700D03*
X152400Y190500D03*
X203200Y165100D03*
X203200Y139700D03*
X152400Y114300D03*
X177800Y114300D03*
X127000Y114300D03*
X50800Y114300D03*
X50800Y165100D03*
X101600Y165100D03*
X76200Y165100D03*
X50800Y139700D03*
X76200Y139700D03*
X152400Y215900D03*
X203200Y368300D03*
X228600Y342900D03*
X152400Y419100D03*
X177800Y469900D03*
X177800Y495300D03*
X177800Y444500D03*
X76200Y469900D03*
X76200Y495300D03*
X76200Y419100D03*
X279400Y469900D03*
X279400Y444500D03*
X304800Y419100D03*
X330200Y419100D03*
X355600Y419100D03*
X279400Y368300D03*
X279400Y393700D03*
X279400Y342900D03*
X203200Y419100D03*
X177800Y317500D03*
X463550Y88900D03*
X463550Y63500D03*
X488950Y63500D03*
X488950Y88900D03*
X304800Y317500D03*
X330200Y317500D03*
X355600Y317500D03*
X412750Y317500D03*
X463550Y317500D03*
X381000Y317500D03*
X488950Y368300D03*
X488950Y393700D03*
X488950Y342900D03*
X488950Y317500D03*
X381000Y469900D03*
X381000Y419100D03*
X279400Y419100D03*
X488950Y215900D03*
X488950Y114300D03*
X488950Y12700D03*
X133350Y279400D03*
X107950Y279400D03*
X82550Y279400D03*
X95250Y266700D03*
X128270Y245110D03*
X115570Y245110D03*
X120650Y279400D03*
X95250Y279400D03*
X167640Y270510D03*
X167640Y251460D03*
X193040Y257810D03*
X193040Y232410D03*
X193040Y283210D03*
X19050Y279400D03*
X19050Y317500D03*
X19050Y355600D03*
X19050Y387350D03*
X19050Y412750D03*
X19050Y247650D03*
X19050Y215900D03*
X19050Y196850D03*
X19050Y165100D03*
X31750Y184150D03*
X228600Y12700D03*
D24*
X44450Y301625D02*
X55118Y312293D01*
X122800Y383150D02*
X133350Y383150D01*
X70205Y312293D02*
X55118Y312293D01*
X133350Y383150D02*
X150250Y400050D01*
X196850Y400050D01*
X122800Y383150D02*
X114300Y374650D01*
X114300Y356388D02*
X70205Y312293D01*
X114300Y356388D02*
X114300Y374650D01*
X184150Y361950D02*
X203200Y381000D01*
X203200Y393700D01*
X196850Y400050D01*
X133350Y365125D02*
X69850Y301625D01*
X133350Y365125D02*
X133350Y366150D01*
X135500Y368300D01*
X152400Y368300D01*
X171450Y387350D02*
X184150Y387350D01*
X171450Y387350D02*
X152400Y368300D01*
X136525Y454025D02*
X136525Y517525D01*
X57150Y374650D02*
X57150Y336550D01*
X47625Y327025D01*
X44450Y327025D01*
X57150Y374650D02*
X136525Y454025D01*
X29600Y214875D02*
X44450Y200025D01*
X29600Y214875D02*
X29600Y444500D01*
X82550Y339725D02*
X69850Y327025D01*
X161925Y460375D02*
X161925Y517525D01*
X82550Y381000D02*
X82550Y339725D01*
X82550Y381000D02*
X161925Y460375D01*
X55118Y286893D02*
X44450Y276225D01*
X122800Y294250D02*
X152400Y294250D01*
X115443Y286893D02*
X55118Y286893D01*
X115443Y286893D02*
X122800Y294250D01*
X152400Y294250D02*
X158825Y294250D01*
X183200Y269875D01*
X110100Y235975D02*
X69850Y276225D01*
X110100Y235975D02*
X152400Y235975D01*
X174700Y235975D01*
X183200Y244475D01*
D22*
X111125Y158750D02*
X66675Y114300D01*
X111125Y158750D02*
X158750Y158750D01*
X196850Y196850D01*
X207264Y207264D01*
X207264Y346964D02*
X222250Y361950D01*
X207264Y346964D02*
X207264Y207264D01*
X222250Y361950D02*
X222250Y438150D01*
X212725Y447675D02*
X212725Y517525D01*
X212725Y447675D02*
X222250Y438150D01*
D23*
X304800Y63500D03*
D25*
X234950Y63500D01*
D23*
X234950Y63500D03*
X196850Y196850D03*
D24*
X368325Y514325D02*
X365125Y517525D01*
X368325Y514325D02*
X368325Y488950D01*
X431775Y69850D02*
X431775Y35535D01*
X431165Y34925D01*
X342900Y488950D02*
X314325Y517525D01*
X342900Y488950D02*
X368325Y488950D01*
D23*
X431800Y82550D03*
D24*
X431800Y69875D01*
X431775Y69850D01*
X152400Y252975D02*
X152400Y260350D01*
X152400Y277250D01*
X152400Y260350D02*
X130150Y260350D01*
X444500Y30107D02*
X455557Y19050D01*
X476250Y19050D02*
X481965Y24765D01*
X481965Y34925D01*
X444500Y30107D02*
X444500Y50800D01*
X455557Y19050D02*
X476250Y19050D01*
X446899Y142099D02*
X432562Y156435D01*
X446899Y142099D02*
X446899Y53199D01*
X444500Y50800D01*
X381914Y219075D02*
X261300Y219075D01*
X381914Y219075D02*
X432562Y168427D01*
X432562Y156435D01*
X456565Y140335D02*
X456565Y34925D01*
X456565Y140335D02*
X438150Y158750D01*
X438150Y171450D01*
X314325Y295275D01*
X261300Y295275D01*
X102362Y76962D02*
X60325Y34925D01*
X102362Y76962D02*
X161065Y76962D01*
X222250Y138147D01*
X222250Y303247D01*
X236503Y317500D02*
X279400Y317500D01*
X292100Y330200D01*
X292100Y393700D02*
X273050Y412750D01*
X260350Y412750D01*
X236503Y317500D02*
X222250Y303247D01*
X292100Y330200D02*
X292100Y393700D01*
X82550Y82550D02*
X34925Y34925D01*
X82550Y82550D02*
X158750Y82550D01*
X215900Y139700D01*
X247650Y336550D02*
X260350Y336550D01*
X215900Y304800D02*
X215900Y139700D01*
X215900Y304800D02*
X247650Y336550D01*
X120650Y69850D02*
X85725Y34925D01*
X120650Y69850D02*
X165100Y69850D01*
X260350Y361950D02*
X260350Y387350D01*
D23*
X234950Y285750D03*
D24*
X234950Y139700D01*
X165100Y69850D01*
X57150Y444500D02*
X46600Y444500D01*
X57150Y444500D02*
X70875Y444500D01*
X57150Y444500D02*
X57150Y467750D01*
X60325Y470925D01*
X60325Y487925D02*
X60325Y517525D01*
X304165Y52315D02*
X304165Y34925D01*
X304165Y52315D02*
X318525Y66675D01*
D25*
X318525Y71346D01*
D23*
X318525Y71346D03*
X342900Y107950D03*
D24*
X342900Y177800D01*
X374650Y209550D01*
D23*
X374650Y209550D03*
X355600Y139700D03*
D25*
X355600Y147550D01*
X387350Y179300D01*
D24*
X387350Y139700D02*
X354965Y107315D01*
X354965Y34925D01*
X349250Y54610D02*
X329565Y34925D01*
X349250Y54610D02*
X349250Y82550D01*
X292100Y139700D01*
M02*
