G04 EAGLE Gerber X2 export*
%TF.Part,Single*%
%TF.FileFunction,Other,Bottom layer*%
%TF.FilePolarity,Positive*%
%TF.GenerationSoftware,Autodesk,EAGLE,9.4.0*%
%TF.CreationDate,2019-06-23T03:23:47Z*%
G75*
%MOMM*%
%FSLAX34Y34*%
%LPD*%
%INBottom layer*%
%AMOC8*
5,1,8,0,0,1.08239X$1,22.5*%
G01*
%ADD10C,0.050000*%
%ADD11C,1.219200*%
%ADD12R,1.159000X1.159000*%
%ADD13C,1.159000*%
%ADD14C,1.676400*%
%ADD15P,1.484606X8X292.500000*%
%ADD16P,1.814519X8X202.500000*%
%ADD17P,2.749271X8X112.500000*%
%ADD18R,2.550000X2.550000*%
%ADD19C,2.550000*%
%ADD20R,1.270000X2.540000*%
%ADD21C,0.406400*%
%ADD22C,0.654800*%
%ADD23C,0.609600*%

G36*
X513356Y5333D02*
X513356Y5333D01*
X513374Y5331D01*
X513556Y5352D01*
X513739Y5371D01*
X513756Y5376D01*
X513773Y5378D01*
X513948Y5435D01*
X514124Y5489D01*
X514139Y5497D01*
X514156Y5503D01*
X514316Y5593D01*
X514478Y5681D01*
X514491Y5692D01*
X514507Y5701D01*
X514646Y5821D01*
X514787Y5938D01*
X514798Y5952D01*
X514812Y5964D01*
X514924Y6109D01*
X515039Y6252D01*
X515047Y6268D01*
X515058Y6282D01*
X515140Y6447D01*
X515225Y6609D01*
X515230Y6626D01*
X515238Y6642D01*
X515285Y6821D01*
X515336Y6996D01*
X515338Y7014D01*
X515342Y7031D01*
X515369Y7362D01*
X515369Y538738D01*
X515367Y538756D01*
X515369Y538774D01*
X515348Y538956D01*
X515329Y539139D01*
X515324Y539156D01*
X515322Y539173D01*
X515265Y539348D01*
X515211Y539524D01*
X515203Y539539D01*
X515197Y539556D01*
X515107Y539716D01*
X515019Y539878D01*
X515008Y539891D01*
X514999Y539907D01*
X514879Y540046D01*
X514762Y540187D01*
X514748Y540198D01*
X514736Y540212D01*
X514591Y540324D01*
X514448Y540439D01*
X514432Y540447D01*
X514418Y540458D01*
X514253Y540540D01*
X514091Y540625D01*
X514074Y540630D01*
X514058Y540638D01*
X513879Y540685D01*
X513704Y540736D01*
X513686Y540738D01*
X513669Y540742D01*
X513338Y540769D01*
X7362Y540769D01*
X7344Y540767D01*
X7326Y540769D01*
X7144Y540748D01*
X6961Y540729D01*
X6944Y540724D01*
X6927Y540722D01*
X6752Y540665D01*
X6576Y540611D01*
X6561Y540603D01*
X6544Y540597D01*
X6384Y540507D01*
X6222Y540419D01*
X6209Y540408D01*
X6193Y540399D01*
X6054Y540279D01*
X5913Y540162D01*
X5902Y540148D01*
X5888Y540136D01*
X5776Y539991D01*
X5661Y539848D01*
X5653Y539832D01*
X5642Y539818D01*
X5560Y539653D01*
X5475Y539491D01*
X5470Y539474D01*
X5462Y539458D01*
X5415Y539279D01*
X5364Y539104D01*
X5362Y539086D01*
X5358Y539069D01*
X5331Y538738D01*
X5331Y7362D01*
X5333Y7344D01*
X5331Y7326D01*
X5352Y7144D01*
X5371Y6961D01*
X5376Y6944D01*
X5378Y6927D01*
X5435Y6752D01*
X5489Y6576D01*
X5497Y6561D01*
X5503Y6544D01*
X5593Y6384D01*
X5681Y6222D01*
X5692Y6209D01*
X5701Y6193D01*
X5821Y6054D01*
X5938Y5913D01*
X5952Y5902D01*
X5964Y5888D01*
X6109Y5776D01*
X6252Y5661D01*
X6268Y5653D01*
X6282Y5642D01*
X6447Y5560D01*
X6609Y5475D01*
X6626Y5470D01*
X6642Y5462D01*
X6821Y5415D01*
X6996Y5364D01*
X7014Y5362D01*
X7031Y5358D01*
X7362Y5331D01*
X513338Y5331D01*
X513356Y5333D01*
G37*
%LPC*%
G36*
X300062Y25018D02*
X300062Y25018D01*
X294258Y30822D01*
X294258Y39028D01*
X300530Y45300D01*
X300535Y45307D01*
X300542Y45312D01*
X300662Y45462D01*
X300785Y45611D01*
X300789Y45619D01*
X300794Y45626D01*
X300883Y45796D01*
X300973Y45967D01*
X300976Y45976D01*
X300980Y45983D01*
X301033Y46167D01*
X301088Y46353D01*
X301089Y46362D01*
X301091Y46370D01*
X301107Y46562D01*
X301124Y46754D01*
X301123Y46763D01*
X301124Y46772D01*
X301102Y46961D01*
X301081Y47154D01*
X301078Y47163D01*
X301077Y47171D01*
X301018Y47353D01*
X300959Y47538D01*
X300955Y47546D01*
X300952Y47554D01*
X300857Y47723D01*
X300765Y47890D01*
X300759Y47897D01*
X300754Y47905D01*
X300629Y48051D01*
X300504Y48197D01*
X300497Y48203D01*
X300491Y48210D01*
X300340Y48327D01*
X300188Y48447D01*
X300180Y48451D01*
X300173Y48456D01*
X300002Y48542D01*
X299829Y48629D01*
X299821Y48632D01*
X299813Y48636D01*
X299626Y48686D01*
X299441Y48737D01*
X299433Y48738D01*
X299424Y48740D01*
X299093Y48767D01*
X297608Y48767D01*
X296352Y50023D01*
X296338Y50035D01*
X296327Y50048D01*
X296183Y50162D01*
X296041Y50278D01*
X296025Y50287D01*
X296011Y50298D01*
X295847Y50381D01*
X295685Y50467D01*
X295668Y50472D01*
X295652Y50480D01*
X295475Y50529D01*
X295299Y50582D01*
X295281Y50583D01*
X295264Y50588D01*
X295081Y50601D01*
X294898Y50618D01*
X294880Y50616D01*
X294862Y50617D01*
X294680Y50594D01*
X294498Y50575D01*
X294481Y50569D01*
X294463Y50567D01*
X294289Y50509D01*
X294114Y50453D01*
X294098Y50444D01*
X294081Y50439D01*
X293923Y50348D01*
X293762Y50258D01*
X293748Y50247D01*
X293732Y50238D01*
X293479Y50023D01*
X292732Y49275D01*
X278768Y49275D01*
X277875Y50168D01*
X277875Y76832D01*
X278768Y77725D01*
X280075Y77725D01*
X280097Y77727D01*
X280119Y77725D01*
X280297Y77747D01*
X280475Y77765D01*
X280497Y77771D01*
X280519Y77774D01*
X280689Y77830D01*
X280860Y77883D01*
X280880Y77893D01*
X280901Y77900D01*
X281057Y77989D01*
X281214Y78075D01*
X281232Y78089D01*
X281251Y78100D01*
X281386Y78218D01*
X281524Y78332D01*
X281538Y78350D01*
X281555Y78364D01*
X281664Y78507D01*
X281776Y78646D01*
X281786Y78666D01*
X281800Y78684D01*
X281835Y78752D01*
X286084Y83001D01*
X286093Y83012D01*
X286103Y83020D01*
X286220Y83167D01*
X286339Y83313D01*
X286346Y83325D01*
X286354Y83335D01*
X286440Y83503D01*
X286528Y83668D01*
X286532Y83681D01*
X286538Y83693D01*
X286590Y83875D01*
X286643Y84054D01*
X286644Y84068D01*
X286648Y84081D01*
X286662Y84268D01*
X286679Y84455D01*
X286678Y84469D01*
X286679Y84482D01*
X286656Y84667D01*
X286636Y84856D01*
X286632Y84868D01*
X286630Y84882D01*
X286571Y85060D01*
X286514Y85239D01*
X286508Y85251D01*
X286504Y85264D01*
X286410Y85428D01*
X286320Y85592D01*
X286311Y85602D01*
X286304Y85614D01*
X286180Y85756D01*
X286059Y85899D01*
X286049Y85907D01*
X286040Y85917D01*
X285890Y86032D01*
X285743Y86148D01*
X285731Y86154D01*
X285720Y86163D01*
X285425Y86314D01*
X285322Y86357D01*
X283587Y87359D01*
X281997Y88579D01*
X280579Y89997D01*
X279359Y91587D01*
X278357Y93323D01*
X277590Y95174D01*
X277359Y96037D01*
X290068Y96037D01*
X290086Y96039D01*
X290103Y96037D01*
X290286Y96058D01*
X290468Y96077D01*
X290486Y96082D01*
X290503Y96084D01*
X290678Y96141D01*
X290853Y96195D01*
X290869Y96203D01*
X290886Y96209D01*
X291046Y96299D01*
X291207Y96387D01*
X291221Y96398D01*
X291237Y96407D01*
X291376Y96527D01*
X291517Y96644D01*
X291528Y96658D01*
X291541Y96670D01*
X291654Y96815D01*
X291769Y96958D01*
X291777Y96974D01*
X291788Y96988D01*
X291870Y97153D01*
X291955Y97315D01*
X291959Y97332D01*
X291967Y97349D01*
X292015Y97527D01*
X292066Y97702D01*
X292067Y97720D01*
X292072Y97737D01*
X292099Y98068D01*
X292099Y100101D01*
X294132Y100101D01*
X294150Y100103D01*
X294167Y100101D01*
X294350Y100123D01*
X294533Y100141D01*
X294550Y100146D01*
X294567Y100148D01*
X294742Y100205D01*
X294917Y100259D01*
X294933Y100267D01*
X294950Y100273D01*
X295110Y100363D01*
X295272Y100451D01*
X295285Y100462D01*
X295301Y100471D01*
X295440Y100591D01*
X295581Y100708D01*
X295592Y100722D01*
X295605Y100734D01*
X295718Y100879D01*
X295833Y101022D01*
X295841Y101038D01*
X295852Y101052D01*
X295934Y101217D01*
X296019Y101380D01*
X296024Y101397D01*
X296032Y101413D01*
X296079Y101591D01*
X296130Y101766D01*
X296131Y101784D01*
X296136Y101801D01*
X296163Y102132D01*
X296163Y114841D01*
X297026Y114610D01*
X298877Y113843D01*
X300613Y112841D01*
X302203Y111621D01*
X303621Y110203D01*
X304841Y108613D01*
X305843Y106878D01*
X305886Y106775D01*
X305892Y106763D01*
X305896Y106750D01*
X305987Y106586D01*
X306076Y106420D01*
X306085Y106409D01*
X306091Y106398D01*
X306212Y106255D01*
X306332Y106109D01*
X306343Y106101D01*
X306352Y106091D01*
X306499Y105975D01*
X306645Y105856D01*
X306657Y105849D01*
X306667Y105841D01*
X306835Y105756D01*
X307001Y105669D01*
X307014Y105665D01*
X307026Y105659D01*
X307207Y105608D01*
X307388Y105555D01*
X307401Y105554D01*
X307414Y105551D01*
X307603Y105537D01*
X307789Y105521D01*
X307802Y105522D01*
X307816Y105521D01*
X308003Y105545D01*
X308189Y105566D01*
X308202Y105570D01*
X308215Y105572D01*
X308393Y105631D01*
X308572Y105689D01*
X308584Y105696D01*
X308597Y105700D01*
X308760Y105794D01*
X308924Y105885D01*
X308934Y105894D01*
X308946Y105901D01*
X309199Y106116D01*
X325032Y121949D01*
X325049Y121970D01*
X325070Y121987D01*
X325177Y122125D01*
X325287Y122261D01*
X325300Y122284D01*
X325316Y122305D01*
X325394Y122462D01*
X325476Y122616D01*
X325484Y122642D01*
X325496Y122666D01*
X325541Y122835D01*
X325591Y123002D01*
X325593Y123029D01*
X325600Y123055D01*
X325627Y123385D01*
X325627Y238565D01*
X325625Y238591D01*
X325627Y238618D01*
X325605Y238792D01*
X325587Y238965D01*
X325580Y238991D01*
X325576Y239017D01*
X325521Y239183D01*
X325469Y239350D01*
X325456Y239374D01*
X325448Y239399D01*
X325361Y239551D01*
X325277Y239704D01*
X325260Y239725D01*
X325247Y239748D01*
X325032Y240001D01*
X300326Y264707D01*
X300305Y264724D01*
X300288Y264745D01*
X300150Y264852D01*
X300014Y264962D01*
X299991Y264975D01*
X299970Y264991D01*
X299813Y265069D01*
X299659Y265151D01*
X299633Y265159D01*
X299609Y265171D01*
X299440Y265216D01*
X299273Y265266D01*
X299246Y265268D01*
X299220Y265275D01*
X298890Y265302D01*
X267920Y265302D01*
X267894Y265300D01*
X267867Y265302D01*
X267693Y265280D01*
X267520Y265262D01*
X267494Y265255D01*
X267468Y265251D01*
X267302Y265196D01*
X267135Y265144D01*
X267111Y265131D01*
X267086Y265123D01*
X266934Y265036D01*
X266781Y264952D01*
X266760Y264935D01*
X266737Y264922D01*
X266484Y264707D01*
X265446Y263670D01*
X264171Y263141D01*
X262756Y262555D01*
X259844Y262555D01*
X257154Y263670D01*
X256116Y264707D01*
X256095Y264724D01*
X256078Y264745D01*
X255940Y264852D01*
X255804Y264962D01*
X255781Y264975D01*
X255760Y264991D01*
X255603Y265069D01*
X255449Y265151D01*
X255423Y265159D01*
X255399Y265171D01*
X255230Y265216D01*
X255063Y265266D01*
X255036Y265268D01*
X255010Y265275D01*
X254680Y265302D01*
X224515Y265302D01*
X222835Y265998D01*
X194545Y294288D01*
X193986Y294847D01*
X193975Y294856D01*
X193967Y294866D01*
X193820Y294983D01*
X193674Y295103D01*
X193662Y295109D01*
X193652Y295117D01*
X193485Y295203D01*
X193319Y295291D01*
X193306Y295295D01*
X193294Y295301D01*
X193114Y295352D01*
X192933Y295406D01*
X192919Y295407D01*
X192906Y295411D01*
X192721Y295425D01*
X192532Y295442D01*
X192518Y295441D01*
X192505Y295442D01*
X192320Y295419D01*
X192131Y295399D01*
X192119Y295395D01*
X192105Y295393D01*
X191927Y295334D01*
X191748Y295277D01*
X191736Y295271D01*
X191723Y295267D01*
X191559Y295173D01*
X191395Y295083D01*
X191385Y295074D01*
X191373Y295067D01*
X191231Y294944D01*
X191088Y294822D01*
X191080Y294812D01*
X191070Y294803D01*
X190955Y294654D01*
X190839Y294506D01*
X190833Y294494D01*
X190824Y294484D01*
X190673Y294188D01*
X189405Y291129D01*
X187346Y289070D01*
X184656Y287955D01*
X181744Y287955D01*
X179054Y289070D01*
X176995Y291129D01*
X175880Y293819D01*
X175880Y296731D01*
X176995Y299421D01*
X179054Y301480D01*
X181744Y302595D01*
X184656Y302595D01*
X187346Y301480D01*
X188810Y300017D01*
X188817Y300011D01*
X188822Y300004D01*
X188972Y299884D01*
X189121Y299762D01*
X189129Y299758D01*
X189136Y299752D01*
X189306Y299664D01*
X189477Y299573D01*
X189486Y299571D01*
X189493Y299567D01*
X189678Y299514D01*
X189863Y299458D01*
X189872Y299458D01*
X189880Y299455D01*
X190071Y299440D01*
X190264Y299422D01*
X190273Y299423D01*
X190282Y299422D01*
X190471Y299445D01*
X190664Y299465D01*
X190673Y299468D01*
X190681Y299469D01*
X190863Y299529D01*
X191048Y299587D01*
X191056Y299591D01*
X191064Y299594D01*
X191231Y299688D01*
X191400Y299782D01*
X191407Y299788D01*
X191415Y299792D01*
X191560Y299917D01*
X191707Y300042D01*
X191713Y300049D01*
X191720Y300055D01*
X191836Y300206D01*
X191957Y300358D01*
X191961Y300366D01*
X191966Y300373D01*
X192052Y300545D01*
X192139Y300717D01*
X192142Y300726D01*
X192146Y300734D01*
X192196Y300920D01*
X192247Y301105D01*
X192248Y301114D01*
X192250Y301123D01*
X192277Y301453D01*
X192277Y321115D01*
X192275Y321141D01*
X192277Y321168D01*
X192255Y321342D01*
X192237Y321515D01*
X192230Y321541D01*
X192226Y321567D01*
X192171Y321733D01*
X192119Y321900D01*
X192106Y321924D01*
X192098Y321949D01*
X192011Y322101D01*
X191927Y322254D01*
X191910Y322275D01*
X191897Y322298D01*
X191682Y322551D01*
X185899Y328334D01*
X185878Y328351D01*
X185861Y328372D01*
X185723Y328479D01*
X185587Y328589D01*
X185564Y328602D01*
X185543Y328618D01*
X185386Y328696D01*
X185232Y328778D01*
X185206Y328786D01*
X185182Y328798D01*
X185013Y328843D01*
X184846Y328893D01*
X184819Y328895D01*
X184793Y328902D01*
X184463Y328929D01*
X182634Y328929D01*
X179833Y330089D01*
X177689Y332233D01*
X176529Y335034D01*
X176529Y338066D01*
X177689Y340867D01*
X179833Y343011D01*
X182634Y344171D01*
X184463Y344171D01*
X184489Y344173D01*
X184516Y344171D01*
X184690Y344193D01*
X184863Y344211D01*
X184889Y344218D01*
X184915Y344222D01*
X185081Y344277D01*
X185248Y344329D01*
X185272Y344342D01*
X185297Y344350D01*
X185449Y344437D01*
X185602Y344521D01*
X185623Y344538D01*
X185646Y344551D01*
X185899Y344766D01*
X223432Y382299D01*
X223449Y382320D01*
X223470Y382337D01*
X223577Y382475D01*
X223687Y382611D01*
X223700Y382634D01*
X223716Y382655D01*
X223794Y382812D01*
X223876Y382966D01*
X223884Y382992D01*
X223896Y383016D01*
X223941Y383185D01*
X223991Y383352D01*
X223993Y383379D01*
X224000Y383405D01*
X224027Y383735D01*
X224027Y458110D01*
X224723Y459790D01*
X257760Y492827D01*
X259440Y493523D01*
X276665Y493523D01*
X276691Y493525D01*
X276718Y493523D01*
X276892Y493545D01*
X277065Y493563D01*
X277091Y493570D01*
X277117Y493574D01*
X277283Y493629D01*
X277450Y493681D01*
X277474Y493694D01*
X277499Y493702D01*
X277651Y493789D01*
X277804Y493873D01*
X277825Y493890D01*
X277848Y493903D01*
X278101Y494118D01*
X283757Y499774D01*
X283774Y499795D01*
X283795Y499812D01*
X283902Y499950D01*
X284012Y500086D01*
X284025Y500109D01*
X284041Y500130D01*
X284119Y500287D01*
X284201Y500441D01*
X284209Y500467D01*
X284221Y500491D01*
X284266Y500660D01*
X284316Y500827D01*
X284318Y500854D01*
X284325Y500880D01*
X284352Y501210D01*
X284352Y507246D01*
X284350Y507273D01*
X284352Y507299D01*
X284330Y507473D01*
X284312Y507647D01*
X284305Y507672D01*
X284301Y507699D01*
X284245Y507865D01*
X284194Y508032D01*
X284181Y508055D01*
X284173Y508081D01*
X284086Y508232D01*
X284002Y508386D01*
X283985Y508406D01*
X283972Y508429D01*
X283757Y508682D01*
X279018Y513422D01*
X279018Y521628D01*
X284822Y527432D01*
X293028Y527432D01*
X298832Y521628D01*
X298832Y513422D01*
X294093Y508682D01*
X294076Y508662D01*
X294055Y508644D01*
X293948Y508506D01*
X293838Y508371D01*
X293825Y508347D01*
X293809Y508326D01*
X293731Y508170D01*
X293649Y508015D01*
X293641Y507990D01*
X293629Y507966D01*
X293584Y507796D01*
X293534Y507629D01*
X293532Y507603D01*
X293525Y507577D01*
X293498Y507246D01*
X293498Y497565D01*
X292802Y495885D01*
X281990Y485073D01*
X280310Y484377D01*
X263085Y484377D01*
X263059Y484375D01*
X263032Y484377D01*
X262858Y484355D01*
X262685Y484337D01*
X262659Y484330D01*
X262633Y484326D01*
X262467Y484271D01*
X262300Y484219D01*
X262276Y484206D01*
X262251Y484198D01*
X262099Y484111D01*
X261946Y484027D01*
X261925Y484010D01*
X261902Y483997D01*
X261649Y483782D01*
X233768Y455901D01*
X233751Y455880D01*
X233730Y455863D01*
X233623Y455725D01*
X233513Y455589D01*
X233500Y455566D01*
X233484Y455545D01*
X233406Y455388D01*
X233324Y455234D01*
X233316Y455208D01*
X233304Y455184D01*
X233259Y455015D01*
X233209Y454848D01*
X233207Y454821D01*
X233200Y454795D01*
X233173Y454465D01*
X233173Y380090D01*
X232477Y378410D01*
X192366Y338299D01*
X192349Y338278D01*
X192328Y338261D01*
X192221Y338123D01*
X192111Y337987D01*
X192098Y337964D01*
X192082Y337943D01*
X192004Y337786D01*
X191922Y337632D01*
X191914Y337606D01*
X191902Y337582D01*
X191857Y337413D01*
X191807Y337246D01*
X191805Y337219D01*
X191798Y337193D01*
X191771Y336863D01*
X191771Y336237D01*
X191773Y336211D01*
X191771Y336184D01*
X191793Y336010D01*
X191811Y335837D01*
X191818Y335811D01*
X191822Y335785D01*
X191877Y335619D01*
X191929Y335452D01*
X191942Y335428D01*
X191950Y335403D01*
X192037Y335251D01*
X192121Y335098D01*
X192138Y335077D01*
X192151Y335054D01*
X192366Y334801D01*
X200727Y326440D01*
X201423Y324760D01*
X201423Y301185D01*
X201425Y301159D01*
X201423Y301132D01*
X201445Y300958D01*
X201463Y300785D01*
X201470Y300759D01*
X201474Y300733D01*
X201529Y300567D01*
X201581Y300400D01*
X201594Y300376D01*
X201602Y300351D01*
X201689Y300199D01*
X201773Y300046D01*
X201790Y300025D01*
X201803Y300002D01*
X202018Y299749D01*
X226724Y275043D01*
X226745Y275026D01*
X226762Y275005D01*
X226900Y274898D01*
X227036Y274788D01*
X227059Y274775D01*
X227080Y274759D01*
X227237Y274681D01*
X227391Y274599D01*
X227417Y274591D01*
X227441Y274579D01*
X227610Y274534D01*
X227777Y274484D01*
X227804Y274482D01*
X227830Y274475D01*
X228160Y274448D01*
X254680Y274448D01*
X254706Y274450D01*
X254733Y274448D01*
X254907Y274470D01*
X255080Y274488D01*
X255106Y274495D01*
X255132Y274499D01*
X255298Y274554D01*
X255465Y274606D01*
X255489Y274619D01*
X255514Y274627D01*
X255666Y274714D01*
X255819Y274798D01*
X255840Y274815D01*
X255863Y274828D01*
X256116Y275043D01*
X257154Y276080D01*
X259844Y277195D01*
X262756Y277195D01*
X265446Y276080D01*
X266484Y275043D01*
X266505Y275026D01*
X266522Y275005D01*
X266660Y274898D01*
X266796Y274788D01*
X266819Y274775D01*
X266840Y274759D01*
X266997Y274681D01*
X267151Y274599D01*
X267177Y274591D01*
X267201Y274579D01*
X267370Y274534D01*
X267537Y274484D01*
X267564Y274482D01*
X267590Y274475D01*
X267920Y274448D01*
X302535Y274448D01*
X304215Y273752D01*
X334077Y243890D01*
X334773Y242210D01*
X334773Y178054D01*
X334775Y178036D01*
X334773Y178018D01*
X334794Y177836D01*
X334813Y177653D01*
X334818Y177636D01*
X334820Y177619D01*
X334877Y177444D01*
X334931Y177268D01*
X334939Y177253D01*
X334945Y177236D01*
X335035Y177076D01*
X335123Y176914D01*
X335134Y176901D01*
X335143Y176885D01*
X335263Y176746D01*
X335380Y176605D01*
X335394Y176594D01*
X335406Y176580D01*
X335551Y176468D01*
X335694Y176353D01*
X335710Y176345D01*
X335724Y176334D01*
X335889Y176252D01*
X336051Y176167D01*
X336068Y176162D01*
X336084Y176154D01*
X336263Y176107D01*
X336438Y176056D01*
X336456Y176054D01*
X336473Y176050D01*
X336804Y176023D01*
X343810Y176023D01*
X345490Y175327D01*
X372179Y148637D01*
X372264Y148484D01*
X372353Y148318D01*
X372362Y148307D01*
X372368Y148296D01*
X372489Y148153D01*
X372610Y148007D01*
X372620Y147999D01*
X372629Y147989D01*
X372776Y147873D01*
X372922Y147754D01*
X372934Y147747D01*
X372945Y147739D01*
X373113Y147654D01*
X373279Y147567D01*
X373292Y147563D01*
X373304Y147557D01*
X373486Y147506D01*
X373665Y147453D01*
X373679Y147452D01*
X373692Y147449D01*
X373880Y147435D01*
X374066Y147419D01*
X374080Y147420D01*
X374093Y147419D01*
X374282Y147443D01*
X374467Y147464D01*
X374479Y147468D01*
X374493Y147470D01*
X374672Y147530D01*
X374850Y147587D01*
X374862Y147594D01*
X374874Y147598D01*
X375038Y147692D01*
X375201Y147784D01*
X375211Y147792D01*
X375223Y147799D01*
X375476Y148014D01*
X379264Y151802D01*
X384511Y153975D01*
X390189Y153975D01*
X395436Y151802D01*
X399452Y147786D01*
X401625Y142539D01*
X401625Y136861D01*
X399452Y131614D01*
X395436Y127598D01*
X390189Y125425D01*
X384511Y125425D01*
X379264Y127598D01*
X376340Y130522D01*
X376333Y130528D01*
X376328Y130535D01*
X376178Y130655D01*
X376029Y130777D01*
X376021Y130781D01*
X376014Y130787D01*
X375844Y130876D01*
X375673Y130966D01*
X375664Y130968D01*
X375657Y130973D01*
X375472Y131026D01*
X375287Y131081D01*
X375278Y131081D01*
X375270Y131084D01*
X375079Y131100D01*
X374886Y131117D01*
X374877Y131116D01*
X374868Y131117D01*
X374679Y131095D01*
X374486Y131074D01*
X374477Y131071D01*
X374469Y131070D01*
X374287Y131011D01*
X374102Y130952D01*
X374094Y130948D01*
X374086Y130945D01*
X373917Y130850D01*
X373750Y130757D01*
X373743Y130752D01*
X373735Y130747D01*
X373589Y130621D01*
X373443Y130497D01*
X373437Y130490D01*
X373430Y130484D01*
X373313Y130333D01*
X373193Y130181D01*
X373189Y130173D01*
X373184Y130166D01*
X373098Y129994D01*
X373011Y129822D01*
X373008Y129813D01*
X373004Y129805D01*
X372954Y129619D01*
X372903Y129434D01*
X372902Y129425D01*
X372900Y129417D01*
X372873Y129086D01*
X372873Y112151D01*
X372874Y112142D01*
X372873Y112133D01*
X372894Y111941D01*
X372913Y111750D01*
X372915Y111742D01*
X372916Y111733D01*
X372974Y111550D01*
X373031Y111365D01*
X373035Y111357D01*
X373038Y111349D01*
X373131Y111181D01*
X373223Y111011D01*
X373228Y111005D01*
X373233Y110997D01*
X373358Y110849D01*
X373480Y110702D01*
X373487Y110697D01*
X373493Y110690D01*
X373645Y110570D01*
X373794Y110450D01*
X373802Y110446D01*
X373809Y110440D01*
X373982Y110352D01*
X374151Y110264D01*
X374160Y110262D01*
X374168Y110258D01*
X374353Y110206D01*
X374538Y110153D01*
X374547Y110152D01*
X374556Y110150D01*
X374748Y110136D01*
X374940Y110120D01*
X374948Y110121D01*
X374957Y110120D01*
X375148Y110145D01*
X375339Y110167D01*
X375348Y110170D01*
X375357Y110171D01*
X375538Y110232D01*
X375722Y110292D01*
X375730Y110296D01*
X375738Y110299D01*
X375906Y110395D01*
X376073Y110490D01*
X376080Y110496D01*
X376087Y110500D01*
X376340Y110715D01*
X377247Y111621D01*
X378837Y112841D01*
X380573Y113843D01*
X382424Y114610D01*
X383287Y114841D01*
X383287Y102132D01*
X383289Y102114D01*
X383287Y102097D01*
X383308Y101914D01*
X383327Y101732D01*
X383332Y101714D01*
X383334Y101697D01*
X383391Y101522D01*
X383445Y101347D01*
X383453Y101331D01*
X383459Y101314D01*
X383549Y101154D01*
X383637Y100993D01*
X383648Y100979D01*
X383657Y100963D01*
X383777Y100824D01*
X383894Y100683D01*
X383908Y100672D01*
X383920Y100659D01*
X384065Y100546D01*
X384208Y100431D01*
X384224Y100423D01*
X384238Y100412D01*
X384403Y100330D01*
X384565Y100245D01*
X384582Y100241D01*
X384599Y100233D01*
X384777Y100185D01*
X384952Y100134D01*
X384970Y100133D01*
X384987Y100128D01*
X385318Y100101D01*
X387351Y100101D01*
X387351Y100099D01*
X385318Y100099D01*
X385300Y100097D01*
X385282Y100099D01*
X385100Y100077D01*
X384917Y100059D01*
X384900Y100054D01*
X384883Y100052D01*
X384708Y99995D01*
X384532Y99941D01*
X384517Y99933D01*
X384500Y99927D01*
X384340Y99837D01*
X384178Y99749D01*
X384165Y99738D01*
X384149Y99729D01*
X384010Y99609D01*
X383869Y99492D01*
X383858Y99478D01*
X383845Y99466D01*
X383732Y99321D01*
X383617Y99178D01*
X383609Y99162D01*
X383598Y99148D01*
X383516Y98983D01*
X383431Y98820D01*
X383426Y98803D01*
X383418Y98787D01*
X383371Y98609D01*
X383320Y98434D01*
X383318Y98416D01*
X383314Y98399D01*
X383287Y98068D01*
X383287Y85359D01*
X382424Y85590D01*
X380573Y86357D01*
X378837Y87359D01*
X377247Y88579D01*
X376340Y89485D01*
X376333Y89491D01*
X376328Y89498D01*
X376179Y89618D01*
X376029Y89740D01*
X376021Y89745D01*
X376014Y89750D01*
X375844Y89838D01*
X375673Y89929D01*
X375664Y89932D01*
X375657Y89936D01*
X375472Y89989D01*
X375287Y90044D01*
X375278Y90045D01*
X375270Y90047D01*
X375079Y90063D01*
X374886Y90080D01*
X374877Y90079D01*
X374868Y90080D01*
X374679Y90058D01*
X374486Y90037D01*
X374477Y90034D01*
X374469Y90033D01*
X374286Y89974D01*
X374102Y89915D01*
X374094Y89911D01*
X374086Y89908D01*
X373919Y89814D01*
X373750Y89721D01*
X373743Y89715D01*
X373735Y89710D01*
X373590Y89585D01*
X373443Y89460D01*
X373437Y89453D01*
X373430Y89447D01*
X373313Y89296D01*
X373193Y89144D01*
X373189Y89136D01*
X373184Y89129D01*
X373098Y88957D01*
X373011Y88785D01*
X373008Y88777D01*
X373004Y88769D01*
X372955Y88583D01*
X372903Y88397D01*
X372902Y88388D01*
X372900Y88380D01*
X372873Y88049D01*
X372873Y79756D01*
X372875Y79738D01*
X372873Y79720D01*
X372894Y79538D01*
X372913Y79355D01*
X372918Y79338D01*
X372920Y79321D01*
X372977Y79146D01*
X373031Y78970D01*
X373039Y78955D01*
X373045Y78938D01*
X373135Y78778D01*
X373223Y78616D01*
X373234Y78603D01*
X373243Y78587D01*
X373363Y78448D01*
X373480Y78307D01*
X373494Y78296D01*
X373506Y78282D01*
X373651Y78170D01*
X373794Y78055D01*
X373810Y78047D01*
X373824Y78036D01*
X373989Y77954D01*
X374151Y77869D01*
X374168Y77864D01*
X374184Y77856D01*
X374363Y77809D01*
X374538Y77758D01*
X374556Y77756D01*
X374573Y77752D01*
X374904Y77725D01*
X387982Y77725D01*
X388875Y76832D01*
X388875Y50168D01*
X387982Y49275D01*
X374018Y49275D01*
X373125Y50168D01*
X373125Y64067D01*
X373123Y64093D01*
X373125Y64120D01*
X373103Y64294D01*
X373085Y64467D01*
X373078Y64493D01*
X373074Y64519D01*
X373019Y64685D01*
X372967Y64852D01*
X372954Y64876D01*
X372946Y64901D01*
X372859Y65052D01*
X372775Y65206D01*
X372758Y65227D01*
X372745Y65250D01*
X372530Y65503D01*
X366942Y71091D01*
X366935Y71097D01*
X366930Y71103D01*
X366780Y71224D01*
X366631Y71346D01*
X366623Y71350D01*
X366616Y71356D01*
X366446Y71444D01*
X366275Y71535D01*
X366266Y71537D01*
X366259Y71541D01*
X366074Y71594D01*
X365889Y71649D01*
X365880Y71650D01*
X365872Y71653D01*
X365680Y71668D01*
X365488Y71686D01*
X365479Y71685D01*
X365470Y71686D01*
X365281Y71663D01*
X365088Y71642D01*
X365079Y71640D01*
X365071Y71639D01*
X364889Y71579D01*
X364704Y71521D01*
X364696Y71517D01*
X364688Y71514D01*
X364519Y71419D01*
X364352Y71326D01*
X364345Y71320D01*
X364337Y71316D01*
X364191Y71190D01*
X364045Y71066D01*
X364039Y71059D01*
X364032Y71053D01*
X363915Y70901D01*
X363795Y70750D01*
X363791Y70742D01*
X363786Y70735D01*
X363700Y70563D01*
X363613Y70391D01*
X363610Y70382D01*
X363606Y70374D01*
X363556Y70188D01*
X363505Y70003D01*
X363504Y69994D01*
X363502Y69985D01*
X363475Y69655D01*
X363475Y50168D01*
X362582Y49275D01*
X351441Y49275D01*
X351415Y49273D01*
X351388Y49275D01*
X351214Y49253D01*
X351041Y49235D01*
X351015Y49228D01*
X350989Y49224D01*
X350823Y49169D01*
X350656Y49117D01*
X350632Y49104D01*
X350607Y49096D01*
X350455Y49009D01*
X350302Y48925D01*
X350281Y48908D01*
X350258Y48895D01*
X350089Y48751D01*
X349893Y48767D01*
X334637Y48767D01*
X334628Y48766D01*
X334619Y48767D01*
X334425Y48746D01*
X334236Y48727D01*
X334228Y48725D01*
X334219Y48724D01*
X334035Y48666D01*
X333851Y48609D01*
X333843Y48605D01*
X333835Y48602D01*
X333667Y48509D01*
X333497Y48417D01*
X333490Y48412D01*
X333483Y48407D01*
X333336Y48283D01*
X333188Y48160D01*
X333182Y48153D01*
X333176Y48147D01*
X333057Y47996D01*
X332936Y47846D01*
X332932Y47838D01*
X332926Y47831D01*
X332838Y47658D01*
X332750Y47489D01*
X332748Y47480D01*
X332744Y47472D01*
X332692Y47286D01*
X332639Y47102D01*
X332638Y47093D01*
X332636Y47084D01*
X332622Y46891D01*
X332606Y46700D01*
X332607Y46692D01*
X332606Y46683D01*
X332631Y46490D01*
X332653Y46301D01*
X332656Y46292D01*
X332657Y46283D01*
X332718Y46100D01*
X332778Y45918D01*
X332782Y45910D01*
X332785Y45902D01*
X332881Y45735D01*
X332976Y45567D01*
X332981Y45560D01*
X332986Y45553D01*
X333200Y45300D01*
X339472Y39028D01*
X339472Y30822D01*
X333668Y25018D01*
X325462Y25018D01*
X319658Y30822D01*
X319658Y39028D01*
X325930Y45300D01*
X325935Y45307D01*
X325942Y45312D01*
X326062Y45462D01*
X326185Y45611D01*
X326189Y45619D01*
X326194Y45626D01*
X326283Y45796D01*
X326373Y45967D01*
X326376Y45976D01*
X326380Y45983D01*
X326433Y46167D01*
X326488Y46353D01*
X326489Y46362D01*
X326491Y46370D01*
X326507Y46562D01*
X326524Y46754D01*
X326523Y46763D01*
X326524Y46772D01*
X326502Y46961D01*
X326481Y47154D01*
X326478Y47163D01*
X326477Y47171D01*
X326418Y47353D01*
X326359Y47538D01*
X326355Y47546D01*
X326352Y47554D01*
X326257Y47723D01*
X326165Y47890D01*
X326159Y47897D01*
X326154Y47905D01*
X326029Y48051D01*
X325904Y48197D01*
X325897Y48203D01*
X325891Y48210D01*
X325740Y48327D01*
X325588Y48447D01*
X325580Y48451D01*
X325573Y48456D01*
X325402Y48542D01*
X325229Y48629D01*
X325221Y48632D01*
X325213Y48636D01*
X325026Y48686D01*
X324841Y48737D01*
X324833Y48738D01*
X324824Y48740D01*
X324493Y48767D01*
X309237Y48767D01*
X309228Y48766D01*
X309219Y48767D01*
X309025Y48746D01*
X308836Y48727D01*
X308828Y48725D01*
X308819Y48724D01*
X308635Y48666D01*
X308451Y48609D01*
X308443Y48605D01*
X308435Y48602D01*
X308267Y48509D01*
X308097Y48417D01*
X308090Y48412D01*
X308083Y48407D01*
X307936Y48283D01*
X307788Y48160D01*
X307782Y48153D01*
X307776Y48147D01*
X307657Y47996D01*
X307536Y47846D01*
X307532Y47838D01*
X307526Y47831D01*
X307438Y47658D01*
X307350Y47489D01*
X307348Y47480D01*
X307344Y47472D01*
X307292Y47286D01*
X307239Y47102D01*
X307238Y47093D01*
X307236Y47084D01*
X307222Y46891D01*
X307206Y46700D01*
X307207Y46692D01*
X307206Y46683D01*
X307231Y46490D01*
X307253Y46301D01*
X307256Y46292D01*
X307257Y46283D01*
X307318Y46100D01*
X307378Y45918D01*
X307382Y45910D01*
X307385Y45902D01*
X307481Y45735D01*
X307576Y45567D01*
X307581Y45560D01*
X307586Y45553D01*
X307800Y45300D01*
X314072Y39028D01*
X314072Y30822D01*
X308268Y25018D01*
X300062Y25018D01*
G37*
%LPD*%
%LPC*%
G36*
X132422Y25018D02*
X132422Y25018D01*
X126618Y30822D01*
X126618Y39028D01*
X132373Y44784D01*
X132390Y44804D01*
X132411Y44822D01*
X132518Y44960D01*
X132628Y45095D01*
X132641Y45119D01*
X132657Y45140D01*
X132735Y45296D01*
X132817Y45451D01*
X132825Y45476D01*
X132837Y45500D01*
X132882Y45670D01*
X132932Y45837D01*
X132934Y45863D01*
X132941Y45889D01*
X132968Y46220D01*
X132968Y148533D01*
X132966Y148559D01*
X132968Y148586D01*
X132946Y148760D01*
X132928Y148933D01*
X132921Y148959D01*
X132917Y148985D01*
X132862Y149151D01*
X132810Y149318D01*
X132797Y149342D01*
X132789Y149367D01*
X132702Y149519D01*
X132618Y149672D01*
X132601Y149693D01*
X132588Y149716D01*
X132373Y149969D01*
X81700Y200642D01*
X81693Y200648D01*
X81688Y200655D01*
X81538Y200775D01*
X81389Y200897D01*
X81381Y200901D01*
X81374Y200907D01*
X81203Y200996D01*
X81033Y201086D01*
X81025Y201088D01*
X81017Y201092D01*
X80831Y201146D01*
X80647Y201201D01*
X80638Y201201D01*
X80630Y201204D01*
X80438Y201219D01*
X80246Y201237D01*
X80237Y201236D01*
X80228Y201237D01*
X80039Y201214D01*
X79846Y201194D01*
X79837Y201191D01*
X79829Y201190D01*
X79647Y201130D01*
X79462Y201072D01*
X79454Y201068D01*
X79446Y201065D01*
X79277Y200970D01*
X79110Y200877D01*
X79103Y200871D01*
X79095Y200867D01*
X78949Y200741D01*
X78803Y200617D01*
X78797Y200610D01*
X78790Y200604D01*
X78673Y200452D01*
X78553Y200301D01*
X78549Y200293D01*
X78544Y200286D01*
X78458Y200114D01*
X78371Y199942D01*
X78368Y199933D01*
X78364Y199925D01*
X78314Y199739D01*
X78263Y199554D01*
X78262Y199545D01*
X78260Y199536D01*
X78233Y199206D01*
X78233Y196553D01*
X73322Y191642D01*
X66378Y191642D01*
X61467Y196553D01*
X61467Y203497D01*
X61639Y203669D01*
X61644Y203676D01*
X61651Y203681D01*
X61771Y203830D01*
X61894Y203980D01*
X61898Y203988D01*
X61904Y203995D01*
X61991Y204164D01*
X62082Y204336D01*
X62085Y204345D01*
X62089Y204352D01*
X62141Y204533D01*
X62197Y204722D01*
X62198Y204731D01*
X62201Y204739D01*
X62216Y204930D01*
X62234Y205123D01*
X62233Y205132D01*
X62233Y205141D01*
X62211Y205330D01*
X62190Y205523D01*
X62188Y205532D01*
X62186Y205540D01*
X62127Y205723D01*
X62069Y205907D01*
X62064Y205915D01*
X62062Y205923D01*
X61967Y206092D01*
X61874Y206259D01*
X61868Y206266D01*
X61864Y206274D01*
X61738Y206419D01*
X61613Y206566D01*
X61606Y206572D01*
X61601Y206579D01*
X61449Y206696D01*
X61298Y206816D01*
X61290Y206820D01*
X61282Y206825D01*
X61109Y206912D01*
X60939Y206998D01*
X60930Y207001D01*
X60922Y207005D01*
X60734Y207055D01*
X60551Y207106D01*
X60542Y207107D01*
X60533Y207109D01*
X60202Y207136D01*
X57709Y207136D01*
X48398Y216447D01*
X48377Y216464D01*
X48359Y216485D01*
X48222Y216592D01*
X48086Y216702D01*
X48063Y216715D01*
X48041Y216731D01*
X47884Y216809D01*
X47730Y216891D01*
X47705Y216899D01*
X47681Y216911D01*
X47511Y216956D01*
X47345Y217006D01*
X47318Y217008D01*
X47292Y217015D01*
X46961Y217042D01*
X40978Y217042D01*
X36067Y221953D01*
X36067Y254297D01*
X40978Y259208D01*
X47922Y259208D01*
X47962Y259168D01*
X47983Y259151D01*
X48000Y259130D01*
X48138Y259023D01*
X48274Y258913D01*
X48297Y258900D01*
X48319Y258884D01*
X48476Y258806D01*
X48630Y258724D01*
X48655Y258716D01*
X48679Y258704D01*
X48849Y258659D01*
X49015Y258609D01*
X49042Y258607D01*
X49068Y258600D01*
X49399Y258573D01*
X64901Y258573D01*
X64928Y258575D01*
X64955Y258573D01*
X65129Y258595D01*
X65302Y258613D01*
X65328Y258620D01*
X65354Y258624D01*
X65520Y258679D01*
X65687Y258731D01*
X65711Y258744D01*
X65736Y258752D01*
X65887Y258839D01*
X66041Y258923D01*
X66061Y258940D01*
X66085Y258953D01*
X66338Y259168D01*
X66378Y259208D01*
X73322Y259208D01*
X78233Y254297D01*
X78233Y248314D01*
X78235Y248287D01*
X78233Y248260D01*
X78255Y248086D01*
X78273Y247913D01*
X78280Y247888D01*
X78284Y247861D01*
X78339Y247695D01*
X78391Y247528D01*
X78404Y247505D01*
X78412Y247479D01*
X78499Y247328D01*
X78583Y247174D01*
X78600Y247154D01*
X78613Y247130D01*
X78828Y246877D01*
X216282Y109423D01*
X216282Y46220D01*
X216284Y46193D01*
X216282Y46167D01*
X216304Y45993D01*
X216322Y45819D01*
X216329Y45794D01*
X216333Y45767D01*
X216389Y45601D01*
X216440Y45434D01*
X216453Y45411D01*
X216461Y45385D01*
X216548Y45234D01*
X216632Y45080D01*
X216649Y45060D01*
X216662Y45037D01*
X216877Y44784D01*
X222632Y39028D01*
X222632Y30822D01*
X216828Y25018D01*
X208622Y25018D01*
X202818Y30822D01*
X202818Y39028D01*
X208573Y44784D01*
X208590Y44804D01*
X208611Y44822D01*
X208718Y44960D01*
X208828Y45095D01*
X208841Y45119D01*
X208857Y45140D01*
X208935Y45296D01*
X209017Y45451D01*
X209025Y45476D01*
X209037Y45500D01*
X209082Y45670D01*
X209132Y45837D01*
X209134Y45863D01*
X209141Y45889D01*
X209168Y46220D01*
X209168Y105635D01*
X209166Y105662D01*
X209168Y105689D01*
X209146Y105863D01*
X209128Y106036D01*
X209121Y106061D01*
X209117Y106088D01*
X209062Y106254D01*
X209010Y106421D01*
X208997Y106444D01*
X208989Y106470D01*
X208902Y106621D01*
X208818Y106775D01*
X208801Y106795D01*
X208788Y106819D01*
X208573Y107072D01*
X194349Y121296D01*
X194342Y121301D01*
X194337Y121308D01*
X194187Y121429D01*
X194038Y121551D01*
X194030Y121555D01*
X194023Y121561D01*
X193853Y121649D01*
X193682Y121739D01*
X193673Y121742D01*
X193666Y121746D01*
X193481Y121799D01*
X193296Y121854D01*
X193287Y121855D01*
X193279Y121857D01*
X193087Y121873D01*
X192895Y121891D01*
X192886Y121890D01*
X192877Y121890D01*
X192688Y121868D01*
X192495Y121847D01*
X192486Y121844D01*
X192478Y121843D01*
X192296Y121784D01*
X192111Y121726D01*
X192103Y121721D01*
X192095Y121719D01*
X191926Y121624D01*
X191759Y121531D01*
X191752Y121525D01*
X191744Y121521D01*
X191598Y121395D01*
X191452Y121270D01*
X191446Y121263D01*
X191439Y121258D01*
X191322Y121106D01*
X191202Y120954D01*
X191198Y120946D01*
X191193Y120939D01*
X191107Y120767D01*
X191020Y120596D01*
X191017Y120587D01*
X191013Y120579D01*
X190963Y120392D01*
X190912Y120208D01*
X190911Y120199D01*
X190909Y120190D01*
X190882Y119859D01*
X190882Y46220D01*
X190884Y46193D01*
X190882Y46167D01*
X190904Y45993D01*
X190922Y45819D01*
X190929Y45794D01*
X190933Y45767D01*
X190989Y45601D01*
X191040Y45434D01*
X191053Y45411D01*
X191061Y45385D01*
X191148Y45234D01*
X191232Y45080D01*
X191249Y45060D01*
X191262Y45037D01*
X191477Y44784D01*
X197232Y39028D01*
X197232Y30822D01*
X191428Y25018D01*
X183222Y25018D01*
X177418Y30822D01*
X177418Y39028D01*
X183173Y44784D01*
X183190Y44804D01*
X183211Y44822D01*
X183318Y44960D01*
X183428Y45095D01*
X183441Y45119D01*
X183457Y45140D01*
X183535Y45296D01*
X183617Y45451D01*
X183625Y45476D01*
X183637Y45500D01*
X183682Y45670D01*
X183732Y45837D01*
X183734Y45863D01*
X183741Y45889D01*
X183768Y46220D01*
X183768Y123133D01*
X183766Y123159D01*
X183768Y123186D01*
X183746Y123360D01*
X183728Y123533D01*
X183721Y123559D01*
X183717Y123585D01*
X183662Y123751D01*
X183610Y123918D01*
X183597Y123942D01*
X183589Y123967D01*
X183502Y124119D01*
X183418Y124272D01*
X183401Y124293D01*
X183388Y124316D01*
X183173Y124569D01*
X177020Y130722D01*
X176999Y130739D01*
X176982Y130760D01*
X176844Y130867D01*
X176708Y130977D01*
X176685Y130990D01*
X176664Y131006D01*
X176507Y131084D01*
X176353Y131166D01*
X176327Y131174D01*
X176303Y131186D01*
X176134Y131231D01*
X175967Y131281D01*
X175940Y131283D01*
X175914Y131290D01*
X175584Y131317D01*
X167513Y131317D01*
X167495Y131315D01*
X167477Y131317D01*
X167295Y131296D01*
X167112Y131277D01*
X167095Y131272D01*
X167078Y131270D01*
X166903Y131213D01*
X166727Y131159D01*
X166712Y131151D01*
X166695Y131145D01*
X166535Y131055D01*
X166373Y130967D01*
X166360Y130956D01*
X166344Y130947D01*
X166205Y130827D01*
X166064Y130710D01*
X166053Y130696D01*
X166039Y130684D01*
X165927Y130539D01*
X165812Y130396D01*
X165804Y130380D01*
X165793Y130366D01*
X165711Y130201D01*
X165626Y130039D01*
X165621Y130022D01*
X165613Y130006D01*
X165566Y129827D01*
X165515Y129652D01*
X165513Y129634D01*
X165509Y129617D01*
X165482Y129286D01*
X165482Y46220D01*
X165484Y46193D01*
X165482Y46167D01*
X165504Y45993D01*
X165522Y45819D01*
X165529Y45794D01*
X165533Y45767D01*
X165589Y45601D01*
X165640Y45434D01*
X165653Y45411D01*
X165661Y45385D01*
X165748Y45234D01*
X165832Y45080D01*
X165849Y45060D01*
X165862Y45037D01*
X166077Y44784D01*
X171832Y39028D01*
X171832Y30822D01*
X166028Y25018D01*
X157822Y25018D01*
X152018Y30822D01*
X152018Y39028D01*
X157773Y44784D01*
X157790Y44804D01*
X157811Y44822D01*
X157918Y44960D01*
X158028Y45095D01*
X158041Y45119D01*
X158057Y45140D01*
X158135Y45296D01*
X158217Y45451D01*
X158225Y45476D01*
X158237Y45500D01*
X158282Y45670D01*
X158332Y45837D01*
X158334Y45863D01*
X158341Y45889D01*
X158368Y46220D01*
X158368Y130016D01*
X158366Y130042D01*
X158368Y130069D01*
X158346Y130243D01*
X158328Y130416D01*
X158321Y130442D01*
X158317Y130468D01*
X158261Y130634D01*
X158210Y130801D01*
X158197Y130825D01*
X158189Y130850D01*
X158102Y131001D01*
X158018Y131155D01*
X158001Y131176D01*
X157988Y131199D01*
X157773Y131452D01*
X156717Y132508D01*
X156717Y132686D01*
X156715Y132713D01*
X156717Y132740D01*
X156695Y132914D01*
X156677Y133087D01*
X156670Y133112D01*
X156666Y133139D01*
X156611Y133305D01*
X156559Y133472D01*
X156546Y133495D01*
X156538Y133521D01*
X156451Y133672D01*
X156367Y133826D01*
X156350Y133846D01*
X156337Y133870D01*
X156122Y134123D01*
X143549Y146696D01*
X143542Y146701D01*
X143537Y146708D01*
X143387Y146829D01*
X143238Y146951D01*
X143230Y146955D01*
X143223Y146961D01*
X143053Y147049D01*
X142882Y147139D01*
X142873Y147142D01*
X142866Y147146D01*
X142681Y147199D01*
X142496Y147254D01*
X142487Y147255D01*
X142479Y147257D01*
X142287Y147273D01*
X142095Y147291D01*
X142086Y147290D01*
X142077Y147290D01*
X141888Y147268D01*
X141695Y147247D01*
X141686Y147244D01*
X141678Y147243D01*
X141496Y147184D01*
X141311Y147126D01*
X141303Y147121D01*
X141295Y147119D01*
X141126Y147024D01*
X140959Y146931D01*
X140952Y146925D01*
X140944Y146921D01*
X140798Y146795D01*
X140652Y146670D01*
X140646Y146663D01*
X140639Y146658D01*
X140522Y146506D01*
X140402Y146354D01*
X140398Y146346D01*
X140393Y146339D01*
X140307Y146167D01*
X140220Y145996D01*
X140217Y145987D01*
X140213Y145979D01*
X140163Y145792D01*
X140112Y145608D01*
X140111Y145599D01*
X140109Y145590D01*
X140082Y145259D01*
X140082Y46220D01*
X140084Y46193D01*
X140082Y46167D01*
X140104Y45993D01*
X140122Y45819D01*
X140129Y45794D01*
X140133Y45767D01*
X140189Y45601D01*
X140240Y45434D01*
X140253Y45411D01*
X140261Y45385D01*
X140348Y45234D01*
X140432Y45080D01*
X140449Y45060D01*
X140462Y45037D01*
X140677Y44784D01*
X146432Y39028D01*
X146432Y30822D01*
X140628Y25018D01*
X132422Y25018D01*
G37*
%LPD*%
%LPC*%
G36*
X430845Y77751D02*
X430845Y77751D01*
X429082Y78482D01*
X427732Y79832D01*
X427001Y81595D01*
X427001Y83505D01*
X427745Y85299D01*
X427793Y85361D01*
X427903Y85496D01*
X427916Y85520D01*
X427932Y85541D01*
X428010Y85697D01*
X428092Y85852D01*
X428100Y85878D01*
X428112Y85902D01*
X428157Y86070D01*
X428207Y86238D01*
X428209Y86264D01*
X428216Y86290D01*
X428243Y86621D01*
X428243Y144368D01*
X428241Y144394D01*
X428243Y144421D01*
X428221Y144595D01*
X428203Y144768D01*
X428196Y144794D01*
X428192Y144821D01*
X428137Y144986D01*
X428085Y145153D01*
X428072Y145177D01*
X428064Y145202D01*
X427977Y145354D01*
X427893Y145507D01*
X427876Y145528D01*
X427863Y145551D01*
X427648Y145804D01*
X420247Y153205D01*
X420247Y192235D01*
X422926Y194913D01*
X427648Y199636D01*
X427665Y199657D01*
X427686Y199674D01*
X427793Y199812D01*
X427903Y199947D01*
X427916Y199971D01*
X427932Y199992D01*
X428010Y200149D01*
X428092Y200303D01*
X428100Y200329D01*
X428112Y200353D01*
X428157Y200522D01*
X428207Y200689D01*
X428209Y200716D01*
X428216Y200741D01*
X428243Y201072D01*
X428243Y397735D01*
X428241Y397762D01*
X428243Y397789D01*
X428221Y397963D01*
X428203Y398136D01*
X428196Y398162D01*
X428192Y398188D01*
X428137Y398354D01*
X428085Y398521D01*
X428072Y398545D01*
X428064Y398570D01*
X427977Y398721D01*
X427893Y398875D01*
X427876Y398895D01*
X427863Y398919D01*
X427648Y399172D01*
X319797Y507023D01*
X319776Y507040D01*
X319759Y507061D01*
X319621Y507168D01*
X319485Y507278D01*
X319462Y507291D01*
X319440Y507307D01*
X319283Y507385D01*
X319129Y507467D01*
X319104Y507475D01*
X319080Y507487D01*
X318910Y507532D01*
X318744Y507582D01*
X318717Y507584D01*
X318691Y507591D01*
X318360Y507618D01*
X310222Y507618D01*
X304418Y513422D01*
X304418Y521628D01*
X310222Y527432D01*
X318428Y527432D01*
X324232Y521628D01*
X324232Y513490D01*
X324234Y513463D01*
X324232Y513436D01*
X324254Y513262D01*
X324272Y513089D01*
X324279Y513063D01*
X324283Y513037D01*
X324338Y512871D01*
X324390Y512704D01*
X324403Y512680D01*
X324411Y512655D01*
X324498Y512504D01*
X324582Y512350D01*
X324599Y512330D01*
X324612Y512306D01*
X324827Y512053D01*
X432678Y404202D01*
X435357Y401523D01*
X435357Y197284D01*
X432679Y194606D01*
X432678Y194606D01*
X427956Y189883D01*
X427939Y189862D01*
X427918Y189845D01*
X427812Y189707D01*
X427701Y189572D01*
X427688Y189548D01*
X427672Y189527D01*
X427594Y189371D01*
X427512Y189216D01*
X427504Y189190D01*
X427492Y189166D01*
X427447Y188997D01*
X427397Y188830D01*
X427395Y188803D01*
X427388Y188778D01*
X427361Y188447D01*
X427361Y156993D01*
X427363Y156967D01*
X427361Y156940D01*
X427383Y156766D01*
X427401Y156593D01*
X427408Y156567D01*
X427412Y156540D01*
X427467Y156375D01*
X427519Y156208D01*
X427532Y156184D01*
X427540Y156159D01*
X427627Y156007D01*
X427711Y155854D01*
X427728Y155833D01*
X427741Y155810D01*
X427956Y155557D01*
X435357Y148156D01*
X435357Y86621D01*
X435359Y86594D01*
X435357Y86568D01*
X435379Y86394D01*
X435397Y86220D01*
X435404Y86195D01*
X435408Y86168D01*
X435464Y86003D01*
X435515Y85836D01*
X435528Y85812D01*
X435536Y85786D01*
X435623Y85635D01*
X435707Y85481D01*
X435724Y85461D01*
X435737Y85438D01*
X435856Y85297D01*
X436599Y83505D01*
X436599Y81595D01*
X435868Y79832D01*
X434518Y78482D01*
X432755Y77751D01*
X430845Y77751D01*
G37*
%LPD*%
%LPC*%
G36*
X253368Y49275D02*
X253368Y49275D01*
X252475Y50168D01*
X252475Y76832D01*
X253368Y77725D01*
X260096Y77725D01*
X260114Y77727D01*
X260132Y77725D01*
X260314Y77746D01*
X260497Y77765D01*
X260514Y77770D01*
X260531Y77772D01*
X260706Y77829D01*
X260882Y77883D01*
X260897Y77891D01*
X260914Y77897D01*
X261074Y77987D01*
X261236Y78075D01*
X261249Y78086D01*
X261265Y78095D01*
X261404Y78215D01*
X261545Y78332D01*
X261556Y78346D01*
X261570Y78358D01*
X261682Y78503D01*
X261797Y78646D01*
X261805Y78662D01*
X261816Y78676D01*
X261898Y78841D01*
X261983Y79003D01*
X261988Y79020D01*
X261996Y79036D01*
X262043Y79215D01*
X262094Y79390D01*
X262096Y79408D01*
X262100Y79425D01*
X262127Y79756D01*
X262127Y154810D01*
X262823Y156490D01*
X264395Y158062D01*
X277230Y170897D01*
X277247Y170918D01*
X277268Y170935D01*
X277375Y171073D01*
X277485Y171209D01*
X277498Y171232D01*
X277514Y171253D01*
X277592Y171410D01*
X277674Y171564D01*
X277682Y171590D01*
X277694Y171614D01*
X277739Y171783D01*
X277789Y171950D01*
X277791Y171977D01*
X277798Y172003D01*
X277825Y172333D01*
X277825Y192682D01*
X278718Y193575D01*
X305482Y193575D01*
X306375Y192682D01*
X306375Y165918D01*
X305482Y165025D01*
X285133Y165025D01*
X285107Y165023D01*
X285080Y165025D01*
X284906Y165003D01*
X284733Y164985D01*
X284707Y164978D01*
X284681Y164974D01*
X284515Y164918D01*
X284348Y164867D01*
X284324Y164854D01*
X284299Y164846D01*
X284147Y164759D01*
X283994Y164675D01*
X283973Y164658D01*
X283950Y164645D01*
X283697Y164430D01*
X271868Y152601D01*
X271851Y152580D01*
X271830Y152563D01*
X271723Y152425D01*
X271613Y152289D01*
X271600Y152266D01*
X271584Y152245D01*
X271506Y152088D01*
X271424Y151934D01*
X271416Y151908D01*
X271404Y151884D01*
X271359Y151715D01*
X271309Y151548D01*
X271307Y151521D01*
X271300Y151495D01*
X271273Y151165D01*
X271273Y68940D01*
X270577Y67260D01*
X268820Y65503D01*
X268803Y65482D01*
X268782Y65465D01*
X268675Y65327D01*
X268565Y65191D01*
X268552Y65168D01*
X268536Y65147D01*
X268458Y64990D01*
X268376Y64836D01*
X268368Y64810D01*
X268356Y64786D01*
X268311Y64617D01*
X268261Y64450D01*
X268259Y64423D01*
X268252Y64397D01*
X268225Y64067D01*
X268225Y50168D01*
X267332Y49275D01*
X253368Y49275D01*
G37*
%LPD*%
%LPC*%
G36*
X460164Y147428D02*
X460164Y147428D01*
X451513Y151736D01*
X445003Y158877D01*
X441512Y167888D01*
X441512Y177552D01*
X445003Y186563D01*
X451513Y193704D01*
X460164Y198012D01*
X469786Y198903D01*
X479081Y196259D01*
X486793Y190435D01*
X491880Y182219D01*
X493656Y172720D01*
X493190Y170228D01*
X493190Y170227D01*
X492430Y166165D01*
X492051Y164134D01*
X492050Y164134D01*
X491880Y163221D01*
X486793Y155005D01*
X479081Y149181D01*
X469786Y146537D01*
X460164Y147428D01*
G37*
%LPD*%
%LPC*%
G36*
X460164Y468103D02*
X460164Y468103D01*
X451513Y472411D01*
X445003Y479552D01*
X441512Y488563D01*
X441512Y498227D01*
X445003Y507238D01*
X451513Y514379D01*
X460164Y518687D01*
X469786Y519578D01*
X479081Y516934D01*
X486793Y511110D01*
X491880Y502894D01*
X493656Y493395D01*
X493618Y493197D01*
X493618Y493196D01*
X492479Y487103D01*
X492479Y487102D01*
X491880Y483896D01*
X486793Y475680D01*
X479081Y469856D01*
X469786Y467212D01*
X460164Y468103D01*
G37*
%LPD*%
%LPC*%
G36*
X227968Y49275D02*
X227968Y49275D01*
X227075Y50168D01*
X227075Y64067D01*
X227073Y64093D01*
X227075Y64120D01*
X227053Y64294D01*
X227035Y64467D01*
X227028Y64493D01*
X227024Y64519D01*
X226969Y64685D01*
X226917Y64852D01*
X226904Y64876D01*
X226896Y64901D01*
X226809Y65053D01*
X226725Y65206D01*
X226708Y65227D01*
X226695Y65250D01*
X226480Y65503D01*
X224723Y67260D01*
X224027Y68940D01*
X224027Y162365D01*
X224025Y162391D01*
X224027Y162418D01*
X224005Y162592D01*
X223987Y162765D01*
X223980Y162791D01*
X223976Y162817D01*
X223921Y162983D01*
X223869Y163150D01*
X223856Y163174D01*
X223848Y163199D01*
X223761Y163351D01*
X223677Y163504D01*
X223660Y163525D01*
X223647Y163548D01*
X223432Y163801D01*
X194963Y192270D01*
X194939Y192290D01*
X194918Y192313D01*
X194783Y192417D01*
X194652Y192525D01*
X194624Y192540D01*
X194599Y192559D01*
X194304Y192710D01*
X194132Y192782D01*
X192782Y194132D01*
X192051Y195895D01*
X192051Y197805D01*
X192782Y199568D01*
X194132Y200918D01*
X195895Y201649D01*
X197805Y201649D01*
X199568Y200918D01*
X200918Y199568D01*
X200990Y199396D01*
X201004Y199368D01*
X201014Y199339D01*
X201099Y199191D01*
X201180Y199041D01*
X201200Y199017D01*
X201215Y198990D01*
X201430Y198737D01*
X232477Y167690D01*
X233173Y166010D01*
X233173Y79756D01*
X233175Y79738D01*
X233173Y79720D01*
X233194Y79538D01*
X233213Y79355D01*
X233218Y79338D01*
X233220Y79321D01*
X233277Y79146D01*
X233331Y78970D01*
X233339Y78955D01*
X233345Y78938D01*
X233435Y78778D01*
X233523Y78616D01*
X233534Y78603D01*
X233543Y78587D01*
X233663Y78448D01*
X233780Y78307D01*
X233794Y78296D01*
X233806Y78282D01*
X233951Y78170D01*
X234094Y78055D01*
X234110Y78047D01*
X234124Y78036D01*
X234289Y77954D01*
X234451Y77869D01*
X234468Y77864D01*
X234484Y77856D01*
X234663Y77809D01*
X234838Y77758D01*
X234856Y77756D01*
X234873Y77752D01*
X235204Y77725D01*
X241932Y77725D01*
X242825Y76832D01*
X242825Y50168D01*
X241932Y49275D01*
X227968Y49275D01*
G37*
%LPD*%
%LPC*%
G36*
X373695Y204751D02*
X373695Y204751D01*
X371932Y205482D01*
X370582Y206832D01*
X369851Y208595D01*
X369851Y210505D01*
X370582Y212268D01*
X371932Y213618D01*
X373726Y214361D01*
X373805Y214371D01*
X373978Y214389D01*
X374003Y214396D01*
X374030Y214400D01*
X374196Y214455D01*
X374363Y214507D01*
X374386Y214520D01*
X374412Y214528D01*
X374563Y214615D01*
X374717Y214699D01*
X374737Y214716D01*
X374761Y214729D01*
X375014Y214944D01*
X402248Y242178D01*
X402265Y242199D01*
X402286Y242217D01*
X402393Y242354D01*
X402503Y242490D01*
X402516Y242513D01*
X402532Y242535D01*
X402610Y242692D01*
X402692Y242846D01*
X402700Y242871D01*
X402712Y242895D01*
X402757Y243065D01*
X402807Y243231D01*
X402809Y243258D01*
X402816Y243284D01*
X402843Y243615D01*
X402843Y257556D01*
X402841Y257574D01*
X402843Y257592D01*
X402822Y257774D01*
X402803Y257957D01*
X402798Y257974D01*
X402796Y257991D01*
X402739Y258166D01*
X402685Y258342D01*
X402677Y258357D01*
X402671Y258374D01*
X402581Y258534D01*
X402493Y258696D01*
X402482Y258709D01*
X402473Y258725D01*
X402353Y258864D01*
X402236Y259005D01*
X402222Y259016D01*
X402210Y259030D01*
X402065Y259142D01*
X401922Y259257D01*
X401906Y259265D01*
X401892Y259276D01*
X401727Y259358D01*
X401565Y259443D01*
X401548Y259448D01*
X401532Y259456D01*
X401353Y259503D01*
X401178Y259554D01*
X401160Y259556D01*
X401143Y259560D01*
X400812Y259587D01*
X400508Y259587D01*
X392175Y267920D01*
X392175Y279704D01*
X400508Y288037D01*
X412292Y288037D01*
X420625Y279704D01*
X420625Y267920D01*
X412292Y259587D01*
X411988Y259587D01*
X411970Y259585D01*
X411952Y259587D01*
X411770Y259566D01*
X411587Y259547D01*
X411570Y259542D01*
X411553Y259540D01*
X411378Y259483D01*
X411202Y259429D01*
X411187Y259421D01*
X411170Y259415D01*
X411010Y259325D01*
X410848Y259237D01*
X410835Y259226D01*
X410819Y259217D01*
X410680Y259097D01*
X410539Y258980D01*
X410528Y258966D01*
X410514Y258954D01*
X410402Y258809D01*
X410287Y258666D01*
X410279Y258650D01*
X410268Y258636D01*
X410186Y258471D01*
X410101Y258309D01*
X410096Y258292D01*
X410088Y258276D01*
X410041Y258097D01*
X409990Y257922D01*
X409988Y257904D01*
X409984Y257887D01*
X409957Y257556D01*
X409957Y239827D01*
X380044Y209914D01*
X380027Y209893D01*
X380006Y209875D01*
X379899Y209738D01*
X379789Y209602D01*
X379776Y209579D01*
X379760Y209557D01*
X379682Y209400D01*
X379600Y209246D01*
X379592Y209221D01*
X379580Y209197D01*
X379535Y209027D01*
X379485Y208861D01*
X379483Y208834D01*
X379476Y208808D01*
X379461Y208625D01*
X378718Y206832D01*
X377368Y205482D01*
X375605Y204751D01*
X373695Y204751D01*
G37*
%LPD*%
%LPC*%
G36*
X233995Y280951D02*
X233995Y280951D01*
X232232Y281682D01*
X230882Y283032D01*
X230139Y284826D01*
X230129Y284905D01*
X230111Y285078D01*
X230104Y285103D01*
X230100Y285130D01*
X230045Y285296D01*
X229993Y285463D01*
X229980Y285486D01*
X229972Y285512D01*
X229885Y285663D01*
X229801Y285817D01*
X229784Y285837D01*
X229771Y285861D01*
X229556Y286114D01*
X225043Y290627D01*
X225043Y331673D01*
X252134Y358764D01*
X252151Y358785D01*
X252172Y358803D01*
X252279Y358940D01*
X252389Y359076D01*
X252402Y359099D01*
X252418Y359121D01*
X252496Y359278D01*
X252578Y359432D01*
X252586Y359457D01*
X252598Y359481D01*
X252643Y359651D01*
X252693Y359817D01*
X252695Y359844D01*
X252702Y359870D01*
X252729Y360201D01*
X252729Y363466D01*
X253889Y366267D01*
X256033Y368411D01*
X258834Y369571D01*
X261866Y369571D01*
X264667Y368411D01*
X266811Y366267D01*
X267971Y363466D01*
X267971Y360434D01*
X266811Y357633D01*
X264667Y355489D01*
X261866Y354329D01*
X258601Y354329D01*
X258574Y354327D01*
X258547Y354329D01*
X258373Y354307D01*
X258200Y354289D01*
X258175Y354282D01*
X258148Y354278D01*
X257982Y354223D01*
X257815Y354171D01*
X257792Y354158D01*
X257766Y354150D01*
X257615Y354063D01*
X257461Y353979D01*
X257441Y353962D01*
X257417Y353949D01*
X257164Y353734D01*
X232752Y329322D01*
X232735Y329301D01*
X232714Y329283D01*
X232607Y329146D01*
X232497Y329010D01*
X232484Y328987D01*
X232468Y328965D01*
X232390Y328808D01*
X232308Y328654D01*
X232300Y328629D01*
X232288Y328605D01*
X232243Y328435D01*
X232193Y328269D01*
X232191Y328242D01*
X232184Y328216D01*
X232157Y327885D01*
X232157Y294415D01*
X232159Y294388D01*
X232157Y294361D01*
X232179Y294187D01*
X232197Y294014D01*
X232204Y293989D01*
X232208Y293962D01*
X232264Y293795D01*
X232315Y293629D01*
X232328Y293606D01*
X232336Y293580D01*
X232423Y293429D01*
X232507Y293275D01*
X232524Y293255D01*
X232537Y293231D01*
X232752Y292978D01*
X234586Y291144D01*
X234607Y291127D01*
X234625Y291106D01*
X234762Y290999D01*
X234898Y290889D01*
X234921Y290876D01*
X234943Y290860D01*
X235100Y290782D01*
X235254Y290700D01*
X235279Y290692D01*
X235303Y290680D01*
X235473Y290635D01*
X235639Y290585D01*
X235666Y290583D01*
X235692Y290576D01*
X235875Y290561D01*
X237668Y289818D01*
X239018Y288468D01*
X239749Y286705D01*
X239749Y284795D01*
X239018Y283032D01*
X237668Y281682D01*
X235905Y280951D01*
X233995Y280951D01*
G37*
%LPD*%
%LPC*%
G36*
X373968Y165025D02*
X373968Y165025D01*
X373075Y165918D01*
X373075Y192682D01*
X373968Y193575D01*
X400732Y193575D01*
X401625Y192682D01*
X401625Y165918D01*
X400732Y165025D01*
X373968Y165025D01*
G37*
%LPD*%
%LPC*%
G36*
X289261Y125425D02*
X289261Y125425D01*
X284014Y127598D01*
X279998Y131614D01*
X277825Y136861D01*
X277825Y142539D01*
X279998Y147786D01*
X284014Y151802D01*
X289261Y153975D01*
X294939Y153975D01*
X300186Y151802D01*
X304202Y147786D01*
X306375Y142539D01*
X306375Y136861D01*
X304202Y131614D01*
X300186Y127598D01*
X294939Y125425D01*
X289261Y125425D01*
G37*
%LPD*%
%LPC*%
G36*
X102804Y96011D02*
X102804Y96011D01*
X99163Y97519D01*
X96376Y100306D01*
X94868Y103947D01*
X94868Y124653D01*
X96376Y128294D01*
X99163Y131081D01*
X102804Y132589D01*
X106746Y132589D01*
X110387Y131081D01*
X113174Y128294D01*
X114682Y124653D01*
X114682Y103947D01*
X113174Y100306D01*
X110387Y97519D01*
X106746Y96011D01*
X102804Y96011D01*
G37*
%LPD*%
%LPC*%
G36*
X26604Y96011D02*
X26604Y96011D01*
X22963Y97519D01*
X20176Y100306D01*
X18668Y103947D01*
X18668Y124653D01*
X20176Y128294D01*
X22963Y131081D01*
X26604Y132589D01*
X30546Y132589D01*
X34187Y131081D01*
X36974Y128294D01*
X38482Y124653D01*
X38482Y103947D01*
X36974Y100306D01*
X34187Y97519D01*
X30546Y96011D01*
X26604Y96011D01*
G37*
%LPD*%
%LPC*%
G36*
X64704Y96011D02*
X64704Y96011D01*
X61063Y97519D01*
X58276Y100306D01*
X56768Y103947D01*
X56768Y124653D01*
X58276Y128294D01*
X61063Y131081D01*
X64704Y132589D01*
X68646Y132589D01*
X72287Y131081D01*
X75074Y128294D01*
X76582Y124653D01*
X76582Y103947D01*
X75074Y100306D01*
X72287Y97519D01*
X68646Y96011D01*
X64704Y96011D01*
G37*
%LPD*%
%LPC*%
G36*
X350862Y25018D02*
X350862Y25018D01*
X345058Y30822D01*
X345058Y39028D01*
X350877Y44847D01*
X351060Y44832D01*
X359068Y44832D01*
X364872Y39028D01*
X364872Y30822D01*
X359068Y25018D01*
X350862Y25018D01*
G37*
%LPD*%
%LPC*%
G36*
X376262Y25018D02*
X376262Y25018D01*
X370458Y30822D01*
X370458Y39028D01*
X376262Y44832D01*
X384468Y44832D01*
X390272Y39028D01*
X390272Y30822D01*
X384468Y25018D01*
X376262Y25018D01*
G37*
%LPD*%
%LPC*%
G36*
X274662Y25018D02*
X274662Y25018D01*
X268858Y30822D01*
X268858Y39028D01*
X274662Y44832D01*
X282868Y44832D01*
X288672Y39028D01*
X288672Y30822D01*
X282868Y25018D01*
X274662Y25018D01*
G37*
%LPD*%
%LPC*%
G36*
X249262Y25018D02*
X249262Y25018D01*
X243458Y30822D01*
X243458Y39028D01*
X249262Y44832D01*
X257468Y44832D01*
X263272Y39028D01*
X263272Y30822D01*
X257468Y25018D01*
X249262Y25018D01*
G37*
%LPD*%
%LPC*%
G36*
X81622Y507618D02*
X81622Y507618D01*
X75818Y513422D01*
X75818Y521628D01*
X81622Y527432D01*
X89828Y527432D01*
X95632Y521628D01*
X95632Y513422D01*
X89828Y507618D01*
X81622Y507618D01*
G37*
%LPD*%
%LPC*%
G36*
X386422Y507618D02*
X386422Y507618D01*
X380618Y513422D01*
X380618Y521628D01*
X386422Y527432D01*
X394628Y527432D01*
X400432Y521628D01*
X400432Y513422D01*
X394628Y507618D01*
X386422Y507618D01*
G37*
%LPD*%
%LPC*%
G36*
X361022Y507618D02*
X361022Y507618D01*
X355218Y513422D01*
X355218Y521628D01*
X361022Y527432D01*
X369228Y527432D01*
X375032Y521628D01*
X375032Y513422D01*
X369228Y507618D01*
X361022Y507618D01*
G37*
%LPD*%
%LPC*%
G36*
X335622Y507618D02*
X335622Y507618D01*
X329818Y513422D01*
X329818Y521628D01*
X335622Y527432D01*
X343828Y527432D01*
X349632Y521628D01*
X349632Y513422D01*
X343828Y507618D01*
X335622Y507618D01*
G37*
%LPD*%
%LPC*%
G36*
X30822Y507618D02*
X30822Y507618D01*
X25018Y513422D01*
X25018Y521628D01*
X30822Y527432D01*
X39028Y527432D01*
X44832Y521628D01*
X44832Y513422D01*
X39028Y507618D01*
X30822Y507618D01*
G37*
%LPD*%
%LPC*%
G36*
X208622Y507618D02*
X208622Y507618D01*
X202818Y513422D01*
X202818Y521628D01*
X208622Y527432D01*
X216828Y527432D01*
X222632Y521628D01*
X222632Y513422D01*
X216828Y507618D01*
X208622Y507618D01*
G37*
%LPD*%
%LPC*%
G36*
X157822Y507618D02*
X157822Y507618D01*
X152018Y513422D01*
X152018Y521628D01*
X157822Y527432D01*
X166028Y527432D01*
X171832Y521628D01*
X171832Y513422D01*
X166028Y507618D01*
X157822Y507618D01*
G37*
%LPD*%
%LPC*%
G36*
X132422Y507618D02*
X132422Y507618D01*
X126618Y513422D01*
X126618Y521628D01*
X132422Y527432D01*
X140628Y527432D01*
X146432Y521628D01*
X146432Y513422D01*
X140628Y507618D01*
X132422Y507618D01*
G37*
%LPD*%
%LPC*%
G36*
X107022Y507618D02*
X107022Y507618D01*
X101218Y513422D01*
X101218Y521628D01*
X107022Y527432D01*
X115228Y527432D01*
X121032Y521628D01*
X121032Y513422D01*
X115228Y507618D01*
X107022Y507618D01*
G37*
%LPD*%
%LPC*%
G36*
X56222Y507618D02*
X56222Y507618D01*
X50418Y513422D01*
X50418Y521628D01*
X56222Y527432D01*
X64428Y527432D01*
X70232Y521628D01*
X70232Y513422D01*
X64428Y507618D01*
X56222Y507618D01*
G37*
%LPD*%
%LPC*%
G36*
X107022Y25018D02*
X107022Y25018D01*
X101218Y30822D01*
X101218Y39028D01*
X107022Y44832D01*
X115228Y44832D01*
X121032Y39028D01*
X121032Y30822D01*
X115228Y25018D01*
X107022Y25018D01*
G37*
%LPD*%
%LPC*%
G36*
X81622Y25018D02*
X81622Y25018D01*
X75818Y30822D01*
X75818Y39028D01*
X81622Y44832D01*
X89828Y44832D01*
X95632Y39028D01*
X95632Y30822D01*
X89828Y25018D01*
X81622Y25018D01*
G37*
%LPD*%
%LPC*%
G36*
X56222Y25018D02*
X56222Y25018D01*
X50418Y30822D01*
X50418Y39028D01*
X56222Y44832D01*
X64428Y44832D01*
X70232Y39028D01*
X70232Y30822D01*
X64428Y25018D01*
X56222Y25018D01*
G37*
%LPD*%
%LPC*%
G36*
X30822Y25018D02*
X30822Y25018D01*
X25018Y30822D01*
X25018Y39028D01*
X30822Y44832D01*
X39028Y44832D01*
X44832Y39028D01*
X44832Y30822D01*
X39028Y25018D01*
X30822Y25018D01*
G37*
%LPD*%
%LPC*%
G36*
X452462Y25018D02*
X452462Y25018D01*
X446658Y30822D01*
X446658Y39028D01*
X452462Y44832D01*
X460668Y44832D01*
X466472Y39028D01*
X466472Y30822D01*
X460668Y25018D01*
X452462Y25018D01*
G37*
%LPD*%
%LPC*%
G36*
X477862Y25018D02*
X477862Y25018D01*
X472058Y30822D01*
X472058Y39028D01*
X477862Y44832D01*
X486068Y44832D01*
X491872Y39028D01*
X491872Y30822D01*
X486068Y25018D01*
X477862Y25018D01*
G37*
%LPD*%
%LPC*%
G36*
X427062Y25018D02*
X427062Y25018D01*
X421258Y30822D01*
X421258Y39028D01*
X427062Y44832D01*
X435268Y44832D01*
X441072Y39028D01*
X441072Y30822D01*
X435268Y25018D01*
X427062Y25018D01*
G37*
%LPD*%
%LPC*%
G36*
X66378Y318642D02*
X66378Y318642D01*
X61467Y323553D01*
X61467Y330497D01*
X66378Y335408D01*
X73322Y335408D01*
X78233Y330497D01*
X78233Y323553D01*
X73322Y318642D01*
X66378Y318642D01*
G37*
%LPD*%
%LPC*%
G36*
X40978Y267842D02*
X40978Y267842D01*
X36067Y272753D01*
X36067Y279697D01*
X40978Y284608D01*
X47922Y284608D01*
X52833Y279697D01*
X52833Y272753D01*
X47922Y267842D01*
X40978Y267842D01*
G37*
%LPD*%
%LPC*%
G36*
X66378Y267842D02*
X66378Y267842D01*
X61467Y272753D01*
X61467Y279697D01*
X66378Y284608D01*
X73322Y284608D01*
X78233Y279697D01*
X78233Y272753D01*
X73322Y267842D01*
X66378Y267842D01*
G37*
%LPD*%
%LPC*%
G36*
X66378Y293242D02*
X66378Y293242D01*
X61467Y298153D01*
X61467Y305097D01*
X66378Y310008D01*
X73322Y310008D01*
X78233Y305097D01*
X78233Y298153D01*
X73322Y293242D01*
X66378Y293242D01*
G37*
%LPD*%
%LPC*%
G36*
X40978Y293242D02*
X40978Y293242D01*
X36067Y298153D01*
X36067Y305097D01*
X40978Y310008D01*
X47922Y310008D01*
X52833Y305097D01*
X52833Y298153D01*
X47922Y293242D01*
X40978Y293242D01*
G37*
%LPD*%
%LPC*%
G36*
X40978Y318642D02*
X40978Y318642D01*
X36067Y323553D01*
X36067Y330497D01*
X40978Y335408D01*
X47922Y335408D01*
X52833Y330497D01*
X52833Y323553D01*
X47922Y318642D01*
X40978Y318642D01*
G37*
%LPD*%
%LPC*%
G36*
X40978Y344042D02*
X40978Y344042D01*
X36067Y348953D01*
X36067Y355897D01*
X40978Y360808D01*
X47922Y360808D01*
X52833Y355897D01*
X52833Y348953D01*
X47922Y344042D01*
X40978Y344042D01*
G37*
%LPD*%
%LPC*%
G36*
X40978Y191642D02*
X40978Y191642D01*
X36067Y196553D01*
X36067Y203497D01*
X40978Y208408D01*
X47922Y208408D01*
X52833Y203497D01*
X52833Y196553D01*
X47922Y191642D01*
X40978Y191642D01*
G37*
%LPD*%
%LPC*%
G36*
X254873Y211755D02*
X254873Y211755D01*
X253980Y212648D01*
X253980Y225502D01*
X254873Y226395D01*
X267727Y226395D01*
X268620Y225502D01*
X268620Y212648D01*
X267727Y211755D01*
X254873Y211755D01*
G37*
%LPD*%
%LPC*%
G36*
X182634Y379729D02*
X182634Y379729D01*
X179833Y380889D01*
X177689Y383033D01*
X176529Y385834D01*
X176529Y388866D01*
X177689Y391667D01*
X179833Y393811D01*
X182634Y394971D01*
X185666Y394971D01*
X188467Y393811D01*
X190611Y391667D01*
X191771Y388866D01*
X191771Y385834D01*
X190611Y383033D01*
X188467Y380889D01*
X185666Y379729D01*
X182634Y379729D01*
G37*
%LPD*%
%LPC*%
G36*
X182634Y354329D02*
X182634Y354329D01*
X179833Y355489D01*
X177689Y357633D01*
X176529Y360434D01*
X176529Y363466D01*
X177689Y366267D01*
X179833Y368411D01*
X182634Y369571D01*
X185666Y369571D01*
X188467Y368411D01*
X190611Y366267D01*
X191771Y363466D01*
X191771Y360434D01*
X190611Y357633D01*
X188467Y355489D01*
X185666Y354329D01*
X182634Y354329D01*
G37*
%LPD*%
%LPC*%
G36*
X258834Y405129D02*
X258834Y405129D01*
X256033Y406289D01*
X253889Y408433D01*
X252729Y411234D01*
X252729Y414266D01*
X253889Y417067D01*
X256033Y419211D01*
X258834Y420371D01*
X261866Y420371D01*
X264667Y419211D01*
X266811Y417067D01*
X267971Y414266D01*
X267971Y411234D01*
X266811Y408433D01*
X264667Y406289D01*
X261866Y405129D01*
X258834Y405129D01*
G37*
%LPD*%
%LPC*%
G36*
X258834Y379729D02*
X258834Y379729D01*
X256033Y380889D01*
X253889Y383033D01*
X252729Y385834D01*
X252729Y388866D01*
X253889Y391667D01*
X256033Y393811D01*
X258834Y394971D01*
X261866Y394971D01*
X264667Y393811D01*
X266811Y391667D01*
X267971Y388866D01*
X267971Y385834D01*
X266811Y383033D01*
X264667Y380889D01*
X261866Y379729D01*
X258834Y379729D01*
G37*
%LPD*%
%LPC*%
G36*
X258834Y328929D02*
X258834Y328929D01*
X256033Y330089D01*
X253889Y332233D01*
X252729Y335034D01*
X252729Y338066D01*
X253889Y340867D01*
X256033Y343011D01*
X258834Y344171D01*
X261866Y344171D01*
X264667Y343011D01*
X266811Y340867D01*
X267971Y338066D01*
X267971Y335034D01*
X266811Y332233D01*
X264667Y330089D01*
X261866Y328929D01*
X258834Y328929D01*
G37*
%LPD*%
%LPC*%
G36*
X259844Y287955D02*
X259844Y287955D01*
X257154Y289070D01*
X255095Y291129D01*
X253980Y293819D01*
X253980Y296731D01*
X255095Y299421D01*
X257154Y301480D01*
X259844Y302595D01*
X262756Y302595D01*
X265446Y301480D01*
X267505Y299421D01*
X268620Y296731D01*
X268620Y293819D01*
X267505Y291129D01*
X265446Y289070D01*
X262756Y287955D01*
X259844Y287955D01*
G37*
%LPD*%
%LPC*%
G36*
X181744Y262555D02*
X181744Y262555D01*
X179054Y263670D01*
X176995Y265729D01*
X175880Y268419D01*
X175880Y271331D01*
X176995Y274021D01*
X179054Y276080D01*
X181744Y277195D01*
X184656Y277195D01*
X187346Y276080D01*
X189405Y274021D01*
X190520Y271331D01*
X190520Y268419D01*
X189405Y265729D01*
X187346Y263670D01*
X186071Y263141D01*
X184656Y262555D01*
X181744Y262555D01*
G37*
%LPD*%
%LPC*%
G36*
X181744Y237155D02*
X181744Y237155D01*
X179054Y238270D01*
X176995Y240329D01*
X175880Y243019D01*
X175880Y245931D01*
X176995Y248621D01*
X179054Y250680D01*
X180477Y251270D01*
X181744Y251795D01*
X184656Y251795D01*
X187346Y250680D01*
X189405Y248621D01*
X190520Y245931D01*
X190520Y243019D01*
X189405Y240329D01*
X187346Y238270D01*
X184656Y237155D01*
X181744Y237155D01*
G37*
%LPD*%
%LPC*%
G36*
X409384Y376872D02*
X409384Y376872D01*
X409384Y389129D01*
X412713Y389129D01*
X421641Y380201D01*
X421641Y376872D01*
X409384Y376872D01*
G37*
%LPD*%
%LPC*%
G36*
X391159Y376872D02*
X391159Y376872D01*
X391159Y380201D01*
X400087Y389129D01*
X403416Y389129D01*
X403416Y376872D01*
X391159Y376872D01*
G37*
%LPD*%
%LPC*%
G36*
X409384Y358647D02*
X409384Y358647D01*
X409384Y370904D01*
X421641Y370904D01*
X421641Y367575D01*
X412713Y358647D01*
X409384Y358647D01*
G37*
%LPD*%
%LPC*%
G36*
X400087Y358647D02*
X400087Y358647D01*
X391159Y367575D01*
X391159Y370904D01*
X403416Y370904D01*
X403416Y358647D01*
X400087Y358647D01*
G37*
%LPD*%
%LPC*%
G36*
X240624Y520024D02*
X240624Y520024D01*
X240624Y528448D01*
X242649Y528448D01*
X249389Y521708D01*
X249402Y521697D01*
X249414Y521683D01*
X249558Y521570D01*
X249700Y521453D01*
X249716Y521445D01*
X249730Y521434D01*
X249894Y521351D01*
X250056Y521265D01*
X250073Y521260D01*
X250089Y521251D01*
X250266Y521202D01*
X250442Y521150D01*
X250460Y521148D01*
X250477Y521143D01*
X250660Y521130D01*
X250843Y521113D01*
X250861Y521115D01*
X250878Y521114D01*
X251060Y521137D01*
X251243Y521157D01*
X251260Y521162D01*
X251278Y521165D01*
X251451Y521223D01*
X251627Y521278D01*
X251643Y521287D01*
X251659Y521293D01*
X251819Y521385D01*
X251979Y521473D01*
X251993Y521485D01*
X252008Y521494D01*
X252261Y521708D01*
X259001Y528448D01*
X261026Y528448D01*
X261026Y520024D01*
X240624Y520024D01*
G37*
%LPD*%
%LPC*%
G36*
X240624Y506602D02*
X240624Y506602D01*
X240624Y515026D01*
X261026Y515026D01*
X261026Y506602D01*
X259001Y506602D01*
X252261Y513342D01*
X252247Y513353D01*
X252236Y513367D01*
X252092Y513480D01*
X251950Y513597D01*
X251934Y513605D01*
X251920Y513616D01*
X251756Y513700D01*
X251594Y513785D01*
X251577Y513790D01*
X251561Y513799D01*
X251384Y513848D01*
X251208Y513900D01*
X251190Y513902D01*
X251173Y513907D01*
X250990Y513920D01*
X250807Y513937D01*
X250789Y513935D01*
X250772Y513936D01*
X250590Y513913D01*
X250407Y513893D01*
X250390Y513888D01*
X250372Y513885D01*
X250198Y513827D01*
X250023Y513772D01*
X250007Y513763D01*
X249991Y513757D01*
X249831Y513665D01*
X249671Y513577D01*
X249657Y513565D01*
X249642Y513556D01*
X249389Y513342D01*
X242649Y506602D01*
X240624Y506602D01*
G37*
%LPD*%
%LPC*%
G36*
X391413Y104163D02*
X391413Y104163D01*
X391413Y114841D01*
X392276Y114610D01*
X394127Y113843D01*
X395863Y112841D01*
X397453Y111621D01*
X398871Y110203D01*
X400091Y108613D01*
X401093Y106877D01*
X401860Y105026D01*
X402091Y104163D01*
X391413Y104163D01*
G37*
%LPD*%
%LPC*%
G36*
X277359Y104163D02*
X277359Y104163D01*
X277590Y105026D01*
X278357Y106877D01*
X279359Y108613D01*
X280579Y110203D01*
X281997Y111621D01*
X283587Y112841D01*
X285323Y113843D01*
X287174Y114610D01*
X288037Y114841D01*
X288037Y104163D01*
X277359Y104163D01*
G37*
%LPD*%
%LPC*%
G36*
X391413Y96037D02*
X391413Y96037D01*
X402091Y96037D01*
X401860Y95174D01*
X401093Y93323D01*
X400091Y91587D01*
X398871Y89997D01*
X397453Y88579D01*
X395863Y87359D01*
X394127Y86357D01*
X392276Y85590D01*
X391413Y85359D01*
X391413Y96037D01*
G37*
%LPD*%
%LPC*%
G36*
X408264Y37424D02*
X408264Y37424D01*
X408264Y45848D01*
X410289Y45848D01*
X416688Y39449D01*
X416688Y37424D01*
X408264Y37424D01*
G37*
%LPD*%
%LPC*%
G36*
X266024Y520024D02*
X266024Y520024D01*
X266024Y528448D01*
X268049Y528448D01*
X274448Y522049D01*
X274448Y520024D01*
X266024Y520024D01*
G37*
%LPD*%
%LPC*%
G36*
X227202Y520024D02*
X227202Y520024D01*
X227202Y522049D01*
X233601Y528448D01*
X235626Y528448D01*
X235626Y520024D01*
X227202Y520024D01*
G37*
%LPD*%
%LPC*%
G36*
X266024Y506602D02*
X266024Y506602D01*
X266024Y515026D01*
X274448Y515026D01*
X274448Y513001D01*
X268049Y506602D01*
X266024Y506602D01*
G37*
%LPD*%
%LPC*%
G36*
X394842Y37424D02*
X394842Y37424D01*
X394842Y39449D01*
X401241Y45848D01*
X403266Y45848D01*
X403266Y37424D01*
X394842Y37424D01*
G37*
%LPD*%
%LPC*%
G36*
X408264Y24002D02*
X408264Y24002D01*
X408264Y32426D01*
X416688Y32426D01*
X416688Y30401D01*
X410289Y24002D01*
X408264Y24002D01*
G37*
%LPD*%
%LPC*%
G36*
X233601Y506602D02*
X233601Y506602D01*
X227202Y513001D01*
X227202Y515026D01*
X235626Y515026D01*
X235626Y506602D01*
X233601Y506602D01*
G37*
%LPD*%
%LPC*%
G36*
X401241Y24002D02*
X401241Y24002D01*
X394842Y30401D01*
X394842Y32426D01*
X403266Y32426D01*
X403266Y24002D01*
X401241Y24002D01*
G37*
%LPD*%
%LPC*%
G36*
X72135Y354710D02*
X72135Y354710D01*
X72135Y361824D01*
X73743Y361824D01*
X79249Y356318D01*
X79249Y354710D01*
X72135Y354710D01*
G37*
%LPD*%
%LPC*%
G36*
X60451Y354710D02*
X60451Y354710D01*
X60451Y356318D01*
X65957Y361824D01*
X67565Y361824D01*
X67565Y354710D01*
X60451Y354710D01*
G37*
%LPD*%
%LPC*%
G36*
X72135Y343026D02*
X72135Y343026D01*
X72135Y350140D01*
X79249Y350140D01*
X79249Y348532D01*
X73743Y343026D01*
X72135Y343026D01*
G37*
%LPD*%
%LPC*%
G36*
X65957Y343026D02*
X65957Y343026D01*
X60451Y348532D01*
X60451Y350140D01*
X67565Y350140D01*
X67565Y343026D01*
X65957Y343026D01*
G37*
%LPD*%
%LPC*%
G36*
X186181Y414781D02*
X186181Y414781D01*
X186181Y421171D01*
X187465Y420754D01*
X188677Y420137D01*
X189776Y419338D01*
X190738Y418376D01*
X191537Y417277D01*
X192154Y416065D01*
X192571Y414781D01*
X186181Y414781D01*
G37*
%LPD*%
%LPC*%
G36*
X175729Y414781D02*
X175729Y414781D01*
X176146Y416065D01*
X176763Y417277D01*
X177562Y418376D01*
X178524Y419338D01*
X179623Y420137D01*
X180835Y420754D01*
X182119Y421171D01*
X182119Y414781D01*
X175729Y414781D01*
G37*
%LPD*%
%LPC*%
G36*
X186181Y410719D02*
X186181Y410719D01*
X192571Y410719D01*
X192154Y409435D01*
X191537Y408223D01*
X190738Y407124D01*
X189776Y406162D01*
X188677Y405363D01*
X187465Y404746D01*
X186181Y404329D01*
X186181Y410719D01*
G37*
%LPD*%
%LPC*%
G36*
X180835Y404746D02*
X180835Y404746D01*
X179623Y405363D01*
X178524Y406162D01*
X177562Y407124D01*
X176763Y408223D01*
X176146Y409435D01*
X175729Y410719D01*
X182119Y410719D01*
X182119Y404329D01*
X180835Y404746D01*
G37*
%LPD*%
%LPC*%
G36*
X185231Y221106D02*
X185231Y221106D01*
X185231Y227180D01*
X186400Y226800D01*
X187569Y226204D01*
X188630Y225433D01*
X189558Y224505D01*
X190329Y223444D01*
X190925Y222275D01*
X191305Y221106D01*
X185231Y221106D01*
G37*
%LPD*%
%LPC*%
G36*
X263331Y246506D02*
X263331Y246506D01*
X263331Y252580D01*
X264500Y252200D01*
X265669Y251604D01*
X266730Y250833D01*
X267658Y249905D01*
X268429Y248844D01*
X269025Y247675D01*
X269405Y246506D01*
X263331Y246506D01*
G37*
%LPD*%
%LPC*%
G36*
X175095Y221106D02*
X175095Y221106D01*
X175475Y222275D01*
X176071Y223444D01*
X176842Y224505D01*
X177770Y225433D01*
X178831Y226204D01*
X180000Y226800D01*
X181169Y227180D01*
X181169Y221106D01*
X175095Y221106D01*
G37*
%LPD*%
%LPC*%
G36*
X263331Y242444D02*
X263331Y242444D01*
X269405Y242444D01*
X269025Y241275D01*
X268429Y240106D01*
X267658Y239045D01*
X266730Y238117D01*
X265669Y237346D01*
X264500Y236750D01*
X263331Y236370D01*
X263331Y242444D01*
G37*
%LPD*%
%LPC*%
G36*
X185231Y217044D02*
X185231Y217044D01*
X191305Y217044D01*
X190925Y215875D01*
X190329Y214706D01*
X189558Y213645D01*
X188630Y212717D01*
X187569Y211946D01*
X186400Y211350D01*
X185231Y210970D01*
X185231Y217044D01*
G37*
%LPD*%
%LPC*%
G36*
X253195Y246506D02*
X253195Y246506D01*
X253575Y247675D01*
X254171Y248844D01*
X254942Y249905D01*
X255870Y250833D01*
X256931Y251604D01*
X258100Y252200D01*
X259269Y252580D01*
X259269Y246506D01*
X253195Y246506D01*
G37*
%LPD*%
%LPC*%
G36*
X180000Y211350D02*
X180000Y211350D01*
X178831Y211946D01*
X177770Y212717D01*
X176842Y213645D01*
X176071Y214706D01*
X175475Y215875D01*
X175095Y217044D01*
X181169Y217044D01*
X181169Y210970D01*
X180000Y211350D01*
G37*
%LPD*%
%LPC*%
G36*
X258100Y236750D02*
X258100Y236750D01*
X256931Y237346D01*
X255870Y238117D01*
X254942Y239045D01*
X254171Y240106D01*
X253575Y241275D01*
X253195Y242444D01*
X259269Y242444D01*
X259269Y236370D01*
X258100Y236750D01*
G37*
%LPD*%
D10*
X0Y0D02*
X520700Y0D01*
X520700Y546100D01*
X0Y546100D01*
X0Y0D01*
X446360Y493395D02*
X446366Y493910D01*
X446385Y494425D01*
X446417Y494940D01*
X446461Y495453D01*
X446518Y495966D01*
X446587Y496476D01*
X446669Y496985D01*
X446764Y497492D01*
X446870Y497996D01*
X446989Y498498D01*
X447121Y498996D01*
X447264Y499491D01*
X447420Y499982D01*
X447588Y500470D01*
X447767Y500953D01*
X447959Y501431D01*
X448162Y501905D01*
X448376Y502374D01*
X448602Y502837D01*
X448840Y503294D01*
X449088Y503746D01*
X449348Y504191D01*
X449618Y504630D01*
X449899Y505062D01*
X450191Y505487D01*
X450493Y505905D01*
X450805Y506315D01*
X451127Y506717D01*
X451459Y507112D01*
X451800Y507498D01*
X452151Y507875D01*
X452511Y508244D01*
X452880Y508604D01*
X453257Y508955D01*
X453643Y509296D01*
X454038Y509628D01*
X454440Y509950D01*
X454850Y510262D01*
X455268Y510564D01*
X455693Y510856D01*
X456125Y511137D01*
X456564Y511407D01*
X457009Y511667D01*
X457461Y511915D01*
X457918Y512153D01*
X458381Y512379D01*
X458850Y512593D01*
X459324Y512796D01*
X459802Y512988D01*
X460285Y513167D01*
X460773Y513335D01*
X461264Y513491D01*
X461759Y513634D01*
X462257Y513766D01*
X462759Y513885D01*
X463263Y513991D01*
X463770Y514086D01*
X464279Y514168D01*
X464789Y514237D01*
X465302Y514294D01*
X465815Y514338D01*
X466330Y514370D01*
X466845Y514389D01*
X467360Y514395D01*
X467875Y514389D01*
X468390Y514370D01*
X468905Y514338D01*
X469418Y514294D01*
X469931Y514237D01*
X470441Y514168D01*
X470950Y514086D01*
X471457Y513991D01*
X471961Y513885D01*
X472463Y513766D01*
X472961Y513634D01*
X473456Y513491D01*
X473947Y513335D01*
X474435Y513167D01*
X474918Y512988D01*
X475396Y512796D01*
X475870Y512593D01*
X476339Y512379D01*
X476802Y512153D01*
X477259Y511915D01*
X477711Y511667D01*
X478156Y511407D01*
X478595Y511137D01*
X479027Y510856D01*
X479452Y510564D01*
X479870Y510262D01*
X480280Y509950D01*
X480682Y509628D01*
X481077Y509296D01*
X481463Y508955D01*
X481840Y508604D01*
X482209Y508244D01*
X482569Y507875D01*
X482920Y507498D01*
X483261Y507112D01*
X483593Y506717D01*
X483915Y506315D01*
X484227Y505905D01*
X484529Y505487D01*
X484821Y505062D01*
X485102Y504630D01*
X485372Y504191D01*
X485632Y503746D01*
X485880Y503294D01*
X486118Y502837D01*
X486344Y502374D01*
X486558Y501905D01*
X486761Y501431D01*
X486953Y500953D01*
X487132Y500470D01*
X487300Y499982D01*
X487456Y499491D01*
X487599Y498996D01*
X487731Y498498D01*
X487850Y497996D01*
X487956Y497492D01*
X488051Y496985D01*
X488133Y496476D01*
X488202Y495966D01*
X488259Y495453D01*
X488303Y494940D01*
X488335Y494425D01*
X488354Y493910D01*
X488360Y493395D01*
X488354Y492880D01*
X488335Y492365D01*
X488303Y491850D01*
X488259Y491337D01*
X488202Y490824D01*
X488133Y490314D01*
X488051Y489805D01*
X487956Y489298D01*
X487850Y488794D01*
X487731Y488292D01*
X487599Y487794D01*
X487456Y487299D01*
X487300Y486808D01*
X487132Y486320D01*
X486953Y485837D01*
X486761Y485359D01*
X486558Y484885D01*
X486344Y484416D01*
X486118Y483953D01*
X485880Y483496D01*
X485632Y483044D01*
X485372Y482599D01*
X485102Y482160D01*
X484821Y481728D01*
X484529Y481303D01*
X484227Y480885D01*
X483915Y480475D01*
X483593Y480073D01*
X483261Y479678D01*
X482920Y479292D01*
X482569Y478915D01*
X482209Y478546D01*
X481840Y478186D01*
X481463Y477835D01*
X481077Y477494D01*
X480682Y477162D01*
X480280Y476840D01*
X479870Y476528D01*
X479452Y476226D01*
X479027Y475934D01*
X478595Y475653D01*
X478156Y475383D01*
X477711Y475123D01*
X477259Y474875D01*
X476802Y474637D01*
X476339Y474411D01*
X475870Y474197D01*
X475396Y473994D01*
X474918Y473802D01*
X474435Y473623D01*
X473947Y473455D01*
X473456Y473299D01*
X472961Y473156D01*
X472463Y473024D01*
X471961Y472905D01*
X471457Y472799D01*
X470950Y472704D01*
X470441Y472622D01*
X469931Y472553D01*
X469418Y472496D01*
X468905Y472452D01*
X468390Y472420D01*
X467875Y472401D01*
X467360Y472395D01*
X466845Y472401D01*
X466330Y472420D01*
X465815Y472452D01*
X465302Y472496D01*
X464789Y472553D01*
X464279Y472622D01*
X463770Y472704D01*
X463263Y472799D01*
X462759Y472905D01*
X462257Y473024D01*
X461759Y473156D01*
X461264Y473299D01*
X460773Y473455D01*
X460285Y473623D01*
X459802Y473802D01*
X459324Y473994D01*
X458850Y474197D01*
X458381Y474411D01*
X457918Y474637D01*
X457461Y474875D01*
X457009Y475123D01*
X456564Y475383D01*
X456125Y475653D01*
X455693Y475934D01*
X455268Y476226D01*
X454850Y476528D01*
X454440Y476840D01*
X454038Y477162D01*
X453643Y477494D01*
X453257Y477835D01*
X452880Y478186D01*
X452511Y478546D01*
X452151Y478915D01*
X451800Y479292D01*
X451459Y479678D01*
X451127Y480073D01*
X450805Y480475D01*
X450493Y480885D01*
X450191Y481303D01*
X449899Y481728D01*
X449618Y482160D01*
X449348Y482599D01*
X449088Y483044D01*
X448840Y483496D01*
X448602Y483953D01*
X448376Y484416D01*
X448162Y484885D01*
X447959Y485359D01*
X447767Y485837D01*
X447588Y486320D01*
X447420Y486808D01*
X447264Y487299D01*
X447121Y487794D01*
X446989Y488292D01*
X446870Y488794D01*
X446764Y489298D01*
X446669Y489805D01*
X446587Y490314D01*
X446518Y490824D01*
X446461Y491337D01*
X446417Y491850D01*
X446385Y492365D01*
X446366Y492880D01*
X446360Y493395D01*
X446360Y172720D02*
X446366Y173235D01*
X446385Y173750D01*
X446417Y174265D01*
X446461Y174778D01*
X446518Y175291D01*
X446587Y175801D01*
X446669Y176310D01*
X446764Y176817D01*
X446870Y177321D01*
X446989Y177823D01*
X447121Y178321D01*
X447264Y178816D01*
X447420Y179307D01*
X447588Y179795D01*
X447767Y180278D01*
X447959Y180756D01*
X448162Y181230D01*
X448376Y181699D01*
X448602Y182162D01*
X448840Y182619D01*
X449088Y183071D01*
X449348Y183516D01*
X449618Y183955D01*
X449899Y184387D01*
X450191Y184812D01*
X450493Y185230D01*
X450805Y185640D01*
X451127Y186042D01*
X451459Y186437D01*
X451800Y186823D01*
X452151Y187200D01*
X452511Y187569D01*
X452880Y187929D01*
X453257Y188280D01*
X453643Y188621D01*
X454038Y188953D01*
X454440Y189275D01*
X454850Y189587D01*
X455268Y189889D01*
X455693Y190181D01*
X456125Y190462D01*
X456564Y190732D01*
X457009Y190992D01*
X457461Y191240D01*
X457918Y191478D01*
X458381Y191704D01*
X458850Y191918D01*
X459324Y192121D01*
X459802Y192313D01*
X460285Y192492D01*
X460773Y192660D01*
X461264Y192816D01*
X461759Y192959D01*
X462257Y193091D01*
X462759Y193210D01*
X463263Y193316D01*
X463770Y193411D01*
X464279Y193493D01*
X464789Y193562D01*
X465302Y193619D01*
X465815Y193663D01*
X466330Y193695D01*
X466845Y193714D01*
X467360Y193720D01*
X467875Y193714D01*
X468390Y193695D01*
X468905Y193663D01*
X469418Y193619D01*
X469931Y193562D01*
X470441Y193493D01*
X470950Y193411D01*
X471457Y193316D01*
X471961Y193210D01*
X472463Y193091D01*
X472961Y192959D01*
X473456Y192816D01*
X473947Y192660D01*
X474435Y192492D01*
X474918Y192313D01*
X475396Y192121D01*
X475870Y191918D01*
X476339Y191704D01*
X476802Y191478D01*
X477259Y191240D01*
X477711Y190992D01*
X478156Y190732D01*
X478595Y190462D01*
X479027Y190181D01*
X479452Y189889D01*
X479870Y189587D01*
X480280Y189275D01*
X480682Y188953D01*
X481077Y188621D01*
X481463Y188280D01*
X481840Y187929D01*
X482209Y187569D01*
X482569Y187200D01*
X482920Y186823D01*
X483261Y186437D01*
X483593Y186042D01*
X483915Y185640D01*
X484227Y185230D01*
X484529Y184812D01*
X484821Y184387D01*
X485102Y183955D01*
X485372Y183516D01*
X485632Y183071D01*
X485880Y182619D01*
X486118Y182162D01*
X486344Y181699D01*
X486558Y181230D01*
X486761Y180756D01*
X486953Y180278D01*
X487132Y179795D01*
X487300Y179307D01*
X487456Y178816D01*
X487599Y178321D01*
X487731Y177823D01*
X487850Y177321D01*
X487956Y176817D01*
X488051Y176310D01*
X488133Y175801D01*
X488202Y175291D01*
X488259Y174778D01*
X488303Y174265D01*
X488335Y173750D01*
X488354Y173235D01*
X488360Y172720D01*
X488354Y172205D01*
X488335Y171690D01*
X488303Y171175D01*
X488259Y170662D01*
X488202Y170149D01*
X488133Y169639D01*
X488051Y169130D01*
X487956Y168623D01*
X487850Y168119D01*
X487731Y167617D01*
X487599Y167119D01*
X487456Y166624D01*
X487300Y166133D01*
X487132Y165645D01*
X486953Y165162D01*
X486761Y164684D01*
X486558Y164210D01*
X486344Y163741D01*
X486118Y163278D01*
X485880Y162821D01*
X485632Y162369D01*
X485372Y161924D01*
X485102Y161485D01*
X484821Y161053D01*
X484529Y160628D01*
X484227Y160210D01*
X483915Y159800D01*
X483593Y159398D01*
X483261Y159003D01*
X482920Y158617D01*
X482569Y158240D01*
X482209Y157871D01*
X481840Y157511D01*
X481463Y157160D01*
X481077Y156819D01*
X480682Y156487D01*
X480280Y156165D01*
X479870Y155853D01*
X479452Y155551D01*
X479027Y155259D01*
X478595Y154978D01*
X478156Y154708D01*
X477711Y154448D01*
X477259Y154200D01*
X476802Y153962D01*
X476339Y153736D01*
X475870Y153522D01*
X475396Y153319D01*
X474918Y153127D01*
X474435Y152948D01*
X473947Y152780D01*
X473456Y152624D01*
X472961Y152481D01*
X472463Y152349D01*
X471961Y152230D01*
X471457Y152124D01*
X470950Y152029D01*
X470441Y151947D01*
X469931Y151878D01*
X469418Y151821D01*
X468905Y151777D01*
X468390Y151745D01*
X467875Y151726D01*
X467360Y151720D01*
X466845Y151726D01*
X466330Y151745D01*
X465815Y151777D01*
X465302Y151821D01*
X464789Y151878D01*
X464279Y151947D01*
X463770Y152029D01*
X463263Y152124D01*
X462759Y152230D01*
X462257Y152349D01*
X461759Y152481D01*
X461264Y152624D01*
X460773Y152780D01*
X460285Y152948D01*
X459802Y153127D01*
X459324Y153319D01*
X458850Y153522D01*
X458381Y153736D01*
X457918Y153962D01*
X457461Y154200D01*
X457009Y154448D01*
X456564Y154708D01*
X456125Y154978D01*
X455693Y155259D01*
X455268Y155551D01*
X454850Y155853D01*
X454440Y156165D01*
X454038Y156487D01*
X453643Y156819D01*
X453257Y157160D01*
X452880Y157511D01*
X452511Y157871D01*
X452151Y158240D01*
X451800Y158617D01*
X451459Y159003D01*
X451127Y159398D01*
X450805Y159800D01*
X450493Y160210D01*
X450191Y160628D01*
X449899Y161053D01*
X449618Y161485D01*
X449348Y161924D01*
X449088Y162369D01*
X448840Y162821D01*
X448602Y163278D01*
X448376Y163741D01*
X448162Y164210D01*
X447959Y164684D01*
X447767Y165162D01*
X447588Y165645D01*
X447420Y166133D01*
X447264Y166624D01*
X447121Y167119D01*
X446989Y167617D01*
X446870Y168119D01*
X446764Y168623D01*
X446669Y169130D01*
X446587Y169639D01*
X446518Y170149D01*
X446461Y170662D01*
X446417Y171175D01*
X446385Y171690D01*
X446366Y172205D01*
X446360Y172720D01*
D11*
X260350Y336550D03*
X260350Y361950D03*
X184150Y361950D03*
X184150Y336550D03*
X260350Y387350D03*
X260350Y412750D03*
X184150Y387350D03*
X184150Y412750D03*
D12*
X261300Y219075D03*
D13*
X261300Y244475D03*
X261300Y269875D03*
X261300Y295275D03*
X183200Y295275D03*
X183200Y269875D03*
X183200Y244475D03*
X183200Y219075D03*
D14*
X104775Y122682D02*
X104775Y105918D01*
X66675Y105918D02*
X66675Y122682D01*
X28575Y122682D02*
X28575Y105918D01*
D15*
X44450Y352425D03*
X69850Y352425D03*
X44450Y327025D03*
X69850Y327025D03*
X44450Y301625D03*
X69850Y301625D03*
X44450Y276225D03*
X69850Y276225D03*
X44450Y250825D03*
X69850Y250825D03*
X44450Y225425D03*
X69850Y225425D03*
X44450Y200025D03*
X69850Y200025D03*
D16*
X161925Y517525D03*
X136525Y517525D03*
X111125Y517525D03*
X85725Y517525D03*
X60325Y517525D03*
X34925Y517525D03*
X212725Y517525D03*
X238125Y517525D03*
X263525Y517525D03*
X288925Y517525D03*
X314325Y517525D03*
X339725Y517525D03*
X365125Y517525D03*
X390525Y517525D03*
X136525Y34925D03*
X111125Y34925D03*
X85725Y34925D03*
X60325Y34925D03*
X34925Y34925D03*
X161925Y34925D03*
X187325Y34925D03*
X212725Y34925D03*
X253365Y34925D03*
X278765Y34925D03*
X304165Y34925D03*
X329565Y34925D03*
X354965Y34925D03*
X380365Y34925D03*
X405765Y34925D03*
X431165Y34925D03*
X456565Y34925D03*
X481965Y34925D03*
D17*
X406400Y273812D03*
X406400Y373888D03*
D18*
X292100Y179300D03*
D19*
X292100Y139700D03*
X292100Y100100D03*
D20*
X234950Y63500D03*
X260350Y63500D03*
X285750Y63500D03*
D18*
X387350Y179300D03*
D19*
X387350Y139700D03*
X387350Y100100D03*
D20*
X330200Y63500D03*
X355600Y63500D03*
X381000Y63500D03*
D21*
X254000Y508000D02*
X254000Y527050D01*
X254000Y508000D02*
X247650Y508000D01*
X247650Y527050D01*
X254000Y527050D01*
X251460Y523240D02*
X251460Y511810D01*
X251460Y523240D02*
X250190Y523240D01*
D22*
X254000Y165100D03*
X254000Y139700D03*
X203200Y63500D03*
X203200Y88900D03*
X254000Y114300D03*
X412750Y292100D03*
X463550Y292100D03*
X463550Y266700D03*
X463550Y241300D03*
X330200Y292100D03*
X355600Y292100D03*
X355600Y266700D03*
X304800Y241300D03*
X127000Y139700D03*
X25400Y63500D03*
X25400Y88900D03*
X50800Y88900D03*
X76200Y88900D03*
X76200Y63500D03*
X50800Y63500D03*
X304800Y469900D03*
X304800Y495300D03*
X330200Y469900D03*
X304800Y444500D03*
X330200Y444500D03*
X355600Y444500D03*
X228600Y495300D03*
X254000Y495300D03*
X254000Y469900D03*
X228600Y469900D03*
X203200Y444500D03*
X254000Y444500D03*
X101600Y469900D03*
X101600Y495300D03*
X127000Y495300D03*
X152400Y495300D03*
X152400Y469900D03*
X127000Y469900D03*
X101600Y444500D03*
X25400Y495300D03*
X25400Y469900D03*
X50800Y419100D03*
X101600Y368300D03*
X127000Y342900D03*
X152400Y342900D03*
X101600Y317500D03*
X127000Y317500D03*
X152400Y317500D03*
X304800Y368300D03*
X304800Y393700D03*
X330200Y393700D03*
X355600Y393700D03*
X355600Y368300D03*
X330200Y368300D03*
X304800Y342900D03*
X330200Y342900D03*
X355600Y342900D03*
X381000Y368300D03*
X381000Y393700D03*
X381000Y342900D03*
X412750Y393700D03*
X463550Y393700D03*
X463550Y368300D03*
X412750Y342900D03*
X463550Y342900D03*
X488950Y266700D03*
X488950Y292100D03*
X488950Y241300D03*
X381000Y266700D03*
X381000Y292100D03*
X381000Y241300D03*
X412750Y114300D03*
X463550Y114300D03*
X412750Y12700D03*
X438150Y12700D03*
X330200Y12700D03*
X381000Y12700D03*
X355600Y12700D03*
X254000Y12700D03*
X304800Y12700D03*
X279400Y12700D03*
X228600Y38100D03*
X177800Y63500D03*
X127000Y12700D03*
X152400Y12700D03*
X177800Y12700D03*
X25400Y12700D03*
X50800Y12700D03*
X76200Y12700D03*
X101600Y63500D03*
X101600Y12700D03*
X203200Y12700D03*
X152400Y190500D03*
X203200Y165100D03*
X203200Y139700D03*
X152400Y114300D03*
X177800Y114300D03*
X127000Y114300D03*
X50800Y114300D03*
X50800Y165100D03*
X101600Y165100D03*
X76200Y165100D03*
X50800Y139700D03*
X76200Y139700D03*
X152400Y215900D03*
X203200Y368300D03*
X228600Y342900D03*
X152400Y419100D03*
X177800Y469900D03*
X177800Y495300D03*
X177800Y444500D03*
X76200Y469900D03*
X76200Y495300D03*
X76200Y419100D03*
X279400Y469900D03*
X279400Y444500D03*
X304800Y419100D03*
X330200Y419100D03*
X355600Y419100D03*
X279400Y368300D03*
X279400Y393700D03*
X279400Y342900D03*
X203200Y419100D03*
X177800Y317500D03*
X463550Y88900D03*
X463550Y63500D03*
X488950Y63500D03*
X488950Y88900D03*
X304800Y317500D03*
X330200Y317500D03*
X355600Y317500D03*
X412750Y317500D03*
X463550Y317500D03*
X381000Y317500D03*
X488950Y368300D03*
X488950Y393700D03*
X488950Y342900D03*
X488950Y317500D03*
X381000Y469900D03*
X381000Y419100D03*
X279400Y419100D03*
D21*
X250190Y523240D02*
X254000Y527050D01*
D22*
X488950Y215900D03*
X488950Y114300D03*
X488950Y12700D03*
X133350Y279400D03*
X107950Y279400D03*
X82550Y279400D03*
X95250Y266700D03*
X128270Y245110D03*
X115570Y245110D03*
X120650Y279400D03*
X95250Y279400D03*
X167640Y270510D03*
X167640Y251460D03*
X193040Y257810D03*
X193040Y232410D03*
X193040Y283210D03*
X19050Y279400D03*
X19050Y317500D03*
X19050Y355600D03*
X19050Y387350D03*
X19050Y412750D03*
X19050Y247650D03*
X19050Y215900D03*
X19050Y196850D03*
X19050Y165100D03*
X31750Y184150D03*
X228600Y12700D03*
D21*
X161925Y133350D02*
X69850Y225425D01*
X161925Y133350D02*
X161925Y34925D01*
X59182Y210693D02*
X44450Y225425D01*
X59182Y210693D02*
X76679Y210693D01*
X136525Y150847D02*
X136525Y34925D01*
X136525Y150847D02*
X76679Y210693D01*
X69850Y250825D02*
X212725Y107950D01*
X212725Y34925D01*
X59182Y236093D02*
X44450Y250825D01*
X59182Y236093D02*
X76679Y236093D01*
X187325Y125447D02*
X187325Y34925D01*
X187325Y125447D02*
X76679Y236093D01*
D23*
X304800Y63500D02*
X330200Y63500D01*
D22*
X304800Y63500D03*
X234950Y63500D03*
D23*
X228600Y69850D01*
X228600Y165100D02*
X196850Y196850D01*
D22*
X196850Y196850D03*
D23*
X228600Y165100D02*
X228600Y69850D01*
D21*
X431800Y400050D02*
X314325Y517525D01*
D22*
X431800Y82550D03*
D21*
X423804Y190762D02*
X431800Y198758D01*
X423804Y190762D02*
X423804Y154679D01*
X431800Y146683D01*
X431800Y82550D01*
X431800Y198758D02*
X431800Y400050D01*
D23*
X261300Y269875D02*
X225425Y269875D01*
X196850Y298450D01*
X196850Y323850D01*
X184150Y336550D01*
X228600Y381000D01*
X228600Y457200D01*
X260350Y488950D01*
X279400Y488950D01*
X288925Y498475D01*
X288925Y517525D01*
X301625Y269875D02*
X261300Y269875D01*
X301625Y269875D02*
X330200Y241300D01*
X330200Y171450D01*
X330200Y120650D01*
X285750Y76200D02*
X285750Y63500D01*
X285750Y76200D02*
X292328Y82778D01*
X299275Y82778D01*
X309422Y92925D01*
X309422Y99872D01*
X330200Y120650D01*
X330200Y171450D02*
X342900Y171450D01*
X368300Y146050D01*
X368300Y76200D02*
X381000Y63500D01*
X368300Y76200D02*
X368300Y146050D01*
D21*
X228600Y330200D02*
X260350Y361950D01*
X228600Y330200D02*
X228600Y292100D01*
X234950Y285750D01*
D22*
X234950Y285750D03*
X318525Y71346D03*
D21*
X318525Y83575D01*
X342900Y107950D01*
D22*
X342900Y107950D03*
X374650Y209550D03*
D21*
X406400Y241300D01*
X406400Y273812D01*
D23*
X292100Y179300D02*
X266700Y153900D01*
X266700Y69850D02*
X260350Y63500D01*
X266700Y69850D02*
X266700Y153900D01*
X355600Y139700D02*
X355600Y63500D01*
D22*
X355600Y139700D03*
M02*
