M48
;GenerationSoftware,Autodesk,EAGLE,9.4.0*%
;CreationDate,2019-06-23T03:23:47Z*%
FMAT,2
ICI,OFF
METRIC,TZ,000.000
T8C0.350
T7C0.759
T6C0.813
T5C0.914
T4C1.000
T3C1.118
T2C1.194
T1C1.700
%
G90
M71
T1
X38735Y10010
X38735Y17930
X29210Y10010
X29210Y13970
X29210Y17930
X38735Y13970
T2
X40640Y37389
X40640Y27381
T3
X6667Y11430
X10478Y11430
X2857Y11430
T4
X31432Y51752
X33973Y51752
X39053Y51752
X13652Y3492
X11112Y3492
X8573Y3492
X6032Y3492
X3492Y3492
X26352Y51752
X16192Y3492
X18733Y3492
X21273Y3492
X25336Y3492
X27876Y3492
X30416Y3492
X32957Y3492
X35497Y3492
X38037Y3492
X40577Y3492
X43117Y3492
X45656Y3492
X48196Y3492
X11112Y51752
X16192Y51752
X13652Y51752
X36513Y51752
X8573Y51752
X6032Y51752
X3492Y51752
X21273Y51752
X23812Y51752
X28892Y51752
T5
X4445Y35243
X6985Y35243
X4445Y32702
X6985Y32702
X4445Y30162
X6985Y30162
X6985Y27622
X6985Y20003
X4445Y20003
X6985Y22542
X4445Y22542
X6985Y25082
X4445Y25082
X4445Y27622
T6
X26035Y33655
X26035Y36195
X18415Y36195
X18415Y33655
X26035Y38735
X26035Y41275
X18415Y38735
X18415Y41275
T7
X26130Y24447
X26130Y29527
X18320Y29527
X18320Y26987
X18320Y24447
X18320Y21907
X26130Y21907
X26130Y26987
T8
X41275Y1270
X43815Y1270
X33020Y1270
X38100Y1270
X35560Y1270
X25400Y1270
X30480Y1270
X27940Y1270
X22860Y3810
X17780Y6350
X12700Y1270
X15240Y1270
X17780Y1270
X2540Y1270
X5080Y1270
X7620Y1270
X10160Y6350
X10160Y1270
X20320Y1270
X15240Y19050
X20320Y16510
X20320Y13970
X15240Y11430
X17780Y11430
X12700Y11430
X5080Y11430
X5080Y16510
X10160Y16510
X7620Y16510
X5080Y13970
X7620Y13970
X15240Y21590
X20320Y36830
X22860Y34290
X15240Y41910
X17780Y46990
X17780Y49530
X17780Y44450
X7620Y46990
X7620Y49530
X7620Y41910
X27940Y46990
X27940Y44450
X30480Y41910
X33020Y41910
X35560Y41910
X27940Y36830
X27940Y39370
X27940Y34290
X20320Y41910
X17780Y31750
X46355Y8890
X25400Y44450
X48895Y6350
X48895Y8890
X30480Y31750
X33020Y31750
X35560Y31750
X41275Y31750
X46355Y31750
X38100Y31750
X48895Y36830
X48895Y39370
X48895Y34290
X48895Y31750
X38100Y46990
X38100Y41910
X27940Y41910
X48895Y21590
X48895Y11430
X48895Y1270
X13335Y27940
X10795Y27940
X8255Y27940
X9525Y26670
X12827Y24511
X11557Y24511
X12065Y27940
X9525Y27940
X16764Y27051
X16764Y25146
X19304Y25781
X19304Y23241
X19304Y28321
X1905Y27940
X1905Y31750
X1905Y35560
X1905Y38735
X1905Y41275
X1905Y24765
X1905Y21590
X1905Y19685
X1905Y16510
X3175Y18415
X22860Y1270
X30480Y6350
X23495Y6350
X19685Y19685
X43180Y8255
X23495Y28575
X31852Y7135
X34290Y10795
X37465Y20955
X35560Y13970
X25400Y16510
X25400Y13970
X20320Y6350
X20320Y8890
X25400Y11430
X41275Y29210
X46355Y29210
X46355Y26670
X46355Y24130
X33020Y29210
X35560Y29210
X35560Y26670
X30480Y24130
X12700Y13970
X2540Y6350
X2540Y8890
X5080Y8890
X7620Y8890
X7620Y6350
X5080Y6350
X30480Y46990
X30480Y49530
X33020Y46990
X30480Y44450
X33020Y44450
X35560Y44450
X22860Y49530
X25400Y49530
X25400Y46990
X22860Y46990
X20320Y44450
X10160Y46990
X10160Y49530
X12700Y49530
X15240Y49530
X15240Y46990
X12700Y46990
X10160Y44450
X2540Y49530
X2540Y46990
X5080Y41910
X46355Y6350
X10160Y36830
X12700Y34290
X15240Y34290
X10160Y31750
X12700Y31750
X15240Y31750
X30480Y36830
X30480Y39370
X33020Y39370
X35560Y39370
X35560Y36830
X33020Y36830
X30480Y34290
X33020Y34290
X35560Y34290
X38100Y36830
X38100Y39370
X38100Y34290
X41275Y39370
X46355Y39370
X46355Y36830
X41275Y34290
X46355Y34290
X48895Y26670
X48895Y29210
X48895Y24130
X38100Y26670
X38100Y29210
X38100Y24130
X41275Y11430
X46355Y11430
M30