M48
;GenerationSoftware,Autodesk,EAGLE,9.4.0*%
;CreationDate,2019-06-23T03:17:37Z*%
FMAT,2
ICI,OFF
METRIC,TZ,000.000
T2C0.350
T1C1.016
%
G90
M71
T1
X82550Y51435
X50165Y30480
X50165Y3810
X50165Y6350
X50165Y8890
X50165Y11430
X50165Y13970
X50165Y25400
X50165Y27940
X50165Y33020
X50165Y35560
X50165Y46990
X50165Y49530
X50165Y52070
X50165Y54610
X50165Y57150
X50165Y68580
X50165Y71120
X50165Y73660
X50165Y76200
X50165Y78740
X71120Y51435
X68580Y51435
X66040Y51435
X63500Y51435
X60960Y51435
X92710Y51435
X90170Y51435
X87630Y51435
X85090Y51435
T2
X34290Y53340
X29845Y50800
X17780Y50800
X17780Y46355
X20320Y53975
X20320Y59055
X22225Y59055
X43180Y59690
X46355Y62230
X23915Y59690
X27305Y62230
X24758Y56204
X26035Y54610
X23129Y55880
X25400Y53975
X34290Y74930
X29845Y72390
X17780Y72390
X17780Y67945
X20320Y75565
X20320Y80645
X22225Y80645
X43180Y81280
X46355Y83820
X23915Y81280
X27305Y83820
X24758Y77794
X26035Y76200
X23129Y77470
X25400Y75565
X64770Y35560
X67310Y31115
X67310Y19050
X71755Y19050
X64135Y21590
X59055Y21590
X59055Y23495
X58420Y44450
X55880Y47625
X58420Y25185
X55880Y28575
X61906Y26028
X63500Y27305
X62230Y24399
X64135Y26670
X86360Y35560
X88900Y31115
X88900Y19050
X93345Y19050
X85725Y21590
X80645Y21590
X80645Y23495
X80010Y44450
X77470Y47625
X80010Y25185
X77470Y28575
X83496Y26028
X85090Y27305
X83820Y24399
X43180Y38100
X16510Y21260
X17145Y21260
X17780Y21260
X47625Y21260
X48260Y21260
X48895Y21260
X52072Y17780
X16510Y22463
X16510Y42850
X17145Y42850
X17780Y42850
X47625Y42850
X48260Y42850
X48895Y42850
X52072Y38100
X52072Y38735
X52072Y39370
X17145Y22463
X17780Y22463
X47625Y22463
X48260Y22463
X48895Y22463
X16510Y44053
X16510Y64440
X17145Y64440
X17780Y64440
X47625Y64440
X48260Y64440
X48895Y64440
X17145Y44053
X17780Y44053
X47625Y44053
X48260Y44053
X48895Y44053
X16510Y65643
X17145Y65643
X17780Y65643
X47625Y65643
X48260Y65643
X48895Y65643
X74057Y17780
X53670Y17780
X53670Y48895
X34290Y10160
X74057Y19050
X74057Y48895
X74057Y49530
X74057Y50165
X75260Y17780
X75260Y18415
X75260Y19050
X75260Y48895
X75260Y49530
X75260Y50165
X53670Y39370
X53670Y38735
X53670Y38100
X52072Y48895
X29845Y7620
X17780Y7620
X17780Y3175
X20320Y10795
X20320Y15875
X22225Y15875
X43180Y16510
X85725Y26670
X46355Y19050
X23915Y16510
X27305Y19050
X24758Y13024
X26035Y11430
X23129Y12700
X25400Y10795
X34290Y31750
X29845Y29210
X17780Y29210
X17780Y24765
X20320Y32385
X20320Y37465
X22225Y37465
X46355Y40640
X23915Y38100
X27305Y40640
X24758Y34614
X26035Y33020
X23129Y34290
X25400Y32385
X74057Y18415
M30