M48
;GenerationSoftware,Autodesk,EAGLE,9.4.0*%
;CreationDate,2019-06-19T15:44:25Z*%
FMAT,2
ICI,OFF
METRIC,TZ,000.000
T12C0.350
T11C0.759
T10C0.800
T9C0.813
T8C0.914
T7C1.000
T6C1.016
T5C1.118
T4C1.194
T3C1.200
T2C1.700
T1C1.800
%
G90
M71
T1
X93185Y66375
X93191Y80717
T2
X38735Y10010
X29210Y13970
X29210Y10010
X29210Y17930
X38735Y17930
X38735Y13970
T3
X70630Y52400
X73170Y52400
X56660Y10545
X98065Y73375
X85565Y73375
X98065Y68375
X85565Y68375
X57000Y89540
X97000Y32270
X57000Y70460
X57000Y73000
X56660Y13085
X57000Y75540
X96000Y49270
X98071Y87717
X85571Y87717
X98071Y82717
X85571Y82717
X97000Y21730
X97000Y24270
X57000Y84460
X57000Y87000
X97000Y29730
X96000Y46730
X55630Y20695
X58170Y20695
T4
X40640Y27381
X40640Y37389
T5
X6667Y11430
X2857Y11430
X10478Y11430
T6
X56412Y35200
X50165Y68580
X56412Y32660
X56412Y27580
X50165Y92710
X50165Y82550
X50165Y85090
X50165Y87630
X50165Y90170
X56412Y40280
X56412Y37740
X56412Y30120
X50165Y58420
X50165Y60960
X50165Y63500
X50165Y66040
T7
X16192Y3492
X18733Y3492
X21273Y3492
X3492Y51752
X6032Y51752
X8573Y51752
X11112Y51752
X16192Y51752
X48196Y3492
X45656Y3492
X13652Y51752
X43117Y3492
X40577Y3492
X38037Y3492
X35497Y3492
X32957Y3492
X30416Y3492
X26352Y51752
X28892Y51752
X31432Y51752
X33973Y51752
X23812Y51752
X27876Y3492
X25336Y3492
X3492Y3492
X36513Y51752
X39053Y51752
X13652Y3492
X11112Y3492
X8573Y3492
X6032Y3492
X21273Y51752
T8
X63540Y58745
X63540Y61285
X61000Y58745
X61000Y61285
X58460Y58745
X58460Y61285
X4445Y25082
X6985Y25082
X4445Y22542
X6985Y22542
X6985Y20003
X4445Y20003
X68620Y61285
X4445Y35243
X6985Y35243
X4445Y32702
X6985Y32702
X4445Y30162
X6985Y30162
X4445Y27622
X73700Y58745
X73700Y61285
X71160Y58745
X71160Y61285
X68620Y58745
X6985Y27622
X66080Y58745
X66080Y61285
T9
X56205Y51060
X56205Y48520
X56205Y45980
X79080Y51798
X63825Y45980
X63825Y51060
X63825Y48520
X18415Y41275
X18415Y38735
X26035Y41275
X26035Y38735
X18415Y33655
X18415Y36195
X26035Y36195
X26035Y33655
X82972Y48532
T10
X88011Y80137
X95631Y90297
X88005Y65795
X95625Y75955
T11
X18320Y21907
X18320Y26987
X18320Y29527
X26130Y29527
X26130Y26987
X26130Y24447
X26130Y21907
X18320Y24447
T12
X48895Y1270
X13335Y27940
X10795Y27940
X8255Y27940
X9525Y26670
X12827Y24511
X11557Y24511
X12065Y27940
X9525Y27940
X16764Y27051
X16764Y25146
X19304Y25781
X19304Y23241
X19304Y28321
X1905Y27940
X1905Y31750
X1905Y35560
X1905Y38735
X1905Y41275
X1905Y24765
X1905Y21590
X1905Y19685
X1905Y16510
X3175Y18415
X22860Y1270
X30480Y6350
X23495Y6350
X19685Y19685
X43180Y8255
X23495Y28575
X31852Y7135
X34290Y10795
X37465Y20955
X96520Y63815
X61595Y80050
X60960Y66040
X97950Y12700
X66791Y76719
X62865Y63500
X78740Y41275
X78335Y56515
X17780Y86360
X17780Y81915
X20320Y89535
X43180Y95250
X46355Y97790
X43815Y81598
X31750Y81598
X18733Y92392
X23915Y95250
X27305Y97790
X24758Y91764
X26035Y90170
X23129Y91440
X25400Y89535
X26035Y92075
X30004Y90853
X35560Y13970
X17780Y62230
X17780Y57785
X20320Y65405
X43180Y71120
X46355Y73660
X43498Y57277
X30797Y57277
X18415Y68580
X23915Y71120
X27305Y73660
X24758Y67634
X26035Y66040
X23129Y67310
X33020Y36830
X26035Y67945
X30004Y66723
X25400Y16510
X25400Y13970
X52070Y635
X52070Y1270
X52070Y1905
X52070Y31750
X52070Y31115
X52070Y30480
X52070Y29845
X52070Y52070
X52070Y53340
X52070Y52705
X53000Y52070
X53000Y53340
X53000Y52705
X53000Y31750
X53000Y31115
X53000Y30480
X53000Y29845
X53000Y635
X53000Y1270
X53000Y1905
X49530Y54610
X48895Y54610
X48260Y54610
X17145Y54610
X15875Y54610
X16510Y54610
X52070Y59690
X52070Y59055
X52070Y73660
X52070Y73025
X52070Y72390
X52070Y81915
X52070Y83185
X52070Y82550
X52070Y95885
X52070Y97155
X52070Y96520
X16510Y55610
X15875Y55610
X17145Y55610
X48260Y55610
X48895Y55610
X49530Y55610
X53000Y59690
X53000Y58420
X53000Y59055
X53000Y73660
X53000Y73025
X53000Y72390
X52070Y58420
X15875Y75992
X16510Y75992
X17145Y75992
X49530Y75992
X48895Y75992
X48260Y75992
X15875Y79613
X16510Y79613
X17145Y79613
X48260Y79613
X48895Y79613
X49530Y79613
X53000Y81915
X53000Y82550
X53000Y83185
X53000Y96520
X53000Y97155
X53000Y95885
X20320Y6350
X20320Y8890
X25400Y11430
X41275Y29210
X46355Y29210
X46355Y26670
X46355Y24130
X33020Y29210
X35560Y29210
X35560Y26670
X30480Y24130
X12700Y13970
X2540Y6350
X2540Y8890
X5080Y8890
X7620Y8890
X7620Y6350
X5080Y6350
X30480Y46990
X30480Y49530
X33020Y46990
X30480Y44450
X33020Y44450
X35560Y44450
X22860Y49530
X25400Y49530
X25400Y46990
X22860Y46990
X20320Y44450
X25400Y44450
X10160Y46990
X10160Y49530
X12700Y49530
X15240Y49530
X15240Y46990
X12700Y46990
X10160Y44450
X2540Y49530
X2540Y46990
X5080Y41910
X10160Y36830
X12700Y34290
X15240Y34290
X10160Y31750
X12700Y31750
X15240Y31750
X30480Y36830
X30480Y39370
X33020Y39370
X35560Y39370
X35560Y36830
X30480Y34290
X33020Y34290
X35560Y34290
X38100Y36830
X38100Y39370
X38100Y34290
X41275Y39370
X46355Y39370
X46355Y36830
X41275Y34290
X46355Y34290
X48895Y26670
X48895Y29210
X48895Y24130
X38100Y26670
X38100Y29210
X38100Y24130
X41275Y11430
X46355Y11430
X41275Y1270
X43815Y1270
X33020Y1270
X38100Y1270
X35560Y1270
X25400Y1270
X30480Y1270
X27940Y1270
X22860Y3810
X17780Y6350
X12700Y1270
X15240Y1270
X17780Y1270
X2540Y1270
X5080Y1270
X7620Y1270
X10160Y6350
X25400Y65405
X10160Y1270
X20320Y1270
X15240Y19050
X20320Y16510
X20320Y13970
X15240Y11430
X17780Y11430
X12700Y11430
X5080Y11430
X5080Y16510
X10160Y16510
X7620Y16510
X5080Y13970
X7620Y13970
X15240Y21590
X20320Y36830
X22860Y34290
X15240Y41910
X17780Y46990
X17780Y49530
X17780Y44450
X7620Y46990
X7620Y49530
X7620Y41910
X27940Y46990
X27940Y44450
X30480Y41910
X33020Y41910
X35560Y41910
X27940Y36830
X27940Y39370
X27940Y34290
X20320Y41910
X17780Y31750
X46355Y8890
X46355Y6350
X48895Y6350
X48895Y8890
X30480Y31750
X33020Y31750
X35560Y31750
X41275Y31750
X46355Y31750
X38100Y31750
X48895Y36830
X48895Y39370
X48895Y34290
X48895Y31750
X38100Y46990
X38100Y41910
X27940Y41910
X48895Y21590
X48895Y11430
M30